<svg width="48" height="48" viewBox="0 0 48 48" fill="none" xmlns="http://www.w3.org/2000/svg">
<g opacity="0.7">
<path d="M6 16C6 17.1 6.9 18 8 18C9.1 18 10 17.1 10 16V12H14C15.1 12 16 11.1 16 10C16 8.9 15.1 8 14 8H10V4C10 2.9 9.1 2 8 2C6.9 2 6 2.9 6 4V8H2C0.9 8 0 8.9 0 10C0 11.1 0.9 12 2 12H6V16Z" fill="white"/>
<path d="M26 34C29.3137 34 32 31.3137 32 28C32 24.6863 29.3137 22 26 22C22.6863 22 20 24.6863 20 28C20 31.3137 22.6863 34 26 34Z" fill="white"/>
<path d="M42 12H35.66L33.18 9.3C32.8073 8.89079 32.3533 8.56381 31.8471 8.33997C31.3409 8.11613 30.7935 8.00034 30.24 8H17.44C17.78 8.6 18 9.26 18 10C18 12.2 16.2 14 14 14H12V16C12 18.2 10.2 20 8 20C7.26 20 6.6 19.78 6 19.44V40C6 42.2 7.8 44 10 44H42C44.2 44 46 42.2 46 40V16C46 13.8 44.2 12 42 12ZM26 38C20.48 38 16 33.52 16 28C16 22.48 20.48 18 26 18C31.52 18 36 22.48 36 28C36 33.52 31.52 38 26 38Z" fill="white"/>
</g>
</svg>
