<svg width="18" height="18" viewBox="0 0 18 18" fill="none" xmlns="http://www.w3.org/2000/svg">
<path fill-rule="evenodd" clip-rule="evenodd" d="M1.71429 0C0.767512 0 0 0.767513 0 1.71429V3.42857C0 4.37535 0.767513 5.14286 1.71429 5.14286H3.42857C4.37535 5.14286 5.14286 4.37534 5.14286 3.42857V1.71429C5.14286 0.767512 4.37534 0 3.42857 0H1.71429ZM1.71429 12.8571C0.767512 12.8571 0 13.6247 0 14.5714V16.2857C0 17.2325 0.767513 18 1.71429 18H3.42857C4.37535 18 5.14286 17.2325 5.14286 16.2857V14.5714C5.14286 13.6247 4.37534 12.8571 3.42857 12.8571H1.71429ZM12.8571 1.71429C12.8571 0.767513 13.6247 0 14.5714 0H16.2857C17.2325 0 18 0.767512 18 1.71429V3.42857C18 4.37534 17.2325 5.14286 16.2857 5.14286H14.5714C13.6247 5.14286 12.8571 4.37535 12.8571 3.42857V1.71429ZM14.5714 12.8571C13.6247 12.8571 12.8571 13.6247 12.8571 14.5714V16.2857C12.8571 17.2325 13.6247 18 14.5714 18H16.2857C17.2325 18 18 17.2325 18 16.2857V14.5714C18 13.6247 17.2325 12.8571 16.2857 12.8571H14.5714Z" fill="white"/>
</svg>
