<svg width="24" height="24" viewBox="0 0 24 24" fill="none" xmlns="http://www.w3.org/2000/svg">
<g clip-path="url(#clip0)">
<path d="M9.96662 19.1787C9.09356 19.1791 8.22495 19.0541 7.38745 18.8074L9.85087 16.344L6.4612 12.9543L0.121019 19.2905C-0.0355322 19.4458 -0.0365615 19.6986 0.118726 19.8552C0.119475 19.856 0.12027 19.8567 0.121019 19.8575C2.72259 22.4955 6.26961 23.9858 9.97462 23.9978C12.0901 23.9959 14.1765 23.5054 16.0712 22.5644L12.3621 18.8553C11.5818 19.0702 10.776 19.179 9.96662 19.1787ZM3.08581 19.8551C3.08506 19.8559 3.08426 19.8567 3.08351 19.8574C2.92823 20.014 2.67543 20.015 2.51888 19.8597C2.51809 19.859 2.51734 19.8582 2.51659 19.8574L1.60231 18.9432L2.16924 18.3762L3.08347 19.2905C3.24002 19.4458 3.24109 19.6986 3.08581 19.8551ZM4.28357 18.6574C4.28282 18.6582 4.28202 18.659 4.28127 18.6597C4.12599 18.8163 3.87319 18.8173 3.71664 18.662C3.71585 18.6613 3.7151 18.6605 3.71435 18.6597L2.80007 17.7454L3.367 17.1785L4.28123 18.0928C4.43778 18.248 4.43885 18.5008 4.28357 18.6574ZM5.48133 17.4596C5.48058 17.4604 5.47978 17.4612 5.47904 17.4619C5.32375 17.6185 5.07095 17.6195 4.9144 17.4642C4.91361 17.4634 4.91286 17.4627 4.91211 17.4619L3.99784 16.5476L4.56476 15.9807L5.47904 16.895C5.63554 17.0503 5.63662 17.3031 5.48133 17.4596ZM6.67909 16.2619C6.67834 16.2627 6.67755 16.2634 6.6768 16.2642C6.52151 16.4207 6.26872 16.4218 6.11216 16.2665C6.11137 16.2657 6.11062 16.2649 6.10987 16.2642L5.1956 15.3499L5.76252 14.783L6.6768 15.6973C6.8333 15.8525 6.83438 16.1053 6.67909 16.2619Z" fill="#BFBFBF"/>
<path d="M18.8019 7.38876C19.299 9.01247 19.3184 10.745 18.8578 12.3794L22.5589 16.0805C25.2152 10.7334 24.122 4.28347 19.8519 0.110344C19.6923 -0.0418556 19.4396 -0.0358668 19.2874 0.123726C19.2865 0.124614 19.2857 0.125457 19.2849 0.126346L12.9448 6.46648L16.3345 9.85614L18.8019 7.38876ZM18.9376 1.60755L19.8519 2.52187C20.0084 2.67716 20.0095 2.92995 19.8542 3.0865C19.8534 3.0873 19.8526 3.08804 19.8519 3.08879C19.6966 3.24534 19.4438 3.24637 19.2872 3.09109C19.2864 3.09034 19.2857 3.08954 19.2849 3.08879L18.3707 2.17452L18.9376 1.60755ZM17.7398 2.80531L18.6541 3.71963C18.8107 3.87492 18.8117 4.12771 18.6564 4.28426C18.6557 4.28501 18.6549 4.28581 18.6541 4.28655C18.4988 4.44311 18.246 4.44413 18.0895 4.28885C18.0887 4.2881 18.0879 4.2873 18.0872 4.28655L17.1729 3.37228L17.7398 2.80531ZM16.5421 4.00307L17.4564 4.91734C17.6129 5.07263 17.6139 5.32542 17.4586 5.48198C17.4579 5.48277 17.4571 5.48352 17.4564 5.48427C17.3011 5.64082 17.0483 5.64185 16.8917 5.48656C16.8909 5.48581 16.8902 5.48502 16.8894 5.48427L15.9752 4.56999L16.5421 4.00307ZM16.2586 6.68208C16.1033 6.83863 15.8505 6.83966 15.694 6.68437C15.6932 6.68362 15.6924 6.68283 15.6917 6.68208L14.7774 5.7678L15.3443 5.20088L16.2586 6.11515C16.4151 6.27044 16.4162 6.52323 16.2609 6.67978C16.2601 6.68053 16.2594 6.68133 16.2586 6.68208Z" fill="#BFBFBF"/>
<path d="M23.8766 18.524L22.1677 16.8112L19.6005 14.248L18.5744 13.2179L14.9812 9.62461L14.4102 9.05769L12.9489 7.59642L12.382 7.02949L7.90637 2.55384C6.44389 1.05725 4.045 1.02965 2.54845 2.49218C1.05186 3.95471 1.0243 6.3536 2.48683 7.85015C2.50714 7.87092 2.52767 7.89146 2.54845 7.91177L18.5186 23.8819C18.6739 24.0385 18.9267 24.0395 19.0832 23.8842C19.084 23.8834 19.0848 23.8827 19.0855 23.8819L23.8766 19.0909C24.0331 18.9356 24.0341 18.6828 23.8788 18.5262C23.8781 18.5255 23.8773 18.5247 23.8766 18.524ZM18.2351 14.0164L18.802 14.5833L17.4885 15.8969C17.4131 15.9716 17.3111 16.0133 17.205 16.0127C17.1117 16.0128 17.0213 15.9804 16.9495 15.9208L16.9215 15.8969C16.765 15.7416 16.764 15.4888 16.9192 15.3322C16.92 15.3314 16.9208 15.3307 16.9215 15.3299L18.2191 14.0164H18.2351ZM17.6043 13.3856L16.2907 14.6991C16.1355 14.8557 15.8827 14.8567 15.7261 14.7014C15.7253 14.7007 15.7246 14.6999 15.7238 14.6991C15.5673 14.5439 15.5662 14.2911 15.7215 14.1345C15.7223 14.1337 15.7231 14.133 15.7238 14.1322L17.0374 12.8187L17.6043 13.3856ZM16.4065 12.1878L15.093 13.5014C14.9377 13.6579 14.6849 13.659 14.5284 13.5037C14.5276 13.5029 14.5268 13.5021 14.5261 13.5014C14.3695 13.3461 14.3685 13.0933 14.5238 12.9367C14.5245 12.936 14.5253 12.9352 14.5261 12.9345L15.8396 11.6209L16.4065 12.1878ZM14.6418 10.4231L15.2087 10.986L13.8952 12.3036C13.8869 12.3139 13.8775 12.3232 13.8672 12.3315C13.8352 12.3588 13.7988 12.3804 13.7594 12.3954C13.7119 12.4115 13.6619 12.4196 13.6117 12.4193C13.3912 12.4206 13.2115 12.2429 13.2102 12.0224C13.2096 11.9151 13.2521 11.8121 13.3283 11.7366L13.8433 11.2216L14.4102 10.6546L14.6418 10.4231ZM13.4441 9.22533L14.011 9.79225L12.6974 11.1058C12.6221 11.1805 12.5201 11.2222 12.4139 11.2216C12.365 11.2215 12.3165 11.2134 12.2702 11.1977C12.2183 11.1761 12.1709 11.145 12.1304 11.1058C11.9739 10.9505 11.9729 10.6977 12.1282 10.5412C12.1289 10.5404 12.1297 10.5396 12.1304 10.5389L12.2901 10.3792L13.4441 9.22533ZM12.8133 8.59454L11.4997 9.9081C11.3444 10.0646 11.0916 10.0657 10.9351 9.91039C10.9343 9.90964 10.9335 9.90885 10.9328 9.9081C10.7762 9.75281 10.7752 9.50002 10.9305 9.34347C10.9312 9.34267 10.932 9.34192 10.9328 9.34117L12.2463 8.02761L12.8133 8.59454ZM11.6155 7.39678L10.3019 8.71034C10.1467 8.86689 9.89386 8.86792 9.73731 8.71263C9.73651 8.71188 9.73577 8.71109 9.73502 8.71034C9.57847 8.55505 9.57744 8.30226 9.73272 8.1457C9.73347 8.14491 9.73427 8.14416 9.73502 8.14341L11.0486 6.82985L11.6155 7.39678ZM8.53726 6.9456L9.85082 5.63204L10.4177 6.19897L9.10418 7.51253C8.94889 7.66908 8.6961 7.67011 8.53955 7.51482C8.53875 7.51407 8.538 7.51328 8.53726 7.51253C8.38548 7.35738 8.38987 7.10506 8.53726 6.9456ZM5.42705 7.22909C4.43478 7.22909 3.63041 6.42472 3.63041 5.43245C3.63041 4.44018 4.43478 3.63581 5.42705 3.63581C6.41932 3.63581 7.22369 4.44018 7.22369 5.43245C7.2215 6.42378 6.41839 7.22689 5.42705 7.22909ZM7.79062 12.0201L7.59098 11.8205L7.22365 11.4532L7.73868 10.9381C7.89397 10.7816 8.14677 10.7805 8.30332 10.9358C8.30411 10.9366 8.30486 10.9374 8.30561 10.9381C8.33392 10.9666 8.35811 10.9988 8.37748 11.0339C8.46015 11.1897 8.43095 11.3811 8.30561 11.5051L7.79062 12.0201ZM9.50342 12.7029L8.98838 13.2179L8.42146 12.651L8.93649 12.1359C9.08813 11.9759 9.34083 11.969 9.50094 12.1207C9.62095 12.2344 9.65847 12.4103 9.59526 12.5631C9.57486 12.6156 9.54356 12.6633 9.50342 12.7029ZM10.1861 14.4157L9.61922 13.8487L10.1343 13.3337C10.2908 13.1771 10.5446 13.1771 10.7012 13.3337C10.8577 13.4902 10.8577 13.7441 10.7012 13.9006L10.1861 14.4157ZM11.8989 15.0984L11.3839 15.6134L10.9847 15.2142L10.817 15.0465L11.332 14.5315C11.442 14.422 11.6055 14.3861 11.7512 14.4396C11.8066 14.459 11.8571 14.4903 11.8989 14.5315C12.0555 14.6867 12.0565 14.9395 11.9012 15.0961C11.9005 15.0968 11.8997 15.0976 11.8989 15.0984ZM13.0967 16.2961L12.5817 16.8112L12.0147 16.2443L12.5298 15.7292C12.6786 15.5649 12.9324 15.5524 13.0967 15.7013C13.261 15.8501 13.2735 16.1039 13.1246 16.2682C13.1144 16.2764 13.105 16.2858 13.0967 16.2961ZM13.7794 18.0089L13.2125 17.442L13.7275 16.927C13.8841 16.7704 14.1379 16.7704 14.2945 16.927C14.451 17.0835 14.451 17.3374 14.2945 17.4939L13.7794 18.0089ZM14.9772 19.2067L14.4103 18.6398L14.9253 18.1247C15.0819 17.9682 15.3357 17.9682 15.4922 18.1247C15.6488 18.2813 15.6488 18.5351 15.4922 18.6917L14.9772 19.2067ZM16.1749 20.4045L15.608 19.8375L15.8396 19.606L16.1231 19.3225C16.2796 19.166 16.5334 19.166 16.69 19.3225C16.8465 19.4791 16.8465 19.7329 16.69 19.8894L16.1749 20.4045ZM17.8877 21.0872L17.3727 21.6022L16.8058 21.0353L17.3208 20.5203C17.4774 20.3637 17.7312 20.3637 17.8877 20.5203C18.0443 20.6768 18.0443 20.9306 17.8877 21.0872ZM18.6863 17.0946C18.531 17.2512 18.2782 17.2522 18.1216 17.0969C18.1208 17.0962 18.1201 17.0954 18.1193 17.0946C17.9628 16.9393 17.9618 16.6865 18.1171 16.53C18.1178 16.5292 18.1186 16.5284 18.1193 16.5277L19.4329 15.2141L19.9998 15.7811L18.6863 17.0946ZM19.6005 18.4082C19.4944 18.4088 19.3924 18.3671 19.3171 18.2924C19.1605 18.1371 19.1595 17.8843 19.3148 17.7277C19.3155 17.727 19.3163 17.7262 19.3171 17.7255L19.6005 17.442L20.6306 16.4119L21.1975 16.9788L19.884 18.2924C19.8087 18.3671 19.7067 18.4088 19.6005 18.4082ZM21.0818 19.4901C20.9265 19.6467 20.6737 19.6477 20.5172 19.4924C20.5164 19.4917 20.5156 19.4909 20.5149 19.4901C20.3583 19.3349 20.3573 19.0821 20.5126 18.9255C20.5133 18.9247 20.5141 18.924 20.5149 18.9232L21.3134 18.1247L21.8284 17.6097L22.3954 18.1766L21.0818 19.4901Z" fill="#BFBFBF"/>
</g>
<defs>
<clipPath id="clip0">
<rect width="24" height="24" fill="white"/>
</clipPath>
</defs>
</svg>
