<svg width="56" height="56" viewBox="0 0 56 56" fill="none" xmlns="http://www.w3.org/2000/svg">
<g clip-path="url(#clip0)">
<path d="M47.8709 4.96816H38.8386C35.5645 6.26655 34.8387 4.06494 28 4.06494C21.1613 4.06494 20.4355 6.26655 17.1613 4.96816H8.12907L6.92474 27.6618C7.67746 36.5811 13.2097 41.436 17.5754 43.2048H38.4247C42.7903 41.436 48.3226 36.5811 49.0754 27.6618L47.8709 4.96816Z" fill="#F5DCB4"/>
<path d="M38.8388 4.96757C49.0086 8.01159 43.4723 23.7095 50.0206 30.4951C50.9606 31.4692 52.6216 31.0365 53.0139 29.7409C53.5324 28.0291 54.0502 25.321 53.9678 21.4515C53.8549 16.1451 56.0001 15.8064 56.0001 15.8064C56.0001 15.8064 53.2904 3.16113 45.1614 3.16113C42.4517 3.16113 38.8388 4.96757 38.8388 4.96757Z" fill="#965A50"/>
<path d="M18.5162 28.4517C16.7774 28.4517 15.3549 27.0292 15.3549 25.2905V23.484C15.3549 21.7453 16.7774 20.3228 18.5162 20.3228C20.2549 20.3228 21.6774 21.7453 21.6774 23.484V25.2905C21.6775 27.0293 20.2549 28.4517 18.5162 28.4517Z" fill="#4B3F4E"/>
<path d="M18.5161 20.3228C18.3615 20.3228 18.2132 20.3469 18.0645 20.3686V24.8388C18.0645 25.8365 18.8733 26.6453 19.8709 26.6453C20.8686 26.6453 21.6773 25.8365 21.6773 24.8388V23.4841C21.6774 21.7455 20.2548 20.3228 18.5161 20.3228Z" fill="#5D5360"/>
<path d="M18.5162 23.9357C19.2644 23.9357 19.871 23.3292 19.871 22.5809C19.871 21.8327 19.2644 21.2261 18.5162 21.2261C17.7679 21.2261 17.1613 21.8327 17.1613 22.5809C17.1613 23.3292 17.7679 23.9357 18.5162 23.9357Z" fill="white"/>
<path d="M37.4839 28.4517C35.7452 28.4517 34.3226 27.0292 34.3226 25.2905V23.484C34.3226 21.7453 35.7452 20.3228 37.4839 20.3228C39.2226 20.3228 40.6452 21.7453 40.6452 23.484V25.2905C40.6452 27.0293 39.2225 28.4517 37.4839 28.4517Z" fill="#4B3F4E"/>
<path d="M37.4838 20.3228C37.3293 20.3228 37.1809 20.3469 37.0322 20.3686V24.8388C37.0322 25.8365 37.841 26.6453 38.8386 26.6453C39.8363 26.6453 40.6451 25.8365 40.6451 24.8388V23.4841C40.6451 21.7455 39.2224 20.3228 37.4838 20.3228Z" fill="#5D5360"/>
<path d="M37.4839 23.9357C38.2321 23.9357 38.8387 23.3292 38.8387 22.5809C38.8387 21.8327 38.2321 21.2261 37.4839 21.2261C36.7356 21.2261 36.1291 21.8327 36.1291 22.5809C36.1291 23.3292 36.7356 23.9357 37.4839 23.9357Z" fill="white"/>
<path d="M50.0206 30.4951C50.9606 31.4692 52.6216 31.0365 53.0139 29.7409C53.3112 28.7591 53.6045 27.4374 53.7883 25.7692C52.0127 24.8841 50.497 22.0602 49.5646 17.2741C47.871 8.58055 45.5001 3.72572 38.8388 4.96756C49.0086 8.01158 43.4723 23.7096 50.0206 30.4951Z" fill="#824641"/>
<path d="M17.5754 43.2048H21.8564C21.8564 43.2048 14.3388 38.1618 13.0969 29.2424C10.6809 11.8908 15.2797 6.69934 19.2573 5.37459C18.6272 5.39592 17.9727 5.28993 17.1614 4.96826H8.12907L6.92474 27.6618C7.67746 36.5811 13.2097 41.436 17.5754 43.2048Z" fill="#E7C9A5"/>
<path d="M17.1613 4.96757C6.99147 8.01159 12.5279 23.7097 5.97953 30.4951C5.03945 31.4692 3.37848 31.0365 2.98616 29.7409C2.46772 28.0291 1.94994 25.321 2.0323 21.4515C2.14517 16.1451 0 15.8064 0 15.8064C0 15.8064 2.70966 3.16113 10.8387 3.16113C13.5484 3.16113 17.1613 4.96757 17.1613 4.96757Z" fill="#965A50"/>
<path d="M16.859 4.82374C15.9424 4.39849 13.0838 3.16113 10.8387 3.16113C2.70966 3.16113 0 15.8064 0 15.8064C0 15.8064 2.14517 16.1452 2.0323 21.4516C2.03077 21.5225 2.03284 21.5862 2.03175 21.6563C7.22936 1.93744 15.2161 4.13129 16.859 4.82374Z" fill="#824641"/>
<path d="M27.9999 51.0322C33.4872 51.0322 37.9356 47.7973 37.9356 43.8069C37.9356 39.8164 33.4872 36.5815 27.9999 36.5815C22.5126 36.5815 18.0643 39.8164 18.0643 43.8069C18.0643 47.7973 22.5126 51.0322 27.9999 51.0322Z" fill="#BC8E78"/>
<path d="M23.484 43.8066V48.3227C23.484 50.8169 25.5059 52.8388 28.0001 52.8388C30.4943 52.8388 32.5162 50.8169 32.5162 48.3227V43.8066H23.484Z" fill="#FF8087"/>
<path d="M23.484 47.3343C24.7901 47.1707 26.0224 46.7733 27.0969 46.1725V47.4196C27.0969 47.9184 27.5013 48.3228 28.0001 48.3228C28.4988 48.3228 28.9033 47.9184 28.9033 47.4196V46.161C29.9674 46.7683 31.203 47.17 32.5162 47.3346V43.8066H23.484V47.3343Z" fill="#E6646E"/>
<path d="M33.871 35.6772H22.1292C18.3879 35.6772 15.355 37.9014 15.355 40.6449C15.355 43.3885 18.388 45.6126 22.1292 45.6126C24.0132 45.6126 25.7147 45.0473 26.9411 44.1363C27.2517 43.9057 27.626 43.7905 27.9998 43.7905C28.3742 43.7905 28.7486 43.9056 29.0591 44.1363C30.2855 45.0473 31.987 45.6126 33.871 45.6126C37.6123 45.6126 40.6452 43.3885 40.6452 40.6449C40.6453 37.9014 37.6123 35.6772 33.871 35.6772Z" fill="#D4AF91"/>
<path d="M28.0001 32.0645C30.9931 32.0645 33.4194 33.682 33.4194 35.6773C33.4194 37.6017 31.1417 38.6149 29.4979 39.3641C28.5451 39.7985 27.4548 39.7985 26.5019 39.3641C24.8582 38.6149 22.5805 37.6017 22.5805 35.6773C22.5808 33.6821 25.007 32.0645 28.0001 32.0645Z" fill="#5D5360"/>
<path d="M25.2621 34.6892C25.1357 33.5525 25.9365 32.3369 25.9365 32.3369C23.9674 32.8782 22.5806 34.1691 22.5806 35.6771C22.5806 37.6014 24.8583 38.6146 26.502 39.3639C27.4548 39.7982 28.5452 39.7982 29.498 39.3639C29.8515 39.2028 30.2344 39.0283 30.6175 38.8363C28.3951 38.4433 25.516 36.9756 25.2621 34.6892Z" fill="#4B3F4E"/>
</g>
<defs>
<clipPath id="clip0">
<rect width="56" height="56" fill="white"/>
</clipPath>
</defs>
</svg>
