<svg width="56" height="56" viewBox="0 0 56 56" fill="none" xmlns="http://www.w3.org/2000/svg">
<path d="M30.9164 12.6453C29.4714 16.334 28.0629 19.9562 28.0629 22.2499C27.2016 23.1745 25.8023 23.2219 25 22.5156C25.0011 22.268 25.0147 22.0207 25.0407 21.7755L25.1525 20.9879C26.0718 15.7741 30.8544 6.76324 30.9185 2.05107C30.9213 1.50804 31.0845 0.988343 31.3726 0.604476C31.6608 0.220608 32.0507 0.00345151 32.4581 7.72661e-06C32.6579 -0.000734739 32.8559 0.0520388 33.0402 0.155198C33.2245 0.258358 33.3913 0.409803 33.5309 0.600551C33.8147 0.991269 33.9805 1.50767 33.9967 2.05107C34.0831 4.59423 32.4794 8.65705 30.9174 12.6426C30.9164 12.644 30.9164 12.644 30.9164 12.6453Z" fill="white"/>
<path d="M25.465 21.3206C25.4662 21.0861 25.4819 20.852 25.5119 20.6198L25.6409 19.8739C26.7015 14.9369 32.2186 6.40428 32.2924 1.94221C32.2968 1.57071 32.3967 1.20808 32.5808 0.895917C32.7649 0.583759 33.0258 0.334728 33.3333 0.177405C33.1049 0.0603374 32.8558 -0.000232881 32.6035 6.72862e-07C32.1336 0.00326168 31.6838 0.208893 31.3514 0.572387C31.019 0.935881 30.8308 1.42799 30.8275 1.94221C30.7536 6.40428 25.2365 14.9369 24.176 19.8739L24.0469 20.6198C24.0169 20.852 24.0013 21.0861 24 21.3206C24.5957 21.7511 25.4761 21.8839 26.2933 21.692C25.999 21.6237 25.7185 21.4979 25.465 21.3206Z" fill="#C0C0C0"/>
<path d="M43.486 10.3381C43.5251 10.4112 43.5484 10.4925 43.5541 10.5761C43.5599 10.6598 43.548 10.7437 43.5193 10.822L42.9389 12.4058C42.4144 13.8396 41.5848 15.1295 40.5129 16.1775C40.0442 15.9771 39.5642 15.8067 39.0757 15.6671C33.422 14.0449 30.2906 19.3788 28.1973 21.593C28.1351 21.6587 28.0692 21.7205 28 21.7779C28 19.7462 29.5886 16.5377 31.2186 13.2704C31.2186 13.2692 31.2186 13.2692 31.2197 13.268C33.5126 9.65962 37.6018 8.75182 41.4868 9.66322L43.1075 10.0427C43.1869 10.0612 43.2617 10.0971 43.327 10.148C43.3922 10.1989 43.4464 10.2637 43.486 10.3381Z" fill="white"/>
<path d="M25.4162 23.3684C25.3365 23.5773 25.2731 23.7914 25.2265 24.0094C25.0498 23.857 24.9041 23.6792 24.7965 23.4845C23.3776 20.8507 20.4942 15.4353 14.3067 14.9289C13.2745 12.2392 13.0083 8.37864 13.9909 5.5846L14.7328 3.47076C14.7693 3.36669 14.8313 3.27203 14.9147 3.19322C14.998 3.11441 15.1007 3.0533 15.2158 3.01407C15.3309 2.97483 15.4556 2.95839 15.5815 2.96586C15.7073 2.97333 15.8314 3.00454 15.9452 3.05735L18.2587 4.12715C21.6394 5.69194 24.3341 8.24506 25.8508 11.3203C27.3675 14.3955 27.6049 17.7876 26.5196 20.8771L25.7108 22.7056C25.595 22.9333 25.4968 23.1542 25.4162 23.3684Z" fill="white"/>
<path d="M40.5532 16.2855C47.2811 18.8815 49.7778 26.4831 49.7778 32.1485C49.7778 42.2384 39.3043 56.0001 32.574 56.0001C30.9058 56.0001 29.3312 55.1312 28.1894 54.4777C27.1885 53.9051 25.3354 54.1088 24.6997 54.4777C23.5624 55.1376 21.9393 56.0001 20.3151 56.0001C12.2729 56.0001 3.1756 42.3941 3.11135 32.1485C3.08092 27.2144 5.95404 17.8527 13.7483 15.8324C14.0905 15.7431 14.4384 15.6743 14.7898 15.6266C19.7425 14.9656 22.8929 19.0905 24.4382 21.0937C24.5546 21.2413 24.6981 21.3677 24.862 21.4669C25.7514 22.0223 27.3023 21.985 28.257 21.2579C28.3251 21.2069 28.3898 21.1521 28.4509 21.0937C30.508 19.1278 33.5851 14.392 39.1408 15.8324C39.6209 15.9562 40.0925 16.1075 40.5532 16.2855Z" fill="white"/>
<path d="M13.8766 36.8149C11.1797 32.1951 8.82076 22.0143 15.0623 16.3526C15.336 16.1034 15.6261 15.8708 15.931 15.6563C15.9788 15.6228 16.0269 15.5907 16.0752 15.5585C15.6523 15.5472 15.2292 15.5697 14.8104 15.6259C14.4584 15.6736 14.1099 15.7424 13.767 15.8316C5.95923 17.852 3.08087 27.2139 3.11135 32.1481C3.17572 42.3938 12.2896 56.0001 20.3465 56.0001C21.9737 56.0001 23.5998 55.1376 24.7391 54.4776C25.376 54.1087 27.2324 53.9051 28.2352 54.4776C29.3791 55.1312 30.9566 56.0001 32.6278 56.0001C34.9787 56.0001 37.7855 54.3262 40.4444 51.7186C32.2972 53.0928 18.9142 45.4426 13.8766 36.8149Z" fill="#C0C0C0"/>
</svg>
