<svg width="56" height="56" viewBox="0 0 56 56" fill="none" xmlns="http://www.w3.org/2000/svg">
<g clip-path="url(#clip0)">
<path d="M51.7717 15.4991C51.1443 13.9561 50.3144 12.4909 49.3316 11.1378C44.8989 5.03422 37.4369 0.811594 29.9311 0.103613C16.9277 -1.12291 4.55915 8.68634 2.94785 21.7561C1.8564 30.6087 4.8724 39.661 10.9496 46.1729C16.4692 52.0874 25.6982 57.2692 34.0266 55.7239C37.1863 55.1375 40.0238 53.6464 39.1299 50.026C38.3138 46.7206 35.7108 44.541 37.0097 40.9359C37.9696 38.2719 40.714 37.394 43.0929 36.3089C46.1961 34.8934 48.931 33.0838 50.9419 30.2722C54.0592 25.9128 53.749 20.3625 51.7717 15.4991Z" fill="#E8B576"/>
<path d="M50.9423 30.2714C48.9313 33.0834 46.1956 34.8934 43.0927 36.3089C40.7143 37.3941 37.9697 38.2716 37.0102 40.9353C35.7104 44.5405 38.3134 46.72 39.1303 50.0252C40.0234 53.6462 37.1867 55.137 34.0264 55.7234C26.4172 57.1356 18.0553 52.9317 12.4593 47.684C16.9553 50.0881 22.021 51.4105 26.7924 50.5252C29.9515 49.9387 32.7894 48.4479 31.8951 44.827C31.0795 41.5218 28.4764 39.3423 29.7751 35.7371C30.7346 33.0734 33.4792 32.1947 35.8586 31.1095C38.9617 29.694 41.6962 27.8852 43.7071 25.0731C46.8248 20.7141 46.5147 15.1642 44.5374 10.3008C43.9094 8.75716 43.0803 7.29209 42.0973 5.93945C41.3198 4.86878 40.4492 3.85652 39.5009 2.91064C43.3824 4.8632 46.8371 7.70224 49.3312 11.1378C50.3142 12.4905 51.1444 13.9566 51.7713 15.4991C53.7486 20.3625 54.0587 25.9124 50.9423 30.2714Z" fill="#D8A36F"/>
<path d="M40.1033 24.877C42.7562 24.877 44.9068 22.7264 44.9068 20.0735C44.9068 17.4206 42.7562 15.27 40.1033 15.27C37.4503 15.27 35.2997 17.4206 35.2997 20.0735C35.2997 22.7264 37.4503 24.877 40.1033 24.877Z" fill="#A2E874"/>
<path d="M44.9069 20.0743C44.9069 22.7268 42.7566 24.8771 40.103 24.8771C37.8964 24.8771 36.0372 23.3896 35.4743 21.3618C36.2 21.8021 37.0505 22.055 37.9605 22.055C40.6131 22.055 42.7645 19.9047 42.7645 17.2511C42.7645 16.805 42.7038 16.3726 42.5893 15.9624C43.979 16.8039 44.9069 18.3307 44.9069 20.0743Z" fill="#85D651"/>
<path d="M28.4004 13.1739C31.0533 13.1739 33.2039 11.0233 33.2039 8.37041C33.2039 5.7175 31.0533 3.56689 28.4004 3.56689C25.7475 3.56689 23.5969 5.7175 23.5969 8.37041C23.5969 11.0233 25.7475 13.1739 28.4004 13.1739Z" fill="#69D7E0"/>
<path d="M33.2041 8.3717C33.2041 11.0241 31.0538 13.1744 28.4002 13.1744C26.1937 13.1744 24.3344 11.687 23.7716 9.65915C24.4973 10.0995 25.3478 10.3524 26.2578 10.3524C28.9103 10.3524 31.0617 8.20206 31.0617 5.54842C31.0617 5.10239 31.001 4.66992 30.8865 4.25977C32.2761 5.10129 33.2041 6.62816 33.2041 8.3717Z" fill="#24CACE"/>
<path d="M15.1603 21.5016C17.8133 21.5016 19.9639 19.3509 19.9639 16.698C19.9639 14.0451 17.8133 11.8945 15.1603 11.8945C12.5074 11.8945 10.3568 14.0451 10.3568 16.698C10.3568 19.3509 12.5074 21.5016 15.1603 21.5016Z" fill="#F7D95C"/>
<path d="M19.964 16.6993C19.964 19.3518 17.8137 21.5021 15.16 21.5021C12.9535 21.5021 11.0943 20.0146 10.5314 17.9868C11.2571 18.4271 12.1076 18.68 13.0176 18.68C15.6702 18.68 17.8216 16.5297 17.8216 13.8761C17.8216 13.43 17.7609 12.9976 17.6463 12.5874C19.0359 13.4289 19.964 14.9558 19.964 16.6993Z" fill="#F4BF4A"/>
<path d="M14.6014 37.3077C17.2543 37.3077 19.4049 35.1571 19.4049 32.5042C19.4049 29.8513 17.2543 27.7007 14.6014 27.7007C11.9485 27.7007 9.7979 29.8513 9.7979 32.5042C9.7979 35.1571 11.9485 37.3077 14.6014 37.3077Z" fill="#E44849"/>
<path d="M19.4053 32.504C19.4053 35.1565 17.255 37.3068 14.6014 37.3068C12.3949 37.3068 10.5356 35.8193 9.97278 33.7915C10.6985 34.2318 11.549 34.4847 12.459 34.4847C15.1115 34.4847 17.2629 32.3344 17.2629 29.6807C17.2629 29.2347 17.2022 28.8022 17.0877 28.3921C18.4774 29.2336 19.4053 30.7604 19.4053 32.504Z" fill="#DD313A"/>
</g>
<defs>
<clipPath id="clip0">
<rect width="56" height="56" fill="white"/>
</clipPath>
</defs>
</svg>
