<svg width="56" height="56" viewBox="0 0 56 56" fill="none" xmlns="http://www.w3.org/2000/svg">
<path d="M47.2475 0L41.9977 1.74991L48.9974 13.9993H52.4972L47.2475 0Z" fill="#E6B85C"/>
<path d="M47.2475 12.2495C41.6661 12.2495 40.2382 21.2913 27.9985 29.7486C13.6073 39.6915 0 35.1558 0 38.4981C0 47.7875 14.9214 47.2476 26.2486 47.2476C35.2256 47.2476 56.3286 12.2495 47.2475 12.2495Z" fill="#CCA352"/>
<path d="M50.7359 11.5981C44.8869 11.5981 43.3111 27.9659 29.7484 36.7478C12.9292 47.6366 3.49982 44.1447 3.49982 47.2472C3.49982 57.2497 26.3265 53.4297 36.748 47.2472C42.8377 43.6337 54.1649 26.0112 54.2471 17.4988C54.269 15.1732 52.8831 11.5981 50.7359 11.5981Z" fill="#E6B85C"/>
<path d="M50.7473 10.4995C43.3802 10.4995 49.4173 29.4807 38.6913 38.7369C23.615 51.7466 15.7491 48.8732 15.7491 52.4973C15.7491 54.8211 22.1249 56.0697 26.2486 55.9971C33.5746 55.8685 41.9155 52.8017 47.2475 47.2475C51.8305 42.4729 55.997 31.2595 55.997 22.7489C55.997 17.2839 54.5813 10.4995 50.7473 10.4995Z" fill="#FFCC66"/>
</svg>
