<svg width="56" height="56" viewBox="0 0 56 56" fill="none" xmlns="http://www.w3.org/2000/svg">
<path d="M51.625 11.1562C53.4373 11.1562 54.9062 12.6252 54.9062 14.4375C54.9062 16.9269 52.2431 18.4965 50.0686 17.3272C49.0416 16.7727 48.3438 15.6866 48.3438 14.4375C48.3438 12.6252 49.8127 11.1562 51.625 11.1562Z" fill="#C7DAFF"/>
<path d="M47.5781 46.1562C49.3903 46.1562 50.8594 44.6872 50.8594 42.875C50.8594 41.0628 49.3903 39.5938 47.5781 39.5938C45.7659 39.5938 44.2969 41.0628 44.2969 42.875C44.2969 44.6872 45.7659 46.1562 47.5781 46.1562Z" fill="#C7DAFF"/>
<path d="M44.2969 35.2188C47.9212 35.2188 50.8594 32.2806 50.8594 28.6562C50.8594 25.0319 47.9212 22.0938 44.2969 22.0938C40.6725 22.0938 37.7344 25.0319 37.7344 28.6562C37.7344 32.2806 40.6725 35.2188 44.2969 35.2188Z" fill="#FF7B79"/>
<path d="M32.4844 12.0312C34.2966 12.0312 35.7656 10.5622 35.7656 8.75C35.7656 6.93782 34.2966 5.46875 32.4844 5.46875C30.6722 5.46875 29.2031 6.93782 29.2031 8.75C29.2031 10.5622 30.6722 12.0312 32.4844 12.0312Z" fill="#C7DAFF"/>
<path d="M30.2969 54.9062C32.1091 54.9062 33.5781 53.4372 33.5781 51.625C33.5781 49.8128 32.1091 48.3438 30.2969 48.3438C28.4847 48.3438 27.0156 49.8128 27.0156 51.625C27.0156 53.4372 28.4847 54.9062 30.2969 54.9062Z" fill="#C7DAFF"/>
<path d="M18.2656 46.1562C21.89 46.1562 24.8281 43.2181 24.8281 39.5938C24.8281 35.9694 21.89 33.0312 18.2656 33.0312C14.6413 33.0312 11.7031 35.9694 11.7031 39.5938C11.7031 43.2181 14.6413 46.1562 18.2656 46.1562Z" fill="#FF7B79"/>
<path d="M18.2656 22.9688C21.89 22.9688 24.8281 20.0306 24.8281 16.4062C24.8281 12.7819 21.89 9.84375 18.2656 9.84375C14.6413 9.84375 11.7031 12.7819 11.7031 16.4062C11.7031 20.0306 14.6413 22.9688 18.2656 22.9688Z" fill="#FF7B79"/>
<path d="M4.375 27.3438C6.18718 27.3438 7.65625 25.8747 7.65625 24.0625C7.65625 22.2503 6.18718 20.7812 4.375 20.7812C2.56282 20.7812 1.09375 22.2503 1.09375 24.0625C1.09375 25.8747 2.56282 27.3438 4.375 27.3438Z" fill="#C7DAFF"/>
<path d="M4.375 7.65625C6.18718 7.65625 7.65625 6.18718 7.65625 4.375C7.65625 2.56282 6.18718 1.09375 4.375 1.09375C2.56282 1.09375 1.09375 2.56282 1.09375 4.375C1.09375 6.18718 2.56282 7.65625 4.375 7.65625Z" fill="#C7DAFF"/>
<path d="M4.375 54.9062C6.18718 54.9062 7.65625 53.4372 7.65625 51.625C7.65625 49.8128 6.18718 48.3438 4.375 48.3438C2.56282 48.3438 1.09375 49.8128 1.09375 51.625C1.09375 53.4372 2.56282 54.9062 4.375 54.9062Z" fill="#C7DAFF"/>
<path d="M3.28125 41.7812C4.48937 41.7812 5.46875 40.8019 5.46875 39.5938C5.46875 38.3856 4.48937 37.4062 3.28125 37.4062C2.07313 37.4062 1.09375 38.3856 1.09375 39.5938C1.09375 40.8019 2.07313 41.7812 3.28125 41.7812Z" fill="#C7DAFF"/>
<path d="M51.625 10.0625C49.2126 10.0625 47.25 12.0251 47.25 14.4375C47.25 15.6893 47.784 16.8582 48.6878 17.6775L46.8805 21.4483C46.0557 21.1536 45.1794 21 44.2968 21C40.0752 21 36.6406 24.4346 36.6406 28.6562C36.6406 29.3703 36.7384 30.0678 36.9291 30.7418L35.4669 31.3136C34.9043 31.5336 34.6266 32.1681 34.8466 32.7306C35.0672 33.2948 35.7025 33.5702 36.2636 33.3508L37.8217 32.7415C39.2119 34.939 41.6538 36.3125 44.2968 36.3125C44.5117 36.3125 44.7237 36.3013 44.9341 36.284L45.5599 38.9953C44.1609 39.726 43.2031 41.1903 43.2031 42.875C43.2031 45.2874 45.1657 47.25 47.5781 47.25C49.9905 47.25 51.9531 45.2874 51.9531 42.875C51.9531 40.5006 50.0514 38.5633 47.6913 38.5028L47.0656 35.7922C49.9223 34.68 51.9531 31.9016 51.9531 28.6562C51.9531 26.1902 50.7726 23.9043 48.8147 22.4737L50.6258 18.695C50.9527 18.7716 51.2881 18.8125 51.625 18.8125C54.0373 18.8125 56 16.8499 56 14.4375C56 12.0251 54.0373 10.0625 51.625 10.0625ZM49.7656 42.875C49.7656 44.0812 48.7843 45.0625 47.5781 45.0625C46.3719 45.0625 45.3906 44.0812 45.3906 42.875C45.3906 41.6688 46.3719 40.6875 47.5781 40.6875C48.7843 40.6875 49.7656 41.6688 49.7656 42.875ZM44.2968 34.125C41.305 34.125 38.8281 31.7022 38.8281 28.6562C38.8281 25.6408 41.2814 23.1875 44.2968 23.1875C45.2032 23.1875 46.0995 23.4129 46.8887 23.8392C46.8888 23.8392 46.8889 23.8393 46.8891 23.8394C48.6634 24.7968 49.7656 26.6425 49.7656 28.6562C49.7656 31.6717 47.3123 34.125 44.2968 34.125ZM51.625 16.625C50.4074 16.625 49.4375 15.6378 49.4375 14.4375C49.4375 13.2313 50.4188 12.25 51.625 12.25C52.8312 12.25 53.8125 13.2313 53.8125 14.4375C53.8125 15.6437 52.8312 16.625 51.625 16.625Z" fill="white"/>
<path d="M36.8594 8.75C36.8594 6.33763 34.8968 4.375 32.4844 4.375C30.072 4.375 28.1094 6.33763 28.1094 8.75C28.1094 9.10252 28.1531 9.45383 28.237 9.7953L24.4196 11.8507C22.9872 9.91561 20.7156 8.75 18.2656 8.75C16.3873 8.75 14.5975 9.43699 13.2087 10.6607L8.30375 6.29759C8.58911 5.71692 8.75 5.0645 8.75 4.375C8.75 1.96263 6.78737 0 4.375 0C1.96263 0 0 1.96263 0 4.375C0 6.78737 1.96263 8.75 4.375 8.75C5.30622 8.75 6.16973 8.45666 6.87991 7.95878L11.7889 12.3255C11.0235 13.5407 10.6094 14.956 10.6094 16.4062C10.6094 17.3142 10.7723 18.2153 11.0837 19.0605L7.56777 21.0725C6.7515 20.2007 5.60284 19.6875 4.375 19.6875C1.96263 19.6875 0 21.6501 0 24.0625C0 26.4749 1.96263 28.4375 4.375 28.4375C6.78737 28.4375 8.75 26.4749 8.75 24.0625C8.75 23.7015 8.70483 23.3416 8.617 22.9924L12.1279 20.9832C13.3442 22.6144 15.1585 23.6941 17.1719 23.9836V32.0168C13.824 32.4979 11.1699 35.1521 10.6888 38.4999H6.37437C5.92287 37.2269 4.70717 36.3124 3.28125 36.3124C1.47197 36.3124 0 37.7844 0 39.5936C0 41.4029 1.47197 42.8749 3.28125 42.8749C4.70706 42.8749 5.92287 41.9604 6.37437 40.6874H10.6894C10.8429 41.7489 11.2176 42.7675 11.7888 43.6744L6.8798 48.0411C6.16973 47.5433 5.30622 47.25 4.375 47.25C1.96263 47.25 0 49.2126 0 51.625C0 54.0374 1.96263 56 4.375 56C6.78737 56 8.75 54.0374 8.75 51.625C8.75 50.9355 8.58911 50.2831 8.30375 49.7024L13.2087 45.3393C14.5975 46.563 16.3873 47.25 18.2656 47.25C19.9406 47.25 21.5335 46.7147 22.851 45.7259L26.5275 49.4024C26.1329 50.0688 25.9219 50.8307 25.9219 51.625C25.9219 54.0374 27.8845 56 30.2969 56C32.7093 56 34.6719 54.0374 34.6719 51.625C34.6719 49.2126 32.7093 47.25 30.2969 47.25C29.5026 47.25 28.7407 47.461 28.0743 47.8556L24.3978 44.1792C25.3864 42.8621 25.9219 41.2689 25.9219 39.5938C25.9219 38.8797 25.8241 38.1822 25.6333 37.5082L27.0956 36.9364C27.6582 36.7164 27.9359 36.0819 27.7158 35.5194C27.4959 34.9568 26.8615 34.6792 26.2989 34.8992L24.7407 35.5085C23.5447 33.618 21.5706 32.3375 19.3593 32.0167V23.9832C23.0646 23.4508 25.9218 20.2566 25.9218 16.4064C25.9218 15.5073 25.7621 14.6149 25.4565 13.7768L29.2744 11.7211C30.0918 12.6042 31.2478 13.125 32.4844 13.125C34.8968 13.125 36.8594 11.1624 36.8594 8.75ZM2.1875 4.375C2.1875 3.16881 3.16881 2.1875 4.375 2.1875C5.58119 2.1875 6.5625 3.16881 6.5625 4.375C6.5625 5.58119 5.58119 6.5625 4.375 6.5625C3.16881 6.5625 2.1875 5.58119 2.1875 4.375ZM4.375 26.25C3.16881 26.25 2.1875 25.2687 2.1875 24.0625C2.1875 22.8563 3.16881 21.875 4.375 21.875C5.57605 21.875 6.5625 22.8454 6.5625 24.0625C6.5625 25.2687 5.58119 26.25 4.375 26.25ZM3.28125 40.6875C2.67816 40.6875 2.1875 40.1968 2.1875 39.5938C2.1875 38.9907 2.67816 38.5 3.28125 38.5C3.88434 38.5 4.375 38.9907 4.375 39.5938C4.375 40.1968 3.88434 40.6875 3.28125 40.6875ZM4.375 53.8125C3.16881 53.8125 2.1875 52.8312 2.1875 51.625C2.1875 50.4188 3.16881 49.4375 4.375 49.4375C5.58119 49.4375 6.5625 50.4188 6.5625 51.625C6.5625 52.8312 5.58119 53.8125 4.375 53.8125ZM32.4844 51.625C32.4844 52.8312 31.5031 53.8125 30.2969 53.8125C29.0907 53.8125 28.1094 52.8312 28.1094 51.625C28.1094 51.0412 28.3371 50.492 28.7504 50.0785C29.1637 49.6651 29.713 49.4375 30.2969 49.4375C31.5031 49.4375 32.4844 50.4188 32.4844 51.625ZM23.7344 39.5938C23.7344 42.6148 21.2873 45.0625 18.2656 45.0625C15.2356 45.0625 12.7969 42.6035 12.7969 39.5938C12.7969 36.5783 15.2502 34.125 18.2656 34.125C21.2565 34.125 23.7344 36.5468 23.7344 39.5938ZM18.2656 21.875C15.2596 21.875 12.7969 19.4409 12.7969 16.4062C12.7969 13.4005 15.2319 10.9375 18.2656 10.9375C21.2565 10.9375 23.7344 13.3598 23.7344 16.4062C23.7344 19.4217 21.2811 21.875 18.2656 21.875ZM30.2969 8.75C30.2969 7.54381 31.2782 6.5625 32.4844 6.5625C33.6906 6.5625 34.6719 7.54381 34.6719 8.75C34.6719 9.95619 33.6906 10.9375 32.4844 10.9375C31.2833 10.9375 30.2969 9.96712 30.2969 8.75Z" fill="white"/>
<path d="M31.2812 35.2188C31.8853 35.2188 32.375 34.7291 32.375 34.125C32.375 33.5209 31.8853 33.0312 31.2812 33.0312C30.6772 33.0312 30.1875 33.5209 30.1875 34.125C30.1875 34.7291 30.6772 35.2188 31.2812 35.2188Z" fill="white"/>
</svg>
