<svg width="56" height="56" viewBox="0 0 56 56" fill="none" xmlns="http://www.w3.org/2000/svg">
<path fill-rule="evenodd" clip-rule="evenodd" d="M49.5892 28C49.5892 28.9625 49.5292 29.8667 49.4093 30.7417L55.4363 35.35C56.006 35.7583 56.1559 36.4875 55.7961 37.1292L50.039 46.8125C49.6792 47.4542 48.9295 47.6875 48.2699 47.4542L41.1034 44.6542C39.6342 45.7625 38.015 46.6958 36.2459 47.3958L35.1664 54.8042C35.0765 55.5042 34.4768 56 33.7571 56H22.2429C21.5232 56 20.9535 55.5042 20.8036 54.8042L19.7241 47.3958C17.955 46.6958 16.3658 45.7625 14.8666 44.6542L7.70015 47.4542C7.04048 47.6583 6.29085 47.4542 5.93104 46.8125L0.173914 37.1292C-0.155921 36.5458 -0.00599603 35.7583 0.533734 35.35L6.62069 30.7417C6.47077 29.8667 6.4108 28.9042 6.4108 28C6.4108 27.0958 6.53074 26.1333 6.68066 25.2583L0.593704 20.65C-0.00599603 20.2417 -0.125936 19.4833 0.233884 18.8708L5.96102 9.1875C6.32084 8.54583 7.07047 8.3125 7.73014 8.54583L14.8966 11.3458C16.3658 10.2667 17.985 9.30417 19.7541 8.60417L20.8336 1.19583C20.9535 0.495833 21.5232 0 22.2429 0H33.7571C34.4768 0 35.0765 0.495833 35.1964 1.19583L36.2759 8.60417C38.045 9.30417 39.6342 10.2375 41.1334 11.3458L48.2998 8.54583C48.9595 8.34167 49.7091 8.54583 50.069 9.1875L55.8261 18.8708C56.1559 19.4542 56.006 20.2417 55.4663 20.65L49.3793 25.2583C49.5292 26.1333 49.5892 27.0667 49.5892 28ZM17.2054 28C17.2054 33.775 22.063 38.5 28 38.5C33.937 38.5 38.7946 33.775 38.7946 28C38.7946 22.225 33.937 17.5 28 17.5C22.063 17.5 17.2054 22.225 17.2054 28Z" fill="#BFBFBF"/>
</svg>
