<svg width="56" height="56" viewBox="0 0 56 56" fill="none" xmlns="http://www.w3.org/2000/svg">
<path fill-rule="evenodd" clip-rule="evenodd" d="M28 39.2926C32.9485 39.2926 36.96 35.281 36.96 30.3326C36.96 25.3841 32.9485 21.3726 28 21.3726C23.0515 21.3726 19.04 25.3841 19.04 30.3326C19.04 35.281 23.0515 39.2926 28 39.2926ZM19.6 2.3335L14.476 7.9335H5.6C2.52 7.9335 0 10.4535 0 13.5335V47.1335C0 50.2135 2.52 52.7335 5.6 52.7335H50.4C53.48 52.7335 56 50.2135 56 47.1335V13.5335C56 10.4535 53.48 7.9335 50.4 7.9335H41.524L36.4 2.3335H19.6ZM28 44.3333C20.272 44.3333 14 38.0613 14 30.3333C14 22.6053 20.272 16.3333 28 16.3333C35.728 16.3333 42 22.6053 42 30.3333C42 38.0613 35.728 44.3333 28 44.3333Z" fill="#BFBFBF"/>
</svg>
