<svg width="56" height="56" viewBox="0 0 56 56" fill="none" xmlns="http://www.w3.org/2000/svg">
<path d="M48.7333 14.6L34.7333 0.6C34.3333 0.2 33.9333 0 33.3333 0H13.3333C11.1333 0 9.33334 1.8 9.33334 4V52C9.33334 54.2 11.1333 56 13.3333 56H45.3333C47.5333 56 49.3333 54.2 49.3333 52V16C49.3333 15.4 49.1333 15 48.7333 14.6ZM33.3333 4.8L44.5333 16H33.3333V4.8ZM45.3333 52H13.3333V4H29.3333V16C29.3333 18.2 31.1333 20 33.3333 20H45.3333V52Z" fill="white"/>
<path d="M17.5 38.5H38.5V42H17.5V38.5Z" fill="white"/>
<path d="M17.5 28H38.5V31.5H17.5V28Z" fill="white"/>
</svg>
