<svg width="56" height="56" viewBox="0 0 56 56" fill="none" xmlns="http://www.w3.org/2000/svg">
<g clip-path="url(#clip0)">
<path d="M52.5581 3.58606C50.5728 1.54528 47.9626 0.292387 45.1812 0.0451362C42.3998 -0.202114 39.623 0.571905 37.3333 2.23268C44.6933 5.41929 50.7056 11.2523 54.2727 18.6667C55.6496 16.3156 56.2289 13.5524 55.9181 10.8187C55.6073 8.08491 54.4243 5.5384 52.5581 3.58606Z" fill="white"/>
<path d="M18.6667 2.51186C16.4517 0.752642 13.6695 -0.134932 10.845 0.0166488C8.02051 0.16823 5.34922 1.34848 3.33525 3.33465C1.33791 5.34529 0.154968 8.02379 0.0141822 10.8544C-0.126604 13.6851 0.784721 16.4677 2.5727 18.6667C5.79256 11.5024 11.5148 5.75857 18.6667 2.51186Z" fill="white"/>
<path d="M27.9899 3.11133C23.0677 3.12206 18.2587 4.67028 14.1689 7.56085C10.0792 10.4514 6.89175 14.555 5.00834 19.3543C3.12494 24.1537 2.62986 29.434 3.58551 34.5299C4.54116 39.6257 6.90477 44.3089 10.3784 47.9893L5.83757 52.7816C5.6727 52.9592 5.54262 53.1695 5.45474 53.4002C5.36685 53.631 5.3229 53.8777 5.32538 54.1264C5.32786 54.3751 5.37673 54.6208 5.46919 54.8495C5.56166 55.0783 5.69591 55.2856 5.86428 55.4596C6.03265 55.6336 6.23184 55.7708 6.45049 55.8636C6.66914 55.9563 6.90295 56.0027 7.13858 56.0001C7.37421 55.9975 7.60705 55.9459 7.8238 55.8483C8.04054 55.7508 8.23696 55.6091 8.40182 55.4314L13.1386 50.4324C17.4703 53.8918 22.76 55.7513 28.1921 55.7241C33.6241 55.6969 38.8969 53.7846 43.1973 50.2821L48.0765 55.4314C48.4172 55.7393 48.8554 55.9001 49.3036 55.8819C49.7517 55.8636 50.1769 55.6675 50.494 55.3328C50.8111 54.9981 50.9969 54.5495 51.0142 54.0765C51.0315 53.6035 50.8791 53.1411 50.5874 52.7816L45.7972 47.8014C49.222 44.0992 51.5365 39.4134 52.4512 34.3303C53.3658 29.2471 52.84 23.9922 50.9396 19.2227C49.0391 14.4532 45.8484 10.381 41.7664 7.51535C37.6845 4.64969 32.8925 3.11782 27.9899 3.11133ZM41.292 35.8677C41.0879 36.3154 40.7243 36.6597 40.2805 36.8252C39.8367 36.9907 39.3488 36.964 38.9236 36.751L26.2091 30.2486V13.8046C26.2091 13.3062 26.3968 12.8282 26.7307 12.4757C27.0647 12.1233 27.5176 11.9253 27.9899 11.9253C28.4622 11.9253 28.9151 12.1233 29.2491 12.4757C29.583 12.8282 29.7706 13.3062 29.7706 13.8046V27.8995L40.455 33.3683C40.6682 33.4715 40.8599 33.6181 41.0192 33.7997C41.1785 33.9814 41.3023 34.1944 41.3834 34.4267C41.4644 34.6589 41.5012 34.9058 41.4917 35.1531C41.4821 35.4004 41.4263 35.6432 41.3276 35.8677H41.292Z" fill="white"/>
</g>
<defs>
<clipPath id="clip0">
<rect width="56" height="56" fill="white"/>
</clipPath>
</defs>
</svg>
