<svg width="56" height="56" viewBox="0 0 56 56" fill="none" xmlns="http://www.w3.org/2000/svg">
<path d="M23.9998 18.9471L23.0556 24.0122L27.9998 21.6207L32.9441 24.0122L31.9998 18.9471L35.9998 15.3598L30.472 14.6207L27.9998 10.0122L25.5276 14.6207L19.9998 15.3598L23.9998 18.9471Z" fill="#FA0000"/>
<path d="M45.8186 4.26562C45.8256 3.56158 45.8281 2.86792 45.8281 2.1875V0H9.95312V2.1875C9.95312 2.86792 9.95564 3.56158 9.96264 4.26562H0V6.45312C0 12.0515 1.47153 16.7815 4.4987 20.9138C7.0688 24.422 10.3012 26.8844 13.153 29.0568C14.9277 30.4087 16.5096 31.6155 17.6284 32.8355C19.8245 35.7429 22.5344 38.2674 25.7031 40.3581V43.9688H24.6094C19.1815 43.9688 14.7656 48.3847 14.7656 53.8125V56H41.0156V53.8125C41.0156 48.3847 36.5997 43.9688 31.1719 43.9688H30.0781V40.3581C33.2411 38.2711 35.9472 35.7518 38.1413 32.851C39.2712 31.6216 40.8851 30.4047 42.6967 29.0406C45.5792 26.8702 48.8462 24.4101 51.4453 20.9059C54.5102 16.774 56 12.0465 56 6.45312V4.26562H45.8186ZM4.46906 8.64062H10.0842C10.2958 12.9185 10.8373 17.455 12.197 21.9435C12.3049 22.2998 12.4188 22.6518 12.5356 23.0016C8.63877 19.7263 5.08517 15.608 4.46906 8.64062ZM31.1719 48.3438C33.4101 48.3438 35.3385 49.6951 36.184 51.625H19.5973C20.4427 49.6951 22.3711 48.3438 24.6094 48.3438H31.1719ZM34.8829 29.9345C34.4638 30.3927 34.0793 30.865 33.7415 31.3586L33.7505 31.3647C32.1488 33.2526 30.2187 34.9995 27.8906 36.5598C25.5626 34.9995 23.6324 33.2527 22.0308 31.3646L22.0397 31.3585C21.6973 30.858 21.308 30.3793 20.884 29.915C15.4145 22.4843 14.4565 13.1671 14.3415 4.375H41.4398C41.3246 13.1749 40.3648 22.5005 34.8829 29.9345ZM43.2117 23.1028C43.3407 22.72 43.4658 22.3342 43.5842 21.9435C44.9439 17.455 45.4855 12.9185 45.697 8.64062H51.5292C50.8959 15.6791 47.2139 19.8085 43.2117 23.1028Z" fill="#F2994A"/>
</svg>
