<svg width="56" height="56" viewBox="0 0 56 56" fill="none" xmlns="http://www.w3.org/2000/svg">
<path d="M41.125 33.5923V41.8939C41.1249 43.0823 40.6528 44.2221 39.8124 45.0624C38.9721 45.9028 37.8323 46.3749 36.6439 46.375H7.10609C5.91765 46.3749 4.77791 45.9028 3.93756 45.0624C3.0972 44.2221 2.62507 43.0823 2.625 41.8939V40.8286C2.62489 28.3379 5.29927 15.992 10.4683 4.62109L11.375 2.625H32.5336C33.4934 2.62498 34.4266 2.94063 35.1893 3.5233C35.9521 4.10597 36.502 4.92332 36.7544 5.84938L38.0417 10.57C40.0881 18.073 41.125 25.8153 41.125 33.5923Z" fill="#EEDC9A"/>
<path d="M38.0417 10.57L36.7544 5.84938C36.5342 5.04182 36.087 4.31436 35.4659 3.75329C34.8448 3.19223 34.0757 2.8211 33.25 2.68395V2.625H25.375V9.625H29.3801C25.576 19.5885 23.6255 30.1636 23.625 40.8286V41.8939C23.625 43.0824 24.0971 44.2221 24.9375 45.0625C25.7779 45.9029 26.9176 46.375 28.1061 46.375H36.6439C37.8324 46.375 38.9721 45.9029 39.8125 45.0625C40.6529 44.2221 41.125 43.0824 41.125 41.8939V33.5923C41.125 25.8153 40.0881 18.073 38.0417 10.57Z" fill="#E88604"/>
<path d="M28 10.5C28 11.1962 28.2766 11.8639 28.7688 12.3562C29.2611 12.8484 29.9288 13.125 30.625 13.125H7C6.30381 13.125 5.63613 12.8484 5.14384 12.3562C4.65156 11.8639 4.375 11.1962 4.375 10.5V7C4.375 5.83968 4.83594 4.72688 5.65641 3.90641C6.47688 3.08594 7.58968 2.625 8.75 2.625H32.375C31.2147 2.625 30.1019 3.08594 29.2814 3.90641C28.4609 4.72688 28 5.83968 28 7V10.5Z" fill="#ECE9C0"/>
<path d="M28 7.875H33.25V10.5C33.25 11.1962 32.9734 11.8639 32.4812 12.3562C31.9889 12.8484 31.3212 13.125 30.625 13.125C29.9288 13.125 29.2611 12.8484 28.7688 12.3562C28.2766 11.8639 28 11.1962 28 10.5V7.875Z" fill="#EEBE33"/>
<path d="M11.375 30.625C11.375 32.3599 11.6976 34.0796 12.3264 35.6965L15.3305 43.4214C15.9696 45.0646 17.0901 46.4765 18.5453 47.4719C20.0005 48.4674 21.7225 49 23.4856 49H41.2644C43.0275 49 44.7495 48.4674 46.2047 47.4719C47.6599 46.4765 48.7804 45.0646 49.4195 43.4214L52.4236 35.6965C53.0524 34.0796 53.375 32.3599 53.375 30.625H11.375Z" fill="#379EC3"/>
<path d="M53.375 30.625C53.375 32.2011 51.333 33.6383 47.9773 34.7244C44.1339 35.968 38.5678 36.75 32.375 36.75C26.1822 36.75 20.6161 35.968 16.7727 34.7244C13.417 33.6383 11.375 32.2011 11.375 30.625C11.375 27.242 20.7769 24.5 32.375 24.5C43.9731 24.5 53.375 27.242 53.375 30.625Z" fill="#8ACCE7"/>
<path d="M48.125 34.125C48.1232 34.3336 48.0727 34.5389 47.9773 34.7244C44.1339 35.968 38.5678 36.75 32.375 36.75C26.1822 36.75 20.6161 35.968 16.7727 34.7244C16.6773 34.5389 16.6268 34.3336 16.625 34.125C16.625 31.7089 23.6764 29.75 32.375 29.75C41.0736 29.75 48.125 31.7089 48.125 34.125Z" fill="#EEDC9A"/>
<path d="M44.0305 21.7883L43.7447 19.2165L43.2005 19.277L43.1614 18.9249L42.6172 18.9854L42.5781 18.6332L41.2024 18.7861L40.9353 17.584C38.3462 18.1541 35.9176 19.2969 33.828 20.9284C31.7384 22.5599 30.0408 24.6388 28.8597 27.0123L26.3425 32.0469L27.9077 32.8295L30.425 27.7949C31.4038 25.8277 32.7774 24.0832 34.46 22.6702C36.1426 21.2572 38.0983 20.2059 40.205 19.5818C37.2735 21.6478 34.59 24.8268 32.7153 28.4926L30.1388 33.4959L31.6946 34.2971L34.2722 29.2916C36.0686 25.7788 38.6406 22.7596 41.4248 20.8649C40.8446 21.9618 40.1953 23.1737 39.5127 24.4477C38.5608 26.2244 37.5802 28.0662 36.571 29.9731L34.5871 33.7154L36.1333 34.5351L38.1185 30.7902C39.1221 28.8822 40.101 27.0435 41.0553 25.2742C41.5085 24.4283 41.9465 23.6106 42.3606 22.8337C42.5385 25.8316 41.8683 28.8189 40.4268 31.4535L39.1981 33.7062L40.7343 34.5443L41.9631 32.2915C43.7174 29.0869 44.4394 25.4187 44.0305 21.7883Z" fill="#C4D4E0"/>
<path d="M39.8412 17.9302L46.8057 6.53376C47.1566 5.95953 47.7202 5.54723 48.3737 5.38667C49.0272 5.2261 49.7177 5.33029 50.2948 5.67653C50.5835 5.84978 50.8351 6.07848 51.0351 6.34946C51.235 6.62043 51.3793 6.9283 51.4596 7.25532C51.54 7.58233 51.5548 7.92202 51.5032 8.25479C51.4516 8.58755 51.3346 8.90681 51.159 9.19415L44.1945 20.5906C43.8436 21.1649 43.28 21.5772 42.6265 21.7377C41.9729 21.8983 41.2824 21.7941 40.7054 21.4479C40.4166 21.2746 40.165 21.0459 39.9651 20.7749C39.7652 20.504 39.6209 20.1961 39.5406 19.8691C39.4602 19.5421 39.4454 19.2024 39.497 18.8696C39.5486 18.5368 39.6656 18.2176 39.8412 17.9302Z" fill="#A6B2BC"/>
<path d="M35.875 46.3752L42.8858 45.7379C43.2175 45.7077 43.5519 45.747 43.8676 45.8533C44.1833 45.9596 44.4734 46.1305 44.7193 46.3551C44.9653 46.5797 45.1618 46.8531 45.2962 47.1579C45.4306 47.4627 45.5 47.7921 45.5 48.1252C45.5 48.4583 45.4306 48.7878 45.2962 49.0925C45.1618 49.3973 44.9653 49.6707 44.7193 49.8954C44.4734 50.12 44.1833 50.2909 43.8676 50.3971C43.5519 50.5034 43.2175 50.5427 42.8858 50.5126L35.875 49.8752V46.3752Z" fill="#966342"/>
<path d="M36.75 42.875H11.375C8.47551 42.875 6.125 45.2255 6.125 48.125C6.125 51.0245 8.47551 53.375 11.375 53.375H36.75C39.6495 53.375 42 51.0245 42 48.125C42 45.2255 39.6495 42.875 36.75 42.875Z" fill="#723024"/>
<path d="M11.375 53.375C14.2745 53.375 16.625 51.0245 16.625 48.125C16.625 45.2255 14.2745 42.875 11.375 42.875C8.47551 42.875 6.125 45.2255 6.125 48.125C6.125 51.0245 8.47551 53.375 11.375 53.375Z" fill="#984E3C"/>
<path d="M10.5072 50.0336L5.23922 50.5126C4.90748 50.5427 4.57311 50.5034 4.25741 50.3971C3.94172 50.2909 3.65164 50.12 3.40567 49.8953C3.1597 49.6707 2.96325 49.3973 2.82883 49.0925C2.69442 48.7878 2.625 48.4583 2.625 48.1252C2.625 47.7921 2.69442 47.4627 2.82883 47.1579C2.96325 46.8531 3.1597 46.5797 3.40567 46.3551C3.65164 46.1305 3.94172 45.9596 4.25742 45.8533C4.57311 45.747 4.90748 45.7077 5.23922 45.7379L10.5072 46.2168C10.9834 46.2601 11.4263 46.4799 11.7487 46.833C12.0712 47.1861 12.25 47.647 12.25 48.1252C12.25 48.6034 12.0712 49.0643 11.7487 49.4175C11.4263 49.7706 10.9834 49.9904 10.5072 50.0336Z" fill="#AD7D4D"/>
</svg>
