<svg width="56" height="56" viewBox="0 0 56 56" fill="none" xmlns="http://www.w3.org/2000/svg">
<g clip-path="url(#clip0)">
<path d="M4.08319 0.5H21.5832C23.5591 0.5 25.1668 2.10778 25.1668 4.08319V14.5832C25.1668 16.5591 23.5591 18.1668 21.5832 18.1668H4.08319C2.10778 18.1668 0.5 16.5591 0.5 14.5832V4.08319C0.5 2.10775 2.10775 0.5 4.08319 0.5Z" stroke="white"/>
<path d="M4.08319 23.8335H21.5832C23.5591 23.8335 25.1668 25.4412 25.1668 27.4171V51.9171C25.1668 53.8925 23.5591 55.5003 21.5832 55.5003H4.08319C2.10775 55.5003 0.5 53.8926 0.5 51.9171V27.4171C0.5 25.4412 2.10778 23.8335 4.08319 23.8335Z" stroke="white"/>
<path d="M34.4168 37.8335H51.9168C53.8922 37.8335 55.5 39.4412 55.5 41.4171V51.9171C55.5 53.8926 53.8923 55.5003 51.9168 55.5003H34.4168C32.4409 55.5003 30.8332 53.8925 30.8332 51.9171V41.4171C30.8332 39.4412 32.4409 37.8335 34.4168 37.8335Z" stroke="white"/>
<path d="M51.4168 0.5H51.9168C53.8923 0.5 55.5 2.10775 55.5 4.08319V28.5832C55.5 30.5591 53.8922 32.1668 51.9168 32.1668H34.4168C32.4409 32.1668 30.8332 30.5591 30.8332 28.5832V4.08319C30.8332 2.10778 32.4409 0.5 34.4168 0.5H51.4168Z" stroke="white"/>
</g>
<defs>
<clipPath id="clip0">
<rect width="56" height="56" fill="white"/>
</clipPath>
</defs>
</svg>
