<svg width="56" height="56" viewBox="0 0 56 56" fill="none" xmlns="http://www.w3.org/2000/svg">
<path fill-rule="evenodd" clip-rule="evenodd" d="M1.71429 0C0.767512 0 0 0.767512 0 1.71429V14.2857C0 15.2325 0.767512 16 1.71429 16H14.2857C15.2325 16 16 15.2325 16 14.2857V1.71429C16 0.767512 15.2325 0 14.2857 0H1.71429ZM1.71429 39.9996C0.767512 39.9996 0 40.7671 0 41.7138V54.2853C0 55.232 0.767512 55.9996 1.71429 55.9996H14.2857C15.2325 55.9996 16 55.232 16 54.2853V41.7138C16 40.7671 15.2325 39.9996 14.2857 39.9996H1.71429ZM40 1.71429C40 0.767512 40.7675 0 41.7143 0H54.2857C55.2325 0 56 0.767512 56 1.71429V14.2857C56 15.2325 55.2325 16 54.2857 16H41.7143C40.7675 16 40 15.2325 40 14.2857V1.71429ZM41.7143 39.9996C40.7675 39.9996 40 40.7671 40 41.7138V54.2853C40 55.232 40.7675 55.9996 41.7143 55.9996H54.2857C55.2325 55.9996 56 55.232 56 54.2853V41.7138C56 40.7671 55.2325 39.9996 54.2857 39.9996H41.7143Z" fill="white"/>
</svg>
