<svg width="68" height="68" viewBox="0 0 68 68" fill="none" xmlns="http://www.w3.org/2000/svg">
<g filter="url(#filter0_dd)">
<path fill-rule="evenodd" clip-rule="evenodd" d="M34 59C49.464 59 62 46.464 62 31C62 15.536 49.464 3 34 3C18.536 3 6 15.536 6 31C6 46.464 18.536 59 34 59Z" fill="#92E300"/>
<path d="M61.75 31C61.75 46.3259 49.3259 58.75 34 58.75C18.6741 58.75 6.25 46.3259 6.25 31C6.25 15.6741 18.6741 3.25 34 3.25C49.3259 3.25 61.75 15.6741 61.75 31Z" stroke="url(#paint0_linear)" stroke-width="0.5"/>
<path d="M61.75 31C61.75 46.3259 49.3259 58.75 34 58.75C18.6741 58.75 6.25 46.3259 6.25 31C6.25 15.6741 18.6741 3.25 34 3.25C49.3259 3.25 61.75 15.6741 61.75 31Z" stroke="url(#paint1_linear)" stroke-width="0.5"/>
</g>
<path fill-rule="evenodd" clip-rule="evenodd" d="M42.5575 29.0579C40.888 30.7274 38.6305 31.2524 37.024 30.5069L35.4805 32.0504L42.7045 39.2744L41.224 40.7549L34 33.5309L26.7655 40.7444L25.285 39.2639L35.533 29.0159C34.7875 27.4094 35.3125 25.1519 36.982 23.4824C38.998 21.4769 41.875 21.0989 43.408 22.6319C44.9515 24.1754 44.563 27.0524 42.5575 29.0579ZM32.8765 29.4359L29.905 32.4074L25.5055 28.0184C23.8675 26.3699 23.8675 23.7134 25.5055 22.0754L32.8765 29.4359Z" fill="white"/>
<defs>
<filter id="filter0_dd" x="0" y="0" width="68" height="68" filterUnits="userSpaceOnUse" color-interpolation-filters="sRGB">
<feFlood flood-opacity="0" result="BackgroundImageFix"/>
<feColorMatrix in="SourceAlpha" type="matrix" values="0 0 0 0 0 0 0 0 0 0 0 0 0 0 0 0 0 0 127 0"/>
<feOffset dy="3"/>
<feGaussianBlur stdDeviation="3"/>
<feColorMatrix type="matrix" values="0 0 0 0 0 0 0 0 0 0 0 0 0 0 0 0 0 0 0.16 0"/>
<feBlend mode="normal" in2="BackgroundImageFix" result="effect1_dropShadow"/>
<feColorMatrix in="SourceAlpha" type="matrix" values="0 0 0 0 0 0 0 0 0 0 0 0 0 0 0 0 0 0 127 0"/>
<feOffset dy="3"/>
<feGaussianBlur stdDeviation="3"/>
<feColorMatrix type="matrix" values="0 0 0 0 0 0 0 0 0 0 0 0 0 0 0 0 0 0 0.23 0"/>
<feBlend mode="normal" in2="effect1_dropShadow" result="effect2_dropShadow"/>
<feBlend mode="normal" in="SourceGraphic" in2="effect2_dropShadow" result="shape"/>
</filter>
<linearGradient id="paint0_linear" x1="6.27399" y1="3" x2="6.27399" y2="58.452" gradientUnits="userSpaceOnUse">
<stop stop-opacity="0.01"/>
<stop offset="0.8" stop-opacity="0.02"/>
<stop offset="1" stop-opacity="0.04"/>
</linearGradient>
<linearGradient id="paint1_linear" x1="6" y1="3" x2="6" y2="59" gradientUnits="userSpaceOnUse">
<stop stop-color="white" stop-opacity="0.12"/>
<stop offset="0.2" stop-color="white" stop-opacity="0.06"/>
<stop offset="1" stop-color="white" stop-opacity="0.01"/>
</linearGradient>
</defs>
</svg>
