<svg width="56" height="56" viewBox="0 0 56 56" fill="none" xmlns="http://www.w3.org/2000/svg">
<path d="M35.8421 0.623437C35.5467 0.229687 35.0547 0 34.5624 0H21.4374C20.9451 0 20.453 0.229687 20.1577 0.623437C19.8297 1.01719 19.7311 1.54208 19.8625 2.03437L21.0108 6.67188H35.0217L36.1373 2.03437C36.2687 1.54208 36.1702 1.01719 35.8421 0.623437Z" fill="white"/>
<path d="M31.2813 16.5156H24.7188C23.9642 16.5156 23.3079 15.9905 23.1439 15.2688L21.011 6.67188H14.8751C13.9562 6.67188 13.2344 7.39364 13.2344 8.3125C13.2344 9.23114 13.9562 9.95312 14.8751 9.95312H16.5157V23.253C13.8907 24.9265 11.725 27.1905 10.0843 29.75H18.8126C23.0125 29.75 27.0485 30.9969 30.5596 33.2936C33.5126 35.2625 36.925 36.3125 40.4688 36.3125H48.7376C47.4579 30.9969 44.1766 26.2719 39.4844 23.253V9.95312H41.1251C42.0439 9.95312 42.7657 9.23114 42.7657 8.3125C42.7657 7.39364 42.0439 6.67188 41.1251 6.67188H35.022L32.8562 15.2688C32.6923 15.9905 32.0359 16.5156 31.2813 16.5156Z" fill="white"/>
<path d="M18.1562 39.5938C17.2511 39.5938 16.5156 40.3292 16.5156 41.2344C16.5156 42.1396 17.2511 42.875 18.1562 42.875C19.0614 42.875 19.7969 42.1396 19.7969 41.2344C19.7969 40.3292 19.0614 39.5938 18.1562 39.5938Z" fill="white"/>
<path d="M49.223 39.4844H40.4777C36.2832 39.4844 32.2218 38.3633 28.7306 36.0369C25.781 34.0711 22.3475 33.0312 18.8035 33.0312H8.34433C7.27005 35.5975 6.67188 38.3755 6.67188 41.2344C6.67188 46.4767 8.61208 51.5283 12.1353 55.4553C12.4461 55.8014 12.8898 56 13.3561 56H42.6454C43.1117 56 43.5554 55.8014 43.8663 55.4553C47.3879 51.5268 49.3281 46.3673 49.3281 41.125C49.3281 40.5727 49.2657 40.0302 49.223 39.4844ZM18.1562 46.1562C15.4422 46.1562 13.2344 43.9484 13.2344 41.2344C13.2344 38.5203 15.4422 36.3125 18.1562 36.3125C20.8703 36.3125 23.0781 38.5203 23.0781 41.2344C23.0781 43.9484 20.8703 46.1562 18.1562 46.1562ZM28 49.4375C27.0939 49.4375 26.3594 48.7029 26.3594 47.7969C26.3594 46.8906 27.0939 46.1562 28 46.1562C28.9061 46.1562 29.6406 46.8906 29.6406 47.7969C29.6406 48.7029 28.9061 49.4375 28 49.4375ZM31.2812 42.875C30.3752 42.875 29.6406 42.1404 29.6406 41.2344C29.6406 40.3281 30.3752 39.5938 31.2812 39.5938C32.1873 39.5938 32.9219 40.3281 32.9219 41.2344C32.9219 42.1404 32.1873 42.875 31.2812 42.875ZM37.8438 49.4375C36.9377 49.4375 36.2031 48.7029 36.2031 47.7969C36.2031 46.8906 36.9377 46.1562 37.8438 46.1562C38.7498 46.1562 39.4844 46.8906 39.4844 47.7969C39.4844 48.7029 38.7498 49.4375 37.8438 49.4375Z" fill="white"/>
</svg>
