<svg width="56" height="56" viewBox="0 0 56 56" fill="none" xmlns="http://www.w3.org/2000/svg">
<g clip-path="url(#clip0)">
<path d="M40.6 2.80029C49.1064 2.80029 56 9.80029 56 19.6003C56 39.2003 35 50.4003 28 54.6003C22.4616 51.2767 8.16481 43.5767 2.43041 30.8003H15.5848L18.2 26.4435L26.6 40.4435L32.3848 30.8003H42V25.2003H29.2152L26.6 29.5571L18.2 15.5571L12.4152 25.2003H0.588009C0.195594 23.3595 -0.00149726 21.4824 8.56341e-06 19.6003C8.56341e-06 9.80029 7.00001 2.80029 15.4 2.80029C20.608 2.80029 25.2 5.60029 28 8.40029C30.8 5.60029 35.392 2.80029 40.6 2.80029Z" fill="white"/>
</g>
<defs>
<clipPath id="clip0">
<rect width="56" height="56" fill="white"/>
</clipPath>
</defs>
</svg>
