<svg width="56" height="56" viewBox="0 0 56 56" fill="none" xmlns="http://www.w3.org/2000/svg">
<path d="M28.0015 0C12.5352 0 1.51932e-07 12.5352 1.51932e-07 27.9985C-0.000382921 31.6759 0.723635 35.3172 2.1307 38.7147C3.53777 42.1122 5.60033 45.1992 8.20058 47.7994C10.8008 50.3997 13.8878 52.4622 17.2853 53.8693C20.6828 55.2764 24.3241 56.0004 28.0015 56C43.4619 56 56 43.4648 56 27.9985C56 12.5352 43.4619 0 28.0015 0ZM30.6147 10.1086C33.3445 10.1086 34.1466 11.6923 34.1466 13.5035C34.1466 15.7638 32.3383 17.8549 29.2497 17.8549C26.6657 17.8549 25.4349 16.5571 25.5108 14.4076C25.5108 12.5964 27.0244 10.1086 30.6147 10.1086ZM23.6209 44.7685C21.7543 44.7685 20.3923 43.634 21.696 38.6613L23.8338 29.8389C24.2042 28.4273 24.2654 27.8615 23.8338 27.8615C23.2767 27.8615 20.8531 28.8356 19.424 29.798L18.4936 28.2727C23.0288 24.4841 28.2435 22.2618 30.4747 22.2618C32.3412 22.2618 32.6504 24.4666 31.72 27.8615L29.2701 37.136C28.8356 38.7751 29.0222 39.3409 29.4568 39.3409C30.0168 39.3409 31.8483 38.6642 33.6507 37.2439L34.7065 38.6613C30.2938 43.0711 25.4845 44.7685 23.6209 44.7685Z" fill="white"/>
</svg>
