<svg width="56" height="56" viewBox="0 0 56 56" fill="none" xmlns="http://www.w3.org/2000/svg">
<path d="M21.7839 29.9583C21.7839 29.9583 24.5836 24.9076 24.9965 24.3403C25.4095 23.7729 27.9641 22.3062 27.9641 22.3062L32.0796 28.0556C32.0796 28.0556 29.9099 29.1696 29.9099 29.7369C29.9099 30.3042 30.1828 30.6087 30.1828 31.1207C30.1828 31.6326 25.2135 32.3107 25.2135 32.3107L22.1339 31.2798L21.7839 29.9583Z" fill="#FDB171"/>
<path d="M26.2352 35.5761C26.2352 35.5761 26.9351 38.994 32.0865 41.72C35.1311 43.332 36.2859 44.8542 36.6149 45.5876C36.9438 46.321 37.4407 49.1715 40.3244 50.147C43.208 51.1226 45.1047 53.2397 45.3497 53.9731L48.1493 53.6341C48.1493 53.6341 42.788 47.7877 41.6332 46.2379C40.4783 44.6881 39.0365 42.4534 38.1757 41.72C37.3148 40.9866 30.1897 31.1758 30.1897 31.1758C30.1897 31.1758 27.761 31.2934 26.2352 31.1758V35.5761H26.2352Z" fill="#F4DDC9"/>
<path d="M37.8047 3.15496C38.686 3.15496 39.4005 2.4487 39.4005 1.57748C39.4005 0.706261 38.686 0 37.8047 0C36.9234 0 36.2089 0.706261 36.2089 1.57748C36.2089 2.4487 36.9234 3.15496 37.8047 3.15496Z" fill="#A8A8A8"/>
<path d="M31.4636 20.6041C31.4636 20.6041 31.5755 18.8952 31.7225 16.9372C31.9185 14.3496 31.4216 10.6549 32.0795 9.59636C32.7374 8.53779 33.9762 6.82886 35.0471 5.36208C36.1179 3.8953 37.3288 1.26617 37.9027 0.940987C38.3646 0.847796 38.8407 0.847796 39.3025 0.940987C39.6635 1.05048 39.9331 1.349 40.0024 1.71589L38.6026 2.94051C38.0085 3.39204 37.5767 4.02018 37.3708 4.73247C36.9998 5.95017 35.432 9.85927 34.4452 10.5166C34.7107 11.6498 34.7864 12.8185 34.6691 13.9759C34.4242 15.4496 34.7251 15.6088 34.9421 16.4875C35.1485 17.1902 35.1678 17.9338 34.9981 18.6461L31.4636 20.6041Z" fill="#FDB171"/>
<path d="M40.0584 16.0654C40.0584 16.0654 39.1625 16.7573 38.7845 18.7361C38.5654 20.0531 38.5184 21.3924 38.6446 22.7213C38.7636 23.9044 39.2955 25.1982 39.0365 26.1807C38.7116 27.3956 39.0156 28.6907 39.8484 29.64C39.4991 28.9797 39.4582 28.2016 39.7364 27.5091C40.1421 26.7561 40.3172 25.9026 40.2404 25.0529C40.0864 23.7729 39.4775 22.403 39.7714 21.5935C40.1089 20.9111 40.2471 20.1492 40.1704 19.3934C40.0828 18.4545 40.212 17.5082 40.5483 16.6258C40.7513 16.4598 40.3663 16.4183 40.3663 16.4183L40.0584 16.0654Z" fill="#912909"/>
<path d="M21.7839 29.9585C21.7839 29.9585 22.6868 31.1001 26.2283 31.1831V35.5835C26.2283 35.5835 22.8478 39.9008 21.7839 40.7103C20.7201 41.5198 18.9843 42.6613 18.5713 43.3947C18.1584 44.1281 16.5136 47.629 14.0429 48.9297C11.5723 50.2305 9.43055 52.998 9.0176 53.4892L7.03687 52.9219L10.5784 47.3869C11.1523 46.4943 12.7201 43.7199 13.875 43.0696C15.0276 42.407 15.9798 41.4514 16.6326 40.302C17.1295 39.3196 19.5582 32.56 21.7839 29.9585Z" fill="#F4DDC9"/>
<path d="M36.1879 44.8752C37.0692 44.8752 37.7837 44.1689 37.7837 43.2977C37.7837 42.4265 37.0692 41.7202 36.1879 41.7202C35.3066 41.7202 34.5921 42.4265 34.5921 43.2977C34.5921 44.1689 35.3066 44.8752 36.1879 44.8752Z" fill="#A8A8A8"/>
<path d="M35.8589 28.7823C35.635 27.3985 35.74 23.9391 37.7977 24.0291C39.8554 24.119 38.9805 28.1319 38.7706 29.3012C38.5087 30.2869 38.3216 31.2906 38.2106 32.3039C38.4457 33.5252 38.3712 34.785 37.9937 35.9709C37.4616 37.602 37.1004 39.2829 36.9158 40.987C37.0005 41.9508 36.783 42.9171 36.2929 43.7545C35.67 44.813 34.1932 45.1036 34.0182 44.9237C33.8432 44.7438 34.6341 44.0727 34.7601 43.7545C34.9386 43.2664 35.0744 42.7641 35.166 42.2531C34.9038 42.7265 34.5738 43.1599 34.1862 43.54C33.9482 43.5884 34.2632 42.5714 34.4381 42.2462C34.7862 41.7358 35.0973 41.2017 35.369 40.6479C35.5775 39.1304 35.6338 37.5962 35.537 36.0677C35.411 34.8846 36.0759 33.5977 36.1809 32.7536C36.1967 31.4229 36.089 30.0935 35.8589 28.7823Z" fill="#FDB171"/>
<path d="M35.3062 19.7046C35.3062 19.7046 36.37 20.7148 37.9938 19.1304L41.8013 19.8222C41.094 20.0252 40.4524 20.4067 39.9396 20.9292C38.9597 21.8356 38.1688 22.313 38.4418 23.3093C38.6307 24.0012 34.8372 24.3817 34.8372 24.3817L33.2904 23.3647L32.9825 21.7595L35.3062 19.7046Z" fill="#FDB171"/>
<path d="M27.964 22.2989C27.9864 23.1914 28.3971 24.0311 29.0908 24.6028C30.2877 25.6476 30.7776 27.4464 31.6875 28.2905C32.3314 28.8925 34.1372 28.4566 35.089 27.3288C36.0409 26.2011 37.9587 24.5198 38.7706 24.6236C38.6924 24.1737 38.5825 23.7298 38.4416 23.2952C38.4416 23.2952 34.5501 23.9386 34.0602 22.8385C33.5702 21.7385 35.306 19.6905 35.306 19.6905L35.0191 18.5835C33.7462 19.1806 32.423 19.6668 31.0646 20.0364C30.1127 20.1886 28.5799 20.3478 27.964 22.2989Z" fill="#088EC8"/>
<path d="M39.1135 15.2975C39.345 14.7337 39.7424 14.2516 40.2543 13.9137C41.4146 13.3153 42.8296 13.4977 43.7958 14.3703C45.0557 15.5258 39.1135 15.2975 39.1135 15.2975Z" fill="#912909"/>
<path d="M40.3105 14.5294C41.5983 13.8375 43.2221 13.4639 44.4749 15.0414C45.5482 16.3576 45.4362 18.2641 44.2159 19.4486C43.6739 19.9317 43.051 20.318 42.3752 20.5902C42.1372 20.6733 41.0314 20.2997 40.3385 20.5902C39.6456 20.8808 40.3105 14.5294 40.3105 14.5294Z" fill="#912909"/>
<path d="M41.3113 20.0293C40.8117 20.273 40.3421 20.5725 39.9115 20.9219C39.7365 20.8665 39.5545 20.9219 39.3445 20.8458C38.5528 20.5379 37.8368 20.066 37.2448 19.462L37.8747 19.4136L41.3043 19.9948L41.3113 20.0293Z" fill="#F09F5B"/>
<path d="M42.5291 20.2236C43.2558 21.0528 43.6384 22.123 43.5999 23.2195C43.6063 24.5624 43.3887 25.8971 42.956 27.1701C42.5641 28.2978 41.6262 29.4048 41.7522 30.4219C41.8895 31.729 41.1999 32.9851 40.0164 33.5838C40.5864 33.0531 40.8104 32.253 40.5973 31.5081C40.2435 30.6983 40.1963 29.7896 40.4644 28.9482C40.9263 27.7374 41.9692 26.5751 41.7662 25.7241C41.4791 24.995 41.4593 24.1897 41.7102 23.4478C42.0461 22.7559 42.0182 20.8394 41.7942 20.618C41.5702 20.3966 42.0601 20.4658 42.0601 20.4658L42.5291 20.2236Z" fill="#912909"/>
<path d="M42.8581 20.4454C42.9255 20.6803 42.7877 20.9249 42.5501 20.9919L42.0602 21.1303C41.8225 21.1969 41.5751 21.0607 41.5073 20.8259C41.4399 20.5909 41.5777 20.3464 41.8152 20.2793L42.3052 20.1409C42.5429 20.0743 42.7903 20.2105 42.8581 20.4454Z" fill="#088EC8"/>
<path d="M41.3112 20.1198C40.7674 20.3939 40.1453 20.4769 39.5474 20.355C38.7359 20.2054 37.9597 19.9074 37.2587 19.4763C37.0418 19.2065 36.7968 19.0612 37.1678 18.0926C37.5387 17.124 37.6157 16.5843 38.3086 16.017C39.0015 15.4496 40.2194 14.0382 41.4512 14.4879C42.4107 14.9563 42.9705 15.9689 42.851 17.0202C42.718 18.0234 42.515 18.2033 41.7591 19.0958C42.1541 19.0701 42.5504 19.117 42.928 19.2342C43.103 19.4002 43.11 19.6493 42.634 19.85C42.1581 20.0506 42.1511 19.9053 41.9341 20.0437C41.7788 20.1886 41.5738 20.2702 41.3602 20.272C41.2062 20.2374 41.3112 20.1198 41.3112 20.1198Z" fill="#FDB171"/>
<path d="M41.9902 14.7646C41.9902 14.7646 40.8913 17.3661 41.7732 19.1235L44.0199 18.3209L43.9639 16.1138L41.9902 14.7646Z" fill="#912909"/>
<path d="M42.1581 15.1178C41.3028 15.2082 40.4379 15.1354 39.6104 14.9033C39.6104 14.9033 41.1502 13.6303 42.55 13.9416L42.1581 15.1178Z" fill="#912909"/>
<path d="M39.5055 3.7155C40.3868 3.7155 41.1012 3.00924 41.1012 2.13803C41.1012 1.26681 40.3868 0.560547 39.5055 0.560547C38.6241 0.560547 37.9097 1.26681 37.9097 2.13803C37.9097 3.00924 38.6241 3.7155 39.5055 3.7155Z" fill="#A8A8A8"/>
<path d="M39.5055 2.9266C39.9462 2.9266 40.3034 2.57347 40.3034 2.13786C40.3034 1.70225 39.9462 1.34912 39.5055 1.34912C39.0649 1.34912 38.7076 1.70225 38.7076 2.13786C38.7076 2.57347 39.0649 2.9266 39.5055 2.9266Z" fill="#878787"/>
<path d="M34.5921 45.4357C35.4734 45.4357 36.1879 44.7295 36.1879 43.8582C36.1879 42.987 35.4734 42.2808 34.5921 42.2808C33.7107 42.2808 32.9963 42.987 32.9963 43.8582C32.9963 44.7295 33.7107 45.4357 34.5921 45.4357Z" fill="#A8A8A8"/>
<path d="M34.5922 44.6468C35.0329 44.6468 35.3901 44.2937 35.3901 43.8581C35.3901 43.4225 35.0329 43.0693 34.5922 43.0693C34.1515 43.0693 33.7943 43.4225 33.7943 43.8581C33.7943 44.2937 34.1515 44.6468 34.5922 44.6468Z" fill="#878787"/>
<path d="M9.96243 52.2158C9.72496 51.6065 9.1087 51.2258 8.45063 51.2818C8.15646 51.2281 7.85298 51.2985 7.61366 51.4759C7.37435 51.6533 7.22102 51.9216 7.1908 52.2158H9.99043H9.96243Z" fill="#78113B"/>
<path d="M9.96246 52.2158C10.0884 52.9077 10.5084 55.6752 9.72449 55.6752C8.9406 55.6752 5.38507 55.7375 5.19609 55.6752C4.93464 55.3206 4.93464 54.8398 5.19609 54.4852C5.51105 54.1116 7.14883 52.9838 7.16983 52.2297H9.96946L9.96246 52.2158Z" fill="#94184B"/>
<path d="M46.8826 52.0564C46.3258 52.5632 45.5787 52.8144 44.8248 52.7483C44.1809 52.603 43.831 52.0218 43.656 52.4923C43.4065 53.2956 43.3728 54.1492 43.558 54.9692C43.4445 55.122 43.4256 55.3243 43.509 55.495C43.621 55.8548 44.5029 55.9378 45.6087 55.9102C46.7146 55.8825 48.7653 56.1247 50.0742 55.9102C50.977 55.7649 51.586 55.4328 51.7049 54.99C51.7802 54.708 51.6977 54.4078 51.4884 54.2023C51.2791 53.9968 50.9748 53.9173 50.6901 53.9937C50.0117 54.0294 49.3454 53.8065 48.8283 53.371C48.3665 53.0882 47.9391 52.7539 47.5545 52.3747C47.1975 51.9941 47.0576 51.8904 46.8826 52.0564Z" fill="#94184B"/>
</svg>
