<svg width="56" height="56" viewBox="0 0 56 56" fill="none" xmlns="http://www.w3.org/2000/svg">
<g clip-path="url(#clip0)">
<path d="M42.2579 28.0802L43.9609 30.158C43.3002 30.8514 42.6786 31.5811 42.0989 32.3436L39.6352 29.8174C39.6352 29.8174 41.4518 27.6147 42.2579 28.0802Z" fill="#FFBE78"/>
<path d="M42.6724 29.1302C43.407 28.7605 44.2173 28.5662 45.0397 28.5625C47.8214 28.8009 47.5829 30.7481 47.5262 31.7813C47.4069 32.9848 46.5327 34.0861 44.6877 34.052C44.5769 34.0074 44.4689 33.9562 44.3641 33.8988L43.3082 34.2394C43.2252 34.2652 43.135 34.2537 43.061 34.208C42.987 34.1623 42.9364 34.0868 42.9222 34.0009L42.8654 33.7285C42.6781 33.7285 41.8777 33.6944 41.8777 33.6944C41.4065 33.649 40.7877 33.3538 40.8275 32.7861L40.8785 32.1843C40.9978 31.4634 41.4462 30.4302 42.6781 30.5437C42.7292 30.0896 42.3034 29.3856 42.6724 29.1302Z" fill="#F7B56D"/>
<path d="M47.5203 31.7642C47.5771 30.731 47.8155 28.7838 45.0339 28.5454C44.557 28.5454 43.1094 28.6249 42.6666 29.1131C42.4339 31.1397 45.0793 30.2485 45.2837 33.9782C46.4731 33.8926 47.4226 32.9527 47.5203 31.7642Z" fill="#E6332A"/>
<path d="M15.923 3.43643C16.3544 3.11285 16.8597 2.84036 17.7112 3.92465L22.6274 11.8723C23.2348 12.7635 23.5698 14.7448 22.7636 15.2784H22.7353C21.8554 15.8169 20.7059 15.5428 20.1636 14.6653L15.923 3.43643Z" fill="#EBAF6E"/>
<path d="M20.1238 13.8767C20.1934 14.5444 20.566 15.143 21.1343 15.5003L27.799 19.6899L29.7007 20.8877L30.064 21.1147C30.3693 21.3091 30.719 21.4224 31.0802 21.444C31.4024 21.4702 31.7264 21.4236 32.0282 21.3078C32.1142 21.2739 32.1976 21.234 32.278 21.1885C32.3542 21.1472 32.4282 21.1017 32.4994 21.0523C32.5618 21.0098 32.6207 20.9624 32.6754 20.9104C32.6978 20.8997 32.7158 20.8817 32.7265 20.8593C32.7832 20.8025 32.84 20.7458 32.8911 20.6833C32.9505 20.6144 33.0037 20.5403 33.0501 20.4619C33.0653 20.4478 33.077 20.4303 33.0841 20.4108C33.1248 20.3522 33.1591 20.2894 33.1863 20.2235V20.1837C33.4667 19.6438 33.5905 19.0362 33.5439 18.4296C33.5466 18.4203 33.5466 18.4105 33.5439 18.4012C33.5064 17.8202 33.251 17.2749 32.8287 16.8741C32.1261 16.2126 31.1993 15.8415 30.2343 15.8353C29.871 15.6479 29.5134 15.4719 29.1671 15.3073C25.812 13.6724 23.1893 12.8152 20.3963 12.5029C20.1552 12.9178 20.0593 13.4012 20.1238 13.8767Z" fill="#EBAF6E"/>
<path d="M16.1842 4.29391C16.708 4.4437 17.2674 4.22653 17.5529 3.76259C17.8384 3.29865 17.7802 2.70139 17.4104 2.30133L12.9427 0.0305822C12.8144 -0.0301825 12.6613 0.00156834 12.5676 0.108369C12.474 0.21517 12.4626 0.37111 12.5397 0.490409C13.5105 1.97144 14.746 3.26082 16.1842 4.29391Z" fill="#EBAF6E"/>
<path d="M40.6006 36.7088H40.5723C40.1943 36.7257 39.825 36.5916 39.546 36.336C39.267 36.0804 39.1011 35.7243 39.0849 35.3463L38.784 28.5C38.7671 28.122 38.9012 27.7528 39.1568 27.4738C39.4124 27.1948 39.7685 27.0289 40.1465 27.0127H40.1805C40.5586 26.9957 40.9278 27.1298 41.2068 27.3854C41.4858 27.641 41.6517 27.9971 41.6679 28.3751L41.9688 35.2214C41.9857 35.6004 41.8508 35.9704 41.594 36.2496C41.3372 36.5288 40.9797 36.694 40.6006 36.7088Z" fill="#EBAF6E"/>
<path d="M43.2288 43.2261C42.8541 43.3113 42.224 42.7266 41.9685 41.9886L39.1698 35.8746C38.9134 35.1316 39.3071 34.3213 40.0497 34.0637C40.7927 33.8073 41.603 34.201 41.8606 34.9436L43.7454 41.6593C44.0008 42.3973 43.9724 42.9707 43.2288 43.2261Z" fill="#EBAF6E"/>
<path d="M42.19 43.0612C42.0105 42.6583 42.1907 42.186 42.5931 42.0053L43.2856 41.693C43.452 41.6184 43.6412 41.6129 43.8116 41.6779C43.982 41.7428 44.1195 41.8729 44.1939 42.0393L45.6643 45.3149C45.7322 45.4689 45.7227 45.646 45.6386 45.7919C45.5544 45.9377 45.4058 46.0346 45.2385 46.0529L44.5743 46.121C43.9986 46.1816 43.4491 45.8656 43.2118 45.3376L42.19 43.0612Z" fill="#EBAF6E"/>
<path d="M44.0406 42.4653C44.1201 42.2836 43.7908 41.6762 43.9725 41.7557L45.9821 42.891C46.0696 42.9285 46.1385 42.9993 46.1737 43.0877C46.2089 43.1761 46.2073 43.2749 46.1694 43.3622C46.132 43.4497 46.0612 43.5187 45.9728 43.5538C45.8843 43.589 45.7855 43.5874 45.6983 43.5496L44.2279 42.9081C44.0608 42.8307 43.9797 42.6391 44.0406 42.4653Z" fill="#EBAF6E"/>
<path d="M11.4609 8.30769C11.705 7.82516 12.0286 7.35965 13.2775 7.95573L21.1797 12.9003C22.1164 13.4339 23.2915 15.0632 22.809 15.9147V15.9488C22.2516 16.8137 21.1009 17.0671 20.2317 16.5165L11.4609 8.30769Z" fill="#FFBE78"/>
<path d="M20.7654 16.7833L27.7139 20.0248L29.6668 20.9387L30.331 21.2453C30.8666 21.4993 31.4841 21.5179 32.034 21.2964C32.1229 21.2696 32.2071 21.2294 32.2838 21.1772C32.3636 21.1423 32.4381 21.0964 32.5052 21.0409C32.5676 20.9985 32.6265 20.951 32.6812 20.899C32.6985 20.888 32.7123 20.8722 32.7209 20.8536C32.7777 20.7968 32.8345 20.74 32.8856 20.6776C32.9219 20.6429 32.9526 20.6027 32.9764 20.5584L33.0445 20.4562C33.0967 20.3808 33.1423 20.301 33.1808 20.2178V20.178C33.4143 19.6545 33.5119 19.0804 33.4646 18.509C33.4646 18.4466 33.4646 18.3785 33.4646 18.316C33.3863 17.6715 33.0479 17.087 32.5279 16.6981C31.7486 16.1295 30.7843 15.8742 29.8257 15.9828L29.0537 15.7103C25.5283 14.4898 22.8432 13.9221 20.0956 13.8994H19.6528C19.1703 15.0032 19.6666 16.2896 20.7654 16.7833Z" fill="#FFBE78"/>
<path d="M12.0627 8.94355C12.5974 8.84583 13.0022 8.40472 13.0537 7.86353C13.1051 7.32234 12.7908 6.81283 12.2841 6.61603L7.28273 6.56494C7.15393 6.57929 7.04673 6.67038 7.01179 6.79518C6.97685 6.91997 7.02115 7.05348 7.12378 7.13263C8.64499 8.03424 10.3192 8.64811 12.0627 8.94355Z" fill="#FFBE78"/>
<path d="M42.5647 36.0843C42.1918 36.1666 41.8015 36.0957 41.4813 35.8876C41.1611 35.6794 40.9379 35.3515 40.8616 34.9773L39.4651 28.2673C39.3829 27.8944 39.4538 27.504 39.6619 27.1839C39.87 26.8637 40.1979 26.6404 40.5721 26.5642C40.945 26.482 41.3354 26.5529 41.6555 26.761C41.9757 26.9691 42.1989 27.297 42.2752 27.6712L43.6717 34.3813C43.7539 34.7542 43.683 35.1445 43.4749 35.4647C43.2668 35.7848 42.9389 36.0081 42.5647 36.0843Z" fill="#FFBE78"/>
<path d="M46.2036 42.0676C45.8459 42.2096 45.1363 41.7384 44.7616 41.0458L41.0149 35.4597C40.64 34.7698 40.8939 33.9067 41.5826 33.5296C42.2725 33.1547 43.1357 33.4086 43.5127 34.0973L46.4534 40.4213C46.8337 41.1253 46.8791 41.6986 46.2036 42.0676Z" fill="#FFBE78"/>
<path d="M45.1758 42.0734C45.0503 41.8943 45.0036 41.6716 45.0465 41.4572C45.0894 41.2427 45.2182 41.0551 45.4029 40.9381L46.0387 40.518C46.1907 40.4168 46.3767 40.3803 46.5556 40.4165C46.7346 40.4527 46.8917 40.5587 46.9924 40.711L48.9736 43.7084C49.067 43.8495 49.087 44.0269 49.0275 44.1854C48.9679 44.3438 48.836 44.4641 48.6728 44.5088L48.0143 44.7132C47.4529 44.8627 46.8591 44.6335 46.5439 44.1455L45.1758 42.0734Z" fill="#FFBE78"/>
<path d="M46.8788 41.1937C46.9299 41.0007 46.5042 40.4557 46.6972 40.5068L48.8658 41.3299C48.9587 41.3527 49.0386 41.4117 49.0877 41.4939C49.1368 41.576 49.1509 41.6744 49.1269 41.767C49.1041 41.86 49.0451 41.9399 48.9629 41.989C48.8808 42.0381 48.7824 42.0522 48.6898 42.0282L47.1343 41.6308C47.0424 41.6068 46.9638 41.5472 46.9159 41.4652C46.868 41.3832 46.8547 41.2855 46.8788 41.1937Z" fill="#FFBE78"/>
<path d="M29.6215 20.9667L30.5526 22.102L35.06 27.5007C37.66 31.1169 39.2382 29.9986 40.788 29.482C41.5484 29.3071 42.1658 28.754 42.4229 28.0173C42.8146 26.6833 41.9687 25.4627 41.2875 24.8496L33.6124 18.4064L33.5159 18.3269L32.7665 17.6968L29.7237 20.9212L29.6215 20.9667Z" fill="#FFBE78"/>
<path d="M56 47.0081V51.9989C54.8113 52.0168 53.632 51.8248 52.5432 51.4362C50.7706 50.8471 48.7849 50.8471 47.0123 51.4362C44.7982 52.179 42.3129 52.179 40.0988 51.4362C38.3262 50.8471 36.3405 50.8471 34.5679 51.4362C32.3537 52.179 29.8685 52.179 27.6543 51.4362C25.882 50.8459 23.8957 50.8459 22.1235 51.4362C19.9093 52.179 17.424 52.179 15.2099 51.4362C13.4376 50.8459 11.4513 50.8459 9.67901 51.4362C7.46485 52.179 4.97959 52.179 2.76543 51.4362C1.89565 51.1227 0.950939 50.9708 0 50.9917V46.0009C1.18848 45.9848 2.36736 46.1767 3.45679 46.5636C5.22788 47.1588 7.21656 47.1588 8.98766 46.5636C11.2031 45.8263 13.6857 45.8263 15.9012 46.5636C17.6723 47.1588 19.661 47.1588 21.4321 46.5636C23.6476 45.8263 26.1302 45.8263 28.3457 46.5636C30.1168 47.1588 32.1055 47.1588 33.8765 46.5636C36.0923 45.8275 38.5743 45.8275 40.7901 46.5636C42.5612 47.1588 44.5499 47.1588 46.321 46.5636C48.5368 45.8275 51.0188 45.8275 53.2346 46.5636C54.1046 46.8766 55.0491 47.0284 56 47.0081H56Z" fill="#ADF0FF"/>
<path d="M56 47.2069V48.9986C54.8113 49.0201 53.632 48.7903 52.5432 48.325C50.7706 47.6197 48.7849 47.6197 47.0123 48.325C44.7982 49.2143 42.3129 49.2143 40.0988 48.325C38.3262 47.6197 36.3405 47.6197 34.5679 48.325C32.3537 49.2143 29.8685 49.2143 27.6543 48.325C25.882 47.6183 23.8957 47.6183 22.1235 48.325C19.9093 49.2143 17.424 49.2143 15.2099 48.325C13.4376 47.6183 11.4513 47.6183 9.67901 48.325C7.46485 49.2143 4.97959 49.2143 2.76543 48.325C1.89565 47.9497 0.950939 47.7679 0 47.7929V46.0011C1.18848 45.9818 2.36736 46.2115 3.45679 46.6747C5.22788 47.3873 7.21656 47.3873 8.98766 46.6747C11.2031 45.792 13.6857 45.792 15.9012 46.6747C17.6723 47.3873 19.661 47.3873 21.4321 46.6747C23.6476 45.792 26.1302 45.792 28.3457 46.6747C30.1168 47.3873 32.1055 47.3873 33.8765 46.6747C36.0923 45.7935 38.5743 45.7935 40.7901 46.6747C42.5612 47.3873 44.5499 47.3873 46.321 46.6747C48.5368 45.7935 51.0188 45.7935 53.2346 46.6747C54.1046 47.0494 55.0491 47.2312 56 47.2069H56Z" fill="#52C6FF"/>
<path d="M56.4218 50.9691V52.4792C55.2331 52.4972 54.0538 52.3036 52.965 51.9115C51.1925 51.3171 49.2067 51.3171 47.4342 51.9115C45.22 52.6609 42.7347 52.6609 40.5206 51.9115C38.748 51.3171 36.7623 51.3171 34.9897 51.9115C32.7756 52.6609 30.2903 52.6609 28.0761 51.9115C26.3039 51.3159 24.3175 51.3159 22.5453 51.9115C20.3311 52.6609 17.8459 52.6609 15.6317 51.9115C13.8594 51.3159 11.8731 51.3159 10.1008 51.9115C7.88667 52.6609 5.40141 52.6609 3.18724 51.9115C2.31746 51.5951 1.37275 51.4419 0.421814 51.463V49.953C1.61061 49.9338 2.79023 50.1275 3.8786 50.5206C5.64969 51.1212 7.63838 51.1212 9.40947 50.5206C11.625 49.7767 14.1076 49.7767 16.323 50.5206C18.0941 51.1212 20.0828 51.1212 21.8539 50.5206C24.0694 49.7767 26.552 49.7767 28.7675 50.5206C30.5386 51.1212 32.5273 51.1212 34.2984 50.5206C36.5141 49.778 38.9962 49.778 41.2119 50.5206C42.983 51.1212 44.9717 51.1212 46.7428 50.5206C48.9586 49.778 51.4406 49.778 53.6564 50.5206C54.5264 50.8364 55.4709 50.9896 56.4218 50.9691Z" fill="#52C6FF"/>
<path d="M56 51.0093V55.9988C54.8113 56.0168 53.632 55.8247 52.5432 55.4357C50.7705 54.8466 48.7851 54.8466 47.0123 55.4357C44.7982 56.1791 42.3129 56.1791 40.0988 55.4357C38.3261 54.8466 36.3406 54.8466 34.5679 55.4357C32.3537 56.1791 29.8685 56.1791 27.6543 55.4357C25.8819 54.8454 23.8959 54.8454 22.1235 55.4357C19.9093 56.1791 17.424 56.1791 15.2099 55.4357C13.4375 54.8454 11.4514 54.8454 9.67901 55.4357C7.46485 56.1791 4.97959 56.1791 2.76543 55.4357C1.89558 55.1221 0.95092 54.9701 0 54.9908V50.0013C1.18878 49.9824 2.36835 50.1746 3.45679 50.5644C5.22773 51.1608 7.21671 51.1608 8.98766 50.5644C11.2031 49.8264 13.6857 49.8264 15.9012 50.5644C17.6722 51.1608 19.6612 51.1608 21.4321 50.5644C23.6476 49.8264 26.1302 49.8264 28.3457 50.5644C30.1166 51.1608 32.1056 51.1608 33.8765 50.5644C36.0923 49.8277 38.5743 49.8277 40.7901 50.5644C42.5611 51.1608 44.55 51.1608 46.321 50.5644C48.5368 49.8277 51.0188 49.8277 53.2346 50.5644C54.1046 50.8777 55.0491 51.0296 56 51.0093Z" fill="#ADF0FF"/>
<path d="M56 50.8047V51.9991C54.8113 52.0133 53.6321 51.8601 52.5432 51.5501C50.7706 51.08 48.7849 51.08 47.0123 51.5501C44.7982 52.1428 42.3129 52.1428 40.0988 51.5501C38.3262 51.08 36.3405 51.08 34.5679 51.5501C32.3537 52.1428 29.8685 52.1428 27.6543 51.5501C25.882 51.079 23.8957 51.079 22.1235 51.5501C19.9093 52.1428 17.424 52.1428 15.2099 51.5501C13.4376 51.079 11.4513 51.079 9.67901 51.5501C7.46485 52.1428 4.97959 52.1428 2.76543 51.5501C1.89565 51.2999 0.950939 51.1787 0 51.1954V50.001C1.18878 49.986 2.36835 50.1392 3.45679 50.45C5.22773 50.9255 7.21671 50.9255 8.98766 50.45C11.2031 49.8616 13.6857 49.8616 15.9012 50.45C17.6722 50.9255 19.6612 50.9255 21.4321 50.45C23.6476 49.8616 26.1302 49.8616 28.3457 50.45C30.1166 50.9255 32.1056 50.9255 33.8765 50.45C36.0923 49.8626 38.5743 49.8626 40.7901 50.45C42.5611 50.9255 44.55 50.9255 46.321 50.45C48.5368 49.8626 51.0188 49.8626 53.2346 50.45C54.1046 50.6998 55.0491 50.821 56 50.8047Z" fill="#52C6FF"/>
<path d="M56 54.2071V55.9987C54.8113 56.0199 53.6321 55.7901 52.5432 55.3251C50.7706 54.6199 48.7849 54.6199 47.0123 55.3251C44.7982 56.2143 42.3129 56.2143 40.0988 55.3251C38.3262 54.6199 36.3405 54.6199 34.5679 55.3251C32.3537 56.2143 29.8685 56.2143 27.6543 55.3251C25.882 54.6185 23.8957 54.6185 22.1235 55.3251C19.9093 56.2143 17.424 56.2143 15.2099 55.3251C13.4376 54.6185 11.4513 54.6185 9.67901 55.3251C7.46485 56.2143 4.97959 56.2143 2.76543 55.3251C1.89565 54.9498 0.950939 54.7681 0 54.7931V53.0015C1.18878 52.979 2.36835 53.2088 3.45679 53.675C5.22788 54.3875 7.21656 54.3875 8.98766 53.675C11.2031 52.7924 13.6857 52.7924 15.9012 53.675C17.6723 54.3875 19.661 54.3875 21.4321 53.675C23.6476 52.7924 26.1302 52.7924 28.3457 53.675C30.1168 54.3875 32.1055 54.3875 33.8765 53.675C36.0923 52.7939 38.5743 52.7939 40.7901 53.675C42.5612 54.3875 44.5499 54.3875 46.321 53.675C48.5368 52.7939 51.0188 52.7939 53.2346 53.675C54.1046 54.0497 55.0491 54.2314 56 54.2071Z" fill="#52C6FF"/>
<path d="M29.6382 20.9497L30.5692 22.0851L31.0858 21.4663L33.5269 18.5086L33.6007 18.4235C33.5631 17.8425 33.3077 17.2971 32.8854 16.8964C32.1828 16.2349 31.256 15.8638 30.291 15.8575C29.9277 15.6702 29.5701 15.4942 29.2238 15.3296L29.0932 15.7383L27.8103 19.7405L27.6967 20.0868L29.6382 20.9497Z" fill="#E6332A"/>
</g>
<defs>
<clipPath id="clip0">
<rect width="56" height="56" fill="white"/>
</clipPath>
</defs>
</svg>
