<svg width="56" height="56" viewBox="0 0 56 56" fill="none" xmlns="http://www.w3.org/2000/svg">
<path d="M50.1799 34.2202C48.6085 34.1056 48.512 33.062 48.512 33.062C48.0987 31.5538 48.2948 29.1167 48.3732 28.5889C48.4667 27.9283 47.8061 23.5396 47.8061 22.312C47.8061 22.312 45.918 22.312 45.8214 23.5396C45.7249 24.7672 46.0416 26.7308 46.7022 29.1891C46.5665 30.9446 47.221 32.9564 47.6222 33.8432C47.6296 34.2681 47.6709 34.6917 47.7458 35.11C47.8273 35.4448 49.7426 35.0527 50.3127 34.9713C50.8827 34.8898 51.2417 34.3047 50.1799 34.2202Z" fill="#D3A197"/>
<path d="M47.8756 21.9077C47.9238 22.1671 48.1531 25.1502 48.1531 25.1502L45.6164 25.4518L45.6315 23.1685L47.8756 21.9077Z" fill="black"/>
<path d="M47.6554 34.4015C47.4508 34.7277 47.475 35.1477 47.7157 35.4482C48.1018 35.608 50.9612 34.9535 50.9612 34.9535C51.0398 34.9316 51.1039 34.8747 51.1351 34.7994C51.1663 34.724 51.1612 34.6385 51.1211 34.5674C51.0306 34.3593 50.3912 34.4196 49.806 34.124C49.5044 34.5312 49.2781 34.0637 49.0338 34.2809C48.4336 34.8178 47.6554 34.4015 47.6554 34.4015Z" fill="#2C4D75"/>
<path d="M46.9555 23.8563C46.2648 24.9723 44.4852 26.8334 44.0026 27.1048C43.52 27.3763 39.2641 27.4879 38.9956 27.7081C38.476 28.1198 38 28.5837 37.575 29.0925C37.2733 29.4635 37.575 29.1257 37.6172 28.0851C37.6594 27.0445 37.3156 26.2512 37.961 26.3598C38.6065 26.4684 38.6186 26.7429 39.1163 26.6071C40.4856 26.2301 42.217 25.6238 42.8806 25.6419C43.3662 25.0869 44.6541 22.8217 45.0432 22.3572C45.4323 21.8927 46.9555 23.8563 46.9555 23.8563Z" fill="#E5C3B7"/>
<path d="M38.2326 28.875C38.4533 28.842 38.6614 28.7515 38.8359 28.6126C38.9445 28.4255 38.8751 28.2898 38.676 28.2808C38.4279 28.3289 38.1887 28.4154 37.9672 28.5371L38.2326 28.875Z" fill="#2C4D75"/>
<path d="M38.7 26.7003C38.4529 26.4054 38.0464 26.2989 37.6865 26.4349C37.415 26.7516 37.1526 29.6744 37.1526 29.6744C37.1492 29.7557 37.1833 29.834 37.2451 29.887C37.3069 29.9399 37.3895 29.9616 37.4693 29.9458C37.6955 29.9247 37.8373 29.2973 38.2988 28.8328C37.9972 28.4287 38.519 28.3502 38.3893 28.0486C38.0665 27.3066 38.7 26.7003 38.7 26.7003Z" fill="#2C4D75"/>
<path d="M37.7047 27.2944C37.7756 26.9982 37.807 26.694 37.7982 26.3895C37.7138 26.3895 37.4966 26.3292 37.4755 26.4137C37.4544 26.4981 36.9446 28.7875 37.005 29.6169C37.0467 29.7807 37.1796 29.9055 37.3458 29.9366C37.2476 29.8969 37.1909 29.7935 37.2101 29.6893C37.195 28.3772 37.575 27.9339 37.7047 27.2944Z" fill="#232121"/>
<path d="M37.949 29.3363C37.9396 29.3356 37.9309 29.3309 37.9251 29.3235C37.9194 29.316 37.9171 29.3064 37.9188 29.2971L37.9671 28.7813C37.9678 28.7671 37.9775 28.755 37.9912 28.7512C38.0022 28.744 38.0164 28.744 38.0274 28.7512L38.1149 28.8748L38.13 28.4556C38.1299 28.4384 38.143 28.424 38.1601 28.4224C38.1765 28.4196 38.1926 28.4283 38.1993 28.4435L38.332 28.8115C38.3382 28.8298 38.3289 28.8497 38.3109 28.8567C38.3022 28.8606 38.2922 28.8605 38.2835 28.8564C38.2748 28.8524 38.2683 28.8448 38.2657 28.8356L38.1933 28.6335V28.9774C38.1925 28.9916 38.1828 29.0037 38.1692 29.0075C38.1582 29.0147 38.144 29.0147 38.133 29.0075L38.0274 28.8748L37.9882 29.3001C37.9866 29.3173 37.9722 29.3304 37.955 29.3303L37.949 29.3363Z" fill="white"/>
<path d="M47.9479 21.7959C47.6769 23.0272 47.0728 24.1603 46.2015 25.0716C45.8999 25.4365 43.7885 24.1667 43.9996 23.7565C44.6964 22.3871 44.3013 21.8321 44.6029 21.2349C45.0493 20.3119 45.559 20.2305 45.559 20.2305L47.9992 20.9755L47.9479 21.7959Z" fill="#232121"/>
<path d="M44.5998 21.2348C44.2982 21.838 44.6963 22.387 43.9966 23.7564C43.888 23.9675 44.3585 24.3868 44.9014 24.7095C45.3648 23.5191 45.9257 22.369 46.5785 21.271C46.8107 20.8909 46.3884 20.5652 45.8123 20.3118L45.556 20.2334C45.556 20.2334 45.0462 20.3118 44.5998 21.2348Z" fill="black"/>
<path d="M46.6237 14.6626C45.7732 14.8526 43.6497 16.5387 43.5713 17.1359C43.4929 17.7332 44.7989 19.0181 45.9571 20.0104C46.6449 20.6137 46.5966 19.8144 46.5966 19.8144C46.5966 19.8144 44.7144 17.522 44.7295 17.4617C44.817 17.1028 46.5694 16.3396 46.7836 16.1164C46.9978 15.8932 46.6237 14.6626 46.6237 14.6626Z" fill="#D3A197"/>
<path d="M48.6718 13.1914C48.144 13.674 47.9841 14.2109 48.0414 14.5185C48.1802 15.2847 48.5663 15.9301 48.4637 15.9633C48.3612 15.9965 47.5377 15.2093 47.2271 15.0584C46.6841 14.799 46.6057 14.6965 46.2468 14.6181C46.85 14.042 47.396 12.9621 47.1909 12.1146C46.9857 11.267 48.6718 13.1914 48.6718 13.1914Z" fill="#E5C3B7"/>
<g style="mix-blend-mode:multiply">
<path d="M47.2542 12.0995C47.1366 11.6139 48.3612 12.5188 48.8136 13.306L46.9677 15.1158C46.7022 14.6664 46.289 14.8142 46.3885 14.4914C46.9556 13.7464 47.4593 12.9471 47.2542 12.0995Z" fill="url(#paint0_linear)"/>
</g>
<path d="M47.3718 14.8618C47.7703 15.1437 48.0431 15.5702 48.1319 16.0502C48.3249 16.4031 48.6507 16.7711 48.7351 17.3502C48.8196 17.9293 48.1771 19.6667 47.7277 20.8219C47.2783 21.9772 47.5226 22.0284 47.3295 22.0284C47.1365 22.0284 44.5938 21.1236 44.6722 20.9939C44.8773 20.6922 45.6163 19.5581 45.6495 18.9458C45.6827 18.3335 45.3479 16.5841 45.743 15.5435C46.0114 14.8347 46.3915 14.3822 46.4428 14.4094C46.8258 14.5964 46.9465 14.6115 47.3718 14.8618Z" fill="#3357BC"/>
<path d="M48.4034 19.7512C48.7955 17.9716 49.1514 17.9776 49.0549 17.3985C48.8844 16.709 48.6312 16.0426 48.3008 15.4138C47.9735 15.1905 47.632 14.989 47.2783 14.8105C47.047 15.2805 46.9204 15.795 46.9073 16.3187C46.856 17.0184 47.4532 18.2038 47.1576 19.3741C46.9476 20.1683 46.6534 20.9378 46.2799 21.6695C47.227 22.0375 48.0022 22.4025 48.0565 22.2728C48.1225 21.4262 48.2383 20.5842 48.4034 19.7512Z" fill="#4D87DB"/>
<path d="M48.3039 10.0258C47.399 9.98962 46.654 10.4722 46.6088 11.6063C46.5635 12.7404 47.3085 13.8866 48.2074 13.9228C48.7498 13.9328 49.2338 13.5839 49.3958 13.0662C49.4876 13.0741 49.5723 13.016 49.5979 12.9275C49.5647 12.843 49.5406 12.7676 49.5195 12.6982C49.5825 12.4474 49.6189 12.1906 49.628 11.9321C49.6703 10.795 49.2028 10.062 48.3039 10.0258Z" fill="#E5C3B7"/>
<path d="M48.1861 13.9239C48.2811 13.9284 48.3763 13.9213 48.4696 13.9028C47.5828 13.5469 47.9689 11.2967 48.168 10.8865C48.0293 10.8322 48.4395 10.0299 48.2706 10.0239C47.3657 9.98767 46.6207 10.4703 46.5754 11.6044C46.5302 12.7385 47.2873 13.8877 48.1861 13.9239Z" fill="#D3A197"/>
<path d="M49.5405 10.9136C49.5797 10.6451 49.1453 9.91218 47.8574 10.0087C47.4664 10.0042 47.0859 10.1353 46.7806 10.3797C46.4338 10.631 46.1693 10.9795 46.0205 11.3811C45.3056 12.4006 44.2379 13.4352 43.6527 12.9345C43.7125 13.0628 43.8119 13.1685 43.9362 13.2361C43.7235 13.1979 43.5236 13.1078 43.3541 12.9737C43.3745 13.2815 43.5589 13.5545 43.8367 13.6885C43.6405 13.6244 43.459 13.5219 43.3028 13.3869C43.146 13.2451 43.4597 13.779 43.8005 13.9117C43.6086 13.8665 43.4318 13.7719 43.2877 13.6373C43.2154 13.5468 43.2576 14.2194 44.2499 14.2405C44.489 14.2395 44.7244 14.1827 44.9376 14.0746C44.6722 14.2375 44.4731 14.3189 43.6738 14.2405C44.9226 14.7834 46.9917 14.1289 47.6523 12.7987C47.7244 12.7383 47.7477 12.6374 47.7096 12.5514C47.595 12.4066 47.408 11.8637 47.6643 11.8396C47.7583 11.8396 47.8506 11.8635 47.9328 11.9089L48.3762 11.5078C48.8567 11.5972 49.3422 11.6576 49.83 11.6888C49.9146 11.551 49.931 11.3819 49.8744 11.2305C49.8178 11.0791 49.6946 10.9621 49.5405 10.9136Z" fill="#300901"/>
<path d="M44.2681 14.2311C44.4847 14.2396 44.6998 14.1918 44.8924 14.0924C44.6149 14.2161 44.4913 14.3096 43.6859 14.2311C44.9347 14.7741 47.0038 14.1195 47.6644 12.7894C47.7354 12.7281 47.7575 12.6274 47.7187 12.542C47.604 12.3972 47.417 11.8573 47.6764 11.8302C47.7674 11.8377 47.8509 11.8838 47.9057 11.9569L48.3853 11.4984C48.8658 11.5876 49.3513 11.648 49.8391 11.6794C49.9163 11.5414 49.9271 11.3759 49.8686 11.229C49.81 11.0821 49.6884 10.9694 49.5375 10.9223C49.5706 10.6961 49.2358 10.2376 48.892 10.1592C48.1922 10.3703 47.7518 11.1907 47.3205 11.9689C46.2015 14.0321 44.2319 14.3277 43.3571 13.8481C43.5817 14.1145 43.9205 14.257 44.2681 14.2311Z" fill="#5E1C17"/>
<path d="M52.6292 17.8542C52.7167 17.8513 52.7966 17.8034 52.8403 17.7275C52.7852 17.692 52.7157 17.6874 52.6563 17.7154C52.6902 17.7099 52.7228 17.6987 52.7529 17.6822C52.8464 17.6279 52.8313 17.5676 52.7891 17.5405C52.6934 17.5353 52.5975 17.5465 52.5055 17.5737L52.6925 17.5013C52.8011 17.456 52.7227 17.4017 52.7227 17.4017C52.6058 17.3653 52.4806 17.3653 52.3638 17.4017C52.219 17.4198 52.0621 17.4771 52.1737 17.4017C52.2853 17.3263 52.4 17.1393 52.2672 17.2208C52.0845 17.2627 51.9088 17.3308 51.7454 17.4228C51.6429 17.5344 51.4679 17.634 51.29 17.7938L51.0879 17.8692C50.3175 17.9808 49.5359 17.993 48.7624 17.9054C48.5452 17.821 48.0294 16.3068 47.8424 15.7579C47.6554 15.2089 47.2391 14.8892 46.7173 15.1154C46.7173 15.1154 46.0387 15.4653 46.4157 16.5964C46.6932 17.4168 47.5589 18.8043 48.2255 19.0878C48.7684 19.3201 50.545 18.8194 51.3503 18.4846L51.5554 18.4363C51.9117 18.3726 52.2577 18.261 52.584 18.1045C52.6932 18.0624 52.7804 17.9773 52.8253 17.8692C52.8192 17.818 52.78 17.83 52.6292 17.8542Z" fill="#E5C3B7"/>
<path d="M26.9717 35.2653H26.9933C27.5501 34.9653 28.2447 35.173 28.5456 35.7294L31.1676 40.5831C31.4675 41.14 31.2598 41.8346 30.7034 42.1354H30.6819C30.125 42.4353 29.4304 42.2276 29.1296 41.6712L26.5076 36.8022C26.2179 36.249 26.4243 35.5657 26.9717 35.2653Z" fill="#F5B36C"/>
<path d="M30.3929 42.0651L32.7198 41.521C32.938 42.1788 33.2239 43.2301 33.3038 43.3653L30.6418 44.1891C30.6418 44.1891 29.8426 42.4124 30.3929 42.0651Z" fill="#F5B36C"/>
<path d="M31.3152 41.8654C31.4912 41.1732 31.2517 40.4415 30.7004 39.9873C27.565 40.0918 24.8785 41.7855 21.5064 44.5981L22.4286 46.6607H30.0733L33.4331 45.8092C33.6267 45.3481 30.9371 43.719 31.3152 41.8654Z" fill="#F5B36C"/>
<path d="M35.3327 43.6696C35.2866 43.6696 35.2405 43.6696 35.1944 43.6696H35.1729C33.9433 43.7833 33.1749 43.4022 32.9044 42.394C32.64 41.3857 33.1318 40.6757 34.2538 40.1715H34.2692L34.3983 40.1162L34.5335 40.2883L34.5858 40.359C35.1782 41.2419 35.4545 42.2993 35.3696 43.3591C35.3696 43.3868 35.3696 43.4145 35.3696 43.4421C35.3573 43.5221 35.345 43.5928 35.3327 43.6696Z" fill="#FFBE78"/>
<path d="M35.5387 43.642L35.3327 43.6727C35.3327 43.5958 35.3543 43.5221 35.3665 43.4483C35.3665 43.4206 35.3665 43.393 35.3665 43.3653C35.4514 42.3055 35.1752 41.2481 34.5827 40.3652L34.5305 40.2945L34.3952 40.1224L34.5858 40.0455C34.8894 39.9272 35.2101 39.8587 35.5356 39.8426C36.5623 39.7996 37.0234 40.525 37.2201 41.2751C37.4168 42.0282 37.3707 42.8796 36.4547 43.3499C36.1672 43.4962 35.8578 43.5948 35.5387 43.642Z" fill="#3C3C3B"/>
<path d="M32.0221 42.6429C31.8839 42.3229 31.9248 41.9536 32.1297 41.6716C32.254 41.4996 32.3874 41.3344 32.5293 41.1767C32.7349 40.9658 32.9777 40.7949 33.2455 40.6726L33.2302 40.648C33.2218 40.6168 33.2218 40.5839 33.2302 40.5527C33.2302 40.4082 33.4207 40.3191 33.6513 40.2146C33.9341 40.0885 34.2046 40.0301 34.2661 40.1869C34.3024 40.2967 34.2698 40.4177 34.1831 40.4943L34.9823 40.2822C35.1502 40.2372 35.3292 40.2608 35.4797 40.3479C35.6302 40.4349 35.7399 40.5783 35.7846 40.7463L36.0151 41.6132L36.2395 42.4831C36.2834 42.6514 36.2585 42.8303 36.1702 42.9803C36.082 43.1302 35.9377 43.2389 35.7692 43.2823L34.9669 43.4882C35.0745 43.5138 35.158 43.5986 35.1821 43.7065C35.1974 43.8786 34.9362 43.9616 34.6257 43.9893C34.3737 44.0139 34.1769 44.02 34.0939 43.9001C34.0742 43.8732 34.0625 43.8412 34.0601 43.8079C34.0592 43.7977 34.0592 43.7874 34.0601 43.7772C33.7671 43.8015 33.4722 43.7712 33.1902 43.688C32.9894 43.6197 32.7924 43.5407 32.6 43.4514C32.2759 43.3056 32.0551 42.9968 32.0221 42.6429Z" fill="#FFBE78"/>
<path d="M35.5387 43.6421L35.3327 43.6728C35.3327 43.596 35.3543 43.5222 35.3665 43.4484C35.3665 43.4208 35.3665 43.3931 35.3665 43.3654C35.4514 42.3056 35.1752 41.2482 34.5827 40.3653L34.5305 40.2946L34.3952 40.1225L34.5858 40.0456C34.8894 39.9274 35.2101 39.8588 35.5356 39.8428L36.2272 41.5365L36.4547 43.3531C36.167 43.4983 35.8576 43.5959 35.5387 43.6421Z" fill="#3C3C3B"/>
<path d="M34.3892 40.9124L34.1125 40.8478L34.2016 40.4636V40.4144L34.2508 40.2085V40.1747L34.3799 40.1193L34.5705 40.0425L34.5152 40.2915L34.4937 40.3837L34.3892 40.9124Z" fill="#0074A6"/>
<path d="M35.5386 43.6412L35.3327 43.6719C35.2866 43.6719 35.2404 43.6719 35.1943 43.6719L35.1667 43.6412L35.0376 43.4967L34.9976 43.4506L34.7087 43.1432L34.9208 42.9526L35.3081 43.383L35.3665 43.4475L35.5386 43.6412Z" fill="#0074A6"/>
<path d="M34.3244 41.6375L34.4412 41.5576C34.6091 41.7893 34.6828 42.076 34.6472 42.3599L34.5058 42.3415C34.5374 42.0923 34.4725 41.8404 34.3244 41.6375H34.3244Z" fill="#0074A6"/>
<path d="M34.4128 41.8135C34.6117 41.7621 34.7144 41.4939 34.6422 41.2145C34.5701 40.9351 34.3503 40.7502 34.1514 40.8015C33.9526 40.8529 33.8498 41.1211 33.922 41.4005C33.9941 41.6799 34.2139 41.8648 34.4128 41.8135Z" fill="#009FE3"/>
<path d="M34.762 43.1986C34.9609 43.1472 35.0636 42.879 34.9913 42.5996C34.9191 42.3202 34.6994 42.1353 34.5005 42.1867C34.3016 42.2381 34.1989 42.5063 34.2711 42.7857C34.3433 43.0651 34.5631 43.25 34.762 43.1986Z" fill="#009FE3"/>
<path d="M21.2851 38.9755V38.954C21.1867 38.6466 21.5925 38.1118 22.1765 37.8444L26.8488 35.1117C27.1264 34.9793 27.4456 34.964 27.7346 35.0692C28.0236 35.1744 28.2582 35.3913 28.3857 35.6711V35.6926C28.5181 35.9703 28.5335 36.2894 28.4283 36.5784C28.3231 36.8674 28.1062 37.1021 27.8263 37.2296L22.6007 39.2768C22.0105 39.5288 21.5494 39.5504 21.2851 38.9755Z" fill="#F5B36C"/>
<path d="M20.7318 38.3396C21.0976 38.0322 21.9613 37.9892 22.155 38.2873L22.4901 38.8007C22.57 38.9238 22.5977 39.0736 22.5671 39.2171C22.5366 39.3606 22.4503 39.4862 22.3271 39.566L19.9019 41.1429C19.7881 41.2163 19.6461 41.2309 19.5197 41.1823C19.3934 41.1337 19.2978 41.0277 19.2625 40.897L19.1026 40.1286C19.1361 39.6938 19.3717 39.3001 19.7389 39.065L20.7318 38.3396Z" fill="#F5B36C"/>
<path d="M21.9705 39.3656C22.115 39.4332 22.7144 38.9783 22.6468 39.1228L21.574 40.9179C21.5072 41.0616 21.3372 41.1246 21.1928 41.0593C21.0492 40.9925 20.9861 40.8225 21.0514 40.6781L21.5894 39.507C21.6562 39.3633 21.8262 39.3003 21.9705 39.3656Z" fill="#F5B36C"/>
<path d="M42.6393 43.8723V47.0108C42.033 47.0233 41.4312 46.9048 40.8749 46.6634C39.9657 46.2915 38.9469 46.2915 38.0377 46.6634C36.9072 47.1277 35.6394 47.1277 34.5089 46.6634C33.5997 46.2915 32.5809 46.2915 31.6717 46.6634C30.5412 47.1277 29.2734 47.1277 28.1429 46.6634C27.2348 46.2914 26.2169 46.2914 25.3088 46.6634C24.1783 47.1277 22.9104 47.1277 21.78 46.6634C20.8719 46.2914 19.8539 46.2914 18.9459 46.6634C17.8154 47.1277 16.5475 47.1277 15.4171 46.6634C14.9714 46.4659 14.4873 46.3704 14 46.3837V43.2391C14.6049 43.2271 15.2054 43.3445 15.7613 43.5834C16.6696 43.9596 17.6902 43.9596 18.5985 43.5834C19.7287 43.1233 20.994 43.1233 22.1243 43.5834C23.0325 43.9599 24.0532 43.9599 24.9614 43.5834C26.0916 43.1233 27.357 43.1233 28.4872 43.5834C29.3955 43.9596 30.416 43.9596 31.3244 43.5834C32.4557 43.1234 33.7219 43.1234 34.8532 43.5834C35.7614 43.9599 36.7821 43.9599 37.6904 43.5834C38.8217 43.1234 40.0879 43.1234 41.2192 43.5834C41.6651 43.7842 42.1503 43.8829 42.6393 43.8723Z" fill="#ADF0FF"/>
<path d="M42.6393 43.8728V44.7949C42.033 44.8075 41.4312 44.6891 40.8749 44.4476C39.9657 44.076 38.9469 44.076 38.0377 44.4476C36.9073 44.9122 35.6393 44.9122 34.5089 44.4476C33.5997 44.076 32.5809 44.076 31.6717 44.4476C30.5413 44.9122 29.2733 44.9122 28.1429 44.4476C27.2348 44.0759 26.2169 44.0759 25.3088 44.4476C24.1784 44.9122 22.9104 44.9122 21.78 44.4476C20.8718 44.0759 19.854 44.0759 18.9459 44.4476C17.8155 44.9122 16.5475 44.9122 15.4171 44.4476C14.9714 44.2502 14.4873 44.1547 14 44.1679V43.2273C14.6049 43.2151 15.2055 43.3325 15.7613 43.5715C16.6697 43.9474 17.6901 43.9474 18.5985 43.5715C19.7287 43.1111 20.9941 43.1111 22.1243 43.5715C23.0326 43.9474 24.0531 43.9474 24.9614 43.5715C26.0916 43.1111 27.357 43.1111 28.4872 43.5715C29.3956 43.9474 30.416 43.9474 31.3244 43.5715C32.4555 43.1109 33.722 43.1109 34.8532 43.5715C35.7615 43.9474 36.782 43.9474 37.6904 43.5715C38.8215 43.1109 40.088 43.1109 41.2192 43.5715C41.6642 43.7764 42.1494 43.8793 42.6393 43.8728Z" fill="#52C6FF"/>
<path d="M42.6393 46.0642V47.0048C42.033 47.0173 41.4312 46.8988 40.8749 46.6575C39.9657 46.2856 38.9469 46.2856 38.0377 46.6575C36.9072 47.1217 35.6394 47.1217 34.5089 46.6575C33.5997 46.2856 32.5809 46.2856 31.6717 46.6575C30.5412 47.1217 29.2734 47.1217 28.1429 46.6575C27.2348 46.2854 26.2169 46.2854 25.3088 46.6575C24.1783 47.1217 22.9104 47.1217 21.78 46.6575C20.8719 46.2854 19.8539 46.2854 18.9459 46.6575C17.8154 47.1217 16.5475 47.1217 15.4171 46.6575C14.9714 46.46 14.4873 46.3644 14 46.3777V45.4371C14.6051 45.4233 15.206 45.5408 15.7613 45.7814C16.6697 46.1573 17.6901 46.1573 18.5985 45.7814C19.7287 45.3213 20.994 45.3213 22.1243 45.7814C23.0326 46.1573 24.0531 46.1573 24.9614 45.7814C26.0916 45.3213 27.357 45.3213 28.4872 45.7814C29.3956 46.1573 30.416 46.1573 31.3244 45.7814C32.4557 45.3214 33.7219 45.3214 34.8532 45.7814C35.7615 46.1573 36.782 46.1573 37.6904 45.7814C38.8217 45.3214 40.0879 45.3214 41.2192 45.7814C41.6657 45.9799 42.1508 46.0765 42.6393 46.0642Z" fill="#52C6FF"/>
<path d="M42.6393 46.0642V49.1995C42.033 49.212 41.4312 49.0936 40.8749 48.8522C39.9657 48.4803 38.9469 48.4803 38.0377 48.8522C36.9072 49.3164 35.6394 49.3164 34.5089 48.8522C33.5997 48.4803 32.5809 48.4803 31.6717 48.8522C30.5412 49.3161 29.2734 49.3161 28.1429 48.8522C27.2348 48.4802 26.2169 48.4802 25.3088 48.8522C24.1783 49.3161 22.9105 49.3161 21.78 48.8522C20.8719 48.4802 19.8539 48.4802 18.9459 48.8522C17.8154 49.3164 16.5475 49.3164 15.4171 48.8522C14.9714 48.6547 14.4873 48.5591 14 48.5725V45.4371C14.6051 45.4234 15.206 45.5408 15.7613 45.7814C16.6697 46.1573 17.6901 46.1573 18.5985 45.7814C19.7287 45.3213 20.994 45.3213 22.1243 45.7814C23.0326 46.1573 24.0531 46.1573 24.9614 45.7814C26.0916 45.3213 27.357 45.3213 28.4872 45.7814C29.3956 46.1573 30.416 46.1573 31.3244 45.7814C32.4557 45.3214 33.7219 45.3214 34.8532 45.7814C35.7615 46.1573 36.782 46.1573 37.6904 45.7814C38.8217 45.3214 40.0879 45.3214 41.2192 45.7814C41.6657 45.9799 42.1508 46.0765 42.6393 46.0642Z" fill="#ADF0FF"/>
<path d="M42.6393 46.0642V47.0048C42.033 47.0173 41.4312 46.8988 40.8749 46.6574C39.9657 46.2856 38.9469 46.2856 38.0377 46.6574C36.9072 47.1217 35.6394 47.1217 34.5089 46.6574C33.5997 46.2856 32.5809 46.2856 31.6717 46.6574C30.5412 47.1214 29.2734 47.1214 28.1429 46.6574C27.2348 46.2854 26.2169 46.2854 25.3088 46.6574C24.1783 47.1214 22.9105 47.1214 21.78 46.6574C20.8719 46.2854 19.8539 46.2854 18.9459 46.6574C17.8154 47.1217 16.5475 47.1217 15.4171 46.6574C14.9714 46.46 14.4873 46.3644 14 46.3777V45.4371C14.6051 45.4234 15.206 45.5408 15.7613 45.7814C16.6697 46.1573 17.6901 46.1573 18.5985 45.7814C19.7287 45.3213 20.994 45.3213 22.1243 45.7814C23.0326 46.1573 24.0531 46.1573 24.9614 45.7814C26.0916 45.3213 27.357 45.3213 28.4872 45.7814C29.3956 46.1573 30.416 46.1573 31.3244 45.7814C32.4557 45.3214 33.7219 45.3214 34.8532 45.7814C35.7615 46.1573 36.782 46.1573 37.6904 45.7814C38.8217 45.3214 40.0879 45.3214 41.2192 45.7814C41.6657 45.9799 42.1508 46.0765 42.6393 46.0642Z" fill="#52C6FF"/>
<path d="M42.6393 48.259V49.1996C42.033 49.2121 41.4312 49.0936 40.8749 48.8523C39.9657 48.4804 38.9469 48.4804 38.0377 48.8523C36.9072 49.3165 35.6394 49.3165 34.5089 48.8523C33.5997 48.4804 32.5809 48.4804 31.6717 48.8523C30.5412 49.3165 29.2734 49.3165 28.1429 48.8523C27.2348 48.4802 26.2169 48.4802 25.3088 48.8523C24.1783 49.3165 22.9104 49.3165 21.78 48.8523C20.8719 48.4802 19.8539 48.4802 18.9459 48.8523C17.8154 49.3165 16.5475 49.3165 15.4171 48.8523C14.9714 48.6548 14.4873 48.5592 14 48.5725V47.6319C14.6051 47.6182 15.206 47.7357 15.7613 47.9762C16.6697 48.3521 17.6901 48.3521 18.5985 47.9762C19.7287 47.5161 20.994 47.5161 22.1243 47.9762C23.0326 48.3521 24.0531 48.3521 24.9614 47.9762C26.0916 47.5161 27.357 47.5161 28.4872 47.9762C29.3956 48.3521 30.416 48.3521 31.3244 47.9762C32.4557 47.5162 33.7219 47.5162 34.8532 47.9762C35.7615 48.3521 36.782 48.3521 37.6904 47.9762C38.8217 47.5162 40.0879 47.5162 41.2192 47.9762C41.6657 48.1747 42.1508 48.2713 42.6393 48.259Z" fill="#52C6FF"/>
<path d="M16.0665 15.8008C15.9305 15.8008 15.8496 15.8008 15.6989 15.7824V15.5858C16.618 15.6648 17.3018 15.4828 17.6565 15.0858C17.8245 14.9045 17.8931 14.6526 17.8404 14.4112C17.6345 13.788 16.5371 13.8156 15.4728 13.8413C15.2596 13.8413 15.0482 13.8524 14.8405 13.8524V13.6502C15.0445 13.6502 15.2559 13.6502 15.4673 13.6391C16.6014 13.6116 17.776 13.584 18.0297 14.3579C18.1003 14.6641 18.015 14.9854 17.8018 15.2163C17.4801 15.5949 16.8459 15.8008 16.0665 15.8008Z" fill="#474747"/>
<path d="M16.0205 13.3457V13.5038H14.7448V13.9505H16.0205V14.1288H16.0683V13.3457H16.0205Z" fill="#171717"/>
<path d="M10.8112 9.63232L12.2321 11.8436L12.8957 12.0275L15.05 13.1892L15.6272 12.9116L16.0003 13.2333L15.9158 13.4447L16.2264 14.009L15.9728 14.4097L15.3478 14.5458L14.6787 13.7149L11.995 12.9227L9.92702 10.715L10.8112 9.63232Z" fill="#C29169"/>
<path d="M9.74689 8.56396L10.5189 8.72205L12.1181 11.222L10.8516 12.6741L9.23772 10.1834L9.16603 9.27718L9.74689 8.56396Z" fill="#B56A49"/>
<path d="M10.0024 19.9404H10.7946L12.2688 20.4919V21.0544H9.87185L9.83325 20.2621L10.0024 19.9404Z" fill="#BF5F57"/>
<path d="M11.1457 9.53622L10.1182 8.8414L10.4637 8.03076L11.4472 8.36531L11.1457 9.53622Z" fill="#FFBF8A"/>
<path d="M11.3479 8.69067L10.3296 8.33406L10.4637 8.03076L11.4472 8.36531L11.3479 8.69067Z" fill="#C29169"/>
<path d="M12.5961 6.35423L12.8075 6.55275L12.5575 7.16486L12.7486 7.56926L12.4325 7.62073L12.0336 8.65195L10.4289 8.08579L10.1734 6.86708L10.6182 5.90388L11.7137 5.44434L12.5961 6.35423Z" fill="#FFBF8A"/>
<path d="M9.81301 14.749L13.1309 16.1607V16.7876L11.1953 19.1588L10.9692 19.7433L10.4913 19.1735L10.9453 17.5228L11.563 16.9989L9.41229 16.7857L9.81301 14.749Z" fill="#FFBF8A"/>
<rect x="16.0671" y="21.333" width="0.139701" height="3.3326" transform="rotate(-54.28 16.0671 21.333)" fill="#5E5E5E"/>
<path d="M16.8936 26.0341L18.8899 23.2567L18.7759 23.1758L16.7815 25.9533L16.8936 26.0341Z" fill="#5E5E5E"/>
<rect x="15.4813" y="23.6948" width="3.38591" height="0.139701" transform="rotate(-9.32 15.4813 23.6948)" fill="#5E5E5E"/>
<rect x="18.8226" y="23.1465" width="3.39326" height="0.139701" transform="rotate(-9.32 18.8226 23.1465)" fill="#5E5E5E"/>
<path d="M18.8899 23.2563L20.7888 20.6112L20.6748 20.5303L18.776 23.1754L18.8899 23.2563Z" fill="#5E5E5E"/>
<path d="M21.5461 25.2505L21.627 25.1384L18.8734 23.1587L18.7907 23.2727L21.5461 25.2505Z" fill="#5E5E5E"/>
<rect x="18.7638" y="23.2271" width="0.137863" height="3.36202" transform="rotate(-9.34 18.7638 23.2271)" fill="#5E5E5E"/>
<rect x="18.2084" y="19.835" width="0.137863" height="3.43738" transform="rotate(-9.32 18.2084 19.835)" fill="#5E5E5E"/>
<path fill-rule="evenodd" clip-rule="evenodd" d="M16.6288 19.6642C15.1914 20.5558 14.4326 22.2254 14.7062 23.8945C15.0827 26.1719 17.231 27.7151 19.5094 27.3448C21.1785 27.0712 22.5185 25.8191 22.9045 24.1723C23.2905 22.5255 22.6465 20.8084 21.2727 19.8216C19.899 18.8348 18.0661 18.7727 16.6288 19.6642ZM17.981 26.8589C16.5078 26.5143 15.3873 25.3161 15.142 23.8231C14.8092 21.7851 16.1891 19.8624 18.2264 19.5255C19.7194 19.2801 21.2131 19.9582 22.0112 21.2436C22.8092 22.529 22.7543 24.1685 21.8721 25.3977C20.99 26.6269 19.4542 27.2036 17.981 26.8589Z" fill="#212121"/>
<path fill-rule="evenodd" clip-rule="evenodd" d="M15.0922 23.8483C15.2388 24.8277 15.7743 25.7065 16.5775 26.2857C17.9563 27.3018 19.8466 27.2613 21.1806 26.1872C22.5147 25.1131 22.9576 23.275 22.2592 21.7111C21.5608 20.1472 19.8963 19.2502 18.2061 19.5268H18.1509C16.1951 19.8485 14.7871 21.8263 15.0922 23.8483ZM16.8458 25.9273C16.1354 25.4193 15.6607 24.6456 15.5297 23.7821C15.2613 21.9954 16.4947 20.2473 18.2318 19.9532H18.2814C19.7744 19.7089 21.2446 20.5008 21.862 21.8818C22.4795 23.2628 22.0893 24.8865 20.9117 25.8362C19.7342 26.7858 18.0647 26.8232 16.8458 25.9273Z" fill="#757575"/>
<path d="M18.9753 24.0769C19.4512 23.9988 19.7736 23.5498 19.6955 23.0739C19.6175 22.5981 19.1684 22.2756 18.6925 22.3537C18.2167 22.4318 17.8942 22.8809 17.9723 23.3567C18.0504 23.8326 18.4995 24.155 18.9753 24.0769Z" fill="#757575"/>
<rect x="1.42296" y="21.3013" width="0.139701" height="3.34731" transform="rotate(-54.3 1.42296 21.3013)" fill="#5E5E5E"/>
<path d="M2.25444 26.0265L4.25988 23.2362L4.14408 23.1553L2.14047 25.9456L2.25444 26.0265Z" fill="#5E5E5E"/>
<rect x="0.835754" y="23.6772" width="3.40246" height="0.139701" transform="rotate(-9.32 0.835754 23.6772)" fill="#5E5E5E"/>
<rect x="4.19098" y="23.1265" width="3.40981" height="0.139701" transform="rotate(-9.32 4.19098 23.1265)" fill="#5E5E5E"/>
<path d="M4.25994 23.2358L6.16796 20.5778L6.05399 20.4951L4.14413 23.155L4.25994 23.2358Z" fill="#5E5E5E"/>
<path d="M6.92896 25.2397L7.01168 25.1276L4.24339 23.1387L4.16068 23.2526L6.92896 25.2397Z" fill="#5E5E5E"/>
<rect x="4.13199" y="23.2085" width="0.139701" height="3.37856" transform="rotate(-9.32 4.13199 23.2085)" fill="#5E5E5E"/>
<rect x="3.57474" y="19.7993" width="0.139701" height="3.45392" transform="rotate(-9.29 3.57474 19.7993)" fill="#5E5E5E"/>
<path fill-rule="evenodd" clip-rule="evenodd" d="M3.52271 19.0497C1.23263 19.4252 -0.319441 21.5861 0.0560072 23.8762C0.434293 26.1648 2.59348 27.7155 4.88305 27.343C7.17309 26.9672 8.72499 24.8063 8.34936 22.5162C7.97372 20.2261 5.81279 18.6741 3.52271 19.0497ZM3.34553 26.8558C1.8652 26.509 0.739556 25.3046 0.493487 23.8042H0.486134C0.152545 21.7536 1.54401 19.8207 3.59448 19.4864C5.09484 19.2402 6.59572 19.9222 7.39725 21.2141C8.19879 22.5061 8.14313 24.1537 7.25623 25.3886C6.36933 26.6235 4.82585 27.2026 3.34553 26.8558Z" fill="#212121"/>
<path fill-rule="evenodd" clip-rule="evenodd" d="M0.443917 23.8297C0.590931 24.8137 1.12917 25.6966 1.93651 26.2781C3.32212 27.299 5.22162 27.2582 6.56209 26.1787C7.90255 25.0992 8.34746 23.2521 7.6455 21.6807C6.94355 20.1093 5.27096 19.208 3.57248 19.4861H3.51734C1.54682 19.8096 0.136943 21.8077 0.443917 23.8297ZM2.19943 25.9198C1.48861 25.4076 1.01469 24.6301 0.885142 23.7636C0.614931 21.9677 1.85386 20.2104 3.59277 19.9163H3.6424C5.14278 19.6707 6.62034 20.4666 7.24086 21.8545C7.86138 23.2425 7.46917 24.8743 6.28567 25.8286C5.10217 26.7829 3.42432 26.8204 2.19943 25.9198Z" fill="#757575"/>
<path d="M10.3976 21.0522L10.7505 21.3353L10.2101 23.2911C10.1933 23.3389 10.1575 23.3776 10.1112 23.3981C10.065 23.4186 10.0123 23.4192 9.96561 23.3996C9.91575 23.3921 9.87118 23.3644 9.84233 23.323C9.81348 23.2816 9.80289 23.2302 9.81304 23.1808L10.3976 21.0522Z" fill="#8C8C8C"/>
<path d="M10.0861 23.2658C10.1172 23.227 10.1109 23.1703 10.0721 23.1392C10.0332 23.1082 9.97655 23.1145 9.94547 23.1533C9.9144 23.1921 9.9207 23.2488 9.95954 23.2799C9.99838 23.311 10.0551 23.3047 10.0861 23.2658Z" fill="#383838"/>
<rect x="9.90811" y="21.0542" width="1.38598" height="0.378663" transform="rotate(-0.08 9.90811 21.0542)" fill="#383838"/>
<path d="M7.42711 17.2939L8.20282 17.02L8.31311 16.7461H7.42711V17.2939Z" fill="#424242"/>
<rect x="7.68933" y="17.2041" width="0.316166" height="2.01831" transform="rotate(-20 7.68933 17.2041)" fill="#737373"/>
<rect x="8.29958" y="19.0854" width="0.450352" height="4.75535" transform="rotate(-19.99 8.29958 19.0854)" fill="#3357BC"/>
<rect x="8.93201" y="19.814" width="7.5365" height="0.571671" transform="rotate(-24.51 8.93201 19.814)" fill="#3357BC"/>
<path d="M16.2595 17.1337L10.2579 23.4221L9.88287 22.8725L15.7834 16.562L16.2595 17.1337Z" fill="#3357BC"/>
<rect x="15.3982" y="15.7227" width="0.463219" height="3.57341" transform="rotate(-22.98 15.3982 15.7227)" fill="#737373"/>
<rect x="16.6895" y="19.0547" width="0.705858" height="5.01637" transform="rotate(-22.98 16.6895 19.0547)" fill="#3357BC"/>
<rect x="15.5498" y="16.3413" width="0.656227" height="2.38778" transform="rotate(-22.99 15.5498 16.3413)" fill="#3357BC"/>
<path d="M4.21579 23.4057L9.1862 20.6888L9.00974 20.3433L4.03932 23.0601L4.21579 23.4057Z" fill="#3357BC"/>
<rect x="4.07823" y="23.019" width="5.98141" height="0.387854" transform="rotate(-0.62 4.07823 23.019)" fill="#3357BC"/>
<rect x="7.97389" y="19.2744" width="0.9246" height="0.351091" transform="rotate(-20.45 7.97389 19.2744)" fill="#5E3D3D"/>
<path d="M4.0853 22.6337L4.07611 22.516L9.87922 22.0933L9.88841 22.2127L4.0853 22.6337Z" fill="#383838"/>
<rect x="4.12659" y="23.8716" width="0.117643" height="6.04942" transform="rotate(-86.03 4.12659 23.8716)" fill="#383838"/>
<path d="M4.31527 23.959C4.74605 23.8884 5.03802 23.4819 4.9674 23.0511C4.89678 22.6203 4.49031 22.3284 4.05953 22.399C3.62874 22.4696 3.33678 22.8761 3.4074 23.3069C3.47802 23.7376 3.88448 24.0296 4.31527 23.959Z" fill="#757575"/>
<path d="M4.18827 23.6129C4.42481 23.6129 4.61657 23.4212 4.61657 23.1846C4.61657 22.9481 4.42481 22.7563 4.18827 22.7563C3.95173 22.7563 3.75998 22.9481 3.75998 23.1846C3.75998 23.4212 3.95173 23.6129 4.18827 23.6129Z" fill="#944141"/>
<path d="M4.1883 23.3248C4.26546 23.3248 4.328 23.2623 4.328 23.1851C4.328 23.108 4.26546 23.0454 4.1883 23.0454C4.11115 23.0454 4.0486 23.108 4.0486 23.1851C4.0486 23.2623 4.11115 23.3248 4.1883 23.3248Z" fill="#454545"/>
<path d="M9.33517 16.9137L6.21028 16.9394C6.08669 16.9587 5.9696 16.878 5.94374 16.7556L5.96028 16.3034C5.99276 16.181 6.11622 16.1063 6.23969 16.1343L9.35539 16.3879C9.5631 16.4063 9.72302 16.5276 9.71199 16.66C9.70832 16.8034 9.54472 16.9118 9.33517 16.9137Z" fill="#262626"/>
<path d="M10.0005 24.3867C10.6644 24.3867 11.2027 23.8485 11.2027 23.1846C11.2027 22.5206 10.6644 21.9824 10.0005 21.9824C9.33657 21.9824 8.79834 22.5206 8.79834 23.1846C8.79834 23.8485 9.33657 24.3867 10.0005 24.3867Z" fill="#5E5E5E"/>
<path d="M10.0006 23.6043C10.2148 23.6043 10.3884 23.4307 10.3884 23.2165C10.3884 23.0023 10.2148 22.8286 10.0006 22.8286C9.78638 22.8286 9.61273 23.0023 9.61273 23.2165C9.61273 23.4307 9.78638 23.6043 10.0006 23.6043Z" fill="#383838"/>
<path d="M9.61636 25.3646L9.26343 25.0815L9.80569 23.1257C9.8225 23.0779 9.85826 23.0392 9.90453 23.0187C9.9508 22.9982 10.0035 22.9977 10.0502 23.0172C10.1004 23.0243 10.1454 23.0518 10.1746 23.0932C10.2039 23.1347 10.2147 23.1863 10.2046 23.236L9.61636 25.3646Z" fill="#8C8C8C"/>
<path d="M10.0677 23.2639C10.0988 23.2251 10.0925 23.1684 10.0537 23.1373C10.0149 23.1063 9.95818 23.1125 9.9271 23.1514C9.89601 23.1902 9.90228 23.2469 9.94112 23.278C9.97995 23.3091 10.0366 23.3028 10.0677 23.2639Z" fill="#383838"/>
<rect x="8.71935" y="25.0601" width="1.38598" height="0.360282" fill="#383838"/>
<path d="M18.844 23.8117C19.1729 23.8117 19.4396 23.5451 19.4396 23.2162C19.4396 22.8873 19.1729 22.6206 18.844 22.6206C18.5151 22.6206 18.2484 22.8873 18.2484 23.2162C18.2484 23.5451 18.5151 23.8117 18.844 23.8117Z" fill="#944141"/>
<path d="M18.833 23.3856C18.9264 23.3856 19.0021 23.3099 19.0021 23.2165C19.0021 23.1231 18.9264 23.0474 18.833 23.0474C18.7396 23.0474 18.6639 23.1231 18.6639 23.2165C18.6639 23.3099 18.7396 23.3856 18.833 23.3856Z" fill="#454545"/>
<path d="M15.6437 15.8008C15.5077 15.8008 15.4268 15.8008 15.2761 15.7824V15.5858C16.1952 15.6648 16.879 15.4828 17.2337 15.0858C17.4016 14.9045 17.4703 14.6526 17.4176 14.4112C17.2117 13.788 16.1143 13.8156 15.05 13.8413C14.8368 13.8413 14.6254 13.8524 14.4177 13.8524V13.6502C14.6217 13.6502 14.8331 13.6502 15.0445 13.6391C16.1786 13.6116 17.3532 13.584 17.6069 14.3579C17.6824 14.6611 17.6041 14.982 17.3973 15.2163C17.0573 15.5949 16.4305 15.8008 15.6437 15.8008Z" fill="#707070"/>
<rect x="15.2375" y="15.5415" width="0.81431" height="0.286755" fill="#525252"/>
<path d="M15.8918 13.3457V13.5038H14.6161V13.9505H15.8918V14.1288H15.9396V13.3457H15.8918Z" fill="#3D3D3D"/>
<path d="M8.05212 17.1524L10.3921 17.3105L11.563 15.4944L9.27267 14.3823L8.05212 17.1524Z" fill="#373B4D"/>
<path d="M9.712 16.6353L11.2028 19.6021L11.1586 20.1535L9.96567 22.6975L9.76531 23.6718H8.92711L9.27268 22.2674L9.45466 20.4789L9.83149 19.7528L7.87567 17.8595L9.712 16.6353Z" fill="#FFBF8A"/>
<path d="M7.28371 13.6938L6.45837 14.5964L6.45102 16.0816L8.82042 19.44L10.8424 18.1202L9.18622 15.0284L9.35901 14.2361L7.28371 13.6938Z" fill="#525873"/>
<path d="M9.71191 18.8583L7.65683 15.5918L7.97483 14.3823L8.14946 14.4356L7.89395 15.6029L9.88286 18.748L9.71191 18.8583Z" fill="white"/>
<path d="M9.33331 8.62488L8.57415 9.54397L7.73227 11.8086L6.46393 14.0291L9.38111 14.9004L11.2009 11.0072L11.1752 9.52742L11.2303 9.27376L10.2138 8.49805L9.33331 8.62488Z" fill="#CCCCCC"/>
<path d="M10.6072 9.74023L12.0079 11.9644L12.6696 12.1538L14.8148 13.3339L15.3938 13.0618L15.7633 13.3853L15.6787 13.5967L15.9838 14.1629L15.7265 14.5636L15.0997 14.6923L14.4379 13.8559L11.7616 13.0416L9.71384 10.8156L10.6072 9.74023Z" fill="#FFBF8A"/>
<path d="M9.4766 8.58008L10.245 8.74368L11.8239 11.2583L10.5446 12.7013L8.95272 10.1958L8.88838 9.28777L9.4766 8.58008Z" fill="#D47C55"/>
<path d="M11.1953 6.63965L10.8608 7.07713L11.7982 6.59921L11.7505 6.96317L12.5666 6.38598L12.6217 6.81244L13.1438 6.49443L13.1107 5.8621L11.7964 5L10.7284 5.03125L9.82405 6.18011L9.91044 7.68924L10.3295 8.33444L10.8442 7.42639L10.4821 7.16537L10.6678 6.72788L11.1953 6.63965Z" fill="#795547"/>
<path d="M8.8995 23.6719H9.88476L11.7211 24.3612V25.0597H8.7359L8.68811 24.0744L8.8995 23.6719Z" fill="#3357BC"/>
<path d="M9.56674 23.2069L9.91599 23.0562L10.0649 23.2988L9.8682 23.6719H9.56674V23.2069Z" fill="#7A3C38"/>
<path d="M9.19357 15.4495L8.56491 15.6021L8.77446 15.1499L9.19357 15.4495Z" fill="white"/>
<path d="M9.07776 24.2749V24.8153L9.8645 24.5451L9.07776 24.2749Z" fill="white"/>
<path opacity="0.5" d="M26.374 23.8105H27.5957C28.3633 23.7988 28.9668 23.5967 29.4062 23.2041C29.8457 22.8115 30.0654 22.2812 30.0654 21.6133C30.0654 20.1133 29.3183 19.3633 27.8242 19.3633C27.1211 19.3633 26.5586 19.5654 26.1367 19.9697C25.7207 20.3682 25.5127 20.8984 25.5127 21.5605H23.8867C23.8867 20.5469 24.2558 19.7061 24.9941 19.0381C25.7383 18.3643 26.6816 18.0273 27.8242 18.0273C29.0312 18.0273 29.9775 18.3467 30.6631 18.9854C31.3486 19.624 31.6914 20.5117 31.6914 21.6484C31.6914 22.2051 31.5097 22.7441 31.1465 23.2656C30.789 23.7871 30.2998 24.1768 29.6787 24.4346C30.3818 24.6572 30.9238 25.0264 31.3047 25.542C31.6914 26.0576 31.8847 26.6875 31.8847 27.4316C31.8847 28.5801 31.5097 29.4912 30.7597 30.165C30.0097 30.8389 29.0342 31.1758 27.833 31.1758C26.6318 31.1758 25.6533 30.8506 24.8974 30.2002C24.1474 29.5498 23.7724 28.6914 23.7724 27.625H25.4072C25.4072 28.2988 25.6269 28.8379 26.0664 29.2422C26.5058 29.6465 27.0947 29.8486 27.833 29.8486C28.6181 29.8486 29.2187 29.6436 29.6347 29.2334C30.0508 28.8232 30.2588 28.2344 30.2588 27.4668C30.2588 26.7227 30.0302 26.1514 29.5732 25.7529C29.1162 25.3545 28.457 25.1494 27.5957 25.1377H26.374V23.8105Z" fill="white"/>
<defs>
<linearGradient id="paint0_linear" x1="47.5871" y1="15.2322" x2="48.8696" y2="13.8566" gradientUnits="userSpaceOnUse">
<stop stop-color="white"/>
<stop offset="0.24" stop-color="#E8E4E3"/>
<stop offset="0.71" stop-color="#B3A6A1"/>
</linearGradient>
</defs>
</svg>
