<svg width="56" height="56" viewBox="0 0 56 56" fill="none" xmlns="http://www.w3.org/2000/svg">
<g clip-path="url(#clip0)">
<path fill-rule="evenodd" clip-rule="evenodd" d="M31.3603 32.3887L31.8441 33.5784L32.2069 33.1681L32.3682 33.6604L32.0457 34.0297L32.4488 34.9732L32.6907 34.3579L33.2955 35.4245L33.0536 36.327L33.4971 37.3526L33.7793 36.6142L34.2228 37.1065L33.9809 38.5424L34.5453 39.8141L34.4243 40.3885L34.3034 40.4705H34.2228L31.0378 32.7579L31.1587 32.3477L31.3603 32.3887Z" fill="#666666"/>
<path fill-rule="evenodd" clip-rule="evenodd" d="M30.8765 33.2911L33.7793 40.0191C33.9002 40.2653 34.1018 40.3884 34.2228 40.4294L30.9975 32.8398C30.9168 32.9629 30.7959 33.127 30.8765 33.2911Z" fill="white"/>
<path fill-rule="evenodd" clip-rule="evenodd" d="M31.1587 32.3477L31.6828 33.6194L32.0457 33.2092L32.2472 33.7015L31.8844 34.0707L32.2876 35.0143L32.5698 34.3989L33.1745 35.4655L32.8923 36.3681L33.3358 37.3937L33.618 36.6552L34.0615 37.1475L33.8599 38.5834L34.4243 39.8551L34.3437 40.3885L34.2227 40.4705L30.9168 32.7989L31.1587 32.3477Z" fill="#B2B2B2"/>
<path fill-rule="evenodd" clip-rule="evenodd" d="M32.8923 32.3884C32.6907 32.4294 32.3279 32.3063 31.8844 33.0448C31.7231 33.332 31.8441 33.8653 32.2876 34.3986C32.731 34.9319 32.6101 35.6293 33.0536 36.6139C33.2552 37.1062 34.6259 38.3369 35.15 37.9677C35.3919 37.8036 35.5935 37.5575 35.3919 36.8601C35.0694 35.5883 34.5453 34.7678 34.8275 33.9473C34.9081 33.6191 36.3998 33.2499 36.7627 33.0448C36.2789 33.1268 35.4726 32.8397 35.3919 31.814C35.4726 31.4448 34.9888 32.2653 34.9888 31.4448C34.505 31.9781 33.9405 32.2243 32.8923 32.3884Z" fill="white"/>
<path fill-rule="evenodd" clip-rule="evenodd" d="M32.7311 35.4243C32.8924 35.4243 33.0939 35.4243 33.2149 35.5474C33.7793 36.532 34.2228 37.0243 34.9888 37.2704C35.2307 37.3525 35.392 37.2294 35.5129 37.1063C35.5936 37.6396 35.4323 37.8037 35.1904 37.9678C34.6663 38.3371 33.2955 37.1063 33.0939 36.614C32.8924 36.1628 32.8117 35.7525 32.7311 35.4243Z" fill="#351536"/>
<path fill-rule="evenodd" clip-rule="evenodd" d="M24.6678 39.1982L25.716 39.8957L25.7967 39.3213L26.1998 39.6495L26.1192 40.1418L26.9658 40.6751L26.8852 40.0598L27.9334 40.5931L28.2156 41.4956L29.1832 42.111L28.9817 41.3315L29.6267 41.4956L30.2315 42.7674L31.4006 43.5468L31.6022 44.0391L31.5216 44.2032L31.4813 44.2443L24.6275 39.6495L24.5065 39.2393L24.6678 39.1982Z" fill="#666666"/>
<path fill-rule="evenodd" clip-rule="evenodd" d="M24.7484 40.1827L30.8765 44.1211C31.1184 44.2852 31.3603 44.2441 31.4813 44.2031L24.6275 39.7725C24.6275 39.8955 24.5871 40.1007 24.7484 40.1827Z" fill="white"/>
<path fill-rule="evenodd" clip-rule="evenodd" d="M24.5065 39.2393L25.6354 39.9777L25.6757 39.4444L26.1192 39.7316L26.0386 40.2649L26.8852 40.7982L26.7643 40.1418L27.8528 40.6751L28.135 41.5777L29.0623 42.193L28.901 41.4136L29.5461 41.5777L30.1508 42.8904L31.32 43.6289L31.5216 44.1212L31.4813 44.2443L24.5065 39.7726V39.2393Z" fill="#B2B2B2"/>
<path fill-rule="evenodd" clip-rule="evenodd" d="M25.9579 38.2957C25.7966 38.4188 25.4338 38.5829 25.4741 39.4034C25.4741 39.7316 25.8773 40.1008 26.5627 40.2649C27.248 40.47 27.4899 41.0854 28.4172 41.6597C28.8607 41.9469 30.6749 42.193 30.9168 41.5777C31.0378 41.2905 31.0781 41.0033 30.5137 40.511C29.5461 39.6495 28.6994 39.2393 28.4575 38.4188C28.3366 38.0906 29.3848 36.9419 29.5864 36.5727C29.2235 36.9009 28.4172 37.147 27.7722 36.3265C27.5706 36.0394 27.6109 36.9829 27.1674 36.3265C27.0868 37.0239 26.7239 37.5573 25.9579 38.2957Z" fill="white"/>
<path fill-rule="evenodd" clip-rule="evenodd" d="M27.4899 40.8804C27.6109 40.7573 27.7721 40.6753 27.9334 40.7163C28.9413 41.2086 29.5864 41.3727 30.3121 41.1266C30.554 41.0445 30.6346 40.8804 30.6749 40.6753C31.0378 41.0445 30.9975 41.3317 30.8765 41.5778C30.6346 42.1932 28.8607 41.9471 28.3769 41.6599C28.014 41.4137 27.7318 41.1266 27.4899 40.8804Z" fill="#351536"/>
<path fill-rule="evenodd" clip-rule="evenodd" d="M38.8995 29.6807C39.5446 29.6807 40.7541 29.5166 41.4798 29.3935C42.0039 29.3115 44.4229 30.5422 42.3264 31.4038C40.1494 32.1422 35.5533 33.537 34.8679 34.6857C33.5375 34.3575 33.4165 32.7576 33.6987 31.9781C35.9161 31.1166 36.7628 29.5987 38.8995 29.6807Z" fill="#0089C4"/>
<path fill-rule="evenodd" clip-rule="evenodd" d="M43.6972 29.2292C42.1248 26.1524 38.577 22.0499 36.924 21.3936C35.8758 21.9269 34.6663 22.8294 33.618 23.3627C33.618 24.6345 33.6987 26.7267 35.3113 26.6857C37.4481 29.4344 40.2703 29.5574 40.996 30.6651C42.2458 32.0189 44.3422 30.8702 43.6972 29.2292Z" fill="#0089C4"/>
<path fill-rule="evenodd" clip-rule="evenodd" d="M28.8607 33.1677C29.4251 32.8395 30.5137 31.937 31.0781 31.4857C31.5216 31.1575 34.3841 31.1575 32.9327 32.8395C32.1263 33.66 30.9975 35.3831 30.4734 35.9574C29.5864 36.942 28.3366 38.583 28.8607 39.2394C27.7318 39.9778 26.0789 39.1163 25.9579 38.2958C27.5706 36.0395 27.5303 33.9062 28.8607 33.1677Z" fill="#35AFD4"/>
<path fill-rule="evenodd" clip-rule="evenodd" d="M33.3762 32.5524C34.8679 31.0345 36.6821 28.2448 37.6497 26.1525C38.8189 26.1936 38.9398 24.5116 38.8189 23.4449C38.0932 22.9937 36.3999 22.6655 35.3114 20.7373C34.4244 21.1476 33.2149 22.0501 33.2149 23.8962C30.8362 27.2602 31.8038 30.5011 30.9169 31.6088C30.3524 32.5113 32.0457 33.66 33.3762 32.5524Z" fill="#35AFD4"/>
<path fill-rule="evenodd" clip-rule="evenodd" d="M47.7288 32.7579C49.7446 32.4297 51.8411 30.6657 52.4458 30.3375C52.8893 30.0093 52.2039 28.9837 51.6395 29.2708C50.7122 29.7631 50.0672 30.0913 48.011 30.3375C47.5675 30.3785 46.0758 30.5836 46.1968 31.3221C46.2774 32.1015 46.6403 32.922 47.7288 32.7579Z" fill="#0089C4"/>
<path fill-rule="evenodd" clip-rule="evenodd" d="M44.947 25.9481C44.5841 27.4249 46.0355 31.3633 46.3178 31.6505C46.3178 31.9787 48.4545 31.4043 48.2529 30.6659C47.9304 28.4916 49.664 21.2302 45.834 23.0763C45.0679 23.4456 44.181 23.3635 44.947 25.9481Z" fill="#0089C4"/>
<path fill-rule="evenodd" clip-rule="evenodd" d="M44.826 18.8915C42.1651 18.1121 35.9161 20.5325 35.3113 20.6966C33.9406 21.7632 36.2386 24.5939 38.2544 25.0862C39.0608 25.0042 41.4797 25.4555 42.2458 25.7426C44.0197 26.44 46.358 26.1529 47.6482 25.7426C48.9383 25.3324 49.2608 23.9786 47.7288 22.2966C47.4063 22.0094 46.2774 19.63 44.826 18.8915Z" fill="#35AFD4"/>
<path fill-rule="evenodd" clip-rule="evenodd" d="M31.7635 15.8966C31.4813 15.8556 31.32 16.1017 31.1184 16.3069C30.8765 16.553 30.2718 16.4299 29.9896 16.8402C29.8283 17.0453 30.1912 17.0863 30.554 17.0043C30.9169 16.9222 31.1991 17.0453 31.4813 16.9222C31.6426 16.8812 32.207 16.6351 32.207 16.3889C32.207 15.9376 32.0054 15.9787 31.7635 15.8966Z" fill="#0089C4"/>
<path fill-rule="evenodd" clip-rule="evenodd" d="M33.0536 14.584C33.5374 14.7071 33.86 16.266 33.1343 16.266C32.6101 16.266 31.9248 16.7993 31.6022 16.7993C31.441 16.7993 31.1587 16.6352 30.9572 16.6352C30.7153 16.6352 30.6346 16.5942 30.4734 16.4711C30.3121 16.348 29.8283 16.0609 29.7074 15.9378C29.4655 15.6916 28.901 15.3224 28.9817 15.1994C29.022 15.1583 29.1026 15.0353 29.1832 15.0353C29.1026 14.9532 28.9413 14.8712 29.022 14.7481C29.1832 14.584 29.4251 14.7071 29.4251 14.7071L29.3445 14.625C29.3042 14.4199 29.7074 14.4199 29.8283 14.5019C29.9493 14.543 30.3121 14.7481 30.4331 14.8301C30.7153 14.9532 31.4006 15.1994 30.7153 14.8712C30.4331 14.7481 30.0702 14.4609 30.2315 14.3789C30.5137 14.2148 30.7153 14.4609 30.9975 14.584C31.2797 14.584 31.6829 14.625 32.0054 14.543C32.207 14.5019 32.5295 14.625 32.6101 14.625C32.852 14.543 32.7311 14.4609 33.0536 14.584Z" fill="#35AFD4"/>
<path fill-rule="evenodd" clip-rule="evenodd" d="M38.1738 14.4606C36.2386 13.8042 33.6583 14.6247 33.0133 14.6657C32.4892 14.7478 32.6101 16.1426 33.2552 16.1426C34.3034 16.1426 35.1904 16.0195 37.1659 16.758C37.6094 16.9221 38.9398 17.2503 39.1414 16.5529C39.3833 15.7734 39.5445 14.9119 38.1738 14.4606Z" fill="#2AD4FF"/>
<path fill-rule="evenodd" clip-rule="evenodd" d="M38.6576 14.666C38.4157 14.4608 37.2465 16.5531 37.9319 16.9223C40.9556 18.6043 43.8181 23.117 45.1082 20.3274C46.1161 18.1531 40.8347 15.5275 38.6576 14.666Z" fill="white"/>
<path fill-rule="evenodd" clip-rule="evenodd" d="M45.7936 21.476C44.1003 22.1324 45.4711 25.0041 47.5675 24.2246C47.6885 24.2246 47.5675 20.7786 45.7936 21.476Z" fill="#00CCFF"/>
<path fill-rule="evenodd" clip-rule="evenodd" d="M48.4948 20.3271C48.4948 20.3271 47.7691 20.9835 46.2371 21.4758C44.5035 22.0092 45.7533 24.5117 47.9707 23.8142C48.5351 23.6501 49.0189 23.2399 50.0671 22.1733C50.5509 21.9271 48.4948 20.3271 48.4948 20.3271Z" fill="#DB9669"/>
<path fill-rule="evenodd" clip-rule="evenodd" d="M51.2363 20.5322C51.1154 20.9014 51.1557 21.3117 51.1154 21.6809C51.1557 22.1322 50.5913 22.1322 50.7928 22.8296C50.7122 23.2809 50.43 23.9373 50.1881 24.3065C50.0268 24.5937 49.8656 25.0449 49.3011 25.209C48.4545 25.4962 47.8901 24.5526 47.2047 24.0603C46.5596 23.6091 47.124 22.7476 47.0837 22.0912C47.0031 20.8604 47.4466 19.3835 48.777 19.2605C49.3818 19.2194 50.2687 19.3425 50.7525 19.7117C50.9944 19.8758 51.3976 20.163 51.2363 20.5322Z" fill="#F2B387"/>
<path fill-rule="evenodd" clip-rule="evenodd" d="M52.3652 30.6247C51.8411 30.7068 50.9944 29.394 51.6395 29.1068C52.1233 28.9017 52.5264 28.1222 52.849 28.0402C53.0102 27.9581 53.3328 28.0402 53.494 27.9581C53.6956 27.8761 53.8166 27.8761 54.0182 27.9171C54.2197 27.9581 54.7439 28.0402 54.9454 28.0812C55.2277 28.2043 55.913 28.3273 55.8727 28.4914C55.8727 28.5735 55.7921 28.6965 55.7518 28.6965C55.8727 28.7376 56.034 28.7376 55.9937 28.9017C55.913 29.1478 55.6308 29.1068 55.6308 29.1068L55.7518 29.1478C55.8727 29.3529 55.5099 29.435 55.3889 29.476C55.268 29.476 54.8648 29.435 54.7439 29.435C54.4213 29.435 53.7359 29.476 54.4616 29.517C54.7842 29.517 55.2277 29.6401 55.1067 29.7632C54.9051 30.0093 54.6229 29.8863 54.3004 29.8863C54.0182 29.8863 53.615 30.0504 53.3731 30.2145C53.2118 30.3375 52.849 30.3375 52.7683 30.4196C52.5264 30.5837 52.6877 30.5837 52.3652 30.6247Z" fill="#35AFD4"/>
<path fill-rule="evenodd" clip-rule="evenodd" d="M53.0506 28.9014C53.3328 28.8194 53.3731 28.5322 53.494 28.286C53.615 27.9578 54.2197 27.8348 54.3407 27.3425C54.4213 27.0963 54.0585 27.1784 53.7762 27.4245C53.494 27.6707 53.1715 27.6707 52.9699 27.8348C52.849 27.9578 52.4055 28.4091 52.4861 28.6142C52.6474 29.0655 52.8087 28.9424 53.0506 28.9014Z" fill="#0089C4"/>
<path fill-rule="evenodd" clip-rule="evenodd" d="M50.1478 20.0399C50.0672 20.3271 50.2285 20.204 50.0269 20.2861C49.4221 20.245 49.2609 20.122 48.4948 20.3681C47.9304 20.5732 48.5352 20.9835 48.2529 21.3527C48.132 21.4758 47.7691 21.927 47.8095 22.1322L47.4466 22.0911C47.0031 21.3937 46.7209 21.6399 46.5597 22.6245C46.5597 22.6245 45.9952 22.2142 45.8743 21.5578C45.7533 20.7783 45.7936 20.0809 45.9952 19.5066C46.4387 18.6451 47.245 17.8656 49.3012 18.7271C49.664 18.8502 50.3091 19.3015 50.1478 20.0399Z" fill="#704321"/>
<path fill-rule="evenodd" clip-rule="evenodd" d="M47.0032 21.5167C46.6403 21.5578 46.6 21.886 46.6403 22.2552C46.6806 22.6244 47.0032 23.1577 47.2047 22.9936C47.4466 22.7885 47.3257 22.7064 47.4063 22.3782C47.4466 22.2141 47.4466 22.05 47.4466 21.927C47.4466 21.7219 47.3257 21.4757 47.0032 21.5167Z" fill="#F1B287"/>
<path fill-rule="evenodd" clip-rule="evenodd" d="M51.3976 21.681C51.8411 20.2452 51.5589 18.8093 49.5027 18.0709C48.011 17.5786 46.5999 17.9068 46.0355 19.1785C45.8743 19.5067 45.8339 20.0811 45.6727 20.6554C46.2371 21.2297 47.5272 21.5579 48.0917 21.722C49.7446 22.1323 51.0751 22.0913 51.3976 21.681Z" fill="#1D1B3A"/>
<path fill-rule="evenodd" clip-rule="evenodd" d="M51.4782 21.3528C51.7604 20.04 51.3976 18.7272 49.5027 18.0709C48.011 17.5786 46.5999 17.9068 46.0355 19.1785C45.9146 19.4247 45.8339 19.7939 45.7533 20.2452C46.7209 21.1887 50.4703 22.2143 51.4782 21.3528Z" fill="#0089C4"/>
<path fill-rule="evenodd" clip-rule="evenodd" d="M51.317 21.1477C51.5186 19.999 51.1557 18.8503 49.4624 18.276C48.6964 17.9888 47.9304 17.9888 47.3257 18.235C47.7691 18.235 48.2529 18.276 48.7367 18.4811C50.2688 19.0144 51.1557 20.04 51.317 21.1477Z" fill="#2AD4FF"/>
<path fill-rule="evenodd" clip-rule="evenodd" d="M46.8418 23.0762C46.8418 23.5274 47.0031 23.7326 47.124 23.9787C47.2853 24.1018 47.4063 24.2249 47.5675 24.389C47.3659 24.0197 47.124 23.7736 47.124 23.2813C47.0031 23.1992 46.9225 23.1172 46.8418 23.0762Z" fill="#1D1B3A"/>
<path d="M46.6806 21.2705C46.6 21.6808 46.6 22.9115 47.0838 23.0346C47.4063 23.1577 47.6885 21.8039 47.7692 21.5577L48.0111 21.6398C47.8095 22.5423 47.4869 23.4038 47.0031 23.2397C46.3984 23.0346 46.3581 21.8859 46.4387 21.1064L46.6806 21.2705Z" fill="#1D1B3A"/>
<path fill-rule="evenodd" clip-rule="evenodd" d="M41.6007 19.835C42.8908 19.3838 44.1003 19.1786 45.1486 19.2607C44.9067 18.5633 44.2616 17.9069 43.4553 17.2915C42.407 17.4556 41.1975 17.8248 39.9074 18.3581C40.5122 18.8504 41.0766 19.3838 41.6007 19.835Z" fill="#35AFD4"/>
<path fill-rule="evenodd" clip-rule="evenodd" d="M33.2149 23.896C33.2955 26.8087 33.618 29.3933 34.6663 30.9932L33.618 32.3471C32.5295 31.7317 31.9247 30.1727 31.6022 28.0805C31.8038 26.8087 32.207 25.3729 33.2149 23.896Z" fill="white"/>
<path fill-rule="evenodd" clip-rule="evenodd" d="M6.85377 30.1812L7.33756 31.3709L7.70041 30.9606L7.86168 31.4529L7.53915 31.8221L7.94231 32.7657L8.18421 32.1503L8.78896 33.217L8.54706 34.1195L8.99054 35.1451L9.27275 34.4067L9.71624 34.899L9.47434 36.3348L10.0388 37.6066L9.91782 38.1809L9.79687 38.263H9.71624L6.53123 30.5504L6.65218 30.1401L6.85377 30.1812Z" fill="#666666"/>
<path fill-rule="evenodd" clip-rule="evenodd" d="M6.36998 31.0841L9.27276 37.8121C9.39371 38.0583 9.59529 38.1813 9.71624 38.2223L6.49092 30.6328C6.41029 30.7559 6.28934 30.92 6.36998 31.0841Z" fill="white"/>
<path fill-rule="evenodd" clip-rule="evenodd" d="M6.65216 30.1401L7.17628 31.4119L7.53912 31.0017L7.74071 31.4939L7.37786 31.8632L7.78102 32.8067L8.06324 32.1914L8.66798 33.258L8.38577 34.1605L8.82925 35.1862L9.11146 34.4477L9.55495 34.94L9.35336 36.3759L9.91779 37.6476L9.83716 38.1809L9.71621 38.263L6.41026 30.5914L6.65216 30.1401Z" fill="#B2B2B2"/>
<path fill-rule="evenodd" clip-rule="evenodd" d="M8.38579 30.1814C8.18421 30.2224 7.82136 30.0993 7.37788 30.8378C7.21661 31.1249 7.33756 31.6582 7.78104 32.1916C8.22452 32.7249 8.10357 33.4223 8.54705 34.4069C8.74864 34.8992 10.1194 36.1299 10.6435 35.7607C10.8854 35.5966 11.087 35.3505 10.8854 34.653C10.5629 33.3813 10.0388 32.5608 10.321 31.7403C10.4016 31.4121 11.8933 31.0429 12.2562 30.8378C11.7724 30.9198 10.966 30.6326 10.8854 29.607C10.966 29.2378 10.4822 30.0583 10.4822 29.2378C9.99845 29.7711 9.43402 30.0173 8.38579 30.1814Z" fill="#431E44"/>
<path fill-rule="evenodd" clip-rule="evenodd" d="M8.2245 33.2173C8.38577 33.2173 8.58735 33.2173 8.7083 33.3404C9.27273 34.3249 9.71621 34.8172 10.4822 35.0634C10.7241 35.1454 10.8854 35.0224 11.0063 34.8993C11.087 35.4326 10.9257 35.5967 10.6838 35.7608C10.1597 36.13 8.78893 34.8993 8.58735 34.407C8.38577 33.9557 8.30514 33.5455 8.2245 33.2173Z" fill="#351536"/>
<path fill-rule="evenodd" clip-rule="evenodd" d="M0.161266 36.9917L1.20949 37.6891L1.29013 37.1148L1.69329 37.443L1.61266 37.9353L2.4593 38.4686L2.37867 37.8532L3.4269 38.3865L3.70912 39.2891L4.67671 39.9044L4.47513 39.125L5.12019 39.2891L5.72494 40.5608L6.89412 41.3403L7.0957 41.8326L7.01506 41.9967L6.97475 42.0377L0.120949 37.443L0 37.0327L0.161266 36.9917Z" fill="#666666"/>
<path fill-rule="evenodd" clip-rule="evenodd" d="M0.241884 37.9762L6.36999 41.9145C6.61189 42.0786 6.85378 42.0376 6.97473 41.9966L0.120935 37.5659C0.120935 37.689 0.0806183 37.8941 0.241884 37.9762Z" fill="white"/>
<path fill-rule="evenodd" clip-rule="evenodd" d="M0 37.0327L1.12886 37.7712L1.16918 37.2378L1.61266 37.525L1.53203 38.0583L2.37867 38.5916L2.25772 37.9353L3.34627 38.4686L3.62848 39.3711L4.55576 39.9865L4.39449 39.207L5.03956 39.3711L5.64431 40.6839L6.81348 41.4223L7.01506 41.9146L6.97475 42.0377L0 37.566V37.0327Z" fill="#B2B2B2"/>
<path fill-rule="evenodd" clip-rule="evenodd" d="M1.45138 36.0892C1.29011 36.2122 0.927265 36.3763 0.967581 37.1968C0.967581 37.525 1.37075 37.8942 2.05613 38.0583C2.74151 38.2635 2.98341 38.8788 3.91069 39.4532C4.35417 39.7403 6.16841 39.9865 6.41031 39.3711C6.53126 39.084 6.57157 38.7968 6.00714 38.3045C5.03955 37.443 4.1929 37.0327 3.951 36.2122C3.83005 35.884 4.87828 34.7353 5.07986 34.3661C4.71701 34.6943 3.91068 34.9405 3.26562 34.12C3.06404 33.8328 3.10436 34.7764 2.66087 34.12C2.58024 34.8174 2.21739 35.3507 1.45138 36.0892Z" fill="#431E44"/>
<path fill-rule="evenodd" clip-rule="evenodd" d="M2.9834 38.6739C3.10435 38.5508 3.26561 38.4687 3.42688 38.5098C4.43479 39.0021 5.07986 39.1662 5.80555 38.92C6.04745 38.838 6.12808 38.6739 6.1684 38.4688C6.53125 38.838 6.49093 39.1251 6.36998 39.3713C6.12808 39.9867 4.35416 39.7405 3.87036 39.4533C3.50751 39.2072 3.2253 38.92 2.9834 38.6739Z" fill="#351536"/>
<path fill-rule="evenodd" clip-rule="evenodd" d="M14.393 27.4737C15.038 27.4737 16.2475 27.3096 16.9732 27.1865C17.4973 27.1045 19.9163 28.3352 17.8199 29.1967C15.6428 29.9352 11.0467 31.33 10.3613 32.4787C9.03086 32.1505 8.90991 30.5505 9.19213 29.7711C11.4095 28.9095 12.2562 27.3916 14.393 27.4737Z" fill="#313294"/>
<path fill-rule="evenodd" clip-rule="evenodd" d="M19.1906 27.0222C17.6183 23.9454 14.0704 19.8429 12.4175 19.1865C11.3692 19.7198 10.1597 20.6224 9.11151 21.1557C9.11151 22.4275 9.19214 24.5197 10.8048 24.4787C12.9416 27.2273 15.7637 27.3504 16.4894 28.4581C17.7392 29.8119 19.8357 28.6632 19.1906 27.0222Z" fill="#313294"/>
<path fill-rule="evenodd" clip-rule="evenodd" d="M4.35417 30.9607C4.9186 30.6325 6.00715 29.73 6.57158 29.2787C7.01506 28.9505 9.87753 28.9505 8.42613 30.6325C7.6198 31.453 6.49094 33.176 5.96683 33.7504C5.07987 34.735 3.83006 36.3759 4.35417 37.0323C3.22531 37.7708 1.57233 36.9093 1.45139 36.0888C3.06404 33.8324 3.02373 31.6991 4.35417 30.9607Z" fill="#4D4EAF"/>
<path fill-rule="evenodd" clip-rule="evenodd" d="M8.86963 30.3453C10.3613 28.8274 12.1756 26.0378 13.1432 23.9455C14.3124 23.9865 14.4333 22.3045 14.3124 21.2379C13.5867 20.7866 11.8934 20.4584 10.8048 18.5303C9.91786 18.9405 8.70836 19.8431 8.70836 21.6892C6.32969 25.0532 7.29729 28.2941 6.41032 29.4018C5.84589 30.3043 7.53919 31.453 8.86963 30.3453Z" fill="#4D4EAF"/>
<path fill-rule="evenodd" clip-rule="evenodd" d="M23.2223 30.5504C25.2381 30.2222 27.3346 28.4582 27.9393 28.13C28.3828 27.8018 27.6974 26.7762 27.133 27.0633C26.2057 27.5556 25.5606 27.8838 23.5045 28.13C23.061 28.171 21.5693 28.3761 21.6903 29.1146C21.7709 29.894 22.1337 30.7145 23.2223 30.5504Z" fill="#0089C4"/>
<path fill-rule="evenodd" clip-rule="evenodd" d="M20.4405 23.7405C20.0776 25.2174 21.529 29.1558 21.8112 29.4429C21.8112 29.7711 23.948 29.1968 23.7464 28.4584C23.4239 26.2841 25.1575 19.0227 21.3274 20.8688C20.5614 21.238 19.6744 21.156 20.4405 23.7405Z" fill="#0089C4"/>
<path fill-rule="evenodd" clip-rule="evenodd" d="M20.3195 16.6845C17.6586 15.905 11.4095 18.3255 10.8048 18.4896C9.43403 19.5562 11.7321 22.3869 13.7479 22.8792C14.5542 22.7972 16.9732 23.2484 17.7392 23.5356C19.5132 24.233 21.8515 23.9458 23.1416 23.5356C24.4318 23.1253 24.7543 21.7715 23.2223 20.0895C22.8997 19.8024 21.7709 17.4229 20.3195 16.6845Z" fill="#4D4EAF"/>
<path fill-rule="evenodd" clip-rule="evenodd" d="M7.25693 13.6896C6.97471 13.6486 6.81345 13.8947 6.61186 14.0998C6.36997 14.346 5.76522 14.2229 5.483 14.6331C5.32174 14.8383 5.68459 14.8793 6.04743 14.7972C6.41028 14.7152 6.6925 14.8383 6.97471 14.7152C7.13598 14.6742 7.70041 14.428 7.70041 14.1819C7.70041 13.7306 7.49883 13.7716 7.25693 13.6896Z" fill="#313294"/>
<path fill-rule="evenodd" clip-rule="evenodd" d="M8.54709 12.3765C9.03089 12.4995 9.35342 14.0585 8.62772 14.0585C8.10361 14.0585 7.41823 14.5918 7.0957 14.5918C6.93443 14.5918 6.65222 14.4277 6.45064 14.4277C6.20874 14.4277 6.1281 14.3867 5.96684 14.2636C5.80557 14.1405 5.32177 13.8534 5.20083 13.7303C4.95893 13.4841 4.3945 13.1149 4.47513 12.9918C4.51545 12.9508 4.59608 12.8277 4.67671 12.8277C4.59608 12.7457 4.43481 12.6636 4.51545 12.5406C4.67671 12.3765 4.91861 12.4995 4.91861 12.4995L4.83798 12.4175C4.79766 12.2124 5.20083 12.2124 5.32178 12.2944C5.44272 12.3354 5.80557 12.5406 5.92652 12.6226C6.20874 12.7457 6.89412 12.9918 6.20874 12.6636C5.92652 12.5406 5.56367 12.2534 5.72494 12.1713C6.00716 12.0072 6.20874 12.2534 6.49095 12.3765C6.77317 12.3765 7.17633 12.4175 7.49886 12.3354C7.70045 12.2944 8.02298 12.4175 8.10361 12.4175C8.34551 12.3354 8.22456 12.2534 8.54709 12.3765Z" fill="#4D4EAF"/>
<path fill-rule="evenodd" clip-rule="evenodd" d="M13.6673 12.2536C11.7321 11.5972 9.15183 12.4177 8.50677 12.4587C7.98265 12.5407 8.1036 13.9356 8.74866 13.9356C9.79689 13.9356 10.6839 13.8125 12.6594 14.5509C13.1028 14.715 14.4333 15.0432 14.6349 14.3458C14.8768 13.5664 15.038 12.7048 13.6673 12.2536Z" fill="#2AD4FF"/>
<path fill-rule="evenodd" clip-rule="evenodd" d="M14.1511 12.4585C13.9092 12.2533 12.74 14.3456 13.4254 14.7148C16.4491 16.3968 19.3116 20.9095 20.6017 18.1198C21.6096 15.9455 16.3282 13.32 14.1511 12.4585Z" fill="#2AD4FF"/>
<path fill-rule="evenodd" clip-rule="evenodd" d="M21.2871 19.269C19.5938 19.9254 20.9646 22.7971 23.061 22.0176C23.182 22.0176 23.061 18.5715 21.2871 19.269Z" fill="#00CCFF"/>
<path fill-rule="evenodd" clip-rule="evenodd" d="M23.9883 18.1201C23.9883 18.1201 23.2626 18.7765 21.7306 19.2688C19.997 19.8021 21.2468 22.3046 23.4642 21.6072C24.0286 21.4431 24.5124 21.0329 25.5606 19.9662C26.0444 19.7201 23.9883 18.1201 23.9883 18.1201Z" fill="#DB9669"/>
<path fill-rule="evenodd" clip-rule="evenodd" d="M26.7298 18.3252C26.6088 18.6944 26.6492 19.1047 26.6088 19.4739C26.6492 19.9252 26.0847 19.9252 26.2863 20.6226C26.2057 21.0738 25.9235 21.7302 25.6816 22.0995C25.5203 22.3866 25.359 22.8379 24.7946 23.002C23.948 23.2892 23.3835 22.3456 22.6981 21.8533C22.0531 21.402 22.6175 20.5405 22.5772 19.8841C22.4966 18.6534 22.94 17.1765 24.2705 17.0534C24.8752 17.0124 25.7622 17.1355 26.246 17.5047C26.4879 17.6688 26.8911 17.956 26.7298 18.3252Z" fill="#F2B387"/>
<path fill-rule="evenodd" clip-rule="evenodd" d="M27.8587 28.4177C27.3345 28.4997 26.4879 27.1869 27.133 26.8998C27.6168 26.6946 28.0199 25.9152 28.3424 25.8331C28.5037 25.7511 28.8262 25.8331 28.9875 25.7511C29.1891 25.669 29.31 25.669 29.5116 25.7101C29.7132 25.7511 30.2373 25.8331 30.4389 25.8742C30.7211 25.9972 31.4065 26.1203 31.3662 26.2844C31.3662 26.3664 31.2855 26.4895 31.2452 26.4895C31.3662 26.5305 31.5274 26.5305 31.4871 26.6946C31.4065 26.9408 31.1243 26.8998 31.1243 26.8998L31.2452 26.9408C31.3662 27.1459 31.0033 27.228 30.8824 27.269C30.7614 27.269 30.3583 27.228 30.2373 27.228C29.9148 27.228 29.2294 27.269 29.9551 27.31C30.2776 27.31 30.7211 27.4331 30.6002 27.5562C30.3986 27.8023 30.1164 27.6792 29.7938 27.6792C29.5116 27.6792 29.1085 27.8433 28.8666 28.0074C28.7053 28.1305 28.3424 28.1305 28.2618 28.2125C28.0199 28.3766 28.1812 28.3766 27.8587 28.4177Z" fill="#313294"/>
<path fill-rule="evenodd" clip-rule="evenodd" d="M28.544 26.6944C28.8263 26.6123 28.8666 26.3252 28.9875 26.079C29.1085 25.7508 29.7132 25.6277 29.8342 25.1354C29.9148 24.8893 29.552 24.9713 29.2697 25.2175C28.9875 25.4636 28.665 25.4636 28.4634 25.6277C28.3425 25.7508 27.899 26.2021 27.9796 26.4072C28.1409 26.8585 28.3021 26.7354 28.544 26.6944Z" fill="#4D4EAF"/>
<path fill-rule="evenodd" clip-rule="evenodd" d="M25.6413 17.8329C25.5607 18.12 25.7219 17.997 25.5203 18.079C24.9156 18.038 24.7543 17.9149 23.9883 18.1611C23.4239 18.3662 24.0286 18.7764 23.7464 19.1457C23.6255 19.2687 23.2626 19.72 23.3029 19.9251L22.9401 19.8841C22.4966 19.1867 22.2144 19.4328 22.0531 20.4174C22.0531 20.4174 21.4887 20.0072 21.3677 19.3508C21.2468 18.5713 21.2871 17.8739 21.4887 17.2996C21.9322 16.438 22.7385 15.6586 24.7946 16.5201C25.1575 16.6432 25.8026 17.0944 25.6413 17.8329Z" fill="#704321"/>
<path fill-rule="evenodd" clip-rule="evenodd" d="M22.4966 19.3097C22.1338 19.3507 22.0935 19.6789 22.1338 20.0481C22.1741 20.4174 22.4966 20.9507 22.6982 20.7866C22.9401 20.5815 22.8192 20.4994 22.8998 20.1712C22.9401 20.0071 22.9401 19.843 22.9401 19.7199C22.9401 19.5148 22.8192 19.2687 22.4966 19.3097Z" fill="#F1B287"/>
<path fill-rule="evenodd" clip-rule="evenodd" d="M26.8911 19.474C27.3346 18.0381 27.0523 16.6023 24.9962 15.8638C23.5045 15.3715 22.0934 15.6997 21.529 16.9715C21.3677 17.2997 21.3274 17.874 21.1661 18.4484C21.7306 19.0227 23.0207 19.3509 23.5851 19.515C25.2381 19.9253 26.5685 19.8842 26.8911 19.474Z" fill="#1D1B3A"/>
<path fill-rule="evenodd" clip-rule="evenodd" d="M26.9717 19.1458C27.2539 17.833 26.8911 16.5202 24.9962 15.8638C23.5045 15.3715 22.0934 15.6997 21.529 16.9715C21.408 17.2176 21.3274 17.5869 21.2468 18.0381C22.2144 18.9817 25.9638 20.0073 26.9717 19.1458Z" fill="#0089C4"/>
<path fill-rule="evenodd" clip-rule="evenodd" d="M26.8105 18.9407C27.012 17.792 26.6492 16.6433 24.9559 16.0689C24.1899 15.7818 23.4239 15.7818 22.8191 16.0279C23.2626 16.0279 23.7464 16.0689 24.2302 16.2741C25.7622 16.8074 26.6492 17.833 26.8105 18.9407Z" fill="#2AD4FF"/>
<path fill-rule="evenodd" clip-rule="evenodd" d="M22.3353 20.8687C22.3353 21.3199 22.4966 21.525 22.6175 21.7712C22.7788 21.8943 22.8997 22.0173 23.061 22.1814C22.8594 21.8122 22.6175 21.5661 22.6175 21.0738C22.4966 20.9917 22.4159 20.9097 22.3353 20.8687Z" fill="#1D1B3A"/>
<path d="M22.1741 19.0635C22.0934 19.4738 22.0934 20.7045 22.5772 20.8276C22.8998 20.9506 23.182 19.5968 23.2626 19.3507L23.5045 19.4327C23.3029 20.3353 22.9804 21.1968 22.4966 21.0327C21.8919 20.8276 21.8515 19.6789 21.9322 18.8994L22.1741 19.0635Z" fill="#1D1B3A"/>
<path fill-rule="evenodd" clip-rule="evenodd" d="M17.0942 17.628C18.3843 17.1767 19.5938 16.9716 20.642 17.0537C20.4001 16.3562 19.7551 15.6998 18.9487 15.0845C17.9005 15.2486 16.691 15.6178 15.4009 16.1511C16.0056 16.6434 16.5701 17.1767 17.0942 17.628Z" fill="#4D4EAF"/>
<path fill-rule="evenodd" clip-rule="evenodd" d="M8.70835 21.689C8.78898 24.6017 9.11151 27.1863 10.1597 28.7862L9.11151 30.14C8.02297 29.5247 7.41822 27.9657 7.09569 25.8735C7.29727 24.6017 7.70043 23.1658 8.70835 21.689Z" fill="#0CC9F6"/>
</g>
<defs>
<clipPath id="clip0">
<rect width="56" height="56" fill="white"/>
</clipPath>
</defs>
</svg>
