<svg width="56" height="56" viewBox="0 0 56 56" fill="none" xmlns="http://www.w3.org/2000/svg">
<path d="M53.5413 5.59495C53.4542 5.76802 53.3598 5.94801 53.2509 6.128C53.0189 6.53048 52.7335 6.90276 52.4017 7.23564C52.1569 7.48068 51.8843 7.69894 51.5888 7.88637C50.7305 8.4227 49.7074 8.66665 48.6855 8.57864C48.4007 8.55503 48.1189 8.50636 47.8435 8.43326C47.7095 8.39922 47.5785 8.35524 47.4516 8.30173C46.9401 8.08885 46.5508 7.67456 46.3846 7.16641C46.1425 6.13877 46.1774 5.06936 46.4862 4.05811C47.2121 0.742135 48.9032 -0.0262862 51.2767 0.638294C53.2655 1.23365 55.1453 2.41743 53.5413 5.59495Z" fill="#FFD9AB"/>
<path opacity="0.1" d="M48.6858 8.60738C48.4011 8.58377 48.1192 8.5351 47.8439 8.462C47.1595 8.31359 46.6078 7.83215 46.3922 7.19514C47.0524 7.1931 47.628 6.76642 47.7931 6.15674L48.6858 8.60738Z" fill="#1D1D1B"/>
<path d="M52.2784 10.8916L47.2556 9.56248L47.4516 8.33716L47.7928 6.13574L50.9719 6.89724L52.4018 7.24338L52.3509 8.91175L52.2784 10.8916Z" fill="#FFD9AB"/>
<path d="M51.2113 0.147591C49.9049 -0.219313 47.9524 0.0575956 47.6475 1.43521C47.6475 2.12749 48.4387 1.67751 48.4387 3.08282C48.4387 4.08661 48.0613 4.68197 48.0613 5.8519C48.25 7.65873 51.988 7.9841 52.4162 7.23645C52.438 7.20875 57.3663 1.87827 51.2113 0.147591Z" fill="#3C3C3B"/>
<path d="M48.9904 4.07966C48.9033 4.66809 48.5332 5.4642 48.2138 5.39497C47.8944 5.32575 47.7057 4.84116 47.7928 4.25965C47.8799 3.67814 48.2065 3.23509 48.5186 3.27662C48.8307 3.31816 49.0558 3.47046 48.9904 4.07966Z" fill="#FFD9AB"/>
<path opacity="0.1" d="M53.2586 6.15598C53.0266 6.55846 52.7412 6.93074 52.4094 7.26362L52.344 9.17428C52.2497 8.56509 50.5222 8.21203 49.2665 7.27054C52.0682 7.0144 53.0699 5.9483 53.9263 4.93066C53.832 5.08296 53.3457 5.9483 53.2586 6.15598Z" fill="#1D1D1B"/>
<path d="M43.9677 10.961C40.2587 11.9578 34.2779 12.4355 31.3093 11.134C28.1222 10.8567 25.1281 9.5558 22.8171 7.44422L23.7679 5.81738C27.2156 6.1566 30.1189 6.81425 31.9843 7.99111C33.7335 7.00809 37.5586 6.97348 39.1409 8.10188C40.0264 6.85579 42.6322 6.71733 44.2725 7.44422L43.9677 10.961Z" fill="#FFD9AB"/>
<path d="M25.3578 6.00397C24.9803 7.03545 24.6755 7.67926 24.2981 8.71767C22.048 7.16006 19.8488 8.26769 18.2084 5.81706C18.564 6.3501 19.0721 7.31928 18.7382 7.89387C18.4515 8.29424 17.9239 8.46853 17.439 8.32308C16.9208 8.20477 16.4631 7.9154 16.147 7.5062C15.6714 6.71074 15.6389 5.74248 16.0601 4.9196C16.4813 4.09673 17.3018 3.52567 18.2519 3.39411C19.4931 3.20027 20.7343 3.80255 22.0698 4.77865C22.5353 5.14001 23.0634 5.42113 23.6303 5.60937C24.0884 5.75533 24.5564 5.87099 25.0312 5.95551L25.3578 6.00397Z" fill="#3C3C3B"/>
<path d="M25.0383 5.9421L24.2762 8.01891L22.8245 7.50663L23.6447 5.5752C24.0999 5.72788 24.5655 5.85047 25.0383 5.9421Z" fill="#EDEDED"/>
<path opacity="0.1" d="M17.9975 4.45312C17.7217 5.75459 17.2136 7.28451 15.8636 6.71685C15.9191 6.98014 16.0144 7.23432 16.1467 7.47143C16.4627 7.88063 16.9204 8.17 17.4386 8.28831C17.9236 8.43376 18.4512 8.25946 18.7379 7.8591C19.0717 7.3122 18.5637 6.34302 18.208 5.78229C19.8484 8.23292 22.0476 7.12529 24.2977 8.6829V8.59291C26.3435 10.0125 28.7535 10.8784 31.2729 11.0989C34.2415 12.3935 40.2223 11.9158 43.9313 10.9259L42.1167 8.47522C39.4675 10.8566 33.7479 12.6288 31.4688 10.0536C27.1139 10.4136 21.7065 6.91761 17.9975 4.45312Z" fill="#1D1D1B"/>
<path d="M52.62 22.4394C53.9773 22.1902 54.8483 21.4356 55.1096 19.5111L55.9152 13.2807L46.9948 12.6646L50.4425 20.7503C51.4804 22.4394 52.62 22.4394 52.62 22.4394Z" fill="#F5CD9D"/>
<path d="M53.5416 10.4209C53.4525 10.2519 53.3726 10.0786 53.3021 9.90174C51.3575 8.251 48.8195 7.38046 46.218 7.47187C44.7664 7.47187 44.2656 7.47187 44.2656 7.47187C43.2857 7.47187 41.0574 8.03261 40.6364 8.89102C38.9162 12.8024 39.555 16.5406 36.2307 18.1259L44.6357 24.6471C49.1359 22.8818 52.9102 19.372 55.6901 14.4015C57.0401 11.9232 53.5416 10.4209 53.5416 10.4209Z" fill="#FFD9AB"/>
<path d="M48.9254 40.126H44.8753C41.6527 38.153 39.3518 34.2209 37.1671 30.0189L44.9044 28.9043C46.3778 31.078 47.5754 35.6332 48.9254 40.126Z" fill="#FFD9AB"/>
<path d="M18.3315 22.4388C15.4282 21.8435 12.191 19.1159 7.57474 16.1738L9.06994 14.4639C13.737 15.0315 18.1282 16.4368 19.9573 19.4136L18.3315 22.4388Z" fill="#FFD9AB"/>
<path d="M30.8447 25.0214C26.4921 25.7344 22.0191 24.8087 18.3678 22.4393L19.9573 19.4071C23.7067 18.8557 27.5154 18.772 31.2875 19.1579L30.8447 25.0214Z" fill="#FFD9AB"/>
<path d="M42.5743 51.7487L45.1147 52.0533C46.922 46.9928 48.5696 42.3615 48.9253 40.1324L45.2308 39.3848C41.5799 42.8461 44.2364 45.1791 42.5743 51.7487Z" fill="#FFD9AB"/>
<path d="M41.5363 54.6853C41.3694 55.3361 41.1299 56.1391 42.8791 55.9799C46.1381 55.6822 46.7042 55.9799 50.3043 55.9799C50.3852 55.9799 50.4627 55.9492 50.5199 55.8947C50.577 55.8402 50.6092 55.7662 50.6092 55.6891C50.6091 55.5231 50.4982 55.3756 50.3333 55.3222L46.5663 53.7438C44.9913 53.2869 45.7534 50.8017 45.7534 50.8017L42.9009 50.2617C42.9009 50.2617 42.2694 52.7816 41.8049 54.1384C41.7323 54.3115 41.5871 54.4707 41.5363 54.6853Z" fill="#3C3C3B"/>
<path d="M0.207802 14.6365C0.561261 15.2534 1.20397 15.6706 1.93527 15.758C2.66109 15.8549 4.32324 15.585 5.22326 15.8342C6.12329 16.0834 6.72572 16.0072 7.59671 16.5264C8.4677 17.0456 8.80158 17.2187 9.95565 17.8625C10.6307 17.7518 11.1025 16.9626 11.342 16.3534C11.5736 15.7984 11.6919 15.2062 11.6904 14.6089C9.62903 13.9858 7.48058 13.1828 5.41923 12.532C4.71709 12.2883 3.98547 12.1301 3.24176 12.0613C2.4829 11.9975 1.7272 12.213 1.1296 12.6636C0.541682 13.1689 -0.104304 13.9789 0.207802 14.6365Z" fill="#3C3C3B"/>
<path d="M6.02157 12.9406C5.42656 12.676 4.81582 12.4448 4.19249 12.2483C3.54652 12.0367 2.86405 11.9451 2.18195 11.9783C1.49407 12.0157 0.850741 12.315 0.396417 12.8091C-0.052221 13.3215 -0.127044 14.0434 0.207702 14.6297C0.484138 15.0153 0.90489 15.2853 1.38354 15.3843C2.03104 15.3747 2.67571 15.3005 3.30698 15.1628C4.70782 15.1143 4.80944 15.4743 5.48446 15.4674C6.00225 15.5561 6.52986 15.3707 6.86353 14.9828C7.07267 14.6104 7.09978 14.1692 6.93768 13.776C6.77559 13.3828 6.44065 13.0774 6.02157 12.9406Z" fill="#1D1D1B"/>
<path d="M53.3021 9.90141C51.8504 11.3344 46.2543 9.82526 46.218 7.47154C45.7508 7.41053 45.2771 7.41053 44.8099 7.47154C44.4398 9.84603 41.7687 11.5144 39.4388 12.8297C38.8727 15.1696 38.3864 17.1356 36.2307 18.1533L44.6357 24.6468C46.8132 23.7814 50.1157 22.0854 51.8432 19.697C51.0085 15.675 53.5779 14.4566 54.0207 10.6421C53.806 10.3743 53.5655 10.1263 53.3021 9.90141Z" fill="#E94E1B"/>
<path d="M47.0165 32.8507C43.8809 34.4152 41.5292 34.699 37.5807 33.6537L35.0839 27.5409L27.724 25.7757C26.6425 23.4081 27.3393 20.9298 28.5152 18.756L35.142 18.4376L36.2162 18.1191C37.2003 18.5974 38.1507 19.1362 39.0614 19.7321C39.7739 20.1924 40.4596 20.6892 41.1155 21.2205C41.5994 21.6036 42.0567 22.0005 42.4873 22.4112C43.2505 23.1142 43.968 23.8609 44.6358 24.6473L44.7446 26.3849L47.0165 32.8507Z" fill="#1D71B8"/>
<path opacity="0.1" d="M42.7919 55.0787C43.4306 50.2328 44.4903 43.3101 46.7622 40.1256C46.7622 36.4912 36.753 30.2192 42.7919 26.2802C39.6128 26.8894 35.1635 26.8894 33.8933 23.5526C33.8933 24.7641 28.9141 24.3626 27.2012 23.5526C27.2012 23.5526 20.8865 22.4935 19.5872 21.1297C15.5008 21.3304 11.008 16.8861 7.19013 15.6746C4.94007 15.0308 2.69726 15.4461 0.556076 15.1069C0.931802 15.459 1.41437 15.6892 1.93515 15.7646C2.66097 15.8615 4.32311 15.5915 5.22314 15.8407C6.12316 16.09 6.7256 16.0138 7.59659 16.533C8.46758 17.0522 8.80146 17.2253 9.95552 17.8691L10.0789 17.8345C13.4032 20.0913 15.9508 21.9881 18.3243 22.445C20.9841 24.1399 24.0845 25.0984 27.281 25.2141L27.5786 25.1795C27.6512 25.4702 27.7092 25.7056 27.731 25.7541L35.0909 27.5194L37.5805 33.6321C38.2264 33.8052 38.8289 33.9367 39.4023 34.0336C40.9193 36.505 42.5887 38.6234 44.6355 39.9525C42.0951 42.8185 43.779 45.1238 42.8717 50.2328C42.8209 50.4266 42.2258 52.7872 41.7757 54.0887C41.7104 54.2826 41.5653 54.4418 41.5144 54.6564C41.3475 55.3071 41.108 56.1101 42.8572 55.9509H43.0387C42.8182 55.7128 42.7269 55.3902 42.7919 55.0787Z" fill="#1D1D1B"/>
<path opacity="0.1" d="M44.7155 26.3849L44.6356 24.6473C43.6014 23.4022 42.4391 22.2588 41.1662 21.2344L40.8033 20.9575C42.5162 23.8789 43.7574 27.0703 45.884 29.6317L44.7155 26.3849Z" fill="#1D1D1B"/>
<path opacity="0.1" d="M49.7816 19.6141C47.9154 20.4525 45.9166 20.9905 43.8661 21.2063C46.457 18.604 48.0129 15.2198 48.2646 11.6392C47.0507 15.7863 43.4854 18.9241 39.0539 19.7457C39.7664 20.2059 40.4521 20.7028 41.108 21.234C41.3911 21.4625 41.6596 21.6909 41.9354 21.9263L42.1822 22.1478C43.0405 22.9244 43.8409 23.7571 44.5774 24.64C46.7549 23.7747 50.0502 22.0786 51.7849 19.6903C53.2882 18.0808 54.5801 16.3023 55.6318 14.3944C55.73 14.2159 55.8079 14.028 55.864 13.8337C54.317 16.1714 52.2382 18.147 49.7816 19.6141Z" fill="#1D1D1B"/>
</svg>
