<svg width="56" height="56" viewBox="0 0 56 56" fill="none" xmlns="http://www.w3.org/2000/svg">
<g clip-path="url(#clip0)">
<path fill-rule="evenodd" clip-rule="evenodd" d="M12.1871 33.8644L13.0474 35.9495L13.6926 35.2305L13.9793 36.0933L13.4058 36.7404L14.1227 38.3941L14.5528 37.3156L15.6282 39.185L15.198 40.7667L15.9866 42.5642L16.4884 41.27L17.277 42.1328L16.8469 44.6493L17.8505 46.8782L17.6354 47.8848L17.4204 48.0286H17.277L11.6136 34.5115L11.8287 33.7925L12.1871 33.8644Z" fill="#666666"/>
<path fill-rule="evenodd" clip-rule="evenodd" d="M11.3268 35.4462L16.4884 47.2377C16.7035 47.6691 17.0619 47.8848 17.277 47.9567L11.5419 34.6553C11.3985 34.871 11.1834 35.1586 11.3268 35.4462Z" fill="white"/>
<path fill-rule="evenodd" clip-rule="evenodd" d="M11.8286 33.7925L12.7606 36.0214L13.4058 35.3024L13.7642 36.1652L13.119 36.8123L13.8359 38.466L14.3377 37.3875L15.413 39.2568L14.9112 40.8386L15.6998 42.6361L16.2016 41.3419L16.9902 42.2047L16.6318 44.7212L17.6354 46.9501L17.492 47.8848L17.2769 48.0286L11.3985 34.5834L11.8286 33.7925Z" fill="#B2B2B2"/>
<path fill-rule="evenodd" clip-rule="evenodd" d="M14.9113 33.8641C14.5528 33.936 13.9076 33.7203 13.1191 35.0145C12.8323 35.5178 13.0474 36.4525 13.836 37.3872C14.6245 38.3219 14.4095 39.5442 15.198 41.2698C15.5565 42.1326 17.9939 44.2896 18.9259 43.6425C19.356 43.3549 19.7144 42.9235 19.356 41.7012C18.7825 39.4723 17.8505 38.0343 18.3523 36.5963C18.4957 36.0211 21.1482 35.374 21.7934 35.0145C20.9331 35.1583 19.4994 34.655 19.356 32.8575C19.4994 32.2105 18.6391 33.6484 18.6391 32.2104C17.7788 33.1451 16.7752 33.5765 14.9113 33.8641Z" fill="#431E44"/>
<path fill-rule="evenodd" clip-rule="evenodd" d="M14.6244 39.1846C14.9112 39.1846 15.2696 39.1846 15.4847 39.4003C16.4883 41.1259 17.2769 41.9887 18.639 42.4201C19.0691 42.5639 19.3559 42.3482 19.571 42.1325C19.7143 43.0671 19.4276 43.3547 18.9975 43.6423C18.0655 44.2894 15.6281 42.1325 15.2696 41.2697C14.9112 40.4788 14.7678 39.7598 14.6244 39.1846Z" fill="#351536"/>
<path fill-rule="evenodd" clip-rule="evenodd" d="M0.286755 45.7998L2.15066 47.0221L2.29404 46.0155L3.01092 46.5907L2.86754 47.4535L4.373 48.3882L4.22963 47.3097L6.09353 48.2444L6.59535 49.8262L8.31588 50.9047L7.95744 49.5386L9.10445 49.8262L10.1798 52.0551L12.2588 53.4212L12.6172 54.2839L12.4738 54.5715L12.4021 54.6434L0.215066 46.5907L0 45.8717L0.286755 45.7998Z" fill="#666666"/>
<path fill-rule="evenodd" clip-rule="evenodd" d="M0.430124 47.5251L11.3268 54.4275C11.7569 54.7151 12.1871 54.6432 12.4021 54.5713L0.215058 46.8062C0.215058 47.0219 0.143369 47.3813 0.430124 47.5251Z" fill="white"/>
<path fill-rule="evenodd" clip-rule="evenodd" d="M0 45.8716L2.00728 47.1658L2.07897 46.2311L2.86754 46.7344L2.72417 47.6691L4.22963 48.6038L4.01456 47.4534L5.95016 48.3881L6.45198 49.9699L8.10081 51.0483L7.81406 49.6823L8.96108 49.9699L10.0364 52.2706L12.1154 53.5648L12.4738 54.4276L12.4021 54.6433L0 46.8063V45.8716Z" fill="#B2B2B2"/>
<path fill-rule="evenodd" clip-rule="evenodd" d="M2.58081 44.2178C2.29406 44.4335 1.64886 44.7211 1.72055 46.1591C1.72055 46.7343 2.43743 47.3814 3.65614 47.669C4.87485 48.0285 5.30498 49.107 6.95382 50.1136C7.74239 50.6169 10.9684 51.0483 11.3985 49.9698C11.6136 49.4665 11.6853 48.9632 10.6816 48.1004C8.9611 46.5905 7.45564 45.8715 7.0255 44.4335C6.81044 43.8583 8.67434 41.8451 9.03278 41.198C8.38759 41.7732 6.95382 42.2046 5.8068 40.7666C5.44835 40.2633 5.52004 41.917 4.73147 40.7666C4.58809 41.9889 3.94289 42.9236 2.58081 44.2178Z" fill="#431E44"/>
<path fill-rule="evenodd" clip-rule="evenodd" d="M5.30492 48.7477C5.51998 48.532 5.80674 48.3882 6.09349 48.4601C7.88571 49.3229 9.03272 49.6105 10.3231 49.1791C10.7532 49.0353 10.8966 48.7477 10.9683 48.3882C11.6135 49.0353 11.5418 49.5386 11.3268 49.97C10.8966 51.0485 7.74233 50.6171 6.88207 50.1138C6.23687 49.6824 5.73505 49.1791 5.30492 48.7477Z" fill="#351536"/>
<path fill-rule="evenodd" clip-rule="evenodd" d="M25.5928 29.119C26.7398 29.119 28.8905 28.8314 30.1809 28.6157C31.1128 28.4719 35.4142 30.6289 31.6863 32.1388C27.8152 33.433 19.6427 35.8776 18.424 37.8908C16.0582 37.3156 15.8432 34.5115 16.345 33.1454C20.2879 31.6355 21.7933 28.9752 25.5928 29.119Z" fill="#313294"/>
<path fill-rule="evenodd" clip-rule="evenodd" d="M34.1237 28.328C31.3279 22.9356 25.0193 15.7456 22.0801 14.5952C20.2161 15.5299 18.0655 17.1117 16.2016 18.0464C16.2016 20.2753 16.345 23.9422 19.2125 23.8703C23.012 28.6875 28.0302 28.9032 29.3206 30.8445C31.5429 33.2172 35.2708 31.204 34.1237 28.328Z" fill="#313294"/>
<path fill-rule="evenodd" clip-rule="evenodd" d="M7.74234 35.2302C8.74598 34.655 10.6816 33.0733 11.6852 32.2824C12.4738 31.7072 17.5637 31.7072 14.9829 34.655C13.5491 36.093 11.5418 39.1128 10.6099 40.1194C9.03274 41.845 6.81039 44.721 7.74234 45.8714C5.73506 47.1656 2.79583 45.6557 2.58076 44.2177C5.44831 40.2632 5.37662 36.5244 7.74234 35.2302Z" fill="#4D4EAF"/>
<path fill-rule="evenodd" clip-rule="evenodd" d="M15.7715 34.1514C18.424 31.4911 21.6499 26.602 23.3705 22.9351C25.4494 23.007 25.6645 20.0591 25.4494 18.1897C24.159 17.3988 21.1481 16.8236 19.2125 13.4443C17.6354 14.1633 15.4847 15.7451 15.4847 18.9806C11.2551 24.8764 12.9756 30.5564 11.3985 32.4977C10.3948 34.0795 13.4058 36.0927 15.7715 34.1514Z" fill="#4D4EAF"/>
<path fill-rule="evenodd" clip-rule="evenodd" d="M41.2926 34.5118C44.8771 33.9367 48.6049 30.845 49.6802 30.2698C50.4688 29.6946 49.2501 27.8971 48.2464 28.4004C46.5976 29.2632 45.4506 29.8384 41.7945 30.2698C41.0059 30.3417 38.3534 30.7012 38.5685 31.9954C38.7118 33.3615 39.357 34.7994 41.2926 34.5118Z" fill="#0089C4"/>
<path fill-rule="evenodd" clip-rule="evenodd" d="M36.3461 22.5764C35.7009 25.1648 38.2817 32.0671 38.7835 32.5704C38.7835 33.1456 42.583 32.139 42.2246 30.8448C41.6511 27.0342 44.7337 14.3079 37.9233 17.5434C36.5612 18.1905 34.984 18.0467 36.3461 22.5764Z" fill="#0089C4"/>
<path fill-rule="evenodd" clip-rule="evenodd" d="M36.131 10.2093C31.3996 8.84316 20.2878 13.0852 19.2125 13.3728C16.7751 15.2422 20.8614 20.2033 24.4458 21.0661C25.8796 20.9223 30.1809 21.7132 31.543 22.2165C34.6973 23.4388 38.8552 22.9355 41.1492 22.2165C43.4433 21.4975 44.0168 19.1248 41.2926 16.1769C40.7191 15.6736 38.7118 11.5034 36.131 10.2093Z" fill="#4D4EAF"/>
<path fill-rule="evenodd" clip-rule="evenodd" d="M12.904 4.96056C12.4021 4.88866 12.1154 5.32006 11.7569 5.67956C11.3268 6.11096 10.2515 5.89526 9.74966 6.61425C9.4629 6.97375 10.1081 7.04565 10.7533 6.90185C11.3985 6.75805 11.9003 6.97375 12.4021 6.75805C12.6889 6.68615 13.6925 6.25476 13.6925 5.82336C13.6925 5.03246 13.3341 5.10436 12.904 4.96056Z" fill="#313294"/>
<path fill-rule="evenodd" clip-rule="evenodd" d="M15.1979 2.65986C16.0582 2.87556 16.6317 5.60774 15.3413 5.60774C14.4094 5.60774 13.1907 6.54244 12.6172 6.54244C12.3304 6.54244 11.8286 6.25484 11.4701 6.25484C11.04 6.25484 10.8966 6.18294 10.6099 5.96724C10.3231 5.75154 9.46285 5.24824 9.24779 5.03254C8.81765 4.60115 7.81401 3.95405 7.95739 3.73835C8.02908 3.66645 8.17246 3.45075 8.31583 3.45075C8.17246 3.30695 7.8857 3.16316 8.02908 2.94746C8.31583 2.65986 8.74597 2.87556 8.74597 2.87556L8.60259 2.73176C8.5309 2.37226 9.24779 2.37226 9.46285 2.51606C9.67792 2.58796 10.3231 2.94746 10.5382 3.09126C11.04 3.30695 12.2587 3.73835 11.04 3.16316C10.5382 2.94746 9.89298 2.44416 10.1797 2.30036C10.6816 2.01276 11.04 2.44416 11.5418 2.65986C12.0436 2.65986 12.7605 2.73176 13.334 2.58796C13.6925 2.51606 14.266 2.73176 14.4094 2.73176C14.8395 2.58796 14.6244 2.44416 15.1979 2.65986Z" fill="#4D4EAF"/>
<path fill-rule="evenodd" clip-rule="evenodd" d="M24.3025 2.44441C20.8614 1.29402 16.2733 2.73201 15.1263 2.80391C14.1944 2.94771 14.4094 5.3923 15.5565 5.3923C17.4204 5.3923 18.9975 5.1766 22.5102 6.47079C23.2988 6.75839 25.6645 7.33358 26.023 6.11129C26.4531 4.7452 26.7399 3.23531 24.3025 2.44441Z" fill="#2AD4FF"/>
<path fill-rule="evenodd" clip-rule="evenodd" d="M25.1627 2.80404C24.7326 2.44454 22.6536 6.11142 23.8723 6.75851C29.2489 9.7064 34.3388 17.6154 36.6329 12.7262C38.4251 8.9155 29.0339 4.31393 25.1627 2.80404Z" fill="#2AD4FF"/>
<path fill-rule="evenodd" clip-rule="evenodd" d="M37.8516 14.739C34.8406 15.8894 37.2781 20.9224 41.0059 19.5563C41.2209 19.5563 41.0059 13.5167 37.8516 14.739Z" fill="#00CCFF"/>
<path fill-rule="evenodd" clip-rule="evenodd" d="M42.6548 12.7261C42.6548 12.7261 41.3644 13.8765 38.6402 14.7393C35.5576 15.674 37.7799 20.0598 41.7228 18.8375C42.7265 18.5499 43.5867 17.8309 45.4506 15.9616C46.3109 15.5302 42.6548 12.7261 42.6548 12.7261Z" fill="#DB9669"/>
<path fill-rule="evenodd" clip-rule="evenodd" d="M47.5295 13.0854C47.3145 13.7325 47.3862 14.4515 47.3145 15.0986C47.3862 15.8894 46.3825 15.8894 46.741 17.1117C46.5976 17.9026 46.0958 19.053 45.6656 19.7001C45.3789 20.2034 45.0921 20.9943 44.0885 21.2819C42.583 21.7852 41.5794 20.1315 40.3607 19.2687C39.2137 18.4778 40.2173 16.9679 40.1456 15.8175C40.0022 13.6606 40.7908 11.0722 43.1565 10.8565C44.2319 10.7846 45.809 11.0003 46.6693 11.6474C47.0994 11.935 47.8163 12.4383 47.5295 13.0854Z" fill="#F2B387"/>
<path fill-rule="evenodd" clip-rule="evenodd" d="M49.5368 30.7736C48.6048 30.9174 47.0994 28.6166 48.2464 28.1133C49.1067 27.7538 49.8236 26.3877 50.3971 26.2439C50.6838 26.1001 51.2573 26.2439 51.5441 26.1001C51.9025 25.9563 52.1176 25.9563 52.476 26.0282C52.8345 26.1001 53.7664 26.2439 54.1249 26.3158C54.6267 26.5315 55.8454 26.7472 55.7737 27.0348C55.7737 27.1786 55.6303 27.3943 55.5586 27.3943C55.7737 27.4662 56.0605 27.4662 55.9888 27.7538C55.8454 28.1852 55.3436 28.1133 55.3436 28.1133L55.5586 28.1852C55.7737 28.5447 55.1285 28.6885 54.9134 28.7604C54.6984 28.7604 53.9815 28.6885 53.7664 28.6885C53.1929 28.6885 51.9742 28.7604 53.2646 28.8323C53.8381 28.8323 54.6267 29.048 54.4116 29.2637C54.0532 29.6951 53.5514 29.4794 52.9779 29.4794C52.476 29.4794 51.7591 29.767 51.329 30.0546C51.0423 30.2703 50.3971 30.2703 50.2537 30.4141C49.8236 30.7017 50.1103 30.7017 49.5368 30.7736Z" fill="#313294"/>
<path fill-rule="evenodd" clip-rule="evenodd" d="M50.7555 27.7534C51.2573 27.6096 51.329 27.1063 51.5441 26.6749C51.7591 26.0997 52.8345 25.884 53.0495 25.0212C53.1929 24.5898 52.5477 24.7336 52.0459 25.165C51.5441 25.5964 50.9705 25.5964 50.6121 25.884C50.397 26.0997 49.6085 26.8906 49.7518 27.2501C50.0386 28.041 50.3253 27.8253 50.7555 27.7534Z" fill="#4D4EAF"/>
<path fill-rule="evenodd" clip-rule="evenodd" d="M45.5939 12.2229C45.4506 12.7262 45.7373 12.5105 45.3789 12.6543C44.3035 12.5824 44.0168 12.3667 42.6547 12.7981C41.6511 13.1576 42.7264 13.8766 42.2246 14.5237C42.0095 14.7394 41.3643 15.5303 41.436 15.8898L40.7908 15.8179C40.0022 14.5956 39.5004 15.027 39.2136 16.7526C39.2136 16.7526 38.21 16.0336 37.9949 14.8832C37.7799 13.5171 37.8516 12.2948 38.21 11.2882C38.9986 9.77832 40.4324 8.41222 44.0885 9.92211C44.7337 10.1378 45.8807 10.9287 45.5939 12.2229Z" fill="#704321"/>
<path fill-rule="evenodd" clip-rule="evenodd" d="M40.0022 14.8107C39.3571 14.8826 39.2854 15.4578 39.3571 16.1049C39.4287 16.752 40.0022 17.6866 40.3607 17.399C40.7908 17.0395 40.5758 16.8957 40.7191 16.3206C40.7908 16.033 40.7908 15.7454 40.7908 15.5297C40.7908 15.1702 40.5758 14.7388 40.0022 14.8107Z" fill="#F1B287"/>
<path fill-rule="evenodd" clip-rule="evenodd" d="M47.8164 15.0985C48.6049 12.582 48.1031 10.0655 44.447 8.77129C41.7945 7.9085 39.2854 8.4837 38.2818 10.7126C37.995 11.2878 37.9233 12.2944 37.6366 13.301C38.6402 14.3076 40.9343 14.8828 41.9379 15.1704C44.8771 15.8894 47.2428 15.8175 47.8164 15.0985Z" fill="#1D1B3A"/>
<path fill-rule="evenodd" clip-rule="evenodd" d="M47.9596 14.5233C48.4615 12.2225 47.8163 9.92169 44.4469 8.77129C41.7944 7.9085 39.2853 8.4837 38.2817 10.7126C38.0666 11.144 37.9232 11.7911 37.7798 12.582C39.5004 14.2357 46.1674 16.0332 47.9596 14.5233Z" fill="#0089C4"/>
<path fill-rule="evenodd" clip-rule="evenodd" d="M47.6729 14.1641C48.0313 12.1509 47.3861 10.1377 44.3752 9.13112C43.0131 8.62782 41.6511 8.62782 40.5757 9.05922C41.3643 9.05922 42.2246 9.13112 43.0848 9.49062C45.809 10.4253 47.3861 12.2228 47.6729 14.1641Z" fill="#2AD4FF"/>
<path fill-rule="evenodd" clip-rule="evenodd" d="M39.7155 17.5435C39.7155 18.3344 40.0022 18.6939 40.2173 19.1252C40.504 19.3409 40.7191 19.5566 41.0059 19.8442C40.6474 19.1971 40.2173 18.7658 40.2173 17.903C40.0022 17.7592 39.8588 17.6154 39.7155 17.5435Z" fill="#1D1B3A"/>
<path d="M39.4288 14.3804C39.2854 15.0994 39.2854 17.2564 40.1456 17.4721C40.7192 17.6878 41.221 15.3151 41.3644 14.8837L41.7945 15.0275C41.436 16.6093 40.8625 18.1192 40.0023 17.8316C38.9269 17.4721 38.8553 15.4589 38.9986 14.0928L39.4288 14.3804Z" fill="#1D1B3A"/>
<path fill-rule="evenodd" clip-rule="evenodd" d="M30.396 11.8635C32.69 11.0726 34.8407 10.7131 36.7046 10.8569C36.2744 9.63465 35.1274 8.48426 33.6937 7.40576C31.8298 7.69336 29.6791 8.34046 27.3851 9.27515C28.4604 10.1379 29.464 11.0726 30.396 11.8635Z" fill="#4D4EAF"/>
<path fill-rule="evenodd" clip-rule="evenodd" d="M15.4848 18.9814C15.6281 24.0863 16.2017 28.616 18.0656 31.4201L16.2017 33.7928C14.2661 32.7143 13.1907 29.9821 12.6172 26.3152C12.9757 24.0863 13.6926 21.5698 15.4848 18.9814Z" fill="#0CC9F6"/>
</g>
<defs>
<clipPath id="clip0">
<rect width="56" height="56" fill="white"/>
</clipPath>
</defs>
</svg>
