<svg width="56" height="56" viewBox="0 0 56 56" fill="none" xmlns="http://www.w3.org/2000/svg">
<g clip-path="url(#clip0)">
<path fill-rule="evenodd" clip-rule="evenodd" d="M41.7472 18.4477C42.5353 19.8402 42.9899 21.1115 44.2628 22.0801C44.3537 22.292 45.0811 21.3839 44.869 20.7785C44.4144 20.2337 44.6871 19.2953 43.4142 17.6607C42.8383 15.4207 41.9291 15.6326 41.4442 15.9656C40.9289 16.3288 40.838 16.9948 41.7472 18.4477Z" fill="#FF6600"/>
<path fill-rule="evenodd" clip-rule="evenodd" d="M44.1719 22.1401C45.263 23.1087 47.3239 23.1996 47.8392 23.4417C48.1119 23.4114 48.4756 22.806 48.0513 22.6244C47.3542 22.3217 46.5965 22.019 45.4751 20.9596C45.2327 20.7174 44.4447 20.112 44.081 20.5358C43.7476 20.9293 43.3839 21.4439 44.1719 22.1401Z" fill="#FF6600"/>
<path fill-rule="evenodd" clip-rule="evenodd" d="M48.2635 22.7152C48.5969 22.8363 48.6575 23.5325 48.6272 23.926C48.1726 24.3498 47.1421 24.1681 47.1421 23.9865C47.0512 23.7141 47.1421 23.3811 47.233 23.1995C47.2936 23.0482 47.4755 22.8363 47.627 22.8968C47.7786 22.6849 48.021 22.6244 48.2635 22.7152Z" fill="#413C7A"/>
<path fill-rule="evenodd" clip-rule="evenodd" d="M31.7153 16.4794C31.7153 16.9334 31.5334 17.2664 31.3213 17.2664C31.1091 17.2664 30.9576 16.9032 30.9576 16.4491C30.9576 15.9951 31.1394 15.6621 31.3516 15.6621C31.5637 15.6924 31.7153 16.0556 31.7153 16.4794Z" fill="#4C4C4C"/>
<path fill-rule="evenodd" clip-rule="evenodd" d="M31.5637 16.722L49.3849 24.0776C49.1727 24.1986 49.1424 24.0776 49.1727 24.3197L31.3819 16.9641C31.0788 16.843 31.2606 16.6009 31.5637 16.722Z" fill="#C21B1F"/>
<path fill-rule="evenodd" clip-rule="evenodd" d="M46.5359 22.8367L49.3242 24.0172C49.6273 24.1383 49.3242 24.7437 49.1121 24.5924C48.9302 24.441 48.7787 24.2594 48.5362 24.1686L46.3541 23.2605C46.2328 23.2 46.2025 23.0789 46.2328 22.9881C46.2934 22.8367 46.4147 22.8065 46.5359 22.8367Z" fill="#333333"/>
<path fill-rule="evenodd" clip-rule="evenodd" d="M31.5334 24.0474L29.9574 24.6225V24.8344L53.4764 39.5153C54.1735 39.9391 55.5071 39.6666 55.9617 39.2126C55.992 39.1823 55.992 39.1823 55.992 39.1521V38.9704C55.8708 38.9402 55.5071 39.0007 55.1131 38.7585L31.5334 24.0474Z" fill="#FFCC00"/>
<path fill-rule="evenodd" clip-rule="evenodd" d="M31.5334 23.8354L29.9574 24.6225L53.4764 39.3034C54.1735 39.7272 55.5071 39.4547 55.9617 39.0007C56.1133 38.8493 55.8102 38.9704 55.1434 38.5466L31.5334 23.8354Z" fill="#0089C4"/>
<path fill-rule="evenodd" clip-rule="evenodd" d="M38.6559 28.8604L38.1406 29.0117V29.1025L39.6257 30.0409L40.141 29.7684L38.6559 28.8604Z" fill="#333333"/>
<path fill-rule="evenodd" clip-rule="evenodd" d="M38.6559 28.7393L38.1406 29.0117L39.747 29.7987L40.2622 29.5263L38.6559 28.7393Z" fill="#575756"/>
<path fill-rule="evenodd" clip-rule="evenodd" d="M49.0818 35.6406L53.1734 39.1217L53.4765 39.3033C54.1736 39.7271 55.5071 39.4546 55.9617 39.0006C56.1133 38.8492 55.8102 38.9703 55.1434 38.5465L54.7797 38.3044L49.0818 35.6406Z" fill="#FF6600"/>
<path fill-rule="evenodd" clip-rule="evenodd" d="M39.9893 30.192C40.2015 30.7974 41.1107 30.858 41.6866 29.9196C41.5654 28.164 42.2321 27.5888 42.7171 25.7424C42.9292 24.4105 42.0503 25.3186 41.2017 25.5002C39.565 27.498 40.7167 28.7391 39.9893 30.192Z" fill="#351536"/>
<path fill-rule="evenodd" clip-rule="evenodd" d="M41.5351 25.9545C41.8382 25.9848 42.4746 26.1967 42.7171 25.8334C42.8989 25.4097 42.7777 24.8043 41.8685 24.0778C40.2318 21.8681 38.1103 21.8378 36.9586 21.1416C35.8978 21.6865 35.2613 21.5048 34.5642 21.3232C34.049 22.5643 34.7764 23.7751 35.8978 24.3502C37.4435 25.1675 40.3531 24.8345 41.5351 25.9545Z" fill="#351536"/>
<path fill-rule="evenodd" clip-rule="evenodd" d="M28.0783 25.0161L26.5023 25.5912V25.8031L50.0214 40.484C50.7185 40.9078 52.052 40.6354 52.5066 40.1813C52.5369 40.1511 52.5369 40.1511 52.5369 40.1208V39.9392C52.4157 39.9089 52.052 39.9695 51.658 39.7273L28.0783 25.0161Z" fill="#FFCC00"/>
<path fill-rule="evenodd" clip-rule="evenodd" d="M28.0783 24.8042L26.5023 25.5912L50.0214 40.2721C50.7184 40.6959 52.052 40.4235 52.5066 39.9694C52.6582 39.8181 52.3551 39.9392 51.6883 39.5154L28.0783 24.8042Z" fill="#0089C4"/>
<path fill-rule="evenodd" clip-rule="evenodd" d="M35.7462 29.2838C35.8069 30.0406 35.625 31.0395 37.2313 30.6157C37.2313 29.3746 37.989 28.406 38.4437 27.2557C39.4741 25.6212 38.2921 26.5898 37.4435 26.2266C36.2009 26.8622 36.2312 28.1941 35.7462 29.2838Z" fill="#431E44"/>
<path fill-rule="evenodd" clip-rule="evenodd" d="M45.6267 36.6094L49.7183 40.0904L50.0213 40.272C50.7184 40.6958 52.052 40.4234 52.5066 39.9693C52.6581 39.818 52.3551 39.9391 51.6883 39.5153L51.3246 39.2731L45.6267 36.6094Z" fill="#FF6600"/>
<path fill-rule="evenodd" clip-rule="evenodd" d="M37.2313 26.4085C37.6253 26.8928 38.1406 27.0442 38.5346 26.8626C38.7467 26.7717 38.9892 26.469 38.7164 25.8031C38.2618 23.9264 37.7466 23.5026 36.5646 22.3523C37.0192 22.1405 37.0798 21.6864 35.6856 20.7783C34.5036 20.8388 33.2913 21.0507 32.7154 20.627C32.1093 21.3837 32.0183 22.4129 33.1094 23.3512C34.9885 25.5307 36.3221 25.2583 37.2313 26.4085Z" fill="#431E44"/>
<path fill-rule="evenodd" clip-rule="evenodd" d="M40.5349 14.9667C40.4137 14.9061 39.6257 14.6337 38.7165 14.7548C38.0497 14.8456 37.1404 15.8445 37.0495 15.9959C35.625 17.4791 33.5641 19.7493 32.8064 20.5969C32.4124 22.0801 35.8978 23.2001 37.6557 22.0196C38.6558 21.0509 39.4439 20.5363 40.9593 19.6282C41.9594 19.1439 43.1414 17.6304 43.2627 16.8737C43.293 16.571 43.2627 16.2077 43.0505 16.0564C42.2625 15.451 40.6562 15.0272 40.5349 14.9667Z" fill="#0089C4"/>
<path fill-rule="evenodd" clip-rule="evenodd" d="M36.3827 15.3294C34.9279 15.6018 32.5033 17.1759 32.5033 17.5088C32.5639 17.8418 33.0488 18.4775 33.5338 18.2656C34.9279 17.6904 35.8675 17.7813 37.6557 17.0548C39.5045 16.9942 39.5651 16.0559 39.2014 15.3899C38.9286 14.8451 38.3831 14.3305 36.3827 15.3294Z" fill="#FF6600"/>
<path fill-rule="evenodd" clip-rule="evenodd" d="M32.8367 18.2352C33.9581 19.6881 36.2615 20.7778 36.8373 21.2016C37.0192 21.3832 38.08 20.7476 37.595 20.4146C36.8373 19.8697 36.1706 19.5368 35.1401 17.993C34.9279 17.66 34.0793 16.6309 33.5338 17.0244C32.9882 17.3876 32.079 17.206 32.8367 18.2352Z" fill="#FF6600"/>
<path fill-rule="evenodd" clip-rule="evenodd" d="M40.9896 15.0271C39.9288 15.8747 41.4139 17.7211 42.5959 16.7525C43.5658 15.9352 42.4444 13.8466 40.9896 15.0271Z" fill="#FF6600"/>
<path fill-rule="evenodd" clip-rule="evenodd" d="M42.5353 13.998C42.5353 13.998 42.111 14.3916 41.1714 14.9667C40.1106 15.6629 41.5957 17.3277 42.6565 16.4802C42.9899 16.2078 43.1414 15.6024 43.6567 14.6943C43.8991 14.4521 42.5353 13.998 42.5353 13.998Z" fill="#DB9669"/>
<path fill-rule="evenodd" clip-rule="evenodd" d="M44.7781 13.9371C44.6569 14.1793 44.6569 14.4517 44.5962 14.7241C44.5962 15.0268 44.2022 14.9663 44.2932 15.4809C44.2022 15.7836 43.9295 16.1771 43.7476 16.4192C43.6264 16.6008 43.4748 16.8733 43.0505 16.9338C42.4444 17.0549 42.1413 16.3587 41.717 15.9955C41.323 15.6322 41.7776 15.1176 41.8079 14.6636C41.8382 13.8463 42.2928 12.8776 43.2324 12.9079C43.6567 12.9079 44.2629 13.1198 44.5659 13.3922C44.6872 13.4528 44.8993 13.6949 44.7781 13.9371Z" fill="#F2B387"/>
<path fill-rule="evenodd" clip-rule="evenodd" d="M44.8387 14.9663C45.2933 14.0582 45.2933 13.0593 44.0203 12.3328C43.0808 11.8182 42.1109 11.8788 41.5957 12.6658C41.3532 12.9988 41.1411 13.8161 40.8986 14.3004C40.8683 14.5425 40.8077 14.9058 41.4442 15.269C41.7472 15.4506 42.4746 14.482 42.6262 14.5728C43.6566 15.0874 44.5356 15.2085 44.8387 14.9663Z" fill="#431E44"/>
<path fill-rule="evenodd" clip-rule="evenodd" d="M44.9296 14.7544C45.263 13.9069 45.1721 12.9988 44.0203 12.3328C43.0808 11.8182 42.1109 11.8788 41.5957 12.6658C41.4139 12.9685 41.1108 13.7253 41.0199 14.028C41.0199 14.3004 40.8683 14.6334 41.4442 14.9663C41.7776 15.1479 42.4746 14.2096 42.6565 14.3004C43.687 14.7847 44.5962 14.9361 44.9296 14.7544Z" fill="#FF6600"/>
<path fill-rule="evenodd" clip-rule="evenodd" d="M44.8083 14.6031C45.0811 13.8464 44.9599 13.0593 43.9294 12.4539C43.4445 12.1815 42.9292 12.0907 42.5049 12.1815C42.808 12.2118 43.1111 12.3329 43.4142 12.5145C44.384 13.0291 44.869 13.8464 44.8083 14.6031Z" fill="#FFCC00"/>
<path fill-rule="evenodd" clip-rule="evenodd" d="M41.3229 13.1807C41.4139 13.6044 41.9594 14.2401 42.5656 14.5731C42.4746 14.6034 42.4443 14.8455 42.2625 14.9969C41.6866 14.7244 41.1714 14.0585 41.1108 13.6953C41.1714 13.5136 41.2623 13.332 41.3229 13.1807Z" fill="#3F68BA"/>
<path fill-rule="evenodd" clip-rule="evenodd" d="M42.7474 14.5423C43.5354 14.9056 44.3234 15.0872 44.8993 14.845L44.9599 14.9661C44.869 15.2688 44.5962 15.5715 44.384 15.7229C43.9597 15.9347 44.2628 15.6018 43.8991 15.5412C43.7476 15.511 43.596 15.7531 43.3839 15.7834C43.0808 15.8742 42.5656 15.7531 42.2928 15.2991C42.0503 14.9661 42.2625 14.3304 42.7474 14.5423Z" fill="#333333"/>
<path fill-rule="evenodd" clip-rule="evenodd" d="M42.7777 14.6636C43.5657 15.0268 44.3537 15.2387 44.9296 14.9663C44.869 15.269 44.5356 15.7533 44.2931 15.9047C43.8688 16.1165 44.2628 15.6928 43.9294 15.6322C43.7779 15.602 43.6263 15.8441 43.4142 15.8744C43.1111 15.9652 42.6262 15.8441 42.3231 15.3901C42.1412 15.1176 42.2928 14.4214 42.7777 14.6636Z" fill="#3F68BA"/>
<path fill-rule="evenodd" clip-rule="evenodd" d="M44.869 15.0573C44.7477 15.36 44.5356 15.6021 44.3234 15.7232C43.8991 15.9351 44.2931 15.5113 43.9597 15.4508C43.8082 15.4205 43.6263 15.6929 43.4142 15.7535C43.0202 15.8746 42.2928 15.5113 42.414 15.027C42.4746 14.7243 42.5959 14.7243 42.7777 14.8151C43.6869 15.2389 44.2628 15.3297 44.869 15.0573Z" fill="#D0DAF2"/>
<path fill-rule="evenodd" clip-rule="evenodd" d="M44.1719 15.7535C44.0506 15.7535 44.2628 15.481 43.9597 15.4205C43.8082 15.3902 43.6263 15.6627 43.4142 15.7232C43.0202 15.8443 42.2928 15.481 42.414 14.9967C42.4746 14.694 42.5959 14.694 42.7777 14.7848C43.4142 15.0875 43.8991 15.2389 44.3234 15.2086C44.2931 15.2692 44.2931 15.36 44.3234 15.4508C44.2628 15.5416 44.2325 15.6627 44.1719 15.7535Z" fill="#A3B6E0"/>
<path fill-rule="evenodd" clip-rule="evenodd" d="M43.0808 14.936L42.7474 15.6322C42.6565 15.5717 42.5655 15.5111 42.5049 15.4506L42.808 14.8149C42.8989 14.8755 42.9899 14.9058 43.0808 14.936Z" fill="#E5ECFC"/>
<path fill-rule="evenodd" clip-rule="evenodd" d="M19.4708 21.5044C19.6224 21.9282 19.6224 22.3217 19.4102 22.3823C19.2284 22.4731 18.9253 22.2007 18.7737 21.7769C18.6222 21.3531 18.6222 20.9596 18.8344 20.899C19.0465 20.8385 19.3193 21.1109 19.4708 21.5044Z" fill="#4C4C4C"/>
<path fill-rule="evenodd" clip-rule="evenodd" d="M19.4406 21.7768L38.7468 21.6558C38.5953 21.8374 38.5043 21.7466 38.6256 21.9585L19.3496 22.0795C19.0466 22.0795 19.1375 21.7768 19.4406 21.7768Z" fill="#C21B1F"/>
<path fill-rule="evenodd" clip-rule="evenodd" d="M35.6251 21.6255H38.6559C38.9893 21.6255 38.9589 22.2914 38.6862 22.2309C38.4437 22.1703 38.2619 22.0493 37.9891 22.0493H35.6251C35.5038 22.0493 35.4129 21.9585 35.4129 21.8374C35.4129 21.7163 35.5038 21.6255 35.6251 21.6255Z" fill="#333333"/>
<path fill-rule="evenodd" clip-rule="evenodd" d="M37.8375 20.6875C38.6861 21.4442 38.5952 21.9891 38.5346 22.1707C38.474 22.3826 38.1709 22.4734 37.9284 22.5642C37.7769 22.4432 37.8678 22.2918 38.2012 22.1707C38.2012 21.868 37.5344 21.0205 37.8375 20.6875Z" fill="#413C7A"/>
<path fill-rule="evenodd" clip-rule="evenodd" d="M37.6254 21.656C37.7769 21.6257 37.8981 21.5652 37.8678 21.4744C37.8678 21.4138 37.7163 21.3533 37.5647 21.3835C37.4132 21.4138 37.292 21.4743 37.3223 21.5652C37.3526 21.6257 37.4738 21.6862 37.6254 21.656Z" fill="#CF8453"/>
<path fill-rule="evenodd" clip-rule="evenodd" d="M36.6555 21.1113C36.6252 20.748 37.1101 20.7783 37.4132 20.8691C37.6254 20.9297 37.9587 21.4745 38.1103 21.7772C38.2012 21.9588 38.2315 22.0497 38.3224 22.1102C38.4437 22.2313 38.2315 22.3524 37.9891 22.3221C37.8678 22.3826 37.7466 22.3826 37.6557 22.3221C37.5344 22.3826 37.4435 22.4129 37.2617 22.3524C37.1707 22.3826 37.0192 22.4129 36.9586 22.3524C36.8677 22.2918 36.7767 22.2313 36.7464 22.201C36.5646 22.0194 36.6252 21.8075 36.6252 21.6864C36.5949 21.3534 36.6555 21.1718 36.6555 21.1113Z" fill="#413C7A"/>
<path fill-rule="evenodd" clip-rule="evenodd" d="M36.6252 21.6862C36.5343 21.2624 36.5646 20.99 36.7767 20.7478C36.9586 20.5056 37.5648 20.3543 37.7466 20.6267C37.8981 20.8689 38.08 21.1413 38.3528 21.5348C38.1406 21.5348 38.08 21.6862 38.1103 21.8072C38.1709 21.8678 37.9588 22.0494 37.7466 21.9283C37.6557 22.0191 37.5344 22.0191 37.3223 21.8981C37.2011 21.9889 37.1404 21.9586 36.9586 21.9283C36.8677 21.9283 36.7161 21.8375 36.6252 21.6862Z" fill="#4F498F"/>
<path fill-rule="evenodd" clip-rule="evenodd" d="M48.7181 23.2297C48.7484 23.3811 48.809 23.7746 48.809 23.9259C48.809 24.1378 48.7484 24.2286 48.7484 24.4405C48.5362 24.4102 48.415 24.2892 48.4453 23.9259C48.415 23.3811 47.7482 23.1086 48.1119 22.7757C48.2635 22.6243 48.5969 22.7151 48.7181 23.2297Z" fill="#4F498F"/>
<path fill-rule="evenodd" clip-rule="evenodd" d="M47.233 23.896L47.1724 23.23C47.1724 23.0181 46.8996 23.0484 46.8996 23.2603V23.896C46.8996 24.1079 47.2633 24.1079 47.233 23.896Z" fill="#4F498F"/>
<path fill-rule="evenodd" clip-rule="evenodd" d="M47.5967 24.1079L47.5058 23.442C47.4755 23.2301 47.233 23.2906 47.233 23.4723L47.2633 24.1079C47.2633 24.3501 47.5967 24.2895 47.5967 24.1079Z" fill="#4F498F"/>
<path fill-rule="evenodd" clip-rule="evenodd" d="M47.9604 24.1379L47.7786 23.5022C47.718 23.3206 47.4755 23.3812 47.5058 23.5628L47.627 24.1984C47.6573 24.4103 47.9907 24.3498 47.9604 24.1379Z" fill="#4F498F"/>
<path fill-rule="evenodd" clip-rule="evenodd" d="M48.2938 24.0774L48.0816 23.4418C48.021 23.2602 47.7786 23.351 47.8392 23.5326L48.021 24.1683C48.021 24.3801 48.3544 24.2591 48.2938 24.0774Z" fill="#4F498F"/>
<path fill-rule="evenodd" clip-rule="evenodd" d="M41.626 29.1626C41.5351 29.5258 41.5957 29.9496 41.9897 30.2523C42.2019 30.4037 42.4444 30.555 42.6565 30.7064C42.9293 30.9183 43.4748 31.0696 43.5051 31.2512C43.6567 32.5226 41.8685 32.0988 41.5048 31.7355C41.4139 31.6447 41.2927 31.5539 41.232 31.4631C40.9896 30.9485 40.5046 30.3734 40.1713 30.7064C39.9894 30.6458 39.6863 30.555 39.5651 30.4339C39.5045 30.3129 39.5045 29.9799 39.4742 29.7983C39.5045 29.7377 39.5954 29.7377 39.6257 29.6772C39.8379 29.3442 39.9591 29.5258 40.3531 29.1929L41.626 29.1626Z" fill="#351536"/>
<path fill-rule="evenodd" clip-rule="evenodd" d="M43.3536 31.1607C43.1414 31.312 42.9596 31.3726 42.5656 31.4331C42.2625 31.4936 41.9594 31.8266 41.626 31.4634C41.3532 31.1001 40.838 30.4947 40.2318 30.3131C39.8985 30.192 39.6257 30.1315 39.5954 29.9801C39.5954 29.8288 39.5651 29.4958 39.5954 29.2537C39.6863 28.7996 39.9288 27.8007 40.0803 27.3164C40.1106 27.2558 40.1106 27.1348 40.3531 27.1045C40.3228 27.165 40.3228 27.2558 40.2925 27.3164C40.5349 27.6494 40.3531 27.9218 40.7471 28.1337C41.0805 28.3456 41.5048 28.3758 41.8079 28.2548C41.8382 28.1942 41.8685 28.0429 41.8988 27.9823C41.8988 27.9823 42.0503 28.0126 42.02 28.1034C41.8988 28.4969 41.5048 29.3747 41.8988 29.8288C42.0503 30.0104 42.4443 30.3434 42.6565 30.4947C42.9899 30.7369 43.4142 30.7066 43.3536 31.1607Z" fill="#FF6600"/>
<path fill-rule="evenodd" clip-rule="evenodd" d="M43.4748 31.7964C43.3839 31.8267 43.2626 31.8267 43.202 31.8569C43.1111 31.8872 42.8686 31.9175 42.7474 31.9175V32.1294C43.1717 32.311 43.9597 32.7953 44.2022 32.6439C44.2325 32.6137 44.2628 32.6137 44.2628 32.5834V32.4623H44.2022C44.0506 32.2807 43.6566 32.0083 43.4748 31.7964Z" fill="#333333"/>
<path fill-rule="evenodd" clip-rule="evenodd" d="M43.4748 31.5845C43.3839 31.7358 42.9899 31.8569 42.7474 31.8872C43.1717 32.0688 43.9597 32.6439 44.2325 32.5228C44.475 32.4018 43.7476 31.8569 43.4748 31.5845Z" fill="#575756"/>
<path fill-rule="evenodd" clip-rule="evenodd" d="M39.6257 29.2234C39.7166 29.4958 39.8379 29.7077 40.1409 29.8288C40.3228 29.9196 40.444 29.8894 40.5349 29.6472C40.8077 28.9813 41.4745 28.9813 41.7473 29.1931C41.7776 28.7996 41.8988 28.5272 41.9594 28.3153C41.6563 28.5877 41.1108 28.5575 40.6865 28.3153C40.2319 28.0429 40.5653 27.7402 40.1106 27.3467C39.9288 27.6796 39.7166 28.6786 39.6257 29.2234Z" fill="#351536"/>
<path fill-rule="evenodd" clip-rule="evenodd" d="M40.2621 29.7685C40.3531 29.7685 40.444 29.6777 40.444 29.5566C40.444 29.4355 40.3834 29.3447 40.2621 29.3447C40.1712 29.3447 40.0803 29.4355 40.0803 29.5566C40.1106 29.6777 40.1712 29.7685 40.2621 29.7685Z" fill="#FF6600"/>
<path fill-rule="evenodd" clip-rule="evenodd" d="M41.9291 28.4365C41.7472 28.6484 40.9895 28.7997 40.2925 28.1943C40.2015 28.2246 40.05 28.5273 40.2318 28.6484C40.6562 28.9814 41.5957 29.1327 41.8382 28.8603C41.8685 28.7997 42.02 28.4062 41.9291 28.4365Z" fill="#C21B1F"/>
<path fill-rule="evenodd" clip-rule="evenodd" d="M41.7775 28.8906C41.626 29.1025 40.8683 29.2236 40.2015 28.6484C40.1106 28.6787 39.959 28.9511 40.1409 29.0722C40.5652 29.4052 41.4441 29.5263 41.6866 29.2841C41.7472 29.2236 41.8685 28.8603 41.7775 28.8906Z" fill="#C21B1F"/>
<path fill-rule="evenodd" clip-rule="evenodd" d="M40.9896 30.3135C41.1714 30.1319 41.323 29.8897 41.9594 29.9503C41.9897 29.8897 41.9291 29.6173 41.7473 29.6173C41.323 29.587 40.7774 29.8292 40.7168 30.1016C40.7168 30.1622 40.9593 30.3741 40.9896 30.3135Z" fill="#C21B1F"/>
<path fill-rule="evenodd" clip-rule="evenodd" d="M41.3229 30.7371C41.5048 30.5555 41.6563 30.3133 42.2928 30.2831C42.3231 30.2225 42.2625 29.9501 42.0806 29.9804C41.6563 29.9804 41.1108 30.2528 41.0502 30.5252C41.0502 30.616 41.2926 30.7977 41.3229 30.7371Z" fill="#C21B1F"/>
<path fill-rule="evenodd" clip-rule="evenodd" d="M34.5643 29.375L34.0187 29.5566V29.6474L35.5038 30.5555L36.019 30.3134L34.5643 29.375Z" fill="#333333"/>
<path fill-rule="evenodd" clip-rule="evenodd" d="M34.5643 29.2837L34.0187 29.5561L35.625 30.3431L36.1706 30.0707L34.5643 29.2837Z" fill="#575756"/>
<path fill-rule="evenodd" clip-rule="evenodd" d="M37.5041 29.6777C37.4132 30.041 37.4738 30.4648 37.8678 30.7675C38.08 30.9188 38.3225 31.0702 38.5346 31.2215C38.8074 31.4334 39.3529 31.5847 39.3832 31.7664C39.5348 33.0377 37.7466 32.6139 37.3829 32.2507C37.292 32.1599 37.1707 32.0691 37.1101 31.9783C36.8677 31.4637 36.3827 30.8885 36.0494 31.2215C35.8675 31.161 35.5644 31.0702 35.4432 30.9491C35.3826 30.828 35.3826 30.495 35.3523 30.3134C35.3826 30.2529 35.4735 30.2529 35.5038 30.1923C35.716 29.8594 35.8372 30.041 36.2312 29.708L37.5041 29.6777Z" fill="#351536"/>
<path fill-rule="evenodd" clip-rule="evenodd" d="M39.262 31.7056C39.0498 31.8569 38.868 31.9175 38.474 31.978C38.1709 32.0386 37.8678 32.3715 37.5344 32.0083C37.2617 31.645 36.7464 31.0396 36.1403 30.858C35.8069 30.7369 35.5341 30.6764 35.5038 30.5251C35.5038 30.3737 35.4735 30.0407 35.5038 29.7986C35.5947 29.3445 35.8372 28.3456 35.9887 27.8613C36.019 27.8008 36.019 27.6797 36.2615 27.6494C36.2312 27.71 36.2312 27.8008 36.2009 27.8613C36.4433 28.1943 36.2615 28.4667 36.6555 28.6786C36.9889 28.8905 37.4132 28.9208 37.7163 28.7997C37.7466 28.7391 37.7769 28.5878 37.8072 28.5272C37.8072 28.5272 37.9588 28.5575 37.9284 28.6483C37.8072 29.0418 37.4132 29.9197 37.8072 30.3737C37.9588 30.5553 38.3528 30.8883 38.5649 31.0396C38.868 31.2818 39.2923 31.2515 39.262 31.7056Z" fill="#FF6600"/>
<path fill-rule="evenodd" clip-rule="evenodd" d="M39.3832 32.3413C39.2923 32.3716 39.171 32.3716 39.1104 32.4018C39.0195 32.4321 38.777 32.4624 38.6558 32.4624V32.6743C39.0801 32.8559 39.8681 33.3402 40.1106 33.1889C40.1409 33.1586 40.1712 33.1586 40.1712 33.1283V33.0072H40.1106C39.9591 32.7954 39.565 32.5229 39.3832 32.3413Z" fill="#333333"/>
<path fill-rule="evenodd" clip-rule="evenodd" d="M39.3529 32.1294C39.262 32.2807 38.868 32.4018 38.6255 32.4321C39.0498 32.6137 39.8379 33.1888 40.1106 33.0678C40.3834 32.9164 39.6257 32.3716 39.3529 32.1294Z" fill="#575756"/>
<path fill-rule="evenodd" clip-rule="evenodd" d="M35.5038 29.7381C35.5947 30.0105 35.7159 30.2224 36.019 30.3435C36.2009 30.4343 36.3221 30.404 36.413 30.1618C36.6858 29.4959 37.3526 29.4959 37.6253 29.7078C37.6557 29.3143 37.7769 29.0419 37.8375 28.83C37.5344 29.1024 36.9889 29.0721 36.5646 28.83C36.1099 28.5575 36.4433 28.2548 35.9887 27.8613C35.8372 28.1943 35.625 29.1932 35.5038 29.7381Z" fill="#351536"/>
<path fill-rule="evenodd" clip-rule="evenodd" d="M36.1706 30.2827C36.2615 30.2827 36.3524 30.1919 36.3524 30.0708C36.3524 29.9497 36.2615 29.8589 36.1706 29.8589C36.0796 29.8589 35.9887 29.9497 35.9887 30.0708C35.9887 30.1919 36.0796 30.2827 36.1706 30.2827Z" fill="#FF6600"/>
<path fill-rule="evenodd" clip-rule="evenodd" d="M37.8375 28.9511C37.6557 29.163 36.898 29.3144 36.2009 28.709C36.1099 28.7393 35.9584 29.042 36.1403 29.163C36.5646 29.496 37.5041 29.6474 37.7466 29.3749C37.7769 29.3144 37.8981 28.9209 37.8375 28.9511Z" fill="#C21B1F"/>
<path fill-rule="evenodd" clip-rule="evenodd" d="M37.6859 29.4048C37.5344 29.6166 36.7767 29.7377 36.1099 29.1626C36.019 29.1929 35.8675 29.4653 36.0493 29.5864C36.4736 29.9193 37.3526 30.0404 37.595 29.7983C37.6253 29.768 37.7769 29.3745 37.6859 29.4048Z" fill="#C21B1F"/>
<path fill-rule="evenodd" clip-rule="evenodd" d="M36.8677 30.858C37.0495 30.6763 37.201 30.4342 37.8375 30.4947C37.8678 30.4342 37.8072 30.1617 37.6254 30.1617C37.201 30.1315 36.6555 30.3736 36.5949 30.6461C36.6252 30.7066 36.8373 30.9185 36.8677 30.858Z" fill="#C21B1F"/>
<path fill-rule="evenodd" clip-rule="evenodd" d="M37.2314 31.2518C37.4132 31.0701 37.5647 30.828 38.2012 30.7977C38.2315 30.7372 38.1709 30.4647 37.9891 30.495C37.5648 30.495 37.0192 30.7674 36.9586 31.0399C36.9586 31.1307 37.1707 31.3426 37.2314 31.2518Z" fill="#C21B1F"/>
<path fill-rule="evenodd" clip-rule="evenodd" d="M4.27804 24.3511L2.50977 25.0062V25.2341L29.1479 41.8406C29.9465 42.3249 31.4296 42.0115 31.9429 41.5273C31.9714 41.4988 31.9714 41.4703 32 41.4419V41.214C31.8574 41.157 31.4581 41.2709 31.0303 40.9861L4.27804 24.3511Z" fill="#97A17D"/>
<path fill-rule="evenodd" clip-rule="evenodd" d="M4.27804 24.1235L2.50977 25.035L29.1479 41.6416C29.9465 42.1258 31.4296 41.8125 31.9429 41.3283C32.114 41.1573 31.7718 41.2998 31.0017 40.8155L4.27804 24.1235Z" fill="#FFCC00"/>
<path fill-rule="evenodd" clip-rule="evenodd" d="M11.3797 29.2793L10.8949 29.4217V29.5072L12.2924 30.3902L12.7772 30.1338L11.3797 29.2793Z" fill="#575756"/>
<path fill-rule="evenodd" clip-rule="evenodd" d="M11.3797 29.1655L10.8949 29.4219L12.4064 30.1625L12.8913 29.9061L11.3797 29.1655Z" fill="#878787"/>
<path fill-rule="evenodd" clip-rule="evenodd" d="M12.5776 29.4214L12.1783 29.7062C12.1783 29.9341 12.3494 30.0765 12.549 30.1905C12.7202 30.0481 12.7772 29.9626 12.9483 29.8202C12.6917 29.7062 12.549 29.5923 12.5776 29.4214Z" fill="#575756"/>
<path d="M11.8074 30.2761C11.7789 30.2761 11.7504 30.2761 11.6934 30.2476L11.5222 30.1621L11.4937 30.1336C11.4937 30.1052 11.4937 30.1052 11.5222 30.1052L11.7219 29.9912C11.7504 29.9912 11.7789 29.9912 11.7789 30.0197C11.7789 30.0482 11.7789 30.0767 11.7504 30.0767L11.6078 30.1621L11.6934 30.2191C11.7789 30.2761 11.836 30.1906 11.95 30.0197C12.0356 29.8773 12.1212 29.7633 12.2352 29.7349C12.3208 29.7349 12.3778 29.7633 12.4634 29.8488C12.4919 29.8773 12.4919 29.9058 12.4634 29.9058C12.4349 29.9343 12.4064 29.9343 12.4064 29.9058C12.3493 29.8488 12.2923 29.8203 12.2352 29.8203C12.1497 29.8203 12.0926 29.9343 12.0071 30.0482C12.0071 30.1337 11.9215 30.2761 11.8074 30.2761Z" fill="#DADADA"/>
<path fill-rule="evenodd" clip-rule="evenodd" d="M14.1747 29.564C14.0892 29.9058 14.1462 30.3046 14.517 30.5894C14.7166 30.7318 14.9448 30.8743 15.1444 31.0167C17.312 32.7258 14.4884 32.4694 14.1177 31.9567C13.861 31.6149 13.3762 31.3015 12.8057 31.1306C12.3779 30.9882 11.8931 30.8173 12.2638 30.2761C12.4635 29.9627 12.5776 29.9343 12.9769 29.6494L14.1747 29.564Z" fill="#CF0404"/>
<path fill-rule="evenodd" clip-rule="evenodd" d="M15.943 32.042C15.8574 32.0705 15.7433 32.0705 15.6863 32.099C15.6007 32.1274 15.3726 32.1559 15.2585 32.1559V32.3553C15.6578 32.5262 16.3993 32.982 16.6275 32.8396C16.656 32.8111 16.6845 32.8111 16.6845 32.7826V32.6687H16.6275C16.4848 32.4977 16.1141 32.2414 15.943 32.042Z" fill="#575756"/>
<path fill-rule="evenodd" clip-rule="evenodd" d="M15.9144 31.8428C15.8288 31.9852 15.4581 32.0991 15.2299 32.1276C15.6292 32.2985 16.3707 32.8397 16.6274 32.7258C16.8841 32.6119 16.1711 32.0991 15.9144 31.8428Z" fill="#878787"/>
<path fill-rule="evenodd" clip-rule="evenodd" d="M15.9715 31.9853C15.6577 32.2986 14.4313 32.0708 14.2032 31.729C13.9465 31.3871 13.4616 30.9029 12.8912 30.7035C12.5775 30.5896 12.2067 30.5896 12.2353 30.3332C12.2353 30.3047 12.2638 30.2762 12.2923 30.2478C12.492 29.9344 12.606 29.9059 13.0053 29.6211L14.2032 29.5356C14.1176 29.8775 14.1747 30.2762 14.5454 30.5611C14.7451 30.7035 14.9732 30.8459 15.1729 30.9884C15.7148 31.4726 15.9429 31.7859 15.9715 31.9853Z" fill="#EDEDED"/>
<path fill-rule="evenodd" clip-rule="evenodd" d="M13.8325 30.7036C14.1747 31.0169 14.8022 31.4727 15.0874 31.3303C15.287 31.2448 14.9162 30.8745 14.6596 30.6182L14.631 30.6467C14.4029 30.7606 14.1462 30.7321 13.8325 30.7036Z" fill="#CF0404"/>
<path fill-rule="evenodd" clip-rule="evenodd" d="M24.1568 37.4829L28.7772 41.4138L29.1194 41.6417C29.918 42.1259 31.4011 41.8126 31.9144 41.3283C32.0855 41.1574 31.7433 41.2999 30.9732 40.8156L30.5454 40.5593L24.1568 37.4829Z" fill="#FFED00"/>
<path fill-rule="evenodd" clip-rule="evenodd" d="M1.76827 25.6616L0 26.3452V26.5731L26.6381 43.1797C27.4367 43.6639 28.9198 43.3506 29.4332 42.8663C29.4617 42.8378 29.4617 42.8094 29.4902 42.7809V42.553C29.3476 42.496 28.9483 42.61 28.5205 42.3251L1.76827 25.6616Z" fill="#97A17D"/>
<path fill-rule="evenodd" clip-rule="evenodd" d="M1.76827 25.4336L0 26.3451L26.6381 42.9516C27.4367 43.4359 28.9198 43.1225 29.4332 42.6383C29.6043 42.4674 29.262 42.6098 28.492 42.1256L1.76827 25.4336Z" fill="#FFCC00"/>
<path fill-rule="evenodd" clip-rule="evenodd" d="M8.86983 30.5894L8.38498 30.7318V30.8172L9.78248 31.7003L10.2673 31.4439L8.86983 30.5894Z" fill="#575756"/>
<path fill-rule="evenodd" clip-rule="evenodd" d="M8.86983 30.4756L8.38498 30.7319L9.89657 31.4726L10.3814 31.2162L8.86983 30.4756Z" fill="#878787"/>
<path fill-rule="evenodd" clip-rule="evenodd" d="M13.1765 29.6209C12.5205 30.0197 12.9198 30.3615 12.9198 30.5324C12.8057 30.7603 12.6916 30.9596 12.7201 31.0736C12.8342 31.1306 13.0054 31.1875 13.1194 31.2445C13.0909 31.1021 13.1765 30.9596 13.2906 30.7603C13.5472 30.5609 14.1462 30.9027 14.6595 30.7033C15.6292 29.3645 17.426 28.9372 18.5098 28.5954C19.7362 27.9118 18.139 27.7979 17.3975 27.3991C14.8307 27.2566 15.8574 28.3675 13.1765 29.6209Z" fill="#313294"/>
<path fill-rule="evenodd" clip-rule="evenodd" d="M20.3351 23.5254C19.7647 21.8448 17.8538 20.0218 17.426 20.2782C17.2549 20.3636 17.0267 21.1327 17.2549 21.503C17.483 22.4715 17.4545 23.5824 18.5953 24.323C19.0231 26.2599 19.9358 26.2314 20.3636 25.9751C20.7914 25.7472 23.1871 25.0351 20.3351 23.5254Z" fill="#DADADA"/>
<path fill-rule="evenodd" clip-rule="evenodd" d="M17.3975 19.851C16.4278 19.0249 14.3173 18.3413 14.2032 18.2559C13.8039 18.3128 13.4331 18.7686 13.8039 18.911C15.287 19.4807 15.2585 20.6771 17.2264 21.5316C17.4831 21.674 17.7968 21.4746 18.082 21.1328C18.3387 20.7055 18.082 20.4207 17.3975 19.851Z" fill="#DADADA"/>
<path fill-rule="evenodd" clip-rule="evenodd" d="M14.5169 18.2843C13.4617 17.6291 14.2032 18.2273 14.0891 18.1419C13.6899 18.1988 13.3761 18.797 13.7754 18.9394C13.8895 18.9964 14.0036 18.9964 14.1177 19.0819C14.2603 18.9679 14.5169 18.6546 14.5169 18.2843Z" fill="#E30613"/>
<path fill-rule="evenodd" clip-rule="evenodd" d="M14.2032 18.1133C14.3458 18.3127 14.1462 18.7969 13.918 18.9393C13.6613 18.9678 13.0054 19.0533 12.9483 19.0533C12.8342 19.0533 12.7487 19.0248 12.6346 18.9963C12.4635 18.9678 12.435 18.9109 12.3209 18.7969C12.2068 18.7115 11.9216 18.4266 11.836 18.3412C11.6934 18.1703 11.4938 17.9424 11.4367 17.743C11.4653 17.7145 11.5508 17.6575 11.6079 17.686C11.5793 17.6006 11.4938 17.5151 11.5223 17.4581C11.6649 17.3727 11.8075 17.4866 11.8075 17.4866L11.7505 17.4012C11.8931 17.2872 12.0071 17.3442 12.0927 17.3727C12.1783 17.4297 12.3779 17.629 12.4635 17.6575C12.6631 17.7715 13.0909 18.0563 12.6631 17.743C12.492 17.6006 12.2638 17.3727 12.3779 17.3442C12.5776 17.2872 12.6346 17.4866 12.8342 17.6006C13.0054 17.7145 13.4047 17.9139 13.6328 17.8854C13.918 17.8854 14.0036 17.9424 14.2032 18.1133Z" fill="#313294"/>
<path fill-rule="evenodd" clip-rule="evenodd" d="M13.6327 18.5118C13.4331 18.4548 13.262 18.6257 13.0908 18.7397C12.8912 18.8536 12.6345 18.7112 12.3493 18.9676C12.1212 19.167 13.2049 19.1954 13.3761 19.1954C13.4901 19.1954 13.9179 19.0815 13.9179 18.9391C13.9465 18.6257 13.7753 18.5403 13.6327 18.5118Z" fill="#4D4EAF"/>
<path fill-rule="evenodd" clip-rule="evenodd" d="M19.1658 27.485C19.1658 27.1716 18.8806 26.9153 18.738 26.7729C16.9697 24.9498 16.2567 24.6935 15.9715 24.5511C15.0588 24.0383 13.9751 23.4117 12.6061 23.2693C12.0357 23.2123 11.4938 24.2947 11.2656 24.9214C11.1801 25.2632 11.0375 25.2632 11.1801 25.4626C11.9786 26.4026 12.8342 26.5735 13.3761 27.0292C15.0588 28.1401 16.5419 27.7129 17.6542 28.1686C18.1391 28.3965 19.2228 28.9092 19.1658 27.485Z" fill="#313294"/>
<path fill-rule="evenodd" clip-rule="evenodd" d="M20.4492 23.8103C20.0784 23.3545 20.3066 22.9557 19.8217 22.6709C18.5383 21.9018 15.7718 21.8163 14.8877 21.9303C12.1782 22.2721 11.2085 21.8448 9.69692 23.2975C9.58284 24.6363 8.92687 25.7757 11.3796 26.0605C12.2923 25.8042 12.5205 25.3769 12.7201 25.4054C14.1746 25.4624 15.4866 26.6587 17.2263 27.0005C18.6238 27.2569 21.0766 27.2854 21.8467 25.5763C22.1319 25.0921 21.3618 24.8927 20.4492 23.8103Z" fill="#CF0404"/>
<path fill-rule="evenodd" clip-rule="evenodd" d="M11.6649 30.6465C11.5508 31.3871 12.0641 31.9283 12.5205 32.2986C14.8021 33.8368 12.0927 33.9507 11.2085 33.1246C10.8663 32.8113 10.467 32.5265 9.98215 32.2701C9.58286 32.0707 9.15506 31.7574 9.41174 31.3016C9.61138 30.9883 9.83955 31.0453 10.2103 30.7319L11.6649 30.6465Z" fill="#CF0404"/>
<path fill-rule="evenodd" clip-rule="evenodd" d="M11.6649 30.6465C11.5508 31.3871 12.1212 31.9853 12.549 32.2986C13.1765 32.7543 13.3761 33.0107 13.4332 33.2386C13.148 33.6089 11.836 33.4665 11.2656 32.9253C10.9234 32.6119 10.6097 32.2131 10.1248 31.9568C9.81108 31.7859 9.44031 31.6434 9.41179 31.3586C9.41179 31.3586 9.41179 31.3301 9.44031 31.3301C9.63995 31.0168 9.86812 31.0738 10.2389 30.7604L11.6649 30.6465Z" fill="#EDEDED"/>
<path fill-rule="evenodd" clip-rule="evenodd" d="M9.72548 30.9883C9.78252 31.2161 10.0962 31.4155 10.0962 31.7574C10.0107 31.9567 9.95364 32.1561 10.0107 32.2986C10.1533 32.3555 10.2674 32.441 10.3815 32.498C10.3244 32.327 10.41 32.2131 10.4955 32.0137C10.9233 31.8428 11.6078 32.0992 12.0927 31.8998C12.6631 31.0452 13.1765 30.504 14.1747 29.9343C14.4028 29.7919 15.2585 29.3931 15.4866 29.2507C16.6274 28.1968 14.8592 28.624 14.0891 28.2822C11.4938 28.2822 12.1782 29.5925 9.72548 30.9883Z" fill="#4D4EAF"/>
<path fill-rule="evenodd" clip-rule="evenodd" d="M19.6221 24.2093C18.3672 24.4656 18.795 26.6305 20.1925 26.3171C21.3619 26.0893 21.3619 23.8959 19.6221 24.2093Z" fill="#EDEDED"/>
<path fill-rule="evenodd" clip-rule="evenodd" d="M21.3619 24.0381C21.3619 24.0381 20.8485 24.1805 19.8218 24.266C18.6525 24.3799 19.1658 26.4023 20.3922 26.1459C20.7915 26.0605 21.1908 25.6332 21.9894 25.092C22.2746 25.0066 21.3619 24.0381 21.3619 24.0381Z" fill="#DB9669"/>
<path fill-rule="evenodd" clip-rule="evenodd" d="M23.1586 23.782C23.0445 24.0098 23.0445 24.2662 22.9875 24.4941C22.9875 24.7789 22.6167 24.722 22.7023 25.1777C22.6167 25.4626 22.3886 25.8329 22.1889 26.0607C22.0748 26.2316 21.9322 26.488 21.5615 26.545C20.9911 26.6589 20.7059 26.0038 20.3351 25.6619C19.9643 25.3201 20.3921 24.8359 20.4207 24.4086C20.4492 23.6395 20.877 22.728 21.7611 22.7565C22.1604 22.7565 22.7308 22.9274 22.9875 23.2123C23.0731 23.3547 23.2727 23.5541 23.1586 23.782Z" fill="#F2B387"/>
<path fill-rule="evenodd" clip-rule="evenodd" d="M23.2157 24.7502C23.6435 23.9241 23.6435 22.9557 22.4456 22.3005C21.59 21.8163 20.6774 21.8732 20.164 22.6138C19.9358 22.9272 19.7362 23.6963 19.508 24.1235C19.4795 24.3514 19.4225 24.6932 19.9929 25.035C20.2781 25.206 20.9341 24.2944 21.1052 24.3799C22.1034 24.8641 22.9305 24.9781 23.2157 24.7502Z" fill="#1D1B3A"/>
<path fill-rule="evenodd" clip-rule="evenodd" d="M23.3012 24.5508C23.615 23.7532 23.5294 22.9272 22.4456 22.3005C21.59 21.8163 20.6774 21.8732 20.164 22.6138C19.9929 22.8702 19.7077 23.5823 19.6221 23.8672C19.6221 24.1235 19.4795 24.4369 20.0214 24.7502C20.3351 24.9211 20.9626 24.0381 21.1622 24.1235C22.1319 24.5793 22.9875 24.7217 23.3012 24.5508Z" fill="#CAC7C7"/>
<path fill-rule="evenodd" clip-rule="evenodd" d="M23.1872 24.4083C23.4439 23.6962 23.3298 22.9556 22.3601 22.4144C21.9038 22.158 21.4475 22.0726 21.0482 22.158C21.3334 22.1865 21.6186 22.3004 21.9038 22.4429C22.8164 22.9556 23.2443 23.6962 23.1872 24.4083Z" fill="white"/>
<path fill-rule="evenodd" clip-rule="evenodd" d="M19.9359 23.0693C20.0214 23.4681 20.5348 24.0663 21.0767 24.3796C20.9911 24.4081 20.9626 24.636 20.7915 24.7784C20.2496 24.5221 19.7647 23.8954 19.7077 23.5536C19.7932 23.3827 19.8788 23.2118 19.9359 23.0693Z" fill="#4D4EAF"/>
<path fill-rule="evenodd" clip-rule="evenodd" d="M21.2478 24.3513C21.9608 24.6931 22.7023 24.864 23.2442 24.6361L23.3012 24.7501C23.2157 25.0349 22.959 25.3198 22.7594 25.4622C22.3601 25.6616 22.6453 25.3482 22.303 25.2913C22.1604 25.2628 22.0178 25.4907 21.8182 25.5191C21.533 25.6046 21.0766 25.4907 20.7914 25.0919C20.6203 24.7501 20.7914 24.1519 21.2478 24.3513Z" fill="#333333"/>
<path fill-rule="evenodd" clip-rule="evenodd" d="M21.2762 24.4652C21.9893 24.807 22.7593 25.0064 23.3012 24.7501C23.2442 25.0349 22.9304 25.4907 22.7023 25.6331C22.303 25.8325 22.6737 25.4337 22.36 25.3767C22.2174 25.3482 22.0748 25.5761 21.8752 25.6046C21.59 25.6901 21.1336 25.5761 20.8484 25.1773C20.6773 24.8925 20.8199 24.2373 21.2762 24.4652Z" fill="#4D4EAF"/>
<path fill-rule="evenodd" clip-rule="evenodd" d="M23.2442 24.8353C23.1301 25.0916 22.9305 25.3195 22.7594 25.4619C22.3601 25.6613 22.7309 25.2625 22.4171 25.2056C22.2745 25.1771 22.1034 25.4334 21.9038 25.4904C21.533 25.6044 20.877 25.2625 20.9626 24.8068C21.0196 24.5219 21.1337 24.5219 21.3048 24.6074C22.1319 25.0062 22.6738 25.0632 23.2442 24.8353Z" fill="#D0DAF2"/>
<path fill-rule="evenodd" clip-rule="evenodd" d="M22.5882 25.4904C22.4742 25.4904 22.6738 25.2341 22.3886 25.2056C22.246 25.1771 22.0749 25.4334 21.8752 25.4904C21.5045 25.6044 20.8485 25.2625 20.9341 24.8068C20.9911 24.5219 21.1052 24.5219 21.2763 24.6074C21.8752 24.8922 22.3316 25.0347 22.7308 24.9777C22.7023 25.0347 22.7023 25.1201 22.7308 25.2056C22.6738 25.291 22.6453 25.405 22.5882 25.4904Z" fill="#A3B6E0"/>
<path fill-rule="evenodd" clip-rule="evenodd" d="M21.5901 24.7217L21.2763 25.3768C21.1908 25.3199 21.1052 25.2629 21.0482 25.2059L21.3334 24.6362C21.4189 24.6647 21.5045 24.6932 21.5901 24.7217Z" fill="#E5ECFC"/>
<path fill-rule="evenodd" clip-rule="evenodd" d="M12.8913 22.0728C12.1213 23.2406 12.5491 24.38 13.1195 25.4339C12.9769 25.4054 12.8343 25.4054 12.6917 25.377C12.5205 25.377 12.2639 25.7757 11.3512 26.0321C8.89844 25.7473 9.55442 24.6079 9.6685 23.2691C10.7523 22.2437 11.5509 22.1582 12.8913 22.0728Z" fill="#313294"/>
<path fill-rule="evenodd" clip-rule="evenodd" d="M12.7202 22.8416C11.5223 22.5567 9.92518 21.161 9.26921 20.9331C9.12661 20.5343 9.58294 20.107 9.78258 20.278C10.7238 20.9901 12.0072 20.2779 13.4617 21.6452C13.7184 21.8161 14.0892 22.5282 13.9181 22.984C13.8325 23.1264 13.6328 23.1549 12.7202 22.8416Z" fill="#EDEDED"/>
<path fill-rule="evenodd" clip-rule="evenodd" d="M9.4118 20.5061C9.35476 20.7339 9.32624 20.7909 9.24067 20.9048C8.69879 20.677 8.47062 20.677 8.07133 20.4206C7.95725 20.2782 7.75761 19.8794 7.70057 19.68C7.70057 19.4521 7.64353 19.1388 7.67205 18.9394C7.70057 18.9109 7.78613 18.9109 7.81465 18.9394C7.84317 18.8824 7.78613 18.74 7.87169 18.74C8.01429 18.7115 8.07133 18.8824 8.07133 18.8824V18.797C8.21394 18.74 8.2995 18.8255 8.32802 18.9109C8.35654 18.9679 8.4421 19.2243 8.47062 19.3097C8.64174 19.6515 8.95547 19.68 9.24067 19.8509C9.75404 20.1073 9.46884 20.2212 9.4118 20.5061Z" fill="#4D4EAF"/>
<path fill-rule="evenodd" clip-rule="evenodd" d="M9.72551 19.737C9.63995 19.5946 9.49735 19.4237 9.35475 19.3097C9.1551 19.1673 9.06954 19.1673 8.8699 19.0249C8.78434 19.1958 8.8699 19.4237 9.18362 19.5376C9.26919 19.6801 9.24067 19.9649 9.32623 20.1928C9.38327 20.3637 9.35475 20.3067 9.58291 20.3067C9.66847 20.3067 9.8396 20.3352 9.8396 20.2498C9.8396 20.1073 9.81108 19.9079 9.72551 19.737Z" fill="#4D4EAF"/>
<path fill-rule="evenodd" clip-rule="evenodd" d="M9.44031 21.0188C9.26919 20.9334 9.38327 20.9903 9.26919 20.9049C9.01251 20.4206 9.52588 19.9934 9.81108 20.2497C9.81108 20.2497 9.8396 20.2782 9.89664 20.3067C9.44032 20.3922 9.35475 20.7909 9.44031 21.0188Z" fill="#D92528"/>
<path fill-rule="evenodd" clip-rule="evenodd" d="M16.6274 23.7244C15.9429 23.0408 14.9732 22.2432 13.8609 21.9014C13.7183 21.8444 13.4902 21.645 13.3761 21.6165C13.0338 21.5026 12.8342 21.6165 12.7201 21.7305C12.606 21.8729 12.2638 22.642 12.6345 22.9268C12.9768 23.2117 13.262 23.8953 13.7468 24.465C14.2032 24.9777 14.8591 25.405 15.7148 25.7183C16.3137 26.8292 17.3975 27.0001 17.9394 26.4019C18.1675 26.1456 19.3369 24.7783 16.6274 23.7244Z" fill="#EDEDED"/>
<path fill-rule="evenodd" clip-rule="evenodd" d="M16.0285 27.9688C15.6292 27.3137 15.1444 26.0319 14.1747 25.0634C13.5472 24.4367 12.4064 23.6107 11.2656 23.3543C10.7807 23.2404 10.2103 22.6707 9.58286 23.3828C8.98393 24.0949 8.64168 25.6616 10.4955 26.2028C10.8663 26.3452 11.4367 26.6015 11.893 27.0288C12.9483 28.0258 13.7183 28.0543 14.3458 28.453C14.9162 28.8233 15.5722 29.1652 15.8859 28.7664C16.057 28.3961 16.1141 28.1397 16.0285 27.9688Z" fill="#4D4EAF"/>
<path fill-rule="evenodd" clip-rule="evenodd" d="M13.4332 33.3525C13.3476 33.381 13.2336 33.381 13.1765 33.4095C13.0909 33.438 12.8628 33.4665 12.7487 33.4665V33.6659C13.148 33.8368 13.8895 34.2925 14.1177 34.1501C14.1462 34.1216 14.1747 34.1216 14.1747 34.0931V33.9792H14.1177C13.9751 33.8083 13.6043 33.5234 13.4332 33.3525Z" fill="#575756"/>
<path fill-rule="evenodd" clip-rule="evenodd" d="M13.4046 33.1533C13.3191 33.2957 12.9483 33.4097 12.7202 33.4382C13.1194 33.6091 13.861 34.1503 14.1177 34.0364C14.3743 33.9224 13.6613 33.4097 13.4046 33.1533Z" fill="#878787"/>
<path fill-rule="evenodd" clip-rule="evenodd" d="M10.0677 30.7319L9.6684 31.0168C9.6684 31.2447 9.83952 31.3871 10.0392 31.501C10.2103 31.3586 10.2673 31.2731 10.4384 31.1307C10.1818 31.0168 10.0677 30.9028 10.0677 30.7319Z" fill="#575756"/>
<path d="M9.29767 31.5866C9.26915 31.5866 9.24063 31.5866 9.18359 31.5581L9.01247 31.4727L8.98395 31.4442C8.98395 31.4157 8.98395 31.4157 9.01247 31.4157L9.21211 31.3018C9.24063 31.3018 9.26915 31.3018 9.26915 31.3303C9.26915 31.3587 9.26915 31.3872 9.24063 31.3872L9.09803 31.4727L9.18359 31.5297C9.26915 31.5866 9.32619 31.5012 9.44028 31.3303C9.52584 31.1878 9.6114 31.0739 9.72548 31.0454C9.81104 31.0454 9.86808 31.0739 9.95364 31.1593C9.98217 31.1878 9.98217 31.2163 9.95364 31.2163C9.92512 31.2448 9.8966 31.2448 9.8966 31.2163C9.83956 31.1594 9.78252 31.1309 9.72548 31.1309C9.63992 31.1309 9.58288 31.2448 9.49732 31.3587C9.49732 31.4442 9.41175 31.5866 9.29767 31.5866Z" fill="#DADADA"/>
<path fill-rule="evenodd" clip-rule="evenodd" d="M11.2371 31.9566C11.5793 32.2699 12.1497 32.6687 12.435 32.5547C12.6346 32.4693 12.3494 32.1275 12.0927 31.8711L12.0642 31.8996C11.836 31.985 11.5508 31.985 11.2371 31.9566Z" fill="#CF0404"/>
<path fill-rule="evenodd" clip-rule="evenodd" d="M21.647 38.793L26.2959 42.7238L26.6381 42.9517C27.4367 43.436 28.9198 43.1226 29.4331 42.6384C29.6043 42.4675 29.262 42.6099 28.492 42.1257L28.0641 41.8693L21.647 38.793Z" fill="#FFED00"/>
</g>
<defs>
<clipPath id="clip0">
<rect width="56" height="56" fill="white"/>
</clipPath>
</defs>
</svg>
