<svg width="56" height="56" viewBox="0 0 56 56" fill="none" xmlns="http://www.w3.org/2000/svg">
<path fill-rule="evenodd" clip-rule="evenodd" d="M46.3372 21.1693C43.6761 14.8541 34.6558 12.8901 28.1996 12.8901C21.7441 12.8901 12.723 14.8541 10.0627 21.1693C5.9122 31.0191 14.3275 55.9996 28.1996 55.9996C42.0717 55.9996 50.487 31.0191 46.3372 21.1693Z" fill="#EE433B"/>
<path fill-rule="evenodd" clip-rule="evenodd" d="M13.0047 23.9708L12.8947 23.9513C12.425 23.8397 12.1941 23.3101 12.2947 22.5707C12.4018 21.7837 12.8375 21.2749 13.4049 21.2749C13.4794 21.2749 13.5547 21.2843 13.6307 21.3018C14.0172 21.3945 14.3971 21.7434 14.3009 22.4457C14.2162 23.0695 13.7262 23.9708 13.0633 23.9708H13.0047Z" fill="#C3362F"/>
<path fill-rule="evenodd" clip-rule="evenodd" d="M13.5153 21.7162C12.7177 21.5253 12.4977 23.4139 13.0109 23.5369C13.5232 23.6593 14.3128 21.9071 13.5153 21.7162Z" fill="#F9EC31"/>
<path fill-rule="evenodd" clip-rule="evenodd" d="M12.6328 33.7025C11.9995 33.6669 11.7354 32.9027 11.7585 32.2098C11.7839 31.457 12.1754 30.9697 12.7573 30.9697C13.2675 30.9973 13.7386 31.328 13.7111 32.1755C13.6894 32.81 13.3529 33.7032 12.6755 33.7032C12.674 33.7032 12.6328 33.7025 12.6328 33.7025Z" fill="#C3362F"/>
<path fill-rule="evenodd" clip-rule="evenodd" d="M12.7876 31.3998C11.9662 31.3521 12.1334 33.2454 12.6617 33.2764C13.19 33.3066 13.609 31.4475 12.7876 31.3998Z" fill="#F9EC31"/>
<path fill-rule="evenodd" clip-rule="evenodd" d="M21.9092 34.3456C21.276 34.3093 21.0111 33.5458 21.035 32.8528C21.0589 32.1001 21.4511 31.6128 22.0337 31.6128C22.5432 31.6403 23.0151 31.971 22.9861 32.8186C22.9644 33.453 22.6293 34.3463 21.9519 34.3463C21.9505 34.3463 21.9092 34.3456 21.9092 34.3456Z" fill="#C3362F"/>
<path fill-rule="evenodd" clip-rule="evenodd" d="M22.0635 32.0429C21.2414 31.9952 21.4093 33.8885 21.9376 33.9194C22.4659 33.9497 22.8849 32.0906 22.0635 32.0429Z" fill="#F9EC31"/>
<path fill-rule="evenodd" clip-rule="evenodd" d="M22.011 43.3602C21.377 43.3602 21.0296 42.5772 21.0238 41.8412C21.0187 40.9513 21.5362 40.6301 21.9813 40.624C22.4423 40.624 22.9677 40.9453 22.9728 41.85C22.9764 42.4529 22.726 43.3528 22.0189 43.3602H22.011Z" fill="#C3362F"/>
<path fill-rule="evenodd" clip-rule="evenodd" d="M21.9877 41.0528C21.1642 41.0622 21.484 42.9387 22.0138 42.9327C22.5428 42.926 22.8113 41.0427 21.9877 41.0528Z" fill="#F9EC31"/>
<path fill-rule="evenodd" clip-rule="evenodd" d="M22.8035 52.0404C22.1695 52.0404 21.8221 51.2574 21.8164 50.5214C21.8113 49.6315 22.3287 49.3102 22.7738 49.3042C23.2348 49.3042 23.7602 49.6255 23.7653 50.5301C23.7689 51.133 23.5185 52.033 22.8115 52.0404H22.8035Z" fill="#C3362F"/>
<path fill-rule="evenodd" clip-rule="evenodd" d="M22.7802 49.7334C21.9566 49.7435 22.2765 51.6194 22.8063 51.6133C23.3353 51.6066 23.6038 49.724 22.7802 49.7334Z" fill="#F9EC31"/>
<path fill-rule="evenodd" clip-rule="evenodd" d="M43.037 23.9708C42.3749 23.9708 41.8849 23.0695 41.8002 22.4457C41.704 21.7434 42.0839 21.3945 42.4704 21.3018C42.5464 21.2843 42.6216 21.2749 42.6969 21.2749C43.2643 21.2749 43.6992 21.7837 43.8064 22.5714C43.9062 23.3107 43.6754 23.8397 43.2042 23.9513L43.1485 23.9647L43.037 23.9708Z" fill="#C3362F"/>
<path fill-rule="evenodd" clip-rule="evenodd" d="M42.5858 21.7162C43.3834 21.5253 43.6034 23.4139 43.0903 23.5369C42.5779 23.6593 41.7883 21.9071 42.5858 21.7162Z" fill="#F9EC31"/>
<path fill-rule="evenodd" clip-rule="evenodd" d="M43.4621 33.7119C42.7796 33.7119 42.4315 32.8153 42.4033 32.1795C42.3657 31.3501 42.826 31.0167 43.2703 30.9824H43.2768C43.9303 30.9824 44.3248 31.4711 44.3581 32.2265C44.3892 32.906 44.1395 33.6615 43.5178 33.7092L43.4621 33.7119Z" fill="#C3362F"/>
<path fill-rule="evenodd" clip-rule="evenodd" d="M43.3092 31.4088C44.1299 31.3443 44.0068 33.241 43.4792 33.282C42.9516 33.3237 42.4885 31.4734 43.3092 31.4088Z" fill="#F9EC31"/>
<path fill-rule="evenodd" clip-rule="evenodd" d="M22.1074 25.8283C21.4951 25.7712 21.2556 25.0231 21.291 24.3524C21.3337 23.5808 21.7231 23.1016 22.3093 23.1016L22.4034 23.1069C22.8412 23.1479 23.2943 23.482 23.2494 24.2986C23.2154 24.9351 22.8586 25.8317 22.174 25.8317L22.1074 25.8283Z" fill="#C3362F"/>
<path fill-rule="evenodd" clip-rule="evenodd" d="M22.3565 23.5316C21.5372 23.4549 21.6263 25.3523 22.1531 25.4021C22.68 25.4511 23.1757 23.6082 22.3565 23.5316Z" fill="#F9EC31"/>
<path fill-rule="evenodd" clip-rule="evenodd" d="M16.075 29.4065C15.4627 29.3493 15.2232 28.6013 15.2586 27.9305C15.3006 27.1589 15.6907 26.6797 16.2754 26.6797L16.3702 26.6851C16.8081 26.7247 17.2604 27.0594 17.217 27.8747C17.183 28.5125 16.8262 29.4098 16.1415 29.4098L16.075 29.4065Z" fill="#C3362F"/>
<path fill-rule="evenodd" clip-rule="evenodd" d="M16.324 27.1102C15.5048 27.0335 15.5938 28.9309 16.1207 28.9807C16.6475 29.0297 17.1433 27.1868 16.324 27.1102Z" fill="#F9EC31"/>
<path fill-rule="evenodd" clip-rule="evenodd" d="M16.7702 38.1167C16.0567 38.1167 15.7744 37.1818 15.7636 36.593C15.7469 35.7213 16.2542 35.396 16.6935 35.3818H16.695C17.1712 35.3818 17.6959 35.7038 17.7125 36.6111C17.7255 37.3437 17.4144 38.0965 16.7927 38.1167H16.7702Z" fill="#C3362F"/>
<path fill-rule="evenodd" clip-rule="evenodd" d="M16.709 35.8089C15.8861 35.8344 16.2487 37.7042 16.7777 37.6874C17.3068 37.6713 17.5318 35.7833 16.709 35.8089Z" fill="#F9EC31"/>
<path fill-rule="evenodd" clip-rule="evenodd" d="M18.6138 47.4262C17.9002 47.4262 17.618 46.4913 17.6071 45.9026C17.5905 45.0308 18.0978 44.7055 18.5371 44.6914H18.5378C19.0147 44.6914 19.5394 45.0133 19.5561 45.9207C19.5691 46.6533 19.2579 47.4061 18.6362 47.4262H18.6138Z" fill="#C3362F"/>
<path fill-rule="evenodd" clip-rule="evenodd" d="M18.5526 45.1194C17.7298 45.1449 18.0924 47.0148 18.6214 46.998C19.1504 46.9818 19.3755 45.0939 18.5526 45.1194Z" fill="#F9EC31"/>
<path fill-rule="evenodd" clip-rule="evenodd" d="M14.4016 42.8008C13.688 42.8008 13.4043 41.8665 13.3934 41.2777C13.3782 40.4053 13.8856 40.08 14.3249 40.0659H14.3256C14.8025 40.0659 15.3265 40.3885 15.3438 41.2952C15.3569 42.0285 15.0457 42.7806 14.424 42.8008H14.4016Z" fill="#C3362F"/>
<path fill-rule="evenodd" clip-rule="evenodd" d="M14.34 40.4944C13.5172 40.5206 13.879 42.3898 14.4088 42.373C14.9378 42.3568 15.1629 40.4689 14.34 40.4944Z" fill="#F9EC31"/>
<path fill-rule="evenodd" clip-rule="evenodd" d="M9.89845 28.4699C9.28619 28.4128 9.04665 27.6641 9.08211 26.9933C9.12481 26.2224 9.51416 25.7432 10.1004 25.7432L10.1945 25.7485C10.6323 25.7882 11.0846 26.1229 11.0405 26.9382C11.0065 27.576 10.6497 28.4733 9.96504 28.4733L9.89845 28.4699Z" fill="#C3362F"/>
<path fill-rule="evenodd" clip-rule="evenodd" d="M10.1488 26.1736C9.32951 26.097 9.41853 27.9944 9.94539 28.0441C10.4722 28.0932 10.968 26.2503 10.1488 26.1736Z" fill="#F9EC31"/>
<path fill-rule="evenodd" clip-rule="evenodd" d="M28.0858 30.1073C27.4547 30.0684 27.1942 29.3068 27.2181 28.6159C27.2456 27.8618 27.6393 27.3745 28.2197 27.3745C28.7335 27.4048 29.2025 27.7361 29.1706 28.5789C29.1482 29.2148 28.8102 30.1087 28.1299 30.1087L28.0858 30.1073Z" fill="#C3362F"/>
<path fill-rule="evenodd" clip-rule="evenodd" d="M28.2522 27.8042C27.4308 27.7532 27.5885 29.6472 28.1168 29.6801C28.6452 29.713 29.0736 27.8553 28.2522 27.8042Z" fill="#F9EC31"/>
<path fill-rule="evenodd" clip-rule="evenodd" d="M27.5697 39.0541C26.9386 39.0145 26.6773 38.2536 26.7012 37.562C26.7287 36.8086 27.1224 36.3213 27.7028 36.3213C28.2167 36.3515 28.6856 36.6829 28.6538 37.5271C28.6313 38.1615 28.2926 39.0561 27.6138 39.0561L27.5697 39.0541Z" fill="#C3362F"/>
<path fill-rule="evenodd" clip-rule="evenodd" d="M27.7355 36.7515C26.9141 36.7004 27.0719 38.5944 27.6002 38.6274C28.1278 38.6603 28.557 36.8026 27.7355 36.7515Z" fill="#F9EC31"/>
<path fill-rule="evenodd" clip-rule="evenodd" d="M27.5696 47.7206C26.9371 47.6803 26.6766 46.9174 26.7012 46.2265C26.7294 45.4737 27.1224 44.9878 27.7028 44.9878C28.2152 45.018 28.6849 45.3474 28.6552 46.1916C28.6313 46.8274 28.2941 47.7226 27.6138 47.7226L27.5696 47.7206Z" fill="#C3362F"/>
<path fill-rule="evenodd" clip-rule="evenodd" d="M27.7355 45.417C26.9141 45.3659 27.0719 47.26 27.6002 47.2929C28.1278 47.3258 28.557 45.4681 27.7355 45.417Z" fill="#F9EC31"/>
<path fill-rule="evenodd" clip-rule="evenodd" d="M40.5377 29.4104C39.8531 29.4104 39.4999 28.5131 39.4666 27.8753C39.4254 27.0566 39.8806 26.7232 40.3199 26.6836H40.3286C40.9987 26.6836 41.3852 27.1621 41.4243 27.929C41.459 28.6025 41.2159 29.3526 40.6014 29.4077L40.5377 29.4104Z" fill="#C3362F"/>
<path fill-rule="evenodd" clip-rule="evenodd" d="M40.3642 27.11C39.5449 27.1832 40.0305 29.0282 40.5574 28.9811C41.0843 28.9341 41.1841 27.0367 40.3642 27.11Z" fill="#F9EC31"/>
<path fill-rule="evenodd" clip-rule="evenodd" d="M39.1895 38.1187C38.5569 38.1167 38.2175 37.3357 38.2182 36.6024C38.2204 35.7018 38.7451 35.3818 39.1945 35.3818C39.6454 35.3839 40.1694 35.7038 40.1679 36.6031C40.1657 37.3384 39.8234 38.1187 39.1902 38.1187H39.1895Z" fill="#C3362F"/>
<path fill-rule="evenodd" clip-rule="evenodd" d="M39.1955 35.8096C38.3719 35.8076 38.6607 37.6881 39.1897 37.6895C39.7195 37.6908 40.0191 35.8116 39.1955 35.8096Z" fill="#F9EC31"/>
<path fill-rule="evenodd" clip-rule="evenodd" d="M38.1637 47.4261C37.5326 47.4255 37.1917 46.6458 37.1932 45.9118C37.1939 45.0105 37.7179 44.6899 38.1673 44.6899C38.6175 44.6913 39.1421 45.0112 39.1407 45.9105C39.14 46.6451 38.7977 47.4261 38.1644 47.4261H38.1637Z" fill="#C3362F"/>
<path fill-rule="evenodd" clip-rule="evenodd" d="M38.1692 45.1191C37.3456 45.1171 37.6344 46.9977 38.1634 46.9991C38.6932 47.0004 38.9928 45.1212 38.1692 45.1191Z" fill="#F9EC31"/>
<path fill-rule="evenodd" clip-rule="evenodd" d="M46.1478 28.4729C45.4632 28.4729 45.11 27.5756 45.0767 26.9384C45.0354 26.1191 45.4907 25.7857 45.9299 25.7461H45.9379C46.6001 25.7461 46.9952 26.2361 47.0343 26.9915C47.0691 27.6657 46.8259 28.4151 46.2115 28.4702L46.1478 28.4729Z" fill="#C3362F"/>
<path fill-rule="evenodd" clip-rule="evenodd" d="M45.9741 26.1735C45.1548 26.2467 45.6404 28.0917 46.1673 28.0446C46.6942 27.9976 46.794 26.1002 45.9741 26.1735Z" fill="#F9EC31"/>
<path fill-rule="evenodd" clip-rule="evenodd" d="M33.5489 25.8317C32.8643 25.8317 32.5075 24.9351 32.4728 24.2979C32.4286 23.482 32.8817 23.1479 33.3195 23.1069L33.4136 23.1016C34.0005 23.1016 34.3891 23.5808 34.4318 24.3524C34.4673 25.0231 34.2278 25.7712 33.6155 25.8283L33.5489 25.8317Z" fill="#C3362F"/>
<path fill-rule="evenodd" clip-rule="evenodd" d="M33.366 23.5316C34.1852 23.4549 34.0962 25.3523 33.5694 25.4021C33.0425 25.4511 32.5468 23.6082 33.366 23.5316Z" fill="#F9EC31"/>
<path fill-rule="evenodd" clip-rule="evenodd" d="M34.0694 34.3454C33.3848 34.3454 33.028 33.4488 32.994 32.8116C32.9499 31.9957 33.4022 31.6616 33.84 31.6206L33.9341 31.6152C34.521 31.6152 34.9097 32.0945 34.9524 32.866C34.9878 33.5368 34.7483 34.2849 34.136 34.342L34.0694 34.3454Z" fill="#C3362F"/>
<path fill-rule="evenodd" clip-rule="evenodd" d="M33.887 32.0452C34.7062 31.9686 34.6172 33.866 34.0904 33.9157C33.5635 33.9648 33.0678 32.1218 33.887 32.0452Z" fill="#F9EC31"/>
<path fill-rule="evenodd" clip-rule="evenodd" d="M33.2859 43.356C32.6845 43.2882 32.4594 42.5724 32.5036 41.8922C32.5535 41.1159 32.9479 40.6333 33.5327 40.6333L33.6456 40.64C34.0769 40.6898 34.5191 41.0265 34.4656 41.8256C34.4243 42.4453 34.048 43.3607 33.3677 43.3607L33.2859 43.356Z" fill="#C3362F"/>
<path fill-rule="evenodd" clip-rule="evenodd" d="M33.5891 41.0658C34.4062 41.1593 33.8678 42.9914 33.3423 42.9316C32.8169 42.8718 32.7721 40.9724 33.5891 41.0658Z" fill="#F9EC31"/>
<path fill-rule="evenodd" clip-rule="evenodd" d="M32.7329 52.3546C32.1315 52.2867 31.9064 51.5702 31.9506 50.89C32.002 50.1137 32.3949 49.6318 32.9797 49.6318L33.0926 49.6386C33.5239 49.6883 33.9661 50.025 33.9126 50.8242C33.8713 51.4439 33.495 52.3593 32.8147 52.3593L32.7329 52.3546Z" fill="#C3362F"/>
<path fill-rule="evenodd" clip-rule="evenodd" d="M33.0363 50.0624C33.8533 50.1558 33.3149 51.988 32.7895 51.9282C32.2641 51.8684 32.2192 49.969 33.0363 50.0624Z" fill="#F9EC31"/>
<path fill-rule="evenodd" clip-rule="evenodd" d="M42.049 42.7926C41.4455 42.724 41.2204 42.0062 41.2653 41.3267C41.3167 40.5511 41.7104 40.0698 42.2944 40.0698L42.4066 40.0765C42.8379 40.1249 43.2801 40.4623 43.228 41.2608C43.1874 41.8812 42.8104 42.7979 42.1301 42.7979L42.049 42.7926Z" fill="#C3362F"/>
<path fill-rule="evenodd" clip-rule="evenodd" d="M42.3512 40.5014C43.1683 40.5948 42.6298 42.427 42.1044 42.3672C41.579 42.3074 41.5341 40.408 42.3512 40.5014Z" fill="#F9EC31"/>
<path fill-rule="evenodd" clip-rule="evenodd" d="M46.3372 18.7427C38.9596 9.46418 34.3482 11.1767 28.1995 11.1767C22.0516 11.1767 17.4401 9.46418 10.0626 18.7427C10.0626 18.7427 14.5199 18.1714 19.1314 15.4595C19.1314 15.4595 16.3647 19.314 16.6715 22.8823C16.6715 22.8823 19.9 22.5967 25.1259 16.3964C25.1259 16.3964 25.2793 20.7409 28.1995 24.0242C31.1204 20.7409 31.2738 16.3964 31.2738 16.3964C36.4998 22.5967 39.7275 22.8823 39.7275 22.8823C40.0351 19.314 37.2683 15.4595 37.2683 15.4595C41.8798 18.1714 46.3372 18.7427 46.3372 18.7427Z" fill="#8BC53F"/>
<mask id="mask0" mask-type="alpha" maskUnits="userSpaceOnUse" x="27" y="0" width="7" height="13">
<path fill-rule="evenodd" clip-rule="evenodd" d="M27.2769 0H33.0336V12.0334H27.2769V0Z" fill="white"/>
</mask>
<g mask="url(#mask0)">
<path fill-rule="evenodd" clip-rule="evenodd" d="M27.2776 12.0334C27.2776 12.0334 27.1242 4.32492 31.4273 0.0421928C31.4273 0.0421928 33.4255 -0.385945 32.9645 1.46977C32.5035 3.32548 28.8148 4.4674 28.1996 12.0334H27.2776Z" fill="#8BC53F"/>
</g>
</svg>
