<svg width="56" height="56" viewBox="0 0 56 56" fill="none" xmlns="http://www.w3.org/2000/svg">
<g clip-path="url(#clip0)">
<path d="M27.3958 29.7674L25.9007 28.7823C26.1874 28.5505 26.5561 27.9903 26.6175 27.8164L27.9898 28.3959C28.0102 28.3959 27.4573 29.1493 27.3958 29.7674Z" fill="#3A2C36"/>
<path d="M27.4572 29.1495C27.4777 29.2654 27.3958 29.6131 27.3958 29.8642C27.3958 30.1733 27.8874 31.1005 27.8054 31.1971C27.6825 31.313 27.4368 31.2937 27.3548 31.2357C27.2729 31.1778 26.9247 30.2312 26.7814 30.2699C26.5561 30.3471 26.3717 30.7914 26.2488 30.8107C26.0031 30.8687 25.4706 30.0187 25.3682 29.7676C25.2657 29.5165 25.6549 28.8211 26.2284 28.5893C26.4537 28.4927 27.4572 29.1495 27.4572 29.1495Z" fill="#3A2C36"/>
<path d="M26.6585 30.3083C26.4741 30.5595 26.2079 30.8878 26.1874 30.9844C26.1669 31.081 25.9826 31.6605 25.9212 31.6798C25.8597 31.7185 25.5934 31.7571 25.573 31.6219C25.573 31.4867 25.7573 30.8492 25.8392 30.7333C25.9212 30.5981 26.1874 30.1538 26.2284 30.1345C26.2898 30.1152 26.7609 30.1731 26.6585 30.3083Z" fill="#3A2C36"/>
<path d="M26.2079 29.9412C26.0031 30.173 25.6958 30.4627 25.6549 30.5593C25.6139 30.6559 25.3681 31.1968 25.3067 31.2354C25.2248 31.2547 24.9585 31.274 24.979 31.1388C24.9995 31.0036 25.2657 30.4048 25.3681 30.2889C25.4706 30.173 25.7778 29.748 25.8392 29.7287C25.8597 29.7094 26.3103 29.8253 26.2079 29.9412Z" fill="#3A2C36"/>
<path d="M26.0645 29.2266C25.8187 29.4391 25.491 29.6902 25.4501 29.7868C25.3886 29.8834 25.1019 30.405 25.0405 30.4243C24.9585 30.4436 24.6923 30.4436 24.7128 30.3084C24.7332 30.1732 25.0609 29.5936 25.1838 29.4971C25.3067 29.3812 25.6549 28.9948 25.6959 28.9948C25.7573 28.9755 26.2079 29.13 26.0645 29.2266Z" fill="#3A2C36"/>
<path d="M38.5581 5.81444C38.9677 4.71337 39.0087 3.68957 38.5376 3.51572C38.0666 3.34186 37.2883 4.07591 36.8377 5.15766C36.3666 6.23941 35.8341 7.51434 36.3257 7.68819C36.7762 7.88136 38.1075 7.03141 38.5581 5.81444Z" fill="#3F8E8C"/>
<path d="M29.6692 5.09972C29.5054 7.39844 30.9391 8.69268 33.2944 8.9438C35.998 9.21424 37.7594 7.51434 38.0666 5.0804C38.3533 2.85894 38.3123 -0.135191 35.0353 2.77348e-05C32.6595 0.0966128 29.8945 2.14422 29.6692 5.09972Z" fill="#FFB339"/>
<path d="M30.1403 4.52027C30.1403 4.30779 30.1813 4.0953 30.2017 3.88281C30.0379 4.30779 29.9355 4.75208 29.8945 5.21569C29.7307 7.30192 31.0415 8.46094 33.1715 8.69275C33.4787 8.73138 33.7655 8.73138 34.0317 8.71206C31.574 8.32572 30.0379 6.91558 30.1403 4.52027Z" fill="#FFC952"/>
<path d="M36.1823 3.43848C36.8377 3.43848 37.4726 3.34189 38.0256 3.18736C37.9642 1.5261 37.3497 5.19827e-05 35.0353 0.096637C34.0113 0.135271 32.9053 0.560245 31.9836 1.27497C32.3523 2.51126 34.0932 3.43848 36.1823 3.43848Z" fill="#FFE048"/>
<path d="M37.3088 5.31238H38.0461C38.3533 3.94087 38.3328 2.64663 37.8822 1.58419C36.5305 0.753562 34.1546 0.869464 32.6185 2.31824C31.062 3.80565 31.4921 6.04642 31.4921 6.04642C33.4173 5.08057 36.0799 5.11921 37.3088 6.06574V5.31238Z" fill="#FFFAD7"/>
<path d="M34.6667 7.7463L32.5571 6.66455C31.9017 7.47587 30.5294 8.51898 29.6692 8.57693L33.4173 10.9722C33.192 9.52347 34.6667 7.7463 34.6667 7.7463Z" fill="#3A2C36"/>
<path d="M27.9898 19.4328C27.9898 17.8874 31.1234 12.7491 33.2739 11.8219C34.892 11.1458 33.786 16.3614 30.2222 22.311L27.9898 19.4328Z" fill="#3D97C9"/>
<path d="M27.6825 28.8213C29.3006 27.3918 30.3861 21.8865 30.5499 21.2683C30.7138 20.6502 28.6656 17.9265 28.0717 18.8344C27.3344 19.9934 26.4741 27.3918 26.3103 27.8748C26.1669 28.3577 27.0476 29.3815 27.6825 28.8213Z" fill="#3D97C9"/>
<path d="M26.5765 26.7734C26.5765 26.7734 26.126 27.6813 26.126 27.9325C26.126 28.1836 26.5151 29.0142 27.1705 29.0335C27.8259 29.0528 28.5837 28.029 28.5837 28.029L26.5765 26.7734Z" fill="#3A2C36"/>
<path d="M26.6585 20.9783C24.5284 23.2384 23.0128 34.3843 23.0128 34.3843C23.0128 34.3843 21.0671 40.952 21.2309 47.2301H21.4153C21.702 43.5212 25.3682 34.9251 25.3682 34.9251L29.1367 24.1849C29.1572 24.1849 28.7885 18.7375 26.6585 20.9783Z" fill="#63B7E0"/>
<path d="M23.2586 34.964C23.2586 34.964 26.638 20.5728 26.126 21.0944C23.9959 23.3545 22.8694 34.2879 22.8694 34.2879C22.8694 34.2879 21.0671 40.9523 21.2309 47.2303H21.3743C21.4357 41.3193 23.2586 34.964 23.2586 34.964Z" fill="#3D97C9"/>
<path d="M21.4357 21.8089C19.3057 24.069 17.7901 35.2149 17.7901 35.2149C17.7901 35.2149 15.8648 41.7247 16.0287 47.9834L16.1925 48.0414C16.4793 44.3325 20.1454 35.7365 20.1454 35.7365L23.4019 27.604L25.2453 27.1211L27.7645 20.476C27.7849 20.4567 23.5658 19.5488 21.4357 21.8089Z" fill="#63B7E0"/>
<path d="M20.8213 23.6246C25.1224 22.6201 28.1331 23.7985 28.85 25.0348L29.362 23.6053L27.9488 22.3304L23.5043 21.3452L21.4972 22.002L20.8213 23.6246Z" fill="#3D97C9"/>
<path d="M18.425 35.6784C18.425 35.6784 20.3912 24.0688 22.6032 21.7315C23.4019 20.8815 24.4465 20.4759 25.4706 20.2827C24.1393 20.3213 22.3984 20.4952 21.3333 21.6349C19.2033 23.895 17.6877 35.1761 17.6877 35.1761C17.6877 35.1761 15.8648 41.7053 16.0287 47.964L16.172 48.0026C16.4383 41.8019 18.425 35.6784 18.425 35.6784Z" fill="#3D97C9"/>
<path d="M32.6595 3.70888C32.2908 4.65541 31.4511 7.78477 32.3728 8.53813C33.2944 9.29149 36.0594 8.26769 36.7148 7.47569C37.3702 6.6837 38.1485 4.44292 37.5341 3.61229C36.9196 2.78166 32.6595 3.70888 32.6595 3.70888Z" fill="#51404B"/>
<path d="M33.2535 8.28714C32.3523 7.55309 33.151 4.55896 33.5197 3.53516C33.0077 3.63174 32.6595 3.70901 32.6595 3.70901C32.2908 4.65554 31.3077 7.84285 32.2294 8.59621C32.7414 9.02118 33.9908 8.8087 34.9739 8.48031C34.2775 8.59621 33.6221 8.57689 33.2535 8.28714Z" fill="#3A2C36"/>
<path d="M33.704 3.49652C33.3559 4.71349 32.9462 7.08948 33.7655 7.74626C34.3185 8.20987 35.404 8.1326 36.2437 7.53377C37.0425 6.97358 38.169 4.44305 37.534 3.57378C37.1244 3.03291 35.0148 3.28403 33.704 3.49652Z" fill="#FFB882"/>
<path d="M34.8305 5.79541C34.8305 5.79541 34.1751 6.66468 35.1787 6.87716C36.2028 7.08965 36.4895 6.18175 36.4895 6.18175L34.8305 5.79541Z" fill="#3F242A"/>
<path d="M36.1413 6.60666C36.3461 6.41349 36.4076 6.18169 36.4076 6.18169L34.8715 5.83398C34.8715 5.83398 34.7076 6.06579 34.6871 6.29759L36.1413 6.60666Z" fill="#FFFCE3"/>
<path opacity="0.6" d="M33.8474 5.89182C35.1377 5.89182 36.3052 6.18158 37.2063 6.64518C37.6365 5.69865 37.9642 4.40441 37.616 3.709C37.5955 3.67037 37.575 3.61241 37.534 3.57378C37.5136 3.53515 37.4726 3.51583 37.4521 3.4772C37.4521 3.4772 37.4316 3.45788 37.4112 3.45788C37.3907 3.43856 37.3497 3.41924 37.3292 3.39993C37.3088 3.39993 37.3088 3.38061 37.2883 3.38061C37.2473 3.36129 37.1859 3.34198 37.1449 3.32266H37.1244C37.0835 3.30334 37.022 3.30334 36.9811 3.28403C36.9606 3.28403 36.9401 3.28403 36.9196 3.26471C36.8786 3.26471 36.8172 3.24539 36.7762 3.24539C36.7558 3.24539 36.7353 3.24539 36.7353 3.24539C36.6738 3.24539 36.5919 3.22607 36.5305 3.22607C36.51 3.22607 36.4895 3.22607 36.469 3.22607C36.4076 3.22607 36.3461 3.22607 36.2847 3.22607C36.2642 3.22607 36.2437 3.22607 36.2028 3.22607C36.1413 3.22607 36.0799 3.22607 35.9979 3.22607C35.9775 3.22607 35.957 3.22607 35.957 3.22607C35.8751 3.22607 35.7931 3.22607 35.7112 3.24539C35.6907 3.24539 35.6702 3.24539 35.6498 3.24539C35.5883 3.24539 35.5064 3.24539 35.445 3.26471C35.4245 3.26471 35.404 3.26471 35.363 3.26471C35.2811 3.26471 35.1992 3.28403 35.1173 3.28403C35.0353 3.28403 34.9329 3.30334 34.851 3.32266C34.8305 3.32266 34.81 3.32266 34.7896 3.32266C34.7076 3.32266 34.6462 3.34198 34.5643 3.34198C34.5438 3.34198 34.5233 3.34198 34.5233 3.34198C34.339 3.36129 34.1751 3.39993 34.0113 3.41924C33.9908 3.41924 33.9908 3.41924 33.9703 3.41924C33.8884 3.43856 33.8269 3.43856 33.745 3.45788C33.4787 3.49651 33.233 3.55446 33.0691 3.5931C33.0282 3.5931 32.9872 3.61241 32.9462 3.61241C32.9053 3.61241 32.8848 3.63173 32.8643 3.63173C32.8643 3.63173 32.8643 3.63173 32.8438 3.63173C32.8233 3.63173 32.8029 3.65105 32.7824 3.65105C32.7619 3.65105 32.7619 3.65105 32.7414 3.65105C32.7414 3.65105 32.7414 3.65105 32.7209 3.65105H32.7005C32.5161 4.09534 32.2089 5.08051 32.0246 6.04636C32.5571 5.96909 33.192 5.89182 33.8474 5.89182Z" fill="#843131"/>
<path d="M31.7583 5.64055C33.9498 4.46222 37.3292 5.08036 38.0256 6.62572C38.722 5.54397 39.1111 3.84407 38.3123 2.743C37.2883 1.31354 34.7691 1.17832 32.8643 2.743C31.533 3.84407 31.7583 5.64055 31.7583 5.64055Z" fill="#3F8E8C"/>
<path d="M31.8198 5.37043C34.1137 4.21141 37.4931 4.90682 38.2304 6.45218C38.9677 5.37043 39.3569 3.67053 38.5376 2.56946C37.4726 1.14 34.7076 1.17864 32.9872 2.58878C31.7378 3.61258 31.8198 5.37043 31.8198 5.37043Z" fill="#7FC6C9"/>
<path d="M43.5965 25.9235C40.9954 29.8256 10.7035 55.5558 10.7035 55.5558L11.2565 55.8649C11.2565 55.8649 42.8592 31.8732 46.4639 26.9087C47.447 25.5565 48.7783 23.6248 47.3855 22.7169C45.9928 21.8283 44.5796 24.4361 43.5965 25.9235Z" fill="#51404B"/>
<path d="M37.2473 22.9101C36.1208 24.4941 8 55.7683 8 55.7683L8.59396 56.0194C8.59396 56.0194 38.3328 26.7348 40.2376 23.6055C41.0978 22.1953 42.3881 20.3023 41.1592 19.5875C40.0532 18.9501 38.6605 20.9397 37.2473 22.9101Z" fill="#51404B"/>
<path d="M31.3897 8.80849C30.3246 8.3642 28.6042 8.48011 27.0886 9.17552C25.5934 9.87093 24.2212 14.3718 23.1971 15.724C22.1731 17.0762 20.1864 21.9827 20.8008 22.7361C22.5212 20.9782 30.2017 22.9485 28.9319 24.6291C29.9764 24.3587 30.4066 19.3363 31.7788 18.0034C32.4752 17.3273 34.1751 12.981 33.9908 11.8992C33.8065 10.914 32.4752 9.2721 31.3897 8.80849Z" fill="#97DCFF"/>
<path d="M26.126 16.0912C26.126 16.0912 28.3994 12.4016 28.1126 9.56201C26.7609 10.7403 24.1393 14.4878 23.1971 15.7241C22.1731 17.0763 19.8792 22.2533 20.4936 23.0067C22.214 21.2488 30.2017 22.9487 28.9319 24.6293C29.3006 24.5327 29.6078 23.8373 29.8945 22.9101C29.0753 23.1612 27.8054 22.4851 26.2898 22.1181C21.4767 20.9784 24.9585 15.2026 29.7307 17.7331C30.2632 18.0229 30.7752 18.4478 30.8981 19.5875C31.1439 18.9114 31.4306 18.3319 31.7788 18.0035C31.8198 17.9649 31.8812 17.8876 31.9427 17.8104L26.126 16.0912Z" fill="#71C8F4"/>
<path opacity="0.6" d="M24.5899 17.6751C26.3513 16.0911 28.297 11.5709 28.1126 9.73581C28.1126 9.67785 28.0922 9.63922 28.0922 9.60059C26.7199 10.8176 24.1393 14.5071 23.1971 15.7241C22.1731 17.0763 19.8792 22.2532 20.4936 23.0066C20.6984 22.7941 21.0056 22.6396 21.3743 22.5237C22.5827 19.4136 23.2176 18.9114 24.5899 17.6751Z" fill="#316182"/>
<path d="M19.8996 16.7672C20.2888 15.0673 24.467 9.90962 27.0067 9.17558C29.5463 8.46085 27.2524 13.1549 26.3717 14.6809C25.5115 16.207 20.9442 20.4953 20.9442 20.4953L19.8996 16.7672Z" fill="#63B7E0"/>
<path d="M22.5417 13.1934C23.4429 12.0924 24.5079 10.9333 25.4706 9.98682C23.0538 11.6867 20.2069 15.3763 19.8996 16.7671L20.0225 17.2114C20.4731 16.0717 21.3743 14.6036 22.5417 13.1934Z" fill="#3D97C9"/>
<path d="M26.126 14.8934C24.385 16.9796 21.8454 18.7761 20.555 19.1238L20.9442 20.4953C20.9442 20.4953 25.5115 16.1876 26.3717 14.6809C26.4537 14.5457 26.5356 14.3911 26.638 14.2173C26.4741 14.4491 26.3103 14.6809 26.126 14.8934Z" fill="#3D97C9"/>
<path d="M17.1347 27.1404C19.2238 25.7883 21.8044 19.8193 22.1526 19.1625C22.4803 18.5057 21.0056 15.2025 20.1454 16.1298C19.0599 17.3081 16.213 25.4019 15.9263 25.9042C15.619 26.4257 16.3154 27.6813 17.1347 27.1404Z" fill="#63B7E0"/>
<path d="M23.5044 17.7333C23.2791 17.6754 22.5212 17.8106 22.0297 18.2742C21.3333 18.9503 18.5274 25.7885 16.5202 27.16C16.4997 27.1793 16.4793 27.1793 16.4383 27.1987C16.6431 27.2952 16.8889 27.3146 17.1347 27.1407C19.2238 25.7885 21.9273 19.8968 22.2755 19.24C22.3574 19.0469 23.2586 18.3128 23.5044 17.7333Z" fill="#3D97C9"/>
<path d="M15.9468 26.4643C16.3154 25.8268 19.4491 17.7523 20.8008 15.6081C20.596 15.4922 20.3093 15.8592 20.1249 16.0524C19.0394 17.2307 16.213 25.4018 15.9263 25.9041C15.8239 26.0586 15.8443 26.3097 15.9263 26.5415C15.9263 26.5222 15.9263 26.4836 15.9468 26.4643Z" fill="#3D97C9"/>
<path d="M33.0896 2.83959C34.9739 1.35218 37.5136 1.46808 38.64 2.72369C38.5991 2.66574 38.5786 2.60779 38.5376 2.56915C37.4726 1.1397 34.851 0.985159 32.8848 2.53052C31.4716 3.63159 31.7583 5.64056 31.7583 5.64056C31.8402 5.60192 31.9222 5.38944 32.0041 5.3508C32.0246 4.75198 32.1065 3.59295 33.0896 2.83959Z" fill="#3F8E8C"/>
<path d="M38.169 6.33594C38.1895 6.37457 38.2099 6.41321 38.2304 6.45184L38.2509 6.43252C38.2099 6.39389 38.1895 6.35525 38.169 6.33594Z" fill="#3F8E8C"/>
<path d="M31.4101 8.71225C30.8571 8.48045 30.1198 8.49976 29.362 8.55772C30.7343 9.81332 31.5125 12.1893 31.5125 13.387C31.5125 13.387 32.9053 12.4984 33.7655 11.3007C33.3149 10.3349 32.2908 9.07927 31.4101 8.71225Z" fill="#3A2C36"/>
<path d="M22.0502 27.063C22.767 27.2175 23.4224 27.7005 23.4224 27.7005L24.938 27.3527L26.5561 26.271C24.8561 27.1016 23.8321 27.3141 22.0502 27.063Z" fill="#3D97C9"/>
<g opacity="0.57">
<path opacity="0.57" d="M24.3236 17.1535C23.8525 16.1104 23.0128 14.5264 21.9683 13.4253C21.3333 14.198 20.596 15.2218 20.1659 16.1104C21.0056 17.0955 21.8044 18.3705 22.3164 19.2204C22.9104 18.6023 23.6477 17.8682 24.3236 17.1535Z" fill="#FFFAD7"/>
<path opacity="0.57" d="M27.0886 13.3287C26.6175 12.3822 25.9416 11.1845 25.1224 10.2573C24.3031 10.8755 23.5043 11.6675 22.8489 12.4015C23.832 13.4833 24.8356 15.0673 25.3886 15.9945C26.085 15.1832 26.3717 14.7968 27.0886 13.3287Z" fill="#FFFAD7"/>
</g>
<path d="M31.7378 12.5366C30.468 17.2693 29.362 17.1148 29.362 17.1148L29.2596 17.0954L29.2391 17.192C29.2186 17.25 27.9488 22.2338 26.7814 22.7746L27.0271 22.8326C28.1536 21.9826 29.2596 17.9261 29.4234 17.3079C29.4849 17.3079 29.5873 17.2886 29.6897 17.2113C30.2222 16.9216 31.0415 15.8785 31.9426 12.5946L31.7378 12.5366Z" fill="#3A2C36"/>
<path d="M16.1311 25.209C16.1311 25.209 15.6805 26.1169 15.6805 26.368C15.6805 26.6191 16.0696 27.4498 16.725 27.4691C17.3804 27.4884 18.1382 26.4646 18.1382 26.4646L16.1311 25.209Z" fill="#3A2C36"/>
<path d="M25.9621 42.3818V44.468C30.468 40.9137 35.2401 37.0889 39.0702 33.8437V30.5791C35.6293 33.8437 30.7343 38.2093 25.9621 42.3818Z" fill="#AA6B97"/>
<path d="M18.5888 46.0711C21.661 42.9997 25.0814 39.5806 28.2765 36.3353V33.1094C25.2043 36.5478 21.7634 40.4112 18.5888 43.9462V46.0711Z" fill="#AA6B97"/>
<path d="M33.6631 4.4432C33.7245 3.70916 33.9089 3.03306 34.1342 2.49219C33.8884 2.58877 33.6426 2.70467 33.4378 2.85921C32.4137 3.55462 32.3523 4.8875 32.3523 4.8875C32.7619 4.71364 33.2125 4.63637 33.6631 4.61706C33.6426 4.53979 33.6631 4.50116 33.6631 4.4432Z" fill="#A1E2E2"/>
<path d="M38.4147 2.82063C38.1895 2.51155 37.8617 2.27975 37.4726 2.14453C37.6979 2.80131 37.8413 3.63194 37.8413 4.52052C37.8413 4.84891 37.8208 5.1773 37.7798 5.50569C37.9437 5.66023 38.0666 5.81476 38.1485 5.98862C38.7629 5.10003 39.0701 3.70921 38.4147 2.82063Z" fill="#A1E2E2"/>
<path d="M30.4066 4.01827C30.4885 3.7092 30.509 3.45808 30.4475 3.45808C30.4066 3.43876 30.2837 3.68988 30.2222 3.97964C30.1403 4.28871 30.1198 4.53983 30.1813 4.53983C30.2427 4.55915 30.3451 4.32734 30.4066 4.01827Z" fill="#51404B"/>
<path d="M30.9595 3.28389C31.0415 2.97482 31.062 2.7237 31.0005 2.7237C30.9596 2.70438 30.8367 2.95551 30.7752 3.24526C30.6933 3.55433 30.6728 3.80545 30.7343 3.80545C30.7752 3.82477 30.8776 3.59297 30.9595 3.28389Z" fill="#51404B"/>
<path d="M16.766 28.222L15.2709 27.2368C15.5576 27.005 15.9263 26.4448 15.9877 26.271L17.36 26.8505C17.3804 26.8505 16.8274 27.6039 16.766 28.222Z" fill="#3A2C36"/>
<path d="M16.8274 27.6041C16.8479 27.72 16.766 28.0677 16.766 28.3188C16.766 28.6279 17.2575 29.5551 17.1756 29.6517C17.0527 29.7676 16.807 29.7483 16.725 29.6903C16.6431 29.6324 16.2949 28.6858 16.1516 28.7245C15.9263 28.8017 15.7419 29.246 15.619 29.2653C15.3733 29.3233 14.8408 28.4733 14.7383 28.2222C14.6359 27.9711 15.0251 27.2757 15.5986 27.0439C15.8239 26.9473 16.8274 27.6041 16.8274 27.6041Z" fill="#3A2C36"/>
<path d="M16.0287 28.7629C15.8443 29.014 15.5781 29.3424 15.5576 29.439C15.5371 29.5356 15.3528 30.1151 15.2913 30.1344C15.2299 30.1731 14.9636 30.2117 14.9432 30.0765C14.9432 29.9413 15.1275 29.3038 15.2094 29.1879C15.2913 29.0527 15.5576 28.6084 15.5986 28.5891C15.66 28.5698 16.1311 28.6277 16.0287 28.7629Z" fill="#3A2C36"/>
<path d="M15.5781 28.4153C15.3733 28.6471 15.066 28.9369 15.0251 29.0335C14.9841 29.1301 14.7383 29.6709 14.6769 29.7096C14.595 29.7289 14.3287 29.7482 14.3492 29.613C14.3697 29.4778 14.6359 28.8789 14.7383 28.763C14.8408 28.6471 15.148 28.2222 15.2094 28.2028C15.2299 28.1642 15.6805 28.2801 15.5781 28.4153Z" fill="#3A2C36"/>
<path d="M15.4347 27.7003C15.1889 27.9127 14.8612 28.1639 14.8203 28.2605C14.7588 28.357 14.4721 28.8786 14.4106 28.8979C14.3287 28.9172 14.0625 28.9172 14.0829 28.782C14.1034 28.6468 14.4311 28.0673 14.554 27.9707C14.6769 27.8548 15.0251 27.4685 15.066 27.4685C15.1275 27.4298 15.5781 27.5844 15.4347 27.7003Z" fill="#3A2C36"/>
</g>
<defs>
<clipPath id="clip0">
<rect width="40" height="56" fill="white" transform="translate(8)"/>
</clipPath>
</defs>
</svg>
