<svg width="56" height="56" viewBox="0 0 56 56" fill="none" xmlns="http://www.w3.org/2000/svg">
<g clip-path="url(#clip0)">
<g clip-path="url(#clip1)">
<path d="M38.8765 16.4778C38.7243 16.119 37.477 15.6456 36.5476 16.2847C35.6182 16.9238 35.3554 18.4227 35.4902 18.7713C35.8267 19.6134 39.2305 17.3302 38.8765 16.4778Z" fill="#215B6D"/>
<path d="M38.1022 18.7439C37.7901 17.4824 37.9657 16.3896 38.4823 16.2705C38.224 15.2164 38.0515 14.0367 37.7426 12.7302C37.1185 10.2073 35.1653 7.40914 33.6154 7.76649C32.0654 8.12383 31.8282 9.77837 32.505 11.9336C33.0001 13.5017 35.3196 17.8275 36.7613 20.0796L38.33 19.4519C38.2311 19.2415 38.1528 18.9963 38.1022 18.7439Z" fill="#FFAE85"/>
<path d="M39.4944 17.3212C38.8878 17.0358 36.2104 16.697 35.9422 17.4893C35.7316 18.1044 36.0594 19.5978 36.8956 20.3694C38.9144 22.2212 42.8454 21.6305 46.7371 23.115L46.7478 22.6992C44.8142 21.9759 42.6498 18.8195 39.4944 17.3212Z" fill="#FFAE85"/>
<path d="M38.7551 20.0642C37.8156 19.4079 37.5911 17.7992 37.8017 17.1841C37.8151 17.1216 37.8598 17.0658 37.9081 17.0237C37.0125 16.651 35.802 16.8909 35.6527 17.3426C35.4422 17.9577 36.0594 19.5974 36.8992 20.3828C38.9179 22.2347 42.849 21.6439 46.7407 23.1284L46.746 22.9206C43.1823 21.6165 39.7993 20.782 38.7551 20.0642Z" fill="#FFAE85"/>
<path d="M38.8765 16.4778C38.5725 15.3618 38.2854 13.7398 37.934 12.3263C37.3238 9.79975 35.0772 7.23991 33.5272 7.59726C31.9773 7.9546 31.0642 9.79902 31.741 11.9543C32.1363 13.1942 33.9146 16.2884 35.5993 18.507C35.9784 17.2287 37.479 16.3384 38.8765 16.4778Z" fill="#2F8FAD"/>
<path d="M34.6334 18.035L35.5358 18.8337C36.453 17.5193 37.293 16.9918 38.8903 16.4747L38.8271 15.4881C35.5177 15.6227 34.6334 18.035 34.6334 18.035Z" fill="#78E4EF"/>
<path d="M47.442 22.6374C47.0089 22.3366 46.6036 22.0286 45.1542 21.9174L45.1051 22.2989C45.7296 22.6533 46.3605 23.3749 46.628 23.3793C46.7322 23.3818 47.6026 22.7433 47.442 22.6374Z" fill="#FFAE85"/>
<path d="M46.475 23.3597C46.6777 23.5137 46.8352 23.6647 46.9282 23.5668C47.0834 23.4234 46.9725 23.4521 46.7796 23.2218C46.5237 22.9194 46.475 23.3597 46.475 23.3597Z" fill="#FFAE85"/>
<path d="M47.1795 22.8233C47.3991 22.9286 47.9575 23.256 48.033 23.1479C48.1775 22.963 47.5601 22.6361 47.3302 22.5482C46.9714 22.4199 47.1795 22.8233 47.1795 22.8233Z" fill="#FFAE85"/>
<path d="M46.5527 22.6317C46.6533 22.1631 47.7954 22.5162 47.8978 22.2832C48.0717 21.8693 46.5821 21.9455 46.1621 21.9806C45.7559 22.0121 46.5527 22.6317 46.5527 22.6317Z" fill="#FFAE85"/>
<path d="M46.9424 23.1649C47.1415 23.3051 47.4833 23.482 47.5799 23.398C47.7351 23.2545 47.383 23.095 47.1804 22.941C46.8797 22.6944 46.9424 23.1649 46.9424 23.1649Z" fill="#FFAE85"/>
<path d="M14.344 19.8552C13.9552 19.8969 12.9645 18.472 13.0719 18.4295C13.1792 18.3869 19.1064 18.0755 19.1064 18.0755C19.1064 18.0755 15.295 19.7563 14.344 19.8552Z" fill="#B75160"/>
<path d="M35.9774 21.1089L34.9051 21.2539L35.1173 21.73L36.1859 21.5711L35.9774 21.1089Z" fill="#4F3535"/>
<path d="M39.4621 12.2846C39.2482 12.0303 38.9207 11.9086 38.7271 12.0178C38.5334 12.127 38.5357 12.4214 38.7496 12.6758C38.9634 12.9301 39.2909 13.0518 39.4846 12.9426C39.6783 12.8334 39.6621 12.5426 39.4621 12.2846Z" fill="#FF364E"/>
<path d="M39.4482 3.37867C36.8708 4.28248 36.3624 7.68888 36.3624 7.68888L42.417 6.78394L39.4482 3.37867Z" fill="#873426"/>
<path d="M34.8662 8.25393L39.8044 6.2959L39.3918 9.95775L34.7834 12.3319L34.8662 8.25393Z" fill="#FFCD9C"/>
<path d="M40.3448 4.32669C39.7456 7.21087 37.8155 8.27148 37.7679 9.28689C37.6913 11.0473 39.0162 12.5627 39.5132 13.0534C39.5132 13.0534 41.1007 12.1553 42.7882 10.7298C42.9814 10.5617 43.4122 10.5681 43.6018 10.3862C44.3809 9.62381 45.0718 8.69249 45.4595 7.6185C46.7207 4.09079 40.9307 1.50499 40.3448 4.32669Z" fill="#FFCD9C"/>
<path d="M44.3027 10.2931C44.067 10.3542 43.0352 8.99892 43.1411 8.7797C43.2435 8.54666 43.7472 8.54891 44.0054 8.68853C44.2635 8.82816 45.0099 10.1098 44.3027 10.2931Z" fill="#914637"/>
<path d="M40.8317 11.5169L41.8876 12.3939L43.408 10.0381L40.8317 11.5169Z" fill="#FFCD9C"/>
<path d="M43.0113 10.3916C43.2842 10.1882 43.4174 9.90287 43.3051 9.75496C43.1964 9.62087 42.8841 9.67227 42.6252 9.87212C42.3523 10.0756 42.2191 10.3609 42.3314 10.5088C42.4437 10.6567 42.7421 10.6089 43.0113 10.3916Z" fill="#563B40"/>
<path d="M39.3608 9.09516C39.0575 8.95248 38.6574 8.4366 38.6574 8.4366L40.9436 5.38086L42.2666 6.66065L39.3608 9.09516Z" fill="#873426"/>
<path d="M36.3656 7.64375C36.8433 7.43147 37.4394 8.58985 38.1788 8.53102C38.9182 8.47218 41.1887 7.41188 41.1887 7.41188L37.1508 6.33398L36.3656 7.64375Z" fill="#873426"/>
<path d="M37.803 8.45165C37.6679 8.04415 37.6487 6.48551 38.5242 6.4947C39.3858 6.50747 39.7313 7.61275 39.3047 8.13632C38.8677 8.67731 38.0416 9.20113 37.803 8.45165Z" fill="#FFCD9C"/>
<path d="M38.0589 8.29671C37.9805 8.0515 37.966 7.0817 38.501 7.09058C39.036 7.09947 39.2567 7.77984 38.9848 8.10105C38.7303 8.4325 38.2084 8.75951 38.0589 8.29671Z" fill="#EF8F6F"/>
<path d="M38.1327 8.4107C38.0795 8.26224 38.0713 7.65957 38.4014 7.67729C38.728 7.68118 38.8667 8.10251 38.6981 8.30845C38.5398 8.49698 38.2218 8.69739 38.1327 8.4107Z" fill="#FFCD9C"/>
<path d="M39.8114 7.63613C39.8114 7.63613 38.9687 10.4949 38.8868 12.4632L39.115 12.7728C39.115 12.7728 40.0582 9.44553 40.9566 7.94418L39.8114 7.63613Z" fill="#FF364E"/>
<path opacity="0.5" d="M44.3027 10.2928C44.4414 10.2569 44.5935 10.1585 44.5948 9.87786C44.5903 9.74627 44.5576 9.56298 44.4622 9.36642C44.7815 8.88541 45.1111 8.38699 45.319 7.87585L37.346 5.08863C36.5943 6.24221 36.3713 7.4948 36.3414 7.66482L34.8524 8.25715L34.8302 9.4282C37.7531 11.3998 41.9051 10.6338 43.9256 10.0365C44.1287 10.2494 44.275 10.3 44.3027 10.2928Z" fill="#BC5642"/>
<path d="M38.4941 16.8871C38.3697 16.521 37.143 16.0128 36.1755 16.6765C35.2219 17.3366 34.9006 18.895 35.0251 19.261C35.3272 20.1415 38.8034 17.7952 38.4941 16.8871Z" fill="#215B6D"/>
<path d="M14.6635 16.2911C14.5997 17.0156 14.8003 17.7897 15.2151 18.4198C15.6335 19.0637 16.2379 19.5118 16.8852 19.6686C20.3098 20.4924 25.1479 21.2892 27.8796 22.8088C29.2088 23.5412 29.4182 19.6665 29.186 19.2841C27.8735 17.1313 18.4175 13.9318 17.083 13.4073C16.1596 13.0417 14.8662 14.2177 14.6635 16.2911Z" fill="#4F4343"/>
<path d="M24.6169 17.3556C24.7538 17.0841 25.0441 16.8909 25.4565 16.7693C22.1964 15.2096 17.954 13.7421 17.083 13.4073C16.1458 13.0453 14.8487 14.2074 14.6496 16.2946C14.5858 17.0192 14.7864 17.7933 15.2012 18.4234C15.6196 19.0672 16.224 19.5154 16.8714 19.6722C20.2959 20.496 25.134 21.2928 27.8657 22.8124C28.5252 23.1873 28.9679 20.2699 29.1587 19.3502C27.8555 18.8323 27.3148 19.4297 25.827 19.7414C24.7624 19.973 24.316 17.9646 24.6169 17.3556Z" fill="#3F3131"/>
<path d="M28.76 18.5538C25.7629 19.0943 24.9739 21.7032 24.9739 21.7032L26.2762 22.1033L29.3302 19.9549C29.7613 19.5629 28.76 18.5538 28.76 18.5538Z" fill="#FFE4A9"/>
<path d="M28.5044 20.0801C28.2798 19.7842 27.6551 18.9725 26.5307 19.5442C25.3535 20.4835 24.9703 21.689 24.9703 21.689L26.2726 22.0892L29.3024 19.9618C29.0528 20.0265 28.666 20.3037 28.5044 20.0801Z" fill="#FFC571"/>
<path d="M29.5569 19.6303C28.9957 18.4923 25.8277 21.1718 25.5044 21.5801C25.1672 21.9919 25.6002 30.745 25.0831 33.0326L25.407 33.1404C26.2807 31.144 30.1181 20.7682 29.5569 19.6303Z" fill="#FFCD9C"/>
<path d="M27.0552 20.8833C27.3034 20.6419 28.5758 19.4419 29.564 19.6579C29.564 19.6579 29.5605 19.6441 29.5569 19.6303C28.9957 18.4924 25.8278 21.1718 25.5044 21.5801C25.1672 21.992 25.6002 30.745 25.0831 33.0326L25.3408 33.1134C26.0739 30.46 26.6898 21.2434 27.0552 20.8833Z" fill="#FFAE85"/>
<path d="M27.1447 34.1362L24.7523 33.812C24.7523 33.812 24.7552 32.8524 25.2719 32.7333C25.7988 32.5968 27.1447 34.1362 27.1447 34.1362Z" fill="#FFEECC"/>
<path d="M26.4169 34.3544L25.9718 34.2927L25.0964 38.7382L25.9866 38.8616L26.4169 34.3544Z" fill="#FFB948"/>
<path d="M24.4124 34.3278L26.9319 34.914L27.2091 33.9277L24.4114 33.7527L24.4124 34.3278Z" fill="#DBB88A"/>
<path d="M47.5194 22.7647L42.1341 23.511C40.021 23.8078 38.5258 20.95 38.4484 20.8226L39.0885 20.4945C39.0956 20.5221 40.4247 23.0246 42.0382 22.7983L47.4133 22.0694L47.5194 22.7647Z" fill="#4F3535"/>
<path d="M47.2181 23.7722L41.8328 24.5185C39.7058 24.8189 38.2106 21.9611 38.1471 21.8301L38.7872 21.502C38.7943 21.5296 40.1234 24.0321 41.7369 23.8058L47.1222 23.0595L47.2181 23.7722Z" fill="#4F3535"/>
<path d="M37.1589 21.6142L35.6461 21.8292L35.7419 22.5419L37.2548 22.3269C37.9244 22.2271 38.5423 22.6128 39.0496 23.0862C39.1556 22.8669 39.2965 22.6682 39.4584 22.4935C38.8392 21.9311 38.0437 21.4882 37.1589 21.6142Z" fill="#4F3535"/>
<path d="M42.1371 35.916C42.2253 36.5422 42.8123 36.9801 43.444 36.905C44.072 36.816 44.5121 36.23 44.4238 35.6038C44.3356 34.9776 43.7486 34.5397 43.1169 34.6148C42.5028 34.7002 42.0453 35.276 42.1371 35.916Z" fill="#5B4545"/>
<path d="M21.9109 38.7227C21.1417 33.1839 15.9912 29.2966 10.4359 30.0722C4.88057 30.8478 0.974596 35.9901 1.74381 41.5288C2.51302 47.0676 7.66355 50.9549 13.2189 50.1793C18.7777 49.4175 22.6837 44.2753 21.9109 38.7227ZM20.3842 38.9412C21.0392 43.6393 17.7316 48.007 13.0159 48.6536C8.3038 49.3139 3.92907 46.0222 3.28797 41.3205C2.633 36.6224 5.9406 32.2547 10.6563 31.6082C15.3684 30.9478 19.7257 34.2293 20.3842 38.9412Z" fill="#FFB948"/>
<path d="M53.3761 34.3462C52.6069 28.8074 47.4563 24.9201 41.901 25.6957C36.3457 26.4713 32.4398 31.6136 33.209 37.1524C33.9643 42.6947 39.1148 46.582 44.684 45.8028C50.2393 45.0272 54.1453 39.885 53.3761 34.3462ZM51.8319 34.5545C52.4869 39.2526 49.1793 43.6203 44.4636 44.2669C39.7515 44.9272 35.3768 41.6355 34.7357 36.9338C34.0807 32.2357 37.3883 27.868 42.104 27.2215C46.8161 26.5611 51.1908 29.8529 51.8319 34.5545Z" fill="#FFB948"/>
<path d="M34.9792 33.4192C35.8853 30.2342 38.6028 27.701 42.1004 27.2078C46.8125 26.5474 51.1872 29.8392 51.8283 34.5409C51.8987 35.0979 51.9239 35.6519 51.9003 36.1891C52.3862 37.0367 52.7166 37.9689 52.8425 38.9689C52.8568 39.0242 52.8537 39.0692 52.8541 39.1281C53.3844 37.6336 53.5835 36.0037 53.3551 34.3223C52.5858 28.7835 47.4353 24.8962 41.88 25.6718C37.0673 26.3435 33.4889 30.2946 33.1258 34.9467C33.6808 34.4046 34.302 33.8897 34.9792 33.4192Z" fill="#FF983B"/>
<path d="M53.7335 34.2979C52.928 28.562 47.6097 24.5412 41.8392 25.343C36.0826 26.1413 32.0461 31.4649 32.8377 37.2044C33.6293 42.9439 38.9615 46.9611 44.7181 46.1629C50.4886 45.361 54.5251 40.0374 53.7335 34.2979ZM53.0187 34.3946C53.7552 39.7501 49.9937 44.7074 44.6222 45.4502C39.2508 46.1929 34.2855 42.4494 33.5489 37.0939C32.8124 31.7384 36.5739 26.781 41.9454 26.0383C47.303 25.2992 52.2822 29.0391 53.0187 34.3946Z" fill="#664E4E"/>
<path d="M3.24638 39.1039C3.7171 35.3237 6.66931 32.1544 10.6389 31.5979C15.3509 30.9376 19.7257 34.2293 20.3668 38.931C20.4479 39.5295 20.4699 40.1286 20.4293 40.7144C20.9412 41.3193 21.3632 41.977 21.6742 42.6635C22.0014 41.4134 22.0986 40.0753 21.9109 38.7226C21.1417 33.1839 15.9912 29.2966 10.4359 30.0722C5.06444 30.8149 1.23937 35.6412 1.67348 40.9718C2.08489 40.2752 2.61844 39.6501 3.24638 39.1039Z" fill="#FF983B"/>
<path d="M22.2683 38.6741C21.4767 32.9346 16.1445 28.9174 10.3879 29.7156C4.63134 30.5139 0.594772 35.8375 1.38639 41.577C2.17801 47.3164 7.51019 51.3337 13.2668 50.5354C19.0234 49.7372 23.06 44.4135 22.2683 38.6741ZM21.5535 38.7708C22.29 44.1263 18.5285 49.0836 13.157 49.8263C7.78559 50.569 2.82029 46.8255 2.08377 41.47C1.34725 36.1145 5.10878 31.1572 10.4802 30.4145C15.8517 29.6718 20.817 33.4153 21.5535 38.7708Z" fill="#664E4E"/>
<path d="M35.1226 21.5219L43.0989 35.8582L43.4969 35.6813L36.4203 21.3332L35.1226 21.5219Z" fill="#71D7FF"/>
<path d="M43.2612 35.7426L35.807 21.5366L35.0645 21.6405L43.0988 35.8584L43.4831 35.6851L43.4723 35.6437L43.2612 35.7426Z" fill="#47B2E2"/>
<path d="M42.6506 35.8416C42.695 36.1842 43.0233 36.4236 43.3669 36.3788C43.7104 36.3341 43.951 36.0062 43.9067 35.6637C43.8623 35.3212 43.5339 35.0817 43.1904 35.1265C42.8468 35.1713 42.6027 35.4853 42.6506 35.8416Z" fill="#71D7FF"/>
<path d="M12.0567 39.2404C11.4286 39.3294 10.9134 39.6251 10.7595 39.9453L11.6443 39.8193L11.7214 40.3451L10.8366 40.4711C11.0854 40.7459 11.6526 40.8792 12.2806 40.7902C13.0823 40.6858 13.6901 40.2333 13.6381 39.8042C13.562 39.3961 12.8583 39.136 12.0567 39.2404Z" fill="#47B2E2"/>
<path d="M35.7784 21.426L34.151 21.6559L34.3878 22.1699L36.0151 21.94L35.7784 21.426Z" fill="#47B2E2"/>
<path d="M24.1816 36.3495L18.2588 20.7436L16.1067 20.9472L22.0823 36.6426L24.1816 36.3495Z" fill="#47B2E2"/>
<path d="M21.5867 39.0133C22.18 44.2731 18.4592 49.1019 13.1745 49.8369C7.80305 50.5796 2.83774 46.8361 2.10122 41.4806C1.93904 40.2835 2.00277 39.1017 2.25797 37.9735C2.11563 37.5384 2.00102 37.0961 1.91056 36.6327C1.36334 38.1758 1.16104 39.8508 1.40027 41.5737C2.19189 47.3132 7.52406 51.3304 13.2807 50.5322C19.0373 49.7339 23.0738 44.4103 22.2822 38.6708C22.2347 38.3733 22.1873 38.0759 22.112 37.7856C21.9556 38.2097 21.7781 38.6097 21.5867 39.0133Z" fill="#4F3535"/>
<path d="M38.5679 25.4529L36.78 26.0342L26.9357 40.297L12.124 40.2995L18.9453 24.5926L20.9891 24.3138L21.4162 25.6192L20.9026 25.6933L25.3442 36.6676L32.0109 26.075L31.4581 24.2269L23.061 25.3996L22.6339 24.0941L37.3464 22.0522L38.5679 25.4529ZM22.5379 38.0585L18.768 28.1345L13.2658 39.2809L13.8255 39.7849L22.5379 38.0585Z" fill="#69CAE8"/>
<path d="M26.0312 24.9838L26.1177 23.6043L22.6201 24.0975L23.0471 25.403L26.0312 24.9838Z" fill="#47B2E2"/>
<path d="M37.3187 22.0592L35.3165 22.3272L33.2113 31.2216L36.7975 26.0442L38.5679 25.4527L37.3187 22.0592Z" fill="#47B2E2"/>
<path d="M25.0149 40.3079L12.1414 40.3097L18.9628 24.6028L21.0066 24.324L21.4336 25.6294L20.9201 25.7035L25.2731 36.45L25.0149 40.3079ZM22.538 38.0585L18.768 28.1344L13.2658 39.2808L13.8255 39.7849L22.538 38.0585Z" fill="#47B2E2"/>
<path d="M31.2563 23.7333L22.8869 24.8987L23.0471 25.403L31.4165 24.2375L31.2563 23.7333Z" fill="#47B2E2"/>
<path d="M37.3187 22.0597L37.3151 22.0459L38.3835 24.97L36.6095 25.5476L26.7513 39.8141L12.3391 39.8164L12.1276 40.3137L26.9393 40.3111L36.7975 26.0447L38.5679 25.4532L37.3187 22.0597Z" fill="#47B2E2"/>
<path d="M15.739 14.7878C15.1236 15.1538 14.9484 15.8483 14.7629 16.5601C14.5774 17.272 14.7032 17.8146 15.0867 18.4381C17.0713 21.7001 20.3172 26.3464 21.2237 29.4452C21.6593 30.9549 24.4242 28.7192 24.5391 28.3059C25.2298 26.0028 20.4972 16.4756 19.889 15.0992C19.4612 14.1332 17.5268 13.7493 15.739 14.7878Z" fill="#4F4343"/>
<path d="M21.062 17.6273C20.4932 16.4029 20.6495 15.0643 20.4938 14.6917C20.0659 13.7257 17.5268 13.7493 15.739 14.7878C15.1236 15.1538 14.6594 15.7608 14.4739 16.4727C14.2884 17.1845 14.4089 17.9351 14.7749 18.5483C16.7595 21.8103 20.3172 26.3463 21.2098 29.4487C21.4525 30.2709 22.3672 29.9749 23.1866 29.4823C20.7965 22.7704 17.5562 19.288 21.062 17.6273Z" fill="#3F3131"/>
<path d="M24.4806 26.5952C24.4806 26.5952 21.1675 28.0289 20.9543 28.748C20.9543 28.748 21.0524 29.7551 21.6265 30.3144L24.5196 28.9157C24.5196 28.9157 24.8477 27.7834 24.4806 26.5952Z" fill="#FFE4A9"/>
<path d="M22.5116 27.563C21.7611 27.9787 21.049 28.4287 20.9543 28.7483C20.9543 28.7483 21.0524 29.7554 21.6265 30.3147L23.4156 29.4529C22.9749 29.0656 22.6326 28.3725 22.5116 27.563Z" fill="#FFC571"/>
<path d="M24.4239 16.2109C24.4239 16.2109 19.1929 10.4711 20.0673 9.90527C20.9556 9.33585 21.1866 7.77142 23.1315 7.28224C25.1042 6.78588 31.5075 5.62828 34.0142 6.79315C36.5208 7.95803 37.1473 10.7754 35.3331 11.9977C33.5431 13.1991 25.7589 12.7968 24.4239 16.2109Z" fill="#40BEDB"/>
<path d="M28.7639 9.25968C23.2406 11.4726 22.4144 9.31175 21.248 8.5224C20.8111 9.06338 20.5272 9.62373 20.0709 9.91895C19.1965 10.4848 17.0634 11.7898 15.3431 12.5748C14.2839 13.0557 15.6253 14.0062 14.3287 15.2272C13.3872 16.1055 15.1546 16.0163 17.0372 16.8856C18.9023 17.7447 24.4414 16.221 24.4414 16.221C26.336 12.8537 33.8246 13.657 35.6043 12.4731C36.7896 11.6792 34.7366 9.0102 33.92 7.62871C32.9197 7.65186 31.8319 8.02223 28.7639 9.25968Z" fill="#2F8FAD"/>
<path d="M33.6051 7.78408C32.0551 8.14142 30.383 10.1973 30.9668 12.4504C31.3894 14.0815 34.8888 18.2786 36.2309 20.6598L39.2054 19.4613C37.9552 17.7201 38.0188 15.6238 37.5118 12.9819C36.991 10.3437 35.1653 7.40933 33.6051 7.78408Z" fill="#FFCD9C"/>
<path d="M37.6093 19.2405C37.3594 17.9335 37.5797 16.7848 38.0964 16.6657C37.8863 15.5696 37.7622 14.3479 37.5082 12.9681C36.991 10.3437 35.1653 7.40933 33.6051 7.78408C32.0551 8.14142 30.383 10.1973 30.9668 12.4504C31.3894 14.0815 34.8888 18.2786 36.2309 20.6598L37.8237 20.011C37.7315 19.7694 37.6671 19.5206 37.6093 19.2405Z" fill="#FFAE85"/>
<path d="M39.0637 17.7721C38.4674 17.4693 35.8244 17.0921 35.5356 17.9192C35.3009 18.5553 35.5562 20.1117 36.3755 20.932C38.3012 22.8817 42.2425 22.2735 46.0551 23.8524L46.0899 23.4156C44.163 22.661 42.1364 19.3509 39.0637 17.7721Z" fill="#FFCD9C"/>
<path d="M38.2211 20.6305C37.316 19.9358 37.164 18.264 37.3813 17.6177C37.4086 17.5516 37.4394 17.4994 37.4877 17.4574C36.6162 17.0636 35.4058 17.3035 35.2323 17.7762C34.9976 18.4123 35.5495 20.1427 36.3513 20.9527C38.2771 22.9024 42.2184 22.2942 46.0309 23.8731L46.0465 23.6478C42.5552 22.2807 39.2206 21.4041 38.2211 20.6305Z" fill="#FFAE85"/>
<path d="M25.9257 36.3989C27.2298 36.5773 28.1493 37.7846 27.9545 39.0889C27.7736 40.3896 26.5615 41.3084 25.2539 41.1162C23.9499 40.9378 23.0304 39.7305 23.2252 38.4262C23.4061 37.1255 24.6217 36.2205 25.9257 36.3989ZM25.8601 36.8879C24.8169 36.7452 23.8637 37.4642 23.7052 38.5083C23.5604 39.5489 24.2799 40.4983 25.3267 40.6548C26.37 40.7975 27.3231 40.0786 27.4817 39.0344C27.6228 37.98 26.9033 37.0306 25.8601 36.8879Z" fill="#FFCF4A"/>
<path d="M25.4513 39.7079C25.9729 39.7793 26.4564 39.418 26.5288 38.8977C26.6012 38.3774 26.2396 37.8958 25.718 37.8245C25.1964 37.7531 24.7129 38.1144 24.6405 38.6347C24.5682 39.155 24.9297 39.6366 25.4513 39.7079Z" fill="#FFCF4A"/>
<path d="M11.8776 39.514L24.7856 36.3955L24.8459 36.6454L11.938 39.7638L11.8776 39.514Z" fill="#3A2626"/>
<path d="M11.9481 40.4445L25.0439 40.9102L25.0343 41.1671L11.9385 40.7014L11.9481 40.4445Z" fill="#3A2626"/>
<path d="M25.9356 36.3229C27.2884 36.5181 28.2325 37.7633 28.0346 39.1127C27.8367 40.462 26.5866 41.4055 25.2338 41.2102C23.881 41.0149 22.9369 39.7697 23.1348 38.4204C23.3327 37.071 24.5828 36.1276 25.9356 36.3229ZM25.9128 36.5205C24.6678 36.3416 23.5179 37.2148 23.3504 38.453C23.169 39.6948 24.0429 40.8402 25.2843 41.0054C26.5293 41.1843 27.6792 40.3111 27.8606 39.0693C28.0142 37.8347 27.1542 36.6857 25.9128 36.5205Z" fill="#493535"/>
<path d="M11.3138 40.1996C11.3546 40.5283 11.6656 40.7575 11.9953 40.7163C12.3249 40.6752 12.5552 40.3647 12.5145 40.036C12.4737 39.7073 12.1627 39.4781 11.8331 39.5193C11.5034 39.5605 11.2731 39.8709 11.3138 40.1996Z" fill="#5B4545"/>
<path d="M11.5984 40.1553C11.6275 40.3248 11.7814 40.4619 11.9652 40.429C12.1352 40.3997 12.2729 40.246 12.2403 40.0627C12.2111 39.8933 12.0572 39.7561 11.8734 39.789C11.6895 39.8219 11.5692 39.9858 11.5984 40.1553Z" fill="#FFB948"/>
<path d="M52.9605 34.0555C52.9752 34.1697 53.0039 34.2803 53.0187 34.3945C53.7552 39.75 49.9937 44.7073 44.6222 45.45C39.2508 46.1927 34.2855 42.4492 33.5489 37.0937C33.3653 35.8137 33.4527 34.552 33.7526 33.368C33.5767 33.0891 33.4112 32.7927 33.2595 32.4927C32.7811 33.959 32.6061 35.5679 32.8341 37.1904C33.6257 42.9299 38.9579 46.9471 44.7145 46.1489C50.4886 45.3609 54.5251 40.0372 53.7335 34.2978C53.6856 33.9414 53.6135 33.6061 53.5378 33.2569C53.3594 33.5392 53.1599 33.7974 52.9605 34.0555Z" fill="#4F3535"/>
<path d="M38.4941 16.8869C38.2348 15.715 38.0202 14.03 37.7274 12.5571C37.224 9.9291 35.1049 7.23298 33.5411 7.59392C31.9911 7.95126 30.9953 9.87612 31.5791 12.1292C31.9158 13.4286 33.5666 16.6591 35.1619 18.9894C35.5718 17.6589 37.1069 16.7301 38.4941 16.8869Z" fill="#40BEDB"/>
<path d="M33.7626 7.93513C32.1745 7.85982 30.0998 9.96098 30.7726 12.5008C31.1093 13.8001 33.4719 16.979 35.0671 19.3093C35.2602 18.684 35.813 17.8475 36.3067 17.4688C33.9566 14.1097 33.26 8.96515 33.7626 7.93513Z" fill="#2F8FAD"/>
<g opacity="0.6">
<path opacity="0.6" d="M29.7611 23.103L29.5011 24.498L30.9723 24.2938L31.4753 22.8654L29.7611 23.103Z" fill="white"/>
<path opacity="0.6" d="M29.9212 29.375L28.9092 31.009L29.294 33.5792L27.8015 39.0697L31.8545 33.1813L29.9212 29.375Z" fill="white"/>
<path opacity="0.6" d="M34.0604 22.5053L33.6475 22.5681L32.6253 26.9041L32.9743 31.5635L34.7399 29.0114L34.2438 26.8683L34.0604 22.5053Z" fill="white"/>
</g>
<path d="M24.3208 28.3771C23.557 27.5424 21.6224 30.2415 21.4344 31.5146C21.3517 32.0523 23.6904 40.6214 23.8447 43.0447L24.1852 43.045C24.4491 40.8083 25.1862 29.3182 24.3208 28.3771Z" fill="#FFCD9C"/>
<path d="M21.4998 31.8814C21.6878 30.6084 23.6059 28.0168 24.4435 28.965C24.4892 29.027 24.542 29.1165 24.5742 29.241C24.5084 28.8155 24.4296 28.5114 24.3208 28.3773C23.4694 27.4326 21.5651 30.0206 21.3771 31.2937C21.3605 31.4012 21.4331 31.7954 21.5696 32.3796C21.5155 32.1133 21.4864 31.9439 21.4998 31.8814Z" fill="#FFAE85"/>
<path d="M24.0845 43.0564C24.0267 40.0918 22.4427 31.6369 22.4699 31.1136C22.5207 30.0531 22.6641 29.2932 22.8648 28.7544C21.9574 29.5353 21.0129 30.9158 20.9195 31.4121C20.823 31.9533 23.694 40.6353 23.8483 43.0586L24.0845 43.0564Z" fill="#FFAE85"/>
<path d="M25.0964 38.7382L24.6965 43.1343L25.1416 43.196L25.9866 38.8615L25.0964 38.7382Z" fill="#FFCF4A"/>
<path d="M25.5309 39.2154C25.7778 39.2547 26.0126 39.0758 26.0524 38.8295C26.0922 38.5832 25.9132 38.3493 25.6662 38.31C25.4193 38.2708 25.1845 38.4496 25.1447 38.6959C25.105 38.9422 25.2701 39.1797 25.5309 39.2154Z" fill="#3D2E2E"/>
<path d="M23.1188 43.4989L25.6831 44.0293L25.9092 43.1889L23.0927 42.8271L23.1188 43.4989Z" fill="#DBB88A"/>
<path d="M26.7579 43.3229L23.2596 42.8427C23.2596 42.8427 23.5198 41.905 24.0467 41.7685C24.5634 41.6494 26.7579 43.3229 26.7579 43.3229Z" fill="#FFEECC"/>
<path d="M45.5384 8.83724C45.5384 8.83724 38.6682 8.47846 29.7843 5.14547C29.7843 5.14547 36.9126 0.73187 42.6245 2.21683C48.7958 3.81876 47.0284 8.36268 45.5384 8.83724Z" fill="#FF364E"/>
<path d="M37.2681 2.21782C33.2413 3.0104 29.7879 5.15901 29.7879 5.15901C38.6717 8.492 45.542 8.85078 45.542 8.85078C45.788 8.77229 46.0331 8.57602 46.2603 8.31065C41.2613 8.26356 35.5682 4.28086 37.2681 2.21782Z" fill="#F42C4E"/>
<path d="M36.4289 2.40567C35.6649 4.654 40.8095 8.23305 45.7773 8.73074C45.9432 8.62875 46.191 8.32854 46.339 8.15742C41.3539 8.10675 35.7489 4.29296 37.4452 2.2161C37.1643 2.27414 36.7063 2.33382 36.4289 2.40567Z" fill="#E01945"/>
<path d="M34.2027 18.4859L35.0568 19.3266C36.0188 17.9563 36.8829 17.4079 38.4803 16.8908L38.4617 15.8483C35.1837 15.9896 34.2027 18.4859 34.2027 18.4859Z" fill="#C2F6FF"/>
<path d="M35.8279 16.6487C34.6216 17.4186 34.2027 18.4859 34.2027 18.4859L35.0568 19.3267C35.5206 18.6607 35.9754 18.1889 36.4867 17.8204C36.1855 17.5149 35.9497 17.1187 35.8279 16.6487Z" fill="#78E4EF"/>
<path d="M35.4623 15.6371C35.4623 15.6371 33.5671 12.2634 33.3439 10.3742C33.3439 10.3742 33.3491 13.7065 35.5536 16.2182L35.4623 15.6371Z" fill="#40BEDB"/>
<path d="M24.4209 10.4879C23.7473 10.515 22.3175 10.2511 21.4844 9.43445C21.0889 9.05015 20.6744 9.79184 21.243 10.1018C23.0325 11.0689 24.4209 10.4879 24.4209 10.4879Z" fill="#40BEDB"/>
<path d="M30.3025 8.34473C29.2036 9.07199 26.671 10.3772 24.8491 10.5985C23.9746 10.7071 23.8061 11.8276 24.9114 11.4674C28.0851 10.4091 30.3025 8.34473 30.3025 8.34473Z" fill="#40BEDB"/>
<path d="M29.8664 6.31901C29.8664 6.31901 33.2706 6.32202 36.037 8.71768C35.0949 6.39513 32.4868 6.03832 29.8664 6.31901Z" fill="#2F8FAD"/>
<path d="M42.7671 2.13671C37.0552 0.651751 29.7887 5.16016 29.7887 5.16016L29.8061 5.17039C31.3555 4.29691 37.406 1.09189 42.3417 2.37968C47.8935 3.81763 46.9477 7.70614 45.6363 8.81296C47.0936 8.15511 48.8096 3.69827 42.7671 2.13671Z" fill="#FFBDBD"/>
<path d="M46.3938 6.71238C46.5714 4.54224 44.5966 3.43131 44.0669 3.21454L44.0879 3.23859C44.9264 3.8474 46.2042 5.12415 46.3938 6.71238Z" fill="#FFBDBD"/>
<path d="M46.7285 5.09184C47.2902 6.74589 46.327 8.3968 45.4677 8.67844C45.4677 8.67844 38.7017 8.32216 29.9399 5.06077C29.8362 5.11716 29.7879 5.15918 29.7879 5.15918C38.4843 8.51123 45.5876 8.91288 45.5876 8.91288C46.4885 8.62046 47.4329 6.78267 46.7285 5.09184Z" fill="#FFBDBD"/>
<path d="M35.3229 3.56286L35.4493 2.85156C35.4493 2.85156 32.6707 3.77803 30.3528 4.99812L35.3229 3.56286Z" fill="#FF364E"/>
<path d="M40.2249 12.5444L41.2165 11.8597L40.628 10.7879C40.6316 10.8017 39.7688 11.5267 40.2249 12.5444Z" fill="#4F2C26"/>
<path d="M40.5831 12.1568L41.1328 11.8226L40.6571 10.9576C40.6571 10.9576 40.0854 11.1499 40.5831 12.1568Z" fill="#FFF4E9"/>
<path d="M40.6182 10.8643C40.6633 10.8674 40.6978 10.829 40.6906 10.8013C40.6834 10.7737 40.6311 10.743 40.5895 10.7537C40.5443 10.7507 40.5099 10.7891 40.5171 10.8168C40.5242 10.8444 40.573 10.8613 40.6182 10.8643Z" fill="#4F2C26"/>
<path d="M46.76 23.3749C46.351 23.053 45.9421 22.7312 44.5204 22.6128L44.461 23.0117C45.0614 23.3872 45.6717 24.1436 45.9218 24.1378C46.0086 24.1301 46.8893 23.4741 46.76 23.3749Z" fill="#FFCD9C"/>
<path d="M45.7688 24.1183C45.9576 24.2759 46.1187 24.4407 46.2117 24.3428C46.3669 24.1993 46.256 24.2281 46.0734 23.9804C45.8278 23.6605 45.7688 24.1183 45.7688 24.1183Z" fill="#FFCD9C"/>
<path d="M46.4835 23.5641C46.7032 23.6695 47.2374 24.0178 47.3268 23.9062C47.4852 23.7176 46.878 23.3734 46.6445 23.2717C46.2821 23.1295 46.4835 23.5641 46.4835 23.5641Z" fill="#FFCD9C"/>
<path d="M45.8671 23.3554C45.9918 22.8658 47.1097 23.2399 47.226 23.0033C47.4241 22.5684 45.9345 22.6446 45.5144 22.6797C45.0944 22.7148 45.8671 23.3554 45.8671 23.3554Z" fill="#FFCD9C"/>
<path d="M46.2363 23.9235C46.4353 24.0637 46.753 24.2616 46.8599 24.1602C47.0151 24.0167 46.6769 23.8536 46.4845 23.6821C46.1941 23.4181 46.2363 23.9235 46.2363 23.9235Z" fill="#FFCD9C"/>
<path d="M11.9332 41.2192C11.2822 41.3879 10.6182 40.9986 10.4501 40.3497C10.282 39.7008 10.6734 39.038 11.3243 38.8694C11.9753 38.7007 12.6393 39.09 12.8074 39.7389C12.9756 40.3878 12.5841 41.0506 11.9332 41.2192Z" fill="#FFB948"/>
<path d="M11.7756 40.6109C11.4616 40.6922 11.1413 40.5044 11.0602 40.1914C10.9791 39.8784 11.1679 39.5587 11.4819 39.4774C11.7959 39.396 12.1162 39.5838 12.1973 39.8968C12.2784 40.2098 12.0896 40.5295 11.7756 40.6109Z" fill="#493535"/>
</g>
</g>
<defs>
<clipPath id="clip0">
<rect width="56" height="56" fill="white"/>
</clipPath>
<clipPath id="clip1">
<rect width="53.2444" height="44.5515" fill="white" transform="matrix(-0.968034 0.250819 0.250819 0.968034 45.5424 0)"/>
</clipPath>
</defs>
</svg>
