<svg width="56" height="56" viewBox="0 0 56 56" fill="none" xmlns="http://www.w3.org/2000/svg">
<g clip-path="url(#clip0)">
<path d="M49.4902 47.0498C49.4902 47.0498 43.0605 48.5929 34.5908 49.269C32.2193 49.46 29.6784 49.5776 27.0786 49.5776C24.6628 49.5776 22.4092 49.4747 20.3617 49.3057C12.3486 48.6591 7.41407 47.0498 7.41407 47.0498H49.4902Z" fill="#C3592D"/>
<path d="M34.5835 49.2761C32.2119 49.4671 29.671 49.5847 27.0712 49.5847C24.6555 49.5847 22.4018 49.4818 20.3543 49.3128C22.1661 48.8793 24.7218 48.6147 27.5499 48.6147C30.3044 48.6147 32.7864 48.8646 34.5835 49.2761Z" fill="#D25C2A"/>
<path d="M50.1383 46.1753H6.8617C6.62602 46.1753 6.41244 46.2708 6.25041 46.4251C6.09574 46.5868 6 46.7999 6 47.035C6 47.5127 6.39034 47.8948 6.8617 47.8948H13.2029L8.87971 55.412C8.76923 55.6031 8.84288 55.8455 9.0491 55.9484C9.11538 55.9852 9.18167 55.9999 9.24795 55.9999C9.39525 55.9999 9.54255 55.9264 9.6162 55.7941L14.1604 47.8948H27.4321V55.6398C27.4321 55.8382 27.6015 55.9925 27.8003 55.9925C27.9992 55.9925 28.1686 55.8308 28.1686 55.6398V47.9021H43.3257L47.5164 55.8015C47.59 55.9337 47.7152 56.0072 47.8552 56.0072C47.9141 56.0072 47.9804 55.9925 48.0393 55.9558C48.2234 55.8529 48.2971 55.6104 48.1939 55.4193L44.2095 47.9021H50.1383C50.374 47.9021 50.5949 47.8066 50.7496 47.6523C50.9043 47.498 51 47.2775 51 47.0424C51 46.5647 50.617 46.1753 50.1383 46.1753Z" fill="#555CA3"/>
<path d="M24.2357 46.1753C27.9992 46.8293 32.3666 47.4833 36.6309 47.9021H6.8617C6.39034 47.9021 6 47.5127 6 47.035C6 46.7999 6.09574 46.5794 6.25041 46.4251C6.41244 46.2708 6.62602 46.1753 6.8617 46.1753H24.2357Z" fill="#4F549E"/>
</g>
<g clip-path="url(#clip1)">
<path d="M27.1721 19.9949C27.1721 19.9949 27.0888 25.5237 27.3893 25.9866C27.6897 26.4495 32.1129 32.807 32.1129 32.807L32.7427 32.0343C32.7427 32.0343 30.4515 25.4677 30.0316 24.9152L31.0053 19.6851L27.1721 19.9949Z" fill="#E5B0B4"/>
<path d="M37.6835 2.76276C37.5966 3.69231 37.4554 4.55094 36.8799 5.74927C35.2402 6.69376 33.1698 6.98868 33.1698 6.98868C34.5742 7.02228 35.6058 6.85428 36.4854 6.57803C36.2103 7.11187 36.0293 7.37319 35.5986 7.91076C35.5986 7.91076 32.3988 8.35127 30.104 7.25C28.7249 6.58923 27.0309 5.30876 26.2781 3.75578C25.9052 2.98675 24.8809 0.429549 28.4281 0.0450359C31.9753 -0.339478 32.9454 1.94147 34.0566 2.16173C35.8447 2.52011 36.6989 1.69508 37.6292 0.61994C37.6292 0.61994 37.6943 0.94099 37.7196 1.4823C37.5712 2.18786 37.1188 2.97555 35.87 3.16594C35.8664 3.16967 36.9378 3.18834 37.6835 2.76276Z" fill="#555CA3"/>
<path d="M29.6552 12.3941C29.8361 11.0725 31.3202 8.55267 31.103 7.85457C30.8894 7.15647 30.0244 6.40985 30.0244 6.40985C30.0244 6.40985 29.7855 6.29039 29.3656 6.17092C29.3221 5.76028 29.2787 5.10325 29.3547 4.45741L27.382 4.36035C27.382 4.36035 27.4001 5.24511 27.183 5.94694C26.9115 5.9656 26.6255 5.9992 26.3287 6.05893C26.3287 6.05893 24.9207 6.42851 26.4228 12.8383C26.4228 12.8383 26.2744 13.9919 26.9839 15.6718L29.438 15.3694C29.4416 15.3657 29.4416 13.9321 29.6552 12.3941Z" fill="#D6979C"/>
<path d="M29.4235 4.66679C28.9348 5.0737 28.3195 5.61874 27.2011 4.4092C26.9803 4.17401 27.0273 3.84176 27.0527 3.36765C27.0816 2.80395 26.9803 2.44557 27.0671 2.12825C27.1721 1.74747 27.5087 1.59814 28.182 1.59814C29.4163 1.59814 30.0135 1.93786 29.8796 2.55756C29.5755 3.94256 29.9194 4.25241 29.4235 4.66679Z" fill="#DCABB0"/>
<path d="M28.8661 17.5162C27.8381 18.7145 21.4567 19.3342 21.4386 19.3268C23.8131 20.9208 25.8401 26.7818 25.8401 26.7818L25.4926 27.7189C18.8072 20.9955 18.5321 18.4196 18.5321 18.4196C20.6604 16.2656 28.1964 14.5483 28.1964 14.5483C28.1964 14.5483 29.8072 16.4149 28.8661 17.5162Z" fill="#E5B0B4"/>
<path d="M25.746 26.3374L26.3541 26.9758L25.156 29.2306C25.156 29.2306 24.4791 28.0994 25.746 26.3374Z" fill="#D25C2A"/>
<path d="M32.8078 31.5376L33.2603 32.3962L31.3491 34.3897C31.3455 34.386 30.9691 32.9898 32.8078 31.5376Z" fill="#D25C2A"/>
<path d="M39.6923 8.02293C38.6933 8.08639 38.5558 9.01968 38.5558 9.01968C35.3597 9.91936 34.1869 10.6137 34.1869 10.6137C33.8177 10.0388 31.7437 7.19044 31.5301 6.90672C31.3202 6.623 29.8361 6.75739 29.8361 6.75739C29.8361 6.75739 30.285 8.03786 30.7157 9.02341C31.1464 10.0052 33.3218 11.7598 34.1869 11.7785C35.3307 11.8009 38.6137 9.67297 38.6137 9.67297V9.66551L38.8526 9.61324C39.1603 9.59458 39.5005 9.28846 39.6742 8.88155C39.8516 8.47464 39.8371 8.60156 39.971 8.31411C40.105 8.02666 39.6923 8.02293 39.6923 8.02293Z" fill="#E5B0B4"/>
<path d="M26.669 6.0405C26.669 6.0405 26.1116 5.76052 25.46 6.01064C24.8121 6.26076 22.2241 8.55291 22.2241 8.55291C22.2241 8.55291 19.8569 6.1189 18.9049 5.17441C18.9049 5.17441 19.2524 4.30459 18.4271 3.71849C18.4271 3.71849 18.0724 3.5057 18.0398 3.81928C18.0109 4.13287 18.0615 4.02087 18.0109 4.46138C17.9602 4.90189 18.0941 5.34614 18.3511 5.52533L18.5104 5.67465C18.8832 6.45861 20.6206 9.9827 22.1698 10.6136C22.1698 10.6136 27.2264 8.43344 26.669 6.0405Z" fill="#E5B0B4"/>
<path d="M32.6486 8.44058C32.6486 8.44058 31.4251 9.49706 31.3165 9.95623C31.3165 9.95623 31.0306 9.53439 30.9654 9.48212C30.9582 9.47839 30.9546 9.47466 30.9546 9.47839C30.9401 9.51945 29.7818 12.7598 29.9954 13.3833C30.0678 13.5998 31.6351 16.702 31.1935 18.7627C31.1935 18.7627 30.075 24.4334 30.1257 24.8365L30.6107 26.0946L30.5456 26.1021C30.4478 26.1095 30.3429 26.1245 30.2307 26.1431C29.2896 26.3298 28.0191 27.0354 28.0191 27.0354C28.0191 27.0354 27.8055 26.8524 27.5123 26.3858C27.2409 25.9565 27.183 25.0643 27.183 25.0643C27.183 25.0643 26.4952 18.8299 26.4807 18.8374C25.203 19.3152 21.9309 19.5616 21.9309 19.5616C22.4702 20.0618 22.8973 20.7375 22.8973 20.7375C22.7091 21.2602 20.5916 22.4921 20.5916 22.4921C18.362 19.2891 18.5031 18.2811 18.5031 18.2811C20.0451 16.661 24.3633 15.3917 26.0681 14.94C25.9885 14.3389 25.9269 13.9283 25.8908 13.8126C25.0329 11.1172 25.0257 9.30667 25.0365 9.04161C25.0365 9.03788 25.0365 9.03415 25.0365 9.03415C25.0365 9.03415 25.0076 9.06028 24.6456 9.27307C24.6456 9.27307 24.6058 9.12747 24.537 8.91095C24.3741 8.40698 24.0484 7.51849 23.6755 7.19744C23.6755 7.19744 25.2139 5.93937 25.5976 5.89457C25.9812 5.84978 26.8898 5.97297 26.8898 5.97297C26.8898 5.97297 26.9151 7.85821 27.7838 8.29872C27.7838 8.29872 29.637 7.05931 29.6769 6.26415C29.6769 6.26415 31.0487 6.45828 31.2514 6.62254C31.4541 6.78306 32.3988 7.79848 32.6486 8.44058Z" fill="#D25C2A"/>
<path d="M31.1899 18.7668C31.1899 18.7668 30.0714 24.4375 30.1221 24.8407L30.6071 26.0987L30.542 26.1062C30.4442 26.1137 30.3393 26.1286 30.227 26.1473C29.999 25.759 29.6407 25.1318 29.5104 24.7511C29.3113 24.1724 30.5601 19.6889 30.9075 18.5578C31.255 17.4304 29 13.9511 28.8009 13.4695C28.6018 12.9879 30.227 9.43772 30.5999 9.26226C30.7989 9.16894 30.9075 9.322 30.9654 9.48625C30.9582 9.48252 30.9546 9.47879 30.9546 9.48252C30.9401 9.52358 29.7818 12.764 29.9954 13.3874C30.0642 13.6039 31.6315 16.7024 31.1899 18.7668Z" fill="#C3592D"/>
<path d="M26.4771 18.8412C25.203 19.3153 21.9309 19.5617 21.9309 19.5617C21.9309 19.5617 25.7387 17.5122 26.3613 18.0274C26.6871 18.2925 26.6219 18.5986 26.4771 18.8412Z" fill="#C3592D"/>
<path d="M25.0401 9.04184C25.0401 9.0381 25.0401 9.03437 25.0401 9.03437C25.0401 9.03437 25.0112 9.0605 24.6492 9.27329C24.6492 9.27329 24.6094 9.1277 24.5406 8.91118C24.7397 8.77305 24.9859 8.63119 25.08 8.68346C25.1813 8.73572 25.1198 8.89998 25.0401 9.04184Z" fill="#C3592D"/>
<path d="M27.5594 1.65766C27.5594 1.65766 28.3159 1.35155 28.5475 2.01231C28.7792 2.67308 29.1412 3.04639 30.0099 3.0128C30.8822 2.9792 31.8016 2.26617 31.8016 2.26617C31.8016 2.26617 30.8641 2.67308 30.4515 1.92645C30.0424 1.18356 28.6779 0.776643 27.5594 1.65766Z" fill="#555CA3"/>
</g>
<defs>
<clipPath id="clip0">
<rect width="45" height="9.82456" fill="white" transform="translate(6 46.1753)"/>
</clipPath>
<clipPath id="clip1">
<rect width="22" height="34.386" fill="white" transform="translate(18)"/>
</clipPath>
</defs>
</svg>
