<svg width="56" height="56" viewBox="0 0 56 56" fill="none" xmlns="http://www.w3.org/2000/svg">
<g clip-path="url(#clip0)">
<path d="M35.4234 0.872525C36.5454 1.02427 36.0993 3.65451 37.1402 7.20785C38.1811 10.7675 40.5535 11.1595 40.5535 11.1595C40.5535 11.1595 39.3842 9.63576 39.3571 7.94761C39.3369 6.63881 40.7359 2.94636 38.8637 0.733426C37.4173 -0.973698 35.2747 0.828266 35.2747 0.828266L35.4234 0.872525Z" fill="#D88A51"/>
<path d="M38.4177 48.0273C38.4177 48.0273 38.7894 49.9494 39.1949 50.215C39.5937 50.4805 40.0736 51.6186 39.5937 52.0675C39.1138 52.5165 36.6401 53.408 36.3967 53.7367C36.1602 54.0529 36.5927 48.5648 38.4177 48.0273Z" fill="#E3B892"/>
<path d="M38.1135 45.9282L36.8361 48.6659C36.8361 48.6659 36.3697 47.1864 35.8898 45.7258C35.7682 45.3591 35.6465 44.9924 35.5248 44.6573C35.2612 43.8859 35.0179 43.241 34.8963 43.0008C34.4907 42.242 33.2471 39.2894 32.7199 38.4484C32.1995 37.6075 32.8348 36.9057 33.1254 35.8435C33.4161 34.7876 35.5586 31.209 36.025 30.0962C36.4914 28.9834 38.4041 25.0254 38.4041 25.0254C40.3439 26.2457 38.1135 45.9282 38.1135 45.9282Z" fill="#DE9D7D"/>
<path d="M38.6339 25.2403C38.6339 25.2403 38.3433 27.3836 38.1676 27.9274C37.9918 28.4711 37.3295 31.6135 37.005 33.131C36.6874 34.6484 35.6735 37.5252 35.7614 38.1765C35.8493 38.8277 35.9912 42.4885 36.025 43.6772C36.052 44.8722 35.1869 52.3266 35.1869 52.3266C35.1869 52.3266 36.1737 52.7313 37.1605 52.3266C37.1605 52.3266 37.8567 49.1273 38.6407 47.553C39.4247 45.9786 39.9452 43.0007 39.6545 41.0217C39.3639 39.0427 41.0198 36.4946 42.0877 35.11C43.1624 33.7253 45.5077 27.9527 45.5686 27.1687C45.6294 26.3847 45.3388 24.7028 44.4398 23.2929C43.5341 21.8766 38.6339 25.2403 38.6339 25.2403Z" fill="#EEA886"/>
<path d="M37.1537 52.3267C37.1537 52.3267 36.2683 52.3646 35.856 52.2255C35.4437 52.0801 35.1058 52.1623 35.1058 52.1623C35.1058 52.1623 33.9365 53.5217 33.0105 53.7746C32.0846 54.0338 29.773 54.3879 29.8744 55.2162C29.9758 56.0444 32.5442 56.1329 33.5039 55.88C34.4569 55.6208 36.6941 55.918 37.0659 55.1593C37.4444 54.4005 36.9983 52.7061 37.1537 52.3267Z" fill="#FCCCA2"/>
<path d="M37.9175 25.6576C37.9175 25.6576 37.201 27.5228 36.9712 28.0159C36.7414 28.5091 35.1801 31.7463 35.1801 31.7463C35.1801 31.7463 40.4859 34.8191 45.92 34.8571C45.92 34.8571 44.9265 30.0582 45.5618 27.8832C46.1971 25.7081 45.136 24.1591 44.7845 23.4699C44.4466 22.7807 37.9175 25.6576 37.9175 25.6576Z" fill="#3F74A0"/>
<path d="M37.708 8.26991L35.7411 10.4829C35.687 10.1035 35.5046 9.65458 35.3153 9.28787C35.2274 9.10451 35.1328 8.94012 35.0652 8.81366C34.9706 8.64927 34.903 8.54179 34.903 8.54179L36.6536 6.51221L37.708 8.26991Z" fill="#EEA886"/>
<path d="M25.9542 30.1909C25.9542 30.1909 25.2107 31.0445 25.1364 31.2594C25.0553 31.4681 24.4537 32.1573 24.4808 32.2458C24.5078 32.3406 24.9877 32.3027 25.3392 32.1256C25.6906 31.9549 25.9542 30.1909 25.9542 30.1909Z" fill="#EEA886"/>
<path d="M3.6904 49.4688L4.04862 49.8671L31.3884 27.7567L31.0302 27.3584L3.6904 49.4688Z" fill="#E8734D"/>
<path d="M4.24462 49.7093C4.24462 49.7093 1.83845 45.8082 0.385286 46.8198C-1.06788 47.8315 1.88576 51.7705 4.24462 49.7093Z" fill="#E8734D"/>
<path d="M35.3153 10.3186C35.3153 10.3186 35.3153 11.3176 34.8151 12.2723C34.315 13.227 33.4904 14.814 33.7067 15.7877C33.923 16.7614 34.4029 17.0902 34.8354 17.4127C35.268 17.7351 36.5927 20.2199 36.8158 21.1936C37.0321 22.1673 37.3565 24.2412 37.2281 25.7712C37.2281 25.7712 44.1424 24.7533 44.7913 23.4761C44.7913 23.4761 44.1154 20.8522 43.595 19.8975C43.0745 18.9427 41.6619 13.1006 41.182 12.1206C40.7022 11.1469 39.6951 10.2427 39.0665 9.58518C38.5055 8.99717 37.4849 7.90967 37.4849 7.90967L35.3153 10.3186Z" fill="#EDDAD3"/>
<path d="M37.1402 11.1091C37.5525 11.166 38.8773 12.4495 38.465 13.752C38.0527 15.0544 37.1808 16.4581 36.7685 17.4128C36.3562 18.3675 35.464 20.9914 35.1802 21.3961C34.8963 21.8007 33.4228 24.1401 32.8551 24.7724C32.2873 25.4047 28.6916 29.4322 28.6916 29.4322L27.6845 28.781C27.6845 28.781 30.6179 22.9198 31.2938 22.0663C31.9697 21.2127 32.7875 20.0114 33.1187 18.9366C33.4499 17.8617 34.6868 13.4674 35.0585 12.6961C35.4235 11.9247 35.66 10.9067 37.1402 11.1091Z" fill="#EEA886"/>
<path d="M27.921 28.5723C27.921 28.5723 26.9613 29.4448 26.6166 29.6092C26.2719 29.7736 25.7582 30.2794 25.7379 30.7093C25.7177 31.1393 24.8187 33.0803 24.9066 33.1941C24.9945 33.3016 25.4067 33.4407 25.5554 33.2953C25.7041 33.1499 26.1435 32.271 26.6842 32.1762C27.2249 32.0877 28.1846 31.7715 28.2522 31.3163C28.3198 30.8611 28.6172 29.4954 28.7591 29.331C28.8943 29.1603 27.921 28.5723 27.921 28.5723Z" fill="#EEA886"/>
<path d="M33.6121 1.22014C32.6253 1.35292 30.557 2.20648 30.7328 4.6913C30.7328 4.6913 30.949 5.32989 31.2262 5.81041C31.5033 6.29094 31.3275 7.89057 31.4695 7.94116C31.6114 7.99174 32.1589 7.99174 32.1589 7.99174C32.1589 7.99174 33.0713 9.54079 33.6864 9.40802C34.3015 9.28156 36.5522 8.39639 37.2281 6.14551C37.904 3.88832 37.5863 0.676394 33.6121 1.22014Z" fill="#EEA886"/>
<path d="M30.7328 4.68515C30.7328 4.68515 32.5239 5.40594 34.1392 5.32374C35.7546 5.24155 37.2754 7.56197 37.2754 7.56197C37.2754 7.56197 38.884 3.32577 36.4778 1.41C34.0784 -0.499452 29.8 1.92846 30.7328 4.68515Z" fill="#D88A51"/>
<path d="M34.5177 5.27957C34.4637 4.99505 34.7138 4.50188 35.295 4.79905C35.8763 5.09621 35.4843 6.57572 35.0517 6.51249C34.6124 6.46191 34.5651 5.57674 34.5177 5.27957Z" fill="#EEA886"/>
<path d="M33.923 15.2758C33.923 15.2758 36.1805 16.0725 37.5052 16.4266C37.5052 16.4266 39.9046 13.0945 37.8905 11.1408C35.8831 9.19341 34.0784 13.2083 33.923 15.2758Z" fill="#EDDAD3"/>
<path d="M35.8898 45.7259C35.7682 45.3592 35.6465 44.9925 35.5248 44.6574C35.6533 44.2653 35.9304 41.104 35.9304 41.104C36.2278 42.8744 35.8898 45.7259 35.8898 45.7259Z" fill="#C78564"/>
<path d="M36.4981 7.56201C36.4711 7.61259 35.7884 8.87081 35.3153 9.29443C35.2274 9.11107 35.1328 8.94668 35.0652 8.82023C35.0652 8.81391 36.1331 8.11209 36.4981 7.56201Z" fill="#A77860"/>
</g>
<defs>
<clipPath id="clip0">
<rect width="45.92" height="56" fill="white"/>
</clipPath>
</defs>
</svg>
