<svg width="56" height="56" viewBox="0 0 56 56" fill="none" xmlns="http://www.w3.org/2000/svg">
<g clip-path="url(#clip0)">
<g clip-path="url(#clip1)">
<path d="M42.6233 33.6191C43.0019 33.9165 43.4226 34.3838 43.5067 34.936C42.9178 35.2334 41.9923 34.8086 41.4034 34.7236C40.1835 34.5537 38.9637 34.2139 37.7438 34.1714C36.9445 34.1289 36.1032 34.2139 35.3461 34.0864C34.9254 34.0015 34.5889 33.6616 35.0096 33.2793C35.304 33.0244 35.8509 33.0669 36.1874 33.0669C36.8604 33.0244 37.5335 32.9819 38.2065 32.9819C39.4684 32.9819 40.6463 33.0669 41.9082 33.4067C42.1606 33.4492 42.6233 33.5342 42.7495 33.7041H42.6233V33.6191Z" fill="#040306"/>
<path d="M17.3422 33.5766C16.8375 33.3217 16.1644 33.1518 15.5755 33.0243C15.0707 32.8969 14.608 32.8969 14.1032 32.9394C13.7667 32.9819 13.4302 32.9819 13.1357 32.7695C12.3786 32.3871 11.7897 31.7075 10.9484 31.4951C10.1491 31.2827 9.30783 31.4101 8.59272 31.8774C8.08794 32.1747 7.66729 32.6845 7.4149 33.1943C7.20458 33.6191 6.99425 34.2987 7.2887 34.766C7.62523 35.2758 8.17207 35.2333 8.63479 35.2333C9.30783 35.2333 10.0229 35.1483 10.696 35.1059C12.1682 34.9784 13.5564 34.4262 15.0287 34.2563C15.6176 34.1713 16.2065 34.1713 16.7533 33.9589C16.9216 33.8739 17.3002 33.7465 17.3843 33.5766C17.3843 33.6191 17.3843 33.6191 17.3843 33.6615L17.3422 33.5766Z" fill="#040306"/>
<path d="M23.2314 34.5536C23.2314 35.4032 23.7782 36.0829 24.4513 36.0829H31.5602C32.2333 36.0829 32.7801 35.4032 32.7801 34.5536V31.1128C32.7801 30.2632 32.2333 29.5835 31.5602 29.5835H24.4513C23.7782 29.5835 23.2314 30.2632 23.2314 31.1128V34.5536Z" fill="#048BB5"/>
<path d="M1.0631 33.7466C3.41874 34.0864 7.33078 34.5112 11.5373 34.8086C13.4302 33.6616 19.9924 33.3643 27.7323 33.3643C35.1778 33.3643 41.4876 33.6191 43.6329 34.6811C48.26 34.3413 52.5507 33.959 54.9063 33.7466C56.4206 33.5767 51.1625 39.8212 51.1625 39.8212H3.50286C3.4608 39.8212 -0.282986 33.5342 1.0631 33.7466Z" fill="#FFBE00"/>
<path d="M29.7094 29.5835H30.6769V32.8544H29.7094V29.5835Z" fill="#040306"/>
<path d="M27.0593 29.5835H28.0268V32.8544H27.0593V29.5835Z" fill="#040306"/>
<path d="M24.7457 29.5835H25.7132V32.8544H24.7457V29.5835Z" fill="#040306"/>
<path d="M23.0631 39.8212C25.9235 37.23 30.3824 35.5732 35.3881 35.5732C40.3939 35.5732 44.8528 37.23 47.7132 39.8212H23.0631Z" fill="#FF6D00"/>
<path opacity="0.4" d="M1.14724 33.7465C3.50288 34.0863 7.41492 34.5111 11.6214 34.8085C12.1262 34.5111 13.0096 34.2562 14.1453 34.0438C15.4073 34.0014 16.7113 34.2987 17.9312 34.5111C21.0019 35.1058 24.0306 35.8705 27.1013 36.4227C30.13 36.9749 33.1587 37.5697 36.2295 37.8245C37.7438 37.952 39.3002 37.9945 40.8145 37.867C41.6558 37.7821 42.4551 37.6971 43.2964 37.6121C44.7266 37.7821 46.1568 37.9945 47.587 38.1644C48.849 38.3343 50.1109 38.4193 51.3729 38.3343C51.7094 38.3343 52.0459 38.2918 52.3824 38.2493C51.7094 39.0989 51.2046 39.6937 51.2046 39.6937H3.54495C3.50288 39.8211 -0.198837 33.5341 1.14724 33.7465Z" fill="#FF6D00"/>
<path d="M23.021 23.7637C22.8107 23.7637 22.6004 23.9336 22.4321 24.0186C22.1797 24.146 21.9273 24.2734 21.717 24.4433C21.5488 24.5708 21.4226 24.7407 21.2122 24.8257C21.044 24.9106 20.9178 24.8681 20.7495 24.8681C20.7495 25.0381 20.7075 25.0381 20.6233 25.0805C20.5813 25.0805 20.4971 24.9956 20.4551 24.9956C20.3709 24.9956 20.3289 25.0381 20.2868 25.0381C20.0344 25.0381 19.782 24.9531 19.5296 24.9106C19.1511 24.8257 18.7304 24.7407 18.3518 24.6557C18.1415 24.6133 17.6367 24.3584 17.4685 24.5283C17.3002 24.6557 17.3423 25.208 17.3423 25.4204C17.3423 25.7602 17.4264 26.0576 17.5105 26.3974C17.6367 26.9072 17.805 27.4169 18.3098 27.5444C18.8987 27.6718 19.74 27.332 20.2868 27.0771C21.044 26.7797 21.717 26.27 22.3901 25.8452C22.6425 25.6753 22.9369 25.5478 23.1893 25.3779C23.3155 25.2929 23.7361 25.208 23.7782 25.0805C23.8623 24.9106 23.5679 24.5283 23.5258 24.3584C23.4417 24.146 23.3576 23.9336 23.2314 23.7637H23.021Z" fill="#040306"/>
<path d="M24.9981 24.6133C24.9981 24.5708 24.9981 24.5708 24.956 24.5708C24.7878 24.8257 24.7037 25.2505 24.4092 25.4629C24.1989 25.6328 24.0306 25.5053 23.8203 25.3779C23.3155 25.0805 22.979 24.4858 22.979 23.8061C22.979 23.5513 23.021 23.3813 23.1052 23.1689C23.2314 22.8716 23.2734 22.9141 23.5258 22.8716C23.7362 22.8291 23.9465 22.7866 24.1568 22.7866C24.4513 22.7866 24.4513 22.9141 24.4933 23.1689C24.5354 23.5513 24.6616 24.2734 24.956 24.4858C24.956 24.5283 24.914 24.4858 24.914 24.4858L24.9981 24.6133Z" fill="#930527"/>
<path d="M15.1969 33.534C15.0708 33.5764 14.8604 33.7888 14.6922 33.8738C14.6501 33.8738 14.6501 33.8738 14.608 33.8738C14.4818 33.8738 14.2295 33.6614 14.1453 33.534C14.0191 33.3216 14.1874 33.1092 14.1033 32.9392C14.0191 32.7693 13.7667 32.7268 13.6405 32.5994L13.5985 32.6844C13.5564 32.7268 13.5985 32.5144 13.6405 32.4295C13.6826 32.302 13.7667 32.1746 13.8509 32.0472C14.0191 31.7073 14.1033 31.7073 14.4398 31.8772C14.8184 32.0896 15.1549 32.3445 15.4493 32.6419C15.5755 32.7693 15.7859 33.0242 15.7438 33.2366C15.7017 33.449 15.4073 33.4915 15.1969 33.534Z" fill="#F7DEB0"/>
<path d="M14.6501 33.874L14.608 33.8315C14.2294 34.0014 13.7247 33.1094 14.1874 33.0244C14.2715 33.4917 14.3556 33.6191 14.6501 33.874Z" fill="#DDBD8A"/>
<path d="M18.9828 21.342C18.9407 21.3845 18.8987 21.3845 18.8566 21.427C18.8145 21.512 18.8566 21.5544 18.8566 21.5969C18.8566 21.7244 18.7725 21.7668 18.7725 21.8518C18.7725 21.9368 18.7725 21.9368 18.7304 22.0217C18.6883 22.0642 18.6042 22.0642 18.6042 22.1067C18.5622 22.2341 18.6883 22.3191 18.6463 22.404C18.6042 22.5315 18.436 22.5315 18.3518 22.5315C18.1415 22.574 17.805 22.489 17.5947 22.6164C17.3843 22.7439 17.3423 23.0412 17.3423 23.2536C17.3423 23.3386 17.3843 23.3811 17.3843 23.4236C17.0057 23.5935 16.6272 23.7634 16.2486 23.7634L15.9121 23.636C15.7017 23.551 15.4073 23.551 15.197 23.636C15.239 23.551 15.3232 23.4236 15.3652 23.3386C15.6176 22.8288 15.9121 22.3616 15.87 21.7668C15.87 21.4695 15.6597 21.2571 15.5755 20.9597C15.4914 20.6624 15.4073 20.365 15.4493 20.0676C15.4914 19.5579 15.7438 19.0056 16.1224 18.7083C16.4589 18.4109 16.8796 18.3684 17.3002 18.4109C17.9312 18.326 18.7304 18.8782 18.8987 19.5579C18.9828 19.8552 18.9407 20.1526 18.8566 20.4075C18.8145 20.5349 18.8145 20.6624 18.8566 20.7898C18.8987 20.9172 19.0249 21.0022 19.0669 21.0872C19.109 21.2146 19.0669 21.2571 18.9828 21.342ZM17.3002 18.4109C17.3002 18.4534 17.3002 18.4534 17.3002 18.4109V18.4109Z" fill="#F7DEB0"/>
<path d="M17.2161 22.0645C16.9216 21.9371 16.7954 21.5972 16.6272 21.3423C16.4168 21.3423 16.2486 21.0875 16.2486 20.8751C16.2906 20.6202 16.6272 20.6627 16.7113 20.8326C16.6272 20.6627 16.2906 20.4927 16.1644 20.6627C16.0382 20.8326 16.2065 21.1299 16.3327 21.2574C16.4589 21.3423 16.4589 21.3848 16.543 21.4698C16.5851 21.5547 16.6692 21.6397 16.7533 21.7247C16.8795 21.8521 17.0057 22.022 17.174 22.0645H17.2161Z" fill="#9E8256"/>
<path d="M14.9446 18.9634C15.3231 18.2412 15.9541 18.1138 16.6692 17.9863L16.7113 18.0288C17.3423 17.9863 18.3939 18.3686 18.3939 19.1333C18.2677 19.1758 18.1415 19.1333 18.0153 19.1333C18.0574 19.2607 18.2677 19.6006 17.9732 19.6006C17.9732 19.813 18.0153 19.813 17.847 19.9404C17.7629 19.9829 17.6367 19.9829 17.5947 20.1103C17.5105 20.2378 17.5105 20.3652 17.4685 20.4077C17.3423 20.2378 17.1319 20.1103 16.9216 20.1528C16.7113 20.1528 16.543 20.2802 16.4589 20.4502C16.2906 20.5776 16.1644 20.79 16.2065 21.0024C16.2065 21.1723 16.3327 21.3422 16.4589 21.4697C16.3327 21.7246 16.2065 22.0219 15.87 22.0644C15.6176 22.1069 15.5755 21.8095 15.4914 21.5971C15.4073 21.3422 15.2811 21.0874 15.197 20.8325C15.197 20.875 15.1549 20.9174 15.1549 20.9599C14.9025 20.79 14.8604 20.3227 14.8184 20.0254C14.7342 19.643 14.7763 19.3032 14.9446 18.9634Z" fill="#3F0303"/>
<path d="M16.6271 17.8164C17.3002 17.7739 17.9732 17.7314 18.478 18.3261C18.6883 18.5385 18.8145 18.7934 18.8987 19.0908C18.9407 19.3456 18.8145 19.4731 18.7304 19.6855C18.6883 19.643 18.6463 19.558 18.6042 19.5156C18.478 19.4306 18.5621 19.5156 18.5201 19.558C18.4359 19.6855 18.4359 19.8129 18.2677 19.6855C18.2677 19.7704 18.2677 19.8129 18.2677 19.8979C18.2256 19.8979 18.1415 19.8554 18.0994 19.8554C18.0574 19.8554 18.0153 19.8979 18.0153 19.8979C17.847 19.9404 17.805 19.8979 17.7208 19.7704C17.5946 19.643 17.5526 19.4731 17.3843 19.3881C17.2161 19.3032 17.0478 19.2607 16.9216 19.0908C16.6692 18.7509 16.9216 18.5385 17.0899 18.2412C17.2161 18.0288 16.8375 17.9863 16.7113 17.8589L16.6271 17.8164Z" fill="#3F0303"/>
<path d="M15.0708 18.7934C15.0287 18.5386 15.4493 18.1138 15.6597 17.9863C15.9962 17.8164 16.4589 17.7739 16.8375 17.7739C17.2161 17.7739 17.5526 17.8589 17.847 18.1138C18.0153 18.2412 18.5621 18.666 18.3939 18.9634C18.3939 19.0058 18.3939 19.0058 18.3518 19.0483C18.1415 18.7085 17.9312 18.4961 17.5526 18.3262C17.0899 18.1138 16.3327 18.0288 15.9121 18.3262C16.3327 18.2412 16.5851 18.581 16.9216 18.751C16.5851 18.666 16.2486 18.581 15.9121 18.5386C15.9962 18.751 16.3327 18.8359 16.3327 19.0908C16.2065 19.0908 15.9541 18.9209 15.87 18.8359C15.9121 19.0058 16.0803 19.0908 16.0382 19.2607C15.87 19.3032 15.7438 19.1333 15.6597 19.0483C15.6597 19.2607 15.8279 19.3882 15.9121 19.6006C16.0382 19.8554 15.9541 20.0254 15.9541 20.2802C15.7859 20.0678 15.6176 19.813 15.4493 19.643C15.2811 19.813 15.3231 20.1528 15.4073 20.3652C15.4914 20.705 15.7017 20.79 15.9121 21.0024C15.7017 21.0024 15.4914 20.79 15.3652 20.6201C15.3652 21.0449 15.9121 21.4272 15.7017 21.937C15.7017 21.8095 15.6176 21.6821 15.4914 21.5971C15.3231 21.4697 15.1969 21.4272 15.0708 21.2148C14.9025 20.9599 14.6922 20.5776 14.6501 20.2802C14.5239 19.6855 14.6922 19.2182 15.0708 18.7934Z" fill="#2B0202"/>
<path d="M16.3748 17.8589C17.1319 17.7739 17.8891 17.604 18.5621 18.1562C18.8145 18.3686 19.0249 18.666 19.0669 19.0058C19.0669 19.1758 19.0669 19.3882 19.0249 19.5581C18.9828 19.728 18.8987 19.7705 18.8145 19.8979C18.8145 19.7705 18.6883 19.643 18.6042 19.5581C18.6042 19.6855 18.6042 19.7705 18.6042 19.8979C18.5201 19.8554 18.436 19.813 18.3939 19.7705C18.436 19.8554 18.478 20.0254 18.3939 20.0678C18.3518 20.0254 18.3518 19.9404 18.2677 19.8979C18.3098 20.1953 18.1415 19.9404 18.0153 19.9404C18.0153 20.0254 18.0574 20.1103 17.9732 20.1528C17.8891 20.1953 17.805 20.1103 17.7208 20.1103C17.7208 20.3652 17.805 20.6626 17.6367 20.9174C17.5947 20.8325 17.4685 20.79 17.4264 20.705C17.4264 20.79 17.4685 20.8325 17.4685 20.875C17.5105 20.9599 17.6788 21.2998 17.6367 21.4272C17.5526 21.2998 17.2581 21.0024 17.2161 20.875C17.2161 21.0449 17.174 21.3847 17.1319 21.5546C17.1319 21.3422 16.8795 20.79 16.7113 20.705C16.6272 20.6626 16.543 20.6201 16.4589 20.6626C16.3327 20.705 16.3327 20.79 16.2486 20.875C16.2065 20.79 16.1644 20.705 16.2065 20.6201C16.2486 20.5351 16.3327 20.4926 16.3748 20.4502C16.4589 20.2802 16.3748 20.1528 16.3748 20.0254C16.501 19.9829 16.5851 20.1528 16.6692 20.1528C16.6692 19.9829 16.501 19.8554 16.501 19.6855C16.7113 19.643 17.174 20.1528 17.0057 19.5581C16.9637 19.4731 16.7954 19.1758 16.8795 19.1333C16.9637 19.0908 17.2161 19.3032 17.3002 19.3457C17.3843 19.3882 17.5105 19.5156 17.5947 19.4731C17.5947 19.0483 17.3002 18.7934 17.0899 18.4961C17.174 18.4536 17.3002 18.5386 17.3843 18.581C17.5526 18.666 17.7629 18.7085 17.9312 18.7934C18.0994 18.8784 18.2677 19.0058 18.3939 19.1333C18.3939 19.0483 18.3098 18.9634 18.3098 18.8784C18.3518 18.9209 18.5621 19.2182 18.6463 19.1758C18.7304 19.1333 18.6042 18.7085 18.5621 18.666C18.3939 18.3262 18.0994 18.1562 17.805 17.9438C17.5526 17.8164 17.3423 17.8164 17.0478 17.8164C16.8375 17.8164 16.6272 17.7739 16.4168 17.8164C16.3327 17.8589 16.3748 17.8589 16.3748 17.8589Z" fill="#3F0303"/>
<path d="M16.3748 20.7051C16.1224 21.0024 16.3748 21.2998 16.6272 21.3848C16.6272 21.4697 16.5851 21.5122 16.543 21.5547C16.4589 21.6396 16.4589 21.6396 16.4168 21.7246C16.3748 21.937 16.2906 22.0644 16.0803 22.1069C15.7438 22.2344 15.87 21.8945 15.87 21.6821C15.87 21.3848 15.6597 21.2148 15.6176 20.9175C15.7017 20.96 15.8279 21.0449 15.9121 20.96C16.0383 20.9175 15.9541 20.875 15.9541 20.7476C15.9541 20.6201 15.9962 20.6201 16.0803 20.6201C16.1224 20.6201 16.2906 20.6201 16.2906 20.6201L16.3748 20.7051Z" fill="#3F0303"/>
<path d="M19.1931 26.7372C19.3193 27.7992 18.8146 28.8612 18.8987 29.9232C18.8987 30.1356 19.0249 30.3056 18.9408 30.518C18.8566 30.7728 18.5201 30.9003 18.5201 31.1976C18.5201 31.41 18.7304 31.58 18.7304 31.8348C18.6884 32.0897 18.3939 32.1747 18.3939 32.4296C18.3939 32.7269 18.7725 32.9818 18.8566 33.2791C18.8987 33.4066 18.8987 33.4915 18.9408 33.619H18.8987C16.9637 33.619 14.9025 33.5765 13.0516 34.2987C13.0096 34.2562 12.9675 34.2562 12.9254 34.2137C12.3786 33.8314 12.631 33.1092 13.0516 32.7269C13.3461 32.472 13.3882 32.5145 13.5564 32.1747C13.6826 31.9198 13.8509 31.7499 13.8929 31.495C13.8929 31.3251 13.8088 31.1976 13.8088 31.0277C13.8509 30.8578 13.935 30.6879 14.0191 30.518C14.1033 30.3056 14.1453 30.1356 14.1453 29.9232C14.1033 29.6684 14.0612 29.4135 14.0191 29.1586C13.935 28.7338 14.0612 28.394 14.1453 28.0116C14.2295 27.2895 14.1453 26.6523 14.3136 26.0151C14.3557 25.5053 14.3977 24.9956 14.5239 24.5283C14.566 24.2734 14.6501 24.0185 14.7763 23.8061C14.8184 23.6362 14.8604 23.5088 14.9025 23.3813C15.0287 23.1264 15.197 22.9565 15.2811 22.7016C15.3652 22.4468 15.2811 22.1494 15.5335 21.937C15.7017 22.022 15.9121 22.1919 16.0803 22.2769C16.3327 22.3618 16.543 22.2769 16.7954 22.3193C17.0899 22.4043 17.9312 22.7016 18.0994 22.8716C17.805 23.2114 17.7629 23.5937 17.805 23.976C17.9312 24.3159 18.1415 24.6557 18.3098 24.9106C18.5622 25.2504 19.0249 25.5903 19.1511 26.0151C19.2352 26.2275 19.2352 26.4399 19.2773 26.6523C19.2773 26.6523 19.3193 26.6523 19.3193 26.6948C19.2352 26.7372 19.2352 26.7372 19.1931 26.7372Z" fill="#BA0024"/>
<path d="M17.2161 23.8913L17.2581 23.8488C17.5105 24.2736 17.3002 25.0382 17.3002 25.548C17.3002 26.0152 17.3843 26.44 17.3843 26.9073C17.4264 27.502 17.5526 28.0968 17.6367 28.6915C17.6367 28.734 17.6367 28.7764 17.6788 28.7764C17.7629 28.564 17.8891 28.6915 17.9732 28.8614C18.0574 29.0738 17.8891 29.1163 18.0994 29.1588C18.1836 29.2012 18.3098 29.0738 18.436 29.1163C18.5201 29.1588 18.6042 29.2437 18.6884 29.3287C18.7304 29.3712 18.8145 29.4136 18.8566 29.4561C18.8987 29.4986 18.8987 29.5411 18.9407 29.5411C19.5717 30.1358 20.2868 30.5181 21.044 30.858C21.1281 30.9004 21.2123 30.9004 21.2964 30.9429C21.2123 31.2403 21.1702 31.5801 21.0861 31.75C21.0019 31.9624 20.9178 32.2173 20.7916 32.4722C20.6654 32.3872 20.5392 32.3448 20.371 32.3023C19.9924 32.2598 19.6138 32.2173 19.2352 32.0899C18.9828 32.0049 18.6884 31.92 18.436 31.92C18.3939 31.92 18.3518 31.8775 18.3518 31.8775C17.6788 31.5801 16.9637 31.2403 16.2906 30.858C15.7438 30.5606 15.239 30.4332 14.9446 29.796C14.7342 29.3287 14.7342 28.9464 14.7763 28.4791C14.6922 28.0968 14.6922 27.7144 14.6922 27.3746C14.7763 26.3976 14.9446 25.1657 15.3232 24.3161C15.6176 23.5514 16.6692 22.8717 17.2161 23.8913Z" fill="#040306"/>
<path d="M18.7304 18.2838C18.3939 18.1564 17.8891 18.5812 17.5947 18.7511C17.2161 19.006 16.8796 19.3033 16.543 19.6432C16.1224 20.0255 15.9121 20.5352 15.8279 21.0875C15.8279 21.2574 15.9121 21.9371 15.7859 22.0645C15.6597 22.1495 15.4914 21.9796 15.4073 21.9371C15.197 21.8096 14.9866 21.7672 14.8184 21.6822C14.566 21.5123 14.3557 21.1724 14.2295 20.9176C14.1453 20.7476 14.1033 20.5777 14.0612 20.4078C14.0612 20.2804 14.1033 20.068 14.0612 19.9405C14.0191 19.8131 14.0612 19.8556 13.8929 19.8556C13.8509 19.8556 13.5985 19.8131 13.5564 19.8556C13.3882 19.983 13.6406 20.3653 13.5985 20.4928C13.5564 20.7052 13.3461 20.6202 13.262 20.4503C13.1358 20.1954 13.0096 19.898 12.9254 19.6432C12.8834 19.4732 12.8413 19.2184 12.7993 19.0484C12.7572 18.8361 12.7993 18.7511 12.9675 18.5812C13.304 18.1989 13.7668 17.944 14.1033 17.5192C14.3557 17.2218 14.3557 17.1369 14.6922 17.1793C14.9866 17.2218 15.3652 17.2643 15.6597 17.2218C16.1645 17.1369 16.6692 17.0094 17.174 17.0519C17.5947 17.0944 18.0153 17.3068 18.3518 17.6466C18.436 17.7741 18.7725 18.1139 18.7304 18.2838Z" fill="#006A96"/>
<path d="M16.1224 19.3035C15.8279 19.6433 15.7017 20.0681 15.6597 20.5354C15.5755 20.4504 15.4073 20.3655 15.2811 20.3655C15.2811 20.1106 15.4493 19.7283 15.5755 19.4734C15.6176 19.3884 15.7017 19.176 15.7859 19.1335C15.87 19.0911 16.0803 19.3035 16.1224 19.3035Z" fill="#F9A621"/>
<path d="M15.9962 19.4307C15.7859 19.6855 15.7017 19.9829 15.6597 20.3227C15.5755 20.2378 15.4914 20.1953 15.4073 20.1953C15.4073 19.9829 15.5335 19.728 15.6176 19.5581C15.6597 19.5156 15.7017 19.3457 15.7859 19.3032C15.7859 19.3032 15.9541 19.4307 15.9962 19.4307Z" fill="#3F0303"/>
<path d="M15.9541 22.0218C15.6176 22.0643 15.7017 22.9564 15.5755 23.2113C15.4073 23.5511 14.9866 23.806 14.6501 23.8485C14.8183 23.6361 14.9866 23.5086 15.0287 23.1688C15.0287 22.9139 15.1549 22.659 15.2811 22.4466C15.3652 22.2342 15.4914 22.0218 15.7017 21.9369C16.0382 21.7669 15.9962 22.1493 15.912 22.1068L15.9541 22.0218Z" fill="#3F0303"/>
<path d="M13.3882 23.4663C13.5564 22.999 13.935 22.7016 14.3977 22.5742C14.608 22.5317 14.8184 22.4468 14.9866 22.3193C15.0287 22.2344 15.1128 22.1919 15.1549 22.1069C15.2811 21.937 15.3652 21.852 15.5335 21.8096C15.7017 21.7671 15.7859 21.6821 15.87 21.5122C16.0382 21.0874 16.1224 21.3848 16.0383 21.5972C16.0803 21.4697 16.1224 21.3848 16.2486 21.3423C16.3327 21.2998 16.543 21.2998 16.6272 21.3423C16.6272 21.7671 16.7113 22.2344 16.5851 22.6592C16.3748 23.2539 15.9962 23.6362 15.4493 23.9336C14.9446 24.1884 14.6501 24.5708 14.6501 25.1655C14.6501 25.6328 14.7342 25.8027 15.0287 26.1C14.7342 26.1 14.566 26.0151 14.4398 25.8027C14.4398 25.8452 14.4398 25.8876 14.4398 25.9301C14.4818 26.4399 14.4818 27.332 13.8088 27.3744C14.0191 27.332 14.1453 26.9921 14.1033 26.7797C14.0612 26.5248 13.8929 26.3549 13.8088 26.1C13.6405 25.6328 13.5564 25.123 13.5985 24.6132C13.5564 24.5708 13.4723 24.5283 13.4723 24.5283C13.2199 24.3159 13.262 23.8061 13.3882 23.4663ZM15.6597 23.2114C15.7859 23.084 15.87 22.9565 15.87 22.7866C15.87 22.6167 15.7859 22.4892 15.7859 22.3618C15.7438 22.1494 15.8279 21.9795 15.9541 21.8096H15.9121C15.8279 21.937 15.7438 22.0644 15.6597 22.2344C15.5755 22.4468 15.5755 22.6167 15.5755 22.8291C15.5335 23.1264 15.3231 23.4238 15.1128 23.6787C15.3231 23.5088 15.4914 23.3813 15.6597 23.2114ZM13.6405 24.5708C13.7247 24.0185 13.9771 23.5088 14.3136 23.084C14.1033 23.1264 13.935 23.1689 13.7667 23.3388C13.5143 23.6787 13.4302 24.2734 13.6405 24.5708Z" fill="#3F0303"/>
<path d="M16.8795 30.6455C16.543 30.518 16.1644 30.4756 15.7858 30.3906C15.4914 30.3056 15.1969 30.2207 14.9025 30.0932C14.7342 30.0508 14.566 29.9233 14.4398 29.8808C14.2715 30.3481 15.239 30.9428 15.4914 31.1128C15.87 31.3252 16.2906 31.4951 16.6692 31.6225C16.9637 31.7075 17.2581 31.7075 17.5526 31.8349C17.2581 32.1748 16.2065 31.8349 15.8279 31.75C15.5335 31.665 15.239 31.58 14.9445 31.4526C14.8184 31.4101 14.5239 31.1977 14.3977 31.1977C13.8929 31.2827 15.1549 32.3872 15.2811 32.4721C16.0382 33.0244 17.0057 33.0244 17.805 33.3642C17.1319 33.4916 16.543 33.4067 15.87 33.1943C15.5335 33.0668 15.1549 32.9394 14.8184 32.812C14.608 32.727 14.3556 32.5996 14.1453 32.5571C13.935 33.0244 14.2294 33.4492 14.566 33.8315C14.2715 33.874 13.9771 33.9589 13.6826 34.0439C13.4723 33.874 13.262 33.704 13.1358 33.4916C12.7992 33.0244 13.1358 32.6845 13.4723 32.3872C13.7247 32.1748 14.0191 31.75 14.0612 31.3676C14.1033 31.0278 13.8509 30.9004 14.0612 30.603C14.1874 30.3481 14.3136 30.1357 14.2715 29.8384C14.2715 29.541 14.1453 29.2861 14.1033 28.9888C14.0612 28.6914 14.1032 28.479 14.2294 28.2241C14.3556 28.564 14.7342 28.9038 15.0287 29.1162C15.4493 29.456 15.87 29.7534 16.3327 30.0083C16.6692 30.1782 16.9637 30.3056 17.3002 30.4331C17.5105 30.518 17.847 30.518 18.0153 30.6455C17.6367 30.8579 17.1319 30.7304 16.8795 30.6455Z" fill="#040306"/>
<path d="M21.2123 30.8155C21.1281 30.6456 21.2543 30.4756 21.2123 30.3057C21.1281 30.0508 20.7916 30.0508 20.5813 30.0508C19.9503 30.0084 19.5717 30.6456 19.3193 31.2403C19.1511 31.7076 18.9407 32.7271 19.6979 32.5996C19.9503 32.5572 20.1186 32.4722 20.413 32.4722C20.7495 32.4722 20.6654 32.3872 20.6654 32.0899C20.6654 31.835 20.9599 30.858 21.2123 30.9429V30.8155Z" fill="#BA0024"/>
<path d="M25.587 22.4893C25.7973 22.4893 26.1338 22.3618 26.3442 22.4893C26.6807 22.7441 26.3442 22.9565 26.218 23.1265C26.0918 23.3389 26.1759 23.5937 26.0497 23.8061C25.9656 24.0185 25.8815 24.3159 25.7132 24.4858C25.4187 24.8256 24.7036 24.6133 24.8719 24.0185C24.914 23.8911 24.9981 23.8911 24.9981 23.7637C24.9981 23.6787 24.8719 23.6362 24.914 23.4663C24.956 23.3389 25.0822 23.3813 25.1243 23.2539C25.1243 23.1689 25.0402 23.084 25.1243 22.9565C25.2084 22.7866 25.4187 22.4893 25.5449 22.4468H25.587V22.4893Z" fill="#BA0024"/>
<path d="M25.1664 22.1919C25.3767 22.2344 25.7553 22.4043 25.7132 22.7441C25.5449 22.7866 25.2925 22.6592 25.2505 22.9141C25.0402 22.9565 25.2084 23.1265 25.2084 23.2964C25.2084 23.4663 25.1243 23.5937 25.1243 23.7637C25.0822 24.3159 24.7457 24.4858 24.5354 23.8911C24.4092 23.4663 24.1989 22.999 24.4512 22.6167C24.6195 22.3618 24.956 22.1069 25.2505 22.2344H25.1664V22.1919Z" fill="#BA0024"/>
<path d="M17.6367 39.9909L17.9732 40.2033L27.4379 19.0059L26.9331 18.8784L17.6367 39.9909Z" fill="#BA0024"/>
<path d="M26.5966 16.3721C25.9656 17.774 25.587 20.6201 26.3862 21.0449C27.1855 21.4697 28.826 19.3032 29.457 17.9014C30.088 16.4996 29.6673 14.7154 29.2467 14.4605C28.6998 14.1207 27.2275 14.9703 26.5966 16.3721Z" fill="#BA0024"/>
<path d="M15.6176 41.0106C16.2065 39.6087 17.9733 37.4847 18.7725 37.8671C19.5717 38.2919 19.109 41.0531 18.478 42.4549C17.8891 43.8567 16.3327 44.6214 15.9121 44.4515C15.3232 44.2391 15.0287 42.4549 15.6176 41.0106Z" fill="#BA0024"/>
<path d="M21.044 30.6455C21.2543 30.8579 21.5908 30.9429 21.8432 31.1128C22.0956 31.2402 22.2639 31.4526 22.5163 31.6225C22.6845 31.75 22.8528 31.8349 22.8107 32.0898C22.7687 32.3872 22.5583 32.2597 22.4321 32.3872C22.348 32.4721 22.4321 32.5996 22.348 32.6845C22.2639 32.7695 22.1797 32.6845 22.0536 32.7695C21.8853 32.8545 21.8432 33.1518 21.675 33.1518C21.5067 33.1518 21.3384 32.9394 21.1702 32.8969C20.9599 32.7695 20.7495 32.6421 20.5813 32.4297C20.4551 32.2597 20.3289 32.1323 20.2448 31.9199C20.1606 31.665 20.2027 31.6225 20.3289 31.4101C20.4551 31.1977 20.6654 30.6455 20.9599 30.7305L21.044 30.6455Z" fill="#BA0024"/>
<path d="M22.8528 38.8441C23.9885 38.929 25.1663 38.3768 26.3021 38.2494C27.6902 38.0794 28.9522 38.3343 30.3403 38.5892C31.6443 38.8016 32.9484 38.6742 34.2524 38.6742C35.7667 38.6742 37.1549 39.2264 38.6692 39.4813C40.5621 39.7786 42.413 39.5238 44.3059 39.6512C44.9369 39.6937 45.5258 39.9486 46.1147 39.991C46.6616 40.0335 47.1663 39.9061 47.7132 39.8636C48.1338 39.8211 48.5124 39.9061 48.891 39.9486C49.3958 39.991 49.9426 39.991 50.4474 40.076C51.2046 40.2034 51.9197 40.4583 52.6768 40.5008C53.3078 40.5433 53.8967 40.2884 54.5277 40.3309C53.3499 40.4158 52.13 40.6282 50.9522 40.7132C50.0688 40.7982 49.2275 41.0106 48.3442 41.0106C47.3767 41.053 46.4092 41.0106 45.4417 41.0106C44.5583 41.0106 43.717 41.223 42.8757 41.3504C41.782 41.4778 40.7304 41.4778 39.6367 41.4778C38.1224 41.4778 36.608 41.1805 35.0937 41.2229C33.3269 41.3079 31.5602 41.5203 29.7935 41.3929C28.2791 41.3079 26.8069 41.138 25.2925 41.138C24.0726 41.138 22.8528 41.053 21.6749 40.7557C21.2964 40.6707 20.2027 40.4583 20.1606 39.8211C20.1185 39.0565 22.348 39.014 22.8528 38.8866V38.8441Z" fill="#A0E8F9"/>
<path d="M-7.30785 38.3343C-6.1721 38.4193 -4.99428 37.867 -3.85852 37.7396C-2.47038 37.5697 -1.20843 37.8245 0.179718 38.0794C1.48373 38.2918 2.78775 38.1644 4.09176 38.1644C5.6061 38.1644 6.99425 38.7166 8.50859 38.9715C10.4015 39.2689 12.2524 39.014 14.1453 39.1414C14.7763 39.1839 15.3652 39.4388 15.9541 39.4813C16.5009 39.5237 17.0057 39.3963 17.5526 39.3538C17.9732 39.3113 18.3518 39.3963 18.7304 39.4388C19.2352 39.4813 19.782 39.4813 20.2868 39.5662C21.044 39.6937 21.7591 39.9485 22.5162 39.991C23.1472 40.0335 23.7361 39.7786 24.3671 39.8211C23.1893 39.9061 21.9694 40.1185 20.7916 40.2034C19.9082 40.2459 19.0669 40.5008 18.1835 40.5008C17.216 40.5433 16.2485 40.5008 15.2811 40.5008C14.3977 40.5008 13.5564 40.7132 12.7151 40.8406C11.6214 40.9681 10.5698 40.9681 9.47608 40.9681C7.96174 40.9681 6.4474 40.6707 4.93306 40.7132C3.16633 40.7981 1.3996 41.0105 -0.367126 40.8831C-1.88147 40.7981 -3.35374 40.6282 -4.86808 40.6282C-6.08797 40.6282 -7.30785 40.5433 -8.48568 40.2459C-8.86426 40.1609 -9.95795 39.9485 -10 39.3113C-10.0421 38.5467 -7.81263 38.5042 -7.30785 38.3768V38.3343Z" fill="#A0E8F9"/>
<path d="M47.6711 21.512C47.4187 21.4696 47.1663 21.7244 46.9139 21.8519C46.6195 22.0218 46.325 22.1917 46.0306 22.4041C45.8203 22.574 45.652 22.744 45.4417 22.8714C45.2313 22.9564 45.0631 22.9139 44.8948 22.9139C44.8948 23.0838 44.8528 23.1263 44.7266 23.1688C44.6424 23.1688 44.5583 23.0838 44.5162 23.0838C44.4321 23.0838 44.39 23.1688 44.3059 23.1688C44.0115 23.1688 43.6749 23.0838 43.3805 23.0413C42.8757 22.9564 42.3709 22.8714 41.9082 22.744C41.6558 22.7015 41.0248 22.4041 40.8145 22.574C40.6042 22.744 40.6463 23.3812 40.6463 23.636C40.6463 24.0608 40.7725 24.4432 40.8566 24.8255C41.0248 25.4627 41.2352 26.0999 41.8241 26.2273C42.5392 26.3972 43.5908 25.9724 44.2639 25.6751C45.1893 25.2928 46.0306 24.6556 46.8719 24.1883C47.2084 24.0184 47.5029 23.806 47.8394 23.636C48.0076 23.5511 48.4704 23.4236 48.5545 23.2537C48.6386 23.0413 48.3021 22.574 48.218 22.3616C48.0918 22.1068 48.0076 21.8519 47.8394 21.6395L47.6711 21.512Z" fill="#045A75"/>
<path d="M50.1109 22.5317C50.1109 22.4892 50.1529 22.4892 50.0688 22.4467C49.8585 22.7866 49.7323 23.2539 49.3958 23.5087C49.1434 23.7211 48.9331 23.5937 48.6386 23.4238C48.0076 23.0415 47.587 22.3193 47.587 21.5122C47.587 21.2148 47.629 21.0024 47.7552 20.7476C47.9235 20.4077 47.9235 20.4502 48.3021 20.4077C48.5545 20.3652 48.8069 20.3228 49.0593 20.3228C49.3958 20.3228 49.3958 20.4502 49.4378 20.8325C49.522 21.2998 49.6482 22.2343 50.0268 22.4892C50.0268 22.5317 49.9847 22.4892 49.9847 22.5317H50.1109Z" fill="#FFBE00"/>
<path d="M38.2486 33.4491C37.7438 33.3641 37.239 33.3216 36.7342 33.2791C36.7342 33.1092 36.8183 32.9393 36.7763 32.7694C36.6922 32.557 36.3556 32.5145 36.1874 32.3446L36.1453 32.4295C36.1032 32.5145 36.1453 32.2171 36.1874 32.1322C36.2294 31.9623 36.3556 31.7923 36.4398 31.6649C36.6501 31.2401 36.7763 31.2401 37.1549 31.4525C37.6176 31.7074 38.0382 32.0047 38.3748 32.3871C38.5009 32.557 38.7954 32.8543 38.7533 33.1092C38.7113 33.3216 38.4589 33.4066 38.2486 33.4491Z" fill="#F7DEB0"/>
<path d="M42.7075 18.5389C42.6654 18.5813 42.5813 18.5813 42.5813 18.6238C42.5392 18.7513 42.5813 18.7513 42.5813 18.8362C42.5813 19.0061 42.4971 19.0486 42.4551 19.1761C42.413 19.261 42.4551 19.3035 42.413 19.346C42.3709 19.3885 42.2868 19.3885 42.2447 19.4309C42.1606 19.5584 42.3709 19.6858 42.3289 19.8133C42.2868 19.9407 42.0765 19.9832 41.9503 19.9832C41.6558 20.0257 41.2772 19.9407 41.0249 20.0681C40.7725 20.1956 40.6883 20.5779 40.6883 20.8753C40.6883 20.9602 40.7304 21.0452 40.7304 21.0876C40.2677 21.2576 39.805 21.47 39.3423 21.5124L38.9216 21.3425C38.6272 21.2151 38.3327 21.2151 38.0382 21.3425C38.1224 21.2151 38.1644 21.0876 38.2486 20.9602C38.5851 20.3655 38.9216 19.7283 38.8795 19.0486C38.8795 18.6663 38.6272 18.4114 38.543 18.0716C38.4168 17.7317 38.3327 17.3494 38.3748 16.9671C38.4168 16.3724 38.7533 15.6927 39.174 15.2679C39.5526 14.9281 40.0994 14.8431 40.6042 14.8856C41.3614 14.8006 42.3709 15.4803 42.5813 16.2874C42.6654 16.6273 42.6233 17.0096 42.5392 17.3494C42.4971 17.5193 42.4551 17.6468 42.5392 17.8167C42.5813 17.9441 42.7495 18.0716 42.8337 18.199C42.8757 18.3689 42.8337 18.4114 42.7075 18.5389ZM40.6463 14.9281C40.6463 14.9705 40.6883 14.9705 40.6883 14.9705L40.6463 14.9281Z" fill="#F7DEB0"/>
<path d="M40.5621 19.3884C40.1835 19.2185 40.0574 18.8362 39.847 18.4964C39.5946 18.4964 39.3423 18.199 39.3843 17.9441C39.4264 17.6468 39.847 17.6892 39.9732 17.9016C39.8891 17.6892 39.4684 17.4768 39.3002 17.7317C39.174 17.9441 39.3423 18.3264 39.5105 18.4539C39.6367 18.5813 39.6788 18.5813 39.7629 18.7512C39.847 18.8787 39.9312 18.9636 40.0153 19.0486C40.1415 19.176 40.3518 19.3884 40.5201 19.4734L40.5621 19.3884Z" fill="#9E8256"/>
<path d="M37.5334 30.0933C37.5334 30.1357 37.5334 30.1782 37.5334 30.2207C37.5334 30.2207 37.5334 30.2207 37.4909 30.1782L37.5334 30.0933Z" fill="#205F8A"/>
<path d="M34.9675 33.3641C35.0516 33.0667 35.2199 32.7694 35.4723 32.557C35.8088 32.2171 35.8929 32.3021 36.1032 31.8348C36.2294 31.495 36.4818 31.325 36.4818 30.9852C36.4818 30.8153 36.3556 30.6029 36.3977 30.3905C36.4398 30.1781 36.566 29.9657 36.6501 29.7958C36.7342 29.5409 36.7763 29.3285 36.8184 29.0736C36.7763 28.7762 36.7342 28.4789 36.6501 28.139C36.566 27.5868 36.7342 27.2045 36.7763 26.7372C36.9025 25.8451 36.7763 25.0805 36.9445 24.2734C36.9866 23.6362 37.0287 23.0415 37.1969 22.4467C37.2811 22.1494 37.3652 21.8095 37.5335 21.5547C37.5755 21.3847 37.6176 21.1723 37.7017 21.0449C37.87 20.7051 38.0803 20.5351 38.1644 20.1953C38.2486 19.8555 38.1644 19.5156 38.4589 19.2607C38.6692 19.3882 38.9216 19.6006 39.1319 19.6431C39.4264 19.728 39.6788 19.6431 39.9732 19.728C40.3518 19.813 41.3614 20.1953 41.5717 20.4077C41.2352 20.79 41.151 21.2573 41.1931 21.7671C41.3614 22.1919 41.6138 22.6167 41.8241 22.9565C42.1606 23.3813 42.6654 23.7636 42.8757 24.2734C42.9598 24.5283 43.0019 24.7831 43.0019 25.0805C43.0019 25.0805 43.044 25.0805 43.044 25.123C43.044 25.2079 43.044 25.2079 43.0019 25.1654C43.1702 26.4398 42.5392 27.7992 42.6654 29.1161C42.7075 29.371 42.7916 29.5834 42.7075 29.8382C42.6233 30.1781 42.2027 30.3055 42.1606 30.6878C42.1606 30.9427 42.4551 31.1976 42.413 31.4525C42.3709 31.7498 41.9924 31.8773 41.9924 32.1746C41.9924 32.557 42.4551 32.8968 42.5392 33.2366C42.5813 33.3641 42.6233 33.4915 42.6233 33.6614H42.5813C41.5717 33.6614 40.5621 33.6614 39.5526 33.7039C38.0803 33.4066 36.4818 33.1092 34.9675 33.3641Z" fill="#006A96"/>
<path d="M50.8681 19.9404C51.1205 19.9404 51.5411 19.813 51.7935 19.9829C52.2142 20.2802 51.7935 20.5351 51.6673 20.79C51.5411 21.0449 51.5832 21.3422 51.457 21.6396C51.3308 21.8945 51.2467 22.2768 51.0363 22.4467C50.6578 22.8715 49.7744 22.5742 49.9847 21.8945C50.0268 21.7246 50.1109 21.7246 50.1109 21.5971C50.1109 21.4697 49.9426 21.4272 50.0268 21.2573C50.0688 21.1298 50.2371 21.1298 50.2792 20.9599C50.2792 20.875 50.195 20.79 50.2371 20.6201C50.3212 20.4077 50.5736 20.0678 50.7839 19.9829H50.8681V19.9404Z" fill="#FFBE00"/>
<path d="M50.3212 19.5158C50.6157 19.5583 51.0784 19.8132 50.9943 20.153C50.7839 20.1955 50.4895 20.0256 50.4054 20.3654C50.153 20.4079 50.3633 20.6203 50.3633 20.7902C50.3633 21.0026 50.2792 21.1725 50.2371 21.3849C50.195 22.0646 49.7744 22.2345 49.522 21.5548C49.3537 21.0451 49.1013 20.4504 49.3958 19.9831C49.6061 19.6433 49.9847 19.3884 50.3633 19.5158H50.3212Z" fill="#FFBE00"/>
<path d="M41.0669 41.3927L41.5296 41.6476L53.0975 15.6499L52.5086 15.48L41.0669 41.3927Z" fill="#BA0024"/>
<path d="M52.1303 12.4213C51.3732 14.163 50.8684 17.6463 51.8359 18.1561C52.8034 18.6658 54.8225 16.0321 55.6217 14.3329C56.3789 12.5912 55.8741 10.3822 55.3693 10.0849C54.6542 9.66008 52.8875 10.7221 52.1303 12.4213Z" fill="#BA0024"/>
<path d="M38.6271 42.7097C39.3422 40.968 41.5296 38.3768 42.4971 38.8865C43.4646 39.3963 42.8757 42.7947 42.1606 44.5363C41.4034 46.278 39.5526 47.2126 39.0057 46.9577C38.2486 46.6179 37.87 44.4514 38.6271 42.7097Z" fill="#BA0024"/>
<path d="M41.9923 15.0552C42.2447 15.2251 42.6233 15.9048 42.4551 16.2446C42.3289 16.457 42.2027 16.2871 42.0344 16.372C41.9923 16.4145 41.9503 16.542 41.8661 16.542C41.7399 16.6269 41.6138 16.542 41.4876 16.5844C41.2772 16.6694 40.8986 17.0942 40.8145 17.3491C40.6883 17.7314 40.8986 18.0288 40.8986 18.3686C40.7304 18.3261 40.6463 18.496 40.478 18.4536C40.3518 18.4111 40.2677 18.1987 40.1835 18.0712C40.0573 17.8588 39.7208 17.434 39.4684 17.6889C39.0899 18.0288 39.6367 18.3261 39.6788 18.6235C39.6788 18.9633 39.0899 19.4306 38.8375 19.558C38.7954 18.7934 38.4168 18.2412 38.3327 17.4765C38.2486 16.6694 38.3327 15.8623 38.8795 15.2676C39.3843 14.7153 40.1415 14.6729 40.7725 14.6729C41.151 14.6729 41.9082 14.8003 42.1185 15.1401L41.9923 15.0552Z" fill="#040306"/>
<path d="M40.7725 18.3264C40.7725 18.3264 40.7725 18.2839 40.8145 18.2839C40.8987 18.4539 40.8566 18.6238 40.9407 18.7937C40.9828 18.8362 41.0669 18.8362 41.109 18.8787C41.1931 18.9636 41.1511 19.0061 41.1931 19.0911C41.3614 19.4309 41.5296 19.5583 41.8662 19.6008C42.1606 19.6433 42.2447 19.8557 42.4971 19.9407C42.7075 20.0256 43.0019 20.1106 43.1281 20.323C43.044 20.4079 42.9178 20.3655 42.7916 20.3655C43.0019 20.7478 42.3709 20.6628 42.2027 20.4929C42.0765 20.6628 41.9082 20.6628 41.74 20.5354C41.6979 20.4929 41.6558 20.4079 41.6138 20.3655C41.5296 20.323 41.4876 20.4079 41.4034 20.3655C41.3193 20.323 41.3193 20.1955 41.2352 20.1955C41.1931 20.1531 41.109 20.1955 41.0249 20.1531C40.8566 20.0681 40.8145 19.9407 40.6883 19.7707C40.5621 19.8557 40.2256 19.7707 40.1415 19.6858C40.0574 19.6008 40.0994 19.3884 40.0574 19.3035C40.0153 19.1335 39.9732 19.0911 40.0153 18.8787C40.0153 18.7087 40.0153 18.2839 40.0994 18.1565C40.3518 18.0291 40.7725 18.0715 40.7725 18.3264Z" fill="#040306"/>
<path d="M41.1931 20.3227C41.109 20.0253 40.6883 19.7705 40.5201 19.4731C40.3518 19.1757 40.2256 18.8359 40.0994 18.5385C39.847 17.8589 39.6367 17.0942 39.5105 16.4145C39.4685 16.1172 39.3843 15.8623 39.3423 15.565C39.3423 15.4375 39.3002 15.2676 39.3002 15.1402C39.3002 14.9702 39.3423 14.9278 39.3843 14.8003C39.4264 14.503 39.4264 14.2056 39.0478 14.333C38.9216 14.3755 38.8795 14.5879 38.7954 14.6304C38.6692 14.7154 38.543 14.6304 38.3748 14.6729C37.9121 14.8003 38.0382 15.3101 37.7859 15.6074C37.5335 15.9048 37.0287 15.9048 36.6922 16.0747C36.0612 16.4145 36.7342 17.5615 36.8604 18.1137C37.3652 19.9404 38.8375 20.6201 40.3939 20.5351C40.6883 20.5351 41.0249 20.4926 41.2773 20.2377L41.1931 20.3227Z" fill="#006A96"/>
<path d="M41.782 14.2058C41.9082 13.9509 41.4455 13.4836 41.1931 13.3986C41.2352 13.4836 41.2352 13.611 41.2772 13.696C40.8986 13.611 40.6463 13.0163 40.2256 13.0588C40.1835 13.2287 40.2677 13.3986 40.3518 13.5261C40.1415 13.3986 39.5526 13.0163 39.3002 13.2287C39.0899 13.3986 39.4264 13.4836 39.5526 13.6535C39.3002 13.7385 38.7954 13.8234 38.7533 14.2058C38.8375 14.2058 38.9216 14.2482 39.0057 14.2058C39.0057 14.5881 38.5009 14.8854 38.543 15.3102C38.6692 15.3102 38.7954 15.2253 38.8795 15.1828C38.8375 15.5226 38.4168 15.6501 38.2486 15.905C38.6692 15.9474 38.1224 16.5422 38.0382 16.797C38.2065 16.797 38.2906 16.6696 38.4168 16.5422C38.4589 16.8395 38.2486 17.1369 38.2486 17.4342C38.3747 17.4342 38.4589 17.3068 38.543 17.2218C38.543 17.5192 38.4168 17.8166 38.4589 18.1139C38.5851 18.1139 38.6692 18.029 38.7113 17.9015C38.7113 18.0714 38.5851 18.7086 38.8795 18.5812C38.9216 18.7936 38.9637 19.091 39.174 19.1759C39.216 19.091 39.2581 18.921 39.3002 18.8361C39.3843 19.1759 39.9312 20.2379 40.3518 20.1105C40.6042 20.3229 41.4455 21.3849 41.6979 21.13C42.1606 20.6202 41.151 19.983 40.9828 19.6857C40.8986 19.5582 40.8986 19.4733 40.8145 19.3883C40.7725 19.3034 40.6463 19.3034 40.6042 19.1759C40.5621 19.0485 40.6883 18.8786 40.6463 18.7511C40.6042 18.6662 40.4359 18.6662 40.3518 18.5387C40.3097 18.4113 40.3518 18.1989 40.3518 18.0714C40.3097 17.9015 40.2677 17.7316 40.2256 17.5617C40.1835 17.2643 40.1835 16.967 40.0994 16.6696C40.3518 16.7546 40.2256 15.82 40.2256 15.6076C40.7304 15.8625 40.6463 15.4377 40.6463 14.9704C40.8145 15.0978 41.0669 15.1403 41.0248 14.8005C41.2352 14.758 41.3614 15.0129 41.5717 15.0129C41.5717 14.9704 41.5717 14.8854 41.5717 14.843C41.7399 15.0129 41.8661 15.2678 42.0765 15.4377C42.1606 15.1828 42.2868 15.0978 42.2027 14.758C42.1606 14.5456 42.0344 14.2058 41.782 14.2058Z" fill="#A3B2AF"/>
<path d="M40.3518 22.3195V22.2771C40.7725 22.7019 40.7304 23.6789 40.8987 24.2736C41.0249 24.8259 41.2772 25.2931 41.4455 25.8029C41.6558 26.4826 41.9924 27.1623 42.2447 27.8419C42.2868 27.8844 42.2868 27.9269 42.3289 27.9694C42.3709 27.7145 42.5813 27.7995 42.6654 27.9269C42.8337 28.1393 42.6233 28.2667 42.9178 28.2243C43.044 28.2243 43.1281 28.0543 43.2964 28.0543C43.4226 28.0543 43.5488 28.1393 43.675 28.1818C43.7591 28.2243 43.8432 28.2243 43.9273 28.2667C43.9694 28.3092 44.0115 28.3092 44.0535 28.3517C44.979 28.819 45.9465 28.9889 46.956 29.0739C47.0822 29.0739 47.2084 29.0739 47.2925 29.0314C47.2925 29.4137 47.2925 29.8385 47.2925 30.0509C47.2925 30.3482 47.2505 30.6881 47.1663 31.0279C46.9981 30.9854 46.7878 30.943 46.6195 30.9854C46.1568 31.0704 45.6941 31.1978 45.1893 31.1978C44.8528 31.1978 44.5163 31.2403 44.1797 31.3253C44.1377 31.3253 44.0956 31.3253 44.0535 31.3253C43.1702 31.2403 42.2027 31.0704 41.3193 30.9005C40.6042 30.7306 39.9312 30.8155 39.3843 30.1783C39.0057 29.7111 38.8795 29.2438 38.7954 28.6915C38.5851 28.2667 38.4589 27.8419 38.3748 27.4171C38.1644 26.2277 38.0382 24.7409 38.2065 23.5515C38.3748 22.5319 39.3843 21.3 40.3518 22.3195Z" fill="#048BB5"/>
<path d="M47.1663 28.9888C47.0401 28.7764 47.1243 28.564 46.9981 28.394C46.8298 28.1392 46.4512 28.2241 46.1988 28.3091C45.4837 28.5215 45.1472 29.4136 45.0631 30.1782C44.979 30.7729 45.0631 32.0898 45.9044 31.6225C46.1988 31.4526 46.3671 31.2827 46.7036 31.1977C47.0822 31.0703 46.9981 31.0278 46.9139 30.6455C46.8298 30.3481 46.8719 29.0737 47.2084 29.0737V28.9888H47.1663Z" fill="#FFBE00"/>
<path d="M46.9139 28.8188C47.2505 28.9888 47.6711 28.9888 48.0076 29.0312C48.3442 29.1162 48.6386 29.2436 48.9331 29.3711C49.1855 29.456 49.4378 29.4985 49.4378 29.7959C49.4799 30.1357 49.1855 30.0932 49.0593 30.3056C49.0172 30.4331 49.1013 30.5605 49.0593 30.688C49.0172 30.8154 48.8489 30.7729 48.7648 30.8579C48.5965 31.0278 48.6386 31.3676 48.4283 31.4526C48.26 31.5376 47.9656 31.3676 47.7552 31.3252C47.4608 31.2402 47.2084 31.1552 46.9139 30.9853C46.7036 30.8579 46.5354 30.688 46.3671 30.4756C46.1988 30.2207 46.2409 30.1357 46.325 29.7959C46.4092 29.4985 46.4933 28.7764 46.8719 28.7339L46.9139 28.8188Z" fill="#FFBE00"/>
</g>
</g>
<defs>
<clipPath id="clip0">
<rect width="56" height="56" fill="white"/>
</clipPath>
<clipPath id="clip1">
<rect width="66" height="37" fill="white" transform="matrix(-1 0 0 1 56 10)"/>
</clipPath>
</defs>
</svg>
