<svg width="56" height="56" viewBox="0 0 56 56" fill="none" xmlns="http://www.w3.org/2000/svg">
<path d="M7.3821 24.9456V24.9836C7.00121 26.0675 7.56822 27.2554 8.6505 27.6409L18.1255 30.9578C19.2094 31.3387 20.3973 30.7717 20.7828 29.6894V29.6513C21.1637 28.5674 20.5967 27.3795 19.5144 26.994L10.0394 23.6772C8.95549 23.2963 7.7676 23.8633 7.3821 24.9456Z" fill="#FFBE78"/>
<path d="M5.64412 13.9872H5.60607C5.08602 14.2091 4.84503 15.4395 5.18115 16.524L7.12181 26.1829C7.28158 26.7127 7.6453 27.1574 8.13294 27.419C8.62059 27.6807 9.1922 27.7379 9.72204 27.5781H9.76009C10.2899 27.4183 10.7346 27.0546 10.9963 26.567C11.2579 26.0793 11.3151 25.5077 11.1553 24.9779L7.61015 15.3951C7.2867 14.3043 6.76032 13.6574 5.64412 13.9872Z" fill="#FFBE78"/>
<path d="M4.81997 15.8698C5.23393 16.3659 5.97111 16.434 6.46889 16.022L7.32506 15.3181C7.74836 14.9614 7.80497 14.3301 7.4519 13.9038L4.0843 9.86392C3.9265 9.6655 3.68151 9.55697 3.42853 9.57341C3.17555 9.58985 2.94667 9.72919 2.81589 9.94636L2.29585 10.7772C1.84649 11.4962 1.91047 12.4226 2.4544 13.073L4.81997 15.8698Z" fill="#FFBE78"/>
<path d="M6.77968 13.8411C7.07141 13.8411 7.65488 14.6783 7.66756 14.3865L7.42657 10.9935C7.43732 10.7051 7.21384 10.4618 6.92555 10.4481C6.63713 10.4374 6.39384 10.6609 6.38013 10.9491L6.27866 13.2957C6.2679 13.5841 6.49139 13.8274 6.77968 13.8411Z" fill="#FFBE78"/>
<path d="M19.9455 27.5648L18.8483 22.5609C20.2626 22.1107 22.5267 21.5335 22.8311 21.3623L24.5181 27.0701C24.5181 27.0701 20.6748 28.719 19.9455 27.5648Z" fill="#FFBE78"/>
<path d="M18.9624 23.3923C18.1441 22.5064 17.5427 21.4426 17.2057 20.2847C16.451 16.2638 19.2922 15.8453 20.7699 15.5091C22.5139 15.2047 24.4102 16.0101 25.0888 18.6421C25.0692 18.8149 25.0395 18.9864 25 19.1558L25.9386 20.5193C26.0077 20.6249 26.0277 20.7552 25.9937 20.8767C25.9597 20.9982 25.8749 21.0991 25.7611 21.1535L25.3996 21.3438C25.4503 21.6101 25.7357 22.7517 25.7357 22.7517C25.8625 23.4303 25.6849 24.426 24.8668 24.5846L23.998 24.7431C22.4552 24.7738 21.1048 23.7126 20.7699 22.2063C20.0976 22.2951 19.4761 23.8045 18.9624 23.3923Z" fill="#FFBE78"/>
<path d="M20.7825 15.5089C19.3048 15.8387 16.4572 16.2636 17.2183 20.2845C17.3895 20.9567 18.0871 22.9671 18.975 23.392C21.924 22.9291 19.6092 19.5424 24.8096 17.7857C24.2156 16.1348 22.5033 15.1667 20.7825 15.5089Z" fill="#E6332A"/>
<path d="M29.7946 42.8299L27.892 26.7529C26.6236 25.8713 19.4634 26.3089 15.5187 25.5796L18.9624 42.8299H29.7946Z" fill="#FFBE78"/>
<path d="M37.3541 34.5985V34.5604C37.9214 33.5602 37.5725 32.2895 36.574 31.7192L27.8854 26.7344C26.8852 26.1671 25.6145 26.5159 25.0442 27.5144V27.5525C24.4769 28.5527 24.8258 29.8234 25.8243 30.3937L34.5509 35.3595C35.5375 35.9046 36.7786 35.5676 37.3541 34.5985Z" fill="#FFBE78"/>
<path d="M44.1086 42.3738C44.47 41.9362 44.1086 40.7376 43.3348 39.9004L37.2338 32.1695C36.4368 31.338 35.1168 31.3097 34.2848 32.1061C33.4533 32.9031 33.4249 34.2231 34.2213 35.0551L41.7176 41.9996C42.5104 42.8304 43.2777 43.1729 44.1086 42.3738Z" fill="#FFBE78"/>
<path d="M12.4491 8.34225C12.8977 9.5979 12.8292 10.9803 12.2588 12.1855C12.2222 12.278 12.1776 12.3671 12.1257 12.4519C11.798 13.0753 11.3393 13.6205 10.7812 14.0501C10.7043 14.1138 10.6238 14.1731 10.5402 14.2276C10.4831 14.272 10.4197 14.3101 10.3562 14.3481C10.2662 14.4061 10.1731 14.4591 10.0772 14.5067C9.85595 14.6296 9.6247 14.7336 9.38592 14.8174C9.22384 14.8769 9.05872 14.9277 8.89124 14.9697L8.49803 15.0458C8.37831 15.065 8.25764 15.0777 8.13654 15.0838C8.03736 15.0923 7.93764 15.0923 7.83846 15.0838C7.46231 15.1032 7.08521 15.0755 6.71593 15.0014C6.50154 14.9586 6.28979 14.9035 6.08173 14.8365C5.96123 14.7984 5.84073 14.7477 5.72023 14.6969L5.44752 14.5701C3.0018 13.3458 1.9667 10.4032 3.10732 7.91733C3.14612 7.8238 3.1906 7.73273 3.2405 7.64463C3.56675 7.03659 4.01599 6.50312 4.55964 6.07815C4.63641 6.01426 4.71688 5.95497 4.80064 5.90057C4.93095 5.80635 5.06646 5.71954 5.20653 5.64055C5.39408 5.53367 5.58907 5.44041 5.78999 5.3615L5.9866 5.2854C6.40927 5.1324 6.85104 5.0385 7.29939 5.00635H7.59113H7.68626C8.07271 5.00688 8.45785 5.05156 8.83416 5.13953L9.14492 5.22198C9.30058 5.26688 9.45311 5.32196 9.60155 5.38687L9.88059 5.50737C11.0739 6.081 11.9956 7.09835 12.4491 8.34225Z" fill="#F39200"/>
<path fill-rule="evenodd" clip-rule="evenodd" d="M9.88709 5.50102L9.70318 5.88788C11.0128 7.6709 11.7712 9.79856 11.8848 12.0079L12.259 12.1982C12.2223 12.2906 12.1778 12.3798 12.1258 12.4646L11.758 12.2743C11.2794 12.6376 10.7725 12.9621 10.2422 13.2446L10.7813 14.0501C10.7037 14.103 10.6232 14.1517 10.5403 14.1959L9.98222 13.3524C9.3623 13.6593 8.70896 13.8934 8.03523 14.0501L8.11133 15.0901C8.01215 15.0986 7.91243 15.0986 7.81325 15.0901L7.70544 14.1325C7.11365 14.2496 6.5135 14.3196 5.91065 14.3418L5.69502 14.7033L5.42231 14.5764L5.64429 14.2023C4.35135 12.4162 3.60849 10.2912 3.50703 8.08856L3.12016 7.90464C3.15896 7.81111 3.20344 7.72004 3.25335 7.63194L3.62752 7.81585C4.10313 7.45277 4.60559 7.12627 5.13058 6.83918L4.56614 6.06546C4.64291 6.00157 4.72338 5.94228 4.80714 5.88788L5.40329 6.69966C6.02156 6.38377 6.67813 6.14928 7.35663 6.00204L7.30589 5H7.59763L7.64836 5.95764C8.23452 5.8477 8.82811 5.78198 9.42413 5.76104L9.60805 5.38052L9.88709 5.50102ZM3.76705 8.07568C3.88265 10.2297 4.62311 12.3034 5.89796 14.0435L5.92333 14.0499C6.5022 14.0244 7.0786 13.9587 7.64836 13.8533C6.61868 11.6957 5.8112 9.43904 5.23839 7.11804C4.72614 7.40243 4.23448 7.72243 3.76705 8.07568ZM7.94649 13.7903C6.90111 11.6103 6.08495 9.32764 5.51116 6.97901C6.11653 6.68044 6.7552 6.45477 7.41376 6.30676C8.45898 8.48684 9.27513 10.7695 9.8491 13.1181C9.25176 13.4147 8.62172 13.6404 7.97186 13.7903H7.94649ZM7.69276 6.24329C8.71994 8.40119 9.52529 10.6578 10.0964 12.9785H10.1154C10.6218 12.6945 11.1072 12.3744 11.5677 12.0209C11.4525 9.86677 10.712 7.79295 9.43682 6.05303C8.85163 6.07417 8.26875 6.13775 7.69276 6.24329Z" fill="#F3B65A"/>
<path d="M19.1908 21.508C19.4395 21.508 19.6411 21.3064 19.6411 21.0577C19.6411 20.809 19.4395 20.6074 19.1908 20.6074C18.9421 20.6074 18.7405 20.809 18.7405 21.0577C18.7405 21.3064 18.9421 21.508 19.1908 21.508Z" fill="#BE1622"/>
<path d="M19.007 20.4679C19.1121 20.4679 19.1973 20.3827 19.1973 20.2777C19.1973 20.1726 19.1121 20.0874 19.007 20.0874C18.9019 20.0874 18.8168 20.1726 18.8168 20.2777C18.8168 20.3827 18.9019 20.4679 19.007 20.4679Z" fill="#BE1622"/>
<path d="M18.4613 20.817C18.5664 20.817 18.6516 20.7319 18.6516 20.6268C18.6516 20.5217 18.5664 20.4365 18.4613 20.4365C18.3562 20.4365 18.2711 20.5217 18.2711 20.6268C18.2711 20.7319 18.3562 20.817 18.4613 20.817Z" fill="#BE1622"/>
<path d="M18.4171 21.527C18.5222 21.527 18.6073 21.4418 18.6073 21.3367C18.6073 21.2317 18.5222 21.1465 18.4171 21.1465C18.312 21.1465 18.2268 21.2317 18.2268 21.3367C18.2268 21.4418 18.312 21.527 18.4171 21.527Z" fill="#BE1622"/>
<path d="M18.9686 22.0412C19.0737 22.0412 19.1589 21.956 19.1589 21.8509C19.1589 21.7458 19.0737 21.6606 18.9686 21.6606C18.8636 21.6606 18.7784 21.7458 18.7784 21.8509C18.7784 21.956 18.8636 22.0412 18.9686 22.0412Z" fill="#BE1622"/>
<path d="M19.6789 21.9015C19.784 21.9015 19.8692 21.8163 19.8692 21.7113C19.8692 21.6062 19.784 21.521 19.6789 21.521C19.5738 21.521 19.4886 21.6062 19.4886 21.7113C19.4886 21.8163 19.5738 21.9015 19.6789 21.9015Z" fill="#BE1622"/>
<path d="M20.009 21.2482C20.1141 21.2482 20.1993 21.163 20.1993 21.0579C20.1993 20.9529 20.1141 20.8677 20.009 20.8677C19.9039 20.8677 19.8187 20.9529 19.8187 21.0579C19.8187 21.163 19.9039 21.2482 20.009 21.2482Z" fill="#BE1622"/>
<path d="M19.6789 20.6266C19.784 20.6266 19.8692 20.5414 19.8692 20.4364C19.8692 20.3313 19.784 20.2461 19.6789 20.2461C19.5738 20.2461 19.4886 20.3313 19.4886 20.4364C19.4886 20.5414 19.5738 20.6266 19.6789 20.6266Z" fill="#BE1622"/>
<path d="M55.9999 41.0859V47.2249C54.8225 47.2438 53.6547 47.0103 52.5752 46.54C50.797 45.8122 48.8041 45.8122 47.0259 46.54C44.8155 47.4478 42.3363 47.4478 40.1258 46.54C38.3476 45.8122 36.3547 45.8122 34.5765 46.54C32.3661 47.4478 29.8869 47.4478 27.6764 46.54C26.8046 46.1544 25.8579 45.9681 24.905 45.9946C23.9521 45.9681 23.0053 46.1544 22.1335 46.54C21.048 47.0121 19.8732 47.2436 18.6898 47.2186C17.5044 47.2431 16.3276 47.0117 15.2397 46.54C14.3679 46.1544 13.4212 45.9681 12.4683 45.9946C11.5154 45.9681 10.5686 46.1544 9.69682 46.54C8.60897 47.0117 7.4322 47.2431 6.24676 47.2186C5.06328 47.2442 3.88834 47.0127 2.80305 46.54C1.93126 46.1544 0.984464 45.9681 0.0315857 45.9946V39.8619C1.21429 39.8378 2.38846 40.0671 3.4753 40.5341C4.34646 40.9223 5.29337 41.1108 6.24676 41.0859C7.20225 41.1113 8.15133 40.9228 9.02456 40.5341C10.1114 40.0671 11.2856 39.8378 12.4683 39.8619C13.651 39.8378 14.8252 40.0671 15.912 40.5341C16.7852 40.9228 17.7343 41.1113 18.6898 41.0859C19.6432 41.1108 20.5901 40.9223 21.4613 40.5341C22.5481 40.0671 23.7223 39.8378 24.905 39.8619C26.0877 39.8378 27.2618 40.0671 28.3487 40.5341C30.1254 41.2695 32.1213 41.2695 33.898 40.5341C36.1099 39.6338 38.5861 39.6338 40.7981 40.5341C42.5746 41.2702 44.5708 41.2702 46.3473 40.5341C48.5593 39.6338 51.0355 39.6338 53.2474 40.5341C54.1131 40.9185 55.053 41.1069 55.9999 41.0859Z" fill="#ADF0FF"/>
<path d="M55.9999 41.0859V42.925C54.823 42.9459 53.6552 42.7145 52.5752 42.2464C50.797 41.5187 48.8041 41.5187 47.0259 42.2464C44.8155 43.1542 42.3363 43.1542 40.1258 42.2464C38.3475 41.5193 36.3549 41.5193 34.5765 42.2464C32.3661 43.1542 29.8869 43.1542 27.6764 42.2464C26.8046 41.8609 25.8579 41.6746 24.905 41.701C23.9521 41.6746 23.0053 41.8609 22.1335 42.2464C21.048 42.7185 19.8732 42.95 18.6898 42.925C17.5044 42.9496 16.3276 42.7181 15.2397 42.2464C14.3679 41.8609 13.4212 41.6746 12.4683 41.701C11.5154 41.6746 10.5686 41.8609 9.69682 42.2464C8.60897 42.7181 7.4322 42.9496 6.24676 42.925C5.06328 42.9506 3.88834 42.7191 2.80305 42.2464C1.93126 41.8609 0.984464 41.6746 0.0315857 41.701V39.8618C1.21428 39.838 2.3884 40.0672 3.4753 40.5341C4.34646 40.9223 5.29337 41.1108 6.24676 41.0859C7.20227 41.1115 8.1514 40.923 9.02456 40.5341C10.1115 40.0672 11.2856 39.838 12.4683 39.8618C13.651 39.838 14.8251 40.0672 15.912 40.5341C16.7852 40.923 17.7343 41.1115 18.6898 41.0859C19.6432 41.1108 20.5901 40.9223 21.4613 40.5341C22.5482 40.0672 23.7223 39.838 24.905 39.8618C26.0877 39.838 27.2618 40.0672 28.3487 40.5341C30.1252 41.2702 32.1214 41.2702 33.898 40.5341C36.11 39.6345 38.586 39.6345 40.7981 40.5341C42.5746 41.2702 44.5708 41.2702 46.3473 40.5341C48.5594 39.6345 51.0354 39.6345 53.2474 40.5341C54.1131 40.9185 55.053 41.1069 55.9999 41.0859Z" fill="#52C6FF"/>
<path d="M55.9999 45.3862V47.2253C54.8225 47.2442 53.6547 47.0107 52.5752 46.5404C50.797 45.8126 48.8041 45.8126 47.0259 46.5404C44.8155 47.4482 42.3363 47.4482 40.1258 46.5404C38.3476 45.8126 36.3547 45.8126 34.5765 46.5404C32.3661 47.4482 29.8869 47.4482 27.6764 46.5404C26.8046 46.1548 25.8579 45.9685 24.905 45.995C23.9521 45.9685 23.0053 46.1548 22.1335 46.5404C21.048 47.0125 19.8732 47.244 18.6898 47.219C17.5044 47.2435 16.3276 47.0121 15.2397 46.5404C14.3679 46.1548 13.4212 45.9685 12.4683 45.995C11.5154 45.9685 10.5686 46.1548 9.69682 46.5404C8.60897 47.0121 7.4322 47.2435 6.24676 47.219C5.06328 47.2446 3.88834 47.0131 2.80305 46.5404C1.93126 46.1548 0.984464 45.9685 0.0315857 45.995V44.1558C1.21457 44.1286 2.3894 44.358 3.4753 44.8281C4.34646 45.2162 5.29337 45.4047 6.24676 45.3798C7.20225 45.4052 8.15133 45.2167 9.02456 44.8281C10.1105 44.358 11.2853 44.1286 12.4683 44.1558C13.6512 44.1288 14.826 44.3581 15.912 44.8281C16.7852 45.2167 17.7343 45.4052 18.6898 45.3798C19.6432 45.4047 20.5901 45.2162 21.4613 44.8281C22.5472 44.3581 23.722 44.1288 24.905 44.1558C26.088 44.1286 27.2628 44.358 28.3487 44.8281C30.1254 45.5634 32.1213 45.5634 33.898 44.8281C36.1099 43.9278 38.5861 43.9278 40.7981 44.8281C42.5746 45.5641 44.5708 45.5641 46.3473 44.8281C48.5593 43.9278 51.0355 43.9278 53.2474 44.8281C54.1126 45.2146 55.0525 45.4052 55.9999 45.3862Z" fill="#52C6FF"/>
<path d="M56 45.3798V51.5125C54.8231 51.5334 53.6553 51.302 52.5753 50.8339C50.7971 50.1062 48.8042 50.1062 47.026 50.8339C44.8156 51.7417 42.3364 51.7417 40.1259 50.8339C38.3478 50.1062 36.3548 50.1062 34.5767 50.8339C32.3662 51.7417 29.887 51.7417 27.6766 50.8339C26.8048 50.4482 25.858 50.2618 24.9051 50.2885C23.9522 50.2618 23.0054 50.4482 22.1336 50.8339C21.0482 51.306 19.8733 51.5375 18.6899 51.5125C17.496 51.5407 16.3101 51.3092 15.2145 50.8339C14.3428 50.4482 13.3959 50.2618 12.443 50.2885C11.4901 50.2618 10.5433 50.4482 9.67157 50.8339C8.58373 51.3056 7.40695 51.537 6.22152 51.5125C5.03591 51.5391 3.8587 51.3075 2.77146 50.8339C1.89973 50.4482 0.952896 50.2618 0 50.2885V44.1558C1.18298 44.1286 2.35782 44.3579 3.44371 44.828C4.31488 45.2162 5.26178 45.4047 6.21518 45.3798C7.17068 45.4054 8.11981 45.2169 8.99298 44.828C10.0789 44.3579 11.2537 44.1286 12.4367 44.1558C13.6197 44.1288 14.7944 44.3581 15.8804 44.828C16.7536 45.2169 17.7027 45.4054 18.6582 45.3798C19.6116 45.4047 20.5585 45.2162 21.4297 44.828C22.5156 44.3581 23.6904 44.1288 24.8734 44.1558C26.0564 44.1286 27.2312 44.3579 28.3171 44.828C30.0938 45.5634 32.0897 45.5634 33.8664 44.828C36.0784 43.9284 38.5544 43.9284 40.7665 44.828C42.543 45.5641 44.5392 45.5641 46.3157 44.828C48.5278 43.9284 51.0038 43.9284 53.2159 44.828C54.0912 45.217 55.0424 45.4055 56 45.3798Z" fill="#ADF0FF"/>
<path d="M55.9999 45.3798V47.219C54.823 47.2399 53.6552 47.0085 52.5752 46.5404C50.797 45.8126 48.8041 45.8126 47.0259 46.5404C44.8155 47.4482 42.3363 47.4482 40.1258 46.5404C38.3476 45.8126 36.3547 45.8126 34.5765 46.5404C32.3661 47.4482 29.8869 47.4482 27.6764 46.5404C26.8046 46.1548 25.8579 45.9685 24.905 45.995C23.9521 45.9685 23.0053 46.1548 22.1335 46.5404C21.048 47.0123 19.8732 47.2438 18.6898 47.219C17.5044 47.2435 16.3276 47.012 15.2397 46.5404C14.3679 46.1548 13.4212 45.9685 12.4683 45.995C11.5154 45.9685 10.5686 46.1548 9.69682 46.5404C8.60897 47.012 7.4322 47.2435 6.24676 47.219C5.06328 47.2446 3.88834 47.0131 2.80305 46.5404C1.93126 46.1548 0.984464 45.9685 0.0315857 45.995V44.1558C1.21457 44.1286 2.3894 44.3579 3.4753 44.828C4.34646 45.2162 5.29337 45.4047 6.24676 45.3798C7.20227 45.4054 8.1514 45.2169 9.02456 44.828C10.1105 44.3579 11.2853 44.1286 12.4683 44.1558C13.6512 44.1288 14.826 44.3581 15.912 44.828C16.7852 45.2169 17.7343 45.4054 18.6898 45.3798C19.6432 45.4047 20.5901 45.2162 21.4613 44.828C22.5472 44.3581 23.722 44.1288 24.905 44.1558C26.088 44.1286 27.2628 44.3579 28.3487 44.828C30.1254 45.5634 32.1213 45.5634 33.898 44.828C36.11 43.9284 38.586 43.9284 40.7981 44.828C42.5746 45.5641 44.5708 45.5641 46.3473 44.828C48.5594 43.9284 51.0354 43.9284 53.2474 44.828C54.1131 45.2124 55.053 45.4008 55.9999 45.3798Z" fill="#52C6FF"/>
<path d="M56 49.6791V51.5183C54.8226 51.5372 53.6549 51.3036 52.5753 50.8334C50.7971 50.1056 48.8042 50.1056 47.026 50.8334C44.8156 51.7411 42.3364 51.7411 40.1259 50.8334C38.3478 50.1056 36.3548 50.1056 34.5767 50.8334C32.3662 51.7411 29.887 51.7411 27.6766 50.8334C26.8048 50.4478 25.858 50.2615 24.9051 50.2879C23.9522 50.2615 23.0054 50.4478 22.1336 50.8334C21.0481 51.3053 19.8733 51.5368 18.6899 51.512C17.496 51.5401 16.3101 51.3086 15.2145 50.8334C14.3427 50.4478 13.3959 50.2615 12.443 50.2879C11.4902 50.2615 10.5434 50.4478 9.67157 50.8334C8.58373 51.305 7.40695 51.5365 6.22152 51.512C5.03591 51.5385 3.8587 51.3069 2.77146 50.8334C1.89967 50.4478 0.952878 50.2615 0 50.2879V48.4488C1.18298 48.4216 2.35782 48.6509 3.44371 49.121C4.31488 49.5092 5.26178 49.6977 6.21518 49.6728C7.17066 49.6982 8.11975 49.5097 8.99298 49.121C10.0789 48.6509 11.2537 48.4216 12.4367 48.4488C13.6197 48.4218 14.7944 48.6511 15.8804 49.121C16.7536 49.5097 17.7027 49.6982 18.6582 49.6728C19.6116 49.6977 20.5585 49.5092 21.4297 49.121C22.5156 48.6511 23.6904 48.4218 24.8734 48.4488C26.0564 48.4216 27.2312 48.6509 28.3171 49.121C30.0938 49.8564 32.0897 49.8564 33.8664 49.121C36.0784 48.2214 38.5544 48.2214 40.7665 49.121C42.543 49.8571 44.5392 49.8571 46.3157 49.121C48.5278 48.2214 51.0038 48.2214 53.2159 49.121C54.0907 49.5122 55.042 49.7029 56 49.6791Z" fill="#52C6FF"/>
</svg>
