<svg width="56" height="56" viewBox="0 0 56 56" fill="none" xmlns="http://www.w3.org/2000/svg">
<path d="M52.3451 38.6051V44.405C51.2711 44.4332 50.204 44.2196 49.2164 43.7786C47.6058 43.0912 45.8007 43.0912 44.1901 43.7786C42.1874 44.6358 39.9415 44.6358 37.9388 43.7786C36.3282 43.0912 34.5231 43.0912 32.9125 43.7786C30.9099 44.6365 28.6638 44.6365 26.6611 43.7786C25.8714 43.4149 25.0139 43.2395 24.151 43.265C23.2881 43.2395 22.4306 43.4149 21.6409 43.7786C20.6554 44.2197 19.5902 44.4333 18.5182 44.405C17.4442 44.4338 16.3769 44.2202 15.3895 43.7786C14.5998 43.4149 13.7423 43.2395 12.8794 43.265C12.0165 43.2395 11.1589 43.4149 10.3692 43.7786C9.38182 44.2202 8.31455 44.4338 7.24057 44.405C6.16852 44.4339 5.10318 44.2202 4.1179 43.7786C3.32819 43.4149 2.47067 43.2395 1.60776 43.265V37.4652C2.67956 37.4393 3.74425 37.6529 4.73042 38.0915C5.51954 38.4577 6.37716 38.6353 7.24057 38.6114C8.10597 38.6361 8.9657 38.4584 9.75671 38.0915C10.7429 37.6529 11.8076 37.4393 12.8794 37.4652C13.9512 37.4393 15.0159 37.6529 16.002 38.0915C16.7931 38.4584 17.6528 38.6361 18.5182 38.6114C19.3816 38.6353 20.2392 38.4577 21.0283 38.0915C23.0303 37.2414 25.2717 37.2414 27.2737 38.0915C28.8827 38.7871 30.6909 38.7871 32.3 38.0915C34.304 37.241 36.5473 37.241 38.5513 38.0915C40.1605 38.7864 41.9684 38.7864 43.5776 38.0915C45.5816 37.241 47.8249 37.241 49.8289 38.0915C50.6206 38.4557 51.4802 38.6311 52.3451 38.6051Z" fill="#ADF0FF"/>
<path d="M52.3451 38.6045V40.3457C51.2711 40.374 50.204 40.1604 49.2164 39.7194C47.6058 39.0319 45.8007 39.0319 44.1901 39.7194C42.1875 40.5773 39.9414 40.5773 37.9388 39.7194C36.328 39.0326 34.5232 39.0326 32.9125 39.7194C30.9099 40.5773 28.6638 40.5773 26.6611 39.7194C25.8714 39.3557 25.0139 39.1803 24.151 39.2058C23.2881 39.1803 22.4306 39.3557 21.6409 39.7194C20.6554 40.1604 19.5902 40.3741 18.5182 40.3457C17.4442 40.3748 16.3769 40.1611 15.3895 39.7194C14.5998 39.3557 13.7423 39.1803 12.8794 39.2058C12.0165 39.1803 11.1589 39.3557 10.3692 39.7194C9.38188 40.1611 8.31457 40.3748 7.24057 40.3457C6.1685 40.3749 5.10313 40.1612 4.1179 39.7194C3.33152 39.3406 2.47386 39.1502 1.60776 39.1619V37.4207C2.67956 37.3949 3.74425 37.6085 4.73042 38.0471C5.51966 38.4129 6.3772 38.5905 7.24057 38.5669C8.10593 38.5912 8.96557 38.4136 9.75671 38.0471C10.7429 37.6085 11.8076 37.3949 12.8794 37.4207C13.9512 37.3949 15.0159 37.6085 16.002 38.0471C16.7932 38.4136 17.6528 38.5912 18.5182 38.5669C19.3816 38.5905 20.2391 38.4129 21.0283 38.0471C23.0303 37.1969 25.2717 37.1969 27.2737 38.0471C28.883 38.7413 30.6906 38.7413 32.3 38.0471C34.304 37.1966 36.5473 37.1966 38.5513 38.0471C40.1606 38.7413 41.9683 38.7413 43.5776 38.0471C45.5816 37.1966 47.8249 37.1966 49.8289 38.0471C50.6174 38.4259 51.477 38.6164 52.3451 38.6045Z" fill="#52C6FF"/>
<path d="M52.3451 42.6637V44.4049C51.2711 44.4332 50.204 44.2195 49.2164 43.7786C47.6058 43.0911 45.8007 43.0911 44.1901 43.7786C42.1874 44.6358 39.9415 44.6358 37.9388 43.7786C36.3282 43.0911 34.5231 43.0911 32.9125 43.7786C30.9099 44.6365 28.6638 44.6365 26.6611 43.7786C25.8714 43.4149 25.0139 43.2394 24.151 43.265C23.2881 43.2394 22.4306 43.4149 21.6409 43.7786C20.6554 44.2196 19.5902 44.4333 18.5182 44.4049C17.4442 44.4338 16.3769 44.2201 15.3895 43.7786C14.5998 43.4149 13.7423 43.2394 12.8794 43.265C12.0165 43.2394 11.1589 43.4149 10.3692 43.7786C9.38182 44.2201 8.31455 44.4338 7.24057 44.4049C6.16852 44.4339 5.10318 44.2202 4.1179 43.7786C3.32819 43.4149 2.47067 43.2394 1.60776 43.265V41.5238C2.67981 41.4948 3.74514 41.7085 4.73042 42.1501C5.51966 42.5159 6.3772 42.6935 7.24057 42.6699C8.10593 42.6942 8.96557 42.5166 9.75671 42.1501C10.742 41.7085 11.8073 41.4948 12.8794 41.5238C13.9514 41.4948 15.0168 41.7085 16.002 42.1501C16.7932 42.5166 17.6528 42.6942 18.5182 42.6699C19.3816 42.6935 20.2391 42.5159 21.0283 42.1501C22.0136 41.7085 23.079 41.4948 24.151 41.5238C25.2231 41.4948 26.2884 41.7085 27.2737 42.1501C28.883 42.8443 30.6906 42.8443 32.3 42.1501C34.304 41.2996 36.5473 41.2996 38.5513 42.1501C40.1606 42.8443 41.9683 42.8443 43.5776 42.1501C45.5816 41.2996 47.8249 41.2996 49.8289 42.1501C50.6207 42.5139 51.4802 42.6893 52.3451 42.6637Z" fill="#52C6FF"/>
<path d="M52.3451 42.6635V48.4571C51.2711 48.4858 50.2039 48.2721 49.2164 47.8308C47.6058 47.1434 45.8007 47.1434 44.1901 47.8308C42.1876 48.6894 39.9413 48.6894 37.9388 47.8308C36.328 47.144 34.5232 47.144 32.9125 47.8308C30.91 48.6894 28.6636 48.6894 26.6611 47.8308C25.8714 47.4673 25.0139 47.2919 24.151 47.3172C23.2881 47.2919 22.4306 47.4673 21.6409 47.8308C20.6555 48.2722 19.5902 48.4859 18.5182 48.4571C17.4442 48.4864 16.3768 48.2727 15.3895 47.8308C14.5998 47.4673 13.7423 47.2919 12.8794 47.3172C12.0165 47.2919 11.159 47.4673 10.3692 47.8308C9.38194 48.2727 8.31458 48.4864 7.24057 48.4571C6.16847 48.4867 5.10302 48.273 4.1179 47.8308C3.32907 47.463 2.47156 47.2833 1.60776 47.3047V41.5111C2.67981 41.4821 3.74514 41.6958 4.73042 42.1374C5.51954 42.5036 6.37716 42.6812 7.24057 42.6573C8.10597 42.682 8.9657 42.5043 9.75671 42.1374C10.742 41.6958 11.8073 41.4821 12.8794 41.5111C13.9514 41.4821 15.0168 41.6958 16.002 42.1374C16.7931 42.5043 17.6528 42.682 18.5182 42.6573C19.3816 42.6812 20.2392 42.5036 21.0283 42.1374C22.0136 41.6958 23.079 41.4821 24.151 41.5111C25.2231 41.4821 26.2884 41.6958 27.2737 42.1374C28.8827 42.833 30.6909 42.833 32.3 42.1374C34.304 41.2869 36.5473 41.2869 38.5513 42.1374C40.1605 42.8323 41.9684 42.8323 43.5776 42.1374C45.5816 41.2869 47.8249 41.2869 49.8289 42.1374C50.6197 42.5059 51.4793 42.6856 52.3451 42.6635Z" fill="#ADF0FF"/>
<path d="M52.3451 42.6637V44.4049C51.2711 44.4336 50.2039 44.2199 49.2164 43.7786C47.6058 43.0911 45.8007 43.0911 44.1901 43.7786C42.1876 44.6371 39.9413 44.6371 37.9388 43.7786C36.328 43.0918 34.5232 43.0918 32.9125 43.7786C30.91 44.6371 28.6636 44.6371 26.6611 43.7786C25.8714 43.4149 25.0139 43.2394 24.151 43.265C23.2881 43.2394 22.4306 43.4149 21.6409 43.7786C20.6555 44.22 19.5902 44.4337 18.5182 44.4049C17.4442 44.4342 16.3768 44.2205 15.3895 43.7786C14.5998 43.4149 13.7423 43.2394 12.8794 43.265C12.0165 43.2394 11.1589 43.4149 10.3692 43.7786C9.38194 44.2205 8.31458 44.4342 7.24057 44.4049C6.16847 44.4345 5.10302 44.2208 4.1179 43.7786C3.32819 43.4149 2.47067 43.2394 1.60776 43.265V41.5238C2.67981 41.4948 3.74514 41.7085 4.73042 42.1501C5.51954 42.5163 6.37716 42.6939 7.24057 42.6699C8.10597 42.6947 8.9657 42.517 9.75671 42.1501C10.742 41.7085 11.8073 41.4948 12.8794 41.5238C13.9514 41.4948 15.0168 41.7085 16.002 42.1501C16.7931 42.517 17.6528 42.6947 18.5182 42.6699C19.3816 42.6939 20.2392 42.5163 21.0283 42.1501C22.0136 41.7085 23.079 41.4948 24.151 41.5238C25.2231 41.4948 26.2884 41.7085 27.2737 42.1501C28.8827 42.8457 30.6909 42.8457 32.3 42.1501C34.304 41.2996 36.5473 41.2996 38.5513 42.1501C40.1605 42.845 41.9684 42.845 43.5776 42.1501C45.5816 41.2996 47.8249 41.2996 49.8289 42.1501C50.6206 42.5143 51.4802 42.6897 52.3451 42.6637Z" fill="#52C6FF"/>
<path d="M52.3451 46.722V48.4632C51.2711 48.4919 50.2039 48.2783 49.2164 47.8369C47.6058 47.1495 45.8007 47.1495 44.1901 47.8369C42.1876 48.6955 39.9413 48.6955 37.9388 47.8369C36.3282 47.1495 34.5231 47.1495 32.9125 47.8369C30.91 48.6955 28.6636 48.6955 26.6611 47.8369C25.8714 47.4732 25.0139 47.2978 24.151 47.3233C23.2881 47.2978 22.4306 47.4732 21.6409 47.8369C20.6555 48.2783 19.5902 48.492 18.5182 48.4632C17.4442 48.4925 16.3768 48.2788 15.3895 47.8369C14.5998 47.4732 13.7423 47.2978 12.8794 47.3233C12.0165 47.2978 11.1589 47.4732 10.3692 47.8369C9.38194 48.2788 8.31458 48.4925 7.24057 48.4632C6.16849 48.4926 5.10307 48.2789 4.1179 47.8369C3.32961 47.4668 2.47204 47.2849 1.60776 47.3045V45.5633C2.67981 45.5343 3.74514 45.748 4.73042 46.1896C5.51954 46.5559 6.37716 46.7335 7.24057 46.7095C8.10597 46.7342 8.9657 46.5566 9.75671 46.1896C10.742 45.748 11.8073 45.5343 12.8794 45.5633C13.9514 45.5343 15.0168 45.748 16.002 46.1896C16.7931 46.5566 17.6528 46.7342 18.5182 46.7095C19.3816 46.7335 20.2392 46.5559 21.0283 46.1896C22.0136 45.748 23.079 45.5343 24.151 45.5633C25.2231 45.5343 26.2884 45.748 27.2737 46.1896C28.8827 46.8852 30.6909 46.8852 32.3 46.1896C34.304 45.3391 36.5473 45.3391 38.5513 46.1896C40.1605 46.8846 41.9684 46.8846 43.5776 46.1896C45.5816 45.3391 47.8249 45.3391 49.8289 46.1896C50.6192 46.5603 51.4788 46.7422 52.3451 46.722Z" fill="#52C6FF"/>
<path d="M15.4316 23.98C14.9983 24.2192 14.6747 24.629 14.5326 25.1183C14.3905 25.6076 14.4417 26.1359 14.6749 26.5856V26.6231C14.9044 27.0748 15.2969 27.4126 15.7656 27.5619C16.2344 27.7111 16.7408 27.6596 17.173 27.4186L20.3498 25.6461L18.7464 22.1323L15.4316 23.98Z" fill="#EBAF6E"/>
<path d="M23.4604 21.7439V21.7126C23.2742 21.3556 21.797 21.0173 21.4667 20.8545C21.0961 20.9478 20.7344 21.0757 20.3858 21.2366L18.7824 22.126L20.3858 25.6397L21.1064 25.2388L22.7038 24.3494C23.1358 24.109 23.4584 23.6992 23.6003 23.2104C23.7423 22.7216 23.6919 22.1939 23.4604 21.7439Z" fill="#00A19A"/>
<path d="M34.2155 22.514C34.0386 22.0346 33.6851 21.6489 33.2338 21.443C32.7826 21.237 32.2711 21.228 31.8134 21.4179H31.7774C31.3177 21.6024 30.9479 21.9711 30.7505 22.4418C30.5531 22.9124 30.5444 23.4459 30.7265 23.9233L31.9936 27.3055L35.3625 25.6081L34.2155 22.514Z" fill="#00A19A"/>
<path d="M37.4584 31.1453L35.3866 25.6147L32.0177 27.3121L33.9814 32.5608C34.1583 33.0403 34.5118 33.426 34.963 33.6319C35.4143 33.8378 35.9258 33.8468 36.3835 33.6569H36.4195C36.8785 33.47 37.2467 33.0993 37.4418 32.6274C37.637 32.1555 37.643 31.6218 37.4584 31.1453Z" fill="#EBAF6E"/>
<path d="M39.5001 27.2618V27.3245C39.3981 27.6001 39.1218 28.3705 38.7915 29.2598C38.191 30.9259 37.4224 33.0179 37.4224 33.0179C37.1846 33.4643 36.7864 33.7937 36.3155 33.9335C35.8446 34.0734 35.3397 34.0121 34.9122 33.7632H34.8762C33.9863 33.2421 33.6692 32.0677 34.1676 31.1389C34.1676 31.1389 35.9271 28.5208 37.008 26.9299L37.3143 26.4727L39.5001 27.2618Z" fill="#EBAF6E"/>
<path d="M32.8223 21.9129L32.2217 34.5648C32.1965 34.9187 31.9134 35.1921 31.5732 35.1912H22.3793C22.0402 35.1891 21.7588 34.9173 21.7308 34.5648L21.1783 25.9214L21.1303 25.2137L20.8961 21.5559C20.8905 21.2955 21.025 21.0538 21.2444 20.9295C21.2864 20.9075 21.3307 20.8907 21.3765 20.8794H21.4846L22.2412 20.798H22.3193L26.9132 20.3157C26.971 20.3082 27.0295 20.3082 27.0874 20.3157L32.8102 21.3617C33.1465 21.3805 32.8403 21.5621 32.8223 21.9129Z" fill="#00A19A"/>
<path d="M32.1858 35.8367H21.7669C21.4352 35.8367 21.1664 35.5562 21.1664 35.2103C21.1664 34.8644 21.4352 34.584 21.7669 34.584H32.1858C32.5174 34.584 32.7863 34.8644 32.7863 35.2103C32.7863 35.5562 32.5174 35.8367 32.1858 35.8367Z" fill="#3C3C3B"/>
<path d="M26.9793 35.2104H21.7668L16.7886 37.8598L26.9793 36.6134V35.2104Z" fill="#E6332A"/>
<path d="M16.7886 37.8597L18.8123 42.9518H26.9793V36.6133L16.7886 37.8597Z" fill="#BE1622"/>
<path d="M26.9794 35.2104H32.1858L37.1641 37.8598L26.9794 36.6134V35.2104Z" fill="#C72C24"/>
<path d="M37.1641 37.8597L35.1464 42.9518H26.9794V36.6133L37.1641 37.8597Z" fill="#9F121C"/>
<path d="M29.0513 20.6352C29.0513 22.5142 24.8897 22.0695 24.9137 20.5099V16.0566H29.0513V20.6352Z" fill="#EBAF6E"/>
<path d="M27.0635 19.5139H27.0275C25.9766 19.5139 25.5202 19.3636 24.9557 18.6997C24.649 18.3151 24.3624 17.9137 24.097 17.4971C23.7501 16.9051 23.5118 16.2509 23.3944 15.568H23.3283C23.2557 15.5894 23.1787 15.5894 23.1061 15.568C22.7998 15.449 22.6978 14.9981 22.6017 14.4093C22.4816 13.6827 22.5116 13.0376 22.8959 12.9687C23.1449 12.9588 23.3777 13.0972 23.4964 13.3257V11.3716C23.4932 10.9613 23.6465 10.5664 23.9224 10.274C24.1983 9.98148 24.5743 9.8153 24.9677 9.81199L28.9731 9.77441C29.7958 9.77441 30.6666 10.2692 30.6726 11.1273L30.6365 12.856C30.8047 12.5992 30.8647 12.856 31.0749 12.856C31.4592 12.9186 31.5313 13.5637 31.4232 14.2903C31.3391 14.879 31.213 15.3363 30.9068 15.4553C30.8361 15.4758 30.7613 15.4758 30.6906 15.4553H30.6245C30.5187 16.1397 30.2927 16.798 29.958 17.3969C29.6989 17.8194 29.4182 18.2271 29.1172 18.6183C28.5708 19.3386 28.1144 19.5077 27.0635 19.5139Z" fill="#FFBE78"/>
<path d="M23.7426 10.7327C23.6518 10.9282 23.6026 11.1418 23.5985 11.359V13.5199C23.5985 13.5199 23.5985 13.5199 23.5625 13.5199C23.4678 13.3541 23.3571 13.1988 23.2322 13.0564C23.1786 12.986 23.0961 12.9464 23.01 12.9499L22.8779 11.2651C22.8628 10.8697 22.9178 10.4747 23.04 10.1001C23.2451 10.3438 23.4816 10.5567 23.7426 10.7327Z" fill="#575756"/>
<path d="M26.1808 7.68897C26.0306 7.48603 26.0306 7.20293 26.1808 7C26.6492 7.62634 27.3157 7.40085 28.9611 7.92071C29.4626 8.1154 29.9117 8.43338 30.2703 8.84769C30.3363 8.91659 30.3964 8.99175 30.4564 9.06691C30.9277 9.67087 31.1769 10.4305 31.159 11.209L31.0509 12.8938C30.9502 12.886 30.8513 12.925 30.7807 13.0003C30.6521 13.1312 30.5554 13.2923 30.4985 13.47C30.5269 12.5284 30.4827 11.5858 30.3663 10.6515C29.4235 8.29025 25.6763 14.2091 21.8271 9.34249C21.8271 9.29865 22.3375 9.2736 22.3075 9.23602C22.0134 8.829 21.7862 8.37396 21.6349 7.8894C21.6349 7.8894 22.1153 8.51573 23.4004 8.40925C23.4665 8.40925 23.1602 8.0084 23.2262 8.02093C23.801 8.15541 24.3996 8.12949 24.9617 7.94577C25.3476 7.77643 25.7621 7.68913 26.1808 7.68897Z" fill="#3C3C3B"/>
<path d="M17.1129 18.9627L15.0352 18.8374C15.0352 18.9689 15.0352 19.0817 15.0051 19.1756L14.4046 25.6519C14.4046 26.7125 15.2254 27.5742 16.2422 27.581H16.2782C16.7672 27.5827 17.2367 27.3817 17.5836 27.0223C17.9305 26.6629 18.1262 26.1744 18.1278 25.6645L17.1129 18.9627Z" fill="#EBAF6E"/>
<path d="M16.9628 22.9594L14.9031 22.6211V20.4603C14.4587 20.335 14.3506 19.6774 14.5067 18.9884L15.1793 16.2513C16.4824 16.0822 17.4733 16.8777 18.7824 17.2284L18.4521 18.7128L19.0887 18.8506C19.0887 18.9132 18.5542 20.216 18.4881 20.3162C18.2916 20.6947 17.9517 20.9697 17.5513 21.0741L17.3171 21.1242L16.9628 22.9594Z" fill="#EBAF6E"/>
<path d="M40.5992 24.5057L40.1968 26.748C40.0707 27.4432 39.7164 28.0007 39.26 27.9255V27.9881C39.1579 28.2637 38.8817 29.0341 38.5514 29.9235L36.4436 29.3348L36.7739 27.556V27.4871L36.5757 27.343C36.251 27.075 36.0486 26.6776 36.0172 26.2469C36.0172 26.0215 36.0593 24.75 36.0653 24.6874L36.6958 24.8377L36.9721 23.3345C38.3172 23.5036 39.4041 24.1299 40.5992 24.5057Z" fill="#EBAF6E"/>
<rect width="1.37912" height="41.347" transform="matrix(0.289851 -0.957072 0.949782 0.312913 10.0591 16.5)" fill="#7B6A58"/>
<path d="M55.9001 29.4666L55.1134 32.0722C54.9307 32.6786 54.5052 33.1727 53.9469 33.4273C53.3885 33.6819 52.7518 33.6719 52.2009 33.4L44.8026 30.0617C43.8515 29.5904 43.3798 28.4593 43.6977 27.4123L43.9919 26.4477C44.3098 25.4005 45.32 24.7587 46.3579 24.9445L54.2727 26.6356C54.8685 26.7497 55.3885 27.1256 55.6999 27.6675C56.0114 28.2093 56.0843 28.8648 55.9001 29.4666Z" fill="#F39200"/>
<path d="M48.1714 28.3454C48.1009 28.5871 47.9406 28.7893 47.7263 28.907C47.5119 29.0246 47.2614 29.048 47.0304 28.9718L42.1183 27.3558L42.6707 25.5332L47.5829 27.1491C47.8138 27.2252 48.006 27.3945 48.1165 27.6192C48.227 27.8439 48.2468 28.1054 48.1714 28.3454Z" fill="#F9B233"/>
<path d="M0.100413 13.9213L0.89309 11.3157C1.07468 10.7026 1.50408 10.2028 2.06859 9.94751C2.63311 9.69225 3.27638 9.707 3.8296 9.9879L11.2279 13.3263C12.1755 13.807 12.6372 14.9438 12.3088 15.9882L12.0146 16.9527C11.6967 18 10.6865 18.6417 9.64857 18.4559L1.75182 16.7586C1.15018 16.6511 0.622781 16.2768 0.306022 15.7326C-0.0107359 15.1883 -0.0857385 14.5276 0.100413 13.9213Z" fill="#F39200"/>
<path d="M7.82896 15.042C7.89948 14.8003 8.05978 14.5981 8.27411 14.4804C8.48845 14.3628 8.739 14.3394 8.96993 14.4156L13.8821 16.0316L13.3297 17.8667L8.41746 16.2508C8.18372 16.1749 7.98934 16.0036 7.8785 15.776C7.76767 15.5483 7.7498 15.2836 7.82896 15.042Z" fill="#F9B233"/>
<path d="M37.4583 24.3932C37.435 24.5343 37.3581 24.6597 37.2451 24.741C37.1322 24.8223 36.9925 24.8527 36.8578 24.8254H36.7677C36.6324 24.8011 36.5122 24.721 36.4342 24.6031C36.3563 24.4853 36.3271 24.3396 36.3533 24.1991L36.5335 23.1343C36.5793 22.8634 36.8259 22.6817 37.086 22.7272L37.2781 22.7585C37.3956 22.7784 37.5005 22.8466 37.5694 22.9478C37.6382 23.0491 37.6653 23.1749 37.6444 23.2971L37.4583 24.3932Z" fill="#FFBE78"/>
<path d="M38.5513 24.525C38.5308 24.6684 38.4552 24.7969 38.3419 24.8809C38.2286 24.9648 38.0873 24.9969 37.9508 24.9697H37.8607C37.7243 24.9469 37.6026 24.8674 37.5234 24.7494C37.4442 24.6313 37.4142 24.4849 37.4403 24.3434L37.6445 22.9968C37.6651 22.8655 37.7349 22.7481 37.8386 22.6706C37.9422 22.5931 38.0711 22.5617 38.197 22.5834L38.3891 22.6147C38.6312 22.6563 38.7952 22.8946 38.7555 23.1471L38.5513 24.525Z" fill="#FFBE78"/>
<path d="M39.6081 24.8439C39.5848 24.985 39.508 25.1104 39.395 25.1917C39.282 25.273 39.1424 25.3034 39.0076 25.2761H38.9175C38.7822 25.2518 38.662 25.1716 38.5841 25.0538C38.5061 24.9359 38.477 24.7903 38.5032 24.6497L38.6833 23.585C38.7291 23.3141 38.9757 23.1324 39.2358 23.1779L39.428 23.2092C39.5443 23.2305 39.6478 23.2994 39.7154 23.4004C39.783 23.5015 39.8092 23.6265 39.7883 23.7478L39.6081 24.8439Z" fill="#FFBE78"/>
<path d="M40.4909 25.1512C40.4679 25.2618 40.4037 25.3582 40.3125 25.4193C40.2212 25.4804 40.1104 25.5011 40.0045 25.4769H39.9265C39.8188 25.4614 39.7216 25.4018 39.6562 25.3113C39.5908 25.2208 39.5628 25.1068 39.5782 24.9947L39.7163 24.1804C39.7613 23.9673 39.9615 23.8309 40.1667 23.8735H40.3228C40.4171 23.8859 40.5027 23.9374 40.5603 24.0163C40.6179 24.0952 40.6427 24.195 40.6291 24.2932L40.4909 25.1512Z" fill="#FFBE78"/>
<path d="M37.0019 27.5188C37.3764 27.5548 37.7352 27.3539 37.9132 27.0084C38.0913 26.663 38.054 26.24 37.8186 25.9341C37.6427 25.7253 37.4255 25.5587 37.1821 25.4456V25.2577C37.1852 25.1666 37.227 25.0817 37.2962 25.0259L37.7105 24.6815C37.8542 24.5621 37.9464 24.388 37.9667 24.1975C37.987 24.0071 37.9337 23.8161 37.8186 23.6668L37.7526 23.5791C37.64 23.4349 37.4379 23.41 37.2962 23.5227L36.8458 23.8923L36.1732 24.4372C36.1032 24.4947 36.0561 24.5773 36.0411 24.6689C36.0411 24.7316 35.993 26.1408 35.9991 26.2536C36.0289 26.6846 36.2317 27.0826 36.5575 27.3496L36.7557 27.4937L37.0019 27.5188Z" fill="#FFC78A"/>
<path d="M17.9415 17.9925C17.8847 18.2716 18.0489 18.5479 18.3139 18.6188H18.4039C18.6715 18.6782 18.9364 18.5069 19.0044 18.2305L19.2807 17.2409C19.3171 17.1096 19.3006 16.9684 19.2348 16.8501C19.169 16.7319 19.0598 16.6468 18.9324 16.6146L18.7462 16.5645C18.6315 16.5342 18.51 16.5529 18.4086 16.6163C18.3071 16.6798 18.2341 16.7829 18.2058 16.9027L17.9415 17.9925Z" fill="#FFBE78"/>
<path d="M16.8127 17.8671C16.7554 18.1443 16.9165 18.4198 17.1791 18.4935H17.2691C17.5349 18.5532 17.799 18.3852 17.8696 18.1114L18.2059 16.7961C18.2426 16.6656 18.2268 16.5252 18.1623 16.4071C18.0977 16.289 17.9899 16.2034 17.8636 16.1697L17.6775 16.1196C17.4404 16.0562 17.1988 16.2046 17.137 16.4516L16.8127 17.8671Z" fill="#FFBE78"/>
<path d="M15.7917 17.4595C15.7348 17.7386 15.899 18.0149 16.164 18.0859H16.2541C16.5217 18.1452 16.7866 17.9739 16.8546 17.6975L17.1068 16.6515C17.1433 16.5202 17.1267 16.3791 17.0609 16.2608C16.9952 16.1425 16.8859 16.0574 16.7585 16.0252L16.5724 15.9751C16.4577 15.9448 16.3361 15.9635 16.2347 16.027C16.1333 16.0905 16.0603 16.1935 16.0319 16.3133L15.7917 17.4595Z" fill="#FFBE78"/>
<path d="M14.9991 17.0778C14.9759 17.1883 14.9958 17.3038 15.0544 17.399C15.113 17.4942 15.2054 17.5611 15.3114 17.5851H15.3894C15.6049 17.6498 15.8301 17.5212 15.8939 17.297L16.086 16.4953C16.1269 16.2813 15.9961 16.0725 15.7918 16.0256L15.6417 15.988C15.5509 15.9589 15.4527 15.969 15.3691 16.0161C15.2856 16.0632 15.2237 16.1434 15.1973 16.2385L14.9991 17.0778Z" fill="#FFBE78"/>
<path d="M17.1427 21.0424C16.7875 20.9114 16.5421 20.5712 16.5198 20.1789C16.4975 19.7866 16.7027 19.4186 17.0407 19.2448C17.2819 19.1295 17.544 19.0697 17.8093 19.0694L17.8814 18.9003C17.9192 18.817 17.9192 18.7205 17.8814 18.6372L17.6352 18.1487C17.5489 17.9786 17.5315 17.7796 17.5868 17.5961C17.6421 17.4125 17.7654 17.2597 17.9294 17.1716L18.0255 17.1215C18.185 17.0382 18.379 17.102 18.4639 17.2656L18.7341 17.7917L19.1304 18.5746C19.1722 18.6573 19.1829 18.7534 19.1605 18.8439C19.1605 18.9066 18.626 20.2093 18.56 20.3095C18.3634 20.688 18.0235 20.963 17.6232 21.0674L17.389 21.1175L17.1427 21.0424Z" fill="#FFC78A"/>
</svg>
