<svg width="56" height="56" viewBox="0 0 56 56" fill="none" xmlns="http://www.w3.org/2000/svg">
<path d="M25.0645 29.4282C25.5339 32.3526 25.9779 37.0405 25.7876 37.5226C25.1809 39.0882 24.9003 40.7611 24.963 42.4389C25.166 44.8558 25.629 47.9832 25.7432 49.3407C25.8574 50.6982 24.8298 50.8441 24.9439 52.2017C25.0264 53.2357 25.9082 52.836 26.3966 53.8129C27.2213 55.4432 27.031 56.1601 29.2956 55.9697C31.0909 55.8238 30.171 55.5511 29.1624 54.3839C28.1538 53.2166 27.5765 50.5777 27.6463 47.7294C27.7034 45.3379 28.8516 40.3392 28.9531 38.7342C29.0546 37.1293 31.0147 31.2108 31.0147 31.2108L25.0645 29.4282Z" fill="#FFB77E"/>
<g style="mix-blend-mode:multiply" opacity="0.3">
<path d="M25.3882 31.7309C26.012 32.2589 26.7139 32.6869 27.4689 32.9996C28.3523 33.4133 29.1882 33.9217 29.9619 34.5158L31.015 31.1537L25.1662 30.1704L25.3882 31.7309Z" fill="#FFB77E"/>
</g>
<path d="M23.8467 12.155C25.658 12.155 27.1264 10.6866 27.1264 8.87533C27.1264 7.06404 25.658 5.5957 23.8467 5.5957C22.0354 5.5957 20.5671 7.06404 20.5671 8.87533C20.5671 10.6866 22.0354 12.155 23.8467 12.155Z" fill="#F04E2E"/>
<path d="M23.8466 5.59576C23.7768 5.59576 23.7071 5.59576 23.6373 5.59576C25.1571 5.70462 26.3235 6.98787 26.2871 8.51111C26.2508 10.0343 25.0246 11.2606 23.5014 11.2969C21.9781 11.3332 20.6949 10.1668 20.586 8.64702C20.586 8.7168 20.586 8.78658 20.586 8.85636C20.5783 10.1863 21.3746 11.3892 22.6018 11.9017C23.829 12.4142 25.2442 12.1348 26.1847 11.1944C27.1251 10.254 27.4044 8.83874 26.8919 7.61151C26.3794 6.38428 25.1765 5.58806 23.8466 5.59576Z" fill="#D44326"/>
<path d="M24.0243 22.8502C21.2648 22.8502 16.3295 20.9091 16.412 20.7441C17.1712 19.364 17.849 17.9406 18.4419 16.4812C19.4125 14.0453 19.514 11.9583 20.2498 11.7933C20.9857 11.6284 21.8801 11.4635 21.5185 10.4675C21.157 9.47159 20.7129 9.38912 21.0555 8.00622C21.398 6.62332 22.4955 6.05875 21.988 5.93822C21.4805 5.81769 20.18 7.16253 19.7741 8.33609C19.4739 9.54042 18.9995 10.6944 18.3658 11.7616C17.5665 12.9288 14.7753 17.9466 13.9633 19.3739C12.3838 22.1968 13.0118 22.0319 13.9633 23.0278C14.9149 24.0238 18.7337 26.3772 25.9083 27.7094C25.921 27.6967 25.6926 22.8502 24.0243 22.8502Z" fill="#FFB77E"/>
<g style="mix-blend-mode:multiply" opacity="0.3">
<path d="M25.0709 23.8908L22.3939 22.6729H22.2543C22.1655 22.8441 21.5185 24.1572 22.0006 25.0453C22.4827 25.9334 22.7047 26.3648 22.7047 26.3648C22.7047 26.3648 16.6974 24.633 14.7943 23.6117C16.453 24.6941 18.2356 25.5737 20.1039 26.2316C21.9961 26.8655 23.9317 27.3616 25.8956 27.716C25.8062 26.4079 25.5285 25.1195 25.0709 23.8908Z" fill="#FFB77E"/>
</g>
<path d="M30.7483 11.603C32.1122 13.5061 29.1561 15.3457 29.1561 17.2552C29.1561 19.1646 29.4162 18.3653 29.689 19.7291C29.9617 21.093 28.9404 23.1547 27.4687 22.3617C25.997 21.5688 22.4256 22.0192 22.4256 22.0192C22.4256 22.0192 21.861 23.8334 22.4256 24.9689C22.9901 26.1044 24.4682 25.9014 23.7894 27.8362C23.1107 29.771 25.4832 31.9215 26.7392 31.8073C27.9952 31.6931 28.7121 33.2854 31.3002 33.3932C31.3002 33.3932 31.3002 27.8299 33.5522 25.7809C35.6738 23.9999 36.7936 21.2961 36.5527 18.5366C36.1467 15.6058 34.9478 15.7517 34.0153 14.502C33.0828 13.2524 33.4761 12.7956 33.4761 12.7956L30.7483 11.603Z" fill="#FFB77E"/>
<g style="mix-blend-mode:multiply" opacity="0.3">
<path d="M33.5015 12.802L30.7484 11.603C31.0855 12.051 31.1913 12.6318 31.0339 13.1699C31.8015 13.4872 32.6503 13.5517 33.4571 13.3539C33.3981 13.1713 33.4141 12.9728 33.5015 12.802Z" fill="#FFB77E"/>
</g>
<path d="M33.8441 14.1849C35.2438 13.0534 36.5331 11.7917 37.6946 10.4168C37.9737 9.99815 38.7794 4.55536 39.4708 3.38815C40.416 1.78956 41.4373 0.806311 41.7165 0.248076C41.9956 -0.310159 42.484 0.108517 42.3508 1.15521C42.2176 2.2019 41.9765 2.07503 41.8116 2.53176C41.6023 3.10268 40.6761 3.41986 40.5429 3.9781C40.4097 4.53633 40.0862 10.2836 39.9466 10.956C39.807 11.6284 36.6733 16.0309 36.3244 16.9634C35.9755 17.8959 37.0222 17.9276 36.3244 19.4628C35.6266 20.9979 29.9047 19.8117 29.9047 19.8117C29.3547 19.1357 28.6915 18.5605 27.9446 18.1116C26.9676 17.6231 23.8529 16.5384 22.2353 15.1111C19.33 12.5736 18.0866 9.93472 16.8877 9.96643C15.8029 9.96643 13.4558 9.33208 14.0838 8.89437C14.7119 8.45666 17.4079 8.53913 17.8265 8.67869C18.6803 9.26165 19.4769 9.92436 20.2054 10.6579C20.4845 10.937 22.838 13.1953 23.4279 13.5886C24.1257 14.0644 25.9083 14.3879 26.9232 14.4767C28.192 14.5846 29.3528 14.2928 30.5327 14.7558C31.6646 15.1016 32.8934 14.8898 33.8441 14.1849Z" fill="#FFB77E"/>
<path d="M36.4132 11.8315C35.6492 12.6998 34.799 13.4884 33.8757 14.1849C33.2414 15.4536 31.7697 15.2697 30.6278 14.426L30.5263 14.3689L30.3233 14.6988C29.2195 14.3562 28.1284 14.5973 26.9485 14.4958C26.6631 14.4958 26.3142 14.426 25.9526 14.3626C25.9526 14.3626 23.2375 15.8977 22.7808 15.5107C24.4682 16.7414 27.1135 17.6802 27.9952 18.1243C28.6445 18.5 29.2257 18.9825 29.7143 19.5516C29.7143 19.6087 29.7143 19.6594 29.7524 19.7229C30.0252 21.0867 29.0039 23.1484 27.5321 22.3555C26.0604 21.5625 22.489 22.0129 22.489 22.0129C22.489 22.0129 21.9244 23.8272 22.489 24.9627C23.0536 26.0982 24.5316 25.8952 23.8529 27.83C23.1741 29.7648 25.5466 31.9152 26.8026 31.801C28.0587 31.6869 28.7755 33.2791 31.3637 33.3869C31.3637 33.3869 31.3637 27.8236 33.6156 25.7746C35.7325 23.9956 36.8517 21.2981 36.6161 18.543C36.6198 18.3852 36.594 18.2282 36.54 18.0799C36.4853 17.7767 36.409 17.4778 36.3117 17.1854C36.3227 17.1096 36.3419 17.0352 36.3687 16.9634C36.7176 16.0563 39.8514 11.6538 39.9909 10.9561C38.9303 11.641 37.6702 11.9493 36.4132 11.8315Z" fill="#F04E2E"/>
<path d="M30.7484 11.1021C31.0719 11.5271 31.516 13.7284 30.5962 14.4198C29.6763 15.1113 30.0506 15.6505 30.0506 15.6505C29.7109 15.3941 29.5562 14.9601 29.6573 14.5467C29.7241 14.9895 29.6246 15.4414 29.3782 15.8154C29.1278 16.0789 29.0885 16.4789 29.283 16.786C28.7779 16.3064 28.5407 15.6091 28.6487 14.921C28.5382 15.1279 28.3586 15.2895 28.1412 15.3777C28.3037 14.9954 28.2874 14.5605 28.0968 14.1914C27.8335 13.8414 27.6991 13.4112 27.7162 12.9735C27.4975 12.4678 27.5161 11.8908 27.7669 11.4003C28.1474 10.9086 28.6925 10.5707 29.3021 10.4487C29.8187 10.5802 30.3082 10.8014 30.7484 11.1021Z" fill="black"/>
<path d="M30.9134 5.60211C32.4473 5.13507 34.0802 5.9404 34.6434 7.44174C35.3412 9.14182 34.8147 8.78658 35.1953 9.28772C35.5759 9.78887 35.0874 11.3367 34.5609 12.6308C34.0344 13.9249 30.666 12.4976 30.4186 11.9964C30.1912 12.1337 29.8962 12.0697 29.7461 11.8505C29.4226 11.4699 28.9786 10.5818 29.8032 10.5818C29.625 10.6491 29.4272 10.642 29.2542 10.5621C29.0813 10.4822 28.9477 10.3362 28.8834 10.1568C28.4756 9.29031 28.4652 8.28919 28.8551 7.41447C29.2449 6.53975 29.9963 5.87812 30.9134 5.60211Z" fill="#FFB884"/>
<path d="M30.2155 6.99147C31.0021 7.70829 32.7529 7.27693 33.1589 8.03816C32.984 7.52961 32.5324 7.16685 31.9981 7.10565C31.9981 7.10565 33.6664 6.92803 34.1422 8.08891C34.4073 8.75754 35.047 9.20238 35.7661 9.21806C35.3839 8.82123 35.2371 8.25334 35.3792 7.72098C35.5695 6.7187 34.6624 5.64029 34.0026 5.60223C33.8423 5.24366 33.4996 5.00065 33.1082 4.96787C32.4738 4.96787 31.5159 4.36523 30.4375 4.80294C29.8715 4.96292 29.4192 5.38918 29.2259 5.94478C28.1632 6.54533 27.6274 7.77753 27.9128 8.96432C28.3061 11.1465 29.4416 11.3241 29.4416 11.3241C29.3283 11.1279 29.3283 10.886 29.4416 10.6898C29.598 10.567 29.8181 10.567 29.9745 10.6898C29.9453 10.2276 30.0978 9.77239 30.3995 9.42106C30.9577 8.88185 31.167 8.06988 30.8562 7.72098C30.5454 7.37208 30.2155 6.99147 30.2155 6.99147Z" fill="black"/>
<path d="M40.3211 2.11328C40.0183 2.52142 39.7367 2.94489 39.4774 3.382C39.0714 4.0671 38.6274 6.23661 38.2721 7.98743C39.0378 8.84751 39.6052 9.86533 39.9341 10.9689C40.0737 10.2711 40.3909 4.52384 40.5304 3.99098C40.2215 3.41536 40.1466 2.74279 40.3211 2.11328Z" fill="#F04E2E"/>
<path d="M17.8264 10.4169C18.7843 11.2288 19.9706 13.0621 22.0069 14.9145L22.7237 15.5107C22.1323 14.5645 21.8692 13.4498 21.9751 12.339C21.1885 11.6158 20.3639 10.8292 20.2116 10.6706C19.4833 9.93691 18.6867 9.27419 17.8328 8.69141C18.0701 9.24254 18.0678 9.86748 17.8264 10.4169H17.8264Z" fill="#F04E2E"/>
<path d="M34.0407 14.9082C34.7639 16.5956 35.4299 19.0696 34.212 20.6174C32.994 22.1653 31.4652 21.7085 29.9808 22.5205C29.1924 23.0221 28.1721 22.9659 27.4434 22.3809C27.4434 22.3809 27.6147 23.8019 29.3464 23.5926C31.0782 23.3832 30.6152 22.5268 33.2668 22.5268C35.7661 22.5015 36.5654 18.3337 34.0407 14.9082Z" fill="#FFB647"/>
<path d="M29.5243 22.1843C30.0699 21.4992 30.6725 20.5413 31.9412 20.8268C33.2099 21.1122 34.7641 18.2893 34.1044 16.437C34.5174 17.2351 34.6535 18.1477 34.4913 19.0315C34.1678 20.3447 33.0196 21.4992 32.1823 21.3406C31.3449 21.182 30.7423 20.8775 29.5243 22.1843Z" fill="#FFB647"/>
<path d="M29.3719 24.0303C31.2052 24.0303 30.9704 23.0407 32.8164 23.1295C34.802 23.231 36.2864 21.4738 36.0199 18.689C36.0453 18.6763 37.3775 25.6733 29.3719 24.0303Z" fill="#FFB647"/>
<path d="M31.8712 20.4019C32.4358 20.4527 32.5056 19.3298 32.9813 19.203C33.4571 19.0761 33.6538 17.4395 33.6538 17.4395C33.6538 17.4395 33.7489 20.4082 31.8712 20.4019Z" fill="#FFB647"/>
<path d="M29.5243 24.5691C30.2475 24.9942 32.9308 25.1337 33.7618 24.2773C33.4506 24.8787 32.851 25.2769 32.1759 25.3304C30.958 25.489 31.015 25.121 30.59 25.1972C30.165 25.2733 29.5243 24.5691 29.5243 24.5691Z" fill="#FFB647"/>
<path d="M28.598 32.5621C28.376 31.674 29.8667 27.3223 29.8667 27.3223C29.8667 27.3223 27.2722 31.8643 26.7266 31.8072C27.3927 31.7311 27.9002 32.1497 28.598 32.5621Z" fill="#D44326"/>
<path d="M27.4688 25.3877C27.4688 25.3877 24.3605 26.39 23.0283 25.6732C23.6627 26.1616 24.297 26.4344 23.7959 27.849C24.5952 27.9251 27.4688 25.3877 27.4688 25.3877Z" fill="#D44326"/>
<path d="M39.6295 11.6094C38.4369 12.8781 36.1278 15.2823 35.9375 15.9103C35.978 16.3469 36.085 16.7747 36.2547 17.179C36.2658 17.1032 36.2849 17.0288 36.3118 16.957C36.6036 16.2275 38.8111 13.0557 39.6295 11.6094Z" fill="#D44326"/>
<path d="M27.9384 18.1243C28.5876 18.4999 29.1688 18.9825 29.6575 19.5516C29.6575 19.6087 29.6575 19.6594 29.6955 19.7228C29.6407 19.1354 29.4772 18.5632 29.2134 18.0354C28.2429 16.9888 25.9465 16.9063 23.8404 16.2148C25.4073 17.1029 27.2342 17.7754 27.9384 18.1243Z" fill="#D44326"/>
</svg>
