<svg width="56" height="56" viewBox="0 0 56 56" fill="none" xmlns="http://www.w3.org/2000/svg">
<g clip-path="url(#clip0)">
<path d="M42.8504 55.588C43.1015 55.3259 43.2753 54.9978 43.3523 54.6407C43.5969 53.8371 43.2494 53.4125 43.4939 52.6089C43.6033 52.2561 44.0474 52.0471 43.9959 51.1063C43.9959 50.6033 43.3523 50.3419 42.934 50.1133C42.4257 50.2635 41.1129 50.4922 40.6045 50.6425C40.995 51.3934 41.0118 52.2878 40.6495 53.0532C40.3792 53.8437 40.3857 54.3598 39.9609 54.5688C39.5362 54.7779 38.7447 54.8824 38.4165 55.0458C38.2443 55.1122 38.1084 55.2503 38.0432 55.4252C37.978 55.6 37.9897 55.7949 38.0754 55.9604L41.4604 55.8493C41.9387 55.8956 42.4202 55.8051 42.8504 55.588Z" fill="#FFD9AB"/>
<path d="M42.9405 50.1137L41.8529 51.858C38.3062 49.186 34.9927 46.209 31.949 42.96L35.8102 41.1699C39.4847 42.0846 40.0446 47.0366 42.9405 50.1137Z" fill="#FFD9AB"/>
<path d="M43.9957 51.139C43.9957 50.6359 43.3522 50.3746 42.9339 50.1459C42.2189 49.3534 41.6009 48.4759 41.0934 47.5327C40.6287 48.4771 39.7836 49.1705 38.7767 49.4338C39.4202 49.9826 40.1024 50.5249 40.7716 51.054C40.9849 51.7244 40.9436 52.4514 40.6558 53.0924C40.3855 53.8829 40.392 54.399 39.9672 54.608C39.5425 54.8171 38.751 54.9151 38.4228 55.085C38.2506 55.1514 38.1147 55.2895 38.0495 55.4644C37.9843 55.6392 37.996 55.8341 38.0817 55.9996L41.4667 55.8885C41.9477 55.934 42.4316 55.8412 42.8631 55.6207C43.1142 55.3586 43.288 55.0305 43.3651 54.6734C43.6096 53.8698 43.2621 53.4452 43.5066 52.6416C43.6032 52.2561 44.0472 52.0471 43.9957 51.139Z" fill="#3C3C3B"/>
<path d="M22.2701 53.498L20.2945 53.9815C19.5821 49.5569 19.2462 45.0783 19.2906 40.5952L23.2869 42.0325C25.2947 45.2925 22.3023 49.245 22.2701 53.498Z" fill="#FFD9AB"/>
<path d="M23.1519 54.6478C23.2999 55.2619 23.5187 56.0263 21.9485 55.876C19.0333 55.5886 18.5314 55.876 15.3137 55.876C15.2421 55.876 15.1733 55.8471 15.1226 55.7957C15.0719 55.7442 15.0435 55.6744 15.0435 55.6016C15.0435 55.445 15.1419 55.3057 15.288 55.2554L18.6344 54.1186C19.2279 53.9145 19.6834 53.4252 19.8506 52.812L20.0952 51.9692H22.3475V52.3808C22.3653 52.9937 22.5526 53.5891 22.8881 54.099C23.0126 54.2614 23.1024 54.4483 23.1519 54.6478Z" fill="#FFD9AB"/>
<path d="M22.9204 54.1056C22.585 53.5957 22.3976 53.0003 22.3799 52.3874V52.1979C22.519 51.259 22.7233 50.3311 22.9912 49.4214C21.9111 49.651 20.7958 49.651 19.7156 49.4214C19.8122 50.3491 19.9216 51.2768 20.0503 52.1979L19.8701 52.8121C19.7029 53.4252 19.2474 53.9145 18.6538 54.1187L15.3075 55.2554C15.1613 55.3058 15.063 55.445 15.0629 55.6017C15.0629 55.7532 15.1839 55.8761 15.3332 55.8761C18.5509 55.8761 19.0592 55.6082 21.968 55.8761C23.5318 56.0263 23.313 55.262 23.1714 54.6479C23.1249 54.4516 23.0395 54.2671 22.9204 54.1056Z" fill="#3C3C3B"/>
<path d="M35.8037 41.1698C36.3829 43.8549 32.8563 44.9263 31.1767 42.0322C30.0215 40.1898 29.0493 38.2355 28.2744 36.1981L33.5385 34.0684C34.6132 35.7996 35.3597 38.6676 35.8037 41.1698Z" fill="#FFD9AB"/>
<path opacity="0.15" d="M29.4778 35.7085L28.2744 36.1985C29.0493 38.2359 30.0215 40.1901 31.1767 42.0325C31.4099 42.4407 31.7154 42.8017 32.0777 43.0974C32.7984 43.8683 33.5578 44.6457 34.3558 45.4232C30.8871 41.5425 30.0055 39.4454 30.1342 36.0939L29.4778 35.7085Z" fill="#1D1D1B"/>
<path opacity="0.15" d="M43.9956 51.1393C43.9956 50.6363 43.3521 50.375 42.9338 50.1463C40.0379 47.0692 39.478 42.1172 35.8035 41.2025C35.3595 38.7004 34.613 35.8323 33.5383 34.1011L29.4776 35.7474C33.6541 36.7012 35.1793 42.4438 35.1793 42.4438C37.2772 42.0322 41.8591 48.1929 41.769 50.6624C43.1912 51.3157 42.5927 52.851 42.4447 54.1707C42.4447 55.6145 39.5295 55.6733 37.9915 55.621C37.9598 55.7527 37.9882 55.8919 38.0687 56L41.4537 55.8889C41.9347 55.9344 42.4186 55.8416 42.8501 55.621C43.1012 55.359 43.2751 55.0308 43.3521 54.6737C43.5966 53.8702 43.2491 53.4455 43.4937 52.642C43.6031 52.2565 44.0471 52.0474 43.9956 51.1393Z" fill="#1D1D1B"/>
<path d="M23.2676 42.039C21.8454 44.3778 18.5763 42.6531 19.355 39.3866C19.7935 37.2471 20.4402 35.1571 21.2856 33.1475L26.5303 35.3426C26.1056 37.3417 24.677 39.9288 23.2676 42.039Z" fill="#FFD9AB"/>
<path opacity="0.15" d="M23.2677 42.039C24.6642 39.9288 26.0928 37.3417 26.4853 35.3426L25.475 34.9179L21.6138 34.1797C22.8044 37.5181 23.8404 40.4122 21.9806 41.5751C23.5315 45.4492 22.4697 50.7606 21.1569 52.7859C21.9935 54.4714 17.5532 55.5755 15.0305 55.5821C15.0305 55.7336 15.1515 55.8564 15.3008 55.8564C18.5184 55.8564 19.0268 55.5886 21.9356 55.8564C23.4994 56.0067 23.2806 55.2423 23.139 54.6282C23.0956 54.4353 23.0147 54.2532 22.9009 54.0925C22.5654 53.5826 22.3781 52.9872 22.3603 52.3743V52.1849C22.8623 48.4414 25.0889 44.9593 23.2677 42.039Z" fill="#1D1D1B"/>
<path d="M20.5841 17.3106L20.2623 14.6124C20.2623 13.0184 22.7978 10.9082 25.1596 10.2549L27.0065 12.6656C26.0284 14.6843 23.0617 17.1146 20.5841 17.3106Z" fill="#FFD9AB"/>
<path d="M14.2585 11.7514C14.857 11.6273 15.2238 11.0981 15.6228 10.4448C17.7915 12.065 20.0309 12.4897 21.7942 14.0119C22.2254 15.4622 21.7942 16.8799 20.5586 17.3111C18.2033 16.4357 16.1054 14.4496 14.2585 11.7514Z" fill="#FFD9AB"/>
<path d="M17.4759 11.5556C17.2945 11.9862 17.0793 12.4013 16.8323 12.7969C16.576 13.1857 16.2483 13.5206 15.8671 13.7834C15.4371 13.2068 14.9045 12.717 14.2968 12.3396C13.9493 12.1436 13.531 12.2547 13.1707 12.0783C12.6347 11.7967 12.1261 11.4642 11.6519 11.0852C9.93371 9.72635 12.2955 6.44021 13.4667 6.80606C14.0426 7.08725 14.5775 7.4478 15.0562 7.87749C15.1283 7.93437 15.197 7.99545 15.2621 8.06042C16.1824 8.93585 15.9765 10.3601 16.1116 10.5757C16.3754 11.0526 16.8838 11.1179 17.4759 11.5556Z" fill="#DB4919"/>
<path d="M14.2131 7.72728C14.2405 7.44899 14.1078 7.17953 13.8721 7.03477C13.7333 6.9413 13.5843 6.86456 13.428 6.80612C12.2439 6.44026 9.88863 9.71987 11.6069 11.0853L11.8578 11.2813C12.1364 11.4885 12.5211 11.4638 12.7716 11.2225C13.6287 10.2571 14.137 9.0246 14.2131 7.72728Z" fill="#E94E1B"/>
<path d="M17.4758 11.5558C17.2944 11.9865 17.0792 12.4016 16.8322 12.7971L15.5452 11.8694C15.2071 11.6622 14.9278 11.3696 14.7343 11.0201C14.5891 10.5743 14.5757 10.0951 14.6957 9.64165C14.5197 9.84822 14.2996 10.0113 14.0522 10.1186C13.7904 10.2054 13.5033 10.1134 13.3379 9.88991C13.2437 9.62822 13.2721 9.33722 13.4151 9.09941C13.5475 8.6256 13.8508 8.21976 14.2646 7.96265C14.5136 7.86079 14.7867 7.83579 15.0497 7.89079C15.1217 7.94767 15.1905 8.00875 15.2556 8.07372C16.1758 8.94915 15.9699 10.3734 16.1051 10.589C16.3753 11.0528 16.8837 11.1181 17.4758 11.5558Z" fill="#F5521C"/>
<path d="M16.1568 10.6865C15.7916 11.4392 15.2164 12.0662 14.5029 12.4897C14.9166 12.9538 15.3594 13.3902 15.8286 13.7963C16.2297 13.5579 16.5832 13.2455 16.8711 12.8751C17.149 12.4914 17.3661 12.066 17.5146 11.6142C17.0946 11.2585 16.6396 10.9476 16.1568 10.6865V10.6865Z" fill="#EDEDED"/>
<path opacity="0.15" d="M26.215 11.6276C25.2111 13.777 23.7631 15.4168 21.4078 15.8153C18.8337 16.8475 16.8259 13.7508 14.7923 12.2025C14.3612 11.3205 12.4499 11.5492 11.2658 10.6934C11.3597 10.8483 11.4794 10.9853 11.6197 11.0984L11.8707 11.2944C12.2776 11.5934 12.7081 11.8578 13.1578 12.0849C13.5182 12.2613 13.9365 12.1437 14.284 12.3462L14.5221 12.4965C14.9357 12.9606 15.3785 13.3971 15.8477 13.8031C17.1153 15.3665 18.7511 16.5799 20.6034 17.331C23.081 17.135 26.0477 14.7177 27.0387 12.6859L26.215 11.6276Z" fill="#1D1D1B"/>
<path d="M29.5037 12.5941C29.3577 12.8718 29.1337 13.0992 28.8602 13.2474C27.609 13.8903 26.126 13.8659 24.896 13.1821C23.8278 12.4373 23.6798 11.392 24.2525 10.1311C24.3681 9.87192 24.5246 9.63359 24.7158 9.42558C25.3431 8.74102 26.3037 8.4864 27.1805 8.77227L27.4122 8.86373C27.5278 8.91926 27.6396 8.98256 27.7469 9.05319C28.8409 9.80449 30.0121 11.4835 29.5037 12.5941Z" fill="#936037"/>
<path d="M32.0904 9.26271C31.8137 9.87028 29.2139 14.2474 29.2139 14.2474L28.8599 13.3067C28.3966 12.0915 27.6179 10.0401 27.309 9.18431C27.2382 8.98178 27.1867 8.85112 27.1739 8.81192V8.72699L27.1031 7.94302L26.8135 7.09372L26.3373 5.69565L27.6823 5.21873L28.3258 4.99007L28.5317 4.91821L28.7505 4.83981L29.4327 4.59809L30.1598 4.23877L30.3079 4.89208L30.3658 5.15993L30.5524 6.0027L30.6039 6.23789L31.6657 8.38074L31.9617 8.96872L32.0904 9.26271Z" fill="#FFD9AB"/>
<path d="M36.7817 11.9406C36.7763 12.3647 36.744 12.7881 36.6851 13.208C36.6189 13.7111 36.5178 14.2089 36.3827 14.6976C36.2118 15.3095 35.9967 15.9078 35.7392 16.4876C35.6619 16.664 35.5847 16.8273 35.501 16.9972C35.4174 17.1671 35.2951 17.4284 35.1857 17.6505C35.0763 17.8726 35.0055 17.9772 34.9219 18.134C34.7288 18.4933 34.5229 18.8461 34.3298 19.2054C34.0531 19.6954 33.7828 20.1919 33.519 20.7015C33.416 20.8975 33.313 21.1 33.223 21.309C33.0492 21.6749 32.8883 22.0473 32.7467 22.4393L32.6245 22.7659C32.4052 23.4039 32.2394 24.0595 32.129 24.7258L28.1069 24.4972L25.9446 24.3796L24.5224 24.164C24.3487 22.387 24.3487 18.9963 24.3616 16.7685C24.3616 16.4811 24.3616 16.2132 24.3616 15.965C24.3616 15.2398 24.3616 14.7433 24.3616 14.6584C24.2522 12.8683 24.3616 11.0325 25.1981 9.65402C25.1981 9.65402 26.202 9.21631 26.2085 9.20977C26.5203 9.04883 26.8404 8.9049 27.1673 8.77859C28.2585 8.33175 29.4376 8.15052 30.6102 8.24941C30.9619 8.28231 31.3105 8.34347 31.6527 8.43234C32.1903 8.48095 32.7224 8.57936 33.2423 8.72632C33.7667 8.86896 34.2443 9.15083 34.6258 9.54296C34.5615 9.63442 34.4907 9.71935 34.4264 9.80428L34.5486 9.88921C35.3618 10.4916 36.1103 11.1792 36.7817 11.9406Z" fill="#FFD9AB"/>
<path d="M35.3597 36.9695C35.0516 37.1311 34.7309 37.2665 34.4009 37.3746C34.0782 37.4856 33.7495 37.5772 33.4163 37.649C32.1604 37.8914 30.8897 38.0464 29.613 38.1128L28.0814 38.25C27.5714 37.0878 27.325 35.8241 27.3606 34.5523L26.7686 38.25C25.364 38.2078 23.9718 37.9704 22.6307 37.5444C21.6539 37.2373 20.6991 36.8619 19.7734 36.4207C19.7734 36.4207 23.197 26.2814 24.4969 24.1255L30.0056 24.5305L31.254 24.622L32.1035 24.6808C33.1074 26.4121 33.8152 28.1499 33.4742 29.9073L35.3597 36.9695Z" fill="#3C3C3B"/>
<path opacity="0.15" d="M36.383 14.6785C36.2121 15.2904 35.997 15.8888 35.7394 16.4686C35.6622 16.645 35.585 16.8083 35.5013 16.9782C35.4177 17.148 35.2954 17.4093 35.186 17.6315C35.0766 17.8536 35.0058 17.9581 34.9222 18.1149C34.7291 18.4742 34.5232 18.827 34.3301 19.1863C34.0534 19.6763 33.7831 20.1728 33.5193 20.6824C33.4163 20.8784 33.3133 21.0809 33.2232 21.29C33.0495 21.6558 32.8886 22.0282 32.747 22.4202L32.6248 22.7469C32.4055 23.3848 32.2397 24.0405 32.1292 24.7068L28.0364 24.55L28.1072 24.4781C30.0893 22.5639 32.4188 20.7151 26.6142 17.0892C25.6425 16.658 24.3683 16.1877 24.3683 15.9459V14.4303C24.9282 16.6188 29.1433 16.2661 29.7031 14.9856C30.2616 13.569 31.2058 12.343 32.4253 11.4512L36.383 14.6785Z" fill="#1D1D1B"/>
<path opacity="0.15" d="M28.7442 5.75391C29.3878 8.02088 28.7442 8.81139 27.7339 9.09231C27.5903 9.13453 27.4441 9.16727 27.2963 9.19031C26.3117 9.34057 25.1791 9.1903 24.7222 9.49083C25.3494 8.80627 26.31 8.55165 27.1869 8.83752L27.1097 7.96209L26.8201 7.11279L28.7442 5.75391Z" fill="#1D1D1B"/>
<path opacity="0.15" d="M33.2617 8.67454C32.8305 8.81858 32.3865 8.91924 31.936 8.97507C30.8355 8.97507 29.6064 8.97507 28.8857 9.51731C29.645 8.864 30.3079 8.64188 30.5781 8.2107C30.6682 8.06166 30.713 7.88894 30.7068 7.71418C30.5009 6.19197 28.9436 5.6628 27.6372 5.23161L28.2807 4.99642L28.4867 4.92456L28.7119 4.84616L29.394 4.60444L30.1212 4.24512L30.2628 4.89843L30.3207 5.16628L30.5073 6.00905L30.5588 6.24424L31.6207 8.38709C32.1753 8.43036 32.7248 8.52661 33.2617 8.67454Z" fill="#1D1D1B"/>
<path d="M30.3468 5.15313L28.7508 5.49938C28.7508 5.58431 28.7508 5.66924 28.7508 5.74764C28.7508 5.82604 28.7508 6.04163 28.7508 6.17882C28.7831 6.97106 28.4672 7.73696 27.8885 8.26941C27.6936 8.4964 27.4519 8.67707 27.1806 8.79859C26.4985 8.95538 26.0415 8.90965 25.3723 7.85129C25.2061 7.51645 25.06 7.17175 24.9347 6.81907C24.7678 6.84712 24.5979 6.79124 24.479 6.66918C24.36 6.54712 24.3068 6.37405 24.3362 6.20496C24.3812 5.74764 24.4327 5.38179 24.4585 4.89834C24.2599 4.6595 24.1287 4.37054 24.0788 4.06211C23.9486 3.39226 23.9885 2.69981 24.1946 2.04992C24.5984 0.961537 25.5666 0.19283 26.7044 0.0573297L26.994 0.0181313C28.4612 -0.119063 29.9864 0.527711 30.321 1.77553C30.7171 2.86395 30.7262 4.05862 30.3468 5.15313Z" fill="#FFD9AB"/>
<path d="M30.3466 5.15251C30.017 5.74938 29.3318 6.04481 28.6798 5.87115C28.6798 5.78622 28.5769 5.21784 28.564 5.13944C28.5564 5.05919 28.5391 4.9802 28.5125 4.90425C28.3259 4.3816 27.7467 4.49267 27.4314 4.54493C27.1225 2.45435 26.9101 0.866807 24.2137 2.08849C24.6175 1.00011 25.5857 0.231404 26.7235 0.0959039L27.0131 0.0567055C28.4803 -0.0804892 30.0055 0.566286 30.3401 1.8141C30.7207 2.89298 30.723 4.07212 30.3466 5.15251Z" fill="#3C3C3B"/>
<path d="M29.0594 4.02293C29.1816 4.67623 29.0594 5.44714 28.4738 5.29688C28.0947 5.15568 27.831 4.80382 27.7981 4.39531C27.6626 3.98812 27.8668 3.54483 28.2614 3.38922C28.4534 3.34103 28.6566 3.38515 28.8123 3.50886C28.9681 3.63257 29.0592 3.82214 29.0594 4.02293Z" fill="#FFD9AB"/>
<path d="M37.1551 12.4248C37.178 12.7684 37.141 13.1134 37.0457 13.444C37.0287 13.5065 37.0072 13.5676 36.9814 13.6269C36.9597 13.6823 36.9316 13.735 36.8977 13.7837C36.8704 13.8389 36.8381 13.8914 36.8012 13.9405C36.721 14.0594 36.6233 14.1652 36.5116 14.2541C36.2513 14.4638 35.9477 14.6112 35.6235 14.6853C35.2024 14.7879 34.7688 14.8275 34.3365 14.8029C33.6929 14.8029 32.7984 14.5807 32.5281 13.751C31.4213 10.4257 32.6118 9.02762 34.0469 8.90349C34.7047 8.84533 35.3621 9.02083 35.9067 9.40001C36.216 9.60539 36.4792 9.87476 36.6789 10.1905C36.9658 10.9011 37.127 11.6574 37.1551 12.4248Z" fill="#FFD9AB"/>
<path d="M31.3955 18.9378L30.4366 16.4291C30.2822 14.8415 30.7327 12.5746 33.4548 12.1499L36.7818 13.9008C35.9903 16.0044 34.2721 18.5262 31.3955 18.9378Z" fill="#FFD9AB"/>
<path d="M24.3426 10.3729C24.4082 10.2918 24.439 10.1873 24.4281 10.0829C24.4172 9.97857 24.3655 9.88299 24.2847 9.8176L23.3451 9.04016C23.2652 8.97357 23.1623 8.9423 23.0595 8.95335C22.9567 8.9644 22.8625 9.01685 22.7981 9.09896C22.7325 9.18009 22.7017 9.28454 22.7126 9.38892C22.7235 9.4933 22.7751 9.58888 22.856 9.65427L23.7956 10.4317C23.8755 10.4983 23.9784 10.5296 24.0812 10.5185C24.184 10.5075 24.2782 10.455 24.3426 10.3729Z" fill="#F5CD9D"/>
<path d="M23.9112 11.0657C23.9768 10.9845 24.0076 10.8801 23.9967 10.7757C23.9858 10.6713 23.9341 10.5757 23.8532 10.5103L22.7271 9.58264C22.6471 9.51605 22.5443 9.48478 22.4414 9.49583C22.3386 9.50688 22.2445 9.55934 22.1801 9.64144C22.1145 9.72257 22.0837 9.82702 22.0946 9.9314C22.1054 10.0358 22.1571 10.1314 22.238 10.1968L23.3642 11.1244C23.4441 11.191 23.547 11.2223 23.6498 11.2113C23.7526 11.2002 23.8467 11.1478 23.9112 11.0657Z" fill="#F5CD9D"/>
<path d="M25.3978 10.8504C25.2047 10.5695 25.0309 10.2886 24.8636 10.0011C24.7738 9.84303 24.6255 9.72783 24.4518 9.68099C24.1557 9.6026 23.8597 9.51113 23.5766 9.40661C23.3565 9.33057 23.1163 9.44246 23.0296 9.6614C22.9864 9.76764 22.989 9.88735 23.0367 9.99159C23.0843 10.0958 23.1728 10.1751 23.2805 10.2102C23.5637 10.3147 23.8597 10.4062 24.1557 10.4911C24.3102 10.759 24.4775 11.0268 24.6513 11.2881C24.7929 11.5018 25.0707 11.5723 25.2948 11.4515C25.39 11.388 25.455 11.2874 25.4745 11.1736C25.494 11.0597 25.4662 10.9427 25.3978 10.8504Z" fill="#F5CD9D"/>
<path d="M23.4477 11.6864C23.5133 11.6053 23.5441 11.5008 23.5332 11.3964C23.5223 11.292 23.4706 11.1965 23.3898 11.1311L22.4502 10.3536C22.3703 10.287 22.2674 10.2558 22.1646 10.2668C22.0618 10.2779 21.9676 10.3303 21.9032 10.4124C21.8376 10.4936 21.8068 10.598 21.8177 10.7024C21.8286 10.8068 21.8803 10.9024 21.9611 10.9677L22.9007 11.7452C22.9806 11.8118 23.0835 11.843 23.1863 11.832C23.2891 11.8209 23.3833 11.7685 23.4477 11.6864Z" fill="#F5CD9D"/>
<path d="M22.978 12.2674C23.0946 12.1169 23.0718 11.8995 22.9265 11.7774L22.0899 11.0849C21.9417 10.9664 21.7275 10.9896 21.6072 11.1371C21.4906 11.2876 21.5134 11.505 21.6587 11.6271L22.4953 12.3196C22.6435 12.4381 22.8577 12.4149 22.978 12.2674Z" fill="#F5CD9D"/>
<path d="M24.7994 12.7245L25.282 12.1235C25.6791 11.6253 25.6042 10.8948 25.1147 10.4902L24.3875 9.88916L22.4569 12.2933L23.1841 12.8944C23.4202 13.09 23.7234 13.1821 24.0265 13.1502C24.3296 13.1184 24.6078 12.9651 24.7994 12.7245Z" fill="#FFD9AB"/>
<rect width="2.16263" height="2.09121" transform="matrix(0.624804 -0.780782 0.771475 0.63626 23.6255 12.6626)" fill="#FFD9AB"/>
<path d="M22.5726 12.3855L22.032 11.9412C21.8867 11.8191 21.8639 11.6017 21.9805 11.4512C22.1008 11.3037 22.315 11.2805 22.4632 11.399L22.3666 11.3206C22.2858 11.2552 22.2341 11.1596 22.2232 11.0552C22.2123 10.9508 22.2431 10.8464 22.3087 10.7653C22.3731 10.6831 22.4673 10.6307 22.5701 10.6196C22.6729 10.6086 22.7758 10.6399 22.8557 10.7065L22.7656 10.6346C22.6848 10.5692 22.6331 10.4736 22.6222 10.3692C22.6113 10.2649 22.6421 10.1604 22.7077 10.0793C22.8748 10.2164 23.1197 10.1901 23.2547 10.0205C23.3898 9.8509 23.3638 9.60228 23.1968 9.46517C23.2612 9.38307 23.3554 9.33061 23.4582 9.31956C23.561 9.30851 23.6639 9.33978 23.7438 9.40637L24.471 10.0074L22.5726 12.3855Z" fill="#FFD9AB"/>
<path d="M34.4008 37.368C34.0782 37.4789 33.7494 37.5706 33.4162 37.6423C32.5459 35.1927 31.8365 32.6872 31.2926 30.1424C31.2141 29.6272 31.1626 29.1082 31.1381 28.5875C31.1117 28.0775 31.058 27.5694 30.9772 27.0653C30.8523 26.153 30.5196 25.2829 30.0055 24.5239L31.2539 24.6154C31.6124 25.3274 31.8579 26.0925 31.9811 26.8824C32.0663 27.4233 32.1222 27.9685 32.1484 28.5156C32.1733 29.0035 32.2227 29.4898 32.2965 29.9725C32.8365 32.4821 33.5395 34.9526 34.4008 37.368Z" fill="white"/>
<path opacity="0.15" d="M31.9426 15.0834C31.299 15.7367 30.9708 15.6125 30.2437 15.0834L30.8872 13.9009C31.505 14.1949 31.7624 15.3578 31.9426 15.0834Z" fill="#1D1D1B"/>
<path d="M24.3618 13.2475L25.7711 11.7515C28.04 12.5122 30.1547 13.683 32.0133 15.2075C32.4316 16.6643 32.6118 18.474 31.3698 18.9183C29.0209 18.0363 26.2344 15.704 24.3618 13.2475Z" fill="#FFD9AB"/>
<path d="M26.0287 11.7119C25.8935 11.4963 26.0995 10.0721 25.1792 9.19668C25.1141 9.13171 25.0453 9.07064 24.9733 9.01375C24.6104 8.70519 24.2277 8.42146 23.8278 8.16445L23.6347 8.05339H23.5768L23.4417 7.99459H23.3902C22.2061 7.62874 19.8508 10.9083 21.569 12.2738L21.82 12.4698C22.2268 12.7688 22.6573 13.0332 23.107 13.2603C23.4674 13.4366 23.8857 13.3191 24.2332 13.5216C24.8386 13.8997 25.3689 14.3894 25.797 14.9654C26.1782 14.7026 26.506 14.3677 26.7623 13.9789C27.0092 13.5833 27.2244 13.1682 27.4058 12.7376C26.8395 12.2411 26.3311 12.1758 26.0287 11.7119Z" fill="#E94E1B"/>
<path d="M26.0606 11.7578C25.6916 12.5238 25.0921 13.1507 24.3488 13.5479C24.8299 14.0811 25.3436 14.5829 25.8869 15.0505C26.5947 14.7957 27.5729 13.0906 27.7402 12.5548C27.2165 12.2168 26.652 11.9489 26.0606 11.7578V11.7578Z" fill="#EDEDED"/>
<path opacity="0.15" d="M37.1553 12.4244C37.1782 12.768 37.1411 13.113 37.0459 13.4436C37.0288 13.506 37.0073 13.5672 36.9815 13.6265C36.9598 13.6819 36.9317 13.7345 36.8979 13.7833C36.8706 13.8385 36.8383 13.891 36.8013 13.9401C36.7891 13.9637 36.774 13.9857 36.7563 14.0054C36.6261 14.3433 36.4757 14.6727 36.3058 14.9919C35.3791 16.7754 33.796 18.5328 31.4343 18.8791C29.3659 17.9806 27.5018 16.6597 25.9579 14.9984C25.4156 14.5298 24.9019 14.028 24.4198 13.4958L24.3104 13.4305C23.9629 13.2345 23.5446 13.3456 23.1842 13.1692C22.7344 12.9423 22.3039 12.6779 21.8972 12.3787L21.6398 12.1827C21.4227 12.0126 21.254 11.7872 21.1507 11.5294C22.042 12.3564 23.2126 12.8032 24.4198 12.7772C24.6061 12.7666 24.7912 12.7404 24.9733 12.6988C25.797 14.613 29.7611 17.7162 31.7947 17.7162C34.2916 17.2785 35.2762 15.8347 35.6558 14.7371C35.8132 14.3059 35.898 13.851 35.9068 13.3913C36.5182 13.1561 36.6984 12.4571 36.6211 11.6535C36.5325 10.8751 36.2872 10.1234 35.9004 9.44531C36.2097 9.65069 36.4729 9.92007 36.6726 10.2358C36.9566 10.9316 37.1199 11.6721 37.1553 12.4244Z" fill="#1D1D1B"/>
<path opacity="0.3" d="M29.6129 38.106L28.0813 38.2432C27.5713 37.081 27.3249 35.8173 27.3606 34.5454L26.7685 38.2432C25.3639 38.201 23.9717 37.9636 22.6306 37.5376C23.9012 37.0171 24.9978 36.1374 25.7903 35.0028C26.17 34.5264 26.3727 33.9299 26.3631 33.3172C26.3106 32.9867 26.2063 32.6669 26.0542 32.3699C25.6252 31.403 25.1962 30.4361 24.7671 29.4692C25.6367 31.0587 27.4066 31.9098 29.1689 31.586C27.9776 33.1451 27.8253 35.2781 28.7828 36.9953C29.0171 37.3963 29.2956 37.7689 29.6129 38.106Z" fill="#1D1D1B"/>
</g>
<defs>
<clipPath id="clip0">
<rect width="56" height="56" fill="white"/>
</clipPath>
</defs>
</svg>
