<svg width="56" height="56" viewBox="0 0 56 56" fill="none" xmlns="http://www.w3.org/2000/svg">
<rect width="4.15879" height="0.971461" transform="matrix(0.999911 -0.0133197 0.0121866 0.999926 24.0312 37.8267)" fill="#5C5C5C"/>
<path d="M21.4275 33.3631C21.1091 34.4365 21.0831 37.1267 21.291 37.48C21.4989 37.8332 23.1754 38.0642 23.8123 37.8808C24.2281 37.7585 25.1119 37.9623 27.0613 38.0098C28.5883 38.0438 28.9197 37.2354 28.5688 36.6511C28.1075 35.8427 27.1328 36.162 26.0801 35.605C24.5205 34.7829 23.9162 34.8169 24.0462 33.0098C24.1762 31.2028 21.4275 33.3631 21.4275 33.3631Z" fill="#70802D"/>
<path d="M21.2001 11.9563C22.1163 11.4875 23.4614 10.2443 24.4491 10.4821C25.1564 10.6242 25.7436 11.1379 26.0021 11.8408C26.0736 12.2076 24.865 11.3584 24.0527 12.2008C23.3718 12.7586 22.5181 13.0343 21.6549 12.9753C20.7192 12.9073 21.2001 11.9563 21.2001 11.9563Z" fill="#FFB884"/>
<path d="M5.99445 9.47677C6.26087 9.05558 8.01534 8.54607 9.47741 9.19824C10.9395 9.85041 13.4737 11.9156 13.6882 11.9156C14.8903 12.1806 21.8627 10.5569 22.5515 10.4007C23.2403 10.2444 23.2013 13.0366 22.8829 13.2268C21.3465 14.1189 19.7292 14.8493 18.0548 15.4075C16.5538 15.8491 13.9936 17.1194 10.764 15.686C6.86519 14.0012 3.92156 12.7105 5.99445 9.47677Z" fill="#70802D"/>
<path d="M24.8323 11.8411L25.4821 11.9566C25.781 12.0042 25.755 12.6971 25.898 12.636C26.0802 12.3884 26.1314 12.0618 26.0345 11.7664C25.8868 11.2988 25.5418 10.9281 25.0987 10.761C24.3255 10.3805 24.8323 11.8411 24.8323 11.8411Z" fill="#FFB884"/>
<path d="M11.7778 20.7809C12.9344 20.7809 19.8679 18.376 21.0635 18.4372C22.2591 18.4983 23.8967 19.3951 24.1176 20.9712C24.3385 22.5472 24.7674 28.1519 24.9428 30.0201C25.0598 31.3788 25.1313 33.5323 25.1313 33.5323C24.6487 33.8283 24.0988 33.9832 23.5393 33.9807C22.7408 34.0824 21.9335 34.0824 21.135 33.9807L19.9978 24.4698L11.7778 20.7809Z" fill="#404352"/>
<path d="M31.1746 19.2317L24.4167 13.7834L24.8975 13.2603L31.6555 18.7018L31.1746 19.2317Z" fill="#B0B0B0"/>
<g style="mix-blend-mode:multiply" opacity="0.5">
<path d="M24.6959 13.4844L31.3174 18.7902L31.5188 18.566L24.8973 13.2603L24.6959 13.4844Z" fill="#B0B0B0"/>
</g>
<path d="M18.6006 29.7898C18.3333 29.9773 17.9711 29.9028 17.7916 29.6233C17.6122 29.3438 17.6835 28.9651 17.9508 28.7775L30.2972 18.037C30.543 17.8232 30.9081 17.8581 31.1127 18.1152C31.3172 18.3722 31.2838 18.7539 31.0379 18.9677L18.6916 29.7082L18.6006 29.7898Z" fill="#35AFD4"/>
<path fill-rule="evenodd" clip-rule="evenodd" d="M5.03111 49.924C7.33765 54.7698 12.9642 56.7442 17.6001 54.3347C22.2352 51.9172 24.1222 46.0322 21.8173 41.1825C19.5072 36.3386 13.8792 34.3687 9.24512 36.7819C4.61099 39.1952 2.72458 45.0783 5.03111 49.924ZM6.08286 49.3849C4.05471 45.1434 5.69599 39.9861 9.75045 37.8603C11.7047 36.8398 13.9667 36.673 16.0386 37.3968C18.1104 38.1205 19.8222 39.6753 20.7971 41.719C22.815 45.9659 21.1612 51.1189 17.1016 53.2339C13.042 55.3488 8.11101 53.6264 6.08286 49.3849Z" fill="#B0B0B0"/>
<path fill-rule="evenodd" clip-rule="evenodd" d="M4.48409 50.2093C6.94164 55.3706 12.9353 57.4728 17.873 54.9051C22.8093 52.3298 24.8184 46.0619 22.3631 40.897C19.9024 35.7374 13.9074 33.6393 8.97134 36.2102C4.03531 38.7812 2.02653 45.0481 4.48409 50.2093ZM4.6278 46.1918C4.38122 42.4664 6.30556 38.9526 9.50343 37.2889C13.8697 35.0258 19.1644 36.882 21.3429 41.4397C22.9348 44.7826 22.4438 48.799 20.0987 51.6158C17.7537 54.4325 14.0164 55.495 10.6299 54.3077C7.2433 53.1204 4.87438 49.9172 4.6278 46.1918Z" fill="#5C5C5C"/>
<g style="mix-blend-mode:multiply" opacity="0.3">
<path d="M5.51364 49.6734C3.56317 45.5286 4.84539 40.5146 8.51407 37.9405C12.1828 35.3664 17.1069 36.0256 20.0368 39.4832C18.0684 36.837 14.882 35.5153 11.7137 36.0309C8.54546 36.5464 5.89402 38.8182 4.78809 41.9646C3.68215 45.1111 4.29577 48.6371 6.39088 51.1747C6.05319 50.7048 5.75943 50.202 5.51364 49.6734Z" fill="#5C5C5C"/>
<path d="M20.9466 38.709C24.4366 43.1738 23.8039 49.7511 19.5332 53.3999C15.2626 57.0487 8.97126 56.3871 5.48117 51.9223C7.73886 54.8105 11.2989 56.2201 14.8202 55.6201C18.3416 55.0201 21.2893 52.5017 22.5529 49.0135C23.8166 45.5253 23.2042 41.5972 20.9466 38.709Z" fill="#5C5C5C"/>
</g>
<path d="M13.5453 45.482L13.2853 45.6178L9.52945 37.7238L9.78937 37.5947L13.5453 45.482Z" fill="#B0B0B0"/>
<rect width="0.301715" height="8.55324" transform="matrix(0.535203 -0.844724 0.822117 0.569318 6.3071 40.793)" fill="#B0B0B0"/>
<rect width="0.305658" height="8.43596" transform="matrix(0.0587364 -0.998274 0.997939 0.064177 4.99017 45.1426)" fill="#B0B0B0"/>
<rect width="8.5121" height="0.30311" transform="matrix(0.886929 -0.461906 0.430149 0.902758 5.82132 49.3369)" fill="#B0B0B0"/>
<rect width="8.70218" height="0.296552" transform="matrix(0.53665 -0.843805 0.821106 0.570776 8.63666 52.8027)" fill="#B0B0B0"/>
<rect width="8.81663" height="0.29246" transform="matrix(0.0565691 -0.998399 0.998088 0.0618104 12.7612 54.3496)" fill="#B0B0B0"/>
<path d="M17.3075 53.3765L17.0476 53.5123L13.2852 45.6183L13.5451 45.4824L17.3075 53.3765Z" fill="#B0B0B0"/>
<rect width="0.301713" height="8.5533" transform="matrix(0.535347 -0.844632 0.822016 0.569464 13.3315 45.6934)" fill="#B0B0B0"/>
<path d="M21.8238 46.2501L13.4088 45.7066L13.4283 45.4009L21.8433 45.9444L21.8238 46.2501Z" fill="#B0B0B0"/>
<rect width="8.51204" height="0.303112" transform="matrix(0.887011 -0.461747 0.429996 0.902831 13.3452 45.4204)" fill="#B0B0B0"/>
<rect width="8.7028" height="0.29653" transform="matrix(0.535203 -0.844724 0.822117 0.569318 13.2909 45.4883)" fill="#B0B0B0"/>
<rect width="8.81654" height="0.292463" transform="matrix(0.058403 -0.998293 0.997962 0.063813 13.2771 45.5229)" fill="#B0B0B0"/>
<path d="M14.1919 47.2169C15.0657 46.7619 15.4212 45.6525 14.9859 44.739C14.5507 43.8256 13.4895 43.454 12.6158 43.909C11.742 44.364 11.3866 45.4734 11.8218 46.3869C12.2571 47.3003 13.3182 47.672 14.1919 47.2169Z" fill="#5C5C5C"/>
<path d="M14.0312 46.8389C14.7122 46.4842 14.9893 45.6196 14.65 44.9076C14.3108 44.1956 13.4837 43.906 12.8027 44.2607C12.1217 44.6153 11.8446 45.48 12.1839 46.192C12.5231 46.9039 13.3502 47.1936 14.0312 46.8389Z" fill="#B0B0B0"/>
<g style="mix-blend-mode:multiply" opacity="0.3">
<path d="M12.8044 44.2663L12.7524 44.3139C13.3524 44.0488 14.0456 44.3254 14.324 44.941C14.6024 45.5567 14.367 46.2923 13.7902 46.6088C13.2135 46.9254 12.5006 46.7102 12.1741 46.1209C12.1741 46.1209 12.1741 46.1753 12.1741 46.2025C12.5122 46.9133 13.3367 47.204 14.0176 46.8525C14.6984 46.5009 14.9788 45.6397 14.6444 44.927C14.31 44.2142 13.4871 43.9187 12.8044 44.2663Z" fill="#B0B0B0"/>
</g>
<rect width="0.710893" height="8.65956" transform="matrix(0.699868 -0.714272 0.682481 0.730904 13.4384 24.3198)" fill="#B0B0B0"/>
<path d="M27.477 38.9134C27.2586 39.0204 26.9996 38.9744 26.8272 38.798L16.5928 28.0982C16.4465 27.9453 16.3894 27.7224 16.4429 27.5136C16.4965 27.3047 16.6525 27.1415 16.8523 27.0856C17.0521 27.0296 17.2653 27.0893 17.4115 27.2422L27.6265 37.9488C27.7565 38.0861 27.8159 38.2801 27.7864 38.4708C27.7568 38.6616 27.6419 38.8261 27.477 38.9134Z" fill="#35AFD4"/>
<path d="M26.2012 12.7392C26.6452 12.4345 26.7689 11.8112 26.4774 11.347C26.186 10.8828 25.5898 10.7534 25.1457 11.0581C24.7017 11.3629 24.578 11.9862 24.8695 12.4504C25.1609 12.9146 25.7571 13.0439 26.2012 12.7392Z" fill="#5C5C5C"/>
<path d="M26.0416 12.5467C26.3716 12.3203 26.4636 11.857 26.2471 11.5119C26.0305 11.1669 25.5874 11.0707 25.2573 11.2971C24.9273 11.5235 24.8353 11.9868 25.0518 12.3318C25.2684 12.6769 25.7115 12.7731 26.0416 12.5467Z" fill="#B0B0B0"/>
<g style="mix-blend-mode:multiply" opacity="0.5">
<path d="M26.0416 12.5462C26.3717 12.3198 26.4637 11.8565 26.2471 11.5114C26.0305 11.1664 25.5874 11.0702 25.2574 11.2966C24.9273 11.523 24.8353 11.9863 25.0519 12.3313C25.2684 12.6764 25.7115 12.7726 26.0416 12.5462Z" fill="#B0B0B0"/>
</g>
<path d="M23.7991 16.0525L23.1947 15.6993L25.2416 11.8881C25.3344 11.7406 25.5133 11.6811 25.6705 11.7455C25.8362 11.8378 25.9154 12.0406 25.8589 12.2278L23.7991 16.0525Z" fill="#B0B0B0"/>
<g style="mix-blend-mode:multiply" opacity="0.5">
<path d="M17.4116 27.2416C17.204 27.024 16.8725 27.0064 16.6448 27.2009L27.6266 38.7973L27.3536 37.656L17.4116 27.2416Z" fill="#35AFD4"/>
</g>
<path d="M12.5835 44.3069L12.4211 44.0555L25.2093 34.8911L25.3717 35.1425L12.5835 44.3069Z" fill="#5C5C5C"/>
<path d="M28.6597 42.1398L13.9546 47.2824L13.8636 46.9971L28.5687 41.8477L28.6597 42.1398Z" fill="#5C5C5C"/>
<path d="M12.0507 27.2963C17.0997 24.4906 19.1986 23.4716 19.9263 23.818C20.6541 24.1645 15.2867 28.5191 13.8507 29.1101C12.4146 29.7012 9.41898 28.7637 12.0507 27.2963Z" fill="#70802D"/>
<g style="mix-blend-mode:multiply" opacity="0.5">
<path d="M19.9004 23.8181C19.7256 23.7524 19.5374 23.736 19.3546 23.7705C19.0882 24.6944 14.5265 28.3357 13.2204 28.8724C12.6225 29.0799 11.981 29.1081 11.3685 28.9539C12.1351 29.3429 13.0172 29.4015 13.8247 29.117C15.2933 28.5259 20.6737 24.1645 19.9004 23.8181Z" fill="#70802D"/>
</g>
<path fill-rule="evenodd" clip-rule="evenodd" d="M34.6233 34.5163C36.9298 39.362 42.5564 41.3365 47.1923 38.9269C51.8274 36.5095 53.7144 30.6245 51.4095 25.7748C49.0994 20.9309 43.4714 18.961 38.8373 21.3742C34.2032 23.7875 32.3168 29.6706 34.6233 34.5163ZM35.675 33.9772C33.6469 29.7357 35.2882 24.5784 39.3426 22.4526C41.2968 21.4321 43.5589 21.2653 45.6307 21.989C47.7026 22.7128 49.4144 24.2676 50.3893 26.3113C52.4072 30.5582 50.7534 35.7112 46.6938 37.8261C42.6342 39.9411 37.7032 38.2187 35.675 33.9772Z" fill="#B0B0B0"/>
<path fill-rule="evenodd" clip-rule="evenodd" d="M34.0737 34.8031C36.5318 39.9654 42.5273 42.0672 47.4652 39.4975C52.3978 36.9223 54.4063 30.6594 51.9554 25.4962C49.497 20.334 43.5014 18.2327 38.5636 20.8026C33.6259 23.3726 31.6157 29.6408 34.0737 34.8031ZM34.2006 30.7854C33.954 27.06 35.8783 23.5462 39.0762 21.8825C43.4422 19.6153 48.7398 21.4726 50.9157 26.0334C52.5076 29.3763 52.0166 33.3926 49.6715 36.2094C47.3264 39.0262 43.5892 40.0886 40.2026 38.9013C36.8161 37.714 34.4471 34.5108 34.2006 30.7854Z" fill="#5C5C5C"/>
<g style="mix-blend-mode:multiply" opacity="0.3">
<path d="M35.1057 34.2598C33.1552 30.1151 34.4375 25.1011 38.1061 22.5269C41.7748 19.9528 46.699 20.612 49.6289 24.0696C47.6605 21.4234 44.474 20.1017 41.3058 20.6173C38.1375 21.1329 35.4861 23.4046 34.3802 26.5511C33.2742 29.6975 33.8878 33.2236 35.983 35.7612C35.6456 35.291 35.3518 34.7883 35.1057 34.2598Z" fill="#5C5C5C"/>
<path d="M50.5386 23.3018C53.8637 27.7768 53.1649 34.2083 48.9645 37.7897C44.7641 41.371 38.5974 40.7932 35.0732 36.4879C37.2954 39.4786 40.8929 40.9758 44.4731 40.4C48.0533 39.8242 51.054 37.2656 52.3136 33.715C53.5732 30.1643 52.8938 26.1789 50.5386 23.3018Z" fill="#5C5C5C"/>
</g>
<rect width="0.295092" height="8.74336" transform="matrix(0.887425 -0.460953 0.429229 0.903196 39.141 22.3071)" fill="#B0B0B0"/>
<rect width="0.301715" height="8.55324" transform="matrix(0.535203 -0.844724 0.822117 0.569318 35.9059 25.3848)" fill="#B0B0B0"/>
<rect width="0.305657" height="8.43597" transform="matrix(0.0589032 -0.998264 0.997927 0.064359 34.5882 29.7632)" fill="#B0B0B0"/>
<rect width="8.5121" height="0.30311" transform="matrix(0.886929 -0.461906 0.430149 0.902758 35.4126 33.9287)" fill="#B0B0B0"/>
<path d="M38.4718 37.5819L38.2314 37.4121L42.8905 30.0615L43.1309 30.2314L38.4718 37.5819Z" fill="#B0B0B0"/>
<rect width="8.81654" height="0.292464" transform="matrix(0.0585697 -0.998283 0.99795 0.063995 42.3495 38.9404)" fill="#B0B0B0"/>
<rect width="0.295111" height="8.74283" transform="matrix(0.886597 -0.462542 0.430762 0.902465 42.8799 30.2144)" fill="#B0B0B0"/>
<rect width="0.301713" height="8.5533" transform="matrix(0.535347 -0.844632 0.822016 0.569464 42.9231 30.2856)" fill="#B0B0B0"/>
<rect width="0.305658" height="8.43596" transform="matrix(0.0587364 -0.998274 0.997939 0.064177 42.9992 30.2764)" fill="#B0B0B0"/>
<rect width="8.5121" height="0.30311" transform="matrix(0.886929 -0.461906 0.430149 0.902758 42.957 29.9956)" fill="#B0B0B0"/>
<path d="M43.1309 30.2308L42.8904 30.061L47.5496 22.7104L47.79 22.8803L43.1309 30.2308Z" fill="#B0B0B0"/>
<rect width="8.81654" height="0.292464" transform="matrix(0.0585697 -0.998283 0.99795 0.063995 42.8711 30.1479)" fill="#B0B0B0"/>
<path d="M43.7876 31.8083C44.6614 31.3535 45.0171 30.2441 44.582 29.3306C44.1469 28.417 43.0858 28.0452 42.212 28.5001C41.3382 28.955 40.9825 30.0643 41.4176 30.9778C41.8527 31.8914 42.9138 32.2632 43.7876 31.8083Z" fill="#5C5C5C"/>
<path d="M43.611 31.4463C44.2921 31.0918 44.5695 30.2273 44.2305 29.5152C43.8915 28.8031 43.0645 28.5131 42.3834 28.8676C41.7022 29.222 41.4249 30.0865 41.7639 30.7986C42.1029 31.5107 42.9299 31.8007 43.611 31.4463Z" fill="#B0B0B0"/>
<g style="mix-blend-mode:multiply" opacity="0.3">
<path d="M42.3967 28.8248L42.3252 28.8724C42.9252 28.6073 43.6184 28.8839 43.8969 29.4996C44.1753 30.1152 43.9398 30.8508 43.3631 31.1674C42.7864 31.4839 42.0735 31.2687 41.7469 30.6795C41.7469 30.6795 41.7469 30.7338 41.7469 30.761C42.0804 31.4728 42.9013 31.7692 43.5838 31.4241C44.2664 31.0791 44.5539 30.2223 44.2273 29.507C43.9006 28.7917 43.0825 28.4869 42.3967 28.8248Z" fill="#B0B0B0"/>
</g>
<path d="M32.2467 20.3601C31.7528 20.2174 31.5969 19.5856 31.4344 20.102L26.7233 37.9484L14.377 44.3751L18.6527 30.1835C18.3538 29.837 18.0549 29.5041 17.7495 29.1441L12.863 45.3533C12.7901 45.586 12.8586 45.8417 13.0365 46.0009C13.2144 46.1601 13.4666 46.1914 13.6752 46.0802L27.4771 38.8927C27.6172 38.8191 27.7228 38.6892 27.7695 38.5327L33.1434 20.428C33.1434 20.428 33.1434 20.625 33.1434 20.6183C33.2994 20.1087 32.7535 20.496 32.2467 20.3601Z" fill="#35AFD4"/>
<g style="mix-blend-mode:multiply" opacity="0.5">
<path d="M32.2467 20.3604L27.2627 38.5057L13.0644 46.0329C13.2387 46.1761 13.476 46.2025 13.6752 46.1009L27.4771 38.9134C27.6172 38.8398 27.7228 38.7098 27.7695 38.5533L32.8965 21.1824L32.2467 20.3604Z" fill="#35AFD4"/>
</g>
<path d="M43.0595 30.489C42.835 30.6424 42.5391 30.6142 42.3448 30.4211L28.8353 17.5882C28.602 17.3593 28.5904 16.9761 28.8093 16.7322C29.0282 16.4883 29.3948 16.4761 29.6281 16.705L43.1375 29.5379C43.2463 29.6513 43.3074 29.8053 43.3074 29.9659C43.3074 30.1265 43.2463 30.2805 43.1375 30.3939C43.1148 30.4284 43.0887 30.4603 43.0595 30.489Z" fill="#35AFD4"/>
<path fill-rule="evenodd" clip-rule="evenodd" d="M24.6368 41.4417C25.8325 42.523 27.5344 42.7423 28.9455 41.997C30.852 40.99 31.6285 38.5666 30.687 36.5622C29.9901 35.0786 28.5053 34.1818 26.9278 34.2918C25.3504 34.4018 23.9926 35.4968 23.4904 37.0641C22.9882 38.6313 23.441 40.3605 24.6368 41.4417ZM24.5063 38.5732C24.4312 37.4269 25.0241 36.3463 26.0084 35.8355V35.8287C27.3524 35.133 28.9814 35.7078 29.6473 37.1126C30.1374 38.141 29.9865 39.3767 29.2649 40.2433C28.5434 41.1099 27.3935 41.4366 26.3517 41.071C25.3099 40.7053 24.5815 39.7194 24.5063 38.5732Z" fill="#5C5C5C"/>
<path fill-rule="evenodd" clip-rule="evenodd" d="M25.7485 35.2857C24.1201 36.1337 23.4575 38.2012 24.2684 39.9038C25.0792 41.6064 27.0567 42.2996 28.6854 41.4521C30.3141 40.6047 30.9775 38.5375 30.1672 36.8346C29.7779 36.0164 29.0936 35.3935 28.2648 35.103C27.4361 34.8125 26.5309 34.8782 25.7485 35.2857ZM27.6979 36.298C27.9151 35.9593 28.3533 35.8679 28.6781 36.0935C29.003 36.3191 29.0923 36.7768 28.8779 37.1174C28.6635 37.458 28.226 37.5533 27.8994 37.3306C27.7407 37.2224 27.6301 37.0523 27.5922 36.8583C27.5544 36.6642 27.5924 36.4624 27.6979 36.298ZM25.7559 40.7143C26.0808 40.9399 26.519 40.8485 26.7362 40.5098V40.4759C26.9342 40.14 26.8456 39.7009 26.5347 39.4772C26.208 39.2545 25.7706 39.3498 25.5562 39.6904C25.3418 40.031 25.4311 40.4887 25.7559 40.7143ZM25.9825 38.3222C25.9631 38.6219 25.7725 38.8796 25.4999 38.9747C25.2274 39.0697 24.9269 38.9832 24.7393 38.7557C24.5517 38.5282 24.5142 38.2048 24.6442 37.937C24.7743 37.6692 25.0463 37.51 25.3326 37.5341C25.7059 37.5664 25.9906 37.8968 25.9825 38.2882V38.3222ZM27.4522 40.5565C27.6261 40.9217 28.0497 41.0711 28.3997 40.8905V40.8566C28.7346 40.675 28.8746 40.2508 28.7181 39.8919C28.5417 39.5279 28.1171 39.3817 27.7684 39.5648C27.4196 39.7478 27.2783 40.1913 27.4522 40.5565ZM26.6648 37.2489C26.3148 37.4295 25.8912 37.2801 25.7173 36.9149C25.5434 36.5497 25.6848 36.1062 26.0335 35.9231C26.3822 35.7401 26.8068 35.8863 26.9832 36.2503C27.1398 36.6092 26.9997 37.0334 26.6648 37.215V37.2489ZM29.3857 39.2598C29.6583 39.1648 29.8489 38.907 29.8683 38.6073V38.5394C29.8595 38.161 29.5793 37.8504 29.2185 37.8193C28.9321 37.7952 28.6601 37.9543 28.5301 38.2221C28.4 38.49 28.4375 38.8134 28.6251 39.0409C28.8127 39.2684 29.1132 39.3549 29.3857 39.2598Z" fill="#B0B0B0"/>
<g style="mix-blend-mode:screen" opacity="0.3">
<path d="M25.1443 37.4251C24.7576 37.3977 24.4217 37.7005 24.3906 38.1044C24.3717 38.4467 24.5822 38.757 24.8974 38.8517C24.6717 38.7095 24.5412 38.4471 24.5595 38.1723C24.5906 37.7684 24.9266 37.4657 25.3133 37.493C25.3667 37.4998 25.4191 37.5135 25.4693 37.5337C25.3713 37.4699 25.2596 37.4325 25.1443 37.4251Z" fill="#B0B0B0"/>
<path d="M28.7833 39.1171C28.5576 38.9749 28.4271 38.7126 28.4454 38.4377C28.4765 38.0338 28.8124 37.7311 29.1992 37.7584C29.2525 37.7656 29.3049 37.7793 29.3551 37.7992C29.2511 37.7176 29.1273 37.6682 28.9977 37.6565C28.611 37.6292 28.2751 37.9319 28.244 38.3358C28.2121 38.7005 28.4423 39.0339 28.7833 39.1171Z" fill="#B0B0B0"/>
<path d="M27.5226 36.1821C27.4172 36.3466 27.3791 36.5484 27.4169 36.7424C27.4548 36.9365 27.5654 37.1066 27.7241 37.2147C27.7753 37.2444 27.8299 37.2672 27.8865 37.2827C27.5662 37.0557 27.4794 36.602 27.6916 36.2636C27.8716 35.9861 28.2086 35.8715 28.5103 35.9851C28.3546 35.8735 28.1627 35.8316 27.9772 35.8686C27.7918 35.9056 27.6281 36.0184 27.5226 36.1821Z" fill="#B0B0B0"/>
<path d="M25.7486 40.6795C25.4283 40.4526 25.3415 39.9988 25.5537 39.6605C25.7337 39.383 26.0707 39.2683 26.3724 39.382C26.1612 39.2351 25.891 39.2173 25.6638 39.3351C25.4365 39.453 25.2867 39.6886 25.2706 39.9533C25.2546 40.218 25.3749 40.4715 25.5862 40.6184C25.6375 40.6462 25.6921 40.6668 25.7486 40.6795Z" fill="#B0B0B0"/>
<path d="M25.8591 35.8016C25.6895 35.8891 25.5605 36.0439 25.5006 36.2315C25.4408 36.4191 25.4553 36.6239 25.5407 36.8002C25.6339 36.9915 25.8025 37.1305 26.0021 37.1807C25.8779 37.1143 25.776 37.0101 25.7097 36.8818C25.6242 36.7054 25.6098 36.5006 25.6696 36.313C25.7294 36.1254 25.8585 35.9706 26.0281 35.8831C26.1797 35.806 26.3528 35.7891 26.5154 35.8356C26.3156 35.7113 26.0698 35.6985 25.8591 35.8016Z" fill="#B0B0B0"/>
<path d="M27.737 40.8288C27.6121 40.7603 27.5102 40.6537 27.4446 40.5231C27.3591 40.3467 27.3447 40.1419 27.4045 39.9543C27.4643 39.7668 27.5934 39.612 27.763 39.5245C27.9147 39.448 28.0877 39.4311 28.2504 39.4769C28.0468 39.3658 27.8041 39.3658 27.6006 39.4769C27.431 39.5644 27.3019 39.7192 27.2421 39.9068C27.1823 40.0944 27.1967 40.2992 27.2822 40.4756C27.3795 40.6549 27.5446 40.7831 27.737 40.8288Z" fill="#B0B0B0"/>
</g>
<path d="M23.6432 16.9903C24.055 16.7602 24.2839 16.2843 24.215 15.8014C24.134 15.447 23.8771 15.1655 23.5423 15.0643C23.2074 14.9631 22.8464 15.0578 22.597 15.3123L23.6432 16.9903Z" fill="#828282"/>
<path d="M23.63 16.9999C24.0711 16.6974 24.1942 16.0783 23.9049 15.6171C23.6155 15.1559 23.0234 15.0273 22.5822 15.3297C22.1411 15.6322 22.0181 16.2513 22.3074 16.7125C22.5967 17.1737 23.1889 17.3023 23.63 16.9999Z" fill="#5C5C5C"/>
<path d="M23.4987 16.7316C23.8106 16.5174 23.8974 16.0793 23.6925 15.7532C23.4876 15.4271 23.0686 15.3364 22.7566 15.5506C22.4447 15.7648 22.3579 16.2029 22.5628 16.529C22.7677 16.8551 23.1867 16.9458 23.4987 16.7316Z" fill="#B0B0B0"/>
<g style="mix-blend-mode:multiply" opacity="0.5">
<path d="M23.3054 15.4761C23.641 15.6355 23.7893 16.0492 23.6368 16.4C23.4843 16.7508 23.0886 16.9059 22.7531 16.7465C23.0886 16.9059 23.4843 16.7508 23.6368 16.4C23.7893 16.0492 23.641 15.6355 23.3054 15.4761Z" fill="#B0B0B0"/>
</g>
<rect width="4.41735" height="1.0315" transform="matrix(0.986177 -0.165695 0.151938 0.98839 28.2619 41.3359)" fill="#404352"/>
<g style="mix-blend-mode:multiply" opacity="0.5">
<path d="M25.7485 35.2848L25.6771 35.3324C27.2231 34.5794 29.0611 35.2611 29.8075 36.8645C30.5538 38.4678 29.9329 40.4007 28.4121 41.208C26.8914 42.0153 25.0323 41.3989 24.2345 39.8229C24.2345 39.8229 24.2345 39.8772 24.2345 39.9044C25.0377 41.6087 27.0094 42.3111 28.6409 41.4743C30.2725 40.6374 30.9476 38.5773 30.1499 36.8702C29.3521 35.163 27.3828 34.4537 25.7485 35.2848Z" fill="#B0B0B0"/>
</g>
<g style="mix-blend-mode:multiply" opacity="0.5">
<path d="M29.6475 16.712C29.5297 16.5985 29.3717 16.5418 29.2121 16.5558L43.2024 30.367C43.3956 30.1228 43.3758 29.7642 43.1569 29.5449L29.6475 16.712Z" fill="#35AFD4"/>
</g>
<path d="M25.2871 36.9365C25.1117 38.1118 25.4886 40.9446 25.755 41.2843C26.0214 41.624 27.8149 41.59 28.4582 41.2843C28.874 41.0941 29.8488 41.1552 31.8956 40.8903C33.5072 40.6797 33.7281 39.783 33.2732 39.1987C32.6689 38.4243 31.6942 38.9202 30.5051 38.5194C28.7506 37.908 28.1203 38.0438 27.9838 36.1281C27.8474 34.2123 25.2871 36.9365 25.2871 36.9365Z" fill="#70802D"/>
<path d="M8.47037 26.6437C9.07469 27.7986 10.3743 28.3149 11.5699 28.4372C12.7656 28.5595 15.3713 27.0377 15.8782 26.9358C17.2622 26.6505 21.0766 27.7035 23.195 28.3557C23.0804 29.9524 23.2121 31.558 23.5849 33.1111C24.1372 35.5364 25.1769 39.2252 25.1769 39.2252C25.1769 39.2252 28.8028 38.5934 28.6079 37.5812C28.4129 36.569 26.444 25.7198 26.1971 24.7483C25.9956 23.9399 25.1379 23.5051 24.0267 23.1451C20.0694 21.8679 13.4024 20.3394 13.4024 20.3394L8.47037 26.6437Z" fill="#505366"/>
<path d="M10.3808 27.0585C11.1098 26.0834 11.7129 25.0122 12.1742 23.8724C12.6918 22.7626 13.1031 21.6021 13.4024 20.4077L13.1944 20.5504L8.45734 26.6645C9.06166 27.8194 10.3613 28.3357 11.5569 28.458C12.7526 28.5803 15.3583 27.0585 15.8651 26.9566C12.1807 27.7243 10.3808 27.0585 10.3808 27.0585Z" fill="#404352"/>
<path d="M15.8781 26.9361C16.1508 26.8898 16.4277 26.8761 16.7034 26.8954C16.4287 26.8472 16.1473 26.8611 15.8781 26.9361H15.8781Z" fill="#404352"/>
<path d="M4.57138 7.88742C4.40893 8.44449 2.84939 9.80318 3.01184 13.9472C3.1743 18.0912 3.42122 17.2013 3.93457 19.5518C4.23998 20.9581 7.46951 27.1809 7.75543 27.5138C8.04134 27.8467 8.5287 27.1741 10.5366 25.2108C11.8255 23.8558 12.8051 22.214 13.4022 20.4078C13.4022 20.4078 12.6615 16.9363 12.408 15.0274C12.0287 13.4025 11.5557 11.8031 10.9915 10.238L9.90629 7.76514L4.57138 7.88742Z" fill="#A3B848"/>
<path d="M19.5689 14.8364C20.5696 14.6122 22.1682 13.7427 23.0389 14.2182C23.6877 14.5336 24.1365 15.1747 24.228 15.9166C24.228 16.2902 23.2338 15.1625 22.2331 15.7739C21.4443 16.1411 20.5538 16.1918 19.7314 15.9166C18.9061 15.638 19.5689 14.8364 19.5689 14.8364Z" fill="#FFB884"/>
<path d="M5.60463 8.68906C5.96202 8.34938 6.99522 8.68906 8.26884 9.66732C9.54246 10.6456 13.5972 13.6007 13.8117 13.5872C14.2795 13.5872 20.1408 13.2271 20.8361 13.2679C21.5314 13.3086 21.2974 16.4336 20.9271 16.5287C18.9544 16.9261 16.9512 17.1353 14.9423 17.1537C13.3828 17.2013 11.6543 17.7516 7.73599 15.1157C4.18156 12.6768 2.84296 11.3045 5.60463 8.68906Z" fill="#A3B848"/>
<path d="M8.97055 9.85066C10.2702 10.8561 13.5907 13.6007 13.8051 13.5871C14.273 13.5871 20.1342 13.227 20.8295 13.2678C21.5248 13.3085 21.2909 16.4335 20.9205 16.5287C18.9478 16.926 16.9447 17.1352 14.9358 17.1537C13.3762 17.2012 11.6478 17.7515 7.72943 15.1156C4.59736 12.9892 3.1288 11.6238 4.7858 9.59251C5.71503 8.44441 7.69694 8.84522 8.97055 9.85066Z" fill="#A3B848"/>
<g style="mix-blend-mode:multiply" opacity="0.3">
<path d="M8.97055 9.85066C10.2702 10.8561 13.5907 13.6007 13.8051 13.5871C14.273 13.5871 20.1342 13.227 20.8295 13.2678C21.5248 13.3085 21.2909 16.4335 20.9205 16.5287C18.9478 16.926 16.9447 17.1352 14.9358 17.1537C13.3762 17.2012 11.6478 17.7515 7.72943 15.1156C4.59736 12.9892 3.1288 11.6238 4.7858 9.59251C5.71503 8.44441 7.69694 8.84522 8.97055 9.85066Z" fill="#A3B848"/>
</g>
<path d="M6.55991 5.72706C6.42934 5.58932 6.25154 5.51184 6.06606 5.51184C5.88057 5.51184 5.70277 5.58932 5.5722 5.72706C5.4087 6.05663 5.49658 6.46145 5.78014 6.68494C6.36497 7.29635 6.85882 7.28956 7.07975 7.1401C7.26376 7.43917 7.55763 7.64563 7.89201 7.71076C8.71246 7.88725 9.55372 7.93305 10.3873 7.84663C10.3353 7.84663 10.8876 7.30994 10.7836 6.99744C10.6797 6.68494 10.8746 6.7257 10.9266 6.49472C10.9786 6.26374 10.8031 6.26374 10.8031 6.26374C10.8031 6.26374 11.0436 6.09391 10.9656 6.00559C10.8397 5.90082 10.7619 5.74545 10.7512 5.5776C10.8226 5.48929 11.141 5.27869 11.0046 5.08847C10.7175 4.82971 10.4719 4.52469 10.2768 4.18494C10.2791 3.90599 10.3298 3.62979 10.4263 3.36972C10.3202 2.90764 10.1377 2.46851 9.88692 2.07216C9.88692 2.07216 8.89271 1.15504 7.6126 2.5613C6.85378 3.41628 6.47202 4.56435 6.55991 5.72706Z" fill="#FFB884"/>
<path d="M8.35335 4.14403C8.33976 4.66676 8.38778 5.18926 8.49631 5.69973C8.59378 5.80164 10.2508 6.48098 10.3807 6.52175C10.5107 6.56251 11.5829 5.39403 11.7778 5.42799C12.077 5.45603 12.3188 5.69478 12.3627 6.00544C12.4276 6.4674 11.063 8.46468 10.7121 8.67528C10.3613 8.88588 7.98296 8.59376 7.98296 8.59376C6.85984 8.44425 5.74498 8.23337 4.64296 7.96196C4.47401 7.80571 3.80471 6.50137 3.55128 6.09376C3.29786 5.68615 3.13541 5.25136 3.06393 3.80435C2.99245 2.35734 3.43432 1.71875 4.11012 1.24321C4.78591 0.767664 5.99455 0.0475544 6.79381 0.108696C7.26732 0.135761 7.73848 0.197049 8.20389 0.29212C8.6196 0.123531 9.05825 0.0249334 9.50351 0C10.4854 0.139489 11.4594 0.334522 12.4211 0.58424C12.2382 1.0849 11.8528 1.47534 11.3684 1.65082C10.7966 1.7731 10.0104 1.99728 10.0104 1.99728C10.1281 2.20171 10.1847 2.43831 10.1728 2.67663C10.0883 2.78533 8.35335 4.14403 8.35335 4.14403Z" fill="#505366"/>
<path d="M23.1494 15.6389L23.7473 15.9174C24.0267 16.0397 23.8382 16.7054 23.9942 16.6851C24.2296 16.4921 24.3565 16.1884 24.3321 15.8766C24.293 15.3841 24.0389 14.9379 23.6433 14.6674C22.987 14.1035 23.1494 15.6389 23.1494 15.6389Z" fill="#FFB884"/>
<path d="M23.9813 12.2012C24.6311 11.6238 25.5019 11.2298 26.3726 11.9499C27.2433 12.67 26.6975 10.0953 24.0658 10.4485L23.9813 12.2012Z" fill="#FFB884"/>
<path d="M23.9812 12.2015C24.3269 12.1431 24.6781 12.1271 25.0274 12.154C25.0274 12.154 25.5407 11.8211 24.436 11.4746C23.3314 11.1282 23.9812 12.2015 23.9812 12.2015Z" fill="#FFB884"/>
<path d="M8.35328 4.14405C8.35328 4.14405 10.0883 2.78535 10.1792 2.63589C10.1911 2.39757 10.1346 2.16097 10.0168 1.95654C8.89261 2.09921 8.06736 2.01768 7.61899 2.5272C7.17063 3.03671 6.96919 5.7541 7.14464 6.00546C7.32008 6.25682 9.79584 7.0041 10.3937 6.49459C10.2637 6.44704 8.6067 5.77448 8.50923 5.67258C8.39844 5.17151 8.34607 4.65827 8.35328 4.14405Z" fill="#404352"/>
<path d="M12.1872 1.03323C12.2968 0.914824 12.3771 0.77024 12.4211 0.612029C11.4595 0.360026 10.4855 0.162725 9.50347 0.0209961C9.05822 0.0459294 8.61957 0.144527 8.20386 0.313116C8.7644 0.575209 9.33942 0.802062 9.92584 0.992464C10.6783 1.05053 11.4333 1.06414 12.1872 1.03323Z" fill="#A3B848"/>
<path d="M6.57283 1.06006C6.00658 1.25369 5.4512 1.4805 4.90933 1.73941C4.6689 1.79375 4.07108 3.8318 4.10357 4.13071C4.13606 4.42963 4.46096 5.48941 4.46096 5.48941C4.67511 4.36898 4.95726 3.26393 5.30571 2.18098C5.52015 1.9568 6.57283 1.06006 6.57283 1.06006Z" fill="#A3B848"/>
<path d="M6.77432 1.77295C6.40121 2.06207 6.04933 2.37999 5.72163 2.72404L5.4812 4.36806L6.13101 2.83273L6.77432 1.77295Z" fill="#A3B848"/>
<path d="M3.79183 6.52881C4.0427 7.02424 4.32265 7.50296 4.63008 7.96223C5.73425 8.23387 6.85128 8.44476 7.97658 8.59403C7.97658 8.59403 10.3744 8.87935 10.7058 8.67555C11.0843 8.30862 11.4143 7.89053 11.687 7.43234C11.1489 7.77391 10.5887 8.07582 10.0105 8.33588C9.82203 8.33588 4.95499 7.76522 4.95499 7.76522L4.74055 7.1674C4.40276 6.9857 4.07904 6.77674 3.77234 6.5424L3.79183 6.52881Z" fill="#404352"/>
</svg>
