<svg width="56" height="56" viewBox="0 0 56 56" fill="none" xmlns="http://www.w3.org/2000/svg">
<path d="M52.4392 43.2573H47.5575L48.0232 38.4095L48.1655 38.2708C49.9972 36.4848 52.5758 35.4604 55.2405 35.4604H56V36.7895L55.678 36.9625C53.6499 38.0519 52.4392 39.8294 52.4392 41.7173V43.2573Z" fill="#72CA76"/>
<path d="M49.1343 43.2574H43.0053L43.3425 38.6162L43.3903 38.5265C44.2883 36.8449 45.7377 35.3421 47.5817 34.1807C49.4465 33.0062 51.6826 32.2028 54.0482 31.8573L54.9506 31.7256V32.8694L54.6285 33.0424C52.9664 33.9352 51.5854 35.1291 50.6347 36.4951C49.6531 37.9055 49.1343 39.5009 49.1343 41.1088V43.2574H49.1343Z" fill="#559759"/>
<path d="M44.7199 43.2378H39.1152V41.6978C39.1152 39.8098 37.9044 38.0323 35.8764 36.943L35.5544 36.77V35.4409H36.3138C38.9785 35.4409 41.5572 36.4652 43.3888 38.2513L43.5022 38.3618L44.7199 43.2378Z" fill="#72CA76"/>
<path d="M37.3131 31.8378L36.5001 31.7061V32.8499L36.7902 33.0228C38.2878 33.9156 39.5323 35.1096 40.3889 36.4756C41.2733 37.886 41.7408 39.4813 41.7408 41.0893V43.2379H46.9669L46.2825 37.3847C44.4667 34.5707 41.2345 32.4733 37.3131 31.8378Z" fill="#86EC88"/>
<path d="M47.8727 42.6589C47.8727 40.7633 47.3 38.9615 46.2825 37.3848V43.2379H47.8727V42.6589Z" fill="#72CA76"/>
<path d="M34.421 43.3447H56V45.0047H34.421V43.3447Z" fill="#C4FFCB"/>
<path d="M24.0046 21.0547H26.5138V26.6039H24.0046V21.0547Z" fill="#474F54"/>
<path d="M25.2592 21.0547H26.5138V26.6039H25.2592V21.0547Z" fill="#32393F"/>
<path d="M20.2408 19.9448H30.2776V22.1645H20.2408V19.9448Z" fill="#575F64"/>
<path d="M25.2592 19.9448H30.2776V22.1645H25.2592V19.9448Z" fill="#474F54"/>
<path d="M32.7868 27.7133V31.099L25.2592 30.5271L17.7316 29.9544V27.7133C17.7316 25.8776 19.4203 24.3838 21.4954 24.3838H29.023C31.0981 24.3838 32.7868 25.8776 32.7868 27.7133Z" fill="#575F64"/>
<path d="M32.7868 27.7133V31.099L25.2592 30.5271V24.3838H29.023C31.0981 24.3838 32.7868 25.8776 32.7868 27.7133Z" fill="#474F54"/>
<path d="M12.8147 30.3704L5.61298 15.5053H0V13.2856H7.26754L15.121 29.496L12.8147 30.3704Z" fill="#575F64"/>
<path d="M42.8235 39.9218V41.0317H20.2408C13.1573 39.4653 10.9542 38.9777 10.3612 38.8468C10.3587 38.846 10.3562 38.846 10.3537 38.8453C10.3537 38.8453 10.3537 38.8453 10.3529 38.8453L10.3504 38.8445C10.3462 38.8438 10.3428 38.8431 10.3395 38.8423H10.342C10.3403 38.8423 10.3378 38.8416 10.3353 38.8408L10.3395 38.8423C10.3353 38.8408 10.3303 38.8401 10.3261 38.8394L10.3169 38.8371C10.3152 38.8364 10.3136 38.8364 10.3127 38.8364L10.3094 38.8357C10.3044 38.8342 10.2993 38.8334 10.2943 38.832C10.2935 38.832 10.2927 38.832 10.2927 38.8312L10.2835 38.8297C10.2826 38.8297 10.2826 38.8297 10.2818 38.829C10.2659 38.8253 10.24 38.8194 10.2316 38.8179C10.2291 38.8179 10.2266 38.8172 10.2249 38.8164C10.2216 38.8157 10.2174 38.8149 10.2132 38.8142C10.1915 38.809 10.1881 38.8083 10.204 38.812V32.1759C10.204 30.3698 11.8617 28.8745 13.9 28.8435C18.2485 28.7776 22.0114 28.8723 25.2592 29.1328C27.3527 29.3007 29.2321 29.5375 30.9174 29.8438C37.76 31.089 42.8235 33.726 42.8235 39.9218Z" fill="#FF641A"/>
<path d="M42.8235 39.9219V41.0317H25.2592V29.1328C27.3527 29.3008 29.2321 29.5375 30.9174 29.8438C37.76 31.0891 42.8235 33.726 42.8235 39.9219Z" fill="#F03800"/>
<path d="M35.2959 44.3611C32.5288 44.3611 30.2776 42.3696 30.2776 39.9218C30.2776 37.4739 32.5288 35.4824 35.2959 35.4824C38.0631 35.4824 40.3143 37.4739 40.3143 39.9218C40.3143 42.3696 38.0631 44.3611 35.2959 44.3611Z" fill="#32393F"/>
<path d="M35.2959 42.1415C36.6817 42.1415 37.8051 41.1477 37.8051 39.9218C37.8051 38.6959 36.6817 37.7021 35.2959 37.7021C33.9101 37.7021 32.7867 38.6959 32.7867 39.9218C32.7867 41.1477 33.9101 42.1415 35.2959 42.1415Z" fill="#D5E8FE"/>
<path d="M16.477 44.361C13.0181 44.361 10.204 41.8717 10.204 38.8119C10.204 35.7521 13.0181 33.2627 16.477 33.2627C19.9359 33.2627 22.75 35.7521 22.75 38.8119C22.75 41.8717 19.9359 44.361 16.477 44.361Z" fill="#474F54"/>
<path d="M16.477 42.1414C18.5557 42.1414 20.2408 40.6508 20.2408 38.8119C20.2408 36.9731 18.5557 35.4824 16.477 35.4824C14.3983 35.4824 12.7132 36.9731 12.7132 38.8119C12.7132 40.6508 14.3983 42.1414 16.477 42.1414Z" fill="#EDF5FF"/>
</svg>
