<svg width="56" height="56" viewBox="0 0 56 56" fill="none" xmlns="http://www.w3.org/2000/svg">
<g clip-path="url(#clip0)">
<path fill-rule="evenodd" clip-rule="evenodd" d="M22.2942 17.5801C23.1633 18.6989 22.8988 19.3933 22.8232 19.5862C22.7098 19.8563 22.2942 19.8563 21.9919 19.9334C21.8407 19.7791 21.9541 19.5862 22.4075 19.4705C22.4831 19.1233 21.8785 17.8887 22.2942 17.5801Z" fill="#1C2B59"/>
<path fill-rule="evenodd" clip-rule="evenodd" d="M0.944968 12.7958C1.02054 13.336 0.869394 13.8375 0.604887 13.8761C0.340379 13.9147 0.0758718 13.4903 0.038085 12.9116C-0.0374885 12.3715 0.113659 11.8699 0.378166 11.8314C0.604887 11.7928 0.869394 12.2557 0.944968 12.7958Z" fill="#4C4C4C"/>
<path fill-rule="evenodd" clip-rule="evenodd" d="M0.793509 13.1045L24.0702 19.3158C23.8434 19.5087 23.7679 19.3544 23.8434 19.6245L0.604575 13.4517C0.226708 13.3746 0.415641 12.9888 0.793509 13.1045Z" fill="#FFCC00"/>
<path fill-rule="evenodd" clip-rule="evenodd" d="M20.3293 18.2354L23.9946 19.2385C24.3725 19.3542 24.1457 20.1644 23.8057 19.9715C23.5412 19.8172 23.3522 19.6243 23.0499 19.5471L20.2159 18.7755C20.0648 18.737 19.9892 18.5826 20.027 18.4283C20.027 18.274 20.1781 18.1968 20.3293 18.2354Z" fill="#333333"/>
<path fill-rule="evenodd" clip-rule="evenodd" d="M4.95006 17.7729L3.77867 18.0816V18.3902L39.0715 40.8822C39.5627 41.1909 41.1498 41.3838 42.2078 40.2649L42.1322 40.1492C41.9055 40.3035 40.9231 40.7279 40.3563 40.3807L4.95006 17.7729Z" fill="#FFCC00"/>
<path fill-rule="evenodd" clip-rule="evenodd" d="M4.95006 17.5029L3.77867 18.1202L39.0715 40.6122C40.0162 41.2295 41.3387 40.8823 42.1322 40.1107C41.5277 40.3807 40.8097 40.3421 40.3563 40.0721L4.95006 17.5029Z" fill="#4D4EAF"/>
<path fill-rule="evenodd" clip-rule="evenodd" d="M35.1417 12.6029C36.8421 14.0689 37.9757 15.5735 39.3738 16.075C39.5627 16.3065 40.7719 14.9562 40.2051 14.5319C38.7314 13.4516 39.1093 12.4871 36.9177 10.9825C35.2928 8.39767 34.3104 9.05353 33.8192 9.6708C33.3279 10.2495 33.4413 11.1368 35.1417 12.6029Z" fill="#E30613"/>
<path fill-rule="evenodd" clip-rule="evenodd" d="M28.8313 20.8206C28.4912 21.9008 27.8489 21.978 27.3576 22.9811C26.6775 24.3699 27.1687 26.839 26.5641 27.572C25.9973 28.9223 27.2065 30.7742 28.7557 28.9223C29.0202 28.6137 30.4939 25.373 30.9852 24.5242C31.4008 23.8298 32.1188 23.0968 32.4211 21.3607C32.1188 21.0906 32.0432 20.6277 31.2497 20.2805C29.4737 19.586 28.8691 20.6663 28.8313 20.8206Z" fill="#0089C4"/>
<path fill-rule="evenodd" clip-rule="evenodd" d="M26.7908 27.1477C27.282 27.6107 28.2267 27.5721 28.8691 27.9965C29.3225 28.3051 28.0756 29.8869 27.0175 29.5397C25.8839 28.9224 24.8259 28.8452 24.108 28.5366C22.7854 27.9193 22.7476 27.6493 20.8205 27.7264C20.3671 27.5335 20.2159 26.1832 21.0094 26.2604C22.2942 26.2604 24.8259 25.7203 26.7908 27.1477Z" fill="#0089C4"/>
<path fill-rule="evenodd" clip-rule="evenodd" d="M27.5843 24.5626C28.1889 25.3728 28.7179 26.7616 29.4359 27.5718C30.305 28.5749 31.4386 28.8449 32.1188 30.5039C32.2699 31.2755 32.9123 31.314 33.8192 30.5039C34.2726 30.0795 35.0661 29.7323 33.9703 28.1505C33.8192 27.4561 33.668 26.453 32.3455 24.6398C31.5142 23.5209 30.1161 22.1706 29.2847 21.3219C29.2847 21.3219 28.8691 20.5117 27.3576 21.7077C26.1484 22.7879 27.282 24.2925 27.5843 24.5626Z" fill="#00CCFF"/>
<path fill-rule="evenodd" clip-rule="evenodd" d="M27.7355 24.7557C27.7733 24.3699 28.6802 25.18 29.3225 24.6785C30.2672 23.9455 31.4386 23.5597 32.081 24.3313C31.4386 23.0196 31.6653 21.9779 31.7787 20.4733C30.6829 20.0875 27.6599 20.9748 26.5641 20.5505C25.5816 22.5566 27.0553 24.0612 27.7355 24.7557Z" fill="#00CCFF"/>
<path fill-rule="evenodd" clip-rule="evenodd" d="M31.7787 9.05384C31.6275 9.05384 30.0405 9.74828 29.0958 10.5199C28.4156 11.0986 28.1134 12.6032 28.0756 12.8347C27.0175 14.8794 28.0378 17.3485 26.5263 20.5506C26.3374 22.4024 31.2874 22.904 32.421 21.3222C32.4966 19.9719 34.4237 15.8053 34.726 15.1109C35.444 14.2235 35.3306 12.9118 35.4062 11.6387C35.4818 10.9057 35.7085 10.3656 35.4818 9.78686C35.3306 9.43964 35.0283 9.05384 34.6883 8.97668C33.5169 8.89952 32.0054 9.05384 31.7787 9.05384Z" fill="#DADADA"/>
<path fill-rule="evenodd" clip-rule="evenodd" d="M22.2186 12.3714C21.085 13.9532 21.2739 16.5766 21.0094 17.271C20.8961 17.5025 21.9919 17.9655 22.1808 17.3868C22.4831 16.4223 22.7098 15.5735 23.9568 13.9917C24.2213 13.6445 24.9015 12.5257 24.3347 12.1013C23.7301 11.677 23.0121 11.2526 22.2186 12.3714Z" fill="#00CCFF"/>
<path fill-rule="evenodd" clip-rule="evenodd" d="M27.8111 10.7896C26.0729 10.6353 22.9744 11.7155 22.9744 11.7155C22.6721 11.7155 23.0877 13.7602 23.8057 13.6059C25.695 13.2201 25.8461 14.5318 28.3779 13.7217C30.7206 14.146 31.1363 12.5643 30.8718 11.5998C30.6451 10.8282 30.1916 10.1337 27.8111 10.7896Z" fill="#E30613"/>
<path fill-rule="evenodd" clip-rule="evenodd" d="M40.0162 16.461C41.7166 17.2326 44.4372 16.8854 45.2685 17.0011C45.5331 17.0783 45.7976 15.9595 45.2308 15.8823C44.2861 15.7666 43.2658 15.6894 41.5654 14.8407C41.1876 14.6478 40.1295 14.3005 39.7139 14.8407C39.2227 15.4965 38.807 15.9209 40.0162 16.461Z" fill="#0089C4"/>
<path fill-rule="evenodd" clip-rule="evenodd" d="M32.3833 7.31782C32.3833 7.31782 32.3455 8.51379 31.4764 9.47828C33.3657 11.8316 34.9905 11.7159 34.2726 9.55544C33.9703 9.01533 33.8947 8.32089 33.9325 7.3564C34.1215 6.89344 32.3833 7.31782 32.3833 7.31782Z" fill="#CF8453"/>
<path fill-rule="evenodd" clip-rule="evenodd" d="M45.4953 15.8825C45.6464 15.7282 45.7598 15.5739 45.9865 15.6124C46.4399 15.7668 47.7247 16.1911 47.8003 16.2297C47.9136 16.2683 47.8381 16.2297 47.9136 16.2683C48.0648 16.3455 48.027 16.4998 47.7625 16.6541C47.6491 16.9627 47.498 16.9627 47.2335 16.9242C47.2335 17.1171 47.1201 17.1942 46.5911 17.1171C46.4777 17.2714 46.5155 17.2714 46.4022 17.2714C46.0621 17.2328 45.8354 17.2714 45.3441 17.0013H45.1552C45.004 16.7698 44.8907 16.2683 45.1552 15.8825C45.2308 15.8439 45.4197 15.9211 45.4953 15.8825Z" fill="#1C2B59"/>
<path fill-rule="evenodd" clip-rule="evenodd" d="M18.7422 29.1924L17.5708 29.501V29.8097L52.8637 52.3017C53.3549 52.6103 54.942 52.8032 56 51.6844L55.9244 51.5686C55.6977 51.723 54.7152 52.1473 54.1484 51.8001L18.7422 29.1924Z" fill="#FFCC00"/>
<path fill-rule="evenodd" clip-rule="evenodd" d="M18.7422 28.9224L17.5708 29.5396L52.8637 52.0316C53.8084 52.6489 55.1309 52.3017 55.9244 51.5301C55.3198 51.8002 54.6019 51.7616 54.1484 51.4915L18.7422 28.9224Z" fill="#4D4EAF"/>
<path fill-rule="evenodd" clip-rule="evenodd" d="M21.8407 18.7374C22.0297 18.7374 22.1808 18.6602 22.1808 18.583C22.1808 18.5059 22.0297 18.4287 21.8407 18.3901C21.6518 18.3901 21.5007 18.4673 21.5007 18.5445C21.5007 18.6602 21.6518 18.7374 21.8407 18.7374Z" fill="#CF8453"/>
<path fill-rule="evenodd" clip-rule="evenodd" d="M20.7827 17.8501C20.8205 17.4257 21.3873 17.5414 21.7652 17.6958C22.0297 17.8115 22.2942 18.5831 22.4076 19.0075C22.4831 19.2775 22.5209 19.3547 22.5965 19.4704C22.7476 19.6247 22.4453 19.7791 22.143 19.6633C21.9919 19.7405 21.8408 19.6633 21.7274 19.5862C21.5762 19.6247 21.4629 19.6633 21.2362 19.5476C21.1228 19.5476 20.9339 19.5476 20.8583 19.4704C20.7449 19.3933 20.6316 19.2775 20.6316 19.2004C20.4804 18.9303 20.556 18.6988 20.5938 18.5059C20.6316 18.1201 20.7827 17.9272 20.7827 17.8501Z" fill="#1C2B59"/>
<path fill-rule="evenodd" clip-rule="evenodd" d="M20.6316 18.5443C20.6316 18.0042 20.6694 17.7341 20.9717 17.4641C21.0094 17.4255 21.0094 17.2712 21.0472 17.2326C21.3495 16.9239 21.9919 17.0011 22.2186 17.2712C22.1808 17.3869 22.2564 17.4255 22.2564 17.4641C22.4076 17.8113 22.5587 18.1971 22.7854 18.7372C22.5587 18.6986 22.4453 18.8529 22.4076 19.0458C22.4831 19.123 22.1808 19.3159 21.9541 19.123C21.8408 19.2387 21.6896 19.2002 21.4629 19.0073C21.3117 19.123 21.2362 19.0458 21.0094 18.9301C20.8205 18.9301 20.6694 18.7372 20.6316 18.5443Z" fill="#2B3E78"/>
<path fill-rule="evenodd" clip-rule="evenodd" d="M31.8543 32.7417C31.8165 32.0087 32.3077 30.234 32.1565 29.4624C32.0432 28.8837 34.2348 28.1507 34.5749 29.501C34.5749 29.501 34.6127 30.6198 34.6127 31.7001C34.6127 33.5133 34.8016 36.8697 35.2928 37.9114C34.6505 38.2972 33.7814 38.22 33.4413 37.95C32.8367 36.0596 31.9676 34.7093 31.8543 32.7417Z" fill="#00CCFF"/>
<path fill-rule="evenodd" clip-rule="evenodd" d="M35.255 37.8726C35.2928 38.6442 35.8974 39.3 36.5398 39.8016C38.3158 40.9976 37.9001 41.6534 36.8043 41.5763C36.1619 41.5377 35.3684 41.3062 34.8394 40.8432C34.4615 40.5346 34.0459 39.9559 33.5169 39.6473C33.4035 39.5701 33.2901 39.8016 33.1768 39.7244C32.6478 39.4544 32.081 39.03 32.421 38.4127C32.6856 37.9883 32.9878 38.0655 33.4791 37.6411L35.255 37.8726Z" fill="#C21B1F"/>
<path fill-rule="evenodd" clip-rule="evenodd" d="M34.9528 36.4067C35.0661 38.0271 36.0108 39.416 36.5776 39.8018C37.4089 40.419 37.8623 40.6119 37.749 41.0749C37.3711 41.5764 35.6329 41.3835 34.8772 40.6505C34.4237 40.2261 34.0081 39.686 33.3657 39.3388C32.9501 39.1073 32.4588 38.9144 32.421 38.5286C32.421 38.5286 32.421 38.49 32.4588 38.49C32.8367 37.8728 33.3279 37.7956 33.2524 37.5641L32.8745 36.5611C33.2524 36.9469 34.5371 36.8311 34.9528 36.4067Z" fill="#E30613"/>
<path fill-rule="evenodd" clip-rule="evenodd" d="M37.749 41.229C37.6356 41.2676 37.4845 41.2676 37.4089 41.3062C37.2955 41.3447 36.9932 41.3833 36.8421 41.3833V41.6534C37.3711 41.8849 38.3536 42.5021 38.6559 42.3092C38.6937 42.2707 38.7314 42.2707 38.7314 42.2321V42.0778H38.6559C38.4669 41.8463 37.9757 41.4605 37.749 41.229Z" fill="#575756"/>
<path fill-rule="evenodd" clip-rule="evenodd" d="M37.7112 40.959C37.5978 41.1519 37.1066 41.3062 36.8043 41.3448C37.3333 41.5763 38.3158 42.3093 38.6559 42.155C38.9959 41.9621 38.0513 41.3062 37.7112 40.959Z" fill="#878787"/>
<path fill-rule="evenodd" clip-rule="evenodd" d="M21.0094 26.9933C20.8583 27.9963 22.0675 28.0349 22.7098 28.5365C23.4656 29.038 23.8435 29.2695 23.919 29.5395C24.2213 30.5426 21.9541 30.1568 21.0472 29.3081C20.6694 28.9608 20.2537 28.4207 19.6869 28.1121C19.6113 28.0735 19.498 28.305 19.4224 28.2664C18.8934 27.9963 18.2888 27.6105 18.6289 26.9547C18.8934 26.5303 19.498 26.6461 19.9892 26.2603L21.0094 26.9933Z" fill="#AD2926"/>
<path fill-rule="evenodd" clip-rule="evenodd" d="M21.7652 26.106C21.6518 26.7232 22.0297 27.3019 22.332 27.7263C22.3698 27.8035 21.8408 27.6491 21.8785 27.6877C21.9919 27.842 22.4831 28.1893 22.6343 28.305C23.6167 28.8451 24.0702 28.9609 23.919 29.5781C23.5412 30.0797 21.9163 29.8482 21.1228 29.1152C20.6694 28.6908 20.1781 28.1893 19.498 27.842C19.0823 27.6106 18.5911 27.4177 18.5533 27.0319C18.5533 27.0319 18.5533 26.9933 18.5911 26.9933C18.8556 26.5689 19.1579 26.4146 19.7625 26.2217C20.027 26.1445 21.085 26.106 21.7652 26.106Z" fill="#E30613"/>
<path fill-rule="evenodd" clip-rule="evenodd" d="M23.9568 29.771C23.8434 29.8096 23.6923 29.8096 23.6167 29.8482C23.5034 29.8867 23.2011 29.9253 23.0499 29.9253V30.1954C23.5789 30.4269 24.5614 31.0441 24.8637 30.8512C24.9015 30.8126 24.9393 30.8126 24.9393 30.7741V30.6197H24.8637C24.6748 30.3883 24.1835 30.0025 23.9568 29.771Z" fill="#575756"/>
<path fill-rule="evenodd" clip-rule="evenodd" d="M23.919 29.501C23.8057 29.6939 23.3144 29.8482 23.0121 29.8868C23.5412 30.1183 24.5236 30.8513 24.8637 30.6969C25.2038 30.5426 24.2591 29.8482 23.919 29.501Z" fill="#878787"/>
<path fill-rule="evenodd" clip-rule="evenodd" d="M34.3482 36.7154C34.6505 38.3357 35.1417 39.7632 36.2753 40.3419C36.6532 40.5348 36.9555 40.419 37.1066 40.1876C36.9555 40.0718 36.7665 39.9561 36.5776 39.8018C36.0486 39.416 35.1039 38.0271 34.9528 36.4067C34.8394 36.5225 34.6127 36.6382 34.3482 36.7154Z" fill="#C21B1F"/>
<path fill-rule="evenodd" clip-rule="evenodd" d="M34.9905 36.7924C34.6127 37.0238 34.0459 37.1781 33.4413 37.0238C33.4413 37.2939 33.4791 37.7183 33.8569 37.8726C34.4993 37.9497 34.915 37.834 35.2173 37.6411C35.3306 37.5639 35.1039 36.7538 34.9905 36.7924Z" fill="#C21B1F"/>
<path fill-rule="evenodd" clip-rule="evenodd" d="M21.3117 27.5722C21.3873 27.958 21.803 28.4981 22.6343 28.8453C23.0121 28.9997 23.2766 28.9611 23.4278 28.7296C23.0499 28.4981 22.1053 28.0352 21.8785 27.688C21.8407 27.6494 22.3698 27.7651 22.332 27.7265C22.2564 27.6108 22.332 27.7651 22.2564 27.6108C21.7274 27.6494 21.3117 27.4951 21.3117 27.5722Z" fill="#C21B1F"/>
<path fill-rule="evenodd" clip-rule="evenodd" d="M36.7665 36.4068C37.3333 36.4454 37.749 36.6769 37.749 36.9469C37.749 37.217 37.2578 37.3713 36.7287 37.3327C36.1619 37.2941 35.7463 37.0626 35.7463 36.7926C35.7463 36.5611 36.1997 36.3682 36.7665 36.4068Z" fill="#4C4C4C"/>
<path fill-rule="evenodd" clip-rule="evenodd" d="M37.031 36.5999L47.309 14.3779C47.4602 14.648 47.2712 14.6866 47.5735 14.648L37.3333 36.8699C37.1444 37.2171 36.8421 36.9857 37.031 36.5999Z" fill="#FFCC00"/>
<path fill-rule="evenodd" clip-rule="evenodd" d="M45.5708 17.9272L47.1957 14.4551C47.3846 14.0693 48.1026 14.4936 47.8758 14.7637C47.6869 14.9952 47.4602 15.1495 47.309 15.4581L46.0243 18.1587C45.9487 18.313 45.7976 18.3516 45.6842 18.2745C45.5708 18.2359 45.4953 18.0816 45.5708 17.9272Z" fill="#333333"/>
<path fill-rule="evenodd" clip-rule="evenodd" d="M46.2888 15.5737C46.4777 15.5737 47.0068 15.6123 47.1957 15.6509C47.4602 15.6895 47.5736 15.8052 47.8381 15.8438C47.7625 16.0367 47.6113 16.1524 47.1579 15.9981C46.4399 15.9209 46.1754 16.4225 45.7598 15.9981C45.5708 15.8052 45.5708 15.6123 46.2888 15.5737Z" fill="#2B3E78"/>
<path fill-rule="evenodd" clip-rule="evenodd" d="M47.9514 16.2681L47.1957 15.998C46.9689 15.9209 46.8934 16.1909 47.1201 16.3067L47.838 16.6153C48.0648 16.731 48.1781 16.3452 47.9514 16.2681Z" fill="#2B3E78"/>
<path fill-rule="evenodd" clip-rule="evenodd" d="M47.6491 16.4996L46.8178 16.1909C46.5533 16.1138 46.4777 16.4224 46.7044 16.5382L47.498 16.8854C47.7625 17.0011 47.8758 16.6153 47.6491 16.4996Z" fill="#2B3E78"/>
<path fill-rule="evenodd" clip-rule="evenodd" d="M47.1957 16.8082L46.5155 16.5381C46.2888 16.461 46.2132 16.731 46.4399 16.8082L47.1201 17.1168C47.2712 17.2326 47.4224 16.8853 47.1957 16.8082Z" fill="#2B3E78"/>
<path fill-rule="evenodd" clip-rule="evenodd" d="M46.7045 17.1168L46.2132 16.731C46.0621 16.6153 45.9487 16.8082 46.0621 16.9239L46.5155 17.3483C46.6667 17.5026 46.8556 17.2325 46.7045 17.1168Z" fill="#2B3E78"/>
<path fill-rule="evenodd" clip-rule="evenodd" d="M32.1188 8.43652C31.9676 8.78374 31.7787 9.13096 31.4764 9.4396C33.3657 11.793 34.9905 11.6772 34.2726 9.51676C33.4413 9.82539 32.5344 9.28528 32.1188 8.43652Z" fill="#E30613"/>
<path fill-rule="evenodd" clip-rule="evenodd" d="M36.0108 6.8931C35.973 7.086 35.7085 7.086 35.8219 7.97334C35.8974 8.51345 35.8219 8.51345 35.4062 9.32363C35.1795 9.78659 34.6505 10.7511 33.3657 9.51653C33.3657 9.51653 32.1943 7.97334 32.0432 6.93168C31.892 5.85145 32.1565 4.92554 33.139 4.34684C32.9878 4.30826 36.2753 3.88388 36.0108 6.8931Z" fill="#F2B387"/>
<path fill-rule="evenodd" clip-rule="evenodd" d="M35.7841 6.04451C35.6707 6.31457 35.8219 6.19883 35.6329 6.27599C35.1039 6.12167 34.9528 5.96735 34.197 6.08309C33.668 6.16025 34.1214 6.66178 33.8192 6.93184C33.7058 7.009 33.2524 7.35622 33.2524 7.5877L32.9501 7.47196C32.6856 6.73894 32.4588 7.47196 32.1565 8.35929C32.1565 8.35929 31.9298 7.66486 31.8165 6.85468C31.7031 6.12167 31.6653 5.35007 32.081 4.80995C32.6478 4.07694 33.5169 3.49824 35.2551 4.65564C35.5573 4.84853 36.0864 5.35007 35.7841 6.04451Z" fill="#704321"/>
<path fill-rule="evenodd" clip-rule="evenodd" d="M32.6478 6.85449C32.3077 6.85449 32.2321 7.12455 32.1943 7.47177C32.1565 7.81899 32.3455 8.39768 32.5722 8.24336C32.8367 8.08904 32.7233 8.01189 32.8745 7.74183C32.9501 7.58751 32.9501 7.43319 32.9878 7.31745C33.0256 7.12455 32.9878 6.85449 32.6478 6.85449Z" fill="#F1B287"/>
<path fill-rule="evenodd" clip-rule="evenodd" d="M31.7787 5.38868C33.4035 6.19886 35.4062 6.23744 35.8219 5.31152C35.973 5.69732 36.0864 6.23744 36.0108 6.70039C35.3306 7.27909 34.3104 7.66489 31.7787 6.81613C31.7031 6.43034 31.5897 5.81306 31.7787 5.38868Z" fill="#00CCFF"/>
<path d="M33.2901 13.7217C33.3279 13.7603 33.3657 13.7989 33.3657 13.8761C33.4035 14.0304 33.3657 14.1847 33.2901 14.4548C33.2901 14.4933 33.2524 14.5319 33.2524 14.5319V13.7217H33.2901ZM33.2901 16.4609C33.4035 16.4223 33.4791 16.3837 33.5924 16.3452C33.7436 15.8436 33.8947 15.3421 34.0459 14.8405C34.197 14.339 34.3482 13.8375 34.4993 13.3359C34.386 13.3745 34.3104 13.4131 34.197 13.4517C34.1215 13.5674 34.0459 13.6832 33.9703 13.7603C33.8947 13.8375 33.7814 13.9146 33.7058 13.9532C33.668 14.069 33.6302 14.1847 33.5924 14.3004C33.668 14.3004 33.7058 14.2619 33.7814 14.2233C33.8569 14.1847 33.8947 14.1461 33.9325 14.069C33.8192 14.4548 33.7058 14.8791 33.5924 15.2649L33.3279 16.1137V16.4609H33.2901ZM31.7409 16.8081C31.7409 16.731 31.7787 16.6924 31.7787 16.6152C31.8165 16.4609 31.892 16.3066 31.9676 16.1523C32.0432 15.9979 32.1565 15.805 32.3077 15.6121C32.3077 15.6121 32.3833 15.535 32.4588 15.3807C32.5722 15.2263 32.6478 15.1492 32.6856 15.072C32.7989 14.9177 32.9123 14.7248 32.9879 14.4548C33.0634 14.1847 33.0634 14.069 32.9879 14.1075C32.9123 14.1075 32.8367 14.1847 32.7989 14.339C32.7611 14.4162 32.7611 14.4933 32.7233 14.5705C32.6856 14.6862 32.6478 14.8405 32.61 14.9563C32.4966 14.9563 32.3833 14.9949 32.2699 14.9949C32.2699 14.9177 32.3077 14.8791 32.3077 14.802C32.4211 14.4162 32.5344 14.1847 32.61 14.0304C32.6856 13.8761 32.7989 13.7989 32.9123 13.7603C32.9879 13.7217 33.0256 13.7217 33.1012 13.7217C33.1768 13.7217 33.2524 13.7217 33.2901 13.7603V14.5705C33.2146 14.7634 33.139 14.9563 33.0256 15.1492C32.9123 15.3421 32.7611 15.535 32.6478 15.6893C32.4211 15.9594 32.2699 16.2294 32.1565 16.4609C32.3455 16.4223 32.5344 16.3837 32.7233 16.3452C32.6856 16.4609 32.6478 16.5766 32.61 16.6924C32.3077 16.731 32.0054 16.7695 31.7409 16.8081ZM33.2901 16.1137L33.1768 16.4609C33.2146 16.4609 33.2524 16.4223 33.2901 16.4223V16.1137Z" fill="white"/>
</g>
<defs>
<clipPath id="clip0">
<rect width="56" height="48.5333" fill="white" transform="translate(0 4)"/>
</clipPath>
</defs>
</svg>
