<svg width="56" height="56" viewBox="0 0 56 56" fill="none" xmlns="http://www.w3.org/2000/svg">
<g clip-path="url(#clip0)">
<path d="M23.8479 40.7534C21.8525 42.9373 20.2096 45.5771 18.5268 47.7353C16.9505 48.9043 16.5314 49.0199 16.5314 49.4888C16.5314 49.9577 19.897 52.9572 20.8614 53.3426C21.8259 53.728 21.46 53.0793 21.46 53.0793C21.46 53.0793 19.6908 50.266 20.4424 49.0392C21.194 47.8124 26.7744 43.4061 26.7744 43.4061L23.8479 40.7534Z" fill="#D3A197"/>
<path d="M33.3721 42.4422C33.0395 44.6774 33.8111 49.7516 34.5826 52.809L34.1636 54.1386C34.1636 54.1386 39.4846 55.6159 39.4846 54.8194C39.4846 54.023 36.5514 53.7853 36.5514 52.3465C36.5514 50.9078 36.8707 41.1704 36.8707 41.1704L33.3721 42.4422Z" fill="#E5C3B7"/>
<path d="M26.7073 27.2324C26.7073 27.8747 25.796 35.9485 25.4701 37.2267L21.5858 43.3672L24.1864 45.8465C24.1864 45.8465 29.1217 41.4467 29.86 39.3078C30.9641 36.0963 32.9129 28.1445 32.9129 28.1445L26.7073 27.2324Z" fill="#C2C2C2"/>
<path d="M27.3662 21.709C26.9937 22.6082 25.1779 24.6572 25.1646 26.8153C25.138 31.2729 30.8382 35.692 32.8336 39.8862C32.8336 39.8862 32.3946 45.789 33.5519 48.3904C34.6157 48.8207 35.8138 48.8207 36.8775 48.3904C36.8775 48.3904 37.5427 40.535 37.5427 39.4559C37.5427 38.3768 33.6184 28.8386 33.2459 27.7595C32.8735 26.6804 34.0175 23.5074 34.0175 23.5074L27.3662 21.709Z" fill="white"/>
<path d="M35.6065 8.1498C34.696 8.71568 34.1277 9.67423 34.0834 10.719C34.263 12.0036 34.8816 13.4039 34.7086 13.4553C34.5357 13.5066 32.3674 12.646 31.9417 11.4898C31.516 10.3336 31.363 9.69776 30.7112 9.43441C31.25 8.99764 32.2876 6.67249 32.1878 5.0603C32.088 3.4481 35.6065 8.1498 35.6065 8.1498Z" fill="#E5C3B7"/>
<g style="mix-blend-mode:multiply">
<path d="M35.0742 8.62547L31.3162 10.9827L30.4249 9.90366C30.9723 9.24197 31.4202 8.50892 31.7552 7.72624C31.9484 7.12666 32.0733 6.50853 32.1277 5.88281L33.152 6.15258L35.0742 8.62547Z" fill="url(#paint0_linear)"/>
</g>
<path d="M31.855 3.0821C32.4004 0.615638 34.2894 -0.129439 36.318 0.255945C38.3467 0.64133 39.1249 2.44622 38.5795 4.91268C38.4742 5.35978 38.3319 5.79797 38.1538 6.22299C38.1631 6.50714 38.192 6.79038 38.2402 7.07083C38.207 7.26995 37.9077 7.30206 37.5751 7.27637C36.8501 8.38114 35.8125 8.99133 34.5421 8.72799C32.56 8.33618 31.3162 5.54214 31.855 3.0821Z" fill="#E5C3B7"/>
<path d="M34.542 8.74719C34.8253 8.79439 35.1125 8.8159 35.4 8.81142C33.5243 7.69381 35.1206 2.18926 35.7525 1.37995C35.4598 1.20653 36.6504 0.326575 36.2713 0.249498C34.2427 -0.168 32.3537 0.609189 31.8083 3.07564C31.2629 5.54209 32.5133 8.33611 34.542 8.74719Z" fill="#D3A197"/>
<path d="M36.4044 3.16565L38.739 2.74815C39.0449 2.28569 38.433 0.333083 35.3069 0.0311991C32.4469 -0.244992 31.5024 1.36077 31.0833 2.94084C30.6643 4.52092 31.8881 7.09014 31.8881 7.09014C31.8881 7.09014 34.3225 6.11383 33.99 5.52291C33.7838 5.16322 33.5909 3.91072 34.1695 3.94284C34.3743 3.99329 34.5465 4.12678 34.6418 4.30895L36.4044 3.16565Z" fill="#643B59"/>
<path d="M39.0382 2.21429C39.3651 2.37206 39.5995 2.66535 39.6746 3.01069C39.7497 3.35603 39.6575 3.7156 39.424 3.98709C38.2029 3.69604 36.9994 3.34008 35.819 2.92084L36.9697 2.13721L39.0382 2.21429Z" fill="#643B59"/>
<path d="M32.4668 2.41787C32.4711 1.53457 31.7956 0.815429 30.9581 0.811618C30.1206 0.807806 29.4381 1.52077 29.4338 2.40407C29.4295 3.28736 30.105 4.00651 30.9425 4.01032C31.78 4.01413 32.4625 3.30117 32.4668 2.41787Z" fill="#643B59"/>
<path d="M32.7788 11.5543C33.9294 12.9609 34.7209 12.8389 34.7209 12.8389C35.0801 14.0721 36.0512 15.3696 36.1776 15.9862C36.3173 16.8597 35.3728 18.003 35.0202 18.382C34.6677 18.7609 34.3551 20.4566 34.2753 21.0154C34.1955 21.5742 33.6102 27.3935 33.6102 27.3935C33.6102 27.3935 28.1761 26.9824 25.8947 25.306C25.5289 25.0362 28.6217 21.5549 28.4155 15.7485C28.3357 13.494 28.6017 12.1388 31.0228 9.96777C31.7158 10.3732 32.3138 10.9135 32.7788 11.5543Z" fill="#347CFF"/>
<path d="M27.8649 14.7975C27.7186 22.2803 25.0647 24.8496 25.4438 25.1065C26.5468 25.9069 27.8338 26.4379 29.1951 26.6545C29.1951 26.6545 31.6096 17.0841 31.5563 16.7565C31.5031 16.4289 30.8912 13.8661 31.0642 12.8192C31.1604 12.0439 31.4912 11.3134 32.0153 10.7188C31.6373 10.2167 31.1897 9.76721 30.685 9.38281C28.091 10.995 27.9048 12.543 27.8649 14.7975Z" fill="#005AFF"/>
<path d="M38.5934 53.8047C38.4651 53.4189 38.236 53.0716 37.9283 52.7963C37.5425 52.655 37.303 52.7963 37.3429 53.1817C37.4986 53.6209 37.7229 54.0347 38.0081 54.4085L38.5934 53.8047Z" fill="#2C4D75"/>
<path d="M34.1624 53.5288C33.9894 54.1711 33.7234 54.8134 34.1092 55.4557C34.7743 55.8668 40.4146 55.5392 40.4146 55.5392C40.5674 55.5237 40.7045 55.4419 40.7873 55.3169C40.8702 55.192 40.8896 55.0374 40.8403 54.8969C40.7338 54.4923 39.51 54.4024 38.4857 53.683C37.8206 54.3253 37.5013 53.4132 36.9692 53.7343C35.6656 54.5372 34.1624 53.5288 34.1624 53.5288Z" fill="#347CFF"/>
<path d="M35.7524 55.1988C35.1728 55.1516 34.5892 55.1775 34.0164 55.2759C33.9658 55.4811 34.0175 55.6974 34.1561 55.8604C34.3224 55.8604 38.812 56.1752 40.3751 55.8604C40.6755 55.74 40.8757 55.4614 40.8872 55.1475C40.8397 55.3388 40.6584 55.4707 40.4549 55.4622C37.954 55.8412 37.0029 55.2567 35.7524 55.1988Z" fill="#232121"/>
<path d="M20.7544 51.2353C20.9221 50.8614 20.9863 50.452 20.9407 50.047C20.7478 49.6937 20.4551 49.668 20.2356 49.9699C20.059 50.4076 19.9535 50.8691 19.923 51.338L20.7544 51.2353Z" fill="#347CFF"/>
<path d="M17.6084 48.2358C17.0298 48.6276 16.4112 48.9231 16.2782 49.6746C16.5176 50.4197 20.9873 53.7275 20.9873 53.7275C21.1152 53.8175 21.2794 53.8445 21.4309 53.8003C21.5824 53.7562 21.7038 53.646 21.7588 53.5027C21.9584 53.1302 21.0937 52.2824 20.801 51.0941C19.8366 51.1583 20.2224 50.1692 19.5972 50.0728C18.6323 49.8649 17.8664 49.1574 17.6084 48.2358Z" fill="#347CFF"/>
<path d="M17.6543 50.4907C17.2485 50.09 16.7901 49.7423 16.2908 49.4565C16.1136 49.5785 16.0054 49.7732 15.9982 49.9832C16.1046 50.1053 19.3238 53.1948 20.7139 53.9013C21.0236 53.9998 21.3643 53.9144 21.5853 53.6829C21.4207 53.7976 21.1952 53.7841 21.0465 53.6508C18.8649 52.3662 18.5656 51.3257 17.6543 50.4907Z" fill="#232121"/>
<g style="mix-blend-mode:multiply">
<path d="M33.3844 24.2723L26.4205 30.933C26.4205 30.933 24.3121 27.0792 25.6357 24.9917L25.4694 24.8504L26.5403 22.5766L27.1588 20.502L30.1719 23.6364L32.1672 23.2767L32.7459 23.0776L33.4975 23.4566L33.3844 24.2723Z" fill="url(#paint1_linear)"/>
</g>
<path d="M29.4337 10.7188C28.6955 11.5088 24.8909 16.4995 24.6847 18.5356C24.9109 19.6211 29.8129 24.0273 30.4514 24.3164C30.9629 24.573 31.5644 24.6034 32.1009 24.3999C32.2175 24.3487 32.3456 24.3266 32.4734 24.3356C32.6825 24.4337 32.9075 24.4967 33.1385 24.5219C33.0373 24.3157 32.8626 24.1516 32.6463 24.0595C32.4865 24.0027 32.3218 23.9597 32.1541 23.931C32.5982 23.9091 33.0361 24.0387 33.3913 24.2971C33.3913 24.2971 33.7105 24.1494 32.9523 23.7255C32.7115 23.6017 32.4395 23.5461 32.1674 23.5649C32.4266 23.4969 32.7016 23.5104 32.9523 23.6034C33.1519 23.7486 33.3773 23.8575 33.6174 23.9246C33.4723 23.6469 33.2185 23.4366 32.9124 23.3401C32.7154 23.2413 32.5049 23.17 32.2872 23.1281C32.5114 23.1548 32.7336 23.1955 32.9523 23.2501C33.1102 23.3736 33.3022 23.4495 33.5043 23.4685C33.4427 23.2554 33.2718 23.088 33.0521 23.0253C32.8017 22.9081 32.5311 22.8363 32.2539 22.8134C31.8048 22.8624 31.3601 22.944 30.9236 23.0575C29.6661 21.6318 28.5042 20.13 27.445 18.5613C27.0858 17.964 31.2496 13.8147 31.3826 13.3072C31.5156 12.7998 29.4337 10.7188 29.4337 10.7188Z" fill="#E5C3B7"/>
<path d="M31.0693 10.7193C30.4819 10.3661 29.7469 10.3321 29.1272 10.6294C28.0962 11.034 26.6196 13.9244 26.6196 13.9244L29.6327 16.256C29.6327 16.256 31.8276 13.9629 31.9606 13.1279C32.2666 11.2331 31.0693 10.7193 31.0693 10.7193Z" fill="#347CFF"/>
<path d="M29.1209 10.6163C28.0899 11.0209 26.6134 13.9113 26.6134 13.9113L27.9436 14.9197C28.489 13.6351 29.5133 11.7467 31.2693 10.8218C30.5975 10.0768 29.7661 10.3594 29.1209 10.6163Z" fill="#005AFF"/>
</g>
<defs>
<linearGradient id="paint0_linear" x1="32.5325" y1="12.3675" x2="36.9381" y2="8.73351" gradientUnits="userSpaceOnUse">
<stop stop-color="white"/>
<stop offset="0.13" stop-color="#FBFAFA"/>
<stop offset="0.29" stop-color="#EEEBEA"/>
<stop offset="0.47" stop-color="#D9D2D0"/>
<stop offset="0.66" stop-color="#BCB0AC"/>
<stop offset="0.71" stop-color="#B3A6A1"/>
</linearGradient>
<linearGradient id="paint1_linear" x1="29.8988" y1="31.1212" x2="34.1846" y2="25.1516" gradientUnits="userSpaceOnUse">
<stop stop-color="white"/>
<stop offset="0.13" stop-color="#FBFAFA"/>
<stop offset="0.29" stop-color="#EEEBEA"/>
<stop offset="0.47" stop-color="#D9D2D0"/>
<stop offset="0.66" stop-color="#BCB0AC"/>
<stop offset="0.71" stop-color="#B3A6A1"/>
</linearGradient>
<clipPath id="clip0">
<rect width="56" height="56" fill="white"/>
</clipPath>
</defs>
</svg>
