<svg width="56" height="56" viewBox="0 0 56 56" fill="none" xmlns="http://www.w3.org/2000/svg">
<g clip-path="url(#clip0)">
<path fill-rule="evenodd" clip-rule="evenodd" d="M25.65 6.09275C26.0758 6.64469 26.0758 7.62118 25.2881 7.38767C24.4791 7.15416 24.3726 5.45591 22.563 4.9252C20.7747 4.41572 24.9049 4.7766 25.65 6.09275Z" fill="#D4556C"/>
<path fill-rule="evenodd" clip-rule="evenodd" d="M24.3505 50.0139C25.2873 50.9267 26.1389 51.5211 26.5221 52.2216C26.735 52.625 26.9692 52.9858 26.5434 53.1344C24.7125 53.7288 23.9886 52.9222 23.2861 52.8585C22.0725 52.7523 21.9235 52.1155 22.0725 50.4597C22.2641 48.8039 23.5841 49.1435 24.3505 50.0139Z" fill="#FCDABE"/>
<path fill-rule="evenodd" clip-rule="evenodd" d="M10.0015 11.7181C12.1092 12.5036 12.024 7.13283 11.5556 4.37316C11.066 1.61349 13.8975 -0.0210801 15.92 1.27384C17.9 2.54753 16.7078 9.76512 15.4942 12.355C14.302 14.9448 9.23502 13.3951 10.0015 11.7181Z" fill="#A2400F"/>
<path fill-rule="evenodd" clip-rule="evenodd" d="M23.2015 40.2065L24.3512 50.0776L22.0732 50.4597L20.5616 40.6735C20.1358 38.6144 22.9035 38.1474 23.2015 40.2065Z" fill="#FCDABE"/>
<path fill-rule="evenodd" clip-rule="evenodd" d="M18.0492 29.8257H22.1582L24.8194 50.1198C24.0955 50.0137 22.7543 50.0349 21.8601 50.5019L19.3905 32.7339C19.1563 31.5239 17.2828 33.0948 18.0492 29.8257Z" fill="#FCBA56"/>
<path fill-rule="evenodd" clip-rule="evenodd" d="M17.4956 17.6407L15.3241 14.5202C14.5576 13.4163 15.3028 11.8454 16.2182 12.1639L17.3466 13.9683C18.7091 16.0911 19.6246 18.7021 17.4956 17.6407Z" fill="#3B88BF"/>
<path fill-rule="evenodd" clip-rule="evenodd" d="M30.2904 10.5078L29.2898 16.4942C29.2898 18.15 31.4614 18.6382 31.653 16.6428L32.3768 10.7201L30.2904 10.5078Z" fill="#FCDABE"/>
<path fill-rule="evenodd" clip-rule="evenodd" d="M23.1796 14.4987L29.5666 15.3903C29.6092 16.7489 29.8008 17.5344 30.7375 17.8953L22.5622 17.7467C20.05 17.7254 20.8165 14.1803 23.1796 14.4987Z" fill="#3B88BF"/>
<path fill-rule="evenodd" clip-rule="evenodd" d="M22.9889 14.4565L22.2863 29.8258H16.7935L16.4742 15.1358L22.9889 14.4565Z" fill="#3B88BF"/>
<path fill-rule="evenodd" clip-rule="evenodd" d="M24.9257 50.5871C25.7986 51.2451 26.1392 51.5211 26.6501 52.0943C26.9482 52.4339 26.9695 52.9646 26.5437 53.1132C24.9257 53.7288 24.0102 52.9009 23.3076 52.8585C22.0941 52.7523 21.9238 52.0943 22.0728 50.4385C22.4135 51.5636 23.4993 51.606 23.776 51.1815C23.7973 50.8843 24.4999 50.2687 24.9257 50.5871Z" fill="#FA849A"/>
<path fill-rule="evenodd" clip-rule="evenodd" d="M26.863 52.8372C26.8204 52.9646 26.7353 53.0919 26.565 53.1344C24.9469 53.75 24.0315 52.9221 23.3289 52.8797C22.6263 52.816 22.2644 52.5825 22.1367 52.0518C23.1586 52.9433 23.0947 52.4126 24.0315 52.7735C24.9682 53.1556 25.9901 53.2193 26.863 52.8372Z" fill="#D4556C"/>
<path d="M24.1164 51.7118C24.0951 51.3721 24.7764 50.7141 25.1171 50.6504" stroke="#D4556C" stroke-width="0.5669" stroke-miterlimit="22.9256" stroke-linecap="round" stroke-linejoin="round"/>
<path d="M24.5425 51.9454C24.5213 51.6058 25.0748 51.16 25.458 50.9053" stroke="#D4556C" stroke-width="0.5669" stroke-miterlimit="22.9256" stroke-linecap="round" stroke-linejoin="round"/>
<path d="M24.9464 52.2214C24.9251 51.8817 25.4786 51.4784 25.8618 51.2236" stroke="#D4556C" stroke-width="0.5669" stroke-miterlimit="22.9256" stroke-linecap="round" stroke-linejoin="round"/>
<path d="M26.3524 51.6909C26.0118 51.4999 25.2666 51.6697 24.4576 51.9032" stroke="#D4556C" stroke-width="0.5669" stroke-miterlimit="22.9256" stroke-linecap="round" stroke-linejoin="round"/>
<path d="M25.9261 51.3089C25.5855 51.1179 24.8616 51.2664 24.0526 51.5212" stroke="#D4556C" stroke-width="0.5669" stroke-miterlimit="22.9256" stroke-linecap="round" stroke-linejoin="round"/>
<path d="M25.5222 50.9691C25.1815 50.778 24.7344 50.8841 23.819 51.245" stroke="#D4556C" stroke-width="0.5669" stroke-miterlimit="22.9256" stroke-linecap="round" stroke-linejoin="round"/>
<path fill-rule="evenodd" clip-rule="evenodd" d="M25.4363 53.0921C25.2021 52.6038 23.9247 51.4575 22.6048 51.7122C23.5841 51.7122 24.3931 52.434 24.8189 53.0284C25.0318 53.0496 25.2234 53.0921 25.4363 53.0921Z" fill="white"/>
<path fill-rule="evenodd" clip-rule="evenodd" d="M15.7284 40.2065L14.5787 50.0776L16.8567 50.4597L18.6238 40.5886C19.0283 38.5507 16.0264 38.1474 15.7284 40.2065Z" fill="#FCDABE"/>
<path fill-rule="evenodd" clip-rule="evenodd" d="M14.5791 50.0139C13.6423 50.9267 12.7907 51.5211 12.4075 52.2216C12.1946 52.625 11.9604 52.9858 12.3862 53.1344C14.2172 53.7288 14.941 52.9222 15.6436 52.8585C16.8571 52.7523 17.0061 52.1155 16.8571 50.4597C16.6868 48.8039 15.3455 49.1435 14.5791 50.0139Z" fill="#FCDABE"/>
<path fill-rule="evenodd" clip-rule="evenodd" d="M20.8808 29.8257H16.7719L14.1745 50.0562C14.8984 50.0774 15.9841 50.1411 17.1977 50.6081L19.9228 32.9462C20.1782 31.7362 21.6472 33.0948 20.8808 29.8257Z" fill="#FCBA56"/>
<path fill-rule="evenodd" clip-rule="evenodd" d="M14.0041 50.5871C13.1312 51.2451 12.7906 51.5211 12.2796 52.0943C11.9815 52.4339 11.9602 52.9646 12.386 53.1132C14.0041 53.7288 14.9195 52.9009 15.6221 52.8585C16.8356 52.7523 17.0059 52.0943 16.8569 50.4385C16.5163 51.5636 15.4305 51.606 15.1537 51.1815C15.1324 50.8843 14.4299 50.2687 14.0041 50.5871Z" fill="#FA849A"/>
<path fill-rule="evenodd" clip-rule="evenodd" d="M12.0873 52.8372C12.1299 52.9646 12.2151 53.0919 12.3854 53.1344C14.0034 53.75 14.9189 52.9221 15.6214 52.8797C16.324 52.816 16.6859 52.5825 16.8137 52.0518C15.7918 52.9433 15.8556 52.4126 14.9189 52.7735C13.9608 53.1556 12.9602 53.2193 12.0873 52.8372Z" fill="#D4556C"/>
<path d="M14.8134 51.7118C14.8347 51.3721 14.1534 50.7141 13.8127 50.6504" stroke="#D4556C" stroke-width="0.5669" stroke-miterlimit="22.9256" stroke-linecap="round" stroke-linejoin="round"/>
<path d="M14.387 51.9454C14.4083 51.6058 13.8548 51.16 13.4716 50.9053" stroke="#D4556C" stroke-width="0.5669" stroke-miterlimit="22.9256" stroke-linecap="round" stroke-linejoin="round"/>
<path d="M13.9832 52.2214C14.0045 51.8817 13.451 51.4784 13.0678 51.2236" stroke="#D4556C" stroke-width="0.5669" stroke-miterlimit="22.9256" stroke-linecap="round" stroke-linejoin="round"/>
<path d="M12.577 51.6909C12.9176 51.4999 13.6628 51.6697 14.4718 51.9032" stroke="#D4556C" stroke-width="0.5669" stroke-miterlimit="22.9256" stroke-linecap="round" stroke-linejoin="round"/>
<path d="M13.0035 51.3089C13.3441 51.1179 14.068 51.2664 14.877 51.5212" stroke="#D4556C" stroke-width="0.5669" stroke-miterlimit="22.9256" stroke-linecap="round" stroke-linejoin="round"/>
<path d="M13.4073 50.9691C13.7479 50.778 14.195 50.8841 15.1105 51.245" stroke="#D4556C" stroke-width="0.5669" stroke-miterlimit="22.9256" stroke-linecap="round" stroke-linejoin="round"/>
<path fill-rule="evenodd" clip-rule="evenodd" d="M13.4932 53.0921C13.7274 52.6038 15.0047 51.4575 16.3247 51.7122C15.3454 51.7122 14.5364 52.434 14.1106 53.0284C13.8977 53.0496 13.7061 53.0921 13.4932 53.0921Z" fill="white"/>
<path fill-rule="evenodd" clip-rule="evenodd" d="M20.9228 10.4655V14.6474C20.9228 17.2797 17.6867 17.216 17.6867 14.6474V10.4655C17.6867 8.32141 20.9228 8.32141 20.9228 10.4655Z" fill="#EDC3A1"/>
<path fill-rule="evenodd" clip-rule="evenodd" d="M20.9228 10.3382V12.9917C20.7312 13.5012 20.4331 13.6923 20.0286 13.6923C19.6028 13.6923 18.3041 13.4588 17.6867 12.9917V10.3382C17.6867 8.21539 20.9228 8.21539 20.9228 10.3382Z" fill="#EDC3A1"/>
<path fill-rule="evenodd" clip-rule="evenodd" d="M20.4332 12.8434C19.1133 12.8434 15.8133 11.2088 14.9617 8.25807C14.0889 5.30735 15.1321 0.955566 19.3049 0.955566C23.4777 0.955566 25.0957 5.22243 24.2441 8.17315C23.3712 11.1239 21.7319 12.8434 20.4332 12.8434Z" fill="#FCDABE"/>
<path fill-rule="evenodd" clip-rule="evenodd" d="M18.7943 7.9181C18.9433 7.9181 19.0711 7.57845 19.0711 7.17512C19.0711 6.75055 18.9433 6.43213 18.7943 6.43213C18.6453 6.43213 18.5175 6.77178 18.5175 7.17512C18.5175 7.57845 18.6453 7.9181 18.7943 7.9181Z" fill="#4D4D4D"/>
<path fill-rule="evenodd" clip-rule="evenodd" d="M19.0283 10.2108C19.6883 9.57393 20.2205 10.041 20.6038 10.041C20.987 10.041 21.5192 9.5527 22.1792 10.2108C21.8386 11.909 19.518 11.9727 19.0283 10.2108Z" fill="#F0738A"/>
<path fill-rule="evenodd" clip-rule="evenodd" d="M19.0283 10.2108C19.6883 9.57393 20.2205 10.041 20.6038 10.041C20.987 10.041 21.5192 9.5527 22.1792 10.2108C21.1786 10.7203 19.7309 10.4867 19.0283 10.2108Z" fill="#FA849A"/>
<path fill-rule="evenodd" clip-rule="evenodd" d="M24.6272 8.13052C26.2239 1.35873 21.4337 0.212402 18.6447 0.212402C15.5151 0.212402 13.1519 3.92734 13.6842 8.25789C15.3661 7.26017 16.8351 5.26472 20.4969 2.0168C19.9647 2.97207 18.9215 4.69155 15.3874 7.83333C17.2822 8.15175 20.8163 5.75296 22.7111 3.26926C23.1582 5.05243 23.7969 6.9842 24.6272 8.13052Z" fill="#A2400F"/>
<path fill-rule="evenodd" clip-rule="evenodd" d="M22.2218 7.9181C22.3708 7.9181 22.4986 7.57845 22.4986 7.17512C22.4986 6.75055 22.3708 6.43213 22.2218 6.43213C22.0728 6.43213 21.945 6.77178 21.945 7.17512C21.945 7.57845 22.0728 7.9181 22.2218 7.9181Z" fill="#4D4D4D"/>
<path opacity="0.5" fill-rule="evenodd" clip-rule="evenodd" d="M17.7081 5.96527C19.1132 5.92281 21.9661 5.90158 23.2009 5.94404C24.4357 5.96527 24.5209 8.64002 22.6474 8.7037C20.7739 8.76739 21.4338 6.96299 20.6248 6.92054C19.8158 6.85685 20.7313 8.78862 18.4746 8.76739C17.1759 8.74616 16.6862 7.59984 16.8565 6.79317L14.5572 7.09036V6.43229L17.3675 6.05018C17.4739 6.00773 17.5804 5.96527 17.7081 5.96527Z" fill="#FCBA56"/>
<path fill-rule="evenodd" clip-rule="evenodd" d="M14.5151 6.28358C14.9622 6.17744 15.4732 6.72937 15.6222 7.51482C15.7925 8.27903 15.5583 9.00079 15.1113 9.0857C14.6642 9.19184 14.1532 8.63991 14.0042 7.85447C13.8339 7.09025 14.0681 6.38972 14.5151 6.28358Z" fill="#FCDABE"/>
<path fill-rule="evenodd" clip-rule="evenodd" d="M33.5057 12.1428L32.4199 11.1451C32.1857 10.9328 32.4412 10.6568 32.6541 10.8479L33.7398 11.8456C33.974 12.0791 33.7186 12.3339 33.5057 12.1428Z" fill="#FCDABE"/>
<path fill-rule="evenodd" clip-rule="evenodd" d="M16.1975 11.5058C16.0698 11.9092 16.0698 13.2253 16.3678 13.8834C16.6872 14.5627 17.6239 14.5202 19.7955 13.756C21.9671 12.9918 25.5438 12.1427 27.5663 11.9941C29.6101 11.8667 35.6138 11.6757 36.0609 11.6332C36.508 11.5908 36.657 11.1025 36.657 11.1025L48.1748 10.5718L48.0897 9.31934C48.0897 9.31934 28.6521 10.2109 27.9282 10.3595C27.2044 10.4869 25.9908 10.7629 25.3096 11.1237C24.6283 11.4846 21.009 11.8455 19.5187 11.5695C18.0497 11.2723 16.3678 11.1874 16.1975 11.5058Z" fill="#4D4D4D"/>
<path d="M26.4586 11.7816C26.6502 11.909 26.7992 12.0576 26.9057 12.2274C26.9908 12.3548 27.0334 12.5034 27.0334 12.6307C27.0334 12.7793 26.9908 12.9067 26.8844 13.0128C26.8205 13.0765 26.7141 13.1402 26.5863 13.1827C26.1605 13.31 25.6283 12.9491 25.1599 12.6519C24.9044 12.4821 24.6702 12.3335 24.5212 12.2911C24.4361 12.2698 24.3935 12.2274 24.3509 12.1849C24.287 12.0576 24.3296 11.9726 24.4999 11.909C24.5638 11.8877 24.6702 11.8453 24.798 11.824C25.3089 11.6755 26.1818 11.6118 26.4586 11.7816ZM26.6502 12.376C26.565 12.2486 26.4586 12.1425 26.3096 12.0363C26.0967 11.909 25.3089 11.9726 24.8619 12.0788H24.8406C24.9896 12.1637 25.1386 12.2698 25.3089 12.376C25.7134 12.6519 26.1818 12.9704 26.4799 12.8642C26.565 12.843 26.6076 12.8005 26.6502 12.7793C26.6928 12.7369 26.7141 12.6732 26.7141 12.6095C26.7354 12.5458 26.7141 12.4609 26.6502 12.376Z" fill="#4D4D4D"/>
<path fill-rule="evenodd" clip-rule="evenodd" d="M30.1633 10.5082L36.2309 10.2959C36.465 10.2959 36.6567 10.4657 36.6779 10.6992L36.6992 11.3573C36.6992 11.5908 36.5289 11.7819 36.2947 11.8031L30.2271 12.0154C29.9929 12.0154 29.8013 11.8456 29.78 11.612L29.7587 10.954C29.7375 10.7205 29.9291 10.5294 30.1633 10.5082Z" fill="#A2400F"/>
<path fill-rule="evenodd" clip-rule="evenodd" d="M22.648 11.888L22.0093 11.9304L22.2861 14.0108L22.9248 13.9683C24.8196 13.7985 24.9686 11.6757 22.648 11.888Z" fill="#FCDABE"/>
<path fill-rule="evenodd" clip-rule="evenodd" d="M22.2004 11.9092L16.1115 12.2701C14.5148 12.6309 14.5148 14.8599 16.5161 14.5839L22.4772 13.9683L22.2004 11.9092Z" fill="#FCDABE"/>
<path fill-rule="evenodd" clip-rule="evenodd" d="M22.0303 12.0792C21.9664 11.9943 22.0942 11.8881 22.1793 11.8881L23.6483 11.8032C23.7548 11.8032 23.7974 11.8881 23.8612 11.973C23.9251 12.058 23.7974 12.1641 23.7122 12.1641L22.2432 12.249C22.1155 12.249 22.0303 12.1853 22.0303 12.0792Z" fill="#FCDABE"/>
<path fill-rule="evenodd" clip-rule="evenodd" d="M23.8189 12.44C23.755 12.3551 23.8827 12.249 23.9679 12.249L25.4369 12.1641C25.5433 12.1641 25.5859 12.249 25.6498 12.3339C25.7137 12.4188 25.5859 12.5249 25.5008 12.5249L24.0318 12.6099C23.9253 12.6099 23.8189 12.5249 23.8189 12.44Z" fill="#FCDABE"/>
<path fill-rule="evenodd" clip-rule="evenodd" d="M31.8881 12.2702L31.5475 10.8479C31.4836 10.5507 31.8243 10.4445 31.9094 10.7417L32.2501 12.164C32.3139 12.44 31.952 12.5249 31.8881 12.2702Z" fill="#FCDABE"/>
<path fill-rule="evenodd" clip-rule="evenodd" d="M32.3766 12.1427L32.036 10.7204C31.9721 10.4232 32.3128 10.3171 32.3979 10.6143L32.7385 12.0366C32.8024 12.3338 32.4405 12.4187 32.3766 12.1427Z" fill="#FCDABE"/>
<path fill-rule="evenodd" clip-rule="evenodd" d="M32.9306 12.1427L32.59 10.7204C32.5261 10.4232 32.8667 10.3171 32.9519 10.6143L33.2925 12.0366C33.3564 12.3338 32.9945 12.4187 32.9306 12.1427Z" fill="#FCDABE"/>
<path fill-rule="evenodd" clip-rule="evenodd" d="M15.9203 5.30709C15.9203 5.30709 19.1351 6.43219 20.455 6.92044C21.775 7.38746 21.4557 5.26464 23.3079 5.30709C25.1388 5.32832 25.7775 6.24114 25.7775 6.24114L25.0962 5.03113C25.0962 5.03113 21.8814 3.03568 15.9203 5.30709Z" fill="#FA849A"/>
<path fill-rule="evenodd" clip-rule="evenodd" d="M13.8338 6.24093C14.0467 3.90583 14.0254 0.148438 19.3265 0.148438C24.6277 0.148438 25.0961 5.0097 25.0961 5.0097C25.0961 5.0097 20.8381 2.65337 13.8338 6.24093Z" fill="#D4556C"/>
<path opacity="0.5" d="M14.0039 7.23888C13.9826 6.79309 13.9614 4.925 14.6213 3.12061C14.9407 2.25025 15.3239 1.59218 16.0052 0.891646C16.6652 0.212343 18.5812 -0.33959 20.2631 0.212344L19.4967 0.148659C17.1335 0.276028 15.9626 1.80446 15.3878 3.39657C14.7917 5.05237 14.8129 6.79309 14.8129 7.21765L14.0039 7.23888Z" fill="#FCBA56"/>
<path fill-rule="evenodd" clip-rule="evenodd" d="M14.9415 5.58301C15.7718 5.58301 16.5169 6.49582 16.6021 7.59969C16.6873 8.72478 16.0699 9.61637 15.2395 9.61637C14.4092 9.61637 13.6641 8.70355 13.5789 7.59969C13.5151 6.49582 14.1112 5.58301 14.9415 5.58301Z" fill="#266FA3"/>
<path fill-rule="evenodd" clip-rule="evenodd" d="M14.4938 6.07129C15.1325 6.07129 15.686 6.77182 15.7499 7.62095C15.8138 8.47008 15.3454 9.17061 14.7067 9.17061C14.068 9.17061 13.5145 8.47008 13.4506 7.62095C13.3867 6.75059 13.8551 6.07129 14.4938 6.07129Z" fill="#3B88BF"/>
</g>
<defs>
<clipPath id="clip0">
<rect width="40.1739" height="56" fill="white" transform="translate(8)"/>
</clipPath>
</defs>
</svg>
