<svg width="56" height="56" viewBox="0 0 56 56" fill="none" xmlns="http://www.w3.org/2000/svg">
<g clip-path="url(#clip0)">
<path d="M49.6156 22.2123C49.6156 22.2123 51.0293 24.3017 51.7134 23.9837C52.3974 23.6658 51.1205 22.8936 51.1205 22.8936C51.1205 22.8936 52.9902 24.5288 53.7655 24.2562C54.5407 23.9837 54.9967 22.6665 53.5831 21.758C52.215 20.8496 50.4365 20.8496 50.4365 20.8496L49.6156 22.2123Z" fill="#202A35"/>
<path d="M4.37785 6.63257C4.37785 6.63257 1.86971 6.95052 1.6873 6.22378C1.45928 5.49703 2.87296 5.95125 2.87296 5.95125C2.87296 5.95125 0.410424 5.63329 0.0912059 4.86112C-0.228012 4.08895 0.501629 2.90799 2.09772 3.3622C3.69381 3.81642 4.87948 5.08823 4.87948 5.08823L4.37785 6.63257Z" fill="#202A35"/>
<path d="M41.2704 36.293C40.1759 36.4747 41.8176 38.5186 42.2736 39.6542L46.4235 37.701C46.4235 37.701 45.6026 36.3838 44.1433 36.8835C42.684 37.4285 41.2704 36.293 41.2704 36.293Z" fill="#7B8F9E"/>
<path d="M22.5277 42.9699C22.5277 42.9699 22.9837 42.2885 23.3941 43.9237C23.759 45.5589 24.443 47.3758 24.443 47.3758L19.6091 49.4198C18.1498 47.9208 19.5179 47.2849 20.6124 46.649L22.5277 42.9699Z" fill="#7B8F9E"/>
<path d="M19.3811 33.4767C19.3811 33.4767 27.5896 29.2525 29.1857 28.117C30.0977 27.4811 28.5472 24.6195 26.8143 23.3477C25.4919 22.3484 24.0782 22.6663 23.2573 22.9843C21.4332 23.711 14.7752 30.7514 14.7752 30.7514L19.3811 33.4767Z" fill="#1F5272"/>
<path d="M36.3909 27.9806C36.3909 27.9806 31.6026 28.5257 29.1857 28.1169L26.4495 23.5293C26.4495 23.5293 31.785 20.7585 33.1075 21.0311C34.43 21.3036 38.4886 23.711 38.4886 23.711L36.3909 27.9806Z" fill="#1F5272"/>
<path d="M5.79153 53.4171C5.79153 53.4171 10.6254 52.9629 13.6808 51.8274C16.7362 50.6918 42.0912 40.2902 51.0749 35.4301C52.3974 34.7033 54.3127 33.3407 56 31.9326C56 31.9326 55.9088 34.3854 49.2964 37.6558C46.0586 39.2455 39.8111 41.88 32.013 45.0141C22.9837 48.6478 19.0619 51.4186 16.0521 52.5087C12.1759 53.8259 6.52117 54.6889 5.79153 53.4171Z" fill="#878B8E"/>
<path d="M19.9739 45.1049L22.8925 43.6969C22.8925 43.6969 21.57 38.7459 19.9739 34.8396C18.7883 31.9326 17.6026 29.6615 15.5505 30.2974C13.544 30.9334 14.2736 33.4316 15.4137 36.2477C17.0554 40.3811 19.9739 45.1049 19.9739 45.1049Z" fill="#1F5272"/>
<path d="M31.1922 24.3014C31.6938 22.8479 32.6515 21.7578 33.7915 21.2582C33.5179 21.1673 33.2899 21.0765 33.1075 21.0311C31.785 20.7585 26.4495 23.5293 26.4495 23.5293L29.1857 28.1169C29.8241 28.2077 30.5993 28.2531 31.4202 28.2531C30.8274 27.2539 30.6906 25.7549 31.1922 24.3014Z" fill="#1B4360"/>
<path d="M26.8143 23.3477C25.4919 22.3484 24.0782 22.6663 23.2573 22.9843C22.8469 23.1206 22.2085 23.6202 21.4332 24.2561C33.4723 25.3462 17.6026 32.4774 17.6026 32.4774C18.4235 33.8855 20.43 39.1544 21.798 44.1963L22.8469 43.6966C22.8469 43.6966 21.5244 38.7457 19.9283 34.8394C19.7459 34.3397 19.5179 33.8855 19.3355 33.4767C19.3355 33.4767 27.544 29.2525 29.1401 28.117C30.0521 27.4811 28.5472 24.6649 26.8143 23.3477Z" fill="#1B4360"/>
<path d="M41.4984 36.9287L43.8241 35.6569C43.8241 35.6569 40.8599 22.2575 36.8469 23.393C34.7948 24.256 35.7524 26.7088 37.1205 29.525L41.4984 36.9287Z" fill="#1F5272"/>
<path d="M33.0619 21.0764C30.3713 22.5299 30.2345 23.4384 28.1368 24.1651C26.0391 24.9373 24.215 23.5746 21.5244 24.1651L20.8404 6.814C20.8404 6.814 27.0423 6.13267 35.6612 11.1291C35.6612 11.1291 31.785 17.1247 33.0619 21.0764Z" fill="#FFB229"/>
<path d="M43.1401 36.0657L43.8241 35.7023C43.8241 35.7023 41.4984 25.2099 38.1694 23.5747C40.9055 26.4817 42.9121 35.1118 43.1401 36.0657Z" fill="#1B4360"/>
<path d="M28.1824 28.7527C28.1824 28.7527 29.1401 28.253 30.9186 28.253L29.0033 27.7988L28.1824 28.7527Z" fill="#1B4360"/>
<path d="M25.0814 5.81494C25.0814 5.81494 24.5342 6.45085 24.1694 6.95049C24.1694 6.95049 24.7166 10.13 28.1368 12.174L25.0814 5.81494Z" fill="#FFA617"/>
<path d="M32.8339 18.8057C32.8339 18.8057 33.5179 17.3522 35.0684 17.3976C36.6189 17.443 42.1824 19.2599 49.6156 22.4394L50.6189 20.8042C49.3876 19.8504 39.0814 12.3558 35.6612 11.1294C35.6612 11.1294 32.1954 16.1712 32.8339 18.8057Z" fill="#FFA617"/>
<path d="M20.886 6.81398C20.886 6.81398 14.3648 6.72313 13.0879 6.63229C11.8111 6.49602 4.87948 4.86084 4.87948 4.86084L4.33224 6.81398C4.33224 6.81398 10.6254 10.1752 13.0879 10.5386C15.5505 10.9019 20.0195 11.8558 21.1596 14.2631C21.1596 14.2631 22.7557 7.40446 20.886 6.81398Z" fill="#FFB229"/>
<path d="M20.6124 46.649C20.5212 46.6036 19.1531 45.1501 19.7915 44.7413C20.43 44.3325 22.0717 43.3787 22.3453 43.6058C22.6189 43.8329 22.8469 45.786 22.9381 46.104C21.2508 46.2856 20.6124 46.649 20.6124 46.649Z" fill="#9AACB7"/>
<path d="M26.1759 14.536L22.5277 13.7184V13.2188L26.1759 13.9909V14.536Z" fill="#FFA617"/>
<path d="M32.7883 19.1234C32.7427 17.352 35.6612 11.1292 35.6612 11.1292L33.5635 9.99365C30.7818 11.8105 28.1368 12.1739 28.1368 12.1739C26.4039 19.4414 27.2704 23.2568 27.6352 24.3469C27.8176 24.3015 27.9544 24.2561 28.1368 24.2107C29.0033 23.8927 29.7329 23.4839 30.4169 22.848C31.0098 22.3484 31.7394 21.8033 33.0163 21.0766C32.9251 20.8495 32.8339 20.5315 32.7883 20.0773C32.8339 19.7593 32.7883 19.4414 32.7883 19.1234Z" fill="#FFA617"/>
<path opacity="0.2" d="M31.1922 14.6268C33.7003 14.2181 34.2476 11.4473 34.3388 10.4026C34.0195 10.2209 33.7003 10.0847 33.3811 9.90298L25.7199 9.3125C25.7655 9.3125 28.0912 15.1265 31.1922 14.6268Z" fill="#FFA617"/>
<path d="M25.4919 14.6723C25.4463 12.8554 26.5863 11.1294 26.6319 11.084L26.7687 11.1748C26.7687 11.1748 25.5831 12.9009 25.6743 14.6723H25.4919Z" fill="#FFDC97"/>
<path d="M30.1889 15.2626C29.7329 13.6728 30.0065 11.856 30.0065 11.8105L30.1889 11.856C30.1889 11.856 29.9153 13.6274 30.3713 15.2172L30.1889 15.2626Z" fill="#FFDC97"/>
<path d="M28.1824 12.1742C28.1824 12.1742 23.6222 8.94922 25.0814 5.81511C25.0814 5.81511 28.8209 4.27077 33.7459 8.99464C33.7459 8.99464 34.3388 11.6745 28.1824 12.1742Z" fill="#FFCA45"/>
<path d="M35.2964 6.76873C35.0228 7.99512 33.0619 10.6296 31.6938 11.0838C29.2313 11.9014 25.8567 8.54018 26.7231 4.54306C27.2248 2.27198 29.5049 0.773057 31.6938 1.04559C34.1564 1.36354 35.798 4.54306 35.2964 6.76873Z" fill="#202A35"/>
<path d="M29.3681 4.86123C30.2345 6.13304 31.6026 6.81437 32.7883 6.76895C31.785 6.58726 30.7818 5.90594 30.0977 4.90666C29.3225 3.77111 29.0489 2.45388 29.3681 1.40918C29.0945 1.54545 28.8208 1.68171 28.5472 1.8634C28.4104 2.81725 28.684 3.90738 29.3681 4.86123Z" fill="#36424C"/>
<path d="M28.456 10.1299C28.456 10.1299 29.5049 10.675 30.2345 8.04053C30.2345 8.04053 32.1498 9.31234 34.3844 8.54017C34.3844 8.54017 32.8795 10.9475 31.4202 11.1292C29.7329 11.538 28.456 10.1299 28.456 10.1299Z" fill="#7B8F9E"/>
<path d="M30.1433 6.9502C30.3713 6.49598 30.5537 6.26888 30.7362 6.17803C31.0098 5.99635 31.6938 6.45056 33.3355 6.58683C34.0195 6.63225 34.7492 6.58683 35.342 6.35972C35.342 6.35972 35.798 6.3143 35.4332 7.22273C35.114 8.13117 34.7036 8.85792 34.2932 9.08503C33.6091 9.40298 33.6091 8.99418 33.2899 8.99418C33.0619 8.99418 32.7883 9.26671 32.4691 9.31213C31.3746 9.53924 30.4625 9.08503 30.0977 8.44912C29.9153 8.04032 29.8697 7.54069 30.1433 6.9502Z" fill="#A7BAC6"/>
<path d="M30.4625 7.17736C30.645 6.81399 30.8274 6.6323 30.9642 6.54146C31.2378 6.40519 31.8762 6.76857 33.2899 6.85941C33.8827 6.90483 34.43 6.85941 34.9316 6.67772C34.9316 6.67772 35.342 6.6323 35.0228 7.35905C34.7492 8.0858 34.4756 8.63086 34.1108 8.81255C33.5179 9.03966 33.5179 8.76713 33.2443 8.76713C33.0619 8.76713 32.6971 8.99423 32.4691 9.03966C31.5114 9.22134 30.6906 8.85797 30.4169 8.35833C30.2801 8.04038 30.2345 7.63158 30.4625 7.17736Z" fill="#202A35"/>
<path d="M30.5081 6.35992L30.0065 6.13281L29.4137 7.40462L29.9609 7.768L30.5081 6.35992Z" fill="#A7BAC6"/>
<path d="M29.9153 6.31431C29.9153 6.31431 28.0912 4.90624 27.3616 3.04395C27.3616 3.04395 26.9511 3.27105 26.9055 3.9978C26.9055 3.9978 27.8632 6.35974 29.4593 7.31359L29.9153 6.31431Z" fill="#A7BAC6"/>
<path d="M29.1401 6.95043C29.1401 6.95043 28.5016 8.85814 28.7752 10.4479C28.7752 10.4479 28.2736 10.0845 27.9544 9.67573C27.9544 9.67573 27.7264 8.08597 28.3192 6.04199L29.1401 6.95043Z" fill="#A7BAC6"/>
<path d="M42.4104 38.0187C42.228 37.7916 41.1792 36.656 41.7264 36.2472C42.3192 35.8839 43.8697 34.93 44.1433 35.248C44.4169 35.5205 44.4625 36.8831 44.4625 36.8831C44.4625 36.8831 43.2769 37.1102 42.4104 38.0187Z" fill="#9AACB7"/>
<path d="M5.51792 4.99707L4.92508 7.13189C5.1531 7.22274 5.42671 7.359 5.70033 7.54069L6.33876 5.22418C6.01955 5.13334 5.74593 5.04249 5.51792 4.99707Z" fill="#FFDC97"/>
<path d="M7.0228 5.36035L6.33876 7.85855C6.56677 7.99482 6.84039 8.08566 7.11401 8.22192L7.84365 5.54204C7.57003 5.49662 7.29642 5.40577 7.0228 5.36035Z" fill="#FFDC97"/>
<path d="M48.1564 18.9873L46.8795 21.3038C47.1531 21.3947 47.4267 21.5309 47.6547 21.6218L48.8404 19.4869C48.6124 19.3053 48.3844 19.1236 48.1564 18.9873Z" fill="#FFDC97"/>
<path d="M49.3876 19.8501L48.2932 21.8487C48.5668 21.9395 48.8404 22.0758 49.0684 22.1666L50.0717 20.3497C49.8893 20.2135 49.6612 20.0772 49.3876 19.8501Z" fill="#FFDC97"/>
<path d="M25.4006 14.6719L25.7655 14.6265L25.9479 15.5803C25.9479 15.5803 25.5831 15.8529 25.3094 15.5803L25.4006 14.6719Z" fill="#FFDC97"/>
<path d="M30.0977 15.2173L30.4625 15.1265L30.8274 16.0349C30.8274 16.0349 30.5081 16.3529 30.1889 16.1257L30.0977 15.2173Z" fill="#FFDC97"/>
<path d="M27.544 24.3469C26.2671 17.6245 28.0456 12.1738 28.0456 12.1284L28.228 12.1738C28.228 12.2193 26.4495 17.6245 27.7264 24.3015L27.544 24.3469Z" fill="#FFDC97"/>
<path opacity="0.3" d="M28.0456 23.7112C25.9479 24.4834 24.1694 23.1662 21.5244 23.7112V24.2109C24.2606 23.6204 26.0391 24.983 28.1368 24.2109C30.2345 23.4387 30.3257 22.5757 33.0619 21.1222C33.0163 20.9859 32.9707 20.8042 32.9251 20.668C30.2801 22.076 30.1433 22.9845 28.0456 23.7112Z" fill="#FFA617"/>
<path d="M19.6091 49.4195L24.443 47.421L24.3518 47.103L19.3811 49.1924L19.6091 49.4195Z" fill="#9AACB7"/>
<path d="M42.228 39.6993L46.4235 37.7462L46.1954 37.4736L42.0912 39.3359L42.228 39.6993Z" fill="#9AACB7"/>
</g>
<defs>
<clipPath id="clip0">
<rect width="56" height="53.0526" fill="white" transform="translate(0 1)"/>
</clipPath>
</defs>
</svg>
