<svg width="56" height="56" viewBox="0 0 56 56" fill="none" xmlns="http://www.w3.org/2000/svg">
<path d="M20.2946 11.8179C19.1769 12.5268 18.2338 13.4923 17.539 14.6389C16.9533 15.891 12.4932 23.3494 13.0338 24.3696C13.2145 24.7465 13.5621 25.0093 13.9656 25.0739C14.369 25.1385 14.7778 24.9968 15.0611 24.6942C15.5567 24.2305 21.1882 16.0224 21.1882 16.0224L20.2946 11.8179Z" fill="#F2F2F2"/>
<path d="M20.9176 10.9909L18.5374 13.2632L24.6644 16.0301L25.9109 9.87793L24.5068 10.2644L23.8235 11.2537L20.9176 10.9909Z" fill="#F2F2F2"/>
<path d="M24.8822 8.84951C24.4842 8.90361 24.3266 10.2098 24.732 10.8127C24.4496 11.2992 23.999 11.6581 23.4706 11.8174C22.6678 11.9435 21.847 11.8502 21.0903 11.5469C21.0228 11.4464 20.9777 8.26211 20.6323 7.83702C20.2869 7.41193 19.6187 5.51835 22.0064 5.91252C23.4399 6.22949 24.563 7.37647 24.8822 8.84951Z" fill="#FFB884"/>
<g style="mix-blend-mode:multiply" opacity="0.3">
<path d="M21.3682 7.1416C21.1142 7.40227 20.8877 7.68984 20.6924 7.99951C20.8868 9.17319 21.0121 10.3579 21.0679 11.5471C21.2825 11.6491 21.51 11.7193 21.7437 11.7558C21.7591 11.6871 21.7591 11.6157 21.7437 11.5471C21.5634 10.5887 21.5935 8.78013 21.7437 8.95017C22.655 9.1709 23.5812 9.32075 24.5143 9.39844C24.5198 9.16725 24.6502 8.95853 24.8522 8.85742C24.8522 8.85742 23.0952 7.58215 23.0802 7.52032C22.5222 7.3397 21.949 7.21292 21.3682 7.1416Z" fill="#FFB884"/>
</g>
<path d="M24.9648 1.60817C24.1464 0.928022 23.8686 0.348353 22.8099 0.348353C21.7512 0.348353 20.6699 0.178317 19.7614 1.0285C18.8372 2.12062 18.3068 3.50723 18.2596 4.95478C18.3648 5.72768 18.2596 6.91793 20.8952 9.21342C20.8952 9.21342 21.1805 7.93814 21.9989 7.66763C22.8174 7.39712 21.7662 5.71222 21.7662 5.71222L24.9648 1.60817Z" fill="#381F14"/>
<path d="M22.0366 7.66737C21.7512 8.74941 24.2516 9.25952 25.2653 9.28271C26.2789 9.30589 26.3991 8.95036 26.3165 8.60256C26.2339 8.25476 26.3165 8.05381 26.4967 8.03062C26.5866 8.00146 26.6537 7.92359 26.671 7.82814C26.6882 7.73269 26.653 7.6352 26.5793 7.57462C26.7048 7.47043 26.728 7.28277 26.6318 7.14953C26.5736 7.09671 26.5403 7.0207 26.5403 6.94085C26.5403 6.86099 26.5736 6.78499 26.6318 6.73217C26.8112 6.66612 26.9502 6.51736 27.0073 6.33026C26.8581 6.09285 26.6816 5.87486 26.4817 5.68104C26.2956 5.46828 26.1891 5.19431 26.1813 4.90814C26.253 4.43508 26.1958 3.95083 26.0161 3.50921C25.7794 2.8655 25.3408 2.3215 24.7697 1.96343C24.4018 1.78566 22.5171 2.12574 21.999 3.04548C21.4809 3.96522 21.7738 6.19114 21.7738 6.19114C21.6026 6.03141 21.351 6.00332 21.1505 6.12158C20.8202 6.33026 21.0379 6.74762 21.1505 7.07224C21.2632 7.39685 21.2557 7.93015 21.586 7.95334C21.7871 8.00172 21.9883 7.87397 22.0366 7.66737Z" fill="#FFB884"/>
<path d="M25.2652 1.70044C24.8372 1.49948 23.1853 2.75157 23.1853 3.24622C23.1853 3.91091 22.532 4.49057 22.2542 5.13207C22.0975 5.56154 22.0235 6.01832 22.0365 6.4769L21.7661 6.09819C21.7236 5.97033 21.6573 5.85221 21.5709 5.75039C21.4486 5.6318 21.3581 5.48272 21.3081 5.31757L20.6248 2.59699C20.5148 2.19134 20.7185 1.76536 21.0979 1.60769C21.6128 1.38078 22.1143 1.12269 22.5996 0.834799C23.1002 0.781785 23.6055 0.799991 24.1013 0.888901C24.2465 0.907225 24.3841 0.966018 24.4993 1.05894L25.2652 1.70044Z" fill="#381F14"/>
<path d="M25.2653 1.78548C24.6986 0.980969 23.8235 0.465821 22.8625 0.371094L22.0366 1.53043C22.0366 1.53043 24.2291 1.48406 24.582 1.53043C24.8234 1.56995 25.0553 1.65651 25.2653 1.78548Z" fill="#381F14"/>
<path d="M18.7701 1.96337C18.9053 1.77014 19.2657 0.765386 17.7639 0.17026C16.2622 -0.424866 14.3025 0.633995 14.6103 1.89381C14.9182 3.15362 15.3612 4.71486 13.6192 4.39025C12.3127 4.14292 12.4929 6.70892 13.6868 7.68276C14.8806 8.65661 13.026 8.67979 13.026 8.67979C13.026 8.67979 15.0158 9.28265 15.3537 7.9069C15.639 6.75529 14.5127 5.58823 15.3537 6.07515C15.7276 6.29328 16.1814 6.30944 16.5691 6.11842C16.9567 5.92739 17.2291 5.55333 17.2984 5.11676C17.2984 3.98061 17.0882 0.711284 18.5674 2.29571L18.7701 1.96337Z" fill="#381F14"/>
<path d="M25.1074 1.68506C25.1074 1.68506 23.5681 1.68506 23.0125 3.8337C24.4128 4.03412 25.8266 4.11684 27.2399 4.08102C28.2647 4.04732 29.0968 3.21753 29.1621 2.16425C29.117 2.03286 25.1074 1.68506 25.1074 1.68506Z" fill="#006C8A"/>
<path d="M25.4528 1.78535C24.6666 0.664502 23.3768 0.0371484 22.0364 0.12363C19.566 0.12363 17.0431 2.87512 18.5373 6.35313C18.5373 6.35313 21.8111 5.14742 23.0425 3.83351L25.4528 1.78535Z" fill="#006C8A"/>
<path d="M19.5061 52.0617C18.8379 52.68 15.917 54.3031 14.7307 54.249C13.9422 54.249 13.9798 55.5861 14.2801 55.7948C16.0224 56.0876 17.8009 56.0667 19.5362 55.7329C20.7976 55.3001 22.0591 55.4238 22.5396 55.2383C23.0202 55.0528 22.7198 53.1979 22.1792 52.394C21.6386 51.5902 19.5061 52.0617 19.5061 52.0617Z" fill="#A3B848"/>
<path d="M43.0831 49.5893C42.8579 50.1303 43.6613 50.3622 43.7214 51.6298C43.7814 52.8973 43.5412 54.5358 44.7425 54.7213C45.2824 54.7952 45.8282 54.6389 46.2535 54.2887C46.6787 53.9385 46.9466 53.4248 46.9951 52.8664C47.0552 51.8771 46.5371 49.9758 46.4995 48.9246C46.462 47.8735 45.621 47.7885 44.72 47.6725C43.9016 47.5798 43.0831 49.5893 43.0831 49.5893Z" fill="#A3B848"/>
<path d="M23.2303 28.4042C21.9088 30.321 17.3586 36.7283 17.0808 37.6789C16.8029 38.6296 16.6227 38.1736 18.0043 43.3056C18.8317 46.163 19.3357 49.1092 19.506 52.0856C19.506 52.3948 20.9477 52.8585 22.1491 52.3948C22.1491 52.3948 21.9689 48.2521 22.1491 46.3353C22.4098 44.0357 21.9912 41.7086 20.9477 39.6575C20.9477 39.6575 27.9758 31.8977 28.9519 31.6504C29.928 31.4031 31.5048 31.4185 33.8175 35.5148C34.8837 37.3852 35.9199 38.8306 36.941 40.871C37.9622 42.9114 41.2285 45.802 43.3234 49.8211C44.1765 49.8745 44.9271 49.2463 45.0504 48.3758C45.0504 48.3758 42.9479 44.3567 42.5275 43.0583C42.0616 41.7049 41.3479 40.456 40.425 39.3793C39.1786 37.9649 37.4817 31.8745 36.941 30.5065C35.8734 28.2403 34.4757 26.1552 32.7963 24.3234C31.5273 22.9554 23.2303 28.4042 23.2303 28.4042Z" fill="#006C8A"/>
<g style="mix-blend-mode:multiply" opacity="0.3">
<path d="M34.5008 26.6649C33.9933 25.8447 33.4207 25.0692 32.7888 24.3462C31.5274 22.986 23.2304 28.4271 23.2304 28.4271C23.0201 28.7285 22.7273 29.2 22.3894 29.6869C23.9287 30.2511 28.8318 31.5109 34.5008 26.6649Z" fill="#006C8A"/>
</g>
<path d="M19.506 18.4497C19.9865 18.3801 20.7674 21.6726 21.1879 23.0175C21.7435 24.7951 22.1941 28.876 22.3818 29.3706C22.5695 29.8653 26.0985 30.6923 28.8692 28.8373C30.5689 27.7232 32.1785 26.4696 33.6823 25.0888C33.8024 24.942 30.7539 18.0014 30.431 16.7416C29.2522 12.1042 30.6788 10.7053 28.1784 9.59234C26.8194 8.98176 25.3627 10.172 24.4617 10.2725C24.096 10.5691 23.6777 10.7896 23.2303 10.9217C22.4501 11.0444 21.6582 11.0677 20.8726 10.9913L20.2493 11.8105L21.1429 16.0073L19.5285 18.326L19.506 18.4497Z" fill="#F2F2F2"/>
<path d="M22.3819 11.0215C21.8819 11.0555 21.3802 11.0555 20.8802 11.0215L18.8829 12.9305L18.6501 13.1469L18.4925 13.2938C18.0883 13.6868 17.7508 14.1466 17.4938 14.6541C16.9081 15.9062 12.448 23.3646 12.9886 24.3848C13.1866 24.8337 13.6288 25.1148 14.1074 25.0958C14.2781 25.0887 14.4461 25.0494 14.603 24.9799C14.676 24.9471 14.7463 24.9083 14.8132 24.864C14.8823 24.821 14.9477 24.7718 15.0085 24.7171L15.0836 24.6321V24.5935L15.1661 24.493L15.2112 24.4389L15.4365 24.2534V24.1993L15.6242 23.952L15.6767 23.8747L15.8344 23.6583L15.9245 23.5346L16.0897 23.3027L16.1873 23.1945L16.7505 22.4216L16.7955 22.3521L17.0508 21.9888L17.1334 21.8729L17.3962 21.5019L17.4488 21.4246L17.7791 20.9299V20.8836L18.0795 20.4585L18.1396 20.3735L18.4474 19.9329L19.1908 18.9359V18.8818L19.4911 18.449C19.4911 18.449 20.3246 13.6802 22.3819 11.0215Z" fill="#A3B848"/>
<g style="mix-blend-mode:multiply" opacity="0.3">
<path d="M15.0609 24.686C15.3762 24.3845 17.809 20.9065 19.5135 18.4487V17.3203C19.5135 17.3203 15.226 22.3905 14.753 22.7306L14.0021 23.6967L14.1523 25.0801C14.4896 25.0577 14.8097 24.9189 15.0609 24.686Z" fill="#A3B848"/>
</g>
<path d="M13.807 25.1035C13.2589 25.1035 12.4855 24.4775 12.5306 22.8544C12.5756 21.2314 13.1613 18.6654 12.9961 18.3176C12.8309 17.9698 10.8636 17.7456 10.7435 17.0732C10.6234 16.4008 10.9312 15.025 11.3592 14.8782C11.7872 14.7313 13.4241 15.0714 13.4541 15.3419C13.4841 15.6124 13.319 16.4085 12.9661 16.4549C12.6131 16.5013 13.4166 16.5322 13.6193 16.7331C14.0232 17.3195 14.281 17.9989 14.3702 18.7117C14.6855 20.2266 16.4576 25.1267 13.807 25.1035Z" fill="#FFB884"/>
<path fill-rule="evenodd" clip-rule="evenodd" d="M29.057 18.8664C28.8601 18.1547 28.1442 17.738 27.4502 17.9312L27.9908 16.7332L27.713 15.7207L24.8147 16.6791L25.1826 17.6761L26.827 17.1119L26.2413 18.2326L26.5116 19.0751L26.7969 18.9668C27.3601 18.7814 27.7205 18.8818 27.8406 19.2683C27.8937 19.3852 27.8934 19.5204 27.8396 19.637C27.7859 19.7536 27.6844 19.8395 27.5628 19.8711C27.2207 19.9888 26.8433 19.8924 26.5942 19.6238L25.8433 20.3967C26.2414 21.0657 27.0458 21.3482 27.758 21.0691C28.7044 20.8255 29.2838 19.843 29.057 18.8664ZM25.3028 20.0797C25.1059 19.368 24.3899 18.9513 23.6959 19.1445L24.3116 17.9388L24.0338 16.9263L21.128 17.8847L21.4434 18.9049L23.0877 18.3407L22.5021 19.4614L22.7574 20.2884L23.0427 20.1802C23.6058 19.9947 23.9662 20.0951 24.0864 20.4816C24.1395 20.5985 24.1391 20.7337 24.0854 20.8503C24.0316 20.967 23.9301 21.0528 23.8086 21.0844C23.4664 21.2021 23.089 21.1058 22.84 20.8371L22.0891 21.61C22.4871 22.279 23.2915 22.5615 24.0038 22.2824C24.9501 22.0388 25.5295 21.0563 25.3028 20.0797Z" fill="#006C8A"/>
<g style="mix-blend-mode:multiply" opacity="0.3">
<path d="M26.2938 17.2895L26.4815 16.934L25.0474 17.4286L25.13 17.6914L26.2938 17.2895Z" fill="#006C8A"/>
<path d="M26.4515 18.789H26.3689L26.459 19.0595L26.7443 18.9513C26.953 18.8718 27.1783 18.8504 27.3976 18.8895C27.1374 18.6468 26.7543 18.6061 26.4515 18.789Z" fill="#006C8A"/>
<path d="M22.7648 20.0021H22.6822L22.7723 20.2726L23.0576 20.1567C23.2668 20.1003 23.4866 20.1003 23.6959 20.1567C23.4506 19.9033 23.075 19.841 22.7648 20.0021Z" fill="#006C8A"/>
<path d="M24.6345 19.2373C24.8249 19.4114 24.9651 19.636 25.0399 19.8865C25.2667 20.8632 24.6873 21.8456 23.7409 22.0893C23.3257 22.2403 22.8692 22.2153 22.472 22.0197C22.9094 22.382 23.4993 22.4818 24.0263 22.2825C24.9726 22.0388 25.552 21.0564 25.3253 20.0798C25.2191 19.7121 24.9687 19.4067 24.6345 19.2373Z" fill="#006C8A"/>
<path d="M29.0195 18.8664C28.9125 18.4968 28.6589 18.1909 28.3212 18.0239C28.5116 18.198 28.6518 18.4226 28.7266 18.6732C28.9548 19.6427 28.3874 20.6219 27.4502 20.8759C27.0373 21.0257 26.5836 21.0006 26.1887 20.8063C26.6255 21.1701 27.2162 21.27 27.743 21.0691C28.6802 20.8152 29.2477 19.8359 29.0195 18.8664Z" fill="#006C8A"/>
<path d="M22.8023 18.1478L21.3682 18.6347L21.4508 18.8975L22.6146 18.5034L22.8023 18.1478Z" fill="#006C8A"/>
<path d="M27.7055 16.5398L27.1198 17.7378C27.2543 17.7189 27.3907 17.7189 27.5252 17.7378L27.9983 16.764L27.7205 15.7515L27.5027 15.821L27.7055 16.5398Z" fill="#006C8A"/>
<path d="M24.0263 17.7459L23.4406 18.9438C23.5751 18.925 23.7115 18.925 23.8461 18.9438L24.3191 17.97L24.0413 16.9575L23.8236 17.0271L24.0263 17.7459Z" fill="#006C8A"/>
</g>
<g style="mix-blend-mode:multiply" opacity="0.3">
<path d="M12.9961 18.3176C13.0164 18.4196 13.0164 18.5247 12.9961 18.6267C13.4553 18.6273 13.8948 18.4347 14.2125 18.0934C14.1037 17.5986 13.891 17.1344 13.5893 16.7331C13.3866 16.5322 12.5832 16.4935 12.9361 16.4549C13.289 16.4163 13.4542 15.6124 13.4241 15.3419C13.3941 15.0714 11.7572 14.7313 11.3292 14.8782C10.9012 15.025 10.5784 16.424 10.7135 17.0732C10.8487 17.7224 12.831 17.9698 12.9961 18.3176Z" fill="#FFB884"/>
</g>
<path d="M10.7061 22.4755C11.4569 21.3239 18.2672 8.26976 18.4099 7.31137C18.4869 6.87812 18.2892 6.44215 17.9172 6.22457C17.5452 6.00699 17.0802 6.0554 16.758 6.34526C16.0071 6.98676 9.9552 21.6408 10.0003 22.205C9.99563 22.3801 10.0997 22.5389 10.2592 22.6C10.4187 22.6611 10.5983 22.6111 10.7061 22.4755Z" fill="#995F36"/>
<path d="M28.201 9.59205C27.7567 9.37336 27.2462 9.34555 26.7819 9.51476V9.59205C25.2129 12.0208 23.82 14.5654 22.6146 17.205C22.6146 17.205 22.3293 17.1432 21.9539 17.0659C21.3982 16.9886 18.2596 16.7645 16.6978 16.4089C15.489 16.1307 14.9934 15.6361 14.3101 15.6361C13.8505 15.7308 13.404 15.884 12.9811 16.0921C12.7407 16.0795 12.5088 15.9963 12.3128 15.8525L12.5155 15.5201C12.1721 15.4147 11.8001 15.4995 11.5319 15.7443C11.5022 15.7884 11.4817 15.8384 11.4718 15.8911C11.2316 16.5403 11.4718 17.8543 12.2227 17.9547C12.9736 18.0552 14.6255 17.0891 15.2262 17.1818C15.6016 17.2591 18.9279 18.7276 21.233 19.5005C22.1791 19.8019 23.3355 20.1266 23.6433 19.8483C25.7392 17.6011 27.7025 15.2266 29.5226 12.7377L29.8454 12.1039C29.9178 10.9787 29.2414 9.94553 28.201 9.59205Z" fill="#FFB884"/>
<path d="M33.6899 25.0883C33.7951 24.9646 31.4974 19.8481 30.6264 17.3594L32.3985 24.6555C31.0987 26.039 29.6147 27.2257 27.9909 28.1799C26.2762 29.1178 24.3425 29.5485 22.4045 29.4242C22.6523 29.9189 26.1588 30.7149 28.8769 28.8755C30.578 27.749 32.1877 26.4825 33.6899 25.0883Z" fill="#E6E7E8"/>
<g style="mix-blend-mode:multiply" opacity="0.3">
<path d="M26.7519 33.5205C24.6475 35.5554 22.434 37.4675 20.1218 39.2476C21.3616 41.6738 22.0279 44.3669 22.0666 47.1079C22.0666 47.3012 22.0666 47.4712 22.0666 47.6335C22.0666 47.1389 22.0666 46.6751 22.1341 46.3041C22.3949 44.0045 21.9762 41.6774 20.9328 39.6263C20.9328 39.6263 24.3567 35.8856 26.7519 33.5205Z" fill="#006C8A"/>
</g>
<g style="mix-blend-mode:multiply" opacity="0.3">
<path d="M43.5486 45.3841C43.1648 44.6312 42.8214 43.8571 42.5199 43.0655C42.054 41.7121 41.3403 40.4632 40.4175 39.3865C39.171 37.9721 37.4741 31.8817 36.9335 30.5137C36.7007 29.9263 36.3553 29.9727 35.9498 29.2075C37.1437 31.8663 39.6516 39.4329 39.5314 39.9739C39.4413 40.3758 40.9506 39.8966 43.5486 45.3841Z" fill="#006C8A"/>
</g>
<g style="mix-blend-mode:multiply" opacity="0.3">
<path d="M26.8419 3.59443C25.2951 3.65627 23.7484 3.59443 23.7258 3.40894C23.5606 2.381 24.8972 1.71631 24.8972 1.71631C23.9081 1.96035 23.1622 2.79846 23.0125 3.83403C24.4128 4.03446 25.8266 4.11717 27.2399 4.08136C28.2647 4.04765 29.0968 3.21786 29.1621 2.16459C28.6527 2.9929 27.7918 3.52343 26.8419 3.59443Z" fill="#006C8A"/>
</g>
<path d="M15.8719 7.96099C16.6113 7.77337 17.3857 8.08233 17.8091 8.73388L17.5088 9.36766C17.0091 8.80846 16.2838 8.52242 15.549 8.59476L15.8719 7.96099Z" fill="#E6E7E8"/>
<path d="M24.507 10.2721C24.2856 10.4435 24.0493 10.5936 23.8011 10.7203C23.8011 10.7203 25.8135 10.8826 25.7534 12.4284C25.6933 13.9742 28.2012 9.59191 28.2012 9.59191C26.8572 8.9736 25.408 10.1716 24.507 10.2721Z" fill="#A3B848"/>
<g style="mix-blend-mode:multiply" opacity="0.3">
<path d="M24.507 10.2721C24.2856 10.4435 24.0493 10.5936 23.8011 10.7203C23.8011 10.7203 25.8135 10.8826 25.7534 12.4284C25.6933 13.9742 28.2012 9.59191 28.2012 9.59191C26.8572 8.9736 25.408 10.1716 24.507 10.2721Z" fill="#A3B848"/>
</g>
<path d="M29.8305 12.1117C29.9083 10.9878 29.2384 9.95186 28.2011 9.59205C27.7568 9.37336 27.2462 9.34555 26.782 9.51476V9.59205C25.213 12.0208 23.8201 14.5654 22.6147 17.205C22.6147 17.205 23.786 18.8822 23.6434 19.8638C25.7393 17.6165 27.7026 15.2421 29.5226 12.7532L29.8305 12.1117Z" fill="#A3B848"/>
<g style="mix-blend-mode:multiply" opacity="0.3">
<path d="M23.9363 18.4494C23.7335 18.1557 22.87 17.205 22.87 17.205L23.7185 14.8864L22.6448 17.205C22.6448 17.205 23.8161 18.8822 23.6735 19.8638C24.3868 19.2068 28.3663 14.67 28.8769 13.6807L23.9363 18.4494Z" fill="#A3B848"/>
</g>
</svg>
