<svg width="56" height="56" viewBox="0 0 56 56" fill="none" xmlns="http://www.w3.org/2000/svg">
<path d="M31.2176 15.3394C31.0935 14.9713 31.3831 12.8242 31.8671 12.3981C31.8671 12.3981 32.0078 12.1996 32.8351 12.3444C33.3141 12.4727 33.7221 12.7869 33.9686 13.2172C34.0725 13.4481 34.2918 13.6058 34.5437 13.6309C34.8427 13.6939 35.1301 13.8027 35.3958 13.9536C35.5034 14.0653 35.2842 14.2639 35.2386 14.388C35.1642 14.6031 35.2386 14.6776 35.3628 14.7106C35.4869 14.7437 35.4496 14.8513 35.4041 14.963C35.5241 15.0044 35.5158 15.0664 35.4869 15.174C35.4579 15.2815 35.4372 15.2733 35.5655 15.418C35.6937 15.5628 35.5365 15.9765 35.3007 16.1213C35.0649 16.2661 34.9863 16.2951 34.887 16.3488C34.887 16.3488 34.3161 16.5846 34.1962 16.6219C33.9031 16.7115 33.7247 17.0076 33.7825 17.3086C33.8206 17.6555 33.9458 17.987 34.1465 18.2725C34.2161 18.6888 34.356 19.0903 34.5602 19.4598H31.7844C31.9364 19.3155 32.0749 19.1577 32.1981 18.9882C32.4777 18.5806 32.4777 18.043 32.1981 17.6354C31.7606 16.9222 31.4302 16.1487 31.2176 15.3394Z" fill="#FFB680"/>
<path d="M34.2995 18.4959C34.0237 18.1481 33.8427 17.7347 33.7742 17.2962C33.7164 16.9952 33.8948 16.6991 34.1879 16.6095C34.3078 16.5722 34.8787 16.3364 34.8787 16.3364C34.7339 16.4039 34.6128 16.5135 34.5312 16.6508C34.4609 16.7584 34.2706 17.5196 35.2841 18.4917C34.9449 18.9675 34.2995 18.4959 34.2995 18.4959Z" fill="#ED8A40"/>
<path d="M30.4067 18.124C29.7898 18.124 29.2897 17.6202 29.2897 16.9988C29.2897 16.3773 29.7898 15.8735 30.4067 15.8735C31.0236 15.8735 31.5237 16.3773 31.5237 16.9988C31.5237 17.6202 31.0236 18.124 30.4067 18.124Z" fill="#6B2415"/>
<path d="M32.4752 12.3115C32.6327 12.8375 32.7258 13.3806 32.7524 13.929C32.7287 14.3308 32.5698 14.7128 32.3015 15.0129C32.0548 14.8491 31.7252 14.8914 31.5279 15.1121C31.4177 15.3455 31.4532 15.6216 31.6189 15.8195C31.7736 15.9791 31.9558 16.1094 32.1567 16.2043C32.1567 16.2043 32.1567 17.2385 32.227 17.6729C31.962 17.4876 31.6484 17.384 31.3252 17.375C30.7439 17.2636 30.2216 16.9481 29.8525 16.4856C29.3837 15.9296 29.1785 15.1979 29.2898 14.4792C29.3684 13.6849 30.051 12.1584 32.4752 12.3115Z" fill="#7E3422"/>
<path fill-rule="evenodd" clip-rule="evenodd" d="M41.2205 13.6103C41.2205 21.127 35.127 27.2205 27.6103 27.2205C20.0973 27.2114 14.0091 21.1232 14 13.6103C14 6.09353 20.0935 0 27.6103 0C35.127 0 41.2205 6.09353 41.2205 13.6103ZM39.4163 8.7198C37.4384 3.94471 32.7788 0.831263 27.6102 0.831263V0.827127C20.5549 0.836248 14.8383 6.55467 14.8315 13.61C14.8315 18.7785 17.9449 23.4381 22.72 25.4161C27.4951 27.394 32.9915 26.3007 36.6462 22.646C40.3009 18.9913 41.3942 13.4949 39.4163 8.7198Z" fill="#13B6D1"/>
<path d="M30.1337 37.7613C29.6745 34.7248 29.3518 31.283 29.2732 30.5342C30.4522 30.5342 33.1577 31.3078 34.3284 31.3616C34.2747 32.3379 32.9426 39.6063 33.1618 41.4389C33.3066 42.68 33.5424 52.6995 33.6955 53.4855C33.7865 53.9571 34.2043 54.8796 34.8331 55.1113C35.586 55.3884 35.7101 55.678 35.2758 55.8393C34.5469 56.0283 33.7848 56.0509 33.046 55.9055C32.4544 55.8021 32.6034 54.4825 31.9828 53.6551C31.7884 53.3986 31.0769 52.6085 31.0024 52.17C30.9279 51.7314 31.0934 51.7976 31.5236 50.66C31.9539 49.5224 30.6342 46.8624 29.9144 44.5333C29.0994 41.923 30.477 40.0324 30.1337 37.7613Z" fill="#FFB680"/>
<path d="M18.8939 20.2211C19.1711 19.8074 18.9891 19.2117 19.3076 19.0173C20.437 18.3471 21.8228 18.7691 23.279 18.9718C25.6949 19.3827 28.0783 19.9661 30.4109 20.7175L32.7524 21.367C32.3494 21.9742 31.7265 22.4013 31.0149 22.5584C30.2868 22.7487 29.6498 23.121 29.1699 23.0259C28.8639 22.9027 28.6137 22.6716 28.4666 22.3764C28.0943 21.8924 27.7096 21.549 25.5708 21.367C24.2511 21.2512 20.5197 22.5833 20.5197 22.5833L18.8939 20.2211Z" fill="#ED8A40"/>
<path d="M28.5493 25.6815C28.5493 25.6815 25.0082 23.2449 24.6151 22.7857C23.4361 21.4123 22.0751 20.0347 21.3057 19.592C20.2839 19.0046 18.898 18.322 18.5919 20.1298C18.3809 21.3709 20.0191 22.645 21.5787 24.4115C22.4516 25.4002 25.9969 28.871 27.8709 29.475C28.6981 29.7279 29.5493 29.8943 30.4109 29.9714L28.5493 25.6815Z" fill="#FFB680"/>
<path d="M19.4772 12.3943C19.6716 12.3612 19.866 12.3447 20.0522 12.3282C20.4659 12.7915 20.9209 13.0438 22.2034 14.0574C23.1176 14.7813 23.9202 15.8321 24.1849 15.9769C25.9141 16.9159 26.8532 17.6316 28.2556 18.4342C29.2071 18.9678 31.3582 19.0878 31.3582 19.0878C31.3582 19.0878 32.1856 18.9471 32.3138 18.7031C32.3948 18.4705 32.4119 18.2205 32.3635 17.9791C33.0185 17.5873 33.764 17.3721 34.5271 17.3544C34.6967 17.8136 34.6719 17.8385 34.8249 17.9626C35.2841 18.3349 36.2976 17.7226 36.5541 17.4785C37.3236 16.7463 38.424 14.6613 38.304 13.6064C38.0889 11.6994 38.1261 8.50983 37.7704 7.33496C37.9945 7.13835 38.2543 6.98666 38.5357 6.88818C38.7798 7.30187 38.999 7.71556 39.1603 8.0465C39.6914 9.22002 40.0615 10.4599 40.2608 11.7324C40.4349 12.8071 40.4807 13.8986 40.3973 14.984C40.1173 16.1476 39.6656 17.263 39.0569 18.2935C38.5357 19.0712 37.5925 20.3619 37.7249 21.2348C37.917 22.7487 37.6925 24.2863 37.0754 25.6819C36.4866 26.903 35.812 28.0809 35.0566 29.2065C34.4319 30.1994 33.9479 33.9722 33.9479 33.9722C33.9479 33.9722 30.0675 33.8026 28.4666 31.5273C26.3981 28.5695 27.6144 24.8091 27.6144 24.8091C28.5154 25.152 29.4479 25.4055 30.3985 25.5661C31.2589 25.6819 31.6809 26.1329 32.2104 25.2765C32.438 24.9083 32.1484 24.1389 31.7636 23.6632C30.9983 22.7117 30.6508 21.7726 30.0675 21.512C28.1108 20.6391 26.0961 19.5097 25.1447 18.9926C24.5324 18.6576 21.3512 16.2168 19.0718 12.9404C18.9998 12.8373 18.9349 12.7295 18.8773 12.6177C19.062 12.5073 19.2653 12.4316 19.4772 12.3943Z" fill="#EF6590"/>
<path d="M37.6422 7.01193C37.1375 6.25902 36.1653 5.64677 35.9502 4.18232C35.9396 4.1 35.954 4.0164 35.9916 3.94238C36.5934 4.48202 37.1586 5.06108 37.6835 5.67573C38.0062 6.05458 38.2942 6.46162 38.544 6.89196C38.2626 6.99044 38.0028 7.14213 37.7787 7.33874C37.7486 7.22398 37.7027 7.11398 37.6422 7.01193Z" fill="#FFB680"/>
<path d="M35.2883 18.3843C35.9279 18.866 36.4206 19.5163 36.7114 20.2624C37.075 21.4522 37.0091 22.7319 36.5252 23.878C35.8261 25.3383 35.8923 27.8535 35.8923 27.8535C35.8923 27.8535 35.1931 25.7024 35.4786 24.7178C35.764 23.7332 36.3432 21.731 36.2604 20.8416C36.157 19.737 35.2883 18.3843 35.2883 18.3843Z" fill="white"/>
<path d="M35.524 19.4512C35.524 19.4512 35.9377 21.3376 35.6357 22.136C35.3337 22.9344 34.4857 24.8539 34.6429 26.3845C34.7102 27.3038 34.6769 28.2277 34.5436 29.1397C34.4631 29.9759 34.2682 30.7972 33.9644 31.5804C34.063 30.4311 34.063 29.2755 33.9644 28.1262C33.79 27.1714 33.7317 26.1991 33.7907 25.2304C34.0265 22.7193 35.8302 20.8618 35.524 19.4512Z" fill="white"/>
<path d="M33.133 25.8145C33.1514 26.6534 33.2722 27.4869 33.4929 28.2966C33.6404 28.9665 33.6133 29.663 33.4143 30.3195C33.2695 30.8407 33.0544 31.1675 33.1536 31.7881C33.2821 32.4017 33.4806 32.9986 33.7452 33.5669C33.2077 33.2228 32.8159 32.6926 32.6448 32.0777C32.3759 31.3041 32.6448 30.5057 32.8723 29.4756C33.0999 28.3834 32.5372 27.5271 33.133 25.8145Z" fill="white"/>
<path d="M32.4215 27.2207C32.4678 28.0591 32.367 28.8992 32.1236 29.7028C31.7927 30.5302 31.983 31.945 31.983 31.945C31.6939 31.39 31.5381 30.7753 31.5279 30.1496C31.5279 29.2064 31.9747 28.4866 32.4215 27.2207Z" fill="white"/>
<path d="M37.8986 4.2773C37.9731 4.49242 37.82 4.83578 37.1457 4.47173C36.6369 4.19456 36.5459 3.32996 36.5459 3.32996C36.5459 3.32996 36.761 3.18517 37.2988 3.55749C37.5851 3.70983 37.8004 3.9682 37.8986 4.2773Z" fill="#FFB680"/>
</svg>
