<svg width="56" height="56" viewBox="0 0 56 56" fill="none" xmlns="http://www.w3.org/2000/svg">
<g clip-path="url(#clip0)">
<path d="M25.2984 55.5555C33.2589 55.5555 39.7121 49.8427 39.7121 42.7956C39.7121 35.7485 33.2589 30.0356 25.2984 30.0356C17.3379 30.0356 10.8847 35.7485 10.8847 42.7956C10.8847 49.8427 17.3379 55.5555 25.2984 55.5555Z" fill="#3357BC"/>
<path d="M16.8381 32.9874C17.0136 30.3022 21.4254 29.3702 27.2097 29.6587C32.994 29.9472 36.4972 33.3535 37.1677 34.8903C37.7944 36.2994 32.7809 38.685 26.9841 38.3854C21.1873 38.0858 16.6626 35.6725 16.8381 32.9874Z" fill="#4D87DB"/>
<g style="mix-blend-mode:multiply">
<path d="M30.2054 32.0283L10.7782 44.0116C10.7782 44.0116 12.0316 33.615 15.5285 32.3945C19.0253 31.174 23.8571 31.2128 27.191 31.3626C28.2385 31.3882 29.2671 31.6154 30.2054 32.0283Z" fill="url(#paint0_linear)"/>
</g>
<path d="M47.2888 40.582C48.1097 42.1132 49.1688 45.686 49.7579 46.6291C50.5851 47.8776 51.5129 49.0716 52.5341 50.2019C52.7472 50.324 47.6961 49.1811 47.6147 48.9648C47.5332 48.7484 47.7901 47.7276 47.6585 47.3004C47.5269 46.8732 45.9728 44.4211 44.9011 42.7457C43.8295 41.0702 47.2888 40.582 47.2888 40.582Z" fill="#D3A197"/>
<path d="M26.1258 30.158C27.423 31.9222 28.8456 32.9985 31.3147 32.8542C33.1948 32.7433 35.7015 35.5505 41.1098 37.4478L45.0641 43.6447L48.6864 42.9901C48.6864 42.9901 46.5431 36.2828 45.0641 34.5352C42.8457 31.9167 36.372 29.7142 32.3049 27.9777C31.0086 27.3514 29.5781 26.9734 28.1061 26.8682L26.1258 30.158Z" fill="black"/>
<path d="M52.6345 49.9742C52.739 49.5183 52.7087 49.0463 52.5467 48.6039C52.2146 48.2544 51.8511 48.2876 51.6631 48.676C51.5688 49.2072 51.5688 49.7481 51.6631 50.2793L52.6345 49.9742Z" fill="#2C4D75"/>
<path d="M47.6959 47.4727C47.0692 48.0274 46.712 48.3714 46.712 49.248C47.1946 50.0246 53.5366 52.7264 53.5366 52.7264C53.7161 52.7979 53.9232 52.7905 54.0956 52.7066C54.2681 52.6226 54.386 52.4717 54.414 52.2992C54.5581 51.8388 53.2734 51.0843 52.6091 49.8194C51.4497 50.1134 51.6565 48.9151 50.8732 48.9484C48.9305 49.026 47.6959 47.4727 47.6959 47.4727Z" fill="#2C4D75"/>
<path d="M48.6551 49.8465C48.0522 49.4882 47.3991 49.201 46.7123 48.9922C46.6121 49.1531 46.3301 49.547 46.493 49.6524C46.6559 49.7578 51.074 52.5761 53.2925 52.9811C53.694 53.009 54.0808 52.841 54.3015 52.5428C54.1292 52.7089 53.8482 52.7438 53.6309 52.626C50.6542 51.6662 49.9836 50.5733 48.6551 49.8465Z" fill="#232121"/>
<path d="M53.3364 50.9175L52.2209 50.4349C52.1908 50.4212 52.1733 50.3925 52.1771 50.3628C52.1805 50.3343 52.2026 50.3104 52.2335 50.3017L52.5656 50.2185L51.6381 49.8746C51.6004 49.8617 51.579 49.8263 51.588 49.7913C51.5969 49.7581 51.6309 49.7349 51.6694 49.7359H52.6095C52.6545 49.7359 52.6909 49.7682 52.6909 49.808C52.6909 49.8478 52.6545 49.8801 52.6095 49.8801H52.0956L52.8539 50.163C52.8864 50.175 52.9067 50.2041 52.904 50.2352C52.903 50.2657 52.8804 50.2924 52.8476 50.3017L52.4904 50.3905L53.4116 50.7844C53.4516 50.8039 53.468 50.8474 53.4492 50.8843C53.4337 50.9081 53.4051 50.9229 53.374 50.9231H53.3364V50.9175Z" fill="white"/>
<path d="M48.7864 41.2427C49.6199 42.7905 50.7041 46.4021 51.2932 47.3453C52.1318 48.6074 53.0722 49.8144 54.107 50.9569C54.3263 51.0789 49.2126 49.925 49.1311 49.7031C49.0496 49.4812 49.3128 48.4548 49.175 48.0387C49.0371 47.6226 47.4641 45.1261 46.3862 43.4285C45.3083 41.7309 48.7864 41.2427 48.7864 41.2427Z" fill="#E5C3B7"/>
<path d="M27.3791 30.7023C28.6889 32.4887 30.1303 33.5761 32.6245 33.4318C34.5045 33.3209 37.0113 36.1613 42.5386 38.0809L46.5368 44.3499L50.2029 43.6842C50.2029 43.6842 48.0346 36.8992 46.5368 35.1295C44.2933 32.4776 38.3461 29.626 34.2288 27.8674C32.7957 27.2146 31.2149 26.8562 29.6039 26.8188L27.3791 30.7023Z" fill="white"/>
<path d="M54.1949 50.7511C54.3013 50.2917 54.2711 49.8157 54.1071 49.3697C53.775 49.0147 53.4053 49.0479 53.2173 49.4418C53.1221 49.9785 53.1221 50.5251 53.2173 51.0618L54.1949 50.7511Z" fill="#2C4D75"/>
<path d="M49.2002 48.2158C48.5735 48.7706 48.2037 49.1257 48.2037 50.0133C48.6925 50.8011 55.0972 53.5306 55.0972 53.5306C55.2789 53.6067 55.4908 53.6011 55.667 53.5154C55.8432 53.4297 55.9622 53.2744 55.9871 53.0979C56.1313 52.6319 54.8278 51.8718 54.1635 50.5903C52.9916 50.8843 53.1984 49.6749 52.4088 49.7082C50.4535 49.7914 49.2002 48.2158 49.2002 48.2158Z" fill="#2C4D75"/>
<path d="M50.1715 50.6179C49.5611 50.2546 48.8996 49.9636 48.2038 49.7524C48.1035 49.9133 47.8215 50.3072 47.9844 50.4182C48.1474 50.5291 52.6156 53.3752 54.8779 53.7801C55.2845 53.8086 55.6762 53.6384 55.8994 53.3363C55.725 53.5033 55.4418 53.5381 55.2226 53.4195C52.202 52.4653 51.5126 51.3558 50.1715 50.6179Z" fill="#232121"/>
<path d="M54.9029 51.7001L53.7749 51.2119C53.7423 51.2 53.7221 51.1709 53.7248 51.1398C53.7266 51.1078 53.7521 51.0806 53.7874 51.0732L54.1259 50.9845L53.1858 50.635C53.1481 50.6221 53.1268 50.5867 53.1357 50.5518C53.1419 50.5163 53.1766 50.4903 53.2172 50.4907H54.1635C54.2085 50.4907 54.2449 50.523 54.2449 50.5628C54.245 50.583 54.2356 50.6022 54.2189 50.6159C54.2022 50.6296 54.1799 50.6365 54.1572 50.635H53.637L54.4079 50.9179C54.4404 50.9298 54.4607 50.9589 54.458 50.99C54.4543 51.0214 54.4296 51.0478 54.3953 51.0566L54.0381 51.1454L54.9719 51.5504C54.9923 51.5587 55.008 51.5742 55.0151 51.5931C55.0222 51.612 55.0202 51.6327 55.0095 51.6502C54.9968 51.6771 54.9672 51.6946 54.9343 51.6946H54.8967L54.9029 51.7001Z" fill="white"/>
<path d="M5.72108 31.989C7.22512 32.7379 8.8169 31.7893 9.42478 31.3954C10.7972 30.5077 13.3478 27.756 13.5045 27.8947C13.6612 28.0334 14.9772 34.1859 11.4051 34.43C10.3272 34.5021 9.83839 34.6464 9.92612 35.4286C9.10517 35.1346 5.79629 35.3842 4.00397 36.3717C2.21166 37.3593 5.72108 31.989 5.72108 31.989Z" fill="#E5C3B7"/>
<g style="mix-blend-mode:multiply">
<path d="M6.6734 32.2109L12.9402 32.3718L12.2321 34.3968C11.2676 34.2593 10.2874 34.5423 9.60001 35.1568C8.72265 35.9945 5.00642 36.0001 5.00642 36.0001L4.70561 34.8461L6.6734 32.2109Z" fill="url(#paint1_linear)"/>
</g>
<path d="M8.73539 39.3068C7.21881 41.8977 4.64942 42.2083 2.32442 41.1376C-0.000569552 40.0669 -0.332711 37.8589 1.17759 35.2681C1.45397 34.7904 1.77468 34.3339 2.13642 33.9033C2.22372 33.5838 2.28653 33.2594 2.32442 32.9324C2.43723 32.7161 2.80697 32.7715 3.17044 32.888C4.42381 31.8728 5.90905 31.4955 7.36922 32.1668C9.69421 33.2265 10.2457 36.716 8.73539 39.3068Z" fill="#E5C3B7"/>
<path d="M7.43168 32.1764C7.10311 32.0401 6.7612 31.9306 6.41019 31.8491C8.29024 33.6522 4.45494 39.3276 3.40838 40.0432C3.70292 40.3206 1.94821 40.9531 2.38689 41.1528C4.71188 42.218 7.28128 41.9073 8.79785 39.3165C10.3144 36.7256 9.75668 33.2416 7.43168 32.1764Z" fill="#D3A197"/>
<path d="M3.22677 37.8639L0.237489 37.642C-0.295191 38.0637 -0.219989 40.4159 3.47744 41.6864C6.86779 42.8403 8.57237 41.3258 9.62519 39.6892C10.678 38.0526 10.3208 35.1455 10.3208 35.1455C10.3208 35.1455 6.78632 35.1899 6.98059 35.9499C7.10593 36.416 6.91166 37.8695 6.21604 37.6587C5.98169 37.5406 5.81699 37.3381 5.76483 37.1039L3.22677 37.8639Z" fill="black"/>
<path d="M9.20868 42.4322C9.51975 41.4466 8.94502 40.4431 7.925 40.1908C6.90497 39.9385 5.82591 40.533 5.51485 41.5186C5.20378 42.5042 5.77851 43.5077 6.79853 43.76C7.81855 44.0123 8.89762 43.4178 9.20868 42.4322Z" fill="black"/>
<path d="M12.3513 30.5907C13.3477 28.71 12.3012 28.7488 12.3012 28.7488C13.6736 27.8279 14.8079 26.6795 15.5474 26.4243C16.5639 26.1006 17.6797 26.1203 18.6808 26.4797C19.2511 26.7793 22.5599 26.219 23.8008 26.1302C26.4355 25.9566 29.0811 25.9566 31.7158 26.1302C30.9685 28.0863 30.1067 30.0066 29.1338 31.8833C28.8957 32.3549 25.0667 28.6656 16.055 33.9471C13.5984 35.3895 14.9207 35.0566 11.5554 32.8985C11.4238 31.8999 11.9251 31.384 12.3513 30.5907Z" fill="#4D87DB"/>
<path d="M14.2375 35.6056C17.5464 35.0508 18.0477 31.883 24.6279 31.9552C28.977 32.0051 28.5258 32.5099 28.7076 32.3823C29.0836 32.1604 29.8293 30.6126 30.3745 29.3033C28.5821 28.7351 26.6947 28.4369 24.7908 28.4212C22.5609 28.2613 20.3189 28.5457 18.2294 29.2534C17.2706 29.5585 12.0503 32.0883 11.6054 31.9052C11.1479 32.6503 11.0356 33.5237 11.2921 34.3407C14.5508 36.3213 11.3359 36.0772 14.2375 35.6056Z" fill="#C2C2C2"/>
<path d="M16.1051 34.3739C15.8168 36.1825 11.5867 41.586 11.2483 42.9452C10.6216 45.4639 6.86154 47.9105 6.08446 49.7191C5.957 50.5884 5.72808 51.4436 5.40137 52.2711C4.98708 52.9772 4.42079 53.6048 3.7344 54.1185C3.34585 54.3293 3.10771 53.8189 3.23932 53.4694C3.57653 52.867 3.84726 52.2372 4.04774 51.5887C3.81587 51.8661 3.27692 52.8758 2.98864 52.7482C2.83197 52.6816 3.48372 51.5665 3.61533 51.1449C3.72353 50.5101 4.10259 49.9363 4.67442 49.5416C4.67442 49.5416 6.89914 44.3433 8.32171 41.9023C8.32171 41.9023 10.7908 35.9384 11.7121 34.0577C12.6333 32.177 16.5563 31.5944 16.1051 34.3739Z" fill="#E5C3B7"/>
</g>
<defs>
<linearGradient id="paint0_linear" x1="30.9276" y1="44.5035" x2="31.5663" y2="30.0086" gradientUnits="userSpaceOnUse">
<stop stop-color="white"/>
<stop offset="0.17" stop-color="#FCFCFC"/>
<stop offset="0.31" stop-color="#F4F2F1"/>
<stop offset="0.44" stop-color="#E6E2E0"/>
<stop offset="0.57" stop-color="#D3CBC8"/>
<stop offset="0.69" stop-color="#B9AEA9"/>
<stop offset="0.71" stop-color="#B3A6A1"/>
</linearGradient>
<linearGradient id="paint1_linear" x1="11.2905" y1="29.2356" x2="7.15228" y2="34.2819" gradientUnits="userSpaceOnUse">
<stop stop-color="white"/>
<stop offset="0.17" stop-color="#FCFCFC"/>
<stop offset="0.31" stop-color="#F4F2F1"/>
<stop offset="0.44" stop-color="#E6E2E0"/>
<stop offset="0.57" stop-color="#D3CBC8"/>
<stop offset="0.69" stop-color="#B9AEA9"/>
<stop offset="0.71" stop-color="#B3A6A1"/>
</linearGradient>
<clipPath id="clip0">
<rect width="56" height="56" fill="white"/>
</clipPath>
</defs>
</svg>
