<svg width="56" height="56" viewBox="0 0 56 56" fill="none" xmlns="http://www.w3.org/2000/svg">
<g clip-path="url(#clip0)">
<path fill-rule="evenodd" clip-rule="evenodd" d="M15.8846 33.1364C15.7981 33.7292 15.4519 34.1949 15.1923 34.1526C14.8894 34.1103 14.7596 33.5598 14.8461 32.9671C14.9327 32.3743 15.2788 31.9086 15.5384 31.9509C15.8413 31.9933 16.0144 32.5437 15.8846 33.1364Z" fill="#4C4C4C"/>
<path fill-rule="evenodd" clip-rule="evenodd" d="M15.625 33.4329L39.25 47.3205C38.9038 47.4476 38.9038 47.2359 38.9038 47.5746L15.3221 33.7293C14.9327 33.5176 15.2355 33.1789 15.625 33.4329Z" fill="#FF6600"/>
<path fill-rule="evenodd" clip-rule="evenodd" d="M35.4856 44.992L39.1634 47.1937C39.5529 47.4477 39.0336 48.2098 38.7307 47.9134C38.5144 47.6594 38.3413 47.4054 38.0384 47.1937L35.1394 45.4577C35.0096 45.373 34.9663 45.2037 35.0529 45.0343C35.1394 44.9496 35.3557 44.9073 35.4856 44.992Z" fill="#333333"/>
<path fill-rule="evenodd" clip-rule="evenodd" d="M12.726 33.2212C12.6394 33.814 12.3365 34.322 12.0769 34.2797C11.774 34.2374 11.601 33.7293 11.6875 33.0942C11.774 32.5014 12.0769 31.9933 12.3365 32.0357C12.6394 32.078 12.8125 32.6284 12.726 33.2212Z" fill="#4C4C4C"/>
<path fill-rule="evenodd" clip-rule="evenodd" d="M12.5096 33.5599L36.6538 46.5583C36.351 46.6854 36.3077 46.516 36.3077 46.8547L12.2067 33.8563C11.8173 33.6446 12.1202 33.3058 12.5096 33.5599Z" fill="#FF6600"/>
<path fill-rule="evenodd" clip-rule="evenodd" d="M32.8029 44.3568L36.5673 46.4315C36.9567 46.6432 36.4808 47.4476 36.1779 47.1936C35.9183 46.9819 35.7885 46.6855 35.4423 46.5161L32.5 44.9072C32.3702 44.8225 32.2837 44.6532 32.3702 44.4838C32.4567 44.3145 32.6298 44.2721 32.8029 44.3568Z" fill="#333333"/>
<path fill-rule="evenodd" clip-rule="evenodd" d="M27.5673 30.9772C27.7404 30.2574 27.7404 29.6646 27.4807 29.1142C27.5673 28.5214 29.8173 28.0557 29.9904 29.2836C29.9904 31.2312 30.899 34.5761 31.2884 36.4814C31.3317 37.0318 30.3798 38.0903 29.9904 37.2435C29.3846 35.931 27.2644 33.2635 27.5673 30.9772Z" fill="#3F68BA"/>
<path fill-rule="evenodd" clip-rule="evenodd" d="M12.3798 26.6582L11.0385 26.9969V27.3356L51.4519 52.02C52.0144 52.3587 53.8317 52.5704 55.0433 51.3426L54.9567 51.2156C54.6971 51.3849 53.5721 51.8507 52.9231 51.4696L12.3798 26.6582Z" fill="#527CD2"/>
<path fill-rule="evenodd" clip-rule="evenodd" d="M12.3365 26.3618L10.9952 27.0393L51.4086 51.7236C52.4904 52.4011 54.0048 52.02 54.9134 51.1732C54.2211 51.4696 53.399 51.4272 52.8798 51.1309L12.3365 26.3618Z" fill="#E30613"/>
<path fill-rule="evenodd" clip-rule="evenodd" d="M31.2885 36.1847C31.3317 37.0315 32.024 37.7513 32.7596 38.3017C34.7933 39.6143 34.3173 40.3341 33.0625 40.2494C32.3269 40.207 31.4183 39.953 30.8125 39.4449C30.3798 39.1062 30.2067 38.6404 29.6442 38.3017C29.5144 38.217 29.3846 38.4711 29.2548 38.3864C28.649 38.09 28 37.6243 28.3894 36.9468C28.6923 36.4811 28.6923 36.3964 29.2548 35.9307L31.2885 36.1847Z" fill="#1C2B59"/>
<path fill-rule="evenodd" clip-rule="evenodd" d="M30.9423 34.5337C31.0721 36.312 32.1538 37.8362 32.8029 38.2596C33.7548 38.9371 34.274 39.1488 34.1442 39.6569C33.7115 40.2073 31.7211 39.9956 30.8558 39.1911C30.3365 38.7254 30.2933 38.3867 29.5144 38.0056C29.0384 37.7516 28.4759 37.5399 28.4327 37.1164C28.3894 36.439 29.0817 36.2273 28.9086 35.8039L28.5625 34.7454C28.9952 35.1265 30.4231 35.0418 30.9423 34.5337Z" fill="#2B3E78"/>
<path fill-rule="evenodd" clip-rule="evenodd" d="M34.101 39.8262C33.9712 39.8685 33.7981 39.8685 33.7115 39.9109C33.5817 39.9532 33.2356 39.9955 33.0625 39.9955V40.2919C33.6683 40.546 34.7933 41.2234 35.1394 41.0117C35.1827 40.9694 35.226 40.9694 35.226 40.927V40.7577H35.1394C34.9231 40.5036 34.3606 40.1226 34.101 39.8262Z" fill="#575756"/>
<path fill-rule="evenodd" clip-rule="evenodd" d="M34.101 39.5298C33.9712 39.7415 33.4087 39.9108 33.0625 39.9532C33.6683 40.2072 34.7933 41.0117 35.1827 40.8423C35.5288 40.673 34.4471 39.9108 34.101 39.5298Z" fill="#878787"/>
<path fill-rule="evenodd" clip-rule="evenodd" d="M30.25 34.8724C30.5962 36.6507 31.1587 38.2173 32.4567 38.8524C32.8894 39.0641 33.2356 38.9371 33.4087 38.683C33.2356 38.556 33.0192 38.429 32.8029 38.2596C32.1971 37.8362 31.1154 36.312 30.9423 34.5337C30.7692 34.7031 30.5096 34.7877 30.25 34.8724Z" fill="#1C2B59"/>
<path fill-rule="evenodd" clip-rule="evenodd" d="M30.9856 34.957C30.5529 35.211 29.9038 35.3804 29.2115 35.211C29.2115 35.5074 29.2548 35.9731 29.6875 36.1425C30.4231 36.2272 30.899 36.1002 31.2452 35.8885C31.3317 35.8461 31.1154 34.9146 30.9856 34.957Z" fill="#1C2B59"/>
<path fill-rule="evenodd" clip-rule="evenodd" d="M28.0865 10.1456C28.5625 10.569 29.2548 11.6275 30.9423 11.8815C30.9423 11.8815 31.9375 10.4419 31.4615 9.9762C30.7692 9.46812 30.5961 8.57897 29.4279 7.81685C27.4375 5.57281 26.399 6.41962 25.9663 7.18174C25.5336 7.98621 25.8798 8.91769 28.0865 10.1456Z" fill="#3F68BA"/>
<path fill-rule="evenodd" clip-rule="evenodd" d="M23.1538 22.382C23.8029 23.4405 23.4135 24.0333 23.8894 25.1341C24.5817 26.7007 27.1779 28.225 27.4808 29.0718C28 30.0879 29.5577 30.5113 30.0337 29.7915C30.25 29.4528 30.0769 28.5637 29.774 27.9709C29.6875 27.5052 28.9519 24.245 28.6058 23.2288C28.3029 22.382 27.6106 21.1541 26.3558 19.6299C25.8798 19.7146 25.4471 19.4605 24.5385 19.8839C22.5913 20.9424 23.0673 22.255 23.1538 22.382Z" fill="#3F68BA"/>
<path fill-rule="evenodd" clip-rule="evenodd" d="M20.2548 22.6358C20.2116 23.779 20.3414 25.2609 20.3846 26.4888C20.4279 27.9284 21.1635 29.1562 20.5577 31.0616C20.3846 31.993 21.5529 32.7128 22.8942 32.6281C23.1106 32.4164 23.5866 31.612 23.6298 30.4688C24.0192 29.7914 24.9279 28.3518 25.0577 25.8537C25.101 24.2871 25.4904 23.3133 25.3606 22.0007C25.3606 22.0007 24.5817 20.3495 22.375 20.3071C20.5577 20.3071 20.1683 22.1701 20.2548 22.6358Z" fill="#527CD2"/>
<path fill-rule="evenodd" clip-rule="evenodd" d="M21.6827 24.5414C21.6827 24.372 24.6683 23.2711 25.2308 23.9486C26.4856 23.5675 25.8798 22.0433 25.8365 20.4344C24.5817 20.011 21.5961 20.3497 20.3413 19.9263C19.2163 22.128 20.9038 23.7792 21.6827 24.5414Z" fill="#527CD2"/>
<path fill-rule="evenodd" clip-rule="evenodd" d="M23.5865 7.01222C23.4135 7.05456 21.7692 8.15541 20.8606 9.12924C20.2115 9.89136 20.1683 11.585 20.1683 11.839C19.3894 14.2947 21.0336 16.7081 20.0385 20.4764C20.2115 22.5088 25.8798 22.043 26.8317 20.0954C26.6586 18.6135 27.9567 13.7443 28.1731 12.8975C28.8221 11.7967 28.3894 10.3994 28.2596 9.00222C28.1731 8.19775 28.3029 7.56265 27.9567 7.01222C27.7404 6.6735 27.3077 6.29244 26.9183 6.33478C25.4904 6.4618 23.8029 6.96988 23.5865 7.01222Z" fill="#FFCC00"/>
<path fill-rule="evenodd" clip-rule="evenodd" d="M22.7644 12.3474C22.8942 14.2527 21.8125 17.6823 21.8125 17.6823C21.25 18.4021 19.3029 17.5129 19.5192 16.7508C19.9952 14.6338 18.5241 14.4221 19.5192 11.5853C19.0866 8.96018 20.9039 8.49444 21.9423 8.83316C22.7644 9.12954 23.5433 9.67997 22.7644 12.3474Z" fill="#3F68BA"/>
<path fill-rule="evenodd" clip-rule="evenodd" d="M2.38462 30.3843L1.04327 30.723V31.0617L41.4567 55.7461C42.0192 56.0848 43.8365 56.2965 45.0481 55.0687L44.9615 54.9416C44.7019 55.111 43.5769 55.5767 42.9279 55.1957L2.38462 30.3843Z" fill="#527CD2"/>
<path fill-rule="evenodd" clip-rule="evenodd" d="M2.34135 30.0879L1 30.7653L41.4135 55.4497C42.4952 56.1271 44.0096 55.7461 44.9183 54.8993C44.226 55.1957 43.4038 55.1533 42.8846 54.8569L2.34135 30.0879Z" fill="#E30613"/>
<path fill-rule="evenodd" clip-rule="evenodd" d="M19.2596 33.8136C19.476 33.0514 20.5144 31.4848 20.6442 30.638C20.7308 30.0029 23.024 31.1461 22.8942 32.6704C22.2885 35.3801 20.6875 37.6242 20.9471 40.4186C20.0817 40.5457 19.1731 40.1646 18.9567 39.7412C19.0433 37.6242 18.6538 35.8882 19.2596 33.8136Z" fill="#527CD2"/>
<path fill-rule="evenodd" clip-rule="evenodd" d="M21.2933 39.9108C21.3365 40.7576 22.0288 41.4774 22.7644 42.0278C24.7981 43.3403 24.3221 44.0601 23.0673 43.9754C22.3317 43.9331 21.4231 43.6791 20.8173 43.171C20.3846 42.8323 20.0817 42.2395 19.5192 41.9008C19.3894 41.8161 19.2596 42.0701 19.1298 41.9855C18.524 41.6891 17.875 41.2233 18.2644 40.5459C18.5673 40.0801 18.6971 40.1225 19.3029 39.6567L21.2933 39.9108Z" fill="#1C2B59"/>
<path fill-rule="evenodd" clip-rule="evenodd" d="M21.2067 38.3866C20.8606 40.0802 22.1587 41.6044 22.7644 42.0278C23.7164 42.7053 24.2356 42.917 24.1058 43.4251C23.6731 43.9755 21.6827 43.7638 20.8173 42.9593C20.2981 42.4936 20.0385 42.0278 19.3029 41.6468C18.8269 41.3927 18.2644 41.181 18.2212 40.7576C18.351 40.2072 18.9567 39.6991 18.9135 39.5721L18.9567 38.3442C19.3894 38.7253 20.4712 38.937 21.2067 38.3866Z" fill="#2B3E78"/>
<path fill-rule="evenodd" clip-rule="evenodd" d="M24.1058 43.5942C23.9759 43.6366 23.8029 43.6366 23.7163 43.6789C23.5865 43.7213 23.2404 43.7636 23.0673 43.7636V44.06C23.6731 44.314 24.7981 44.9915 25.1442 44.7798C25.1875 44.7374 25.2308 44.7374 25.2308 44.6951V44.5257H25.1442C24.9279 44.2717 24.3654 43.8483 24.1058 43.5942Z" fill="#575756"/>
<path fill-rule="evenodd" clip-rule="evenodd" d="M24.1058 43.2979C23.9759 43.5096 23.4134 43.6789 23.0673 43.7213C23.6731 43.9753 24.7981 44.7798 25.1875 44.6104C25.5336 44.441 24.4519 43.6789 24.1058 43.2979Z" fill="#878787"/>
<path fill-rule="evenodd" clip-rule="evenodd" d="M20.2548 38.683C20.601 40.4613 21.1635 41.9855 22.4183 42.5783C22.851 42.79 23.1971 42.6629 23.3702 42.4089C23.1971 42.2819 22.9808 42.1549 22.7644 41.9855C22.1587 41.5621 20.9471 40.2072 21.2067 38.3442C21.0769 38.5559 20.6442 38.6406 20.2548 38.683Z" fill="#1C2B59"/>
<path fill-rule="evenodd" clip-rule="evenodd" d="M20.9904 38.7251C20.5577 38.9791 19.9086 39.1485 19.2163 38.9791C19.2163 39.2755 19.2596 39.7413 19.6923 39.9106C20.4279 39.9953 20.9038 39.8683 21.25 39.6566C21.3365 39.5719 21.1202 38.6828 20.9904 38.7251Z" fill="#1C2B59"/>
<path fill-rule="evenodd" clip-rule="evenodd" d="M19.1731 17.4706C18.0481 15.65 18.5241 12.7708 18.3077 12.0087C18.2212 11.7547 19.476 11.3736 19.6491 12.0087C19.9087 13.0672 20.0817 14.041 21.2933 15.904C21.5529 16.3274 22.2019 17.5976 21.5096 17.9787C20.8173 18.4021 19.9519 18.7831 19.1731 17.4706Z" fill="#527CD2"/>
<path fill-rule="evenodd" clip-rule="evenodd" d="M18.6971 9.97613C18.4808 9.97613 17.875 10.1455 17.6586 10.1878C17.3558 10.2725 17.226 10.3995 16.9663 10.4842C17.0529 10.6959 17.2692 10.7806 17.7885 10.5689C18.5673 10.3572 18.9567 10.9076 19.3461 10.3995C19.5192 10.1455 19.476 9.93378 18.6971 9.97613Z" fill="#2B3E78"/>
<path fill-rule="evenodd" clip-rule="evenodd" d="M18.4808 10.2725C18.2644 10.3572 18.0481 10.3996 17.9615 10.6536C17.9183 11.204 17.7019 12.6859 17.7019 12.7706C17.7019 12.8976 17.7019 12.7706 17.7019 12.94C17.7019 13.1517 17.875 13.1517 18.1346 12.94C18.524 12.9823 18.5673 12.8129 18.6538 12.5589C18.8702 12.6436 19 12.6012 19.1731 12.0085C19.3894 11.9661 19.3461 12.0085 19.4327 11.8815C19.5625 11.5004 19.6923 11.2887 19.6923 10.6959C19.6923 10.6959 19.7788 10.5266 19.7788 10.4842C19.6058 10.2302 19.1731 9.89147 18.6538 9.97615C18.6106 9.97615 18.6106 10.1879 18.4808 10.2725Z" fill="#1C2B59"/>
<path fill-rule="evenodd" clip-rule="evenodd" d="M26.3557 4.85312C26.3557 4.85312 26.1394 6.16567 26.9615 7.35119C25.9663 9.29885 24.3654 8.79076 23.8029 6.84311C24.2788 6.29269 24.4519 5.61524 24.625 4.5144C24.4952 4.00631 26.3557 4.85312 26.3557 4.85312Z" fill="#CF8453"/>
<path fill-rule="evenodd" clip-rule="evenodd" d="M26.4423 6.12305C26.5288 6.50411 26.6587 6.92751 26.9615 7.35091C27.1779 7.90134 26.7885 8.4941 26.4423 8.7058C25.6202 9.21388 22.7644 8.66346 23.8029 6.84283C24.3654 7.6473 26.226 7.39325 26.4423 6.12305Z" fill="#3F68BA"/>
<path fill-rule="evenodd" clip-rule="evenodd" d="M22.375 3.62509C22.375 3.83679 22.6779 3.87913 22.375 4.81061C22.2019 5.40338 22.2884 5.40338 22.5913 6.3772C22.7644 6.92763 23.1538 8.07081 24.8413 7.01231C24.8413 7.01231 26.4423 5.61508 26.875 4.47189C27.2211 3.3287 27.0913 2.2702 26.0961 1.46573C26.2692 1.46573 22.6779 0.322545 22.375 3.62509Z" fill="#F2B387"/>
<path fill-rule="evenodd" clip-rule="evenodd" d="M22.7644 2.73611C22.851 3.03249 22.6779 2.90547 22.8942 2.99015C23.5433 2.94781 23.7163 2.82079 24.5385 3.07483C25.1442 3.28653 24.4952 3.70994 24.7981 4.091C24.9279 4.21802 25.3173 4.68376 25.274 4.89546H25.6635C26.1394 4.17568 26.226 4.98015 26.399 5.99631C26.399 5.99631 26.7885 5.27653 27.0913 4.42972C27.351 3.6676 27.5673 2.82079 27.2212 2.18569C26.7452 1.29654 25.8798 0.492077 23.6731 1.38122C23.2837 1.50824 22.5913 1.97399 22.7644 2.73611Z" fill="#704321"/>
<path fill-rule="evenodd" clip-rule="evenodd" d="M26.1394 4.3025C26.5288 4.34484 26.5721 4.68356 26.5288 5.06463C26.4856 5.44569 26.1394 5.99611 25.9231 5.82675C25.6635 5.61505 25.7933 5.53037 25.7067 5.19165C25.6635 5.06463 25.6635 4.89527 25.6635 4.76824C25.6635 4.5142 25.7933 4.26016 26.1394 4.3025Z" fill="#F1B287"/>
<path fill-rule="evenodd" clip-rule="evenodd" d="M27.3942 2.90526C25.4039 3.41334 23.1539 3.07462 22.8942 2.01611C22.6346 2.39718 22.4183 2.9476 22.4183 3.49802C23.0673 4.26015 24.149 4.89525 27.1346 4.47185C27.3077 4.00611 27.5673 3.41334 27.3942 2.90526Z" fill="#FF0000"/>
<path fill-rule="evenodd" clip-rule="evenodd" d="M22.4183 9.17156C23.0673 9.55262 23.7596 8.95986 23.8894 8.49412C23.976 8.24008 23.2404 8.1554 23.4135 8.02838L25.1442 7.01221C25.1875 6.96987 25.2308 6.96987 25.274 6.96987C25.3173 6.96987 25.3606 6.96987 25.3606 7.01221L25.6635 7.13923L27.6971 6.12306C27.7836 6.08072 27.8269 6.08072 27.9135 6.12306L28.2596 6.29242L28.0865 7.26625L28.0433 7.22391V8.95986C28.0433 9.38326 27.8702 9.46794 27.6971 9.46794L23.0673 10.2301L23.1971 10.3994C23.1971 10.4418 23.2404 10.4841 23.1971 10.5265C23.1538 10.7805 22.6779 10.8228 22.5913 10.7382L21.9856 9.55263C21.4231 9.84901 20.601 10.8652 20.2115 11.0769C19.9952 11.1616 19.9952 11.1616 19.7788 11.2462C19.649 11.0769 19.2163 11.2039 19.1731 11.5003L13.7644 13.7443L13.375 14.1254L13.0721 13.9984C13.0288 13.9984 13.0288 13.956 13.0288 13.8713L13.2452 13.0245L17.7452 10.5265L17.9615 10.3571L22.0288 8.3671L22.4183 9.17156Z" fill="#AB480F"/>
<path fill-rule="evenodd" clip-rule="evenodd" d="M22.4615 11.0769C22.3317 11.0346 22.2885 11.0346 22.1587 10.9499L21.8125 10.3995C21.9856 10.4418 22.1154 8.8752 22.4615 11.0769Z" fill="#7D2F02"/>
<path fill-rule="evenodd" clip-rule="evenodd" d="M22.0721 9.97639V10.6115L21.2932 11.0772V10.9079L21.6394 10.7385C21.7259 10.6962 21.8125 10.5268 21.8125 10.3998V10.1458C21.8125 10.0187 21.7259 9.93405 21.6394 10.0187L21.2932 10.1881V8.57916L22.0721 8.15576L22.2884 8.28278C21.5529 9.72235 22.0721 9.80703 22.0721 9.97639ZM21.25 11.0772L21.0769 11.1619C20.125 11.0349 18.7836 11.2466 18.7836 9.84937L21.25 8.53682V10.1458L20.9038 10.3151C20.8173 10.3575 20.7307 10.5268 20.7307 10.6538V10.9079C20.7307 11.0349 20.8173 11.1196 20.9038 11.0349L21.25 10.8655V11.0772Z" fill="#3C3C3B"/>
<path fill-rule="evenodd" clip-rule="evenodd" d="M21.8125 8.02834C20.601 8.74812 19.4327 9.42557 18.2212 10.103C18.1779 10.3994 18.351 10.5688 18.5241 10.6958L22.2452 8.66344C22.2885 8.6211 22.3318 8.57876 22.3318 8.49408C22.3318 8.32472 22.2019 8.11302 22.0721 8.02834C21.9423 7.986 21.8558 7.986 21.8125 8.02834Z" fill="url(#paint0_linear)"/>
<path fill-rule="evenodd" clip-rule="evenodd" d="M20.2115 8.74852L21.5962 7.85938V8.24044L20.2981 9.0449C20.2548 9.00256 20.2115 8.96022 20.2115 9.00256V8.74852Z" fill="#1D1D1B"/>
<path fill-rule="evenodd" clip-rule="evenodd" d="M20.2548 8.79086L21.6394 7.85938L21.6827 8.28278L20.2981 9.0449L20.2548 8.79086Z" fill="#3C3C3B"/>
<path fill-rule="evenodd" clip-rule="evenodd" d="M21.5961 7.30857L20.6442 7.90134L20.9038 8.32474L21.899 7.81666C21.9423 7.81666 21.9856 7.73198 21.9856 7.68964C21.9856 7.56261 21.899 7.39325 21.7692 7.35091C21.6827 7.26623 21.6394 7.26623 21.5961 7.30857Z" fill="url(#paint1_linear)"/>
<path fill-rule="evenodd" clip-rule="evenodd" d="M20.7741 7.90138C20.8606 7.94372 20.9471 8.11308 20.9471 8.19776C20.9471 8.32478 20.8606 8.36712 20.7741 8.28244C20.6875 8.2401 20.601 8.07074 20.601 7.98606C20.5577 7.90138 20.6442 7.85904 20.7741 7.90138Z" fill="#575756"/>
<path fill-rule="evenodd" clip-rule="evenodd" d="M20.774 7.98634C20.8173 8.02868 20.9038 8.11336 20.9038 8.1557C20.9038 8.24038 20.8606 8.24038 20.774 8.24038C20.7308 8.19804 20.6442 8.11336 20.6442 8.07102C20.6442 7.98634 20.6875 7.944 20.774 7.98634Z" fill="#1D1D1B"/>
<path fill-rule="evenodd" clip-rule="evenodd" d="M18.3942 10.1033C18.524 10.188 18.6538 10.3573 18.6538 10.5267C18.6538 10.696 18.524 10.7384 18.3942 10.6537C18.2644 10.569 18.1346 10.3997 18.1346 10.2303C18.1346 10.1033 18.2644 10.0609 18.3942 10.1033Z" fill="#575756"/>
<path fill-rule="evenodd" clip-rule="evenodd" d="M18.2212 10.1881L9.56732 14.9725V15.4806L18.4375 10.5268C18.4808 10.5268 18.5241 10.4844 18.5241 10.3998C18.5241 10.3574 18.3942 10.1034 18.2212 10.1881Z" fill="url(#paint2_linear)"/>
<path fill-rule="evenodd" clip-rule="evenodd" d="M9.35096 14.93L8.00961 15.7345L8.35577 16.3273L9.74038 15.6075C9.82692 15.5651 9.82692 15.5228 9.82692 15.3958C9.82692 15.2264 9.69711 15.0147 9.52404 14.8877C9.48077 14.8877 9.4375 14.8877 9.35096 14.93Z" fill="url(#paint3_linear)"/>
<path fill-rule="evenodd" clip-rule="evenodd" d="M8.22595 15.7342C8.35576 15.8189 8.48557 15.9883 8.48557 16.1576C8.48557 16.327 8.35576 16.3693 8.22595 16.2847C8.09615 16.2 7.96634 16.0306 7.96634 15.8613C7.96634 15.6919 8.05288 15.6496 8.22595 15.7342Z" fill="#575756"/>
<path fill-rule="evenodd" clip-rule="evenodd" d="M8.22596 15.8193C8.3125 15.8617 8.39904 15.9887 8.39904 16.0734C8.39904 16.1581 8.3125 16.2004 8.22596 16.1581C8.13943 16.1157 8.05289 15.9887 8.05289 15.904C8.05289 15.8193 8.13943 15.777 8.22596 15.8193Z" fill="#1D1D1B"/>
<path fill-rule="evenodd" clip-rule="evenodd" d="M21.4231 10.1877C21.4663 10.2724 21.4663 10.4418 21.4663 10.5688C21.4231 10.6958 21.4231 10.6535 21.4231 10.7381L21.5096 10.7805C21.5529 10.6958 21.6394 10.4417 21.5961 10.3147C21.5961 10.23 21.5961 10.1877 21.5961 10.103L21.4231 10.1877Z" fill="#1D1D1B"/>
<path fill-rule="evenodd" clip-rule="evenodd" d="M21.4663 10.1881C21.5961 10.2304 21.6394 10.3998 21.5529 10.6115C21.5529 10.6538 21.5096 10.7385 21.5096 10.7808C21.5961 10.6538 21.6394 10.4844 21.6827 10.3574C21.7259 10.2304 21.6827 10.1457 21.6827 10.061L21.4663 10.1881Z" fill="#706F6F"/>
<path fill-rule="evenodd" clip-rule="evenodd" d="M22.5913 9.17164C23.2404 9.5527 23.8029 8.95994 23.9327 8.49419C24.0192 8.24015 23.3702 8.19781 23.5433 8.11313L25.4471 7.18164C25.7067 7.05462 25.75 7.43569 25.8365 7.39334L27.9567 6.2925C28.0865 6.20782 28.3029 6.2925 28.3029 6.46186V9.1293C28.3029 9.5527 28.1298 9.63738 27.9567 9.63738L23.3702 10.3572L23.5 10.5265C23.5 10.5689 23.5433 10.6112 23.5 10.6535C23.4567 10.9076 22.5048 11.1193 22.4183 11.0346L22.1586 10.5689L22.0721 10.6112L21.4231 10.9923V10.9076L21.7692 10.7382C21.8558 10.6959 21.9423 10.5265 21.9423 10.3995V10.1455C21.9423 10.0184 21.8558 9.93376 21.7692 10.0184L21.4231 10.1878V8.70589L22.2452 8.24015L22.5913 9.17164ZM21.4231 10.9923L21.0336 11.204C20.9471 11.2463 20.6442 11.1193 20.5144 11.204C20.2981 11.2886 20.2981 11.2886 20.0817 11.3733C19.9519 11.204 19.5192 11.331 19.4759 11.6274L13.6346 14.0408C13.4183 14.1254 13.3317 14.1254 13.375 13.9984L13.5913 13.1516L18.524 10.4418L18.5673 10.2725L21.4231 8.66355V10.1455L21.0769 10.3148C20.9904 10.3572 20.9038 10.5265 20.9038 10.6535V10.9076C20.9038 11.0346 20.9904 11.1193 21.0769 11.0346L21.4231 10.8652V10.9923Z" fill="#D97133"/>
<path fill-rule="evenodd" clip-rule="evenodd" d="M21.8558 8.74849C21.8125 8.79084 21.7692 8.83318 21.7692 8.91786C21.7692 9.00254 21.8125 9.00254 21.8558 8.9602C21.899 8.91786 21.9423 8.87552 21.9423 8.79084C21.9423 8.7485 21.899 8.70615 21.8558 8.74849Z" fill="#1D1D1B"/>
<path fill-rule="evenodd" clip-rule="evenodd" d="M23.6731 8.0708C24.6683 8.24016 24.5817 9.25633 24.0192 10.2725L23.3702 10.3572L23.5 10.5265C23.5 10.5689 23.5433 10.6112 23.5 10.6536C23.4567 10.9076 22.5048 11.1193 22.4183 11.0346L22.2019 10.6112C22.6346 9.97611 22.7211 9.55271 22.2884 8.2825L22.6346 9.17165C23.2836 9.55271 23.8461 8.95995 23.9759 8.4942C24.0625 8.24016 23.4134 8.19782 23.5865 8.11314L23.6731 8.0708Z" fill="#AB480F"/>
<path fill-rule="evenodd" clip-rule="evenodd" d="M8.22595 15.2264L8.65864 15.0146L8.96153 15.2264L8.22595 15.6498V15.2264Z" fill="#1D1D1B"/>
<path fill-rule="evenodd" clip-rule="evenodd" d="M8.26926 15.2687L8.70195 15.0146L9.00483 15.2687L8.26926 15.6498V15.2687Z" fill="#3C3C3B"/>
<path fill-rule="evenodd" clip-rule="evenodd" d="M9.00481 14.2949L8.05289 14.8877L8.3125 15.3111L9.3077 14.803C9.35096 14.803 9.39423 14.7183 9.39423 14.676C9.39423 14.5489 9.3077 14.3796 9.17789 14.3372C9.13462 14.2526 9.04808 14.2526 9.00481 14.2949Z" fill="url(#paint4_linear)"/>
<path fill-rule="evenodd" clip-rule="evenodd" d="M8.18269 14.8877C8.26923 14.93 8.35577 15.0994 8.35577 15.1841C8.35577 15.3111 8.26923 15.3534 8.18269 15.2688C8.09615 15.2264 8.00961 15.0571 8.00961 14.9724C8.00961 14.8877 8.09615 14.8454 8.18269 14.8877Z" fill="#575756"/>
<path fill-rule="evenodd" clip-rule="evenodd" d="M8.1827 14.9722C8.22596 15.0145 8.3125 15.0992 8.3125 15.1415C8.3125 15.2262 8.26923 15.2262 8.1827 15.2262C8.13943 15.1839 8.05289 15.0992 8.05289 15.0569C8.09616 14.9722 8.13943 14.9298 8.1827 14.9722Z" fill="#1D1D1B"/>
<path fill-rule="evenodd" clip-rule="evenodd" d="M19.8221 10.7806L15.1923 13.067C14.9327 13.194 14.7164 13.448 14.5865 13.7021L19.476 11.6697C19.5192 11.3734 19.9952 11.2463 20.0817 11.4157C20.2981 11.331 20.2981 11.331 20.5144 11.2463H20.5577C20.5577 11.204 20.5577 11.204 20.5577 11.1617C20.5577 10.7383 20.2115 10.5689 19.8221 10.7806Z" fill="#AB480F"/>
<path fill-rule="evenodd" clip-rule="evenodd" d="M21.5096 7.3501C21.4663 7.3501 21.4663 7.3501 21.4231 7.3501H21.3798V7.39244C21.3798 7.43478 21.4663 7.47712 21.5096 7.47712C21.5529 7.47712 21.5961 7.43478 21.6394 7.39244V7.3501H21.5961C21.5961 7.3501 21.5529 7.3501 21.5096 7.3501Z" fill="#3C3C3B"/>
<path fill-rule="evenodd" clip-rule="evenodd" d="M21.5096 7.30859C21.4231 7.30859 21.3798 7.35093 21.3798 7.39327C21.3798 7.43561 21.4663 7.47795 21.5096 7.47795C21.5961 7.47795 21.6394 7.43561 21.6394 7.39327C21.6394 7.35093 21.5529 7.30859 21.5096 7.30859Z" fill="#706F6F"/>
<path fill-rule="evenodd" clip-rule="evenodd" d="M21.5096 7.22314C21.4664 7.22314 21.4231 7.22314 21.3798 7.26548H21.3365V7.35017C21.3365 7.39251 21.4664 7.47719 21.5529 7.43485C21.6394 7.43485 21.726 7.39251 21.726 7.35017V7.26548H21.6394C21.5962 7.26548 21.5529 7.22314 21.5096 7.22314Z" fill="#575756"/>
<path fill-rule="evenodd" clip-rule="evenodd" d="M21.5096 7.18164C21.3798 7.18164 21.3365 7.22398 21.3365 7.30866C21.3365 7.351 21.4664 7.43568 21.5529 7.39334C21.6827 7.39334 21.726 7.351 21.726 7.26632C21.6827 7.22398 21.5962 7.18164 21.5096 7.18164Z" fill="#A4A3A3"/>
<path fill-rule="evenodd" clip-rule="evenodd" d="M21.899 7.73116V7.68882V7.64648H21.8558C21.8125 7.64648 21.8125 7.68882 21.8125 7.73116C21.8125 7.7735 21.8125 7.81584 21.8125 7.81584H21.8558V7.7735L21.899 7.73116Z" fill="#3C3C3B"/>
<path fill-rule="evenodd" clip-rule="evenodd" d="M21.9405 7.73019C21.9405 7.68785 21.9405 7.64551 21.8973 7.64551C21.854 7.64551 21.854 7.68785 21.854 7.73019C21.854 7.77253 21.854 7.81487 21.8973 7.81487C21.8973 7.81487 21.9405 7.77253 21.9405 7.73019Z" fill="#706F6F"/>
<path fill-rule="evenodd" clip-rule="evenodd" d="M21.9838 7.732C21.9838 7.68966 21.9838 7.68966 21.9838 7.64732V7.60498H21.9405C21.8973 7.60498 21.854 7.64732 21.854 7.732C21.854 7.77434 21.854 7.81668 21.8973 7.85902H21.9405V7.81668C21.9838 7.81668 21.9838 7.77434 21.9838 7.732Z" fill="#A4A3A3"/>
<path fill-rule="evenodd" clip-rule="evenodd" d="M22.0288 7.77546C22.0288 7.69078 22.0288 7.64844 21.9855 7.64844C21.9422 7.64844 21.899 7.69078 21.899 7.77546C21.899 7.86014 21.899 7.90248 21.9422 7.90248C21.9855 7.90248 22.0288 7.8178 22.0288 7.77546Z" fill="#575756"/>
<path fill-rule="evenodd" clip-rule="evenodd" d="M15.625 12.4321C15.5384 12.4745 15.4952 12.6015 15.4952 12.6862C15.4952 12.7709 15.5384 12.8132 15.625 12.7709C15.7115 12.7285 15.7548 12.6015 15.7548 12.5168C15.7548 12.4321 15.7115 12.3898 15.625 12.4321Z" fill="#1D1D1B"/>
<path fill-rule="evenodd" clip-rule="evenodd" d="M15.4519 12.8977C14.0673 16.0308 19.2163 19.291 24.149 13.9985C24.1923 13.8715 24.1058 13.7021 24.149 13.6174C21.2067 16.8777 16.6635 17.2164 15.625 12.5166C15.5817 12.686 15.5385 12.7706 15.4519 12.8977Z" fill="#FF0000"/>
<path fill-rule="evenodd" clip-rule="evenodd" d="M15.4519 12.8978C17.0962 11.7123 18.2644 14.9302 20.4279 15.0572C21.5962 15.1419 23.5 14.2104 24.2789 13.4906C24.3221 13.3636 24.2356 13.1942 24.2789 13.1095C22.6779 14.2104 21.726 14.2527 20.601 14.1681C18.9135 14.041 18.0481 10.6962 15.6683 12.6015C15.5817 12.6861 15.5385 12.7708 15.4519 12.8978Z" fill="#FF0000"/>
<path d="M24.149 13.4483C24.1058 13.4483 24.1058 13.4483 24.1058 13.4059C24.1058 13.3636 24.1058 13.3213 24.1058 13.3213C26.6587 11.67 28.0865 9.84937 28.2596 7.90171C28.2596 7.85937 28.3029 7.85938 28.3462 7.85938C28.3894 7.85938 28.4327 7.90171 28.3894 7.94406C28.1731 9.89171 26.7885 11.7123 24.149 13.4483Z" fill="#1D1D1B"/>
<path d="M24.0192 14.0407C23.976 14.0407 23.976 14.0407 23.976 13.9984C23.976 13.956 23.976 13.9137 24.0192 13.9137C27.2644 11.9237 28.0865 10.1031 28.3029 7.94371C28.3029 7.90137 28.3461 7.90137 28.3894 7.90137C28.4327 7.90137 28.476 7.94371 28.4327 7.98605C28.1731 10.1031 27.351 12.0084 24.0192 14.0407C24.0192 13.9984 24.0192 14.0407 24.0192 14.0407Z" fill="#1D1D1B"/>
<path fill-rule="evenodd" clip-rule="evenodd" d="M17.7019 12.9402L17.7885 12.051C17.8317 11.797 18.1346 11.8393 18.1346 12.0934V12.9825C18.0913 13.2789 17.6587 13.2366 17.7019 12.9402Z" fill="#2B3E78"/>
<path fill-rule="evenodd" clip-rule="evenodd" d="M18.0913 12.7283L18.1779 11.7545C18.2211 11.4581 18.5673 11.5005 18.5673 11.7968L18.524 12.7707C18.5673 13.067 18.0481 13.0247 18.0913 12.7283Z" fill="#2B3E78"/>
<path fill-rule="evenodd" clip-rule="evenodd" d="M18.6106 12.432L18.6971 11.5852C18.7404 11.3312 19.0433 11.3735 19.0433 11.6276V12.432C19 12.7284 18.5673 12.6861 18.6106 12.432Z" fill="#2B3E78"/>
<path fill-rule="evenodd" clip-rule="evenodd" d="M19.1731 12.0509L19.0433 11.3734C19 11.1617 19.2596 11.1194 19.3029 11.3311L19.476 12.0085C19.5625 12.2202 19.2163 12.2626 19.1731 12.0509Z" fill="#2B3E78"/>
<path fill-rule="evenodd" clip-rule="evenodd" d="M24.1923 9.63733C23.5433 8.83287 22.851 8.79053 22.4615 8.79053L22.7644 9.55265C23.2404 9.67967 23.976 9.93371 24.1923 9.63733Z" fill="#1C2B59"/>
<path fill-rule="evenodd" clip-rule="evenodd" d="M22.9375 10.0188C22.9375 9.80706 23.024 9.6377 23.1106 9.6377C23.1971 9.6377 23.2837 9.80706 23.2837 10.0188C23.2837 10.2305 23.1971 10.3998 23.1106 10.3998C23.024 10.3998 22.9375 10.2305 22.9375 10.0188Z" fill="#CF8453"/>
<path fill-rule="evenodd" clip-rule="evenodd" d="M24.0625 11.2039C24.4952 11.0345 24.2356 10.4841 23.976 10.1877C23.8029 9.976 22.9375 9.84898 22.4615 9.80664C22.1587 9.80664 21.3365 10.23 21.25 10.3147C21.1635 10.3571 21.1635 10.6534 21.4231 10.6534C21.5529 10.6534 21.726 10.5264 21.9423 10.4417C21.899 10.6111 21.9423 10.6958 22.1154 10.7805C22.0721 10.9498 22.1154 11.1192 22.2885 11.1615C22.2885 11.2885 22.3317 11.4156 22.4183 11.5002C22.9375 11.5849 23.1971 11.5849 23.4135 11.5426C23.8029 11.4156 23.976 11.2462 24.0625 11.2039Z" fill="#1C2B59"/>
<path fill-rule="evenodd" clip-rule="evenodd" d="M30.4663 12.305C28.1731 12.5167 25.0577 11.0348 24.0625 10.8231C23.7596 10.7807 23.8461 9.42585 24.5384 9.59521C25.7067 9.84925 27.2644 9.97627 29.6442 9.72223C30.1634 9.67989 31.5481 9.67989 31.8077 10.4844C32.1106 11.3735 32.8029 12.0933 30.4663 12.305Z" fill="#527CD2"/>
<path fill-rule="evenodd" clip-rule="evenodd" d="M23.3702 11.5427C23.9327 11.4156 24.1923 11.331 24.4086 10.9499C24.4519 10.9076 24.625 10.8652 24.625 10.8229C24.8413 10.4418 24.625 9.8067 24.3221 9.63734C24.1923 9.72202 24.149 9.63734 24.1058 9.63734C23.8029 9.46798 23.5865 9.3833 22.6779 9.3833C22.7644 9.63734 22.6346 9.76436 22.4615 9.8067C22.375 9.76436 22.2452 10.1031 22.4615 10.3148C22.375 10.4841 22.4615 10.6112 22.7212 10.8229C22.6779 11.0346 22.7212 11.0769 22.8942 11.2463C22.9375 11.4156 23.1538 11.5427 23.3702 11.5427Z" fill="#2B3E78"/>
<path fill-rule="evenodd" clip-rule="evenodd" d="M20.3414 18.7828C22.2885 19.5026 24.8414 19.672 27.0048 18.2324C26.875 18.9099 26.875 19.2062 26.8317 19.672C24.8846 21.0269 21.9423 21.1962 20.1683 20.0531C20.2981 19.4603 20.3414 19.2909 20.3414 18.7828Z" fill="#FFED00"/>
</g>
<defs>
<linearGradient id="paint0_linear" x1="20.0771" y1="9.04383" x2="19.0457" y2="7.06148" gradientUnits="userSpaceOnUse">
<stop stop-color="#878787"/>
<stop offset="0.39" stop-color="#575756"/>
<stop offset="0.57" stop-color="#EDEDED"/>
<stop offset="0.69" stop-color="#706F6F"/>
<stop offset="1" stop-color="#575756"/>
</linearGradient>
<linearGradient id="paint1_linear" x1="21.7178" y1="8.52094" x2="20.945" y2="7.03567" gradientUnits="userSpaceOnUse">
<stop stop-color="#878787"/>
<stop offset="0.39" stop-color="#575756"/>
<stop offset="0.57" stop-color="#EDEDED"/>
<stop offset="0.69" stop-color="#706F6F"/>
<stop offset="1" stop-color="#575756"/>
</linearGradient>
<linearGradient id="paint2_linear" x1="15.2394" y1="15.0441" x2="14.5393" y2="13.7535" gradientUnits="userSpaceOnUse">
<stop stop-color="#878787"/>
<stop offset="0.39" stop-color="#575756"/>
<stop offset="0.57" stop-color="#C6C6C6"/>
<stop offset="0.69" stop-color="#706F6F"/>
<stop offset="1" stop-color="#575756"/>
</linearGradient>
<linearGradient id="paint3_linear" x1="9.53931" y1="16.58" x2="8.4717" y2="14.528" gradientUnits="userSpaceOnUse">
<stop stop-color="#878787"/>
<stop offset="0.39" stop-color="#575756"/>
<stop offset="0.57" stop-color="#EDEDED"/>
<stop offset="0.69" stop-color="#706F6F"/>
<stop offset="1" stop-color="#575756"/>
</linearGradient>
<linearGradient id="paint4_linear" x1="9.15223" y1="15.5054" x2="8.37947" y2="14.0202" gradientUnits="userSpaceOnUse">
<stop stop-color="#878787"/>
<stop offset="0.39" stop-color="#575756"/>
<stop offset="0.57" stop-color="#EDEDED"/>
<stop offset="0.69" stop-color="#706F6F"/>
<stop offset="1" stop-color="#575756"/>
</linearGradient>
<clipPath id="clip0">
<rect width="54" height="55" fill="white" transform="translate(1 1)"/>
</clipPath>
</defs>
</svg>
