<svg width="56" height="56" viewBox="0 0 56 56" fill="none" xmlns="http://www.w3.org/2000/svg">
<path d="M26.1343 13.1966C26.1343 13.1966 24.8542 11.3689 23.8381 14.0148C22.822 16.6607 24.9136 16.8784 24.5573 17.9078C24.3396 18.5676 24.0559 18.2245 23.594 18.7325C23.1471 19.3975 23.1015 20.2541 23.4752 20.9627C24.234 22.3286 25.0192 22.7443 24.135 23.2259C24.2368 23.3176 24.3735 23.3601 24.5093 23.3423C24.6451 23.3246 24.7663 23.2483 24.841 23.1336C25.1522 22.675 25.2022 22.0875 24.973 21.583C24.3858 20.2237 25.0786 19.5573 25.4943 19.6035C26.1541 19.6761 26.9459 17.624 26.2531 16.7795C24.7421 14.9056 25.2369 13.7509 26.0287 13.8432L26.1343 13.1966Z" fill="#260D08"/>
<rect x="12.4034" y="4.79688" width="31.8563" height="0.60044" fill="#A8A8A8"/>
<rect x="36.0119" y="4.79688" width="8.2544" height="0.60044" fill="#A8A8A8"/>
<rect x="12.4034" y="4.79688" width="8.14883" height="0.60044" fill="#A8A8A8"/>
<path d="M41.7193 0H42.4979C42.8623 0 43.1577 0.295413 43.1577 0.659824V9.49487C43.1577 9.85928 42.8623 10.1547 42.4979 10.1547H41.7193C41.3549 10.1547 41.0595 9.85928 41.0595 9.49487V0.659824C41.0595 0.295413 41.3549 0 41.7193 0Z" fill="#878787"/>
<path d="M43.8769 1.25343H44.121C44.4854 1.25343 44.7809 1.54884 44.7809 1.91325V8.20797C44.7809 8.57238 44.4854 8.8678 44.121 8.8678H43.8769C43.5125 8.8678 43.2171 8.57238 43.2171 8.20797V1.97923C43.1984 1.79312 43.2595 1.60781 43.3854 1.4694C43.5112 1.33099 43.6898 1.25249 43.8769 1.25343Z" fill="#878787"/>
<path d="M14.2838 0H15.0624C15.4268 0 15.7222 0.295413 15.7222 0.659824V9.49487C15.7222 9.85928 15.4268 10.1547 15.0624 10.1547H14.2904C13.926 10.1547 13.6305 9.85928 13.6305 9.49487V0.659824C13.6305 0.297975 13.9219 0.00361849 14.2838 0Z" fill="#878787"/>
<path d="M12.6607 1.25342H12.9048C13.2692 1.25342 13.5646 1.54883 13.5646 1.91324V8.20796C13.5646 8.57238 13.2692 8.86779 12.9048 8.86779H12.6607C12.2962 8.86779 12.0008 8.57238 12.0008 8.20796V1.94623C11.9918 1.76559 12.0573 1.58916 12.182 1.45819C12.3068 1.32722 12.4798 1.25319 12.6607 1.25342Z" fill="#878787"/>
<path d="M28.3909 32.4567V36.1121C28.507 37.1587 28.71 38.1938 28.9979 39.2067C29.3278 40.005 30.7531 43.3833 31.1754 43.9904C31.6249 44.5801 31.9157 45.2753 32.0199 46.0094C32.0199 46.5703 31.8352 49.104 32.3498 49.9684C32.8757 51.018 33.1577 52.1728 33.1746 53.3467H35.2399C35.1125 52.1324 35.0508 50.9122 35.0551 49.6913C35.1279 48.3868 35.0326 47.0784 34.7714 45.7983C34.5077 45.063 34.3955 44.2819 34.4415 43.5021C34.4877 42.6575 34.2039 38.1575 33.4583 36.1913C32.7127 34.225 31.9078 32.6678 32.0067 31.335L28.3909 32.4567Z" fill="#0074A6"/>
<path d="M33.168 53.3795C33.3452 52.9194 33.805 52.6317 34.2963 52.6735C34.5155 52.6337 34.7414 52.6873 34.9193 52.8214C35.0972 52.9555 35.2111 53.1578 35.2332 53.3795H33.168Z" fill="#78113B"/>
<path d="M33.1747 53.3799C33.0823 53.9011 32.7722 55.9796 33.3528 55.9796C33.9335 55.9796 36.5859 56.0258 36.7245 55.9796C36.9203 55.7125 36.9203 55.3493 36.7245 55.0822C36.487 54.7985 35.2663 53.9539 35.2531 53.3799H33.1747V53.3799Z" fill="#94184B"/>
<path d="M28.391 32.4567V36.1121C28.275 37.1587 28.072 38.1938 27.7839 39.2067C27.454 40.005 26.0288 43.3833 25.6065 43.9904C25.1567 44.5799 24.8658 45.2752 24.7619 46.0094C24.7619 46.5703 24.9467 49.104 24.432 49.9684C23.9059 51.0179 23.6239 52.1728 23.6072 53.3467H21.542C21.6697 52.1325 21.7314 50.9122 21.7267 49.6913C21.6543 48.3868 21.7496 47.0785 22.0105 45.7983C22.2739 45.0629 22.3862 44.2819 22.3404 43.5021C22.2942 42.6575 22.5713 38.1575 23.3235 36.1913C24.0757 34.225 24.8741 32.6678 24.7751 31.335L28.391 32.4567Z" fill="#0074A6"/>
<path d="M29.8425 17.7492C30.6607 16.8355 31.5286 15.9677 32.4422 15.1495C32.4422 15.1495 32.363 13.3217 32.8315 12.6685C33.1315 12.3117 33.3075 11.8671 33.333 11.4017C33.3927 10.5854 33.566 9.7815 33.8476 9.01309C34.1776 8.35327 34.7846 7.41632 34.9232 7.093C35.0168 6.75629 35.0168 6.40039 34.9232 6.06368C34.877 5.73376 33.7025 4.98816 34.171 4.42071C34.6394 3.85326 35.0617 4.18318 35.6226 4.13699C36.0735 4.02674 36.5496 4.15073 36.8894 4.4669C37.2057 4.98742 37.2917 5.61587 37.127 6.20224C36.7833 6.91026 36.5603 7.67073 36.4671 8.45224C36.4457 9.21188 36.2706 9.9593 35.9525 10.6495C35.6336 11.2325 35.4276 11.8705 35.3454 12.53C35.3454 12.9984 35.5302 15.1099 35.0617 16.3767C34.5932 17.6436 34.2633 17.9669 34.2633 18.6267C34.1956 20.1889 33.8562 21.7273 33.2604 23.1729C32.5544 24.5783 31.7098 27.0659 31.7098 28.0952C31.7146 29.1855 31.8095 30.2735 31.9935 31.3481C30.865 31.9213 29.6464 32.2963 28.3909 32.4566V16.9904L29.8425 17.7492Z" fill="#FDB171"/>
<path d="M33.6695 21.761C31.0302 19.3329 30.9708 17.0895 31.0302 16.4824C30.3704 17.0895 29.8425 17.7493 29.8425 17.7493L28.3909 16.9905V32.9912C29.6754 32.8679 30.9456 32.6249 32.1849 32.2654C31.9341 30.8899 31.7776 29.4988 31.7164 28.1019C31.7164 27.0726 32.561 24.5851 33.267 23.1796C33.4754 22.7311 33.6113 22.2522 33.6695 21.761Z" fill="#94184B"/>
<path d="M26.9327 17.7492C26.1146 16.8354 25.2468 15.9675 24.333 15.1495C24.333 15.1495 24.4122 13.3217 23.9437 12.6685C23.6437 12.3117 23.4677 11.8671 23.4422 11.4017C23.3826 10.5854 23.2093 9.78148 22.9276 9.01309C22.5977 8.35327 21.9906 7.41632 21.8521 7.093C21.759 6.7562 21.759 6.40048 21.8521 6.06368C21.8982 5.73376 23.0727 4.98816 22.6043 4.42071C22.1358 3.85326 21.7135 4.18318 21.1526 4.13699C20.7017 4.02674 20.2256 4.15073 19.8858 4.4669C19.571 4.98811 19.4873 5.61684 19.6548 6.20224C19.998 6.91049 20.221 7.67085 20.3147 8.45224C20.3361 9.21188 20.5112 9.9593 20.8293 10.6495C21.1483 11.2325 21.3542 11.8705 21.4364 12.53C21.4364 12.9984 21.245 15.1099 21.7201 16.3767C22.1952 17.6436 22.5185 17.9669 22.5185 18.6267C22.5841 20.1885 22.9213 21.7269 23.5148 23.1729C24.2208 24.5783 25.0654 27.0659 25.0654 28.0952C25.0606 29.1855 24.9657 30.2735 24.7817 31.3481C25.9122 31.922 27.1331 32.297 28.3909 32.4566V16.9904L26.9327 17.7492Z" fill="#FDB171"/>
<path d="M23.1123 21.761C25.7516 19.3329 25.811 17.1422 25.7516 16.4824C26.4114 17.1027 26.9393 17.7229 26.9393 17.7229L28.3909 16.9575V32.9912C27.1041 32.8684 25.8317 32.6255 24.5903 32.2654C24.8404 30.8898 24.9969 29.4988 25.0588 28.1019C25.0588 27.0726 24.2142 24.5851 23.5082 23.1796C23.3023 22.7306 23.1687 22.2518 23.1123 21.761Z" fill="#94184B"/>
<path d="M23.6071 53.3795C23.4305 52.9219 22.9743 52.6348 22.4854 52.6735C22.2662 52.6337 22.0403 52.6873 21.8624 52.8214C21.6844 52.9555 21.5706 53.1578 21.5484 53.3795H23.6137H23.6071Z" fill="#78113B"/>
<path d="M23.6006 53.3799C23.6929 53.9011 24.0031 55.9796 23.4224 55.9796C22.8418 55.9796 20.1893 56.0258 20.0507 55.9796C19.8549 55.7125 19.8549 55.3493 20.0507 55.0822C20.2883 54.7985 21.5089 53.9539 21.5221 53.3799H23.6006V53.3799Z" fill="#94184B"/>
<path d="M36.8894 4.47325C36.5496 4.15707 36.0735 4.03309 35.6226 4.14334C35.0617 4.18952 34.6394 3.85961 34.1709 4.42706C33.7025 4.99451 34.877 5.74671 34.9231 6.07002C34.9231 6.21518 34.9693 6.36694 34.9891 6.5253C35.6263 6.53592 36.2556 6.66805 36.8432 6.9146C36.9356 6.68366 37.028 6.45272 37.127 6.21518C37.2937 5.62678 37.2076 4.99553 36.8894 4.47325Z" fill="#94184B"/>
<path d="M19.8856 4.47325C20.2261 4.15815 20.7016 4.03431 21.1525 4.14334C21.7134 4.18952 22.1356 3.85961 22.6041 4.42706C23.0726 4.99451 21.8981 5.74671 21.8519 6.07002C21.8519 6.21518 21.8057 6.36694 21.7925 6.5253C21.1554 6.53592 20.5261 6.66805 19.9384 6.9146C19.8461 6.68366 19.7537 6.45272 19.6547 6.21518C19.4844 5.62782 19.5682 4.99595 19.8856 4.47325Z" fill="#94184B"/>
<path d="M30.7003 13.1966C30.7003 13.1966 31.9804 11.3689 32.9965 14.0148C34.0127 16.6607 31.9276 16.8784 32.2773 17.9078C32.4951 18.5676 32.7788 18.2245 33.2407 18.7325C33.6875 19.3975 33.7331 20.2541 33.3594 20.9627C32.6006 22.3286 31.8154 22.7443 32.6996 23.2259C32.5981 23.3152 32.4629 23.3563 32.3289 23.3386C32.1949 23.3209 32.0751 23.2461 32.0002 23.1336C31.689 22.675 31.639 22.0875 31.8682 21.583C32.4555 20.2237 31.7627 19.5573 31.347 19.6035C30.6871 19.6761 29.8954 17.624 30.5882 16.7795C32.0992 14.9056 31.6043 13.7509 30.8125 13.8432L30.7003 13.1966Z" fill="#260D08"/>
<path d="M30.9114 15.3473C30.9114 15.3473 31.2809 13.7637 30.852 12.8861C30.3826 11.9741 29.4429 11.4009 28.4172 11.4009C27.3915 11.4009 26.4518 11.9741 25.9825 12.8861C25.5536 13.7637 25.9231 15.3407 25.9231 15.3407C25.3425 15.2219 25.4546 15.8619 25.6328 16.1456C25.7433 16.3042 25.8258 16.4805 25.8769 16.6669C25.8963 16.7585 25.9651 16.8316 26.0553 16.8566C26.1455 16.8815 26.2421 16.8542 26.3058 16.7857C26.5018 17.2885 26.8472 17.7191 27.2955 18.0195C27.5642 18.3666 27.9784 18.5697 28.4172 18.5697C28.8561 18.5697 29.2703 18.3666 29.5389 18.0195C29.9872 17.7191 30.3327 17.2885 30.5287 16.7857C30.5924 16.8542 30.689 16.8815 30.7792 16.8566C30.8694 16.8316 30.9382 16.7585 30.9576 16.6669C31.0092 16.4787 31.0917 16.3003 31.2017 16.139C31.3864 15.8619 31.492 15.2351 30.9114 15.3473Z" fill="#FDB171"/>
<path d="M28.3909 13.0713C28.3909 13.0713 28.2259 14.3909 25.9033 15.3543H25.7516C25.4714 14.6464 25.3827 13.8772 25.4942 13.1241C25.7978 11.8044 26.7479 10.6497 28.4502 11.105V13.0845L28.3909 13.0713Z" fill="#37120B"/>
<path d="M28.3909 13.071C28.3909 13.071 28.5493 14.3907 30.8784 15.354H31.0764C31.364 14.6504 31.4618 13.8837 31.3601 13.1304C31.0566 11.8108 30.1064 10.6561 28.4107 11.1113V13.0908L28.3909 13.071Z" fill="#37120B"/>
<path d="M31.69 28.082C31.6868 28.0182 31.6868 27.9544 31.69 27.8906C30.6805 28.4251 29.0969 28.3921 28.3513 28.3921V30.3716C29.5152 30.3726 30.6709 30.1763 31.7692 29.7909C31.7494 29.1905 31.69 28.5636 31.69 28.082Z" fill="#37120B"/>
<path d="M25.0917 28.082C25.0917 28.0226 25.0917 27.9566 25.0917 27.8906C26.1012 28.4251 27.6848 28.3921 28.4304 28.3921V30.3716C27.2665 30.3724 26.1108 30.1761 25.0125 29.7909C25.0257 29.1905 25.0917 28.5636 25.0917 28.082Z" fill="#37120B"/>
<path fill-rule="evenodd" clip-rule="evenodd" d="M27.6453 31.0913H29.1299C29.379 31.0878 29.6163 30.9846 29.7887 30.8048C29.9611 30.625 30.0542 30.3835 30.0471 30.1345V28.5905C30.0506 28.3438 29.956 28.1057 29.784 27.9288C29.612 27.7518 29.3767 27.6504 29.1299 27.647H27.6453C27.3962 27.6504 27.1589 27.7536 26.9865 27.9334C26.8142 28.1133 26.7211 28.3547 26.7282 28.6037V30.1477C26.7247 30.3945 26.8193 30.6325 26.9913 30.8095C27.1633 30.9864 27.3986 31.0878 27.6453 31.0913ZM27.3692 28.3199C27.441 28.2431 27.5404 28.1981 27.6454 28.1947H29.13C29.235 28.1981 29.3344 28.2431 29.4061 28.3199C29.4779 28.3966 29.5162 28.4987 29.5127 28.6037V30.1477C29.5162 30.2527 29.4779 30.3549 29.4061 30.4316C29.3344 30.5083 29.235 30.5534 29.13 30.5568H27.6454C27.5404 30.5534 27.441 30.5083 27.3692 30.4316C27.2975 30.3549 27.2591 30.2527 27.2627 30.1477V28.6037C27.2591 28.4987 27.2975 28.3966 27.3692 28.3199Z" fill="#260D08"/>
</svg>
