<svg width="56" height="56" viewBox="0 0 56 56" fill="none" xmlns="http://www.w3.org/2000/svg">
<g clip-path="url(#clip0)">
<path fill-rule="evenodd" clip-rule="evenodd" d="M36.5883 1.23221C38.1278 -0.308034 40.557 -0.404333 42.2077 0.943406L42.527 1.23221L54.7686 13.4796C56.4172 15.129 56.4037 17.7848 54.7686 19.422C53.8996 20.2907 52.7428 20.6991 51.6032 20.6462L53.1736 22.2115C54.8239 23.8626 54.8037 26.5213 53.1805 28.1466C51.6751 29.6527 49.1841 29.7472 47.5551 28.429L47.2414 28.1466L40.5907 21.4954L21.4823 40.6129L28.1329 47.265C29.6682 48.8017 29.7642 51.2382 28.4204 52.8876L28.1325 53.2066C26.6306 54.7085 24.1403 54.7983 22.5137 53.4819L22.2004 53.1999L20.6272 51.6259C20.6886 52.768 20.2805 53.9262 19.411 54.7964C17.9047 56.301 15.4141 56.3951 13.7862 55.0779L13.4727 54.7956L1.23068 42.5478C-0.417963 40.897 -0.402612 38.2421 1.2311 36.6062C2.09878 35.7381 3.25443 35.3291 4.39333 35.381L2.82568 33.8159C1.17321 32.1613 1.19938 29.5009 2.81962 27.8812C4.3592 26.3409 6.7883 26.2447 8.43906 27.5924L8.75834 27.8812L15.4056 34.5333L34.514 15.4129L27.8675 8.76303C26.3279 7.22272 26.2317 4.79246 27.5788 3.14091L27.8675 2.82148C29.5046 1.18354 32.1599 1.18741 33.7997 2.82796L35.3682 4.39729C35.3124 3.25702 35.7204 2.1009 36.5883 1.23221ZM5.14172 38.6364C4.62336 38.1178 3.77948 38.119 3.26282 38.6359C2.80899 39.0904 2.74855 39.7887 3.09096 40.3071L3.2624 40.517L15.504 52.7644C15.9882 53.2489 16.8987 53.2489 17.3835 52.7646C17.8361 52.3117 17.8927 51.6079 17.5534 51.0924L17.3837 50.8842L5.14172 38.6364ZM6.73109 29.9117C6.20986 29.3902 5.37302 29.3902 4.85134 29.9121C4.40712 30.3562 4.34525 31.0565 4.68701 31.5754L4.85826 31.7854L24.2326 51.169C24.7166 51.6532 25.6262 51.6547 26.1052 51.1757C26.5578 50.7227 26.6144 50.0189 26.2751 49.5034L26.1054 49.2952L6.73109 29.9117ZM35.2919 18.6986L18.6894 35.3119L20.7073 37.3308L37.3098 20.7174L35.2919 18.6986ZM31.77 4.85922C31.2499 4.33884 30.4121 4.33762 29.8972 4.85273C29.4411 5.30903 29.3841 6.00708 29.7262 6.52383L29.8972 6.73296L49.2711 26.1165C49.7561 26.6018 50.666 26.6016 51.1504 26.1169C51.5964 25.6704 51.657 24.9706 51.3151 24.4525L51.1439 24.2428L31.77 4.85922ZM40.4973 3.2622C39.9761 2.74075 39.1391 2.74077 38.6182 3.26199C38.1656 3.71498 38.109 4.41873 38.4483 4.93427L38.618 5.14241L50.8609 17.3912C51.3787 17.9081 52.2221 17.9072 52.7389 17.3907C53.1929 16.9361 53.2529 16.2375 52.9103 15.7194L52.7389 15.5096L40.4973 3.2622Z" fill="white"/>
</g>
<defs>
<clipPath id="clip0">
<rect width="56" height="56" fill="white"/>
</clipPath>
</defs>
</svg>
