<svg width="56" height="56" viewBox="0 0 56 56" fill="none" xmlns="http://www.w3.org/2000/svg">
<g clip-path="url(#clip0)">
<path fill-rule="evenodd" clip-rule="evenodd" d="M27.6923 13.9939C25.8462 15.3035 23.6923 18.5774 23.4872 18.7286C23.4359 19.4337 24.1538 20.4915 24.6154 19.887C26.2564 17.6204 28.2051 18.0234 30.5641 14.9509C30.9231 14.548 30.7179 13.9435 30.2564 13.3391C29.5897 12.7851 28.9744 13.0873 27.6923 13.9939Z" fill="#0089C4"/>
<path fill-rule="evenodd" clip-rule="evenodd" d="M20.1026 8.45352L30.6154 36.0051C30.7692 36.3577 31.5385 36.0051 31.4359 35.7029L20.9231 8.15131C20.7692 7.79873 19.9487 8.10094 20.1026 8.45352Z" fill="url(#paint0_linear)"/>
<path fill-rule="evenodd" clip-rule="evenodd" d="M31.1282 36.4078C30.5128 36.6597 29.8974 36.8612 29.3846 36.9619L27.8461 37.5663L27.6923 37.1634C27.7436 36.8612 29.282 36.0049 31.2308 35.2997C33.1282 34.5946 34.6667 34.242 34.6667 34.5442L34.7692 34.9472L33.1795 35.5516C32.6154 35.8034 31.8974 36.1056 31.1282 36.4078Z" fill="#DEDEDE"/>
<path fill-rule="evenodd" clip-rule="evenodd" d="M31.2821 36.8615C29.3846 37.5666 27.8462 37.9192 27.8462 37.617C27.8974 37.3148 29.4359 36.4585 31.3846 35.7533C33.2821 35.0482 34.8205 34.6956 34.8205 34.9978C34.7692 35.3 33.1795 36.1059 31.2821 36.8615Z" fill="#9D9D9C"/>
<path fill-rule="evenodd" clip-rule="evenodd" d="M31.2821 36.9119C30.6667 37.1133 30.1026 37.3148 29.641 37.4659L28.1538 38.2214L28.0513 37.617C28.1026 37.3148 29.5897 36.5089 31.3846 35.8541C33.1795 35.1993 34.6667 34.8467 34.6154 35.149L34.9744 35.6526L33.2308 36.106C32.718 36.3578 32.0513 36.66 31.2821 36.9119Z" fill="#F7A600"/>
<path fill-rule="evenodd" clip-rule="evenodd" d="M31.5385 37.5159C29.641 38.2211 28.1538 38.5233 28.2051 38.2211C28.2564 37.9188 29.7949 37.1129 31.6923 36.4078C33.5897 35.7026 35.0769 35.4004 35.0256 35.7026C34.9744 36.0048 33.4359 36.8107 31.5385 37.5159Z" fill="#E87C18"/>
<path fill-rule="evenodd" clip-rule="evenodd" d="M2.46153 31.22C3.48717 32.3281 4.2564 33.2851 1.64102 32.4792C0.87179 32.2273 0.461533 31.9251 0.307687 31.4718C0.102559 30.7163 0.512815 29.5074 0.205123 28.4497C-5.34859e-06 27.6438 -0.410262 26.5357 0.974354 26.6868C1.38461 26.7372 1.79487 27.1401 2.61538 27.392C2.97435 27.4927 2.61538 28.2482 3.17948 28.7519C2.82051 29.7593 2.51282 30.1119 2.46153 31.22Z" fill="#0089C4"/>
<path fill-rule="evenodd" clip-rule="evenodd" d="M23.2308 34.3936C22.8205 35.4513 22.7692 35.2498 24.1538 36.0557C24.5128 36.2572 25.0256 36.3579 25.3846 36.6098C29.282 39.4304 24.2051 39.2289 23.5385 38.3727C23.0769 37.7683 22.2051 37.3149 21.1795 37.0127C20.4102 36.8113 19.3846 36.509 20 35.5017C20.359 34.8972 20.8718 34.7965 21.3333 33.7388L23.2308 34.3936Z" fill="#0089C4"/>
<path fill-rule="evenodd" clip-rule="evenodd" d="M42.4615 35.7534L43.2308 36.0556L43.0256 37.2645L42.1538 37.1637L41.4359 36.8112L42.4615 35.7534Z" fill="#F2B387"/>
<path fill-rule="evenodd" clip-rule="evenodd" d="M2.76923 31.0187C3.79487 32.1268 3.94871 32.9831 2.05128 32.3283C1.28205 32.0764 0.87179 31.7742 0.717944 31.3209C0.512816 30.5654 1.17948 29.8602 0.61538 28.2988C0.358969 27.5433 -5.00679e-06 26.4855 1.38461 26.6366C1.79487 26.687 2.20512 26.9892 2.97435 27.2411C3.33333 27.3418 2.97435 28.0973 3.53846 28.601C3.17948 29.6084 2.82051 29.961 2.76923 31.0187Z" fill="#2B3E78"/>
<path fill-rule="evenodd" clip-rule="evenodd" d="M2.20512 26.687C1.17948 26.7374 0.717937 30.0113 2.76922 30.4143C4.35896 31.5728 8.41024 33.6882 9.64101 34.6956C10.7179 35.1993 11.4872 34.343 10.7692 32.5801C9.28204 30.3639 8.35896 29.7595 7.12819 29.1551C5.58973 28.5003 4.05127 27.9966 2.20512 26.687Z" fill="#97AAC2"/>
<path fill-rule="evenodd" clip-rule="evenodd" d="M23.2308 34.0405C22.8205 35.0983 22.7692 34.8968 24.1538 35.7027C24.5128 35.9042 24.9231 36.1056 25.282 36.3575C29.1795 39.1781 24.1538 38.8759 23.4872 38.0196C23.1795 37.5663 22.6667 36.9619 21.9487 36.6597C21.3846 36.4079 20.7179 36.6597 20.1538 36.2567C19.8974 36.0553 19.8461 35.7531 20.1538 35.199C20.5128 34.5946 20.8718 34.4435 21.3333 33.3857L23.2308 34.0405Z" fill="#2B3E78"/>
<path fill-rule="evenodd" clip-rule="evenodd" d="M20.2051 34.0406C20.359 35.7027 22.6667 35.8539 23.8974 35.5516C24.9231 34.5946 27.0769 32.8317 28.8718 31.774C29.282 31.5222 31.3846 30.4644 31.7949 30.2126C34.1026 27.1905 30.0513 29.4067 28.6154 28.8526C23.5897 29.457 24.5641 31.4718 20.2051 34.0406Z" fill="#97AAC2"/>
<path fill-rule="evenodd" clip-rule="evenodd" d="M32.5128 28.7522C32.5128 28.45 31.8461 27.7448 31.5897 27.493C28.4102 24.2694 27.1795 23.5642 26.6667 23.3124C25.0256 22.4058 23.0769 21.2977 20.6154 21.0458C19.5897 20.9451 18.6154 22.8591 18.2051 23.9672C18.0513 24.5716 17.7949 24.5716 18.0513 24.9242C19.4872 26.5864 21.0256 26.8886 22 27.6945C25.0256 29.6588 27.6923 28.9033 29.6923 29.7092C30.5641 30.1122 32.5641 31.0692 32.5128 28.7522Z" fill="#97AAC2"/>
<path fill-rule="evenodd" clip-rule="evenodd" d="M11.1795 34.8969C12.2564 34.091 14.5128 32.9829 16.0513 31.1193C16.7692 30.263 19.3846 27.9461 19.8974 26.4854C21.4359 26.1832 21.5897 24.2691 21.0256 23.7655C21.1795 23.3625 21.1282 23.2114 21.2308 23.1107C18.4615 25.5787 16.4615 20.4915 15.6923 20.8945C13.6923 21.8011 12.9743 23.8158 13.3333 24.9239C13.1282 25.5787 12.7692 26.6868 12.1026 27.5431C10.5128 29.5578 10.6154 30.9178 9.99999 32.0763C9.43589 33.134 8.97435 34.3429 9.6923 34.8465C10.4615 35.048 10.9231 35.0984 11.1795 34.8969Z" fill="#97AAC2"/>
<path fill-rule="evenodd" clip-rule="evenodd" d="M37.3846 21.0455C36.7179 17.9731 30.359 12.7851 29.5385 13.1377C29.2308 13.2384 28.6154 14.548 28.9744 15.2532C29.1795 16.9657 32.2051 20.4915 34.1026 22.0529C34.4615 25.5283 36.0513 25.6795 36.8718 25.3269C37.6923 25.0247 42.1026 24.3195 37.3846 21.0455Z" fill="#0089C4"/>
<path fill-rule="evenodd" clip-rule="evenodd" d="M34.6667 21.9522C34 21.1463 34.4102 20.4411 33.5385 19.9375C31.2308 18.5775 26.2564 18.4264 24.6667 18.6279C19.7949 19.2323 18.3077 18.5775 15.2308 20.9448C14.8718 23.6144 17.5385 24.6217 20.7692 24.7225C23.1282 25.1758 25.282 27.392 28.4102 27.9964C30.9231 28.4497 35.7949 27.9964 37.1795 25.0247C37.7436 24.2188 36.359 23.8662 34.6667 21.9522Z" fill="#0089C4"/>
<path fill-rule="evenodd" clip-rule="evenodd" d="M32.8205 22.3048C30.359 22.7581 31.1795 26.989 33.9487 26.435C36.2051 25.9313 36.2051 21.65 32.8205 22.3048Z" fill="#E1C3B9"/>
<path fill-rule="evenodd" clip-rule="evenodd" d="M42.7692 36.7103C42.359 36.9118 42.3077 36.9622 42.1538 37.1636C42.7692 37.9695 42.8718 38.3725 43.4872 38.9265C43.7436 39.0273 44.5641 39.2287 44.9231 39.2287C45.3333 39.1784 45.8974 39.0776 46.2051 38.9769C46.2051 38.9265 46.2051 38.7754 46.1026 38.7251C46.1538 38.6747 46.4615 38.6747 46.4615 38.574C46.4103 38.3221 46.1538 38.3221 46.1538 38.3221H46.3077C46.3077 38.0199 46.1538 37.9695 46 37.9192C45.8461 37.8688 45.3846 37.8688 45.282 37.8184C44.6154 37.6673 44.4103 37.1636 44 36.7103C43.3333 36.0052 43.1795 36.5088 42.7692 36.7103Z" fill="#F2B387"/>
<path fill-rule="evenodd" clip-rule="evenodd" d="M43.9487 35.9045C44.2051 35.9549 44.5641 36.1564 44.8205 36.4082C45.1795 36.66 45.1795 36.8111 45.5385 37.1134C45.282 37.3652 44.8718 37.2645 44.5128 36.8111C44.2564 36.7104 43.7436 36.8615 43.3333 36.8615C43.0256 36.8615 43.1282 36.8615 43.0256 36.4586C42.9743 36.3075 42.8718 36.0053 42.9744 35.9549C43.282 35.8542 43.641 35.8038 43.9487 35.9045Z" fill="#F2B387"/>
<path fill-rule="evenodd" clip-rule="evenodd" d="M30.1538 30.2127C31.282 31.4719 32.9744 32.9829 34.9231 33.7385C35.1795 33.8392 35.5385 34.2421 35.7436 34.2925C36.359 34.5443 36.7179 34.3429 36.9231 34.1918C37.1795 33.9399 37.8461 32.7814 37.1795 32.2274C36.6154 31.6733 35.8974 30.5652 35.0769 29.5579C34.3077 28.6009 33.2308 28.0468 31.9487 26.8883C30.9744 24.8736 29.0256 24.4203 28.0513 25.4276C27.641 25.8306 25.3846 28.0972 30.1538 30.2127Z" fill="#2AD4FF"/>
<path fill-rule="evenodd" clip-rule="evenodd" d="M34.7179 21.3984C34.7179 21.3984 34.4615 21.9021 32.6667 22.708C31.7949 23.9169 32.2564 26.9893 34.3077 26.0827C34.9744 25.7805 35.9487 24.7731 37.0256 23.2621C37.5385 22.9095 34.7179 21.3984 34.7179 21.3984Z" fill="#DB9669"/>
<path fill-rule="evenodd" clip-rule="evenodd" d="M39.1282 22.4558C38.9744 22.7076 38.6667 22.5565 38.5128 23.715C38.4103 24.4202 38.3077 24.3698 37.4872 25.2764C37.0256 25.7801 36 26.7875 34.7692 24.7728C34.7692 24.7728 33.7949 22.4054 34 20.9951C34.1538 19.5848 34.9231 18.5271 36.359 18.1745C36.1538 18.1241 40.6154 18.7789 39.1282 22.4558Z" fill="#F2B387"/>
<path fill-rule="evenodd" clip-rule="evenodd" d="M39.8974 21.1465C39.5897 21.348 39.2308 21.4991 38.9231 21.4991C38.2564 21.0962 38.1538 20.8443 37.1282 20.7436C36.4102 20.6429 36.8205 21.4488 36.3077 21.6502C36.1026 21.751 35.4359 21.8517 35.3846 22.1539L35.0256 21.751C34.9231 20.7436 34.359 21.5495 33.5897 22.8087C33.5897 22.8087 33.3333 19.3836 34.8205 18.3259C35.7949 17.6207 37.1795 17.2178 39.0256 19.2829C39.282 19.7362 41.1795 20.4414 39.8974 21.1465Z" fill="#704321"/>
<path fill-rule="evenodd" clip-rule="evenodd" d="M34.7692 21.1966C34.359 21.0455 34.1025 21.3981 33.9487 21.8514C33.7949 22.3047 33.8461 23.0603 34.1538 22.9595C34.5641 22.8588 34.2051 22.3551 34.4615 22.0529C34.6154 21.9018 34.9231 21.9522 35.0256 21.9522C35.2308 22.0025 35.1795 21.2974 34.7692 21.1966Z" fill="#F1B287"/>
<path fill-rule="evenodd" clip-rule="evenodd" d="M37.0769 32.1771C39.1795 32.7816 41.9487 35.4007 43.0769 35.9044C42.3077 35.8541 41.7949 37.1133 42.0513 37.2644C40.6667 36.4585 38.0513 36.7607 35.5898 34.2423C35.1282 33.94 34.5128 32.6305 34.8718 31.8749C35.1282 31.5224 35.4872 31.5224 37.0769 32.1771Z" fill="#2AD4FF"/>
<path fill-rule="evenodd" clip-rule="evenodd" d="M50.3077 41.999C49.0256 42.0997 48.2564 42.3516 47.5385 42.7041L46 42.6034C45.7436 43.6108 45.7949 45.7262 46.0513 46.4818C46.5128 47.9928 48.8718 49.1009 51.5897 48.9498C53.0769 48.8491 55.3846 48.2447 55.8461 46.5321C56.1026 45.5751 56 43.51 55.8461 42.6538L54.2051 42.7545C53.1795 42.2004 51.5897 41.9486 50.3077 41.999Z" fill="#CBBB9E"/>
<path fill-rule="evenodd" clip-rule="evenodd" d="M50.3077 41.999C49.0256 42.0997 48.2564 42.3516 47.5385 42.7041L46 42.6034C45.7436 43.6108 45.7949 45.7262 46.0513 46.4818C46.1026 46.6833 46.2051 46.8847 46.359 47.0862C47.3333 48.1439 49.3846 48.7987 51.641 48.6476C52.8718 48.5469 54.6154 48.1943 55.5385 47.2373C55.6923 47.0358 55.7949 46.784 55.8974 46.5321C56.1538 45.5751 56.0513 43.51 55.8974 42.6538L54.2564 42.7545C53.1795 42.2004 51.5897 41.9486 50.3077 41.999Z" fill="#DACCB4"/>
<path fill-rule="evenodd" clip-rule="evenodd" d="M50.3077 39.984C47.5897 40.1855 45.6923 41.5454 46.0513 43.1069C46.4102 44.6683 48.8718 45.726 51.5897 45.5749C54.3077 45.3734 56.2051 44.0135 55.8461 42.4521C55.4872 40.941 53.0256 39.8329 50.3077 39.984Z" fill="#E8DEC7"/>
<path fill-rule="evenodd" clip-rule="evenodd" d="M50.5128 40.9411C48.6667 41.0419 47.3846 41.9989 47.641 43.0566C47.8974 44.1143 49.5385 44.8195 51.3846 44.7188C53.2308 44.618 54.5128 43.661 54.2564 42.6033C54 41.5455 52.3077 40.79 50.5128 40.9411Z" fill="#CD171F"/>
<path fill-rule="evenodd" clip-rule="evenodd" d="M50.5128 40.6389C48.6667 40.7396 47.3846 41.6966 47.641 42.7544C47.8974 43.8121 49.5385 44.5173 51.3846 44.4165C53.2308 44.3158 54.5128 43.3588 54.2564 42.3011C54 41.2937 52.3077 40.5382 50.5128 40.6389Z" fill="#E30613"/>
<path fill-rule="evenodd" clip-rule="evenodd" d="M51.8974 42.9557C51.3333 43.006 50.9744 43.2579 51.0256 43.6105C51.0769 43.9127 51.5897 44.1645 52.1538 44.1141C52.7179 44.0638 53.0769 43.8119 53.0256 43.4594C52.9744 43.1571 52.4615 42.9053 51.8974 42.9557Z" fill="#CD171F"/>
<path fill-rule="evenodd" clip-rule="evenodd" d="M52.0513 42.855C51.6923 42.855 51.4359 43.0565 51.4872 43.2579C51.5385 43.4594 51.8461 43.6105 52.2051 43.5601C52.5641 43.5601 52.8205 43.3587 52.7692 43.1572C52.7179 42.9557 52.4103 42.855 52.0513 42.855Z" fill="#E30613"/>
<path fill-rule="evenodd" clip-rule="evenodd" d="M47.7436 39.8834L51.641 42.4019C51.7949 42.5026 51.6923 43.0063 51.641 43.107C51.5897 43.5603 52.7179 43.6107 52.6667 43.107C52.6667 42.9055 52.6154 41.9485 52.2051 41.6967L48.2564 39.1279C48.1026 39.0272 47.8974 39.1279 47.7436 39.3294C47.641 39.5308 47.5897 39.7827 47.7436 39.8834Z" fill="#878787"/>
<path fill-rule="evenodd" clip-rule="evenodd" d="M47.641 39.9339C48.359 40.7902 50.359 41.5457 51.641 42.402C51.7436 42.4524 51.7436 42.7042 51.6923 42.9057C51.8461 43.1575 52.5128 43.1575 52.6154 42.8553C52.5641 42.5027 52.5128 41.8983 52.2051 41.6968L48.2564 39.128C47.8974 38.9266 47.3333 39.5814 47.641 39.9339Z" fill="#E7B84C"/>
<path fill-rule="evenodd" clip-rule="evenodd" d="M45.8461 45.1218C46.4103 46.6328 48.8205 47.7913 51.5897 47.5898C53.0769 47.4891 55.3846 46.8847 56 45.2729C56 45.1218 56 44.9707 56 44.8196C55.4359 45.9277 53.7436 46.7336 51.641 46.8847C48.9744 47.0861 46.5128 46.0788 45.8461 44.6685C45.8461 44.8196 45.8461 44.9707 45.8461 45.1218Z" fill="#E8DEC7"/>
<path fill-rule="evenodd" clip-rule="evenodd" d="M46.4615 43.5601C47.1795 44.769 49.282 45.5749 51.5385 45.4238C53.4359 45.2727 54.9231 44.5171 55.4359 43.5098C54.6667 44.366 53.282 44.9705 51.5385 45.0712C49.4872 45.2223 47.4872 44.5675 46.4615 43.5601Z" fill="#F3EDDF"/>
</g>
<defs>
<linearGradient id="paint0_linear" x1="29.1933" y1="20.8314" x2="30.8814" y2="20.2058" gradientUnits="userSpaceOnUse">
<stop stop-color="#575756"/>
<stop offset="0.19" stop-color="#575756"/>
<stop offset="0.48" stop-color="#EDEDED"/>
<stop offset="0.92" stop-color="#575756"/>
<stop offset="1" stop-color="#575756"/>
</linearGradient>
<clipPath id="clip0">
<rect width="56" height="41" fill="white" transform="translate(0 8)"/>
</clipPath>
</defs>
</svg>
