<svg width="56" height="56" viewBox="0 0 56 56" fill="none" xmlns="http://www.w3.org/2000/svg">
<path d="M39.0929 27.0036C38.7619 27.0036 38.5651 27.0036 38.1983 26.9576V26.4659C40.4346 26.6635 42.0985 26.2086 42.9617 25.2159C43.3702 24.7627 43.5373 24.1329 43.4089 23.5294C42.908 21.9715 40.2379 22.0405 37.6482 22.1048C37.1294 22.1048 36.615 22.1324 36.1096 22.1324V21.6269C36.6061 21.6269 37.1204 21.6269 37.6348 21.5993C40.3944 21.5304 43.2524 21.4614 43.8696 23.3961C44.0415 24.1617 43.8339 24.9651 43.315 25.5422C42.5323 26.4889 40.9893 27.0036 39.0929 27.0036Z" fill="#474747"/>
<path d="M38.981 20.8633V21.2585H35.877V22.3752H38.981V22.821H39.0973V20.8633H38.981Z" fill="#171717"/>
<path d="M26.3056 11.5806L29.763 17.1089L31.3776 17.5685L36.6195 20.4728L38.0239 19.7789L38.9319 20.5831L38.7261 21.1116L39.482 22.5224L38.8648 23.5242L37.3441 23.8643L35.716 21.7871L29.186 19.8065L24.1543 14.2873L26.3056 11.5806Z" fill="#C29169"/>
<path d="M23.716 8.91064L25.5945 9.30586L29.4857 15.5557L26.404 19.1861L22.477 12.9593L22.3026 10.6937L23.716 8.91064Z" fill="#B56A49"/>
<path d="M24.3376 37.3521H26.2653L29.8524 38.7307V40.1369H24.0201L23.9261 38.1563L24.3376 37.3521Z" fill="#BF5F57"/>
<path d="M27.1196 11.3418L24.6194 9.60473L25.4603 7.57812L27.8532 8.4145L27.1196 11.3418Z" fill="#FFBF8A"/>
<path d="M27.6116 9.2279L25.1337 8.33638L25.4602 7.57812L27.8531 8.4145L27.6116 9.2279Z" fill="#C29169"/>
<path d="M30.6485 3.38658L31.1629 3.88289L30.5546 5.41318L31.0198 6.42419L30.2505 6.55286L29.2799 9.13092L25.3753 7.71552L24.7536 4.66872L25.836 2.26069L28.5017 1.11182L30.6485 3.38658Z" fill="#FFBF8A"/>
<path d="M23.8769 24.3745L31.95 27.9038V29.4709L27.2403 35.3991L26.6902 36.8604L25.5273 35.4358L26.632 31.3091L28.1348 29.9994L22.9019 29.4663L23.8769 24.3745Z" fill="#FFBF8A"/>
<rect width="0.346102" height="8.18547" transform="matrix(0.573396 -0.819279 0.804282 0.594247 39.0942 40.833)" fill="#5E5E5E"/>
<path d="M41.1056 52.5859L45.9629 45.6421L45.6856 45.4399L40.8328 52.3837L41.1056 52.5859Z" fill="#5E5E5E"/>
<rect width="8.24459" height="0.349015" transform="matrix(0.986079 -0.166275 0.157728 0.987483 37.6689 46.7373)" fill="#5E5E5E"/>
<rect width="8.2625" height="0.349015" transform="matrix(0.986079 -0.166275 0.157728 0.987483 45.799 45.3662)" fill="#5E5E5E"/>
<path d="M45.9627 45.6422L50.583 39.0293L50.3056 38.8271L45.6854 45.44L45.9627 45.6422Z" fill="#5E5E5E"/>
<path d="M52.4257 50.6286L52.6225 50.3483L45.9225 45.3989L45.7213 45.6838L52.4257 50.6286Z" fill="#5E5E5E"/>
<rect width="0.335693" height="8.39929" transform="matrix(0.98602 -0.166628 0.158064 0.987429 45.656 45.5674)" fill="#5E5E5E"/>
<rect width="0.335692" height="8.58759" transform="matrix(0.986079 -0.166275 0.157728 0.987483 44.3046 37.0884)" fill="#5E5E5E"/>
<path fill-rule="evenodd" clip-rule="evenodd" d="M40.461 36.6611C36.9636 38.89 35.1173 43.064 35.7831 47.2369C36.699 52.9303 41.9264 56.7885 47.4701 55.8626C51.5314 55.1786 54.7919 52.0483 55.731 47.9313C56.6702 43.8144 55.1032 39.5215 51.7606 37.0545C48.4181 34.5875 43.9583 34.4322 40.461 36.6611ZM43.751 54.6474C40.1664 53.7857 37.44 50.7902 36.8431 47.0578C36.0333 41.9627 39.391 37.1559 44.3481 36.3135C47.9808 35.7 51.6154 37.3953 53.5572 40.6088C55.4989 43.8224 55.3654 47.9213 53.2189 50.9943C51.0724 54.0673 47.3355 55.5091 43.751 54.6474Z" fill="#212121"/>
<path fill-rule="evenodd" clip-rule="evenodd" d="M36.7223 47.1222C37.079 49.5705 38.382 51.7675 40.3362 53.2158C43.6911 55.7559 48.2905 55.6547 51.5366 52.9694C54.7826 50.2841 55.8603 45.6887 54.1609 41.779C52.4615 37.8694 48.4117 35.6268 44.2989 36.3182H44.1648C39.4059 37.1224 35.9799 42.0671 36.7223 47.1222ZM40.9892 52.3198C39.2607 51.0499 38.1056 49.1156 37.7868 46.9569C37.1338 42.4901 40.135 38.1198 44.3616 37.3845H44.4824C48.1149 36.7738 51.6922 38.7535 53.1946 42.2061C54.697 45.6587 53.7476 49.7179 50.8824 52.0921C48.0172 54.4663 43.9551 54.5598 40.9892 52.3198Z" fill="#757575"/>
<path d="M46.1705 47.6928C47.3283 47.4976 48.1129 46.3749 47.9229 45.1853C47.7329 43.9957 46.6402 43.1895 45.4824 43.3848C44.3245 43.58 43.54 44.7027 43.73 45.8923C43.92 47.082 45.0127 47.8881 46.1705 47.6928Z" fill="#757575"/>
<rect width="0.346105" height="8.22151" transform="matrix(0.573112 -0.819477 0.804492 0.593964 3.46234 40.7544)" fill="#5E5E5E"/>
<path d="M5.48549 52.5678L10.3651 45.5918L10.0834 45.3896L5.20819 52.3656L5.48549 52.5678Z" fill="#5E5E5E"/>
<rect width="8.28488" height="0.349015" transform="matrix(0.986079 -0.166275 0.157728 0.987483 2.03357 46.6943)" fill="#5E5E5E"/>
<rect width="8.30278" height="0.349015" transform="matrix(0.986079 -0.166275 0.157728 0.987483 10.1975 45.3169)" fill="#5E5E5E"/>
<path d="M10.3651 45.5921L15.0077 38.947L14.7304 38.7402L10.0834 45.3899L10.3651 45.5921Z" fill="#5E5E5E"/>
<path d="M16.8594 50.6008L17.0607 50.3205L10.3249 45.3481L10.1237 45.6331L16.8594 50.6008Z" fill="#5E5E5E"/>
<rect width="0.340168" height="8.44064" transform="matrix(0.986079 -0.166275 0.157728 0.987483 10.0538 45.5225)" fill="#5E5E5E"/>
<rect width="0.340166" height="8.62896" transform="matrix(0.986169 -0.165745 0.157224 0.987563 8.69794 36.999)" fill="#5E5E5E"/>
<path fill-rule="evenodd" clip-rule="evenodd" d="M8.57142 35.1244C2.99922 36.0633 -0.777279 41.4655 0.136258 47.1908C1.0567 52.9125 6.31043 56.7893 11.8814 55.8579C17.4535 54.9186 21.2296 49.516 20.3156 43.7908C19.4016 38.0656 14.1436 34.1856 8.57142 35.1244ZM8.14032 54.6404C4.5384 53.7734 1.79949 50.7624 1.20075 47.0114H1.18286C0.371175 41.8849 3.75688 37.0525 8.74608 36.2166C12.3967 35.6013 16.0487 37.3061 17.999 40.5361C19.9493 43.7661 19.8138 47.8851 17.6558 50.9724C15.4978 54.0598 11.7422 55.5075 8.14032 54.6404Z" fill="#212121"/>
<path fill-rule="evenodd" clip-rule="evenodd" d="M1.07999 47.076C1.43771 49.5361 2.74735 51.7434 4.71177 53.1972C8.08322 55.7494 12.7051 55.6473 15.9667 52.9486C19.2283 50.2499 20.3108 45.6321 18.6028 41.7035C16.8949 37.7749 12.8251 35.5218 8.69241 36.2169H8.55823C3.76357 37.0257 0.333064 42.021 1.07999 47.076ZM5.35136 52.3008C3.62178 51.0204 2.46864 49.0766 2.15343 46.9103C1.49595 42.4206 4.5105 38.0273 8.74161 37.292H8.86237C12.5131 36.6781 16.1083 38.6677 17.6181 42.1376C19.128 45.6075 18.1736 49.687 15.294 52.0729C12.4143 54.4588 8.33175 54.5524 5.35136 52.3008Z" fill="#757575"/>
<path d="M25.2993 40.1318L26.1581 40.8395L24.8431 45.7291C24.8022 45.8485 24.7152 45.9452 24.6026 45.9965C24.49 46.0479 24.3618 46.0492 24.2482 46.0003C24.1269 45.9814 24.0185 45.9122 23.9483 45.8088C23.8781 45.7054 23.8523 45.5769 23.877 45.4534L25.2993 40.1318Z" fill="#8C8C8C"/>
<path d="M24.5415 45.6651C24.6171 45.568 24.6018 45.4263 24.5073 45.3486C24.4128 45.2709 24.2748 45.2866 24.1992 45.3837C24.1236 45.4808 24.1389 45.6225 24.2335 45.7002C24.328 45.7779 24.4659 45.7622 24.5415 45.6651Z" fill="#383838"/>
<rect width="3.37236" height="0.946668" transform="matrix(0.999999 -0.00143461 0.00135894 0.999999 24.1082 40.1367)" fill="#383838"/>
<path d="M18.0715 30.7347L19.9589 30.05L20.2273 29.3652H18.0715V30.7347Z" fill="#424242"/>
<rect width="0.771794" height="5.03024" transform="matrix(0.936647 -0.350275 0.333909 0.942605 18.7095 30.5103)" fill="#737373"/>
<rect width="1.09935" height="11.8518" transform="matrix(0.936709 -0.350108 0.333748 0.942662 20.1945 35.2134)" fill="#944141"/>
<rect width="18.4254" height="1.42269" transform="matrix(0.90556 -0.424219 0.405607 0.914047 21.7332 37.0352)" fill="#944141"/>
<path d="M39.5625 30.3345L24.9594 46.0556L24.0469 44.6815L38.4041 28.9053L39.5625 30.3345Z" fill="#944141"/>
<rect width="1.13188" height="8.89762" transform="matrix(0.916759 -0.399442 0.38151 0.924365 37.4668 26.8066)" fill="#737373"/>
<rect width="1.72476" height="12.4905" transform="matrix(0.916759 -0.399442 0.38151 0.924365 40.6088 35.1367)" fill="#944141"/>
<rect width="1.6035" height="5.94546" transform="matrix(0.916688 -0.399604 0.381668 0.924299 37.8354 28.3521)" fill="#944141"/>
<path d="M10.2578 46.0145L22.3518 39.2223L21.9224 38.3584L9.82843 45.1505L10.2578 46.0145Z" fill="#944141"/>
<rect width="14.554" height="0.969643" transform="matrix(0.999938 -0.011118 0.0105316 0.999945 9.92297 45.0488)" fill="#944141"/>
<rect width="2.25737" height="0.874905" transform="matrix(0.933809 -0.357772 0.34115 0.940009 19.402 35.6875)" fill="#5E3D3D"/>
<path d="M9.94021 44.0845L9.91785 43.7904L24.0379 42.7334L24.0603 43.0321L9.94021 44.0845Z" fill="#383838"/>
<rect width="0.294073" height="14.7214" transform="matrix(0.0673919 -0.997727 0.997467 0.0711263 10.0406 47.1816)" fill="#383838"/>
<path d="M10.4998 47.3992C11.548 47.2227 12.2584 46.2065 12.0865 45.1295C11.9147 44.0525 10.9257 43.3226 9.87751 43.4992C8.82933 43.6757 8.11891 44.6919 8.29075 45.7689C8.46258 46.8458 9.4516 47.5758 10.4998 47.3992Z" fill="#757575"/>
<path d="M10.1907 46.5341C10.7662 46.5341 11.2328 46.0547 11.2328 45.4633C11.2328 44.872 10.7662 44.3926 10.1907 44.3926C9.61513 44.3926 9.14856 44.872 9.14856 45.4633C9.14856 46.0547 9.61513 46.5341 10.1907 46.5341Z" fill="#944141"/>
<path d="M10.1907 45.8123C10.3785 45.8123 10.5307 45.6559 10.5307 45.463C10.5307 45.2701 10.3785 45.1138 10.1907 45.1138C10.003 45.1138 9.85083 45.2701 9.85083 45.463C9.85083 45.6559 10.003 45.8123 10.1907 45.8123Z" fill="#454545"/>
<path d="M22.7141 29.7834L15.1106 29.8478C14.8099 29.8961 14.525 29.6942 14.4621 29.3882L14.5024 28.2577C14.5814 27.9519 14.8818 27.765 15.1822 27.835L22.7633 28.4691C23.2687 28.5151 23.6578 28.8184 23.631 29.1493C23.622 29.5077 23.224 29.7789 22.7141 29.7834Z" fill="#262626"/>
<path d="M24.3332 48.4684C25.9487 48.4684 27.2583 47.1228 27.2583 45.463C27.2583 43.8031 25.9487 42.4575 24.3332 42.4575C22.7177 42.4575 21.4081 43.8031 21.4081 45.463C21.4081 47.1228 22.7177 48.4684 24.3332 48.4684Z" fill="#5E5E5E"/>
<path d="M24.3332 46.5106C24.8544 46.5106 25.2769 46.0765 25.2769 45.5409C25.2769 45.0054 24.8544 44.5713 24.3332 44.5713C23.812 44.5713 23.3895 45.0054 23.3895 45.5409C23.3895 46.0765 23.812 46.5106 24.3332 46.5106Z" fill="#383838"/>
<path d="M23.3984 50.913L22.5396 50.2053L23.859 45.3157C23.8999 45.1963 23.987 45.0996 24.0995 45.0483C24.2121 44.997 24.3403 44.9956 24.4539 45.0446C24.576 45.0623 24.6856 45.131 24.7568 45.2346C24.8279 45.3381 24.8542 45.4672 24.8296 45.5914L23.3984 50.913Z" fill="#8C8C8C"/>
<path d="M24.4967 45.6604C24.5724 45.5633 24.5571 45.4216 24.4626 45.3438C24.3681 45.2661 24.2302 45.2818 24.1545 45.3789C24.0789 45.476 24.0942 45.6177 24.1887 45.6954C24.2832 45.7731 24.4211 45.7574 24.4967 45.6604Z" fill="#383838"/>
<rect x="21.2157" y="50.1504" width="3.37236" height="0.900714" fill="#383838"/>
<path d="M45.851 47.0296C46.6513 47.0296 47.3001 46.363 47.3001 45.5407C47.3001 44.7184 46.6513 44.0518 45.851 44.0518C45.0507 44.0518 44.4019 44.7184 44.4019 45.5407C44.4019 46.363 45.0507 47.0296 45.851 47.0296Z" fill="#944141"/>
<path d="M45.8241 45.9637C46.0514 45.9637 46.2356 45.7744 46.2356 45.5409C46.2356 45.3075 46.0514 45.1182 45.8241 45.1182C45.5969 45.1182 45.4127 45.3075 45.4127 45.5409C45.4127 45.7744 45.5969 45.9637 45.8241 45.9637Z" fill="#454545"/>
<path d="M38.0641 27.0036C37.7331 27.0036 37.5363 27.0036 37.1695 26.9576V26.4659C39.4058 26.6635 41.0697 26.2086 41.9329 25.2159C42.3414 24.7627 42.5085 24.1329 42.3801 23.5294C41.8792 21.9715 39.209 22.0405 36.6194 22.1048C36.1006 22.1048 35.5862 22.1324 35.0808 22.1324V21.6269C35.5773 21.6269 36.0916 21.6269 36.606 21.5993C39.3656 21.5304 42.2236 21.4614 42.8408 23.3961C43.0246 24.1541 42.8339 24.9565 42.3309 25.5422C41.5035 26.4889 39.9783 27.0036 38.0641 27.0036Z" fill="#707070"/>
<rect x="37.0756" y="26.3555" width="1.98137" height="0.716894" fill="#525252"/>
<path d="M38.668 20.8633V21.2585H35.564V22.3752H38.668V22.821H38.7843V20.8633H38.668Z" fill="#3D3D3D"/>
<path d="M19.5922 30.381L25.2858 30.7762L28.1349 26.2358L22.562 23.4556L19.5922 30.381Z" fill="#373B4D"/>
<path d="M23.6311 29.0889L27.2584 36.506L27.151 37.8846L24.2483 44.2448L23.7608 46.6804H21.7212L22.5621 43.1694L23.0049 38.698L23.9218 36.8828L19.1629 32.1495L23.6311 29.0889Z" fill="#FFBF8A"/>
<path d="M17.7227 21.7368L15.7145 23.9932L15.6966 27.7063L21.4618 36.1023L26.3817 32.8027L22.3519 25.0731L22.7723 23.0925L17.7227 21.7368Z" fill="#525873"/>
<path d="M23.631 34.6456L18.6306 26.4794L19.4043 23.4556L19.8292 23.5888L19.2075 26.507L24.0469 34.3698L23.631 34.6456Z" fill="white"/>
<path d="M22.7096 9.06269L20.8624 11.3604L18.8139 17.0221L15.7278 22.5734L22.8258 24.7517L27.2537 15.0184L27.1911 11.3191L27.3253 10.6849L24.8519 8.74561L22.7096 9.06269Z" fill="#CCCCCC"/>
<path d="M25.8092 11.8516L29.2173 17.4121L30.8275 17.8854L36.047 20.8357L37.4559 20.1556L38.3549 20.9644L38.1492 21.4929L38.8916 22.9083L38.2655 23.9101L36.7403 24.2318L35.1302 22.1408L28.618 20.105L23.6355 14.5399L25.8092 11.8516Z" fill="#FFBF8A"/>
<path d="M23.0584 8.95166L24.928 9.36066L28.77 15.6473L25.657 19.2547L21.7837 12.9911L21.6272 10.7209L23.0584 8.95166Z" fill="#D47C55"/>
<path d="M27.2403 4.09917L26.4263 5.19289L28.7073 3.99806L28.5911 4.90797L30.5769 3.46499L30.7111 4.53114L31.9813 3.73612L31.9008 2.15528L28.7029 0L26.1043 0.0781231L23.9037 2.9503L24.114 6.72318L25.1337 8.33619L26.3861 6.06603L25.5049 5.41347L25.9567 4.31975L27.2403 4.09917Z" fill="#795547"/>
<path d="M21.6541 46.6807H24.0515L28.5196 48.404V50.1502H21.2561L21.1398 47.6871L21.6541 46.6807Z" fill="#BF5F57"/>
<path d="M23.2776 45.5179L24.1274 45.1411L24.4897 45.7477L24.0112 46.6806H23.2776V45.5179Z" fill="#7A3C38"/>
<path d="M22.3697 26.125L20.8401 26.5065L21.35 25.376L22.3697 26.125Z" fill="white"/>
<path d="M22.088 48.188V49.5391L24.0023 48.8635L22.088 48.188Z" fill="white"/>
</svg>
