<svg width="56" height="56" viewBox="0 0 56 56" fill="none" xmlns="http://www.w3.org/2000/svg">
<g clip-path="url(#clip0)">
<path d="M34.8069 19.4734C35.6182 19.223 37.0536 17.4078 38.9881 17.5956C40.9851 17.7834 40.1739 19.0979 38.8009 19.849C37.9272 20.3497 35.8678 21.4764 34.7445 21.7268C32.7475 22.2901 27.443 22.6031 27.443 22.6031L27.131 19.536C27.1934 19.5986 32.1235 20.2871 34.8069 19.4734Z" fill="#EAAD75"/>
<path d="M32.7475 31.8042C33.1844 32.305 34.6197 33.7446 35.4934 35.372C36.2423 36.6865 36.4919 38.1887 36.8663 39.3154C37.3032 40.5673 41.4844 52.147 41.4844 52.147L38.8633 53.524C38.8633 53.524 35.6806 47.4525 34.1829 45.1992C31.9987 41.8817 31.437 37.5628 29.3776 37.5628C27.3182 37.5002 23.9483 33.3065 23.9483 33.3065C23.9483 33.3065 31.9363 30.9279 32.7475 31.8042Z" fill="#F9C38A"/>
<path d="M20.4536 36.2486C22.0137 35.1219 22.4506 33.9326 22.4506 33.9326L26.2573 38.1264C26.2573 38.1264 25.1964 39.3782 23.9483 40.2545C23.5115 40.5675 23.137 40.8805 22.7002 40.943C21.2025 41.1934 19.6423 41.0056 17.5205 40.8179C13.9634 40.5049 8.78365 39.3782 8.78365 40.0041L9.03328 37.3126C9.03328 37.3126 18.3318 36.1234 20.4536 36.2486Z" fill="#EAAD75"/>
<path d="M30.6257 30.3646C30.6257 30.3646 30.5633 33.995 29.0656 35.9354C27.6303 37.8132 25.6333 39.691 25.6333 39.691C25.6333 39.691 22.5754 40.0039 21.5769 37.9383C21.0152 36.7491 20.4536 34.2453 20.4536 34.2453L25.7581 26.5464L30.6257 30.3646Z" fill="#751313"/>
<path d="M25.6333 24.9189C26.6318 25.1693 27.5679 24.7311 27.6303 24.9189C28.816 27.4852 33.4964 31.3034 35.0566 33.9949C34.6198 34.5582 33.8085 36.1856 33.0596 37.1245C32.3731 36.4986 31.125 35.3093 29.8145 34.3704C27.9423 33.056 25.7581 31.4912 25.134 29.8637C24.51 28.2989 24.3228 27.1096 24.3228 27.1096L23.4491 27.4226C23.4491 27.4226 23.6363 28.4241 24.3852 29.9889C25.134 31.5538 27.5055 33.3064 29.4401 34.8086C30.7506 35.8101 31.9363 36.9368 32.5604 37.5627C32.4979 37.6253 32.498 37.6253 32.4355 37.6253C32.2483 37.7505 32.0611 37.8757 31.8739 37.9383C31.1874 37.2497 30.0017 36.1856 28.816 35.3719C26.9438 34.0575 24.8844 32.4301 24.1355 30.8652C23.4491 29.4882 23.0122 28.2363 23.0122 28.2363L22.4506 28.4241C22.4506 28.4241 22.6378 29.4256 23.3867 30.9904C24.1355 32.5552 26.507 34.3079 28.4416 35.8101C29.5025 36.6238 30.501 37.5001 31.125 38.1886C30.2513 38.439 29.5025 38.5016 29.0032 38.5016C28.816 38.2512 27.4431 37.5627 25.4461 35.8101C23.2619 33.8697 21.5769 32.3675 21.0152 30.6775C20.204 28.1111 21.0152 27.1096 21.2649 26.2333L25.6333 24.9189Z" fill="#821C0B"/>
<path d="M25.1965 29.8638C25.8205 31.4286 28.0671 33.056 29.8769 34.3705C31.1874 35.3094 32.4356 36.4987 33.122 37.1246C32.9348 37.3124 32.81 37.5001 32.6228 37.6253C31.9987 36.9994 30.813 35.8101 29.5025 34.8712C27.5679 33.369 25.1965 31.679 24.4476 30.0516C23.6987 28.4867 23.5115 27.4852 23.5115 27.4852L24.3852 27.1723C24.3852 27.1097 24.5724 28.299 25.1965 29.8638Z" fill="#E5912C"/>
<path d="M24.1979 30.9277C24.9468 32.43 27.0686 34.12 28.8784 35.4344C30.0641 36.3108 31.2498 37.3748 31.9363 38.0008C31.6867 38.126 31.437 38.1885 31.1874 38.2511C30.501 37.5626 29.5649 36.6863 28.504 35.8726C26.5694 34.3704 24.1979 32.6803 23.4491 31.0529C22.7002 29.4881 22.513 28.4866 22.513 28.4866L23.0746 28.2988C23.0746 28.2988 23.5115 29.5507 24.1979 30.9277Z" fill="#E5912C"/>
<path d="M25.6333 6.89209L28.0047 9.14544C28.0047 9.14544 26.9438 10.3347 26.9438 11.6492C26.9438 12.4629 28.0047 14.0903 28.0047 14.6536C28.0047 14.6536 25.134 12.2751 24.8844 12.0873C24.6348 11.837 23.2619 10.9606 23.5739 10.5225C25.0092 8.14395 25.6333 6.89209 25.6333 6.89209Z" fill="#EAAD75"/>
<path d="M20.7656 12.2754C21.6393 9.95947 22.5754 9.95947 23.6987 9.95947C24.6348 9.95947 25.0716 10.3976 26.2573 12.4006C26.5694 12.8388 27.2558 13.6525 27.7551 13.4647C28.3791 15.1547 28.2543 15.718 28.2543 18.5973C28.2543 23.6674 29.5649 25.3574 30.0641 27.6733C29.7521 27.6733 27.5055 29.0504 25.5085 29.4885C22.9498 30.0519 20.516 29.2382 20.204 28.6748C20.5784 26.4841 20.3912 21.9774 20.2664 20.6003C19.8295 16.1562 19.9543 14.4036 20.7656 12.2754Z" fill="white"/>
<path d="M26.4445 2.00992C27.3806 1.38399 28.816 1.3214 29.6272 1.75955C31.3122 2.76104 31.6242 3.76253 31.2498 6.45404C30.813 9.45851 29.128 9.70888 28.1295 9.33332C27.131 8.95776 26.0077 7.58072 26.0077 7.58072L25.6957 7.20516C24.3851 4.63884 25.1964 2.82363 26.4445 2.00992Z" fill="#F9C38A"/>
<path d="M26.3197 0.632886C27.3806 -0.744163 29.128 0.445107 30.1265 1.19622C30.5009 1.4466 31.0002 1.75956 31.7491 1.57178C31.6866 2.13512 31.125 2.63587 31.125 2.63587C31.125 2.63587 31.6866 2.88624 32.3731 2.69846C31.6242 4.51366 27.8799 5.077 27.8799 5.077C27.8799 5.077 27.3182 3.88773 26.819 4.2007C25.9453 4.63885 26.3821 6.07849 26.3821 6.07849C26.3821 6.07849 26.0077 6.8922 25.1964 7.51813C25.134 6.76702 23.6987 5.76553 24.0731 3.38699C24.2603 2.63587 24.6972 0.758073 26.3197 0.632886Z" fill="#751313"/>
<path d="M18.5189 13.7778C21.9513 10.0848 23.5738 10.3977 24.822 11.587C25.5708 12.2755 26.1949 13.7778 24.8844 15.6556C24.3227 16.4693 22.5129 17.2204 21.14 17.9715C19.3302 18.9104 17.146 19.9745 17.146 19.9745C17.146 19.9745 16.3347 24.982 16.5844 26.6094C16.8964 28.2994 17.8949 29.0505 17.458 30.6779C17.0212 32.3054 16.0851 32.055 15.149 31.2413C14.2129 30.4276 13.9633 29.0505 14.2753 27.1727C14.4626 25.9834 13.8385 22.7286 13.7137 20.663C13.6513 19.5364 13.7137 18.5349 13.7137 18.5349C13.7137 18.5349 15.0866 17.4708 18.5189 13.7778Z" fill="#F9C38A"/>
<path d="M41.1724 50.8329C41.1724 50.8329 42.5453 51.2085 42.7949 51.0833C43.6062 50.7703 44.9791 49.6437 46.2272 49.3933C47.1009 49.2055 47.1009 50.3948 46.7265 51.3337C46.3521 52.2726 44.2303 54.1504 43.2942 54.5259C42.3581 54.9015 40.6731 55.5274 40.1739 55.5274C39.6746 55.5274 39.3002 55.7778 39.0506 54.9015C38.7385 54.0252 38.4265 53.0863 38.2393 52.2726C38.4889 51.8344 39.737 52.0848 40.2363 51.897C41.2972 51.5215 41.1724 50.8329 41.1724 50.8329Z" fill="#E57428"/>
<path d="M40.9227 54.526C41.5468 54.839 41.9212 54.9642 42.9197 54.4008C43.8558 53.8375 45.9776 52.0223 46.1648 51.4589C46.4145 50.5826 46.2897 49.8941 46.7265 49.5186C47.2257 49.5811 47.7874 49.8315 47.413 50.8956C47.0385 51.9597 44.6671 54.0253 42.9821 54.9642C41.2972 55.9031 39.737 56.2786 39.425 55.7779C39.2378 55.4649 38.9257 54.526 38.9257 54.526C38.9257 54.526 40.2987 54.1504 40.9227 54.526Z" fill="#821C0B"/>
<path d="M40.9227 49.3931C41.11 49.7687 41.6716 50.5824 42.046 50.7076C42.4205 50.8328 44.5423 50.1442 44.5423 50.1442C44.5423 50.1442 44.2927 50.8954 43.731 51.0831C43.1694 51.2709 41.4844 51.4587 41.0475 51.2083C40.6731 50.958 40.0491 50.1442 39.9866 49.8313C39.7994 49.1427 40.6731 48.8298 40.9227 49.3931Z" fill="#821C0B"/>
<path d="M41.3596 51.5838C41.5468 51.5212 41.734 51.6465 41.7964 51.897C41.8588 52.085 41.734 52.2729 41.4844 52.3355C41.2972 52.3982 41.11 52.2729 41.0476 52.0223C40.9851 51.8344 41.11 51.6465 41.3596 51.5838Z" fill="white"/>
<path d="M42.7949 51.5838C42.9821 51.5212 43.1693 51.6465 43.2317 51.897C43.2941 52.085 43.1693 52.2729 42.9197 52.3355C42.7325 52.3982 42.5453 52.2729 42.4829 52.0223C42.4829 51.8344 42.6077 51.6465 42.7949 51.5838Z" fill="white"/>
<path d="M44.2303 51.0204C44.4175 50.9577 44.6047 51.083 44.6671 51.3336C44.7295 51.5215 44.6047 51.7094 44.3551 51.772C44.1678 51.8347 43.9806 51.7094 43.9182 51.4588C43.9182 51.2709 44.043 51.083 44.2303 51.0204Z" fill="white"/>
<path d="M7.6603 35.6856C8.03473 35.3101 8.15955 34.9971 8.97083 35.4352C9.7821 35.936 10.5934 36.4367 11.2798 36.9375C11.3422 37.4382 10.2813 38.0642 10.0317 38.5023C9.47007 39.5038 9.96932 39.8794 9.96932 39.8794C9.96932 39.8794 8.65879 40.5053 8.53398 40.7557C8.15955 41.5068 7.78511 43.322 7.03624 44.2609C6.47459 44.9494 5.72572 44.0105 5.41369 43.0716C5.10166 42.1327 5.47609 39.316 5.97534 38.4397C6.41218 37.626 7.28586 36.0612 7.6603 35.6856Z" fill="#E57428"/>
<path d="M8.15954 35.0594C8.53398 35.1845 9.34526 35.6853 9.34526 35.6853C9.34526 35.6853 8.47157 36.812 7.7851 36.9997C7.09864 37.1249 6.72421 37.3127 6.34977 38.3768C5.97534 39.4409 5.53849 42.195 5.78811 42.6957C6.16255 43.572 6.6618 44.0102 6.59939 44.5735C6.16255 44.8239 5.6009 45.0117 5.16405 43.9476C4.72721 42.8835 5.22646 39.8164 5.91292 38.0012C6.59939 36.186 7.53548 34.8716 8.15954 35.0594Z" fill="#821C0B"/>
<path d="M9.84451 39.566C10.3438 39.5034 11.2798 39.6912 11.5295 39.879C12.1535 40.3171 11.6543 41.1308 11.0926 40.8804C10.6558 40.6927 9.78211 40.4423 9.40767 40.6301C9.03324 40.7553 7.84752 42.633 7.84752 42.633C7.84752 42.633 7.5979 41.8819 7.84752 41.3812C8.15955 40.8178 9.34526 39.566 9.84451 39.566Z" fill="#821C0B"/>
<path d="M9.28288 38.9403C9.47009 39.0656 9.47009 39.3162 9.34528 39.4415C9.22047 39.6294 8.97085 39.6294 8.84604 39.5041C8.65882 39.3788 8.65882 39.1283 8.78363 39.003C8.90844 38.8151 9.09566 38.8151 9.28288 38.9403Z" fill="white"/>
<path d="M8.15952 39.8788C8.34674 40.0041 8.34674 40.2547 8.22193 40.3799C8.09712 40.5679 7.84749 40.5679 7.72268 40.4426C7.53546 40.3173 7.53546 40.0667 7.66027 39.9415C7.78508 39.7535 8.03471 39.7535 8.15952 39.8788Z" fill="white"/>
<path d="M7.47306 41.1933C7.66028 41.3186 7.66028 41.5691 7.53547 41.6944C7.41066 41.8823 7.16103 41.8823 7.03622 41.757C6.849 41.6318 6.84901 41.3812 6.97382 41.2559C7.03623 41.1306 7.28584 41.068 7.47306 41.1933Z" fill="white"/>
<path d="M28.2543 17.3457V18.0347C28.2543 18.0347 27.755 18.2853 27.131 18.4106C26.3821 18.5985 24.3227 18.5985 24.3227 18.5985V17.9721C24.3227 17.9721 25.0092 17.9095 25.9453 17.7842C27.131 17.7215 28.0671 17.3457 28.2543 17.3457Z" fill="#F7B626"/>
<path d="M28.2543 19.8491L28.3167 20.4755C28.3167 20.4755 27.7551 20.7887 27.131 20.914C26.3821 21.1019 24.3851 21.1646 24.3851 21.1646L24.3227 20.4755C24.3227 20.4755 25.0092 20.4129 25.9453 20.2876C27.131 20.225 28.0671 19.8491 28.2543 19.8491Z" fill="#F7B626"/>
<path d="M51.6566 40.5674C51.7814 40.9429 51.9062 41.3811 51.9062 41.8818C51.9062 44.01 50.1588 45.7626 48.037 45.7626C47.2881 45.7626 46.5393 45.5122 45.9776 45.1367C47.6002 45.0115 48.8483 44.7611 50.0964 43.5093C50.9701 42.5704 51.4693 41.5063 51.6566 40.5674Z" fill="white"/>
<path d="M48.037 37.9385C48.4739 37.9385 48.8483 38.0011 49.2227 38.1263C48.9107 39.4407 48.349 40.317 47.725 40.943C46.5393 42.1322 45.0415 42.3826 44.1678 42.4452C44.1678 42.2574 44.1054 42.0696 44.1054 41.8193C44.1054 39.6911 45.8528 37.9385 48.037 37.9385Z" fill="white"/>
<path d="M50.1588 38.5649C50.4709 38.7527 50.7205 39.0031 50.9077 39.2535C50.6581 40.8183 50.034 41.8824 49.3475 42.5709C47.4754 44.4487 44.8543 44.0731 44.7919 44.0731C44.6671 43.8854 44.5423 43.6976 44.4799 43.5098C46.04 43.3846 47.2257 43.0717 48.4115 41.8824C49.4724 40.8809 49.9716 39.5664 50.1588 38.5649Z" fill="white"/>
<path d="M49.2227 38.1265C49.5348 38.2517 49.8468 38.3768 50.1588 38.5646C49.9716 39.5661 49.5348 40.818 48.4114 41.8821C47.2257 43.0713 46.04 43.3843 44.4799 43.5095C44.2926 43.1965 44.2302 42.821 44.1678 42.4454C45.0415 42.3828 46.5393 42.1324 47.725 40.9432C48.349 40.3172 48.9107 39.4409 49.2227 38.1265Z" fill="#821C0B"/>
<path d="M49.3475 42.5713C50.034 41.8828 50.6581 40.8187 50.9077 39.2539C51.2197 39.6295 51.5318 40.0676 51.6566 40.5684C51.4069 41.5073 50.9701 42.5713 50.034 43.5102C48.7859 44.7621 47.5378 45.0125 45.9152 45.1377C45.4784 44.8873 45.1039 44.5117 44.7919 44.0736C44.7919 44.0736 47.4754 44.4491 49.3475 42.5713Z" fill="#821C0B"/>
</g>
<defs>
<clipPath id="clip0">
<rect width="56" height="56" fill="white"/>
</clipPath>
</defs>
</svg>
