<svg width="56" height="56" viewBox="0 0 56 56" fill="none" xmlns="http://www.w3.org/2000/svg">
<g clip-path="url(#clip0)">
<path fill-rule="evenodd" clip-rule="evenodd" d="M11.3573 16.6673C10.8331 17.3365 10.2507 17.1037 9.63913 17.6856C8.79462 18.5003 8.85286 20.3333 7.97923 20.828C7.19296 21.6426 7.60065 23.272 9.23144 22.37C9.49353 22.1954 11.4155 20.3333 11.9979 19.8678C12.4639 19.4896 13.1919 19.1695 13.8617 18.0057C13.7161 17.7438 13.7743 17.3947 13.2793 16.9292C12.1727 15.969 11.4446 16.58 11.3573 16.6673Z" fill="#4C4E64"/>
<path fill-rule="evenodd" clip-rule="evenodd" d="M10.105 19.4602C10.571 20.0712 10.9787 21.1187 11.532 21.7297C12.2018 22.4862 13.0754 22.6898 13.5996 23.941C13.7161 24.5229 14.2111 24.552 14.91 23.941C15.2595 23.6209 15.871 23.359 15.0265 22.1661C14.91 21.6424 14.7936 20.8859 13.7743 19.5184C13.1336 18.6747 12.0562 17.6563 11.4155 17.0162C11.4155 17.0162 11.0952 16.4052 9.93032 17.3072C8.96932 18.1218 9.87207 19.2566 10.105 19.4602Z" fill="#53577C"/>
<path fill-rule="evenodd" clip-rule="evenodd" d="M14.8518 20.624C15.4051 21.6424 15.143 22.0788 15.0265 22.1952C14.9101 22.3698 14.5897 22.2825 14.3568 22.2825C14.2694 22.137 14.3859 22.0206 14.7353 22.0497C14.8227 21.7878 14.5024 20.7695 14.8518 20.624Z" fill="#313294"/>
<path fill-rule="evenodd" clip-rule="evenodd" d="M16.8029 11.1389C17.0941 12.8264 17.0359 14.2521 17.6183 15.2413C17.6183 15.4741 18.987 15.2704 18.8705 14.7467C18.5211 13.3792 19.22 13.001 18.6375 11.0516C18.9288 8.78214 18.026 8.63666 17.4436 8.75304C16.8612 8.86943 16.5117 9.45134 16.8029 11.1389Z" fill="#FFCC00"/>
<path fill-rule="evenodd" clip-rule="evenodd" d="M8.21219 20.624C8.44516 21.0895 9.14407 21.3223 9.49352 21.7587C9.72649 22.1079 8.41604 22.8935 7.74625 22.3698C6.66877 21.1477 5.41656 20.4204 3.9605 19.8093C3.66929 19.5475 4.30996 18.3255 4.86326 18.5873C5.82426 18.9074 7.33856 18.9074 8.21219 20.624Z" fill="#4C4E64"/>
<path fill-rule="evenodd" clip-rule="evenodd" d="M10.2216 19.6347C10.2507 19.3437 10.9496 19.9547 11.4446 19.5765C12.1727 19.0237 13.0754 18.7327 13.5705 19.3146C13.0754 18.3254 13.2502 17.5398 13.3375 16.4051C12.493 16.1141 10.3672 16.3178 9.52264 16.0269C8.44516 17.8017 9.69737 19.0819 10.2216 19.6347Z" fill="#4C4E64"/>
<path fill-rule="evenodd" clip-rule="evenodd" d="M15.7837 8.52035C15.0556 8.34578 12.493 9.45141 12.1435 10.237C10.9204 11.4881 11.299 13.8448 9.4935 15.9979C8.96932 17.3072 12.5221 18.471 13.7161 17.5691C14.0655 16.6089 16.3661 13.9903 16.7156 13.5539C17.298 13.1465 18.4628 10.6734 18.3755 9.88784C18.3463 9.59688 18.2007 9.24774 17.9678 9.13136C17.1232 8.78221 15.9584 8.57854 15.7837 8.52035Z" fill="#EF7D00"/>
<path fill-rule="evenodd" clip-rule="evenodd" d="M17.8804 15.5904C18.8414 16.6378 20.8799 17.2489 21.4332 17.5398C21.5788 17.6562 22.1321 16.987 21.7244 16.7542C21.0837 16.4051 20.3848 16.0268 19.4238 14.8921C19.22 14.6594 18.5793 14.0774 18.1134 14.3393C17.6183 14.6885 17.1815 14.8339 17.8804 15.5904Z" fill="#FFCC00"/>
<path fill-rule="evenodd" clip-rule="evenodd" d="M21.9574 17.0743C22.103 17.0743 22.2777 17.0743 22.3651 17.2198C22.4816 17.5689 22.8893 18.529 22.9184 18.5872C22.9475 18.6745 22.9184 18.5872 22.9475 18.6745C22.9766 18.7909 22.8601 18.8491 22.6563 18.7618C22.4233 18.8491 22.3651 18.7327 22.2486 18.5872C22.1321 18.6745 22.0447 18.6454 21.8118 18.2963C21.6662 18.3254 21.6953 18.3254 21.6371 18.2672C21.4914 18.0344 21.3458 17.918 21.2585 17.5107C21.2585 17.5107 21.1711 17.4234 21.1711 17.3943C21.2294 17.1907 21.4623 16.8706 21.8118 16.8706C21.8409 16.8997 21.8991 17.0452 21.9574 17.0743Z" fill="#313294"/>
<path fill-rule="evenodd" clip-rule="evenodd" d="M13.3957 25.6286C13.3666 25.0758 13.7452 23.7374 13.6287 23.1555C13.5413 22.7191 15.2304 22.1663 15.4925 23.1846C15.4925 23.1846 15.5216 24.0284 15.5216 24.843C15.5216 26.2105 15.6672 28.7418 16.0458 29.5274C15.5507 29.8184 14.8809 29.7602 14.6188 29.5565C14.1529 28.1599 13.4831 27.1125 13.3957 25.6286Z" fill="#53577C"/>
<path fill-rule="evenodd" clip-rule="evenodd" d="M16.0167 29.5271C16.0458 30.109 16.5117 30.6036 17.0068 30.9819C18.3755 31.8838 18.0551 32.3785 17.2106 32.3203C16.7156 32.2912 16.104 32.1166 15.6963 31.7675C15.1721 31.3601 14.8518 31.1565 14.415 30.9237C14.0073 30.72 13.5705 30.4 13.8326 29.9344C14.0364 29.6144 14.2694 29.6726 14.648 29.3525L16.0167 29.5271Z" fill="#313294"/>
<path fill-rule="evenodd" clip-rule="evenodd" d="M15.7837 28.3926C15.871 29.6146 16.5991 30.662 17.0359 30.953C17.6765 31.4185 18.026 31.564 17.9386 31.9131C17.6474 32.2914 16.3078 32.1459 15.7254 31.5931C15.376 31.273 15.0556 30.8657 14.5606 30.6038C14.2402 30.4293 13.8617 30.2838 13.8326 29.9928C13.8326 29.9928 13.8325 29.9637 13.8617 29.9637C14.1529 29.4982 14.5315 29.44 14.4732 29.2654L14.2402 28.5381C14.4732 28.829 15.4633 28.7417 15.7837 28.3926Z" fill="#4D4EAF"/>
<path fill-rule="evenodd" clip-rule="evenodd" d="M15.3177 28.6253C15.5507 29.8474 15.9293 30.9239 16.8029 31.3603C17.0941 31.5058 17.3271 31.4185 17.4436 31.2439C17.3271 31.1566 17.1815 31.0694 17.0359 30.953C16.6282 30.662 15.9002 29.6146 15.7837 28.3926C15.6672 28.509 15.5216 28.5962 15.3177 28.6253Z" fill="#313294"/>
<path fill-rule="evenodd" clip-rule="evenodd" d="M30.1695 33.0477C22.6271 33.5715 17.3271 37.4994 18.3172 41.8637C19.3073 46.228 26.209 49.3412 33.7514 48.8175C41.2938 48.2938 46.5939 44.3659 45.6037 40.0016C44.6136 35.6663 37.7119 32.5531 30.1695 33.0477Z" fill="#CADBF2"/>
<path fill-rule="evenodd" clip-rule="evenodd" d="M13.8617 20.7694L15.2886 21.6131L15.0265 22.0496L13.5705 21.264C13.5122 21.2349 13.4831 21.2349 13.4831 21.1185C13.4831 21.0021 13.5705 20.8276 13.687 20.7694C13.7743 20.7403 13.8326 20.7403 13.8617 20.7694Z" fill="url(#paint0_linear)"/>
<path fill-rule="evenodd" clip-rule="evenodd" d="M15.143 21.6424C15.0557 21.7005 14.9683 21.846 14.9683 21.9624C14.9683 22.0788 15.0557 22.137 15.143 22.0788C15.2304 22.0206 15.3177 21.8751 15.3177 21.7587C15.3469 21.6133 15.2595 21.5842 15.143 21.6424Z" fill="#575756"/>
<path fill-rule="evenodd" clip-rule="evenodd" d="M15.143 21.7295C15.0848 21.7586 15.0266 21.8459 15.0266 21.9332C15.0266 21.9913 15.0848 22.0204 15.143 21.9913C15.2013 21.9623 15.2595 21.875 15.2595 21.7877C15.2595 21.7004 15.2304 21.6713 15.143 21.7295Z" fill="#1D1D1B"/>
<path fill-rule="evenodd" clip-rule="evenodd" d="M15.8128 34.0372L26.7915 41.1365L27.0536 40.991V40.7873C24.2288 37.2377 20.8799 34.7936 16.1914 33.8335L15.8128 34.0372Z" fill="#999999"/>
<path fill-rule="evenodd" clip-rule="evenodd" d="M15.8419 34.2702L26.7915 41.1367V40.9039C23.0931 37.7325 19.4238 35.4049 15.8128 34.0083L15.8419 34.2702Z" fill="#666666"/>
<path fill-rule="evenodd" clip-rule="evenodd" d="M21.1129 36.0157C21.6662 36.3358 21.6079 36.3067 22.1612 36.6267C22.9184 35.3756 24.3744 34.4737 26.4711 33.6299C24.4327 33.659 22.6563 34.4737 21.1129 36.0157Z" fill="#7F7F7F"/>
<path fill-rule="evenodd" clip-rule="evenodd" d="M33.3438 43.9006L44.3225 51.029L44.5846 50.8835V50.6799C41.7598 47.1302 38.4109 44.6862 33.7224 43.7261L33.3438 43.9006Z" fill="#999999"/>
<path fill-rule="evenodd" clip-rule="evenodd" d="M33.3438 44.1332L44.2933 51.0288V50.796C40.5949 47.6246 36.9257 45.297 33.3146 43.9004L33.3438 44.1332Z" fill="#666666"/>
<path fill-rule="evenodd" clip-rule="evenodd" d="M52.1851 45.239C54.5148 44.1333 55.2428 43.5223 55.9126 41.9221C55.9126 41.9221 56.0291 41.4856 56 41.4275C53.5829 39.3908 46.7686 35.8411 42.051 33.979C44.8175 37.2959 49.4186 41.893 52.1851 45.239Z" fill="#0089C4"/>
<path fill-rule="evenodd" clip-rule="evenodd" d="M52.2725 44.7441C54.6022 43.6385 55.3302 43.0275 56 41.4272C53.7286 39.3033 47.0598 35.4045 42.1383 33.4551C44.934 36.8011 49.506 41.3982 52.2725 44.7441Z" fill="#00CCFF"/>
<path fill-rule="evenodd" clip-rule="evenodd" d="M48.9527 37.1793C40.9153 30.2837 39.0224 28.247 28.4514 22.5443C28.1893 22.3988 27.869 22.3406 27.4904 22.3115C33.4894 25.4538 38.5565 28.9162 43.3906 32.524C41.2065 32.7568 39.1098 34.1243 37.0713 36.0155C31.3053 32.815 25.2481 28.9162 20.2392 25.512C18.7832 24.5228 17.4436 26.0357 17.065 26.6759C15.8419 28.7707 17.6475 31.2438 18.9579 32.3204C26.8497 38.6341 33.6641 41.6891 43.1867 45.7043C56.9319 51.5525 59.116 45.8789 48.9527 37.1793Z" fill="#A41E24"/>
<path fill-rule="evenodd" clip-rule="evenodd" d="M48.9527 37.1795C47.7587 36.1612 43.6818 32.6406 42.6916 32.0005C42.9246 32.1751 43.1576 32.3497 43.3905 32.5242C41.2065 32.757 39.1097 34.1245 37.0713 36.0157C31.3053 32.8152 25.2481 28.9164 20.2392 25.5122C18.7832 24.523 17.4436 26.0359 17.065 26.676C16.7738 27.1707 16.6573 27.6653 16.6573 28.1599C17.4145 29.6147 18.6376 30.9822 19.3656 31.5932C27.2574 37.9069 34.0718 40.9619 43.5944 44.9771C50.0302 47.7121 53.9324 47.9158 55.2137 46.4901C55.7379 44.5989 53.6703 41.1947 48.9527 37.1795Z" fill="#FF0000"/>
<path fill-rule="evenodd" clip-rule="evenodd" d="M49.273 46.8681C46.5939 47.9737 45.3417 48.5556 41.7889 49.1375C36.7801 46.0825 32.2663 42.1546 31.247 39.536C31.1888 39.4196 31.2179 39.0414 31.247 38.9541C36.4888 41.5145 44.3516 45.7043 49.273 46.3153C49.1857 46.6062 49.273 46.8681 49.273 46.8681Z" fill="#0089C4"/>
<path fill-rule="evenodd" clip-rule="evenodd" d="M49.273 46.2862C46.5357 47.5664 45.2252 48.0901 41.7889 48.7593C37.6828 45.326 32.7905 41.66 31.247 38.9541C36.8092 41.66 44.0604 45.2096 49.273 46.2862Z" fill="#00CCFF"/>
<path fill-rule="evenodd" clip-rule="evenodd" d="M21.1711 29.7891C28.9464 35.841 35.2948 39.0996 43.7109 42.6493C49.6225 45.1515 53.4082 45.5298 54.9807 44.4532C54.2818 42.562 52.2725 40.0307 48.9527 37.1503C40.9152 30.2837 38.5273 27.927 27.9563 22.1952C27.6942 22.0497 27.3739 21.9915 26.9953 21.9624C32.9943 25.1047 38.5855 28.8871 43.3905 32.495C41.2064 32.7277 39.1097 34.0952 37.0712 35.9864C31.3052 32.7859 25.714 29.2654 20.2392 25.483C19.3073 26.414 18.987 28.1016 21.1711 29.7891Z" fill="#00CCFF"/>
<path fill-rule="evenodd" clip-rule="evenodd" d="M22.2777 26.9377C27.7525 30.7202 31.2762 32.815 37.0421 36.0155C39.1097 34.1243 41.1773 32.7568 43.3614 32.5241C38.5564 28.9162 32.9652 25.1338 26.9662 21.9915C26.2673 21.9624 25.8014 22.0206 25.2481 22.5152C24.5492 23.1553 25.3646 25.7448 22.2777 26.9377Z" fill="#333333"/>
<path fill-rule="evenodd" clip-rule="evenodd" d="M15.2013 21.7586C16.6282 22.6024 17.4727 23.1261 18.9288 24.0571C19.3365 24.319 20.1228 24.9009 20.181 25.541C19.3074 25.8902 17.8804 26.3557 17.0068 26.7048C17.4436 24.6972 16.6282 23.6207 15.0557 21.9914C15.0557 21.9041 15.143 21.7295 15.2013 21.7586Z" fill="#FF0000"/>
<path fill-rule="evenodd" clip-rule="evenodd" d="M21.7244 17.5111L23.1513 18.3548L22.8892 18.7913L21.4332 18.0057C21.3749 17.9766 21.3458 17.9766 21.3458 17.8602C21.3458 17.7438 21.4332 17.5693 21.5497 17.5111C21.637 17.482 21.6953 17.482 21.7244 17.5111Z" fill="url(#paint1_linear)"/>
<path fill-rule="evenodd" clip-rule="evenodd" d="M23.0349 18.3549C22.9475 18.4131 22.8601 18.5585 22.8601 18.6749C22.8601 18.7913 22.9475 18.8495 23.0349 18.7913C23.1222 18.7331 23.2096 18.5876 23.2096 18.4712C23.2096 18.3549 23.1222 18.2967 23.0349 18.3549Z" fill="#575756"/>
<path fill-rule="evenodd" clip-rule="evenodd" d="M23.0349 18.4421C22.9766 18.4712 22.9184 18.5585 22.9184 18.6457C22.9184 18.7039 22.9766 18.733 23.0349 18.7039C23.0931 18.6748 23.1513 18.5876 23.1513 18.5003C23.1513 18.4421 23.0931 18.413 23.0349 18.4421Z" fill="#1D1D1B"/>
<path fill-rule="evenodd" clip-rule="evenodd" d="M23.0931 18.471C24.52 19.3148 25.3645 19.8385 26.8206 20.7696C27.2283 21.0314 28.0146 21.6133 28.0728 22.2534C28.1602 22.4571 28.7426 22.9226 29.7036 23.5045C30.4607 23.9701 25.5975 23.1263 24.8986 23.4172C25.3354 21.4097 24.52 20.3331 22.9475 18.7038C22.9184 18.6165 23.0057 18.4419 23.0931 18.471Z" fill="#333333"/>
<path fill-rule="evenodd" clip-rule="evenodd" d="M32.7613 32.3492C32.9652 33.0475 33.4311 33.7167 33.8971 34.2695C34.4504 34.5896 35.0328 34.9096 35.6152 35.2297C35.7026 35.0842 35.7317 34.9387 35.6152 34.7932C35.1784 34.1822 34.8872 33.7749 34.4795 32.291C34.3921 31.971 34.0427 31.0399 33.5185 31.2145C33.0234 31.36 32.4701 31.3309 32.7613 32.3492Z" fill="#CF0404"/>
<path fill-rule="evenodd" clip-rule="evenodd" d="M32.7031 29.7308C31.9459 30.2545 32.6448 32.0294 32.8195 32.233C32.7904 32.4658 34.363 32.2912 34.3047 31.7384C34.4795 30.4873 36.3141 26.0066 33.402 26.9086C32.7904 27.1122 32.3827 27.8396 32.7031 29.7308Z" fill="#FFCC00"/>
<path fill-rule="evenodd" clip-rule="evenodd" d="M28.7717 28.6832C28.5679 29.3233 28.5096 30.1088 28.5096 31.0399C29.9657 31.9128 31.4217 32.8729 33.0525 33.7749C33.1981 33.2802 33.4311 32.7565 33.6058 32.4947C34.6251 31.5054 35.1492 28.3049 34.3921 27.1411C33.0816 26.4428 33.6058 26.4137 31.7421 26.7338C30.7519 26.9083 29.1503 27.5193 28.7717 28.6832Z" fill="#EF7D00"/>
<path fill-rule="evenodd" clip-rule="evenodd" d="M33.402 28.1304C33.3437 29.4106 31.1014 29.1196 31.1305 27.5194C31.1305 26.5592 33.4893 26.7629 33.402 28.1304Z" fill="#431E44"/>
<path fill-rule="evenodd" clip-rule="evenodd" d="M33.5767 26.0357C33.5767 26.0357 33.2855 26.6758 33.3146 27.8105C33.3437 29.1198 31.3635 28.8288 31.3344 27.1413C31.3344 26.7339 31.48 26.2975 31.975 25.3374C32.0624 24.9882 33.5767 26.0357 33.5767 26.0357Z" fill="#DB9669"/>
<path fill-rule="evenodd" clip-rule="evenodd" d="M34.363 24.9008C34.3339 25.1918 34.4212 25.4536 34.4795 25.7155C34.5668 26.0355 34.1882 26.0937 34.4503 26.5593C34.4795 26.8793 34.363 27.3739 34.2465 27.6649C34.1882 27.8977 34.13 28.2177 33.7514 28.4214C33.1981 28.7414 32.6448 28.1886 32.0915 27.9559C31.5673 27.7231 31.8294 27.083 31.6838 26.6175C31.4217 25.7737 31.5091 24.6681 32.441 24.3771C32.8487 24.2316 33.5185 24.2025 33.9262 24.3771C34.0718 24.4644 34.3921 24.6099 34.363 24.9008Z" fill="#F2B387"/>
<path fill-rule="evenodd" clip-rule="evenodd" d="M34.7707 25.8901C34.8872 24.8427 34.5086 23.8534 33.0234 23.6207C31.9168 23.4461 30.9849 23.8825 30.7519 24.8427C30.6355 25.2791 30.7228 26.152 30.6646 26.7048C30.7228 26.9376 30.8102 27.3158 31.5382 27.4613C31.9168 27.5195 32.2371 26.3266 32.4701 26.3557C33.6641 26.4138 34.5959 26.2393 34.7707 25.8901Z" fill="#1D1B3A"/>
<path fill-rule="evenodd" clip-rule="evenodd" d="M34.7998 25.6574C34.8289 24.6972 34.4212 23.8534 33.0234 23.6207C31.9168 23.4461 30.9849 23.8825 30.752 24.8427C30.6646 25.1918 30.6646 26.0356 30.6937 26.3848C30.7811 26.6466 30.752 27.0539 31.48 27.1412C31.8586 27.1994 32.208 26.0356 32.4119 26.0647C33.5767 26.152 34.5377 25.9774 34.7998 25.6574Z" fill="#4D4EAF"/>
<path fill-rule="evenodd" clip-rule="evenodd" d="M34.6251 25.541C34.6251 24.6972 34.2174 23.9698 32.9943 23.7661C32.4119 23.6788 31.8877 23.7661 31.5091 24.028C31.8294 23.9698 32.1498 23.9407 32.5283 23.9989C33.6641 24.1735 34.3921 24.7845 34.6251 25.541Z" fill="#C3C2CF"/>
<path fill-rule="evenodd" clip-rule="evenodd" d="M30.6937 25.3955C30.9267 25.8028 31.713 26.2102 32.4119 26.3266C32.3245 26.3848 32.3828 26.6466 32.2954 26.8503C31.6256 26.7921 30.8684 26.3266 30.6937 25.9774C30.6646 25.8028 30.6646 25.5992 30.6937 25.3955Z" fill="#EF7D00"/>
<path fill-rule="evenodd" clip-rule="evenodd" d="M32.5575 26.2393C33.4311 26.2974 34.3047 26.2102 34.7707 25.7446L34.858 25.8319C34.858 26.152 34.7416 26.5593 34.5668 26.7921C34.2174 27.1703 34.3921 26.7048 34.0135 26.7921C33.8679 26.8212 33.7806 27.083 33.6058 27.2285C33.3146 27.4322 32.8196 27.4904 32.3827 27.1703C32.0624 26.9085 32.0042 26.1811 32.5575 26.2393Z" fill="#333333"/>
<path fill-rule="evenodd" clip-rule="evenodd" d="M32.6448 26.3267C33.5476 26.3848 34.3921 26.2976 34.858 25.832C34.9163 26.1521 34.7707 26.7631 34.5959 26.9958C34.2465 27.3741 34.5086 26.7922 34.13 26.8795C33.9844 26.9086 33.897 27.1704 33.7223 27.3159C33.4311 27.5196 32.936 27.5778 32.4992 27.2577C32.1789 27.0249 32.0915 26.2976 32.6448 26.3267Z" fill="#4D4EAF"/>
<path fill-rule="evenodd" clip-rule="evenodd" d="M34.8581 25.9482C34.8581 26.2683 34.7124 26.5883 34.5668 26.792C34.2174 27.1703 34.4795 26.5883 34.1009 26.6756C33.9553 26.7047 33.8679 27.0248 33.6641 27.1703C33.3146 27.4321 32.4992 27.3448 32.4119 26.8211C32.3536 26.5302 32.4701 26.4429 32.674 26.472C33.7514 26.5883 34.363 26.4429 34.8581 25.9482Z" fill="#D0DAF2"/>
<path fill-rule="evenodd" clip-rule="evenodd" d="M34.4212 26.9086C34.3047 26.9377 34.3921 26.5885 34.1009 26.6758C33.9553 26.7049 33.8679 27.025 33.6641 27.1704C33.3146 27.4323 32.4992 27.345 32.4119 26.8213C32.3536 26.5303 32.4701 26.443 32.674 26.4721C33.4311 26.5594 33.9262 26.5012 34.3339 26.3267C34.3339 26.3849 34.363 26.4721 34.4212 26.5885C34.4504 26.6758 34.4212 26.7922 34.4212 26.9086Z" fill="#A3B6E0"/>
<path fill-rule="evenodd" clip-rule="evenodd" d="M33.0525 26.5013L32.9652 27.3159C32.8487 27.2868 32.7613 27.2577 32.674 27.1996L32.7322 26.4722C32.8487 26.5013 32.9652 26.5013 33.0525 26.5013Z" fill="#E5ECFC"/>
<path fill-rule="evenodd" clip-rule="evenodd" d="M29.7036 31.7967C30.8393 30.2255 32.0333 28.1016 29.7036 27.636C28.6552 27.4324 27.9563 28.829 27.4904 30.4001C28.2475 30.8656 28.9756 31.3603 29.7036 31.7967Z" fill="#FFCC00"/>
<path fill-rule="evenodd" clip-rule="evenodd" d="M38.1196 33.2516C37.741 33.5135 38.0322 34.5318 38.1196 35.0847C38.9059 34.4446 39.6339 33.9208 40.4202 33.5135C40.7696 31.9423 40.6531 29.8766 38.7894 30.4585C38.207 30.633 37.8284 31.3604 38.1196 33.2516Z" fill="#FFCC00"/>
<path fill-rule="evenodd" clip-rule="evenodd" d="M34.1883 32.2042C34.0135 32.757 33.9262 33.4844 33.9262 34.2699C34.7416 34.7355 36.1394 35.4919 37.0713 36.0157C38.207 34.9682 38.935 34.4154 40.1581 33.688C40.2746 32.7279 40.1581 31.2149 39.8087 30.6621C38.4982 29.9638 39.0224 29.9347 37.1586 30.2548C36.1685 30.4293 34.5668 31.0403 34.1883 32.2042Z" fill="#EF7D00"/>
<path fill-rule="evenodd" clip-rule="evenodd" d="M34.363 32.5244L35.4113 32.8736C35.1492 33.6009 34.9745 34.241 34.858 34.8229C34.4795 34.6193 34.1009 34.4156 33.7514 34.1828C33.8679 33.6591 34.0718 33.1063 34.363 32.5535V32.5244Z" fill="#CF0404"/>
<path fill-rule="evenodd" clip-rule="evenodd" d="M38.8185 31.6514C38.7603 32.9316 36.5179 32.6406 36.5471 31.0404C36.5471 30.0802 38.9059 30.2839 38.8185 31.6514Z" fill="#431E44"/>
<path fill-rule="evenodd" clip-rule="evenodd" d="M38.9932 29.5567C38.9932 29.5567 38.702 30.1968 38.7312 31.3315C38.7603 32.6408 36.78 32.3498 36.7509 30.6623C36.7509 30.2549 36.8965 29.8185 37.3916 28.8584C37.4789 28.5092 38.9932 29.5567 38.9932 29.5567Z" fill="#DB9669"/>
<path fill-rule="evenodd" clip-rule="evenodd" d="M39.7795 28.4218C39.7504 28.7128 39.8378 28.9746 39.896 29.2365C39.9834 29.5565 39.6048 29.6147 39.8669 30.0803C39.896 30.4003 39.7795 30.8949 39.663 31.1859C39.6048 31.4187 39.5465 31.7387 39.168 31.9424C38.6147 32.2624 38.0614 31.7096 37.5081 31.4768C36.9839 31.2441 37.246 30.604 37.1004 30.1385C36.8383 29.2947 36.9256 28.1891 37.8575 27.8981C38.2652 27.7526 38.935 27.7235 39.3427 27.8981C39.4883 27.9854 39.8086 28.1309 39.7795 28.4218Z" fill="#F2B387"/>
<path fill-rule="evenodd" clip-rule="evenodd" d="M40.1872 29.4111C40.3037 28.3637 39.9251 27.3744 38.44 27.1417C37.3334 26.9671 36.4015 27.4035 36.1685 28.3637C36.052 28.8001 36.1394 29.673 36.0811 30.2258C36.1394 30.4586 36.2268 30.8368 36.9548 30.9823C37.3334 31.0405 37.6537 29.8476 37.8867 29.8766C39.0806 29.9348 40.0125 29.7312 40.1872 29.4111Z" fill="#1D1B3A"/>
<path fill-rule="evenodd" clip-rule="evenodd" d="M40.2163 29.1784C40.2455 28.2182 39.8378 27.3744 38.4399 27.1417C37.3333 26.9671 36.4015 27.4035 36.1685 28.3637C36.0811 28.7128 36.0811 29.5566 36.1103 29.9057C36.1976 30.1676 36.1685 30.5749 36.8965 30.6622C37.2751 30.7204 37.6245 29.5566 37.8284 29.5857C38.9932 29.6439 39.9542 29.4693 40.2163 29.1784Z" fill="#4D4EAF"/>
<path fill-rule="evenodd" clip-rule="evenodd" d="M40.0416 29.0327C40.0416 28.1889 39.6339 27.4615 38.4108 27.2578C37.8284 27.1705 37.3042 27.2578 36.9257 27.5197C37.246 27.4615 37.5663 27.4324 37.9449 27.4906C39.0806 27.6943 39.8087 28.3053 40.0416 29.0327Z" fill="#C3C2CF"/>
<path fill-rule="evenodd" clip-rule="evenodd" d="M36.1103 28.9165C36.3432 29.3238 37.1295 29.7312 37.8284 29.8476C37.741 29.9058 37.7993 30.1676 37.7119 30.3713C37.0421 30.3131 36.285 29.8476 36.1103 29.4984C36.0811 29.3238 36.0811 29.1202 36.1103 28.9165Z" fill="#EF7D00"/>
<path fill-rule="evenodd" clip-rule="evenodd" d="M37.974 29.7602C38.8476 29.8184 39.7213 29.7312 40.1872 29.2656L40.2746 29.3529C40.2746 29.673 40.1581 30.0803 39.9834 30.3131C39.6339 30.6913 39.8086 30.2258 39.4301 30.3131C39.2845 30.3422 39.1971 30.604 39.0224 30.7495C38.7312 30.9532 38.2361 31.0114 37.7993 30.6913C37.4789 30.4294 37.4207 29.7021 37.974 29.7602Z" fill="#333333"/>
<path fill-rule="evenodd" clip-rule="evenodd" d="M38.0614 29.8477C38.9642 29.9058 39.8087 29.8186 40.2746 29.353C40.3328 29.6731 40.1872 30.2841 40.0125 30.5168C39.6631 30.8951 39.9252 30.3132 39.5466 30.4005C39.401 30.4296 39.3136 30.6914 39.1389 30.8369C38.8477 31.0406 38.3526 31.0988 37.9158 30.7787C37.5955 30.5459 37.5081 29.8186 38.0614 29.8477Z" fill="#4D4EAF"/>
<path fill-rule="evenodd" clip-rule="evenodd" d="M40.2746 29.4692C40.2746 29.7893 40.129 30.1093 39.9834 30.313C39.6339 30.6913 39.896 30.1093 39.5174 30.1966C39.3718 30.2257 39.2845 30.5458 39.0806 30.6913C38.7312 30.9531 37.9158 30.8658 37.8284 30.3421C37.7702 30.0512 37.8867 29.9639 38.0905 29.993C39.168 30.1093 39.7795 29.9639 40.2746 29.4692Z" fill="#D0DAF2"/>
<path fill-rule="evenodd" clip-rule="evenodd" d="M39.8378 30.4296C39.7213 30.4587 39.8087 30.1095 39.5174 30.1968C39.3718 30.2259 39.2845 30.546 39.0806 30.6914C38.7312 30.9533 37.9158 30.866 37.8284 30.3423C37.7702 30.0513 37.8867 29.964 38.0905 29.9931C38.8477 30.0804 39.3427 30.0222 39.7504 29.8477C39.7504 29.9058 39.7795 29.9931 39.8378 30.1095C39.8669 30.1968 39.8378 30.3132 39.8378 30.4296Z" fill="#A3B6E0"/>
<path fill-rule="evenodd" clip-rule="evenodd" d="M38.4691 30.0223L38.3817 30.8369C38.2652 30.8078 38.1779 30.7787 38.0905 30.7206L38.1488 29.9932C38.2652 30.0223 38.3817 30.0223 38.4691 30.0223Z" fill="#E5ECFC"/>
<path fill-rule="evenodd" clip-rule="evenodd" d="M35.2949 35.0556C36.3432 33.5136 37.3042 31.5933 35.1201 31.1859C34.13 31.0113 33.4311 32.2916 32.9652 33.7463C33.7223 34.1537 34.4795 34.5901 35.2949 35.0556Z" fill="#FFCC00"/>
<path fill-rule="evenodd" clip-rule="evenodd" d="M43.5944 32.8442C51.3406 39.3907 53.0005 41.7184 53.845 43.6387C48.7488 38.547 47.1181 37.0922 41.5559 33.5134C42.1383 33.1061 43.012 32.9315 43.5944 32.8442Z" fill="#8FF2FF"/>
<path fill-rule="evenodd" clip-rule="evenodd" d="M22.5398 17.3652C22.6563 17.4816 22.8601 17.8016 22.9475 17.9471C23.0349 18.1217 23.064 18.2381 23.1513 18.4126C23.0057 18.4708 22.8601 18.4417 22.7145 18.0926C22.4233 17.627 21.9865 17.7143 22.0447 17.2779C22.0447 17.0742 22.1612 16.9578 22.5398 17.3652Z" fill="#4D4EAF"/>
<path fill-rule="evenodd" clip-rule="evenodd" d="M22.9475 18.7039L22.7437 18.122C22.6854 17.9474 22.4816 18.0347 22.5398 18.2093L22.7145 18.7912C22.7437 18.9949 23.0057 18.8785 22.9475 18.7039Z" fill="#4D4EAF"/>
<path fill-rule="evenodd" clip-rule="evenodd" d="M22.6563 18.6164L22.4233 18.0053C22.3651 17.8017 22.1321 17.9181 22.1903 18.1217L22.3651 18.7618C22.4233 18.9364 22.7145 18.82 22.6563 18.6164Z" fill="#4D4EAF"/>
<path fill-rule="evenodd" clip-rule="evenodd" d="M22.2777 18.5002L22.0739 17.9765C22.0156 17.8019 21.8118 17.8892 21.87 18.0638L22.0156 18.6166C22.0739 18.7621 22.3359 18.6748 22.2777 18.5002Z" fill="#4D4EAF"/>
<path fill-rule="evenodd" clip-rule="evenodd" d="M21.8409 18.3546L21.8118 17.8891C21.8118 17.7436 21.637 17.7727 21.637 17.9182V18.3837C21.6079 18.5292 21.8409 18.5001 21.8409 18.3546Z" fill="#4D4EAF"/>
<path fill-rule="evenodd" clip-rule="evenodd" d="M12.3183 16.5797C12.3765 18.0345 13.8908 20.1875 14.0364 20.7112C14.0655 20.9149 14.9392 20.6821 14.7936 20.2457C14.5315 19.5183 14.2111 19.111 14.2111 17.598C14.2111 17.278 14.1238 16.2887 13.8034 15.8523C13.2793 15.8814 12.2891 15.5613 12.3183 16.5797Z" fill="#FFCC00"/>
<path fill-rule="evenodd" clip-rule="evenodd" d="M14.4732 21.4095C14.6188 21.4677 14.7353 21.4386 14.7644 21.3804C14.7936 21.3222 14.6771 21.2349 14.5606 21.1767C14.415 21.1185 14.2985 21.1476 14.2694 21.2058C14.2403 21.264 14.3276 21.3513 14.4732 21.4095Z" fill="#CF8453"/>
<path fill-rule="evenodd" clip-rule="evenodd" d="M13.6578 20.4786C13.7452 20.1585 14.182 20.3913 14.415 20.5659C14.5897 20.7113 14.7353 21.3223 14.7645 21.6715C14.7936 21.8752 14.7936 21.9624 14.8518 22.0497C14.9392 22.1952 14.7062 22.2243 14.5024 22.0788C14.3859 22.0788 14.2694 22.0206 14.182 21.9333C14.0655 21.9333 13.9782 21.9333 13.8035 21.817C13.7161 21.817 13.5705 21.7588 13.5122 21.7006C13.4831 21.5842 13.3958 21.526 13.3958 21.4678C13.3084 21.2351 13.3958 21.0896 13.454 20.9732C13.5414 20.6531 13.6578 20.5368 13.6578 20.4786Z" fill="#313294"/>
<path fill-rule="evenodd" clip-rule="evenodd" d="M13.454 20.9441C13.5122 20.5367 13.5705 20.3622 13.8326 20.2167C13.8617 20.1876 13.8617 20.0712 13.9199 20.0712C14.182 19.9257 14.6771 20.1294 14.8227 20.3331C14.7936 20.4204 14.8227 20.4495 14.8227 20.4786C14.91 20.7404 14.9974 21.0605 15.1139 21.4969C14.9392 21.4096 14.8227 21.526 14.7936 21.6715C14.8227 21.7588 14.5897 21.817 14.4441 21.6424C14.3276 21.7006 14.2403 21.6424 14.0655 21.4387C13.9199 21.4678 13.8908 21.4096 13.7161 21.2932C13.5705 21.2641 13.4831 21.1187 13.454 20.9441Z" fill="#4D4EAF"/>
<path fill-rule="evenodd" clip-rule="evenodd" d="M11.998 12.3028C11.765 13.6412 12.2018 16.0561 12.3474 16.2307C12.3183 16.4635 13.8908 16.3471 13.8326 15.7943C13.687 14.2522 14.7062 14.2813 14.2694 12.1573C14.7645 10.3534 13.5996 9.8297 12.8425 9.94608C12.2309 10.0334 11.6776 10.3243 11.998 12.3028Z" fill="#FFCC00"/>
<path fill-rule="evenodd" clip-rule="evenodd" d="M3.23246 19.6349C2.70828 19.373 2.0385 19.5476 1.48519 19.7803C0.0291356 20.5368 -0.262076 20.0131 0.203863 19.2857C0.465953 18.8784 0.931892 18.4128 1.42695 18.2092C2.0385 17.9764 2.38795 17.8018 2.79565 17.5109C3.17422 17.2781 3.66928 17.0454 3.96049 17.4818C4.13522 17.8309 3.98961 17.9764 4.07698 18.471L3.23246 19.6349Z" fill="#313294"/>
<path fill-rule="evenodd" clip-rule="evenodd" d="M4.33906 19.984C3.20333 19.4603 1.95112 19.6058 1.48518 19.8095C0.757155 20.1295 0.465944 20.3623 0.232974 20.1295C0.0291262 19.6931 0.815398 18.5875 1.57255 18.3547C2.00937 18.2092 2.53355 18.1219 3.02861 17.831C3.31982 17.6273 3.66927 17.3654 3.93136 17.4818L3.96048 17.5109C4.22257 17.9765 4.07697 18.3256 4.28082 18.3838L5.03797 18.5293C4.60115 18.6166 4.19345 19.5185 4.33906 19.984Z" fill="#4D4EAF"/>
<path fill-rule="evenodd" clip-rule="evenodd" d="M4.33906 19.4602C3.14509 19.082 2.03848 18.8783 1.22309 19.402C0.961 19.5766 0.902758 19.8384 1.01924 20.013C1.13573 19.9548 1.31045 19.8675 1.48518 19.8093C1.95112 19.6057 3.20333 19.4602 4.33906 19.9839C4.28081 19.8384 4.30993 19.6348 4.33906 19.4602Z" fill="#313294"/>
<path fill-rule="evenodd" clip-rule="evenodd" d="M17.3853 9.56758C17.3271 10.8478 15.0848 10.5568 15.1139 8.95657C15.1139 7.96732 17.4727 8.17099 17.3853 9.56758Z" fill="#431E44"/>
<path fill-rule="evenodd" clip-rule="evenodd" d="M17.5601 7.4727C17.5601 7.4727 17.2689 8.1128 17.298 9.24752C17.3271 10.5568 15.3469 10.2659 15.3177 8.57832C15.3177 8.17099 15.4634 7.73455 15.9584 6.7744C16.0167 6.39616 17.5601 7.4727 17.5601 7.4727Z" fill="#DB9669"/>
<path fill-rule="evenodd" clip-rule="evenodd" d="M18.3464 6.30902C18.3172 6.59998 18.4046 6.86184 18.4337 7.1237C18.5211 7.44375 18.1425 7.50194 18.4046 7.96747C18.4337 8.28752 18.3172 8.78214 18.2007 9.0731C18.1425 9.30586 18.0843 9.62591 17.7057 9.82958C17.1524 10.1496 16.5991 9.59682 16.0458 9.36405C15.5216 9.13129 15.7837 8.49119 15.6381 8.02566C15.376 7.18189 15.4634 6.07626 16.3952 5.78531C16.8029 5.63983 17.4727 5.61073 17.8804 5.78531C18.0551 5.90169 18.3755 6.04716 18.3464 6.30902Z" fill="#F2B387"/>
<path fill-rule="evenodd" clip-rule="evenodd" d="M18.7541 7.32762C18.8705 6.28019 18.492 5.29094 17.0068 5.05817C15.9002 4.8836 14.9683 5.32003 14.7353 6.28019C14.6189 6.71662 14.7062 7.58948 14.648 8.1423C14.7062 8.37506 14.7936 8.7533 15.5216 8.89878C15.9002 8.95697 16.2205 7.76406 16.4535 7.79315C17.6475 7.85134 18.5502 7.64767 18.7541 7.32762Z" fill="#1D1B3A"/>
<path fill-rule="evenodd" clip-rule="evenodd" d="M18.7541 7.06556C18.7832 6.10541 18.3755 5.26164 16.9777 5.02888C15.8711 4.8543 14.9392 5.29074 14.7062 6.25089C14.6188 6.60004 14.6188 7.44381 14.648 7.79295C14.7353 8.05481 14.7062 8.46215 15.4342 8.54944C15.8128 8.60763 16.1623 7.44381 16.3661 7.4729C17.5601 7.56019 18.5211 7.38561 18.7541 7.06556Z" fill="#4D4EAF"/>
<path fill-rule="evenodd" clip-rule="evenodd" d="M18.6085 6.94916C18.6085 6.10539 18.2008 5.378 16.9777 5.17433C16.3952 5.08705 15.8711 5.17433 15.4925 5.43619C15.8128 5.378 16.1332 5.34891 16.5117 5.4071C17.6183 5.58167 18.3755 6.19268 18.6085 6.94916Z" fill="#C3C2CF"/>
<path fill-rule="evenodd" clip-rule="evenodd" d="M14.6771 6.83301C14.9101 7.24034 15.6963 7.64768 16.3952 7.76406C16.3079 7.82226 16.3661 8.08411 16.2787 8.28778C15.609 8.22959 14.8518 7.76406 14.6771 7.41492C14.648 7.21125 14.648 7.00758 14.6771 6.83301Z" fill="#EF7D00"/>
<path fill-rule="evenodd" clip-rule="evenodd" d="M16.5408 7.64746C17.4145 7.70565 18.2881 7.61836 18.754 7.15283L18.8414 7.24012C18.8414 7.56017 18.7249 7.96751 18.5502 8.20027C18.2007 8.57851 18.3755 8.11298 17.9969 8.20027C17.8513 8.22937 17.7639 8.49123 17.5892 8.6367C17.298 8.84037 16.8029 8.89856 16.3661 8.57851C16.0458 8.31665 15.9875 7.61836 16.5408 7.64746Z" fill="#333333"/>
<path fill-rule="evenodd" clip-rule="evenodd" d="M16.6282 7.76367C17.531 7.82186 18.3755 7.73457 18.8414 7.26904C18.8997 7.58909 18.754 8.2001 18.5793 8.43286C18.2299 8.8111 18.492 8.22919 18.1134 8.31648C17.9678 8.34558 17.8804 8.60743 17.7057 8.75291C17.4145 8.95658 16.9194 9.01477 16.4826 8.69472C16.1623 8.46196 16.0458 7.70548 16.6282 7.76367Z" fill="#4D4EAF"/>
<path fill-rule="evenodd" clip-rule="evenodd" d="M18.8123 7.38574C18.8123 7.70579 18.6667 8.02584 18.5211 8.22951C18.1716 8.60775 18.4337 8.02584 18.0551 8.11313C17.9095 8.14223 17.8222 8.46228 17.6183 8.60775C17.2689 8.86961 16.4535 8.78233 16.3661 8.25861C16.3079 7.96765 16.4244 7.88037 16.6282 7.90946C17.7348 7.99675 18.3172 7.85127 18.8123 7.38574Z" fill="#D0DAF2"/>
<path fill-rule="evenodd" clip-rule="evenodd" d="M18.3755 8.34558C18.259 8.37468 18.3464 8.02553 18.0552 8.11282C17.9096 8.14191 17.8222 8.46196 17.6183 8.60744C17.2689 8.8693 16.4535 8.78201 16.3661 8.2583C16.3079 7.96734 16.4244 7.88005 16.6282 7.90915C17.3854 7.99644 17.8804 7.93824 18.2881 7.76367C18.2881 7.82186 18.3172 7.90915 18.3755 8.02553C18.4046 8.08372 18.4046 8.2001 18.3755 8.34558Z" fill="#A3B6E0"/>
<path fill-rule="evenodd" clip-rule="evenodd" d="M17.0359 7.93828L16.9485 8.75295C16.832 8.72385 16.7447 8.69476 16.6573 8.63657L16.7156 7.90918C16.832 7.90918 16.9485 7.90918 17.0359 7.93828Z" fill="#E5ECFC"/>
<path opacity="0.5" fill-rule="evenodd" clip-rule="evenodd" d="M37.0421 36.0154C39.401 33.8914 41.5268 32.7276 43.3614 32.5239C40.1872 28.3924 34.5086 31.4474 37.0421 36.0154Z" fill="white"/>
<path opacity="0.5" fill-rule="evenodd" clip-rule="evenodd" d="M36.9256 35.9573C39.2845 33.8333 41.4103 32.6695 43.2449 32.4658C40.0707 28.3343 34.3921 31.3893 36.9256 35.9573Z" fill="white"/>
<path opacity="0.5" fill-rule="evenodd" clip-rule="evenodd" d="M40.1581 30.575L42.546 32.6117C42.0801 32.728 41.585 32.8735 41.0609 33.1063L38.7894 30.6623C39.2262 30.5168 39.6922 30.4877 40.1581 30.575Z" fill="white"/>
</g>
<defs>
<linearGradient id="paint0_linear" x1="14.0671" y1="21.9187" x2="14.8902" y2="20.4324" gradientUnits="userSpaceOnUse">
<stop stop-color="#878787"/>
<stop offset="0.39" stop-color="#575756"/>
<stop offset="0.57" stop-color="#EDEDED"/>
<stop offset="0.69" stop-color="#706F6F"/>
<stop offset="1" stop-color="#575756"/>
</linearGradient>
<linearGradient id="paint1_linear" x1="21.9385" y1="18.6455" x2="22.7617" y2="17.159" gradientUnits="userSpaceOnUse">
<stop stop-color="#878787"/>
<stop offset="0.39" stop-color="#575756"/>
<stop offset="0.57" stop-color="#EDEDED"/>
<stop offset="0.69" stop-color="#706F6F"/>
<stop offset="1" stop-color="#575756"/>
</linearGradient>
<clipPath id="clip0">
<rect width="56" height="46" fill="white" transform="translate(0 5)"/>
</clipPath>
</defs>
</svg>
