<svg width="56" height="56" viewBox="0 0 56 56" fill="none" xmlns="http://www.w3.org/2000/svg">
<g clip-path="url(#clip0)">
<path d="M33.546 7.08471C33.546 7.08471 31.4294 2.37183 28.2393 5.0209C25.0491 7.66996 24.4356 6.68427 24.4356 6.68427C24.4356 6.68427 26.7975 10.2574 29.8957 7.33113C29.8957 7.33113 31.6748 5.29813 33.3313 7.76237L33.546 7.08471Z" fill="#B06437"/>
<path d="M31.7975 15.0625L28.0552 19.2517L28.6074 22.8557L33.0859 17.8656L31.7975 15.0625Z" fill="#F9B189"/>
<path d="M28.6994 13.0911C28.6994 13.0911 30.0184 18.9129 28.638 22.8557C28.638 22.8557 26.7669 24.1186 26.2147 22.178C25.6626 20.2682 27.1963 18.1736 27.6258 12.8755L28.6994 13.0911Z" fill="#FFBE99"/>
<path d="M31.7055 34.2837C31.7055 34.2837 24.4356 37.4564 20.6012 37.1792C20.5092 37.1792 20.4172 37.1484 20.3252 37.1176L10.6012 29.078L11.1227 26.9834L14.9877 29.6941C14.9877 29.6941 19.5276 30.8954 20.6012 33.6061C20.6012 33.6061 27.3497 29.8173 28.7914 30.803L31.7055 34.2837Z" fill="#FFBE99"/>
<path d="M26.2761 7.2697L27.6258 12.1674L28.9755 11.7053L27.0429 7.14648L26.2761 7.2697Z" fill="#6F6565"/>
<path d="M26.5214 8.13202L24.4049 5.45215C26.2454 6.9307 27.8098 6.77668 27.8098 6.77668L27.319 7.85479L26.5214 8.13202Z" fill="#6F6565"/>
<path d="M27.5337 6.83828C27.1656 6.89989 26.7055 6.80748 26.1533 6.56106C25.3251 6.19142 24.4049 5.54455 23.546 4.74367C22.6871 3.91199 22.0122 3.0187 21.6441 2.18702C21.2454 1.32453 21.2147 0.646865 21.5828 0.277228C21.9509 -0.0924092 22.6257 -0.0924092 23.4846 0.277228C24.3129 0.646865 25.2331 1.29373 26.092 2.09461C26.9509 2.92629 27.6257 3.81958 27.9938 4.65127C28.3926 5.51375 28.4233 6.19142 28.0552 6.56106C27.9325 6.71507 27.7484 6.80748 27.5337 6.83828ZM22.1656 0.338834C22.0122 0.369637 21.8895 0.431243 21.8282 0.492849C21.5828 0.770077 21.6135 1.32453 21.9509 2.033C22.319 2.80308 22.9632 3.69637 23.7914 4.46645C24.6196 5.26733 25.5092 5.88339 26.3067 6.22222C27.0429 6.53025 27.5951 6.56106 27.8405 6.31463C28.0859 6.0374 28.0552 5.48295 27.7178 4.77448C27.3497 4.0044 26.7055 3.11111 25.8773 2.34103C25.0491 1.54015 24.1595 0.924092 23.3619 0.585259C22.8711 0.369637 22.4417 0.308031 22.1656 0.338834Z" fill="#6F6565"/>
<path d="M21.9509 2.34082L28.0859 6.0988" stroke="#6F6565" stroke-width="0.7914" stroke-miterlimit="10"/>
<path d="M21.5828 1.23193L27.9938 5.05151" stroke="#6F6565" stroke-width="0.7914" stroke-miterlimit="10"/>
<path d="M21.6441 0.400391L27.227 3.69632" stroke="#6F6565" stroke-width="0.7914" stroke-miterlimit="10"/>
<path d="M22.0736 0.185059L24.3435 5.29837" stroke="#6F6565" stroke-width="0.7914" stroke-miterlimit="10"/>
<path d="M24.4355 1.07812L26.9202 6.68428" stroke="#6F6565" stroke-width="0.7914" stroke-miterlimit="10"/>
<path d="M25.8773 2.15625L27.8405 6.56109" stroke="#6F6565" stroke-width="0.7914" stroke-miterlimit="10"/>
<path d="M23.0552 0.21582L25.7546 6.28403" stroke="#6F6565" stroke-width="0.7914" stroke-miterlimit="10"/>
<path d="M31.7975 15.0626C31.7975 15.0626 31.0307 18.1121 30.7546 24.8888L35.6626 26.2133C35.6626 26.2133 37.4724 22.1473 38.3619 20.7612C39.1595 19.4982 40.6319 18.0813 40.1718 14.2617L35.0184 16.0791L31.7975 15.0626Z" fill="#F68E55"/>
<path d="M35.9386 15.7713C35.1104 15.7713 34.4356 15.1245 34.4049 14.2928L34.3129 10.8429L37.319 10.7812L37.411 14.2312C37.4417 15.0937 36.7668 15.7713 35.9386 15.7713Z" fill="#FFC9A6"/>
<path d="M34.1595 12.3522C34.1595 12.3522 34.7117 13.7999 36.2761 13.5535C37.6564 13.3379 37.2883 11.8901 37.2883 11.8901L34.1595 12.3522Z" fill="#FFBE99"/>
<path d="M36.2454 13.0298L35.8773 13.0606C34.4049 13.1838 33.1472 12.0749 33.0245 10.6272L32.9018 9.05621C32.7791 7.57766 33.8834 6.31474 35.3251 6.19153L35.6932 6.16072C37.1656 6.03751 38.4233 7.14642 38.546 8.59417L38.6687 10.1651C38.7914 11.6129 37.6871 12.9066 36.2454 13.0298Z" fill="#FFC9A6"/>
<path d="M33.8221 10.3806C33.8528 10.9043 33.4847 11.3663 32.9325 11.4279C32.411 11.4587 31.9509 11.0891 31.8896 10.5346C31.8589 10.011 32.227 9.54893 32.7791 9.48732C33.3313 9.42572 33.7914 9.85696 33.8221 10.3806Z" fill="#FFC9A6"/>
<path d="M29.9877 11.9825C29.8037 13.0298 28.8221 13.7075 27.7791 13.5227C26.7362 13.3379 26.0613 12.3522 26.2454 11.3049C26.4294 10.2576 27.411 9.5799 28.454 9.76471C29.4969 9.94953 30.1718 10.9352 29.9877 11.9825Z" fill="#FFC9A6"/>
<path d="M31.9202 27.7534C31.9202 27.7534 34.3436 34.7765 34.681 38.8117C34.681 38.9041 34.681 38.9965 34.681 39.089L32.3804 54.5521L30.1104 54.3365L30.8159 47.1286C30.8159 47.1286 29.681 42.8469 31.184 39.5818C31.184 39.5818 25.8159 31.8194 26.6442 30.1561L31.9202 27.7534Z" fill="#FFC9A6"/>
<path d="M30.0184 53.7514C30.0797 53.5974 30.2331 53.5358 30.3558 53.6282C30.6012 53.813 30.9386 54.2442 31.5521 54.121C32.1963 53.9978 32.503 53.5666 32.5951 53.2893C32.6257 53.1661 32.7791 53.0737 32.9018 53.1353L37.0429 54.6447C37.2883 54.7371 37.4724 54.9219 37.5951 55.1683C37.6871 55.4148 37.5337 55.6612 37.2883 55.692L30.1411 56.0308C29.865 56.0308 29.6503 55.8152 29.681 55.538L29.9877 54.0286C29.9877 53.9978 29.9877 53.9978 29.9877 53.967L30.0184 53.7514Z" fill="#A3B848"/>
<path d="M12.227 27.1989C12.319 27.3221 12.2577 27.507 12.1043 27.5378C11.8282 27.5994 11.2761 27.5994 10.9386 28.123C10.6012 28.6775 10.7546 29.2319 10.8773 29.4475C10.9386 29.5708 10.9386 29.7248 10.8159 29.7864L7.01226 31.9734C6.79753 32.0966 6.52146 32.1274 6.27606 32.035C6.03066 31.9734 5.93864 31.6654 6.09201 31.4497L10.4478 25.7512C10.6012 25.5356 10.908 25.5048 11.1227 25.7204L12.0736 26.9217C12.1043 26.9217 12.1043 26.9525 12.1043 26.9833L12.227 27.1989Z" fill="#A3B848"/>
<path d="M40.908 14.0155C41.2147 14.7856 40.7853 15.648 39.9877 15.8945L35.6932 17.0958L35.6319 17.1266C35.3558 17.219 35.0491 17.1574 34.8037 17.0342L28.4846 13.4918L29.5583 11.582L35.8159 15.186L34.9264 15.1244L38.9754 13.2454C39.7116 12.8758 40.6012 13.2454 40.908 14.0155Z" fill="#FFC9A6"/>
<path d="M30.7546 24.8887C30.7546 24.8887 25.6932 27.4761 24.681 31.6345L34.0981 34.9305C34.0981 34.9305 34.8957 30.464 35.6626 26.2132L30.7546 24.8887Z" fill="#F68E55"/>
<path d="M34.0675 8.28613L33.3926 9.9495C33.3006 10.1343 33.0245 10.1035 32.9939 9.88789L32.8712 9.02541L34.0675 8.28613Z" fill="#B06437"/>
<path d="M32.7485 8.28613C32.7485 8.28613 32.6258 6.06831 35.2024 5.76028C38.3313 5.39065 38.4233 7.63927 38.4233 7.63927L32.7485 8.28613Z" fill="#B06437"/>
<path d="M32.5951 9.33336L32.5644 8.25525C32.5644 8.22445 32.5644 8.19365 32.5951 8.16284C32.8711 7.85481 34.6196 5.91422 38.5153 7.26955C38.5767 7.30036 38.6073 7.33116 38.6073 7.36196L38.8527 8.50168C38.8834 8.59409 38.7607 8.6865 38.6687 8.65569C35.8773 7.7624 33.5153 8.99453 32.8098 9.42577C32.7178 9.48738 32.5951 9.42577 32.5951 9.33336Z" fill="#F6F7F9"/>
</g>
<defs>
<clipPath id="clip0">
<rect width="35" height="56" fill="white" transform="translate(6)"/>
</clipPath>
</defs>
</svg>
