<svg width="56" height="56" viewBox="0 0 56 56" fill="none" xmlns="http://www.w3.org/2000/svg">
<g clip-path="url(#clip0)">
<path d="M47.4 19.6942C46.84 19.554 46.21 20.4652 45.93 20.8156C45.65 21.2361 44.95 23.2687 45.65 23.6191C46.28 23.9696 46.98 22.708 47.12 22.1473C47.33 21.5866 47.61 19.7643 47.4 19.6942Z" fill="#B7A994"/>
<path d="M37.53 24.6709C37.11 24.8111 36.69 25.9325 36.9 26.9838C37.11 28.0351 37.88 28.3155 38.16 28.3155C38.51 28.2454 38.37 27.124 38.16 26.4932C37.95 25.7923 37.88 24.5308 37.53 24.6709Z" fill="#9C896C"/>
<path d="M25.56 9.60203C24.79 9.81229 22.27 10.8636 21.78 11.0038C21.36 11.144 20.1 11.4243 18.42 11.985C16.74 12.6158 15.97 13.7372 16.32 14.6483C17.23 17.1014 24.51 13.3868 25.63 12.756C26.75 12.0551 27.52 10.9337 27.31 10.373C27.1 9.67212 26.26 9.46185 25.56 9.60203Z" fill="#FFA47C"/>
<path d="M22.97 20.9562C21.85 20.045 21.22 18.7134 20.24 17.0313C18.91 14.7184 18.35 12.5457 17.02 13.1064C15.27 13.8773 13.45 15.7697 12.26 16.8911C11.07 18.0125 9.17999 21.2365 9.03999 23.1289C8.89999 24.6007 11.07 25.2315 13.59 26.2828C14.15 26.5632 15.2 27.1239 17.23 27.8248C17.79 28.035 21.5 30.2778 22.41 30.9787C22.69 31.189 25.7 29.2966 26.75 28.3855C27.59 27.6846 28.5 22.0776 28.22 21.7972C27.38 21.0263 23.39 21.3066 22.97 20.9562Z" fill="#FFBD95"/>
<path d="M10.16 21.5868C9.17999 21.797 8.68999 23.0586 9.10999 24.8108C9.52999 26.563 10.02 27.7545 10.09 28.175C10.23 28.6656 10.72 31.399 10.93 32.0999C11.21 32.8008 11.84 33.3615 12.54 33.1512C13.17 33.011 13.66 31.6794 13.59 30.4178C13.59 29.1562 12.68 21.0261 10.16 21.5868Z" fill="#FFBD95"/>
<path d="M35.36 15.2788C34.31 16.8207 35.43 18.3627 38.23 20.3251C39.49 21.1662 46.91 24.0398 46.91 24.0398L47.75 22.9184C47.75 22.9184 43.48 19.2037 40.05 16.6806C36.62 14.1574 35.64 14.7882 35.36 15.2788Z" fill="#FFA47C"/>
<path d="M36.27 14.7885C35.57 14.8586 31.65 17.1715 28.01 19.204C24.37 21.2366 23.6 22.5682 24.51 24.2503C25.56 26.0726 26.82 26.6333 28.01 26.0025C29.2 25.3016 37.88 17.9424 38.09 17.5219C38.3 17.1014 36.97 14.6483 36.27 14.7885Z" fill="#FFBD95"/>
<path d="M25.7 26.2127C24.02 24.6007 22.2 26.1426 21.5 28.1752C20.8 30.3479 22.13 30.9787 22.83 31.259C23.53 31.4693 27.87 33.3616 28.15 33.1514C28.43 32.9411 29.76 30.6282 29.55 30.2778C29.34 29.7872 27.66 27.9649 25.7 26.2127Z" fill="#FFBD95"/>
<path d="M29.9 28.245C26.96 29.3664 25.49 29.857 26.26 31.8195C26.54 32.4503 27.38 33.9221 30.95 32.4503C34.59 30.9784 38.86 27.404 38.86 27.404L38.23 25.9321C38.23 25.9321 31.16 27.7544 29.9 28.245Z" fill="#FFA47C"/>
<path d="M12.68 30.9083C10.65 30.8382 11.07 34.1324 11.14 35.3238C11.21 36.5153 12.26 40.8608 12.26 40.8608L13.52 40.9309C13.52 40.9309 14.15 35.8145 14.08 33.5717C14.08 31.3989 13.45 30.9083 12.68 30.9083Z" fill="#FFBD95"/>
<path d="M27.59 7.56909C26.61 8.26997 23.81 10.0222 25.21 11.5641C25.7 12.1248 26.47 12.335 28.22 11.0034C29.97 9.67172 33.47 5.88699 33.47 5.88699L32.63 4.90576C32.63 4.97585 28.57 6.86821 27.59 7.56909Z" fill="#FFA47C"/>
<path d="M13.66 41.2114C13.52 41.0011 13.59 40.16 13.59 40.16L12.89 39.6694C12.89 39.6694 12.4 40.3703 12.12 40.5105C11.84 40.6507 11 41.3515 10.79 41.8422C10.65 42.3328 9.94998 43.0336 9.80998 43.1037C9.73998 43.2439 9.94998 43.4542 10.3 43.314C10.65 43.1738 11.14 42.2627 11.35 42.3328C11.49 42.4029 10.58 45.2764 10.72 45.4166C11 45.6269 11.63 43.5943 11.7 43.5943C11.98 43.6644 11.28 45.697 11.49 45.8371C11.84 45.9773 12.33 43.7345 12.47 43.8046C12.61 43.8747 12.47 45.8371 12.68 45.9072C13.03 45.9773 12.89 43.8747 13.1 43.8747C13.24 43.8747 13.45 45.1363 13.66 45.0662C13.8 44.9961 13.59 43.6644 13.59 43.4542C13.59 43.1738 13.87 41.3515 13.66 41.2114Z" fill="#FFBD95"/>
<path d="M34.31 0.490452C34.24 -0.140337 33.89 -0.070249 33.89 0.140014C33.61 1.40159 33.12 2.10247 33.05 2.66317C32.98 3.22387 32.28 5.3265 32.28 5.3265L32.91 6.16755C32.91 6.16755 34.1 5.8872 34.31 5.04615C34.52 4.20509 34.03 3.36404 33.96 3.15378C33.68 2.24264 34.38 1.12124 34.31 0.490452Z" fill="#FFA47C"/>
<path d="M34.24 2.73322C34.1 2.94348 33.96 3.15374 33.82 3.43409C33.75 3.71445 33.12 4.90593 33.68 5.88716C33.68 5.88716 34.45 5.32646 34.59 4.76576C34.8 4.20506 34.38 3.57427 34.59 3.15374C35.01 2.17252 34.31 2.73322 34.24 2.73322Z" fill="#FFA47C"/>
<path d="M51.39 19.8344C50.97 20.4652 49.5 21.096 48.87 21.4464C48.24 21.7969 46.84 22.1473 46.77 21.937C46.63 21.7268 45.72 23.2687 45.72 23.2687C45.72 23.2687 46.28 24.0397 46.42 24.3901C46.56 24.7405 46.63 25.0209 47.19 25.3012C47.75 25.5816 48.31 24.9508 48.87 23.8294C49.36 22.9883 50.97 21.7969 51.32 21.3062C51.67 20.8857 52.44 19.6241 52.37 19.484C52.23 19.484 51.88 19.2036 51.39 19.8344Z" fill="#FFA47C"/>
<path d="M42.01 23.8295C41.8 23.8996 40.19 24.8808 39.84 24.9509C39.49 25.0911 39.14 24.8808 38.72 25.021C38.37 25.1611 37.88 26.0022 37.25 26.2125C36.83 26.3526 37.67 28.1749 38.09 27.9646C38.65 27.6843 38.93 27.7544 39.42 27.6843C39.91 27.6142 40.26 27.5441 40.75 27.2638C41.24 26.9834 43.27 26.8432 43.55 26.4928C43.97 26.0022 43.9 24.3902 43.69 24.25C43.55 24.1098 42.22 23.7594 42.01 23.8295Z" fill="#FFA47C"/>
<path d="M22.48 9.18115C22.48 9.18115 18.91 11.2838 18.28 11.7043C17.65 12.1248 16.67 13.036 16.67 13.036C16.53 13.4565 19.82 17.2412 20.38 16.4002C20.73 15.9096 24.37 13.6668 24.37 13.6668C24.37 13.6668 24.16 11.9847 24.02 11.2137C23.88 10.5128 22.48 9.18115 22.48 9.18115Z" fill="#347CFF"/>
<path d="M24.65 21.1662L21.36 28.946C21.71 31.3289 25.28 31.7495 25.77 31.6794C26.26 31.6093 29.06 23.1988 28.57 22.0073C28.08 20.8158 24.65 21.1662 24.65 21.1662Z" fill="#DAD0BD"/>
<path d="M36.13 14.578C35.43 14.6481 31.51 17.0311 27.87 18.9935C24.23 21.026 23.53 22.4979 24.51 24.18C25.56 26.0023 26.4 27.8245 27.38 26.8433C28.36 25.9322 38.09 18.0824 38.3 17.6618C38.44 17.2413 36.83 14.5079 36.13 14.578Z" fill="#DAD0BD"/>
<path d="M35.36 15.279C34.31 16.8209 35.22 18.5731 38.02 20.5355C39.28 21.3766 45.65 23.6895 45.65 23.6895C45.65 23.6895 45.65 22.7083 46.21 21.2364C46.56 20.3253 47.4 19.7646 47.4 19.7646C47.4 19.7646 43.41 18.6432 39.98 16.1901C36.62 13.667 35.64 14.7884 35.36 15.279Z" fill="#DAD0BD"/>
<path d="M26.05 25.9321C24.37 24.3201 22.27 26.1424 21.57 28.1749C20.87 30.3476 22.2 31.3288 22.9 31.5391C23.6 31.7494 27.94 33.4315 28.22 33.2212C28.5 33.0109 29.83 30.628 29.62 30.2074C29.34 29.7869 27.94 27.7544 26.05 25.9321Z" fill="#DAD0BD"/>
<path d="M37.18 26.8436C36.97 25.5119 37.53 24.6709 37.53 24.6709C37.53 24.6709 30.95 27.2641 29.62 27.7548C26.68 28.8762 25.42 29.9275 26.26 31.8899C26.54 32.5207 27.38 34.1327 30.95 32.6609C34.59 31.189 38.16 28.3155 38.16 28.3155C38.16 28.3155 37.32 27.7548 37.18 26.8436Z" fill="#DAD0BD"/>
<path d="M20.59 16.7509C19.26 14.438 18.21 12.4055 16.81 12.9662C16.04 13.3166 15.34 13.8773 14.64 14.438C14.64 14.438 16.25 17.0312 14.92 18.433C13.45 19.9048 10.65 18.7834 10.65 18.7834C9.74 20.1151 8.83 21.7972 8.69 22.9887C8.55 24.4605 10.93 25.3717 13.38 26.423C13.94 26.7033 15.27 27.4743 17.3 28.1752C17.65 28.3153 20.24 30.4881 21.57 31.259C23.67 29.0863 24.58 24.04 24.65 21.0963C24.23 21.0262 23.11 20.5356 23.04 20.3954C21.92 19.5544 21.57 18.433 20.59 16.7509Z" fill="#347CFF"/>
<path d="M8.69 23.2691C8.69 23.2691 8.83 25.2315 9.32 26.6333C9.81 28.035 10.37 30.2778 10.37 30.2778C10.37 30.2778 11.91 29.4368 13.03 29.5069C14.15 29.647 15.06 29.9975 15.06 29.9975C15.06 29.9975 14.64 26.7734 14.29 26.2127C13.94 25.652 10.93 22.0075 8.69 23.2691Z" fill="#347CFF"/>
<path d="M51.67 19.3439C51.39 19.6243 48.52 21.6568 47.89 21.6568C47.33 21.6568 46.56 21.3765 46.63 21.7269C46.7 22.0773 46.35 23.3389 45.58 23.9697C45.58 23.9697 46.77 25.4416 47.61 25.7219C47.82 25.792 51.88 21.8671 52.16 21.026C52.44 20.185 52.65 19.4841 52.65 19.4841C52.65 19.4841 51.95 19.0636 51.67 19.3439Z" fill="#606060"/>
<path d="M48.1 23.5491C46.98 24.3201 46 23.8996 45.79 23.7594C45.72 23.8295 45.65 23.8996 45.58 23.9696C45.58 23.9696 46.77 25.4415 47.61 25.7218C47.82 25.7919 51.88 21.867 52.16 21.026C52.3 20.5353 52.44 20.1148 52.58 19.8345C52.3 20.3251 52.09 20.8157 51.88 20.9559C51.32 21.3764 49.43 22.7081 48.1 23.5491Z" fill="#494949"/>
<path d="M52.09 21.2366C51.95 21.4468 49.36 23.4794 48.1 24.7409C47.75 25.0914 47.4 25.3717 47.19 25.5119C47.12 25.582 47.61 25.7923 47.61 25.7923L47.96 25.9324C47.96 25.9324 52.16 21.587 52.3 21.4468C52.44 21.3067 53 19.4844 53 19.4844H52.65C52.65 19.4844 52.23 20.9562 52.09 21.2366Z" fill="#191919"/>
<path d="M42.08 23.6894C41.87 23.6894 38.79 24.8108 38.58 24.8108C38.37 24.8809 37.95 25.722 37.95 25.722C37.95 25.722 39.84 25.0211 40.26 26.2126C40.61 27.1237 38.65 27.7545 38.65 27.7545C38.65 27.7545 39.07 27.8246 39.42 27.8246C39.84 27.7545 42.78 26.9836 43.34 26.7733C43.9 26.563 44.67 25.0912 44.11 24.3202C43.69 23.6194 42.29 23.6894 42.08 23.6894Z" fill="#606060"/>
<path d="M39.77 25.3017C39.07 25.5821 38.86 26.1428 39 26.6334C39.21 27.124 39.7 27.4044 40.4 27.1941C41.1 26.9137 42.29 26.0727 42.08 25.512C41.94 25.0214 40.47 25.0214 39.77 25.3017Z" fill="#606060"/>
<path d="M12.82 13.7368L10.65 16.4001C10.65 16.4001 11.35 17.3113 11.35 17.6617C11.35 18.0122 10.86 18.713 10.86 18.713C10.86 18.713 12.82 18.9934 13.87 18.0822C14.92 17.1711 14.57 14.718 14.57 14.718L12.82 13.7368Z" fill="#FFA47C"/>
<path d="M9.81 9.88225C8.34 10.513 7.78 12.6157 8.62 14.508C9.46 16.4004 11.84 17.662 12.96 17.1714C14.22 16.6107 14.78 14.0875 13.94 12.1251C13.17 10.2327 11.28 9.18137 9.81 9.88225Z" fill="#FFBD95"/>
<path d="M14.01 11.2139C14.01 11.0738 13.45 10.5131 13.17 10.3028C12.89 10.0925 12.33 9.88227 11.98 9.60192C11.63 9.32157 10.79 9.39166 10.3 9.53183C9.80999 9.67201 9.31999 9.95236 9.10999 10.0925C8.89999 10.2327 7.84999 11.4943 7.77999 11.8447C7.70999 12.1952 7.63999 13.2465 7.77999 13.667C7.84999 14.0875 8.68999 14.7884 8.89999 14.9987C8.89999 14.9987 8.54999 12.9661 8.68999 12.7559C8.82999 12.5456 12.54 10.9336 12.61 11.1438C12.68 11.284 14.22 12.826 14.22 12.826C14.22 12.826 14.29 12.5456 14.22 12.4755C14.22 12.2652 14.01 11.3541 14.01 11.2139Z" fill="#8D3B26"/>
<path d="M35.29 17.8021C34.87 17.2414 26.26 24.1099 26.05 24.6006C25.91 24.951 26.75 26.7733 27.52 27.4041C27.59 27.334 27.8 26.4228 27.8 26.4228C29.27 25.0912 33.89 21.3765 36.48 19.2038C36.9 19.6243 37.39 19.9748 38.02 20.3953C39.28 21.2363 45.65 23.5492 45.65 23.5492C45.65 23.5492 45.65 23.339 45.72 22.9185C45.72 22.9185 40.4 20.956 38.93 20.3953C37.53 19.9748 35.64 18.4328 35.29 17.8021Z" fill="#B7A994"/>
<path d="M35.15 16.7509C34.8 16.6808 34.94 17.592 35.15 17.8723C35.15 17.8723 35.36 18.0125 35.29 17.8723C35.29 17.7321 35.5 16.7509 35.15 16.7509Z" fill="#B7A994"/>
<path d="M37.18 26.8436C36.97 25.5119 37.53 24.6709 37.53 24.6709C37.53 24.6709 30.95 27.2641 29.62 27.7547C29.13 27.965 28.64 28.1052 28.22 28.3155C28.36 28.2454 35.5 26.2128 35.85 28.3155C35.99 29.0163 35.78 29.6471 35.43 30.2078C37.04 29.1565 38.09 28.3155 38.09 28.3155C38.09 28.3155 37.32 27.7547 37.18 26.8436Z" fill="#B7A994"/>
<path d="M20.59 16.7506C20.31 16.26 20.03 15.7694 19.75 15.2788C19.75 15.2788 21.43 18.8533 21.43 19.6943C21.43 20.5354 18.98 25.7219 19.12 26.633C19.26 27.5441 21.5 23.1286 21.85 24.25C22.2 25.4415 21.64 31.2588 21.64 31.2588C23.74 29.0861 24.65 24.0398 24.72 21.0961C24.3 21.026 23.18 20.5354 23.11 20.3952C21.92 19.5542 21.57 18.4328 20.59 16.7506Z" fill="#356DD2"/>
<path d="M39.14 41.9824H8.76C6.17 41.9824 4 44.1551 4 46.7484V55.9299H6.1V46.7484C6.1 45.2765 7.29 44.085 8.76 44.085H39.14C40.61 44.085 41.8 45.2765 41.8 46.7484V55.9299H43.9V46.7484C43.9 44.1551 41.73 41.9824 39.14 41.9824Z" fill="#B7A994"/>
<path d="M42.85 50.4629H5.05002V52.5655H42.85V50.4629Z" fill="#B7A994"/>
<path d="M39.14 42.2627H8.69001C8.55001 42.2627 8.48001 42.4029 8.48001 42.473C8.48001 42.543 8.55001 42.7533 8.69001 42.7533H39.14C39.28 42.7533 39.35 42.6131 39.35 42.5431C39.35 42.473 39.28 42.2627 39.14 42.2627Z" fill="#DBD6D3"/>
<path d="M41.45 50.8135H6.87C6.73 50.8135 6.66 50.9537 6.66 51.0237C6.66 51.1639 6.8 51.234 6.87 51.234H41.38C41.52 51.234 41.59 51.0938 41.59 51.0237C41.66 50.9537 41.52 50.8135 41.45 50.8135Z" fill="#DBD6D3"/>
</g>
<defs>
<clipPath id="clip0">
<rect width="49" height="56" fill="white" transform="translate(4)"/>
</clipPath>
</defs>
</svg>
