<svg width="56" height="56" viewBox="0 0 56 56" fill="none" xmlns="http://www.w3.org/2000/svg">
<path d="M0.0652466 36.8838V43.01C1.25011 43.0344 2.42623 42.8024 3.51312 42.33C5.28707 41.6047 7.27486 41.6047 9.04881 42.33C11.2541 43.2356 13.7274 43.2356 15.9326 42.33C17.7066 41.6047 19.6944 41.6047 21.4683 42.33C23.6736 43.2356 26.1469 43.2356 28.3521 42.33C30.124 41.6044 32.11 41.6044 33.8819 42.33C36.0871 43.2356 38.5604 43.2356 40.7657 42.33C42.5375 41.6044 44.5236 41.6044 46.2954 42.33C48.5007 43.2356 50.9739 43.2356 53.1792 42.33C54.05 41.9455 54.9956 41.7601 55.9471 41.7872V35.655C54.7648 35.6313 53.5911 35.8611 52.5051 36.329C50.7329 37.0628 48.7417 37.0628 46.9695 36.329C44.7646 35.4321 42.2965 35.4321 40.0916 36.329C38.3193 37.0628 36.3282 37.0628 34.5559 36.329C32.351 35.4321 29.883 35.4321 27.6781 36.329C25.9058 37.0628 23.9147 37.0628 22.1424 36.329C19.9354 35.4324 17.4656 35.4324 15.2586 36.329C13.4863 37.0628 11.4952 37.0628 9.72287 36.329C7.51586 35.4324 5.04607 35.4324 2.83906 36.329C1.96721 36.7179 1.0196 36.9075 0.0652466 36.8838Z" fill="#ADF0FF"/>
<path d="M0.0652466 36.8842V38.7215C1.25014 38.7462 2.42635 38.5142 3.51312 38.0414C5.28707 37.3161 7.27486 37.3161 9.04881 38.0414C11.2541 38.947 13.7274 38.947 15.9326 38.0414C17.7066 37.3161 19.6944 37.3161 21.4683 38.0414C23.6736 38.947 26.1469 38.947 28.3521 38.0414C30.124 37.3158 32.11 37.3158 33.8819 38.0414C36.0871 38.947 38.5604 38.947 40.7657 38.0414C42.5375 37.3158 44.5236 37.3158 46.2954 38.0414C48.5007 38.947 50.9739 38.947 53.1792 38.0414C54.05 37.6569 54.9956 37.4715 55.9471 37.4986V35.6613C54.7648 35.6376 53.5911 35.8675 52.5051 36.3354C50.7327 37.0685 48.7419 37.0685 46.9695 36.3354C44.7647 35.4379 42.2964 35.4379 40.0916 36.3354C38.3192 37.0685 36.3283 37.0685 34.5559 36.3354C32.3511 35.4379 29.8828 35.4379 27.6781 36.3354C25.9056 37.0685 23.9148 37.0685 22.1424 36.3354C19.9356 35.4375 17.4653 35.4375 15.2586 36.3354C13.4861 37.0685 11.4953 37.0685 9.72287 36.3354C7.5161 35.4375 5.04582 35.4375 2.83906 36.3354C1.96674 36.7222 1.01915 36.9097 0.0652466 36.8842Z" fill="#52C6FF"/>
<path d="M20.7764 28.9442L19.9114 33.5135L19.3149 36.5438L18.3306 41.7216H9.20987L8.22561 36.5438L7.6291 33.5195L6.76414 28.9442C6.76414 28.9442 8.6909 29.9821 10.1225 30.7337H10.1524L10.9815 31.1752C11.3812 31.3899 11.6496 31.5271 11.6616 31.5271C11.6735 31.5271 11.6616 28.2642 11.6616 28.2642H15.8372V31.5271C15.8372 31.5271 16.1175 31.3899 16.5172 31.1752C16.7499 31.0499 17.0302 30.9127 17.3344 30.7397H17.3643L20.7764 28.9442Z" fill="#EBAF6E"/>
<path d="M13.7791 22.3645C15.255 22.3645 16.4515 21.4244 16.4515 20.2648C16.4515 19.1051 15.255 18.165 13.7791 18.165C12.3031 18.165 11.1067 19.1051 11.1067 20.2648C11.1067 21.4244 12.3031 22.3645 13.7791 22.3645Z" fill="#59463C"/>
<path d="M13.7792 28.4554C16.0755 28.4554 17.937 26.4978 17.937 24.0829C17.937 21.6681 16.0755 19.7104 13.7792 19.7104C11.483 19.7104 9.62149 21.6681 9.62149 24.0829C9.62149 26.4978 11.483 28.4554 13.7792 28.4554Z" fill="#634E42"/>
<path d="M13.7793 21.3508C12.4252 21.3508 11.0711 21.8578 10.4805 22.9674C10.1902 23.5366 10.012 24.1562 9.95558 24.7927C9.8554 24.6963 9.71818 24.6484 9.57977 24.6615C9.22186 24.7211 9.01308 25.2938 9.12045 25.944C9.14974 26.3738 9.38538 26.7628 9.75276 26.9879C9.81913 27.0062 9.88921 27.0062 9.95558 26.9879H10.0212C10.1585 27.7783 10.4703 28.5282 10.9339 29.1831C11.3813 29.6662 11.6974 30.0361 11.9897 30.3165C12.4617 30.7959 13.1064 31.0659 13.7793 31.0659C14.4521 31.0659 15.0968 30.7959 15.5688 30.3165C15.8671 30.0361 16.1653 29.6662 16.6246 29.1831C17.0882 28.5282 17.4 27.7783 17.5373 26.9879H17.6029C17.6693 27.0062 17.7394 27.0062 17.8058 26.9879C18.1731 26.7628 18.4088 26.3738 18.4381 25.944C18.5454 25.2938 18.3367 24.7211 17.9787 24.6615C17.8403 24.6484 17.7031 24.6963 17.6029 24.7927C17.5465 24.1562 17.3683 23.5366 17.078 22.9674C16.4815 21.8578 15.1274 21.3389 13.7793 21.3508Z" fill="#FFBE78"/>
<path d="M11.1546 32.8991C11.0969 33.353 10.8866 33.7737 10.5581 34.0922L10.5283 34.122C10.3597 34.2778 10.1545 34.3886 9.93178 34.4441C9.1742 34.6529 8.27346 34.1638 7.64115 33.5314L7.5815 33.4718L0.626097 26.7669C0.369978 26.5007 0.188871 26.1714 0.101161 25.8125C0.0982865 25.7827 0.0982865 25.7528 0.101161 25.723C-0.0331086 25.0287 0.191102 24.3135 0.697679 23.8201H0.727505C1.56263 23.0268 2.05774 23.8679 2.85111 24.697L3.33429 25.0967L10.1286 30.7696H10.1585L10.5939 31.1334C10.7654 31.3063 10.9048 31.5083 11.0055 31.73C11.1685 32.0967 11.2203 32.5032 11.1546 32.8991Z" fill="#EBAF6E"/>
<path d="M5.1892 15.4214L0.124766 24.4706C-0.266778 25.5544 0.293907 26.7506 1.37745 27.143H1.41921C2.50487 27.5367 2.88068 26.3257 3.27438 25.2401L6.34645 16.0597L5.1892 15.4214Z" fill="#EBAF6E"/>
<path d="M6.36431 16.0714H4.83126C4.59862 15.1886 3.88279 14.0075 3.77542 12.3671L4.78354 9.1399C4.80095 9.08653 4.83971 9.04277 4.89058 9.01903C4.94145 8.99529 4.99988 8.99369 5.05197 9.01463C5.23215 9.08609 5.34214 9.2694 5.3204 9.46201L4.96846 12.6951C5.90499 13.8584 6.56116 14.8426 6.36431 16.0714Z" fill="#EBAF6E"/>
<path d="M6.35865 15.0454C6.4024 15.3241 6.21797 15.5876 5.94109 15.6419C5.80079 15.6388 5.66758 15.5796 5.57119 15.4776C5.4748 15.3756 5.42326 15.2393 5.42808 15.099L5.29088 12.5519C5.27693 12.3342 5.4377 12.1444 5.65476 12.1224C5.87248 12.1085 6.06224 12.2692 6.08425 12.4863L6.35865 15.0454Z" fill="#EBAF6E"/>
<path d="M27.4572 25.7169C27.4602 25.7466 27.4602 25.7766 27.4572 25.8063C27.3695 26.1652 27.1884 26.4945 26.9323 26.7608L19.9769 33.4656L19.9232 33.5193C19.2969 34.1516 18.3842 34.6408 17.6266 34.4379C17.4038 34.3826 17.1986 34.2718 17.0301 34.1158L17.0003 34.086C16.6707 33.7684 16.4601 33.3472 16.4038 32.893C16.3372 32.5065 16.3827 32.109 16.535 31.7477C16.6355 31.5258 16.7749 31.3238 16.9466 31.1511L17.3642 30.7932H17.394L24.1883 25.1203L24.6715 24.7207C25.4649 23.8855 25.966 23.0445 26.807 23.8438C27.3235 24.3201 27.5675 25.023 27.4572 25.7169Z" fill="#EBAF6E"/>
<path d="M22.3632 15.4214L27.4097 24.4706C27.8013 25.5544 27.2406 26.7506 26.1571 27.143H26.1153C25.0296 27.5367 24.6538 26.3257 24.2601 25.2401L21.1881 16.0597L22.3632 15.4214Z" fill="#EBAF6E"/>
<path d="M21.1939 16.0714H22.727C22.9596 15.1886 23.6754 14.0075 23.7828 12.3671L22.7926 9.1399C22.7752 9.08653 22.7364 9.04277 22.6855 9.01903C22.6347 8.99529 22.5762 8.99369 22.5241 9.01463C22.344 9.08609 22.234 9.2694 22.2557 9.46201L22.6017 12.6951C21.6473 13.8584 21.003 14.8426 21.1939 16.0714Z" fill="#EBAF6E"/>
<path d="M21.1939 15.0454C21.1501 15.3241 21.3346 15.5876 21.6114 15.6419C21.7517 15.6388 21.885 15.5796 21.9813 15.4776C22.0777 15.3756 22.1293 15.2393 22.1245 15.099L22.2617 12.5519C22.2756 12.3342 22.1148 12.1444 21.8978 12.1224C21.6801 12.1085 21.4903 12.2692 21.4683 12.4863L21.1939 15.0454Z" fill="#EBAF6E"/>
<path d="M19.3326 36.5501L18.3484 41.7279H9.2097L8.22545 36.5501C9.24549 36.4069 9.71674 35.5837 9.93746 34.4384C10.1107 33.2177 10.1805 31.9845 10.1462 30.752H10.1761L11.0052 31.1934C11.0052 31.3664 11.0052 31.5573 11.0052 31.7362C11.0113 32.026 11.0372 32.3149 11.0828 32.6012C11.0828 32.6906 11.1126 32.7801 11.1365 32.8815C11.2273 33.5863 11.6274 34.2139 12.2281 34.5935C12.9477 35.046 13.4892 35.7328 13.7611 36.5382C14.0331 35.7328 14.5746 35.046 15.2942 34.5935C15.8933 34.2152 16.2933 33.5901 16.3858 32.8875C16.3858 32.792 16.4216 32.7026 16.4395 32.6071C16.4849 32.3209 16.5108 32.0319 16.517 31.7422C16.5266 31.5614 16.5266 31.3802 16.517 31.1993C16.7497 31.0741 17.0301 30.9369 17.3343 30.7639H17.3641C17.3303 31.9924 17.4001 33.2216 17.5729 34.4384C17.8354 35.5778 18.3066 36.4069 19.3326 36.5501Z" fill="#E6332A"/>
<path d="M49.2482 28.9442L48.3832 33.5135L47.7867 36.5438L46.8024 41.7216H37.7055L36.7213 36.5438L36.1248 33.5195L35.2598 28.9442C35.2598 28.9442 37.1866 29.9821 38.6182 30.7337H38.648L39.4772 31.1752C39.8769 31.3899 40.1453 31.5271 40.1572 31.5271C40.1692 31.5271 40.1572 28.2642 40.1572 28.2642H44.3329V31.5271C44.3329 31.5271 44.6132 31.3899 45.0129 31.1752C45.2455 31.0499 45.5259 30.9127 45.8301 30.7397H45.8599L49.2482 28.9442Z" fill="#EBAF6E"/>
<path d="M42.245 22.3645C43.7209 22.3645 44.9174 21.4244 44.9174 20.2648C44.9174 19.1051 43.7209 18.165 42.245 18.165C40.7691 18.165 39.5726 19.1051 39.5726 20.2648C39.5726 21.4244 40.7691 22.3645 42.245 22.3645Z" fill="#59463C"/>
<path d="M42.2451 28.4554C44.5414 28.4554 46.4029 26.4978 46.4029 24.0829C46.4029 21.6681 44.5414 19.7104 42.2451 19.7104C39.9489 19.7104 38.0874 21.6681 38.0874 24.0829C38.0874 26.4978 39.9489 28.4554 42.2451 28.4554Z" fill="#634E42"/>
<path d="M42.245 21.3508C40.8909 21.3508 39.5427 21.8578 38.9462 22.9674C38.6559 23.5366 38.4777 24.1562 38.4213 24.7927C38.3211 24.6963 38.1839 24.6484 38.0455 24.6615C37.6876 24.7211 37.4788 25.2938 37.5862 25.944C37.6154 26.3738 37.8511 26.7628 38.2185 26.9879C38.2848 27.0062 38.3549 27.0062 38.4213 26.9879H38.4869C38.6242 27.7783 38.936 28.5282 39.3996 29.1831C39.847 29.6662 40.1631 30.0361 40.4554 30.3165C40.9274 30.7959 41.5721 31.0659 42.245 31.0659C42.9178 31.0659 43.5625 30.7959 44.0345 30.3165C44.3328 30.0361 44.631 29.6662 45.0903 29.1831C45.5537 28.5282 45.8655 27.7783 46.003 26.9879H46.0686C46.135 27.0062 46.2051 27.0062 46.2715 26.9879C46.6388 26.7628 46.8745 26.3738 46.9038 25.944C47.0111 25.2938 46.8024 24.7211 46.4444 24.6615C46.306 24.6484 46.1688 24.6963 46.0686 24.7927C46.0122 24.1562 45.834 23.5366 45.5437 22.9674C44.9531 21.8578 43.5991 21.3389 42.245 21.3508Z" fill="#FFBE78"/>
<path d="M39.6203 32.8991C39.5625 33.353 39.3522 33.7737 39.0238 34.0922L38.9939 34.122C38.8253 34.2778 38.6202 34.3886 38.3974 34.4441C37.6398 34.6529 36.7391 34.1638 36.1068 33.5314L36.0471 33.4718L29.0917 26.7669C28.8354 26.5008 28.6542 26.1715 28.5668 25.8125C28.5638 25.7828 28.5638 25.7528 28.5668 25.723C28.4325 25.0287 28.6567 24.3135 29.1633 23.8201H29.1931C30.0283 23.0268 30.5234 23.8679 31.3167 24.697L31.7999 25.0967L38.5943 30.7696H38.6241L39.0595 31.1334C39.2311 31.3063 39.3704 31.5083 39.4711 31.73C39.6341 32.0967 39.686 32.5032 39.6203 32.8991Z" fill="#EBAF6E"/>
<path d="M33.6611 15.4214L28.6146 24.4706C28.223 25.5544 28.7837 26.7506 29.8673 27.143H29.909C30.9947 27.5367 31.3705 26.3257 31.7642 25.2401L34.8363 16.0597L33.6611 15.4214Z" fill="#EBAF6E"/>
<path d="M34.8303 16.0714H33.2972C33.0646 15.1886 32.3488 14.0075 32.2414 12.3671L33.2495 9.1399C33.2669 9.08653 33.3057 9.04277 33.3566 9.01903C33.4074 8.99529 33.4659 8.99369 33.518 9.01463C33.6981 9.08609 33.8081 9.2694 33.7864 9.46201L33.4404 12.6951C34.3769 13.8584 35.0331 14.8426 34.8303 16.0714Z" fill="#EBAF6E"/>
<path d="M34.8301 15.0454C34.8739 15.3241 34.6895 15.5876 34.4126 15.6419C34.2723 15.6388 34.1391 15.5796 34.0427 15.4776C33.9463 15.3756 33.8947 15.2393 33.8996 15.099L33.7624 12.5519C33.7484 12.3342 33.9092 12.1444 34.1262 12.1224C34.344 12.1085 34.5337 12.2692 34.5557 12.4863L34.8301 15.0454Z" fill="#EBAF6E"/>
<path d="M55.929 25.717C55.932 25.7467 55.932 25.7767 55.929 25.8064C55.8416 26.1654 55.6604 26.4948 55.4041 26.7609L48.4427 33.4657L48.389 33.5194C47.7627 34.1517 46.85 34.6409 46.0924 34.4381C45.8697 34.3825 45.6645 34.2717 45.4959 34.1159L45.4601 34.0801C45.1301 33.7628 44.9195 33.3415 44.8636 32.8871C44.797 32.5006 44.8426 32.1032 44.9948 31.7418C45.0956 31.5201 45.2349 31.3181 45.4064 31.1453L45.824 30.7874H45.8538L52.6482 25.1145L53.1313 24.7148C53.9247 23.8797 54.4258 23.0386 55.2669 23.8379C55.7896 24.313 56.0384 25.0191 55.929 25.717Z" fill="#EBAF6E"/>
<path d="M50.8287 15.4214L55.8752 24.4706C56.2668 25.5544 55.7061 26.7506 54.6225 27.143H54.5808C53.4951 27.5367 53.1193 26.3257 52.7256 25.2401L49.6357 16.0716L50.8287 15.4214Z" fill="#EBAF6E"/>
<path d="M49.6361 16.0714H51.1691C51.4017 15.1886 52.1176 14.0075 52.2249 12.3671L51.2168 9.1399C51.1994 9.08653 51.1607 9.04277 51.1098 9.01903C51.0589 8.99529 51.0005 8.99369 50.9484 9.01463C50.7682 9.08609 50.6582 9.2694 50.68 9.46201L51.0259 12.6951C50.1192 13.8584 49.4631 14.8426 49.6361 16.0714Z" fill="#EBAF6E"/>
<path d="M49.6657 15.0454C49.6219 15.3241 49.8063 15.5876 50.0832 15.6419C50.2235 15.6388 50.3567 15.5796 50.4531 15.4776C50.5495 15.3756 50.601 15.2393 50.5962 15.099L50.7334 12.5519C50.7474 12.3342 50.5866 12.1444 50.3695 12.1224C50.1518 12.1085 49.9621 12.2692 49.9401 12.4863L49.6657 15.0454Z" fill="#EBAF6E"/>
<path d="M47.8047 36.5501L46.8205 41.7279H37.7057L36.7214 36.5501C37.7415 36.4069 38.2127 35.5837 38.4334 34.4384C38.6065 33.2177 38.6764 31.9845 38.6422 30.752H38.672L39.5012 31.1934C39.5012 31.3664 39.5012 31.5573 39.5012 31.7362C39.5073 32.026 39.5332 32.3149 39.5787 32.6012C39.5787 32.6906 39.6086 32.7801 39.6324 32.8815C39.7232 33.5863 40.1234 34.2139 40.724 34.5935C41.4437 35.046 41.9851 35.7328 42.2571 36.5382C42.529 35.7328 43.0705 35.046 43.7901 34.5935C44.3893 34.2152 44.7893 33.5901 44.8818 32.8875C44.8818 32.792 44.9176 32.7026 44.9355 32.6071C44.9807 32.3209 45.0066 32.0319 45.013 31.7422C45.0227 31.5614 45.0227 31.3802 45.013 31.1993C45.2456 31.0741 45.526 30.9369 45.8302 30.7639H45.8601C45.8262 31.9924 45.8961 33.2216 46.0688 34.4384C46.3074 35.5778 46.7787 36.4069 47.8047 36.5501Z" fill="#E6332A"/>
<path d="M0.0652466 41.1727V43.01C1.25011 43.0343 2.42623 42.8023 3.51312 42.3299C5.28707 41.6046 7.27486 41.6046 9.04881 42.3299C11.2541 43.2355 13.7274 43.2355 15.9326 42.3299C17.7066 41.6046 19.6944 41.6046 21.4683 42.3299C23.6736 43.2355 26.1469 43.2355 28.3521 42.3299C30.124 41.6043 32.11 41.6043 33.8819 42.3299C36.0871 43.2355 38.5604 43.2355 40.7657 42.3299C42.5375 41.6043 44.5236 41.6043 46.2954 42.3299C48.5007 43.2355 50.9739 43.2355 53.1792 42.3299C54.05 41.9454 54.9956 41.76 55.9471 41.7871V39.9498C54.7645 39.9232 53.5903 40.1531 52.5051 40.6239C50.7329 41.3576 48.7417 41.3576 46.9695 40.6239C44.7646 39.727 42.2965 39.727 40.0916 40.6239C38.3193 41.3576 36.3282 41.3576 34.5559 40.6239C32.351 39.727 29.883 39.727 27.6781 40.6239C25.9058 41.3576 23.9147 41.3576 22.1424 40.6239C19.9354 39.7273 17.4656 39.7273 15.2586 40.6239C13.4863 41.3576 11.4952 41.3576 9.72287 40.6239C7.51586 39.7273 5.04607 39.7273 2.83906 40.6239C1.96674 41.0107 1.01915 41.1982 0.0652466 41.1727Z" fill="#52C6FF"/>
<path d="M0.0652466 41.1668V47.2871C1.25011 47.3114 2.42623 47.0795 3.51312 46.6071C5.28707 45.8817 7.27486 45.8817 9.04881 46.6071C11.2541 47.5126 13.7274 47.5126 15.9326 46.6071C17.7066 45.8817 19.6944 45.8817 21.4683 46.6071C23.6736 47.5126 26.1469 47.5126 28.3521 46.6071C30.124 45.8815 32.11 45.8815 33.8819 46.6071C36.0871 47.5126 38.5604 47.5126 40.7657 46.6071C42.5375 45.8815 44.5236 45.8815 46.2954 46.6071C48.5007 47.5126 50.9739 47.5126 53.1792 46.6071C54.0499 46.2222 54.9955 46.0367 55.9471 46.0643V39.944C54.7645 39.9173 53.5903 40.1473 52.5051 40.618C50.7329 41.3518 48.7417 41.3518 46.9695 40.618C44.7646 39.7211 42.2965 39.7211 40.0916 40.618C38.3193 41.3518 36.3282 41.3518 34.5559 40.618C32.351 39.7211 29.883 39.7211 27.6781 40.618C25.9058 41.3518 23.9147 41.3518 22.1424 40.618C19.9355 39.7208 17.4655 39.7208 15.2586 40.618C13.4863 41.3518 11.4952 41.3518 9.72287 40.618C7.51598 39.7208 5.04595 39.7208 2.83906 40.618C1.96674 41.0049 1.01915 41.1924 0.0652466 41.1668Z" fill="#ADF0FF"/>
<path d="M0.0652466 41.1668V43.0041C1.25011 43.0284 2.42623 42.7965 3.51312 42.3241C5.28707 41.5987 7.27486 41.5987 9.04881 42.3241C11.2541 43.2296 13.7274 43.2296 15.9326 42.3241C17.7066 41.5987 19.6944 41.5987 21.4683 42.3241C23.6736 43.2296 26.1469 43.2296 28.3521 42.3241C30.124 41.5985 32.11 41.5985 33.8819 42.3241C36.0871 43.2296 38.5604 43.2296 40.7657 42.3241C42.5375 41.5985 44.5236 41.5985 46.2954 42.3241C48.5007 43.2296 50.9739 43.2296 53.1792 42.3241C54.05 41.9396 54.9956 41.7541 55.9471 41.7813V39.944C54.7645 39.9173 53.5903 40.1473 52.5051 40.618C50.7329 41.3518 48.7417 41.3518 46.9695 40.618C44.7646 39.7211 42.2965 39.7211 40.0916 40.618C38.3193 41.3518 36.3282 41.3518 34.5559 40.618C32.351 39.7211 29.883 39.7211 27.6781 40.618C25.9058 41.3518 23.9147 41.3518 22.1424 40.618C19.9355 39.7208 17.4655 39.7208 15.2586 40.618C13.4863 41.3518 11.4952 41.3518 9.72287 40.618C7.51598 39.7208 5.04595 39.7208 2.83906 40.618C1.96674 41.0049 1.01915 41.1924 0.0652466 41.1668Z" fill="#52C6FF"/>
<path d="M0.0652466 45.456V47.2932C1.25011 47.3176 2.42623 47.0856 3.51312 46.6132C5.28707 45.8879 7.27486 45.8879 9.04881 46.6132C11.2541 47.5188 13.7274 47.5188 15.9326 46.6132C17.7066 45.8879 19.6944 45.8879 21.4683 46.6132C23.6736 47.5188 26.1469 47.5188 28.3521 46.6132C30.124 45.8876 32.11 45.8876 33.8819 46.6132C36.0871 47.5188 38.5604 47.5188 40.7657 46.6132C42.5375 45.8876 44.5236 45.8876 46.2954 46.6132C48.5007 47.5188 50.9739 47.5188 53.1792 46.6132C54.0499 46.2285 54.9955 46.043 55.9471 46.0704V44.2331C54.7645 44.206 53.5901 44.436 52.5051 44.9072C50.7327 45.6403 48.7419 45.6403 46.9695 44.9072C44.7647 44.0096 42.2964 44.0096 40.0916 44.9072C38.3192 45.6403 36.3283 45.6403 34.5559 44.9072C32.3511 44.0096 29.8828 44.0096 27.6781 44.9072C25.9056 45.6403 23.9148 45.6403 22.1424 44.9072C19.9356 44.0093 17.4653 44.0093 15.2586 44.9072C13.4861 45.6403 11.4953 45.6403 9.72287 44.9072C7.5161 44.0093 5.04582 44.0093 2.83906 44.9072C1.96674 45.294 1.01915 45.4815 0.0652466 45.456Z" fill="#52C6FF"/>
</svg>
