<svg width="56" height="56" viewBox="0 0 56 56" fill="none" xmlns="http://www.w3.org/2000/svg">
<g clip-path="url(#clip0)">
<path fill-rule="evenodd" clip-rule="evenodd" d="M30.0129 13.1665C30.07 14.8635 30.1271 16.619 30.1842 18.3159C31.2689 19.7203 30.9834 19.9544 31.1547 21.7684L31.6685 28.1467L32.639 29.3755L32.8674 30.7799L32.1252 33.062L30.9263 33.0035L30.2983 30.4288L30.3554 28.6148L29.7845 26.8008L27.7293 21.8269L27.558 19.7789C26.7017 16.4434 25.8453 13.1665 24.989 9.8311C27.6722 8.89484 29.1565 8.48523 29.9558 10.0652C30.1842 10.5333 30.4125 11.2355 30.0129 13.1665Z" fill="#F0C17D"/>
<path fill-rule="evenodd" clip-rule="evenodd" d="M30.0129 13.1665L30.1271 17.2041L27.3867 19.0181C26.5875 15.9168 25.7882 12.8739 24.989 9.8311C27.6722 8.89484 29.1565 8.48523 29.9558 10.0652C30.1842 10.5333 30.4125 11.2355 30.0129 13.1665Z" fill="#D6D6D6"/>
<path fill-rule="evenodd" clip-rule="evenodd" d="M39.5471 50.9094C39.1475 50.8509 38.8049 50.7339 38.5195 49.9731L38.0056 50.1487C38.2911 51.0264 38.5765 51.6701 38.8049 52.1968C39.1475 52.8989 39.6042 53.4841 40.3463 53.7767C40.5747 53.8352 40.8602 53.8937 41.2027 53.8937C42.8583 53.9522 44.0001 52.1382 44.0001 51.6116C43.943 51.0849 42.4016 50.8509 41.0314 50.8509C40.5176 50.8509 40.0609 50.9679 39.5471 50.9094Z" fill="#347CFF"/>
<path d="M29.4305 26.7323L29.0063 26.9058L38.1228 50.3305L38.547 50.1571L29.4305 26.7323Z" fill="#347CFF"/>
<path fill-rule="evenodd" clip-rule="evenodd" d="M29.1567 27.7956L29.5563 27.62C29.7847 27.503 30.0701 27.62 30.1843 27.9126L32.4679 33.4717C32.5821 33.7057 32.4679 33.9983 32.1824 34.1153L31.7828 34.2909C31.5545 34.4079 31.269 34.2909 31.1548 33.9983L28.8712 28.4393C28.757 28.2052 28.8712 27.9126 29.1567 27.7956Z" fill="#356DD2"/>
<path fill-rule="evenodd" clip-rule="evenodd" d="M39.2045 6.08597C38.0627 7.89998 36.5213 7.02223 34.8657 5.61785L35.4937 4.50604L36.2929 4.27197L37.1493 4.56455L39.2045 6.08597Z" fill="#356DD2"/>
<path fill-rule="evenodd" clip-rule="evenodd" d="M29.5563 5.20833L27.7294 7.02233L28.8141 10.7674L29.6133 10.6503C31.4402 9.30447 30.8122 9.12892 32.9246 7.37343L31.3261 3.97949C30.2984 5.14982 30.4126 4.44762 29.5563 5.20833Z" fill="#F0C17D"/>
<path fill-rule="evenodd" clip-rule="evenodd" d="M34.7514 8.25115C34.5802 8.36818 34.5802 8.48521 34.6373 8.71928C34.5802 8.83631 34.4089 8.89483 34.2376 8.83631C33.7809 8.4267 33.7238 8.89483 33.7238 8.89483C34.0664 9.18741 33.8951 9.30444 33.7809 9.36296C33.6667 9.36296 33.6096 9.36296 33.5526 9.36296C33.3813 9.47999 33.4384 10.0066 33.0387 10.1237C32.5249 10.2407 31.6115 8.36818 31.1548 7.54895C30.8122 6.84676 31.2689 6.55418 31.7828 6.02753C31.4402 5.85198 31.2689 5.5594 31.6115 5.03276C31.6115 4.0965 31.8398 3.51134 32.0682 2.57508C32.0682 2.57508 35.094 0.644043 35.1511 0.644043C35.2082 0.702559 37.0921 2.51656 37.0921 2.51656C37.0351 3.10172 37.2063 3.80392 37.0921 4.50611C36.978 5.44237 36.6925 5.85198 36.5783 6.2616C36.4642 6.61269 36.35 6.67121 36.1787 6.78824C36.1216 6.84676 36.0074 6.84676 35.9503 6.96379C35.5507 7.49044 35.722 8.30966 35.6078 8.4267C35.4936 8.54373 35.094 8.54373 34.7514 8.25115Z" fill="#FFDBA7"/>
<path fill-rule="evenodd" clip-rule="evenodd" d="M33.8951 5.09128C33.7238 5.26682 33.3242 5.50089 33.0387 5.9105C32.9816 5.44237 33.0387 5.20831 32.9816 4.85721C32.8675 4.38908 32.6962 3.86244 32.3536 3.7454C31.954 3.62837 31.6686 4.33057 31.6686 4.97424C31.6686 5.26682 31.4973 5.55941 31.326 5.67644C30.9835 5.9105 30.7551 5.50089 30.2413 5.61792C29.7846 5.73495 29.2137 5.79347 28.9282 5.9105C29.2708 5.32534 29.6133 4.85721 29.6133 4.0965C29.6133 3.68689 29.7275 3.21876 29.9558 2.75063C30.7551 0.819593 32.6391 0.117399 34.1805 0.527012C36.1787 0.995142 37.4918 3.04321 37.0921 4.56463C36.8638 4.38908 36.2358 4.15502 35.6078 3.97947C34.7514 4.15502 34.1805 4.74018 33.8951 5.44237V5.09128Z" fill="#632404"/>
<path fill-rule="evenodd" clip-rule="evenodd" d="M29.8416 2.86769C29.9558 2.57511 30.07 2.28253 30.2412 1.98995C31.1547 0.292977 33.267 -0.409218 34.7514 0.23446C36.7495 1.05369 37.3775 2.39956 37.3775 3.80395C37.3775 4.15505 37.3204 4.44763 37.2633 4.79872C35.9503 4.44763 34.6372 4.15505 33.3241 3.74543C32.1252 3.39433 31.0405 2.80917 29.8416 2.86769Z" fill="#347CFF"/>
<path fill-rule="evenodd" clip-rule="evenodd" d="M37.2635 4.62288C38.177 5.20804 38.4053 5.50062 39.2046 6.08578C37.4919 6.4954 35.8363 5.03249 34.4661 4.03772C35.0941 3.9792 36.6355 4.15475 37.2635 4.62288Z" fill="#347CFF"/>
<path fill-rule="evenodd" clip-rule="evenodd" d="M14.7127 55.5905L16.3113 55.766L16.768 55.5905C17.396 55.766 17.4531 55.8245 18.0811 55.8245C19.4512 55.8831 21.4494 55.8245 22.8196 55.766C22.8196 54.6542 22.8196 54.5372 21.1069 54.3031C20.4218 54.1861 19.908 53.7765 19.1087 53.0158C18.7091 52.6062 18.5378 52.1965 18.3665 51.0262L15.4549 50.9092C15.3978 51.4943 15.3407 51.8454 15.1695 52.1965C14.9411 53.1328 14.4273 53.6594 14.7127 55.5905Z" fill="#2955A5"/>
<path fill-rule="evenodd" clip-rule="evenodd" d="M13.4567 28.5559C13 26.7419 12.8858 26.0397 13.1142 24.8109C13.3996 23.2894 14.3702 21.1243 15.7974 19.8955L20.1363 22.4117L20.0221 26.3908L18.4807 36.6897L18.1952 52.6061C16.825 52.8986 15.8545 52.9572 14.7127 52.8401L13.9705 41.5465L14.9411 36.6311C14.7127 34.1149 13.9134 30.604 13.4567 28.5559Z" fill="#356DD2"/>
<path fill-rule="evenodd" clip-rule="evenodd" d="M17.6243 55.7077L19.2228 55.8832L19.7366 55.7077C20.3646 55.8832 20.4217 55.9417 21.0497 55.9417C22.4198 56.0002 24.418 55.9417 25.7882 55.8832C25.7882 54.7714 25.7882 54.6544 24.0755 54.4203C23.3904 54.3033 22.8766 53.8937 22.0773 53.133C21.6777 52.7233 21.5064 52.3137 21.3351 51.1434L18.4235 51.0264C18.3664 51.6115 18.3094 51.9626 18.1381 52.3137C17.7955 53.25 17.3388 53.7766 17.6243 55.7077Z" fill="#356DD2"/>
<path fill-rule="evenodd" clip-rule="evenodd" d="M14.5415 28.2635C14.3131 27.5613 14.199 27.0347 14.0848 26.5665C13.8564 25.8058 13.7422 24.9866 13.8564 24.1089C14.0848 22.2363 14.7699 21.066 15.8546 19.6616L23.3334 21.4756L21.792 24.2844L21.7349 24.694L21.6778 26.6251L21.2781 28.2635L21.792 35.4025C21.792 36.6313 21.849 36.8654 21.849 38.0942L21.792 52.6648C20.4218 52.8403 19.2229 52.8988 17.8527 52.9573L16.5397 41.3126L16.6538 36.2802C16.2542 33.764 15.1695 30.2531 14.5415 28.2635Z" fill="#347CFF"/>
<path fill-rule="evenodd" clip-rule="evenodd" d="M28.5857 6.14453C26.5875 7.4904 24.361 7.54892 22.1345 9.12886C18.9374 11.411 17.8527 14.4538 15.512 20.0714C17.2818 22.412 19.7367 23.8164 21.792 25.0453C23.5617 22.1195 28.8711 17.6137 29.6133 15.8582C30.07 14.7464 30.1842 12.9324 30.3555 10.3577C30.3555 10.1236 29.1566 10.0651 29.1566 9.77254L28.5857 6.14453Z" fill="#E6E6E6"/>
<path fill-rule="evenodd" clip-rule="evenodd" d="M28.6427 6.08594C28.6427 7.31478 29.8987 9.30433 30.6409 10.2406C30.2983 10.5332 29.2136 11.4109 28.9282 11.5865C28.7569 10.2406 27.4438 7.72439 28.0147 6.37852L28.6427 6.08594Z" fill="#F3F3F3"/>
<path fill-rule="evenodd" clip-rule="evenodd" d="M22.7623 15.7416C22.9336 17.38 23.162 18.9014 24.0183 20.7154C24.1325 21.008 27.4437 22.3539 26.9299 19.3696C26.7016 15.7416 26.9299 16.0341 27.4437 12.3476C27.7863 9.88994 27.0441 9.48033 25.3314 9.53884C22.2485 9.77291 22.5911 13.9861 22.7623 15.7416Z" fill="#FFDBA7"/>
<path fill-rule="evenodd" clip-rule="evenodd" d="M22.534 15.6244L26.8728 16.2095C27.1012 15.1562 27.615 14.1029 27.9005 12.523C28.3572 9.71422 27.2725 8.5439 26.0165 8.36835C24.9318 8.1928 23.6758 8.83648 23.162 10.0653C22.4769 11.7623 22.5911 14.2785 22.534 15.6244Z" fill="#EDEDED"/>
<path fill-rule="evenodd" clip-rule="evenodd" d="M23.8471 20.3639C24.1896 21.5342 23.9612 21.0076 24.1896 21.6512C24.8176 23.2312 25.674 23.9919 27.5579 26.2155C28.1288 26.8592 28.5285 27.5029 28.6997 28.2051C28.871 29.0243 28.8139 29.902 28.9281 30.7798C28.9852 31.3649 28.871 31.5405 29.4419 31.6575C29.4419 32.0086 29.5561 32.3597 29.8986 32.3012C29.9557 32.6523 30.127 32.9449 30.3554 32.8863C30.4124 33.1204 30.755 34.1152 30.8692 33.4715C30.9263 33.0619 30.9263 32.9449 30.8692 32.4182C30.8121 31.8331 30.9263 31.482 31.3259 30.7798C31.383 31.1309 31.6684 31.5405 31.8397 32.0671C32.2964 31.599 32.1252 31.1309 32.0681 30.6042C32.011 30.2531 32.011 29.902 32.011 29.785C31.9539 29.5509 31.8397 29.4339 31.7255 29.1998C31.5542 28.9658 31.2688 28.5561 30.9833 28.2051C30.0128 26.8592 29.499 26.157 28.9281 24.577C28.5285 23.4067 28.4143 22.1779 27.9005 21.0076C27.5008 20.0713 27.5579 20.4809 26.359 18.6669C26.0736 17.8477 22.9907 18.1403 23.8471 20.3639Z" fill="#FFDBA7"/>
<path fill-rule="evenodd" clip-rule="evenodd" d="M40.9742 54.7131C41.7163 54.7131 42.3443 54.0694 42.3443 53.3087C42.3443 52.548 41.7163 51.9043 40.9742 51.9043C40.232 51.9043 39.604 52.548 39.604 53.3087C39.604 54.0694 40.232 54.7131 40.9742 54.7131Z" fill="#F2F2F2"/>
<path fill-rule="evenodd" clip-rule="evenodd" d="M40.5174 54.6543L40.7458 55.298L40.8028 56.0002H41.1454L41.2025 55.298L41.4308 54.6543C41.2596 54.7128 41.1454 54.7128 40.9741 54.7128C40.8028 54.7128 40.6316 54.7128 40.5174 54.6543Z" fill="#347CFF"/>
</g>
<defs>
<clipPath id="clip0">
<rect width="31" height="56" fill="white" transform="translate(13)"/>
</clipPath>
</defs>
</svg>
