<svg width="56" height="56" viewBox="0 0 56 56" fill="none" xmlns="http://www.w3.org/2000/svg">
<path d="M36.3524 44.2527C38.9629 44.1077 41.5813 44.2181 44.1703 44.5823C44.8186 44.6742 46.9959 44.3446 47.9252 44.5499C48.3629 44.6471 47.8874 45.2847 46.8068 45.7763C45.2508 46.4841 37.9463 48.2778 33.0675 48.71C30.1039 48.9764 27.1271 49.0648 24.1529 48.9748C22.8919 48.9535 21.6361 48.8087 20.4034 48.5426C19.7303 48.3939 19.2941 47.7409 19.4146 47.0622C19.7982 46.5489 21.2678 46.7164 22.0242 46.4895C23.622 46.0325 25.2457 45.6717 26.8867 45.4089C30.0176 44.8454 33.1779 44.4594 36.3524 44.2527Z" fill="#BE1622"/>
<path d="M36.2605 43.4261C38.871 43.281 41.4894 43.3914 44.0784 43.7556C45.0293 43.8907 45.9478 44.0636 46.823 44.2635C47.1958 44.35 47.5416 44.4634 47.9036 44.5499C43.0695 46.2483 38.0514 47.3691 32.954 47.8888C29.9904 48.155 27.0136 48.2434 24.0394 48.1535C22.7777 48.144 21.5207 47.9991 20.2899 47.7213C19.7496 47.5754 19.2093 47.3485 19.4362 46.9055C19.458 46.853 19.4871 46.8039 19.5227 46.7596C19.9063 46.2463 21.1435 45.8681 21.9215 45.6412C23.5193 45.1842 25.1431 44.8234 26.784 44.5607C29.9189 44.0037 33.0828 43.6249 36.2605 43.4261Z" fill="#E6332A"/>
<path d="M33.5862 44.7497C33.4734 44.8189 33.4213 44.9555 33.4594 45.0822C33.4974 45.209 33.616 45.2943 33.7483 45.29C34.0798 45.3433 34.4172 45.2395 34.6614 45.0091C34.7742 44.9398 34.8263 44.8033 34.7883 44.6765C34.7502 44.5498 34.6316 44.4645 34.4993 44.4688C34.1678 44.4155 33.8304 44.5193 33.5862 44.7497Z" fill="#936037"/>
<path d="M33.4891 45.0686L34.7803 44.6742L34.7317 44.5229L33.4404 44.9174L33.4891 45.0686Z" fill="#936037"/>
<path d="M33.5485 44.593C33.4357 44.6622 33.3836 44.7987 33.4216 44.9255C33.4597 45.0523 33.5783 45.1376 33.7106 45.1333C34.0421 45.1866 34.3795 45.0827 34.6237 44.8523C34.7365 44.7831 34.7886 44.6466 34.7506 44.5198C34.7125 44.393 34.5939 44.3077 34.4616 44.312C34.1301 44.2588 33.7927 44.3626 33.5485 44.593Z" fill="#CA9E67"/>
<path d="M13.8497 36.111C18.9931 39.8227 25.8385 42.0919 33.9913 43.2481C33.7644 41.9892 33.5375 40.725 33.2998 39.4661C30.9441 26.8128 28.1023 14.2837 24.8012 5.38524C24.1096 3.52668 23.4018 1.81939 22.6725 0.312012L19.2201 3.22953C17.1472 4.98319 15.6739 7.34052 15.0059 9.97222C14.8582 10.5521 14.7141 11.132 14.5737 11.7119C14.5466 11.8146 14.5196 11.9172 14.5034 12.0253C14.39 12.4953 14.2819 12.9654 14.1739 13.43C13.7686 15.2075 13.4067 16.9797 13.0933 18.741C13.0122 19.1894 12.9366 19.6378 12.8664 20.0863C12.8664 20.1889 12.834 20.2916 12.8177 20.3942C12.3448 23.3523 12.0543 26.3367 11.9479 29.3305C11.9479 29.4385 11.9479 29.5484 11.9479 29.66C11.9227 30.5965 11.9227 31.5276 11.9479 32.4533C11.9775 33.9022 12.6806 35.2545 13.8497 36.111Z" fill="#EDEDED"/>
<path d="M20.3925 35.5324C24.1312 38.639 33.2349 39.6223 33.2349 39.6223L33.2998 39.4656C30.9441 26.8123 28.1023 14.2832 24.8012 5.38477C24.7579 5.43339 18.4042 8.30228 17.9018 18.2813C17.3993 28.2602 16.6483 32.4204 20.3925 35.5324Z" fill="#F6F6F6"/>
<path fill-rule="evenodd" clip-rule="evenodd" d="M24.9092 4.8667C26.784 10.2749 28.448 16.2666 29.9014 22.2853C31.3331 28.2176 32.5542 34.1769 33.5429 39.6013L33.4997 39.704L33.1863 40.4063L33.0188 39.8661H32.8891C30.8307 39.6067 23.5315 38.5154 20.2088 35.7491C16.7942 32.9072 16.9941 29.3576 17.4371 21.5614C17.4588 21.1526 17.4821 20.7318 17.5062 20.2985C17.5422 19.6493 17.5798 18.972 17.6154 18.2656C18.0531 9.5023 23.0128 6.06612 24.4554 5.2503L24.6229 5.15845L24.9092 4.8667ZM20.5702 35.3156C23.693 37.9089 30.7707 39.0111 32.7805 39.2812L32.9696 39.2975C30.252 24.7369 27.4479 13.4721 24.6385 5.80008C23.2067 6.63752 18.6035 9.95484 18.1821 18.3022C18.1245 19.4764 18.0651 20.5749 18.0038 21.5979C17.577 29.1942 17.4473 32.7222 20.5702 35.3156Z" fill="#B2B2B2"/>
<path d="M11.9318 29.6494C18.4358 31.7823 25.1536 33.1973 31.9654 33.869L31.9978 33.5556C25.1739 32.888 18.4445 31.4693 11.9318 29.3252C11.9354 29.4333 11.9354 29.5413 11.9318 29.6494Z" fill="#CCCCCC"/>
<path d="M14.4981 12.0196C18.6015 12.2795 22.7183 12.2434 26.8165 11.9115L26.7841 11.5981C22.72 11.9256 18.6376 11.9617 14.5683 11.7062C14.5413 11.8143 14.5143 11.9169 14.4981 12.0196Z" fill="#CCCCCC"/>
<path d="M33.5432 39.6336C32.5491 34.1714 31.3335 28.2175 29.9017 22.2798C28.4484 16.2611 26.7843 10.2694 24.9096 4.86115C24.3693 3.24031 23.7804 1.70052 23.1861 0.209343V0.155315C23.1313 0.0346192 22.9956 -0.0269333 22.8687 0.0112821C22.7418 0.0494975 22.6627 0.175699 22.6836 0.306593C22.6851 0.328178 22.6851 0.349841 22.6836 0.371427C23.2833 1.90042 23.8722 3.53207 24.4503 5.23395L24.634 5.77423C27.8757 15.6127 30.7122 28.0824 32.776 39.2716C32.8139 39.4661 32.8463 39.666 32.8841 39.8605C33.1975 41.5462 33.4838 43.1994 33.7539 44.8149C33.7779 44.8703 33.8291 44.9093 33.889 44.9175C34.0556 44.945 34.2255 44.8931 34.3483 44.7771C34.3936 44.7363 34.4141 44.6747 34.4023 44.615C34.1267 43.0211 33.8566 41.3517 33.5432 39.6336Z" fill="#878787"/>
<path d="M18.9986 34.8031C13.7092 33.782 12.2235 32.3827 11.9101 31.394C11.7845 30.8201 11.9344 30.2204 12.3153 29.7731C12.3489 29.6782 12.3245 29.5724 12.2527 29.5017C12.1809 29.4311 12.0747 29.4084 11.9803 29.4436C11.4341 29.9975 11.2278 30.8022 11.4401 31.5507C11.9479 33.1715 14.4548 34.4303 18.8905 35.2894C21.0396 35.7309 23.2285 35.95 25.4225 35.9431V35.4623C23.2641 35.4672 21.111 35.2463 18.9986 34.8031Z" fill="#9D9D9C"/>
<path d="M13.0882 18.7352L14.0012 18.8973C14.6744 19.0085 15.3121 18.5585 15.433 17.887L15.9138 14.9046C15.98 14.5499 15.8887 14.1839 15.6636 13.9018C15.4386 13.6197 15.102 13.4493 14.7414 13.4351H14.1687C13.7581 15.1856 13.3961 16.9739 13.0882 18.7352Z" fill="#00A19A"/>
<rect x="12.0139" y="29.5044" width="2.49069" height="3.33893" transform="rotate(-15.15 12.0139 29.5044)" fill="#EBAF6E"/>
<path d="M12.8232 25.3919C12.8531 25.2677 12.7954 25.1389 12.6827 25.0785C12.5747 25.4513 12.2073 25.4837 11.5157 26.0456C11.3096 26.2341 11.1521 26.4694 11.0565 26.7318C11.0565 26.775 11.0241 26.8236 11.0079 26.8669C10.8932 27.2388 10.9162 27.6397 11.0727 27.9961L11.4401 28.7524C11.488 28.73 11.5434 28.73 11.5914 28.7524C11.6768 28.7884 11.7527 28.844 11.8129 28.9145C11.6207 28.4849 11.4635 28.0404 11.3428 27.5854C11.3428 26.305 14.2766 28.3148 15.2167 25.3055C15.2167 25.3055 14.9573 25.3757 14.9681 25.3487C15.0332 25.1022 15.0569 24.8466 15.0384 24.5923C14.8947 24.8971 14.6132 25.1142 14.282 25.1758C14.2495 25.1758 14.3252 24.9435 14.282 24.9597C14.0291 25.1341 13.7346 25.2385 13.4283 25.2622C13.2202 25.2662 13.0147 25.3102 12.8232 25.3919Z" fill="#3C3C3B"/>
<path d="M21.1922 35.1761C21.1652 35.4516 21.4029 35.3489 20.0144 35.6083L15.2491 36.2566C14.9783 36.2581 14.718 36.1518 14.5255 35.9614C14.333 35.7709 14.224 35.5117 14.2226 35.2409C14.2211 34.9701 14.3273 34.7098 14.5178 34.5173C14.7083 34.3247 14.9675 34.2158 15.2383 34.2144L20.2413 34.4899C20.8086 34.4629 21.1868 34.6358 21.1922 35.1761Z" fill="#EBAF6E"/>
<path d="M22.8779 35.1762L22.4781 35.7813C22.4106 35.8847 22.2816 35.9292 22.1647 35.8894L21.9486 35.8192L21.6299 36.0353L20.452 35.549L20.2413 34.4685L22.0026 34.1875C22.1818 34.1609 22.3623 34.2258 22.4835 34.3604L22.8509 34.771C22.9483 34.8853 22.9593 35.05 22.8779 35.1762Z" fill="#EBAF6E"/>
<path d="M25.8169 46.4683C25.6446 46.6627 25.3872 46.7589 25.1296 46.7254C24.8721 46.6918 24.6479 46.5328 24.5311 46.3008L20.0792 40.7738C19.8976 40.4935 19.8371 40.1517 19.9114 39.8261C19.9857 39.5005 20.1884 39.2187 20.4736 39.0449C21.0681 38.6708 21.8523 38.8357 22.2457 39.4177L25.8386 45.2959C26.5139 46.1982 25.8169 46.4683 25.8169 46.4683Z" fill="#EBAF6E"/>
<path d="M22.6239 39.7797L21.981 39.7041C21.0247 40.2444 20.8626 41.1683 21.3218 42.1732L22.2835 42.292C22.9778 42.3825 23.6177 41.9032 23.7261 41.2115C23.7782 40.8741 23.6899 40.5301 23.4816 40.2596C23.2734 39.989 22.9634 39.8156 22.6239 39.7797Z" fill="#EBAF6E"/>
<path d="M24.8122 45.6739C24.6393 46.5977 24.8122 47.6351 25.3038 47.4514L29.0858 46.0845C29.1941 46.0474 29.2631 45.9411 29.2528 45.8271C29.2426 45.7131 29.1557 45.6208 29.0426 45.6036C27.6394 45.3757 26.2069 45.3995 24.8122 45.6739Z" fill="#EBAF6E"/>
<path d="M16.4918 39.0339C15.7976 38.9434 15.1577 39.4228 15.0493 40.1145C14.9773 40.4476 15.056 40.7955 15.2643 41.0653C15.4726 41.3351 15.7893 41.4992 16.1299 41.5138L21.2949 42.1405C20.9716 41.2609 21.2353 40.2729 21.9541 39.6714L16.4918 39.0339Z" fill="#292928"/>
<path d="M15.3681 30.9671L12.8666 31.5722C12.3581 31.7083 11.9367 32.064 11.7173 32.5426C11.4978 33.0211 11.5033 33.5726 11.732 34.0467L15.0115 40.8218L18.0425 40.3302C18.7125 40.0654 19.6634 39.563 19.4094 38.893L17.2861 31.6533C17.124 31.2427 16.573 30.724 15.3681 30.9671Z" fill="#3C3C3B"/>
<path d="M29.7718 46.6358C29.6049 46.839 29.3461 46.9434 29.0849 46.9128C28.8237 46.8822 28.596 46.7208 28.4805 46.4845L23.9314 40.8764C23.5376 40.2855 23.6973 39.4874 24.288 39.0934C24.8788 38.6997 25.677 38.8593 26.0709 39.45L29.8042 45.4417C30.458 46.3494 29.7718 46.6358 29.7718 46.6358Z" fill="#FFBE78"/>
<path d="M24.9146 38.78H23.8988C22.8183 39.5688 23.2397 40.4764 23.6557 41.3787H24.9524C25.2934 41.3744 25.6188 41.2349 25.8569 40.9907C26.095 40.7465 26.2264 40.4177 26.222 40.0766C26.225 39.73 26.0879 39.3968 25.8417 39.1526C25.5955 38.9085 25.2612 38.7741 24.9146 38.78Z" fill="#FFBE78"/>
<path d="M16.1512 38.9581C15.8102 38.9624 15.4848 39.102 15.2467 39.3462C15.0086 39.5904 14.8772 39.9191 14.8815 40.2602C14.8858 40.6012 15.0254 40.9266 15.2696 41.1647C15.5138 41.4028 15.8426 41.5342 16.1836 41.5298L23.6503 41.3732C23.2667 40.4547 23.1965 39.574 23.8934 38.7744L16.1512 38.9581Z" fill="#3C3C3B"/>
<path d="M28.7236 45.8363C28.567 46.7872 28.7777 47.8516 29.2639 47.6571L33.0459 46.1983C33.1494 46.1527 33.2114 46.0452 33.1991 45.9327C33.1867 45.8202 33.1028 45.7287 32.9918 45.7067C31.5732 45.4871 30.1263 45.5311 28.7236 45.8363Z" fill="#FFBE78"/>
<path d="M11.667 29.8436C11.3643 29.4599 11.1304 29.0267 10.9754 28.5631C10.4028 26.4614 11.8993 26.1103 12.6719 25.8617C13.585 25.624 14.6277 25.9752 15.0978 27.3475C15.1031 27.4411 15.1031 27.5349 15.0978 27.6284L15.6381 28.3146C15.6798 28.3681 15.696 28.4372 15.6825 28.5036C15.669 28.5701 15.6271 28.6274 15.5678 28.6604L15.3841 28.7738C15.422 28.9143 15.6219 29.5086 15.6219 29.5086C15.785 29.9026 15.6055 30.3548 15.2166 30.5298L14.7628 30.654C13.9424 30.733 13.1804 30.2219 12.9421 29.433C12.5963 29.4978 11.8885 30.1137 11.667 29.8436Z" fill="#F9C484"/>
<path d="M12.2074 30.1628C13.7093 30.0386 12.4235 28.6717 12.4235 28.6717C12.4235 28.6717 12.8935 29.0823 13.0502 29.2119C13.2771 29.1417 13.2771 29.1417 13.4824 29.0607C13.0232 27.2669 12.4343 26.5754 14.5144 26.3917C14.8763 26.208 14.7251 24.9275 12.3856 25.7163C11.3776 25.9723 10.7161 26.9367 10.8404 27.9693C10.9701 28.9958 11.3105 30.1466 12.2074 30.1628Z" fill="#3C3C3B"/>
<path d="M12.2288 28.8816C12.3253 29.1939 12.6092 29.4106 12.9359 29.4213C13.1464 29.3566 13.0439 29.0975 12.9359 28.7736C12.8711 28.5577 12.8334 28.2339 12.5743 28.2339C12.3152 28.2339 12.0831 28.4066 12.2288 28.8816Z" fill="#F9C484"/>
<path d="M24.6715 35.7163C24.6715 35.9918 24.8822 35.8892 23.4991 36.1647L18.7392 36.8563C18.4675 36.862 18.2046 36.7592 18.0089 36.5706C17.8132 36.382 17.7007 36.1231 17.6965 35.8513C17.6907 35.5796 17.7935 35.3167 17.9821 35.121C18.1708 34.9253 18.4296 34.8128 18.7014 34.8086L23.7098 35.0139C24.2771 35.0247 24.6607 35.176 24.6715 35.7163Z" fill="#FFBE78"/>
<path d="M19.3012 34.8309L17.2265 31.5352L16.5512 34.4581L17.8424 36.3815C18.1165 35.6996 18.6373 35.146 19.3012 34.8309Z" fill="#3C3C3B"/>
<path d="M26.3574 35.7162L25.9684 36.3267C25.9031 36.4297 25.7769 36.4762 25.6604 36.4402L25.4443 36.3699L25.1255 36.5914L23.9423 36.1214L23.7154 35.0408L25.4713 34.7329C25.6513 34.703 25.8341 34.766 25.9576 34.9004L26.3303 35.3056C26.4304 35.4209 26.4415 35.5887 26.3574 35.7162Z" fill="#FFBE78"/>
<path d="M31.7979 33.7069C31.7979 33.7069 30.2149 35.3277 25.455 35.4358C25.1363 35.4358 25.1525 35.976 25.455 35.9166C26.8875 35.9189 28.3133 35.7207 29.6908 35.3277C31.4413 34.7874 32.2031 34.0472 32.1707 34.0148C32.2044 33.9132 32.1722 33.8014 32.0897 33.7332C32.0072 33.6651 31.8913 33.6546 31.7979 33.7069Z" fill="#9D9D9C"/>
<path d="M5 45.9817C5.02365 45.8173 5.1039 45.6664 5.22692 45.5549C5.35484 45.3955 5.49978 45.2506 5.65914 45.1226C5.96053 44.8633 6.29258 44.642 6.64785 44.4635C7.5348 44.0302 8.52202 43.8436 9.50594 43.9232C11.7265 44.0691 13.6337 45.3441 15.4112 46.5652C17.1887 47.7862 18.9987 49.0181 21.1598 49.1261C21.5937 49.1478 22.0286 49.1206 22.4565 49.0451C22.6564 49.0072 22.8563 48.9586 23.0562 48.9154C23.1625 48.8662 23.282 48.8529 23.3965 48.8776C23.5154 48.9856 22.7914 49.3746 22.7428 49.4179C22.3997 49.5786 22.0361 49.6914 21.6622 49.7528C19.5011 50.1202 17.4805 49.1369 15.7192 48.0239C13.866 46.8515 12.1155 45.4036 9.92195 44.9227C8.97859 44.7115 7.99605 44.7543 7.07468 45.047C6.70048 45.1715 6.33872 45.3307 5.99412 45.5224C5.82663 45.6143 5.65914 45.7061 5.50246 45.8034C5.36009 45.9182 5.18288 45.981 5 45.9817Z" fill="#32B1F0"/>
<path d="M9.92743 41.7031C10.0518 41.578 10.2211 41.508 10.3975 41.5086C10.5956 41.4752 10.7963 41.4589 10.9972 41.46C11.4766 41.4682 11.9527 41.5409 12.4127 41.6761C13.3904 41.9702 14.3059 42.4408 15.1141 43.0646C16.8268 44.3559 18.1829 46.0578 19.9064 47.3275C20.7078 47.9291 21.6071 48.3878 22.5646 48.6836C22.9204 48.7817 23.281 48.861 23.6451 48.9213C23.683 48.9213 24.0936 48.9861 23.9909 49.0942C23.8211 49.2068 23.622 49.2669 23.4182 49.2671C23.2259 49.2836 23.0325 49.2836 22.8401 49.2671C22.3594 49.2467 21.8835 49.1632 21.4246 49.0185C20.4444 48.7073 19.529 48.2203 18.7232 47.5814C17.0699 46.2901 15.7192 44.6423 14.0282 43.3942C13.2416 42.7961 12.3592 42.3357 11.4186 42.0327C11.0723 41.9319 10.7205 41.8507 10.3651 41.7896C10.2096 41.7956 10.0575 41.7436 9.93823 41.6437L9.92743 41.7031Z" fill="#52C6FF"/>
<path d="M5.49141 43.8532C5.53753 43.6878 5.64094 43.5442 5.78316 43.448C5.93281 43.3178 6.09171 43.1986 6.25861 43.0914C6.60753 42.8805 6.98387 42.7187 7.37699 42.6106C8.33057 42.3539 9.32997 42.3169 10.2999 42.5025C12.461 42.8807 14.2764 44.1612 15.9782 45.447C17.6801 46.7329 19.2469 47.9809 21.219 48.6509C22.0718 48.9313 22.9632 49.0771 23.8609 49.0831C24.0213 49.0548 24.1864 49.0736 24.3364 49.1371C24.412 49.2182 23.9528 49.3803 23.9096 49.3911C23.5137 49.5027 23.1051 49.5626 22.6939 49.5694C20.6139 49.6018 18.6634 48.6023 16.994 47.4569C15.2111 46.2358 13.5632 44.7555 11.5912 43.8694C10.5523 43.3887 9.41839 43.1486 8.27385 43.1671C7.74638 43.1797 7.22301 43.2633 6.71785 43.4156C6.51406 43.4805 6.31387 43.5563 6.11813 43.6425C5.93246 43.7688 5.71567 43.8417 5.49141 43.8532Z" fill="#ADF0FF"/>
<path d="M51.2154 48.2137V52.7953C50.3298 52.8136 49.4507 52.6404 48.6383 52.2874C47.3105 51.7437 45.8222 51.7437 44.4944 52.2874C42.8449 52.965 40.9949 52.965 39.3455 52.2874C38.0177 51.7437 36.5293 51.7437 35.2015 52.2874C33.5521 52.965 31.7021 52.965 30.0527 52.2874C28.7267 51.744 27.2401 51.744 25.9141 52.2874C24.2647 52.965 22.4147 52.965 20.7652 52.2874C19.4392 51.744 17.9527 51.744 16.6267 52.2874C14.9773 52.965 13.1272 52.965 11.4778 52.2874C10.8268 52.0002 10.1199 51.8618 9.40855 51.8822V47.2952C10.2918 47.2773 11.1687 47.4486 11.9803 47.7977C13.3067 48.3485 14.7978 48.3485 16.1242 47.7977C17.7731 47.1268 19.6188 47.1268 21.2677 47.7977C22.5941 48.3485 24.0852 48.3485 25.4117 47.7977C27.0605 47.1268 28.9063 47.1268 30.5551 47.7977C31.8815 48.3485 33.3727 48.3485 34.6991 47.7977C36.3497 47.1265 38.1973 47.1265 39.8479 47.7977C41.1743 48.3485 42.6655 48.3485 43.9919 47.7977C45.6426 47.1265 47.4901 47.1265 49.1408 47.7977C49.7927 48.089 50.5015 48.2312 51.2154 48.2137Z" fill="#ADF0FF"/>
<path d="M51.2154 48.2137V49.586C50.3298 49.6043 49.4507 49.4311 48.6383 49.0781C47.3105 48.5344 45.8222 48.5344 44.4944 49.0781C42.8449 49.7557 40.9949 49.7557 39.3455 49.0781C38.0177 48.5344 36.5293 48.5344 35.2015 49.0781C33.5521 49.7557 31.7021 49.7557 30.0527 49.0781C28.7267 48.5347 27.2401 48.5347 25.9141 49.0781C24.2647 49.7557 22.4147 49.7557 20.7652 49.0781C19.4392 48.5347 17.9527 48.5347 16.6267 49.0781C14.9773 49.7557 13.1272 49.7557 11.4778 49.0781C10.8268 48.7909 10.1199 48.6525 9.40855 48.6729V47.3006C10.2918 47.2827 11.1687 47.454 11.9803 47.803C13.3067 48.3538 14.7978 48.3538 16.1242 47.803C17.773 47.1316 19.619 47.1316 21.2677 47.803C22.5941 48.3538 24.0852 48.3538 25.4117 47.803C27.0604 47.1316 28.9064 47.1316 30.5551 47.803C31.8815 48.3538 33.3727 48.3538 34.6991 47.803C36.3497 47.1318 38.1973 47.1318 39.8479 47.803C41.1743 48.3538 42.6655 48.3538 43.9919 47.803C45.6426 47.1318 47.4901 47.1318 49.1408 47.803C49.7932 48.0924 50.502 48.2326 51.2154 48.2137Z" fill="#52C6FF"/>
<path d="M51.2154 51.4225V52.7948C50.3298 52.8131 49.4507 52.6399 48.6383 52.2869C47.3105 51.7432 45.8222 51.7432 44.4944 52.2869C42.8449 52.9645 40.9949 52.9645 39.3455 52.2869C38.0177 51.7432 36.5293 51.7432 35.2015 52.2869C33.5521 52.9645 31.7021 52.9645 30.0527 52.2869C28.7267 51.7435 27.2401 51.7435 25.9141 52.2869C24.2647 52.9645 22.4147 52.9645 20.7652 52.2869C19.4392 51.7435 17.9527 51.7435 16.6267 52.2869C14.9773 52.9645 13.1272 52.9645 11.4778 52.2869C10.8268 51.9997 10.1199 51.8613 9.40855 51.8817V50.5094C10.292 50.4891 11.1694 50.6606 11.9803 51.0119C13.3067 51.5627 14.7978 51.5627 16.1242 51.0119C17.773 50.3404 19.619 50.3404 21.2677 51.0119C22.5941 51.5627 24.0852 51.5627 25.4117 51.0119C27.0604 50.3404 28.9064 50.3404 30.5551 51.0119C31.8815 51.5627 33.3727 51.5627 34.6991 51.0119C36.3497 50.3407 38.1973 50.3407 39.8479 51.0119C41.1743 51.5627 42.6655 51.5627 43.9919 51.0119C45.6426 50.3407 47.4901 50.3407 49.1408 51.0119C49.7932 51.3012 50.502 51.4415 51.2154 51.4225Z" fill="#52C6FF"/>
<path d="M51.2154 51.4171V55.9933C50.3298 56.0116 49.4507 55.8384 48.6383 55.4854C47.3105 54.9417 45.8222 54.9417 44.4944 55.4854C42.8449 56.163 40.9949 56.163 39.3455 55.4854C38.0177 54.9417 36.5293 54.9417 35.2015 55.4854C33.5521 56.163 31.7021 56.163 30.0527 55.4854C28.7267 54.942 27.2401 54.942 25.9141 55.4854C24.2647 56.163 22.4147 56.163 20.7652 55.4854C19.4392 54.942 17.9527 54.942 16.6267 55.4854C14.9773 56.163 13.1272 56.163 11.4778 55.4854C10.8268 55.1982 10.1199 55.0598 9.40855 55.0802V50.5041C10.292 50.4838 11.1694 50.6552 11.9803 51.0065C13.3067 51.5573 14.7978 51.5573 16.1242 51.0065C17.773 50.335 19.619 50.335 21.2677 51.0065C22.5941 51.5573 24.0852 51.5573 25.4117 51.0065C27.0604 50.335 28.9064 50.335 30.5551 51.0065C31.8815 51.5573 33.3727 51.5573 34.6991 51.0065C36.3497 50.3353 38.1973 50.3353 39.8479 51.0065C41.1743 51.5573 42.6655 51.5573 43.9919 51.0065C45.6426 50.3353 47.4901 50.3353 49.1408 51.0065C49.7932 51.2958 50.502 51.4361 51.2154 51.4171Z" fill="#ADF0FF"/>
<path d="M51.2154 51.4171V52.7894C50.3298 52.8078 49.4507 52.6345 48.6383 52.2816C47.3105 51.7378 45.8222 51.7378 44.4944 52.2816C42.8449 52.9591 40.9949 52.9591 39.3455 52.2816C38.0177 51.7378 36.5293 51.7378 35.2015 52.2816C33.5521 52.9591 31.7021 52.9591 30.0527 52.2816C28.7267 51.7382 27.2401 51.7382 25.9141 52.2816C24.2647 52.9591 22.4147 52.9591 20.7652 52.2816C19.4392 51.7382 17.9527 51.7382 16.6267 52.2816C14.9773 52.9591 13.1272 52.9591 11.4778 52.2816C10.8268 51.9944 10.1199 51.856 9.40855 51.8764V50.5041C10.292 50.4838 11.1694 50.6552 11.9803 51.0065C13.3067 51.5573 14.7978 51.5573 16.1242 51.0065C17.773 50.335 19.619 50.335 21.2677 51.0065C22.5941 51.5573 24.0852 51.5573 25.4117 51.0065C27.0604 50.335 28.9064 50.335 30.5551 51.0065C31.8815 51.5573 33.3727 51.5573 34.6991 51.0065C36.3497 50.3353 38.1973 50.3353 39.8479 51.0065C41.1743 51.5573 42.6655 51.5573 43.9919 51.0065C45.6426 50.3353 47.4901 50.3353 49.1408 51.0065C49.7932 51.2958 50.502 51.4361 51.2154 51.4171Z" fill="#52C6FF"/>
<path d="M51.2154 54.6261V55.9984C50.3298 56.0168 49.4507 55.8435 48.6383 55.4906C47.3105 54.9468 45.8222 54.9468 44.4944 55.4906C42.8449 56.1681 40.9949 56.1681 39.3455 55.4906C38.0177 54.9468 36.5293 54.9468 35.2015 55.4906C33.5521 56.1681 31.7021 56.1681 30.0527 55.4906C28.7267 54.9471 27.2401 54.9471 25.9141 55.4906C24.2647 56.1681 22.4147 56.1681 20.7652 55.4906C19.4392 54.9471 17.9527 54.9471 16.6267 55.4906C14.9773 56.1681 13.1272 56.1681 11.4778 55.4906C10.8268 55.2034 10.1199 55.0649 9.40855 55.0854V53.7076C10.292 53.6875 11.1694 53.8589 11.9803 54.2101C13.3067 54.7609 14.7978 54.7609 16.1242 54.2101C17.773 53.5386 19.619 53.5386 21.2677 54.2101C22.5941 54.7609 24.0852 54.7609 25.4117 54.2101C27.0604 53.5386 28.9064 53.5386 30.5551 54.2101C31.8815 54.7609 33.3727 54.7609 34.6991 54.2101C36.3497 53.5389 38.1973 53.5389 39.8479 54.2101C41.1743 54.7609 42.6655 54.7609 43.9919 54.2101C45.6426 53.5389 47.4901 53.5389 49.1408 54.2101C49.7927 54.5014 50.5015 54.6436 51.2154 54.6261Z" fill="#52C6FF"/>
</svg>
