<svg width="56" height="56" viewBox="0 0 56 56" fill="none" xmlns="http://www.w3.org/2000/svg">
<path d="M39.9749 53.2459C36.5202 52.994 36.308 50.6997 36.308 50.6997C35.3995 47.3842 35.8306 42.0264 36.003 40.8659C36.2085 39.4138 34.7563 29.7657 34.7563 27.0669C34.7563 27.0669 30.6054 27.0669 30.3932 29.7657C30.181 32.4645 30.8772 36.7813 32.3294 42.1855C32.031 46.0447 33.4699 50.4676 34.3519 52.4171C34.3681 53.3512 34.459 54.2825 34.6237 55.2021C34.8028 55.9381 39.0134 55.0761 40.2667 54.8971C41.5199 54.718 42.309 53.4316 39.9749 53.2459Z" fill="#D3A197"/>
<path d="M34.9089 26.1782C35.015 26.7485 35.5189 33.3065 35.5189 33.3065L29.9423 33.9696L29.9754 28.95L34.9089 26.1782Z" fill="black"/>
<path d="M34.4248 53.6437C33.975 54.3608 34.0282 55.284 34.5574 55.9447C35.4062 56.2961 41.6923 54.8572 41.6923 54.8572C41.8651 54.809 42.0061 54.6841 42.0747 54.5184C42.1433 54.3527 42.1319 54.1646 42.0438 54.0084C41.8449 53.5509 40.4391 53.6835 39.1527 53.0337C38.4896 53.9289 37.9923 52.9011 37.4552 53.3785C36.1356 54.5588 34.4248 53.6437 34.4248 53.6437Z" fill="#2C4D75"/>
<path d="M32.8863 30.4617C31.3678 32.9151 27.4555 37.0064 26.3946 37.6032C25.3336 38.2 15.9773 38.4453 15.3872 38.9294C14.2449 39.8346 13.1984 40.8544 12.264 41.973C11.6009 42.7886 12.264 42.046 12.3568 39.7583C12.4497 37.4706 11.6937 35.7266 13.1128 35.9654C14.5318 36.2041 14.5583 36.8075 15.6524 36.5091C18.6629 35.6802 22.4691 34.3474 23.9279 34.3872C24.9955 33.1671 27.8269 28.1872 28.6823 27.1661C29.5377 26.1449 32.8863 30.4617 32.8863 30.4617Z" fill="#E5C3B7"/>
<path d="M13.7098 41.4958C14.1948 41.4233 14.6522 41.2243 15.036 40.9189C15.2747 40.5077 15.1222 40.2093 14.6845 40.1895C14.139 40.2953 13.6133 40.4854 13.1262 40.7531L13.7098 41.4958Z" fill="#2C4D75"/>
<path d="M14.7373 36.7149C14.1942 36.0666 13.3005 35.8325 12.5093 36.1314C11.9125 36.8277 11.3356 43.2531 11.3356 43.2531C11.3282 43.4318 11.4031 43.604 11.5389 43.7205C11.6747 43.8369 11.8564 43.8846 12.0319 43.8498C12.5292 43.8034 12.8408 42.4242 13.8554 41.403C13.1923 40.5145 14.3394 40.3421 14.0543 39.679C13.3448 38.0478 14.7373 36.7149 14.7373 36.7149Z" fill="#2C4D75"/>
<path d="M12.5493 38.021C12.7051 37.3699 12.7742 36.701 12.7548 36.0317C12.5692 36.0317 12.0917 35.8991 12.0453 36.0848C11.9989 36.2704 10.8783 41.3033 11.0109 43.1269C11.1026 43.487 11.3949 43.7612 11.7602 43.8297C11.5443 43.7423 11.4196 43.5151 11.4618 43.286C11.4286 40.4015 12.2642 39.4268 12.5493 38.021Z" fill="#232121"/>
<path d="M13.0863 42.5103C13.0656 42.5088 13.0465 42.4985 13.0339 42.482C13.0212 42.4656 13.0162 42.4445 13.02 42.4241L13.1261 41.2902C13.1278 41.259 13.1491 41.2324 13.1791 41.2239C13.2033 41.2082 13.2345 41.2082 13.2587 41.2239L13.451 41.4958L13.4842 40.5741C13.484 40.5362 13.5128 40.5046 13.5505 40.5011C13.5865 40.495 13.622 40.5141 13.6367 40.5476L13.9284 41.3565C13.942 41.3968 13.9216 41.4405 13.882 41.456C13.8628 41.4645 13.8408 41.4642 13.8218 41.4553C13.8027 41.4465 13.7884 41.4298 13.7826 41.4096L13.6234 40.9653V41.7212C13.6218 41.7524 13.6004 41.7791 13.5704 41.7875C13.5462 41.8033 13.515 41.8033 13.4908 41.7875L13.2587 41.4958L13.1725 42.4307C13.1691 42.4684 13.1374 42.4972 13.0996 42.4971L13.0863 42.5103Z" fill="white"/>
<path d="M35.068 25.9332C34.4722 28.64 33.1441 31.1311 31.2287 33.1344C30.5656 33.9367 25.9239 31.1451 26.388 30.2433C27.9198 27.2328 27.0511 26.0127 27.7142 24.6998C28.6956 22.6707 29.8163 22.4917 29.8163 22.4917L35.1807 24.1295L35.068 25.9332Z" fill="#232121"/>
<path d="M27.7075 24.6995C27.0444 26.0257 27.9197 27.2326 26.3813 30.243C26.1426 30.7072 27.177 31.6289 28.3706 32.3384C29.3892 29.7214 30.6224 27.193 32.0574 24.7791C32.568 23.9436 31.6396 23.2275 30.3731 22.6705L29.8095 22.498C29.8095 22.498 28.6889 22.6705 27.7075 24.6995Z" fill="black"/>
<path d="M32.1568 10.2505C30.2869 10.6682 25.6187 14.3749 25.4463 15.6879C25.2739 17.0008 28.1451 19.8256 30.6914 22.0072C32.2032 23.3334 32.0971 21.5762 32.0971 21.5762C32.0971 21.5762 27.9594 16.5366 27.9925 16.404C28.1848 15.6149 32.0374 13.9373 32.5082 13.4466C32.979 12.9559 32.1568 10.2505 32.1568 10.2505Z" fill="#D3A197"/>
<path d="M36.6593 7.01467C35.4989 8.07562 35.1475 9.25593 35.2735 9.93229C35.5785 11.6166 36.4273 13.0356 36.2018 13.1085C35.9764 13.1815 34.1661 11.4508 33.4831 11.1192C32.2895 10.549 32.1171 10.3235 31.328 10.1511C32.6542 8.8846 33.8544 6.51072 33.4035 4.64741C32.9526 2.78411 36.6593 7.01467 36.6593 7.01467Z" fill="#E5C3B7"/>
<g style="mix-blend-mode:multiply">
<path d="M33.5429 4.61437C33.2843 3.54679 35.9765 5.53608 36.9711 7.26676L32.913 11.2453C32.3294 10.2573 31.421 10.5822 31.6398 9.87273C32.8864 8.23488 33.9938 6.47768 33.5429 4.61437Z" fill="url(#paint0_linear)"/>
</g>
<path d="M33.8013 10.6881C34.6775 11.3079 35.277 12.2454 35.4723 13.3007C35.8967 14.0765 36.6128 14.8855 36.7985 16.1587C36.9842 17.4318 35.5718 21.2512 34.5837 23.7909C33.5957 26.3306 34.1328 26.4433 33.7085 26.4433C33.2841 26.4433 27.6942 24.454 27.8666 24.1689C28.3175 23.5058 29.9421 21.0125 30.015 19.6664C30.0879 18.3203 29.3519 14.4744 30.2206 12.1867C30.8107 10.6284 31.6462 9.63378 31.7589 9.69346C32.6011 10.1046 32.8663 10.1377 33.8013 10.6881Z" fill="#3357BC"/>
<path d="M36.0691 21.4372C36.9311 17.5249 37.7136 17.5382 37.5014 16.2651C37.1267 14.7492 36.57 13.2842 35.8437 11.9019C35.1242 11.4111 34.3733 10.9681 33.5958 10.5757C33.0872 11.6088 32.8089 12.74 32.7802 13.8912C32.6674 15.4295 33.9804 18.0355 33.3305 20.6083C32.8689 22.3543 32.222 24.046 31.4009 25.6545C33.483 26.4635 35.1872 27.2658 35.3066 26.9807C35.4517 25.1195 35.7063 23.2685 36.0691 21.4372Z" fill="#4D87DB"/>
<path d="M35.8506 0.0588388C33.8613 -0.0207328 32.2235 1.04022 32.124 3.53346C32.0245 6.02671 33.6624 8.54647 35.6384 8.62605C36.8308 8.64806 37.8949 7.88106 38.251 6.74285C38.4529 6.76031 38.639 6.63255 38.6953 6.43783C38.6223 6.25216 38.5693 6.08639 38.5229 5.93387C38.6615 5.38241 38.7415 4.81786 38.7616 4.24961C38.8544 1.74974 37.8266 0.13841 35.8506 0.0588388Z" fill="#E5C3B7"/>
<path d="M35.5917 8.62633C35.8006 8.63631 36.0099 8.62072 36.215 8.57991C34.2655 7.79746 35.1143 2.85076 35.5519 1.94895C35.2469 1.82959 36.1487 0.0657531 35.7774 0.0524912C33.7881 -0.0270804 32.1502 1.03387 32.0508 3.52712C31.9513 6.02036 33.6157 8.54676 35.5917 8.62633Z" fill="#D3A197"/>
<path d="M38.5689 2.00841C38.6551 1.41825 37.7003 -0.19307 34.8689 0.0191208C34.0092 0.00928885 33.1727 0.297493 32.5016 0.834729C31.7392 1.38718 31.1577 2.1533 30.8306 3.03621C29.2591 5.27748 26.9117 7.5519 25.6253 6.45116C25.7566 6.73326 25.9751 6.96572 26.2486 7.11425C25.781 7.03028 25.3414 6.83211 24.9688 6.53736C25.0137 7.21402 25.419 7.81429 26.0298 8.1089C25.5984 7.96788 25.1995 7.74248 24.8561 7.4458C24.5113 7.13415 25.2009 8.30783 25.9502 8.59959C25.5283 8.50015 25.1397 8.29213 24.8229 7.99617C24.6638 7.79724 24.7566 9.27595 26.9382 9.32237C27.4637 9.32015 27.9814 9.19526 28.4501 8.95766C27.8666 9.31573 27.4289 9.49477 25.6717 9.32237C28.4169 10.5159 32.9658 9.07702 34.4179 6.15276C34.5764 6.01983 34.6278 5.7981 34.5439 5.60902C34.292 5.29074 33.8808 4.09716 34.4445 4.04412C34.6509 4.04421 34.854 4.09668 35.0346 4.19663L36.0094 3.31471C37.0658 3.51133 38.1331 3.64419 39.2055 3.71257C39.3914 3.40971 39.4275 3.03806 39.3031 2.70514C39.1787 2.37223 38.9079 2.11519 38.5689 2.00841Z" fill="#300901"/>
<path d="M26.9781 9.30239C27.4543 9.32099 27.9272 9.2159 28.3507 8.99736C27.7407 9.26923 27.4688 9.47479 25.6983 9.30239C28.4435 10.496 32.9924 9.05704 34.4446 6.13279C34.6007 5.99816 34.6493 5.77669 34.5639 5.58905C34.3119 5.27076 33.9008 4.08382 34.4711 4.02414C34.6711 4.04075 34.8545 4.14211 34.975 4.30264L36.0294 3.29473C37.0859 3.49075 38.1532 3.62361 39.2255 3.69259C39.3951 3.38917 39.4189 3.02544 39.2903 2.70251C39.1616 2.37957 38.8942 2.13186 38.5624 2.02822C38.6353 1.5309 37.8993 0.522991 37.1434 0.350586C35.605 0.814753 34.6369 2.61838 33.6886 4.32916C31.2285 8.86475 26.8985 9.51458 24.9755 8.46026C25.4693 9.04604 26.2141 9.35927 26.9781 9.30239Z" fill="#5E1C17"/>
<path d="M45.3593 17.2663C45.5518 17.2599 45.7273 17.1546 45.8235 16.9878C45.7023 16.9097 45.5494 16.8997 45.419 16.9613C45.4933 16.9492 45.5651 16.9245 45.6312 16.8883C45.8367 16.769 45.8036 16.6363 45.7107 16.5767C45.5003 16.5653 45.2895 16.59 45.0874 16.6496L45.4986 16.4905C45.7373 16.391 45.5649 16.2716 45.5649 16.2716C45.3079 16.1916 45.0327 16.1916 44.7758 16.2716C44.4575 16.3114 44.1127 16.4374 44.358 16.2716C44.6034 16.1059 44.8554 15.6947 44.5636 15.8738C44.1619 15.9661 43.7755 16.1157 43.4164 16.3181C43.191 16.5634 42.8064 16.7822 42.4152 17.1337L41.9709 17.2994C40.2772 17.5447 38.5589 17.5715 36.8584 17.379C36.381 17.1933 35.2471 13.8646 34.836 12.6578C34.4248 11.4509 33.5098 10.748 32.3626 11.2454C32.3626 11.2454 30.8706 12.0146 31.6995 14.5012C32.3096 16.3048 34.2127 19.355 35.6781 19.9783C36.8717 20.4889 40.7773 19.3882 42.5478 18.6522L42.9987 18.5461C43.7819 18.4061 44.5425 18.1607 45.2598 17.8167C45.4999 17.724 45.6916 17.5371 45.7903 17.2994C45.7771 17.1867 45.6909 17.2132 45.3593 17.2663Z" fill="#E5C3B7"/>
<defs>
<linearGradient id="paint0_linear" x1="34.2748" y1="11.5013" x2="37.0942" y2="8.47708" gradientUnits="userSpaceOnUse">
<stop stop-color="white"/>
<stop offset="0.24" stop-color="#E8E4E3"/>
<stop offset="0.71" stop-color="#B3A6A1"/>
</linearGradient>
</defs>
</svg>
