<svg width="56" height="56" viewBox="0 0 56 56" fill="none" xmlns="http://www.w3.org/2000/svg">
<path d="M25.3862 40.584L24.9964 40.751C21.0568 42.2479 16.7864 42.6546 12.6351 41.9283C14.4726 45.651 11.8953 49.159 12.1578 52.2692C12.1561 52.2877 12.1561 52.3063 12.1578 52.3249H8.3317V52.1737L5.43626 37.7681C5.25192 36.9279 5.44025 36.0491 5.95267 35.3582C6.4651 34.6674 7.25146 34.2321 8.10897 34.1647H8.42716L16.2146 33.5442L17.4078 33.4488H17.8771L23.0714 33.0352H23.5646L23.5805 33.1147L24.5112 36.9886L24.6782 37.6885L24.9805 38.9454L25.1714 39.6931L25.3862 40.584Z" fill="#FFD9AB"/>
<path d="M49.9895 37.7678L47.1179 52.1655V52.3167H43.2918C43.2935 52.2981 43.2935 52.2795 43.2918 52.261C43.5622 49.1826 40.977 45.6746 42.8145 41.9201C38.6632 42.6464 34.3928 42.2397 30.4532 40.7428L30.0634 40.5758L30.2782 39.6849L30.4532 38.9451L30.7395 37.6883L30.9066 36.9883L31.8373 33.1145L31.877 32.9395H32.3702L37.5645 33.3531H38.0338L39.227 33.4485L47.0145 34.069H47.3327C48.2085 34.1359 49.0099 34.5864 49.5224 35.2998C50.0348 36.0132 50.2057 36.9165 49.9895 37.7678Z" fill="#FFD9AB"/>
<path d="M11.4659 55.729C7.48868 55.4586 6.78868 55.8484 2.38188 55.9756C2.27599 55.979 2.17404 55.9353 2.10347 55.8563C2.04094 55.7921 2.00414 55.7072 2.00006 55.6177C1.99682 55.4056 2.12744 55.2145 2.32619 55.1404L6.86027 53.4779C7.49642 53.2474 8.01642 52.776 8.30799 52.1654C8.37837 52.0229 8.43433 51.8736 8.47504 51.72L8.76935 50.5745L11.2432 50.5029H11.8557L11.9114 51.0597C11.947 51.4768 12.0324 51.8881 12.1659 52.2847C12.2904 52.6688 12.4786 53.0291 12.7227 53.3506C12.8843 53.5635 13.0007 53.8071 13.0648 54.0666C13.2875 54.8461 13.6137 55.8722 11.4659 55.729Z" fill="#FFD9AB"/>
<path d="M53.426 55.6101C53.4219 55.6996 53.3851 55.7845 53.3226 55.8487C53.252 55.9277 53.15 55.9714 53.0442 55.968C48.6373 55.8408 47.9612 55.459 43.9601 55.7215C41.8124 55.8646 42.1385 54.8465 42.3692 54.0192C42.4333 53.7598 42.5497 53.5162 42.7112 53.3033C42.9554 52.9818 43.1436 52.6214 43.268 52.2374C43.4016 51.8407 43.487 51.4294 43.5226 51.0124L43.5783 50.4556H44.1908L46.6487 50.5749L46.951 51.7203C46.9891 51.8737 47.0424 52.0229 47.1101 52.1658C47.4 52.7794 47.9202 53.2539 48.5578 53.4862L53.0919 55.1487C53.2883 55.2181 53.4213 55.4018 53.426 55.6101Z" fill="#FFD9AB"/>
<path d="M27.709 37.3463C26.7984 37.3467 25.89 37.2588 24.9965 37.0838L24.5271 36.9883C22.0205 36.4176 19.7179 35.1714 17.8692 33.385C17.4887 33.0193 17.1301 32.6315 16.7954 32.2236C16.5488 31.9293 16.3181 31.627 16.1033 31.3088C13.0719 26.9519 12.8697 21.2244 15.5863 16.6646C15.8249 16.2668 16.0874 15.8691 16.3817 15.5032C16.6878 15.0897 17.0171 14.694 17.3681 14.318L17.7976 13.8805C18.2343 13.4495 18.6994 13.0482 19.1897 12.6793L19.6033 12.393C20.3049 11.901 21.0505 11.475 21.8306 11.1203C22.238 10.932 22.6549 10.7648 23.0794 10.6191L23.4533 10.4998C23.7237 10.4123 24.0022 10.3328 24.2487 10.2691C26.5086 9.71303 28.8696 9.71303 31.1294 10.2691C31.4078 10.3407 31.6862 10.4203 31.9249 10.4998L32.3305 10.6112C32.7551 10.7568 33.1719 10.9241 33.5794 11.1123C34.3594 11.467 35.105 11.8931 35.8067 12.385L36.2123 12.6793C36.7026 13.0482 37.1677 13.4495 37.6044 13.8805L38.0339 14.318C38.385 14.694 38.7143 15.0897 39.0203 15.5032C39.2987 15.8771 39.5532 16.2987 39.8157 16.6646C42.5323 21.2244 42.3301 26.9519 39.2987 31.3088C39.0839 31.6191 38.8532 31.9293 38.6066 32.2236C38.2719 32.6315 37.9133 33.0193 37.5328 33.385C35.6841 35.1714 33.3815 36.4176 30.8749 36.9883L30.4055 37.0838C29.5172 37.2577 28.6142 37.3456 27.709 37.3463Z" fill="#FAD3A5"/>
<path d="M27.709 40.5836C26.797 40.527 25.9186 40.2186 25.1715 39.6927L24.9965 39.5813C22.6101 37.9904 20.0726 35.087 17.7181 34.0131C17.3081 33.8184 16.8709 33.687 16.4215 33.6234C16.3482 33.6148 16.2776 33.5904 16.2147 33.5518C16.0964 33.477 16.0154 33.3556 15.992 33.2177C15.7613 31.9131 15.8647 32.3666 15.7851 31.9131C15.7406 31.668 15.883 31.4274 16.1192 31.3484C16.1974 31.3274 16.2797 31.3274 16.3579 31.3484H16.4215C18.6748 31.7869 20.9027 32.3472 23.0953 33.0268L23.5806 33.1143C24.0817 33.2336 24.5828 33.345 25.084 33.4404C25.9049 33.5968 26.7381 33.6794 27.5737 33.687H27.8124C28.648 33.6794 29.4812 33.5968 30.3021 33.4404C30.8033 33.3529 31.3044 33.2416 31.8055 33.1143L32.3385 32.9791C34.5311 32.2994 36.759 31.7391 39.0123 31.3006H39.0601C39.1382 31.2793 39.2206 31.2793 39.2987 31.3006C39.535 31.3797 39.6773 31.6203 39.6328 31.8654C39.5532 32.3188 39.6328 31.8654 39.426 33.17C39.4025 33.3079 39.3215 33.4293 39.2032 33.5041C39.1403 33.5426 39.0697 33.5671 38.9964 33.5756C38.547 33.6392 38.1098 33.7706 37.6998 33.9654C35.3135 35.0472 32.8158 37.9904 30.4214 39.5336L30.2464 39.6449C29.5045 40.1879 28.6257 40.5129 27.709 40.5836Z" fill="#EDEDED"/>
<path d="M30.4294 33.6957V40.9502C30.3543 41.2795 30.0402 41.4969 29.7056 41.4514H25.7283C25.3937 41.4969 25.0796 41.2795 25.0044 40.9502V33.6957C25.0041 33.5982 25.0411 33.5043 25.1078 33.4332C25.2727 33.2713 25.4974 33.1849 25.7283 33.1946H29.7056C29.9365 33.1849 30.1611 33.2713 30.326 33.4332C30.3927 33.5043 30.4297 33.5982 30.4294 33.6957Z" fill="#F6F6F6"/>
<path d="M19.4125 15.9092L17.3523 16.3387H17.2727C16.708 16.4501 16.1432 16.5614 15.5864 16.6489C13.1507 17.1145 10.6764 17.3489 8.19663 17.3489C7.69549 17.3489 7.19436 17.3489 6.70913 17.2773C5.5201 17.189 4.34402 16.973 3.20119 16.633L2.85915 11.9876C6.69924 10.8197 10.6982 10.2588 14.7114 10.3251C16.1273 10.3251 17.5671 10.3251 19.0148 10.4205V10.5319L19.158 12.4728V12.6637L19.2375 13.7614L19.4125 15.9092Z" fill="#FFD9AB"/>
<path d="M36.0138 15.9091L38.074 16.3704H38.1535C38.7183 16.4818 39.2831 16.5932 39.8399 16.6807C42.2756 17.1463 44.7498 17.3806 47.2296 17.3807C47.7308 17.3807 48.2319 17.3807 48.7171 17.3091C49.9062 17.2207 51.0822 17.0047 52.2251 16.6648L52.5671 12.0193C48.727 10.8515 44.7281 10.2905 40.7149 10.3568C39.299 10.3568 37.8592 10.3568 36.4115 10.4523V10.5636L36.3081 12.4966V12.6875L36.2285 13.7852L36.0138 15.9091Z" fill="#FFD9AB"/>
<path d="M18.2023 12.6437C20.3739 12.417 22.056 11.4823 21.9593 10.556C21.8625 9.62964 20.0237 9.0625 17.8521 9.28921C15.6805 9.51592 13.9985 10.4506 14.0952 11.3769C14.1919 12.3033 16.0307 12.8704 18.2023 12.6437Z" fill="#FFD9AB"/>
<path d="M41.3201 11.3713C41.4168 10.445 39.7348 9.51026 37.5632 9.28355C35.3916 9.05684 33.5528 9.62398 33.456 10.5503C33.3593 11.4766 35.0414 12.4113 37.213 12.638C39.3846 12.8647 41.2234 12.2976 41.3201 11.3713Z" fill="#FFD9AB"/>
<path d="M8.23643 16.1795C8.23643 16.5773 8.23643 16.975 8.1887 17.3648C8.00279 20.2002 7.33849 22.9838 6.22394 25.5977L6.12053 25.8443L4.85576 25.6693L3.44781 25.4784V25.2954C2.51612 20.9282 2.31186 16.4372 2.84327 12.0034L8.02961 12.5364C8.18543 13.7443 8.25454 14.9618 8.23643 16.1795Z" fill="#FFD9AB"/>
<path d="M47.1898 16.1795C47.1898 16.5773 47.1898 16.975 47.2375 17.3648C47.4234 20.2002 48.0877 22.9838 49.2023 25.5977L49.3057 25.8443L50.5705 25.6693L51.9784 25.4784V25.2954C52.9101 20.9282 53.1144 16.4372 52.583 12.0034L47.3966 12.5364C47.2408 13.7443 47.1717 14.9618 47.1898 16.1795Z" fill="#FFD9AB"/>
<path d="M4.32275 33.2739L2.94662 31.683V31.6353V31.5876V31.5398V31.4842L2.81935 30.9592L2.17503 28.6523C2.17503 28.6523 2.17503 28.716 2.17503 28.7478L2.11935 30.8637C2.11814 30.8849 2.11814 30.9061 2.11935 30.9273V30.9751V31.0228V31.0785L3.04208 32.9876C3.45923 33.2206 3.93282 33.3335 4.41025 33.3137L4.32275 33.2739Z" fill="#FAD3A5"/>
<path d="M51.1033 33.2739L52.4794 31.683V31.6353V31.5876V31.5398V31.4842L52.6067 30.9592L53.251 28.6523C53.251 28.6523 53.251 28.716 53.251 28.7478L53.3067 30.8637C53.308 30.8849 53.308 30.9061 53.3067 30.9273V30.9751V31.0228V31.0785L52.384 32.9876C51.9668 33.2206 51.4932 33.3335 51.0158 33.3137L51.1033 33.2739Z" fill="#FAD3A5"/>
<path d="M7.83858 31.1019C7.4988 31.1948 7.14665 31.0011 7.04313 30.6644L6.44654 28.6837L5.61132 28.0951H4.47382L3.67837 29.5189L3.92496 31.0462L5.19768 32.5416C5.302 32.6516 5.35537 32.8004 5.34478 32.9516C5.3342 33.1028 5.26063 33.2427 5.142 33.3371C4.9401 33.5165 4.63595 33.5165 4.43405 33.3371L3.05792 31.7462V31.6985V31.6507V31.603V31.5473L2.93065 31.0303L2.28633 28.7235V28.6757V28.5882L2.33406 28.4689L3.62269 25.3985L4.06019 24.3564L5.97723 24.5474L6.4545 24.5951V25.8519L7.72722 27.8564C7.73016 27.8882 7.73016 27.9201 7.72722 27.9519L8.43517 30.3382C8.46717 30.5202 8.42051 30.7072 8.30677 30.8528C8.19303 30.9984 8.02288 31.0889 7.83858 31.1019Z" fill="#FFD9AB"/>
<path d="M47.5792 31.1019C47.919 31.1948 48.2711 31.0011 48.3747 30.6644L49.0349 28.6837L49.8701 28.0951H51.0076L51.8031 29.5189L51.5565 31.0462L50.2837 32.5416C50.1794 32.6516 50.1261 32.8004 50.1366 32.9516C50.1472 33.1028 50.2208 33.2427 50.3394 33.3371C50.5413 33.5165 50.8455 33.5165 51.0474 33.3371L52.4235 31.7462V31.6985V31.6507V31.603V31.5473L52.5508 31.0303L53.1951 28.7235V28.6757V28.5882L53.1474 28.4689L51.8587 25.3985L51.4212 24.3564L49.5042 24.5474L49.0269 24.5951V25.8519L47.7542 27.8564C47.7512 27.8882 47.7512 27.9201 47.7542 27.9519L47.0463 30.3382C47.0139 30.5104 47.0522 30.6883 47.1524 30.8319C47.2527 30.9756 47.4065 31.0728 47.5792 31.1019Z" fill="#FFD9AB"/>
<path opacity="0.07" d="M27.709 20.6423C23.5647 19.5287 19.9852 18.415 17.5511 16.5775L17.3443 16.4184L17.2647 16.3628C17.0772 16.0722 16.9148 15.7662 16.7795 15.448C16.5182 15.0769 16.3069 14.6731 16.1511 14.2469C16.0159 14.4457 13.1443 16.7287 8.19657 16.1878C7.6148 16.1088 7.03836 15.9946 6.47044 15.8457C6.56436 16.3265 6.62812 16.8127 6.66135 17.3014C6.84145 19.7268 6.52199 22.1634 5.72272 24.4605C5.57014 24.963 5.25013 25.3981 4.8159 25.6934C4.72462 25.7388 4.62346 25.7607 4.52158 25.7571C5.80226 25.8684 6.44658 26.465 7.41703 27.698L6.18408 25.765V25.6059C7.29864 22.9921 7.96293 20.2085 8.14884 17.373C10.6286 17.373 13.1029 17.1386 15.5386 16.673C12.822 21.2329 13.0242 26.9603 16.0556 31.3173C15.8194 31.3963 15.677 31.6369 15.7215 31.882C15.8011 32.3354 15.7215 31.882 15.9284 33.1866C15.9519 33.3245 16.0328 33.4459 16.1511 33.5207L8.36362 34.1411L17.6545 33.99C17.5431 33.7991 17.4397 33.6161 17.3443 33.4252C17.1295 33.0275 16.9306 32.6298 16.7397 32.2241C16.5488 31.8184 16.4613 31.6036 16.334 31.2934C14.5681 27.0298 14.4011 22.8377 15.3238 19.9264C16.7795 25.94 22.5465 22.8934 27.6613 21.3423C32.776 22.9332 38.5351 25.948 39.9987 19.9264C40.9215 22.8377 40.7465 27.0218 38.9885 31.2934C38.8612 31.6036 38.726 31.9139 38.5828 32.2241C38.4396 32.5343 38.1931 33.0195 37.9783 33.4252C37.8749 33.6161 37.7715 33.7991 37.6681 33.99L46.9589 34.1411L39.1715 33.5207C39.2897 33.4459 39.3707 33.3245 39.3942 33.1866C39.6249 31.882 39.5215 32.3354 39.601 31.882C39.6455 31.6369 39.5032 31.3963 39.2669 31.3173C42.2983 26.9603 42.5005 21.2329 39.784 16.673C42.2197 17.1386 44.6939 17.373 47.1737 17.373C47.3596 20.2085 48.0239 22.9921 49.1385 25.6059V25.7491L47.9055 27.682C48.876 26.4491 49.4964 25.8525 50.801 25.7411C50.6991 25.7448 50.5979 25.7229 50.5067 25.6775C50.0724 25.3822 49.7524 24.9471 49.5998 24.4446C48.8008 22.1475 48.4813 19.7109 48.6612 17.2855C48.6944 16.7968 48.7582 16.3106 48.8521 15.8298C48.2842 15.9786 47.7078 16.0929 47.126 16.1719C42.2101 16.7128 39.3385 14.4298 39.1715 14.231C39.0155 14.6571 38.8043 15.061 38.5431 15.4321C38.4077 15.7503 38.2454 16.0563 38.0578 16.3469L37.9783 16.4025L37.7715 16.5616C35.4408 18.415 31.8533 19.5525 27.709 20.6423Z" fill="#1D1D1B"/>
<path d="M27.7089 13.6182H24.6305H24.0976C22.6446 13.6182 21.1862 13.6526 19.7226 13.7216H19.2453C18.7601 13.7216 18.2669 13.7693 17.7738 13.825L17.3442 13.8886C17.1056 13.8886 16.8669 13.9761 16.6363 14.0398L16.151 14.1829V17.0227C16.1437 17.8014 16.2428 18.5775 16.4453 19.3295C16.5886 19.9577 16.8867 20.5401 17.3124 21.0238C18.4419 22.1931 20.4942 22.2011 22.3317 21.8193C24.1692 21.4375 25.9351 20.809 27.701 20.817C29.4669 20.825 31.2487 21.4613 33.0703 21.8193C34.8919 22.1772 36.9601 22.1772 38.0896 21.0238C38.5153 20.5401 38.8133 19.9577 38.9566 19.3295C39.1592 18.5775 39.2583 17.8014 39.251 17.0227V14.2386L38.7657 14.0954C38.5271 14.0398 38.2885 13.9841 38.0498 13.9443L37.6203 13.8807C37.1271 13.817 36.6339 13.7932 36.1487 13.7773H35.6714C34.2078 13.7348 32.7495 13.7004 31.2964 13.6738H30.7635L27.7089 13.6182Z" fill="#FFD9AB"/>
<path d="M17.3523 16.5695V13.3876C17.3492 11.9744 18.2589 10.7208 19.6034 10.2854L21.6875 9.34675L25.0602 7.81949V5.13086H27.6932H30.3261V7.81153L33.6988 9.3388L35.7829 10.2774C37.1215 10.7147 38.0268 11.9635 38.0261 13.3717V16.5535H17.3443L17.3523 16.5695Z" fill="#FFD9AB"/>
<path d="M19.7956 21.209C19.8625 20.9495 19.5305 20.6395 19.0541 20.5166C18.5776 20.3938 18.1371 20.5045 18.0702 20.764C18.0033 21.0235 18.3353 21.3335 18.8117 21.4563C19.2882 21.5792 19.7287 21.4685 19.7956 21.209Z" fill="#EBC496"/>
<path d="M36.6177 21.4624C37.0941 21.3395 37.4261 21.0295 37.3592 20.77C37.2923 20.5106 36.8518 20.3998 36.3754 20.5227C35.8989 20.6455 35.5669 20.9555 35.6338 21.215C35.7008 21.4745 36.1412 21.5852 36.6177 21.4624Z" fill="#EBC496"/>
<path opacity="0.07" d="M22.785 6.97559C22.5543 11.9233 24.7418 16.354 27.6611 16.5687H27.7725C30.6839 16.346 32.8713 11.9233 32.6486 6.97559H22.785V6.97559Z" fill="#1D1D1B"/>
<path d="M27.7091 4.13635C26.0545 4.13635 24.7182 3.21363 24.7182 2.06817C24.7182 0.922724 26.0545 0 27.7091 0C29.3636 0 30.7 0.922724 30.7 2.06817C30.7 3.21363 29.3636 4.13635 27.7091 4.13635Z" fill="#1D1D1B"/>
<path d="M26.2612 2.62508C24.6709 2.53542 23.2699 3.66173 23.0158 5.23416L22.8567 7.10347C22.7678 7.08248 22.6752 7.08248 22.5862 7.10347C22.093 7.17506 21.9499 7.89892 22.0135 8.69438C22.0692 9.3546 22.1885 9.8796 22.5783 10.0228C22.6721 10.0474 22.7708 10.0474 22.8646 10.0228H22.9521C23.0395 10.8476 23.2939 11.646 23.6999 12.3694C24.0324 12.92 24.3963 13.4512 24.7896 13.9603C25.5374 14.8591 26.1817 15.0819 27.6851 15.0819H27.7408C29.2442 15.0819 29.8885 14.8591 30.6362 13.9603C31.0295 13.4512 31.3934 12.92 31.726 12.3694C32.1319 11.646 32.3863 10.8476 32.4737 10.0228H32.5612C32.6551 10.0474 32.7537 10.0474 32.8476 10.0228C33.2373 9.8796 33.3566 9.36256 33.4123 8.69438C33.476 7.89892 33.3248 7.20688 32.8396 7.10347C32.7507 7.08248 32.6581 7.08248 32.5691 7.10347L32.4101 5.23416C32.1554 3.65533 30.7449 2.52696 29.1487 2.62508H26.2533H26.2612Z" fill="#FFD9AB"/>
<path d="M27.7088 3.99339H25.1634C24.7101 3.97505 24.2775 4.18388 24.0099 4.5502C23.8231 4.82505 23.7208 5.14858 23.7156 5.48088L23.6679 6.8252L23.5804 8.51951C23.469 7.8036 23.0793 7.02406 22.7213 7.03201V6.8252L22.6736 5.37747C22.6801 5.1072 22.7257 4.83928 22.8088 4.58202C22.9822 4.03927 23.2981 3.55302 23.7236 3.17407C24.6702 2.30703 25.6008 2.01271 27.494 1.95703H27.9554C29.8486 2.00476 30.7792 2.29908 31.7258 3.17407C32.1513 3.55302 32.4672 4.03927 32.6406 4.58202C32.7237 4.83928 32.7693 5.1072 32.7758 5.37747L32.7042 6.8252V7.02406C32.3383 7.02406 31.9565 7.81951 31.8451 8.51155L31.7576 6.8252L31.702 5.46497C31.6968 5.13267 31.5945 4.80914 31.4076 4.5343C31.1401 4.16797 30.7075 3.95914 30.2542 3.97748L27.7088 3.99339Z" fill="#3C3C3B"/>
<path d="M23.4452 10.5874L24.5191 10.9136C23.7634 9.08403 23.7236 8.20903 23.7236 5.85449L22.7373 7.03176C23.5009 7.06358 23.4134 9.5613 23.4452 10.5874Z" fill="#3C3C3B"/>
<path d="M31.9808 10.5874L30.907 10.9136C31.6627 9.08403 31.7024 8.20903 31.7024 5.85449L32.6888 7.03176C31.9172 7.06358 32.0127 9.5613 31.9808 10.5874Z" fill="#3C3C3B"/>
<path opacity="0.07" d="M53.3226 55.8484C53.252 55.9274 53.1501 55.9711 53.0442 55.9677C48.6374 55.8405 47.9612 55.4586 43.9601 55.7211C41.8124 55.8643 42.1385 54.8461 42.3692 54.0189C42.4334 53.7595 42.5497 53.5159 42.7113 53.303C42.9554 52.9815 43.1436 52.6211 43.2681 52.2371C43.5385 49.1587 40.9533 45.6507 42.7908 41.8962C38.6395 42.6224 34.3691 42.2157 30.4295 40.7189V40.9496C30.3543 41.2789 30.0403 41.4963 29.7056 41.4507H25.7284C25.3937 41.4963 25.0797 41.2789 25.0045 40.9496V40.7507C21.0649 42.2476 16.7945 42.6543 12.6432 41.928C14.4807 45.6507 11.9034 49.1587 12.1659 52.2689C12.2904 52.6529 12.4786 53.0133 12.7227 53.3348C12.8842 53.5477 13.0006 53.7913 13.0648 54.0507C13.2875 54.8461 13.6216 55.8961 11.4739 55.753C7.49661 55.4825 6.79661 55.8723 2.38981 55.9996C2.28392 56.0029 2.18198 55.9592 2.1114 55.8802L10.408 54.8621C10.8558 54.8089 11.263 54.5769 11.5372 54.2188C11.8113 53.8608 11.9291 53.4071 11.8636 52.9609C11.7606 52.7355 11.6703 52.5045 11.5932 52.2689C11.4003 51.6819 11.2853 51.0722 11.2511 50.4553C11.0364 47.17 12.7307 43.9246 10.4557 39.9792C15.9443 41.6496 20.5182 41.5144 23.7397 38.6348C24.0772 38.3307 24.3935 38.0038 24.6863 37.6564L24.9886 37.2905C24.9884 38.4703 25.5348 39.5836 26.4681 40.3053C27.2928 40.8807 28.3985 40.8418 29.1806 40.2098C30.0043 39.4672 30.4584 38.399 30.4215 37.2905L30.7397 37.6883C31.0282 38.0269 31.3392 38.3458 31.6704 38.6428C34.8522 41.5223 39.4658 41.6576 44.9465 39.9871C42.6954 43.9644 44.3897 47.1462 44.151 50.4632C44.1166 51.0801 44.0017 51.6898 43.809 52.2768C43.7319 52.5124 43.6416 52.7435 43.5385 52.9689C43.4852 53.4187 43.6168 53.871 43.9033 54.2219C44.1897 54.5729 44.6064 54.7924 45.0578 54.8302L53.3226 55.8484Z" fill="#1D1D1B"/>
</svg>
