<svg width="56" height="56" viewBox="0 0 56 56" fill="none" xmlns="http://www.w3.org/2000/svg">
<g clip-path="url(#clip0)">
<path d="M2.87314 47.9816C6.68411 48.9767 11.2058 46.3087 14.5782 47.2461C17.2096 47.9816 19.0697 51.7457 21.6558 53.2744C26.0263 55.8559 31.4554 56.0722 36.5971 56.0001C41.5272 55.9424 46.5782 55.6684 51.1151 53.8224C53.2021 52.9715 55.3193 51.5871 55.8637 49.4815C56.3476 47.6499 55.5159 45.7462 54.5631 44.0877C50.9487 37.7998 37.9733 41.261 31.8637 41.3475C24.03 41.4485 16.3325 40.2515 8.46861 40.5255C6.03382 40.612 3.87125 40.0784 1.81454 41.7081C-0.710979 43.6983 -0.801716 47.0153 2.87314 47.9816Z" fill="url(#paint0_linear)"/>
<path opacity="0.56" d="M2.87314 47.9816C6.68411 48.9767 11.2058 46.3087 14.5782 47.2461C17.2096 47.9816 19.0697 51.7457 21.6558 53.2744C26.0263 55.8559 31.4554 56.0722 36.5971 56.0001C41.5272 55.9424 46.5782 55.6684 51.1151 53.8224C53.2021 52.9715 55.3193 51.5871 55.8637 49.4815C56.3476 47.6499 55.5159 45.7462 54.5631 44.0877C50.9487 37.7998 37.9733 41.261 31.8637 41.3475C24.03 41.4485 16.3325 40.2515 8.46861 40.5255C6.03382 40.612 3.87125 40.0784 1.81454 41.7081C-0.710979 43.6983 -0.801716 47.0153 2.87314 47.9816Z" fill="url(#paint1_linear)"/>
<path d="M9.43669 41.3907C11.8412 42.9771 15.0624 42.3137 17.966 41.9675C20.1588 41.7079 22.3819 41.6647 24.5898 41.8522C25.9055 41.9531 27.3724 42.1117 28.431 41.3618C28.7637 41.1311 29.0359 40.8138 29.3686 40.583C30.1248 40.0494 31.1229 39.9773 32.0454 39.8475C33.3762 39.66 34.6768 39.3283 35.9168 38.8524C37.535 38.2323 39.2439 37.0497 39.2136 35.3912C39.1834 34.1365 38.0794 33.0837 36.8242 32.7087C35.569 32.3337 34.2079 32.5212 32.9376 32.8385C30.8053 33.3721 28.7788 34.2663 26.6163 34.6845C22.6994 35.4344 18.6616 34.5403 14.6994 34.0067C13.3838 33.8336 11.932 33.7038 10.7826 34.3528C9.63328 35.0018 9.08886 36.7324 10.1021 37.5544C9.27033 38.5063 8.37808 40.6984 9.43669 41.3907Z" fill="#4A4A4B"/>
<path d="M30.2609 40.2224C30.2306 40.5829 30.1399 40.9579 29.8979 41.2319C29.5955 41.5636 29.1418 41.6934 28.7032 41.8088C25.8904 42.4866 22.9414 42.5587 20.0378 42.6164C18.4197 42.6452 16.7864 42.6885 15.1683 42.7173C13.4594 42.7606 11.69 42.7894 10.087 42.1982C8.48394 41.6213 7.06239 40.2801 6.97165 38.6504C6.89604 37.4245 7.59169 36.2419 8.55956 35.4487C9.52742 34.6411 10.7524 34.1796 11.9924 33.8335C15.7732 32.7807 19.5388 33.2278 23.2136 34.4681C25.9811 35.4055 30.5028 36.6602 30.2609 40.2224Z" fill="#3F3F3F"/>
<path d="M29.4745 50.3323C29.6711 50.7505 30.1248 50.7361 30.8961 50.7794C33.1494 50.8948 35.4027 50.9957 37.6408 51.0534C42.1475 51.1832 46.6541 51.1832 51.1607 51.0678C51.8261 51.0534 52.9754 51.1111 53.3232 50.4477C54.276 48.6738 53.1569 46.2654 52.8544 44.477C52.5822 42.8762 52.2798 41.2898 51.9319 39.689C51.8714 39.415 51.7958 39.0977 51.5387 38.9391C51.3421 38.8093 51.0851 38.8093 50.8431 38.8237C46.6994 38.9102 42.5558 38.9968 38.4121 39.0833C36.6276 39.1265 34.1626 38.7516 32.4537 39.1987C31.2136 39.5304 31.1834 42.5301 30.9414 43.7127C30.7146 44.8088 30.6541 46.15 30.2306 47.1884C29.8677 48.0681 29.3082 48.6305 29.3384 49.6545C29.3535 49.9573 29.3989 50.1737 29.4745 50.3323Z" fill="#3C3934"/>
<path d="M29.5955 48.4287C29.5652 48.5585 29.5501 48.7027 29.6408 48.7893C29.7013 48.8469 29.8072 48.8614 29.8979 48.8614C36.9754 49.2796 44.0681 49.395 51.1456 49.2075C51.7807 49.1931 52.431 49.1642 53.0057 48.9046C53.2325 48.8037 53.4594 48.645 53.5652 48.4143C53.656 48.198 53.6257 47.9672 53.5955 47.7365C53.172 44.4194 52.6125 41.1024 51.9168 37.8287C51.8563 37.5546 51.7807 37.2374 51.5236 37.0787C51.327 36.9489 51.07 36.9489 50.828 36.9633C46.6843 37.0499 42.5406 37.1364 38.397 37.2229C36.6125 37.2662 34.1475 36.8912 32.4386 37.3383C31.1985 37.67 31.1682 40.6698 30.9263 41.8524C30.4877 44.0445 30.0492 46.2366 29.5955 48.4287Z" fill="#837B64"/>
<path d="M52.0227 47.3759C51.9319 46.6548 51.8412 45.9337 51.7505 45.1982C52.2193 45.1549 52.7032 45.1116 53.172 45.0684C53.3081 45.9625 53.4291 46.8422 53.5501 47.7364C53.5803 47.9671 53.6106 48.1979 53.5198 48.4142C53.414 48.645 53.2023 48.8036 52.9603 48.9046C52.7335 49.0055 52.4915 49.0776 52.2495 49.1209C52.1739 48.5296 52.0983 47.9527 52.0227 47.3759Z" fill="#7F786D"/>
<path d="M52.9149 43.3812C53.0057 43.9436 53.0964 44.5061 53.1871 45.0685C52.7183 45.1118 52.2344 45.1551 51.7656 45.1983C51.69 44.5782 51.5992 43.9436 51.5236 43.3091C51.9773 43.3379 52.4461 43.3523 52.9149 43.3812Z" fill="#7F786D"/>
<path d="M52.5822 41.4775C52.7032 42.1121 52.8091 42.7467 52.9149 43.3812C52.4461 43.3524 51.9773 43.3379 51.5085 43.3235C51.4329 42.7178 51.3573 42.1121 51.2816 41.5064C51.7202 41.5064 52.1437 41.492 52.5822 41.4775Z" fill="#7F786D"/>
<path d="M52.2042 39.4585C52.3403 40.1219 52.4612 40.7997 52.5822 41.4776C52.1437 41.492 51.7202 41.5064 51.2817 41.5064C51.1909 40.8286 51.1153 40.1652 51.0246 39.5018C51.4178 39.4873 51.811 39.4729 52.2042 39.4585Z" fill="#7F786D"/>
<path d="M52.0227 47.376C52.0983 47.9529 52.1739 48.5441 52.2344 49.121C51.8563 49.1931 51.4631 49.2076 51.0851 49.2076C50.5255 49.222 49.966 49.2364 49.4064 49.2508C49.4064 49.1787 49.3913 49.1066 49.3913 49.0345C49.3762 48.5297 49.361 48.025 49.3459 47.5202C49.9508 47.4914 50.5406 47.4625 51.1455 47.4192C51.448 47.4048 51.7353 47.3904 52.0227 47.376Z" fill="#7F786D"/>
<path d="M50.7675 37.497C50.7523 37.3239 50.7221 37.1509 50.707 36.9634C50.7372 36.9634 50.7523 36.9634 50.7826 36.9634C51.0246 36.9634 51.2816 36.9634 51.4782 37.0788C51.7202 37.2374 51.8109 37.5403 51.8563 37.8287C51.9773 38.3767 52.0832 38.9103 52.189 39.4584C51.7958 39.4728 51.4026 39.4728 51.0246 39.4872C50.9489 38.8238 50.8582 38.1604 50.7675 37.497Z" fill="#7F786D"/>
<path d="M52.0227 47.3759C51.7353 47.3904 51.448 47.4048 51.1455 47.4192C50.5406 47.4481 49.9508 47.4913 49.3459 47.5202C49.3157 46.7991 49.2854 46.078 49.2401 45.3569C50.0718 45.3136 50.9036 45.2559 51.7353 45.1982C51.8412 45.9193 51.9319 46.6549 52.0227 47.3759Z" fill="#F3F3F3"/>
<path d="M51.5085 43.3235C51.5841 43.9437 51.6597 44.5782 51.7504 45.2128C50.9187 45.2849 50.0869 45.3282 49.2552 45.3714C49.2249 44.6792 49.1796 43.9725 49.1342 43.2803C49.9206 43.2803 50.7221 43.2947 51.5085 43.3235Z" fill="#6F6757"/>
<path d="M51.2817 41.5062C51.3573 42.1119 51.4329 42.7176 51.5085 43.3233C50.707 43.2945 49.9206 43.28 49.1191 43.2656C49.0737 42.6599 49.0283 42.0686 48.983 41.4629C49.7542 41.4773 50.5255 41.5062 51.2817 41.5062Z" fill="#F3F3F3"/>
<path d="M51.0245 39.4873C51.1153 40.1651 51.1909 40.8285 51.2816 41.4919C50.5255 41.4919 49.7542 41.4775 48.9981 41.4487C48.9527 40.8141 48.8922 40.1796 48.8317 39.5306C49.5576 39.5306 50.2986 39.5161 51.0245 39.4873Z" fill="#6F6757"/>
<path d="M50.7675 37.4971C50.8582 38.1605 50.9338 38.8239 51.0245 39.4873C50.2986 39.5017 49.5576 39.5306 48.8317 39.545C48.7712 38.8671 48.6956 38.2037 48.6351 37.5259C49.3459 37.5259 50.0567 37.5115 50.7675 37.4971Z" fill="#F3F3F3"/>
<path d="M50.707 36.9634C50.7372 37.1364 50.7524 37.3095 50.7675 37.497C50.0567 37.5114 49.3308 37.5258 48.62 37.5258C48.6049 37.3528 48.5898 37.1797 48.5595 37.0066C49.2854 36.9922 49.9962 36.9778 50.707 36.9634Z" fill="#7F786D"/>
<path d="M49.4064 49.0345C49.4064 49.1066 49.4064 49.1788 49.4215 49.2509C48.2268 49.2797 47.0321 49.2941 45.8374 49.2941C45.8374 48.7605 45.8525 48.2125 45.8979 47.6789C47.0472 47.65 48.1966 47.5924 49.361 47.5347C49.3761 48.025 49.3913 48.5298 49.4064 49.0345Z" fill="#7F786D"/>
<path d="M49.2552 45.3569C49.3005 46.078 49.3308 46.7991 49.361 47.5202C48.2117 47.5779 47.0623 47.6356 45.8979 47.6644C45.9433 46.9433 46.034 46.2078 46.1247 45.4867C47.1682 45.4579 48.2117 45.4146 49.2552 45.3569Z" fill="#6F6757"/>
<path d="M49.1342 43.2656C49.1795 43.9579 49.2249 44.6645 49.2552 45.3568C48.2117 45.4145 47.1682 45.4433 46.1247 45.4866C46.2155 44.7511 46.3213 44.0156 46.4121 43.28C47.3194 43.2656 48.2268 43.2656 49.1342 43.2656Z" fill="#F3F3F3"/>
<path d="M48.9981 41.463C49.0435 42.0687 49.0888 42.66 49.1342 43.2657C48.2268 43.2513 47.3194 43.2657 46.4121 43.2801C46.4877 42.6456 46.5633 42.0254 46.6238 41.4053C46.9565 41.4053 47.2892 41.4197 47.6219 41.4341C48.0756 41.4341 48.5444 41.4485 48.9981 41.463Z" fill="#6F6757"/>
<path d="M48.8317 39.5449C48.8922 40.1795 48.9527 40.814 48.9981 41.463C48.5444 41.4486 48.0756 41.4342 47.6219 41.4198C47.2892 41.4053 46.9565 41.4053 46.6238 41.3909C46.6843 40.7996 46.7145 40.1939 46.7297 39.6026C47.4404 39.5882 48.1361 39.5738 48.8317 39.5449Z" fill="#F3F3F3"/>
<path d="M48.8318 39.5449C48.1361 39.5594 47.4405 39.5882 46.7448 39.6026C46.7599 38.9248 46.7448 38.247 46.6692 37.5691C47.3195 37.5547 47.9849 37.5403 48.6352 37.5259C48.6957 38.2037 48.7713 38.8815 48.8318 39.5449Z" fill="#6F6757"/>
<path d="M48.6351 37.526C47.9849 37.5404 47.3194 37.5549 46.6692 37.5693C46.654 37.3962 46.6238 37.2232 46.6087 37.0501C47.2741 37.0357 47.9244 37.0213 48.5898 37.0068C48.5898 37.1943 48.6049 37.353 48.6351 37.526Z" fill="#7F786D"/>
<path d="M46.654 37.5693C46.7297 38.2472 46.7448 38.925 46.7297 39.6028C45.6559 39.6317 44.5671 39.6605 43.4934 39.6894C43.4329 39.0115 43.3421 38.3337 43.206 37.6559C44.3554 37.627 45.5047 37.5982 46.654 37.5693Z" fill="#F3F3F3"/>
<path d="M43.5085 39.6891C44.5822 39.6602 45.6559 39.6314 46.7448 39.6025C46.7297 40.1938 46.6994 40.7996 46.6389 41.3908C45.6257 41.362 44.6276 41.362 43.6143 41.362C43.5841 40.7995 43.5539 40.2515 43.5085 39.6891Z" fill="#6F6757"/>
<path d="M46.5936 37.0498C46.6238 37.2229 46.6389 37.3959 46.654 37.569C45.5047 37.5978 44.3554 37.6267 43.206 37.6555C43.1758 37.4825 43.1304 37.295 43.0851 37.1219C44.2646 37.1075 45.4291 37.0786 46.5936 37.0498Z" fill="#7F786D"/>
<path d="M46.6238 41.3909C46.5633 42.0111 46.4877 42.6456 46.4121 43.2658C45.4745 43.2802 44.552 43.309 43.6144 43.3379C43.6144 42.6745 43.6144 42.0111 43.5992 41.3477C44.6125 41.3621 45.6257 41.3765 46.6238 41.3909Z" fill="#F3F3F3"/>
<path d="M46.4121 43.2803C46.3214 44.0158 46.2155 44.7513 46.1248 45.4868C45.2779 45.5157 44.431 45.5301 43.5841 45.5445C43.5992 44.809 43.6144 44.0735 43.6295 43.338C44.552 43.3091 45.4896 43.2947 46.4121 43.2803Z" fill="#6F6757"/>
<path d="M46.1247 45.4868C46.034 46.2079 45.9584 46.9434 45.8979 47.6645C45.1266 47.6934 44.3402 47.7078 43.569 47.7078C43.5539 46.9867 43.569 46.2656 43.5841 45.5445C44.431 45.5301 45.2779 45.5157 46.1247 45.4868Z" fill="#F3F3F3"/>
<path d="M43.6144 49.251C43.5841 48.7318 43.569 48.227 43.5539 47.7078C44.3251 47.7078 45.1115 47.6934 45.8828 47.6646C45.8374 48.1982 45.8223 48.7462 45.8223 49.2798C45.0813 49.2798 44.3403 49.2798 43.6144 49.2798C43.6144 49.2798 43.6144 49.2654 43.6144 49.251Z" fill="#7F786D"/>
<path d="M43.5992 41.3623C43.6143 42.0257 43.6143 42.6891 43.6143 43.3525C42.5557 43.3958 41.4971 43.439 40.4385 43.4967C40.5293 42.8045 40.62 42.0978 40.6956 41.4056C41.6635 41.3767 42.6314 41.3623 43.5992 41.3623Z" fill="#6F6757"/>
<path d="M43.6143 49.251C43.6143 49.2654 43.6143 49.2798 43.5992 49.2942C42.3289 49.2942 41.0737 49.2798 39.8034 49.251C39.8336 48.7173 39.8639 48.1982 39.9092 47.6646C40.6351 47.679 41.3762 47.7078 42.1021 47.7222C42.586 47.7367 43.0699 47.7367 43.5539 47.7222C43.569 48.227 43.5841 48.7462 43.6143 49.251Z" fill="#7F786D"/>
<path d="M43.6144 43.3521C43.5992 44.0876 43.5841 44.8231 43.569 45.5586C42.4196 45.5874 41.2854 45.6163 40.1512 45.6451C40.242 44.924 40.3478 44.2029 40.4385 43.4963C41.4971 43.4386 42.5558 43.3809 43.6144 43.3521Z" fill="#F3F3F3"/>
<path d="M43.569 47.7077C43.0851 47.7077 42.6011 47.7077 42.1172 47.7077C41.3913 47.6933 40.6654 47.6644 39.9244 47.65C39.9849 46.9722 40.0605 46.3088 40.1512 45.631C41.2854 45.5877 42.4348 45.5733 43.569 45.5444C43.569 46.2799 43.5539 47.001 43.569 47.7077Z" fill="#6F6757"/>
<path d="M43.5085 39.689C43.5539 40.237 43.5841 40.7994 43.6144 41.3619C42.6465 41.3619 41.6786 41.3763 40.6956 41.3907C40.7561 40.8427 40.8015 40.3091 40.8469 39.7611C41.724 39.7322 42.6163 39.7178 43.5085 39.689Z" fill="#F3F3F3"/>
<path d="M43.5085 39.6892C42.6162 39.7181 41.724 39.7325 40.8469 39.7614C40.8922 39.0835 40.9225 38.4057 40.9225 37.7279C41.6937 37.699 42.4499 37.6702 43.2211 37.6558C43.3421 38.3336 43.448 39.0114 43.5085 39.6892Z" fill="#6F6757"/>
<path d="M43.1002 37.1362C43.1455 37.3093 43.1758 37.4824 43.2211 37.6698C42.4499 37.6843 41.6937 37.7131 40.9225 37.742C40.9225 37.5545 40.9225 37.367 40.9073 37.1939C41.6332 37.1651 42.3591 37.1507 43.1002 37.1362Z" fill="#7F786D"/>
<path d="M40.9074 37.7275C40.9074 38.4054 40.8771 39.0832 40.8317 39.761C39.879 39.7899 38.9263 39.8187 37.9584 39.8331C38.0643 39.1553 38.1701 38.4919 38.2155 37.8141C39.1229 37.7852 40.0151 37.7564 40.9074 37.7275Z" fill="#F3F3F3"/>
<path d="M40.9073 37.1797C40.9073 37.3672 40.9225 37.5547 40.9225 37.7277C40.0302 37.7566 39.138 37.7854 38.2457 37.8143C38.2608 37.6123 38.2759 37.4249 38.2759 37.223C38.3062 37.223 38.3364 37.223 38.3516 37.223C39.1984 37.2085 40.0453 37.1941 40.9073 37.1797Z" fill="#7F786D"/>
<path d="M37.9735 39.8333C38.9263 39.8045 39.879 39.7757 40.8469 39.7612C40.8015 40.3093 40.7561 40.8429 40.6956 41.3909C39.6824 41.4197 38.6692 41.4486 37.6559 41.4918C37.7769 40.9438 37.8828 40.3958 37.9735 39.8333Z" fill="#6F6757"/>
<path d="M40.6957 41.3906C40.62 42.0829 40.5293 42.7895 40.4386 43.4818C39.3648 43.5395 38.276 43.6116 37.2023 43.6837C37.3535 42.9482 37.5047 42.2127 37.656 41.4916C38.6692 41.4483 39.6824 41.4195 40.6957 41.3906Z" fill="#F3F3F3"/>
<path d="M40.4386 43.4966C40.3478 44.2177 40.242 44.9243 40.1512 45.6454C39.0473 45.6887 37.9282 45.732 36.8242 45.7896C36.8544 45.6166 36.8696 45.4435 36.8998 45.2705C36.9905 44.7369 37.0813 44.2177 37.1871 43.6841C38.276 43.612 39.3497 43.5543 40.4386 43.4966Z" fill="#6F6757"/>
<path d="M40.1512 45.6455C40.0605 46.3233 39.9849 46.9867 39.9244 47.6646C39.3799 47.6501 38.8204 47.6501 38.276 47.6646C37.7164 47.679 37.1569 47.7078 36.5973 47.7367C36.6578 47.0877 36.7334 46.4531 36.8242 45.8041C37.9281 45.7176 39.0472 45.6744 40.1512 45.6455Z" fill="#F3F3F3"/>
<path d="M39.9244 47.6502C39.879 48.1838 39.8336 48.703 39.8185 49.2366C38.7145 49.2221 37.5954 49.1933 36.4763 49.15C36.5217 48.6741 36.552 48.1838 36.5973 47.7079C37.1569 47.679 37.7164 47.6502 38.276 47.6357C38.8355 47.6357 39.3799 47.6502 39.9244 47.6502Z" fill="#7F786D"/>
<path d="M38.2608 37.2372C38.2608 37.4391 38.2457 37.6266 38.2306 37.8285C37.2627 37.8717 36.2798 37.9006 35.3119 37.9439C35.327 37.6698 35.3421 37.4102 35.3421 37.1362C36.3554 37.1651 37.3837 37.2516 38.2608 37.2372Z" fill="#7F786D"/>
<path d="M38.2306 37.8286C38.1852 38.5064 38.0945 39.1698 37.9735 39.8477C37.0057 39.8765 36.0227 39.9054 35.0548 39.9198C35.1758 39.2708 35.2665 38.6074 35.2968 37.944C36.2798 37.9007 37.2476 37.8575 38.2306 37.8286Z" fill="#6F6757"/>
<path d="M35.0548 39.9198C36.0227 39.8909 37.0056 39.8621 37.9735 39.8477C37.8828 40.3957 37.7769 40.9437 37.6559 41.5062C36.6729 41.5494 35.69 41.5927 34.707 41.6648C34.828 41.0735 34.9489 40.4966 35.0548 39.9198Z" fill="#F3F3F3"/>
<path d="M37.6559 41.4917C37.5047 42.2272 37.3383 42.9627 37.2022 43.6838C36.2193 43.7559 35.2514 43.8136 34.2684 43.9001C34.2986 43.7415 34.3289 43.5684 34.3591 43.4098C34.465 42.8185 34.6011 42.2416 34.7221 41.6503C35.69 41.5782 36.6729 41.535 37.6559 41.4917Z" fill="#6F6757"/>
<path d="M37.2023 43.6841C37.0964 44.2033 36.9905 44.7369 36.9149 45.2705C36.8847 45.4435 36.8544 45.6166 36.8393 45.7897C35.8866 45.8474 34.9338 45.9195 33.9962 46.0204C34.0718 45.3138 34.1626 44.6071 34.2835 43.9004C35.2363 43.8283 36.2193 43.7562 37.2023 43.6841Z" fill="#F3F3F3"/>
<path d="M36.8242 45.7896C36.7334 46.4385 36.6578 47.0731 36.5973 47.7221C35.6748 47.7798 34.7675 47.8519 33.845 47.924C33.8752 47.2894 33.9055 46.6404 33.966 46.0059C34.9187 45.9193 35.8714 45.8472 36.8242 45.7896Z" fill="#6F6757"/>
<path d="M33.8601 49.0634C33.8601 49.0634 33.845 49.0634 33.8298 49.0634C33.8298 48.6884 33.8298 48.299 33.845 47.9241C34.7675 47.852 35.6748 47.7799 36.5973 47.7222C36.5519 48.1981 36.5066 48.6884 36.4763 49.1643C35.5992 49.1355 34.7372 49.1067 33.8601 49.0634Z" fill="#7F786D"/>
<path d="M35.327 37.1366C35.327 37.4106 35.327 37.6847 35.2967 37.9443C34.4952 37.9731 33.6937 38.0164 32.8922 38.0596C32.9527 37.7856 32.9981 37.4972 33.0586 37.2232C33.7542 37.1078 34.5406 37.1078 35.327 37.1366Z" fill="#7F786D"/>
<path d="M35.3119 37.9443C35.2665 38.6077 35.1758 39.2567 35.0699 39.9201C34.2231 39.949 33.3762 39.9634 32.5293 39.9922C32.6503 39.3577 32.7713 38.7087 32.9074 38.0741C32.9074 38.0741 32.9074 38.0741 32.9074 38.0597C33.6938 38.0164 34.4953 37.9732 35.3119 37.9443Z" fill="#F3F3F3"/>
<path d="M32.5293 39.9774C33.3762 39.9485 34.2231 39.9341 35.0699 39.9053C34.9641 40.4821 34.8431 41.059 34.7221 41.6359C33.8752 41.6936 33.0284 41.7513 32.1966 41.8234C32.2873 41.2177 32.4083 40.5975 32.5293 39.9774Z" fill="#6F6757"/>
<path d="M34.707 41.6504C34.586 42.2417 34.4499 42.8186 34.344 43.4099C34.3138 43.5685 34.2835 43.7416 34.2533 43.9002C33.4215 43.9579 32.5898 44.03 31.758 44.0877C31.8941 43.3378 32.0302 42.5878 32.1663 41.8235C33.0132 41.7658 33.8601 41.6937 34.707 41.6504Z" fill="#F3F3F3"/>
<path d="M34.2533 43.9004C34.1323 44.6071 34.0416 45.3137 33.9659 46.0204C33.1039 46.1069 32.2419 46.2079 31.3799 46.3377C31.5009 45.5877 31.6219 44.8378 31.758 44.1023C32.5898 44.0302 33.4215 43.9581 34.2533 43.9004Z" fill="#6F6757"/>
<path d="M33.9811 46.0205C33.9206 46.6551 33.8752 47.2896 33.8601 47.9386C32.9527 48.0107 32.0453 48.0684 31.138 48.0828C31.2136 47.506 31.3043 46.9291 31.3951 46.3522C32.2571 46.208 33.1191 46.107 33.9811 46.0205Z" fill="#F3F3F3"/>
<path d="M33.845 47.9238C33.8298 48.2988 33.8298 48.6882 33.8298 49.0632C32.8922 49.0199 31.9546 48.9766 31.017 48.9334C31.0624 48.6449 31.0926 48.3565 31.138 48.068C32.0453 48.0536 32.9376 47.9959 33.845 47.9238Z" fill="#7F786D"/>
<path d="M32.8922 38.045C32.8922 38.0594 32.8922 38.0594 32.8922 38.045C32.7712 38.6939 32.6503 39.3429 32.5142 39.9775C32.3932 40.5976 32.2873 41.2033 32.1663 41.8235C32.0302 42.5734 31.8941 43.3234 31.758 44.0877C31.6219 44.8377 31.5009 45.5876 31.3799 46.3231C31.2892 46.9 31.1985 47.4768 31.1229 48.0537C31.0775 48.3422 31.0472 48.6306 31.0019 48.919C30.6087 48.9046 30.2155 48.8758 29.8374 48.8613C29.7467 48.8613 29.6408 48.8469 29.5803 48.7892C29.4896 48.7027 29.5047 48.5585 29.535 48.4287C29.9886 46.2366 30.4272 44.0445 30.8809 41.8523C31.1229 40.6697 31.1531 37.67 32.3932 37.3383C32.6049 37.2806 32.8317 37.2373 33.0586 37.2085C32.9981 37.4969 32.9527 37.7709 32.8922 38.045Z" fill="#7F786D"/>
<path d="M35.7958 38.7513C35.5539 38.5927 35.5236 38.2466 35.7202 38.0446C35.9168 37.8572 36.31 37.8716 36.4915 38.0735C36.673 38.2754 36.6276 38.6215 36.4008 38.7802C36.4613 38.7802 36.5217 38.8379 36.5217 38.8955C36.5217 38.9532 36.4461 39.0109 36.3856 38.9965C36.431 39.4436 36.5217 39.8907 36.6276 40.3377C36.6427 40.4243 36.673 40.5108 36.7335 40.5829C36.8091 40.655 36.9149 40.6983 37.0057 40.756C37.0813 40.7992 37.1267 40.9002 37.0813 40.9579C36.7486 40.929 36.431 40.9867 36.0983 40.9867H35.2212C35.2061 40.9434 35.2061 40.8858 35.2061 40.8281C35.2061 40.7704 35.2363 40.7271 35.2817 40.6983C35.3119 40.6839 35.3573 40.6839 35.3875 40.655C35.4178 40.6262 35.4027 40.5685 35.448 40.5396C35.4783 40.5108 35.5236 40.5252 35.569 40.5252C35.6295 40.5108 35.6597 40.4387 35.69 40.381C35.7505 40.1935 35.7958 39.9916 35.8261 39.8041C35.8715 39.5445 35.9017 39.2705 35.8715 39.0109C35.8715 38.9965 35.8715 38.9676 35.8412 38.9532C35.8261 38.9532 35.811 38.9532 35.811 38.9532C35.7505 38.9676 35.69 38.8955 35.7051 38.8379C35.6597 38.809 35.7354 38.7369 35.7958 38.7513Z" fill="#D7D6DA"/>
<path d="M37.3686 41.3907C37.3838 41.5926 37.3838 41.809 37.3686 42.0109C37.3989 42.0397 37.4442 42.0397 37.4896 42.0109C37.4896 42.1551 37.5047 42.2993 37.5199 42.4435C37.5501 42.4003 37.6257 42.4147 37.6711 42.4579C37.7013 42.5012 37.7165 42.5589 37.7165 42.6022C37.7618 43.0781 37.7769 43.554 37.7618 44.0299C37.7618 44.0443 37.7618 44.0732 37.7467 44.0876C37.6862 44.1886 37.5047 44.0588 37.4291 44.1309C37.4291 44.2895 37.4442 44.4482 37.4442 44.6068C37.4442 44.6356 37.4442 44.6501 37.4291 44.6645C37.414 44.6789 37.3989 44.6789 37.3686 44.6789C37.2174 44.7222 37.2325 44.9385 37.2779 45.0827C37.3081 45.0971 37.3535 45.0971 37.3837 45.1116L39.5161 45.1404C39.5009 45.025 39.4858 44.9097 39.4858 44.7943C39.4405 44.7943 39.38 44.7943 39.3346 44.7943C39.3195 44.5491 39.3043 44.3039 39.2892 44.0443C39.2136 44.0299 39.138 44.0443 39.0775 44.0876C38.9868 43.5252 38.9565 42.9627 38.9868 42.4003C39.0775 42.4003 39.1682 42.4003 39.2439 42.3858C39.2439 42.2705 39.259 42.1695 39.259 42.0541C39.3195 42.0686 39.3951 42.0541 39.4556 42.0397C39.4405 41.982 39.5161 41.3042 39.5009 41.3042C39.3951 41.3042 39.2892 41.3042 39.1682 41.3042C39.1682 41.3907 39.1682 41.4773 39.1682 41.5638C39.1682 41.7224 38.8355 41.6071 38.8355 41.6792C38.8355 41.5782 38.8355 41.4773 38.8507 41.3763C38.7297 41.3763 38.6238 41.3763 38.5028 41.3619C38.518 41.4773 38.518 41.5782 38.5331 41.6936C38.4726 41.6936 38.3819 41.708 38.3214 41.7224C38.3365 41.6071 38.3365 41.4773 38.3062 41.3619C38.2155 41.3475 38.1399 41.3475 38.0492 41.333C38.0492 41.434 38.0492 41.5494 38.0643 41.6503C37.9735 41.6503 37.8677 41.6359 37.7769 41.6359C37.7921 41.535 37.7769 41.434 37.7618 41.333C37.6106 41.3763 37.5047 41.4052 37.3686 41.3907Z" fill="#4A4A4B"/>
<path d="M43.6749 35.4059C43.69 35.6078 43.69 35.8241 43.6749 36.026C43.7051 36.0549 43.7505 36.0549 43.7959 36.026C43.7959 36.1702 43.811 36.3144 43.8261 36.4587C43.8563 36.4154 43.932 36.4298 43.9773 36.4731C44.0076 36.5163 44.0227 36.574 44.0227 36.6173C44.0681 37.0932 44.0832 37.5691 44.0681 38.0451C44.0681 38.0595 44.0681 38.0883 44.0529 38.1028C43.9924 38.2037 43.811 38.0739 43.7354 38.146C43.7354 38.3047 43.7505 38.4633 43.7505 38.6219C43.7505 38.6508 43.7505 38.6652 43.7354 38.6796C43.7202 38.694 43.7051 38.694 43.6749 38.694C43.5236 38.7373 43.5388 38.9536 43.5841 39.0979C43.6144 39.1123 43.6597 39.1123 43.69 39.1267L45.8223 39.1555C45.8072 39.0402 45.7921 38.9248 45.7921 38.8094C45.7467 38.8094 45.6862 38.8094 45.6408 38.8094C45.6257 38.5642 45.6106 38.3191 45.5955 38.0595C45.5199 38.0451 45.4442 38.0595 45.3838 38.1028C45.293 37.5403 45.2628 36.9778 45.293 36.4154C45.3837 36.4154 45.4745 36.4154 45.5501 36.401C45.5501 36.2856 45.5652 36.1846 45.5652 36.0693C45.6257 36.0837 45.7013 36.0693 45.7618 36.0549C45.7467 35.9972 45.8223 35.3193 45.8072 35.3193C45.7013 35.3193 45.5955 35.3193 45.4745 35.3193C45.4745 35.4059 45.4745 35.4924 45.4745 35.5789C45.4745 35.7376 45.1418 35.6222 45.1418 35.6943C45.1418 35.5934 45.1418 35.4924 45.1569 35.3914C45.0359 35.3914 44.9301 35.3914 44.8091 35.377C44.8242 35.4924 44.8242 35.5934 44.8393 35.7087C44.7788 35.7087 44.6881 35.7231 44.6276 35.7376C44.6427 35.6222 44.6427 35.4924 44.6125 35.377C44.5217 35.3626 44.4461 35.3626 44.3554 35.3482C44.3554 35.4491 44.3554 35.5645 44.3705 35.6655C44.2798 35.6655 44.1739 35.651 44.0832 35.651C44.0983 35.5501 44.0832 35.4491 44.0681 35.3482C43.9168 35.3914 43.8261 35.4203 43.6749 35.4059Z" fill="#D7D6DA"/>
<path d="M47.5161 38.9823C47.2741 38.8236 47.2439 38.4775 47.4405 38.2756C47.637 38.0881 48.0302 38.1025 48.2117 38.3044C48.3932 38.5064 48.3478 38.8525 48.121 39.0111C48.1815 39.0111 48.242 39.0688 48.242 39.1265C48.242 39.1842 48.1664 39.2419 48.1059 39.2274C48.1512 39.6745 48.242 40.1216 48.3478 40.5687C48.3629 40.6552 48.3932 40.7417 48.4537 40.8139C48.5293 40.886 48.6352 40.9292 48.7259 40.9869C48.8015 41.0302 48.8469 41.1311 48.8015 41.1888C48.4688 41.16 48.1512 41.2177 47.8185 41.2177H46.9414C46.9263 41.1744 46.9263 41.1167 46.9263 41.059C46.9263 41.0013 46.9565 40.9581 47.0019 40.9292C47.0321 40.9148 47.0775 40.9148 47.1077 40.886C47.138 40.8571 47.1229 40.7994 47.1682 40.7706C47.1985 40.7417 47.2439 40.7562 47.2892 40.7562C47.3497 40.7417 47.38 40.6696 47.4102 40.6119C47.4707 40.4245 47.5161 40.2226 47.5463 40.0351C47.5917 39.7755 47.6219 39.5015 47.5917 39.2419C47.5917 39.2274 47.5766 39.1986 47.5614 39.1842C47.5463 39.1842 47.5312 39.1842 47.5312 39.1842C47.4707 39.1986 47.4102 39.1265 47.4253 39.0688C47.38 39.0255 47.4556 38.9679 47.5161 38.9823Z" fill="#4A4A4B"/>
<path d="M41.8904 39.7756C41.8752 39.8477 41.8147 39.9054 41.8147 39.9775C41.8147 40.0497 41.9055 40.1218 41.9508 40.0641C41.9811 40.5977 41.9206 41.1313 41.7543 41.6361C41.724 41.7514 41.6786 41.8668 41.5879 41.9389C41.5274 41.9966 41.4518 42.0254 41.4064 42.0831C41.3611 42.1408 41.3611 42.2418 41.4367 42.2706H42.949C42.9943 42.1841 42.949 42.0831 42.8885 42.011C42.828 41.9389 42.7675 41.8668 42.707 41.7947C42.5709 41.6216 42.5255 41.4197 42.4802 41.2178C42.4045 40.8284 42.344 40.439 42.3138 40.0497C42.3894 40.0929 42.4953 40.0497 42.5104 39.9631C42.5255 39.891 42.465 39.8189 42.465 39.7468C42.465 39.6891 42.5104 39.6314 42.5406 39.5737C42.586 39.4584 42.5406 39.3286 42.4802 39.2276C42.4802 39.2132 42.465 39.2132 42.4499 39.1988C42.4045 39.1699 42.344 39.2276 42.3289 39.2853C42.344 39.2276 42.2836 39.1699 42.2231 39.1699C42.1626 39.1699 42.1172 39.242 42.1323 39.2997C42.1323 39.242 42.0718 39.1988 42.0265 39.2132C41.966 39.2276 41.9357 39.2997 41.966 39.343C41.9357 39.3141 41.9055 39.2853 41.8601 39.2853C41.8147 39.2853 41.7694 39.2997 41.7694 39.343C41.7694 39.3862 41.8147 39.4151 41.8147 39.4584C41.8147 39.5305 41.7845 39.5449 41.7996 39.617C41.8299 39.6747 41.9206 39.6603 41.8904 39.7756Z" fill="#4A4A4B"/>
<path d="M33.0888 42.9051C33.0586 43.0205 33.2098 43.0926 33.3157 43.1503C33.5123 43.2512 33.6484 43.4387 33.6786 43.655C33.7089 43.857 33.6333 44.0877 33.482 44.2319C33.4971 44.3329 33.4971 44.4482 33.5123 44.5492C33.6333 44.5492 33.6937 44.7223 33.6786 44.8376C33.6635 44.953 33.6333 45.0972 33.7089 45.1982C33.8147 45.1693 33.8601 45.3136 33.845 45.4145C33.845 45.4434 33.845 45.4866 33.8147 45.501C33.7996 45.5299 33.7391 45.5443 33.7089 45.5155H31.7126C31.7278 45.4001 31.7429 45.2847 31.7731 45.1693C31.8185 45.1549 31.879 45.1405 31.9244 45.1549C31.9092 44.953 31.9244 44.7511 31.9697 44.5492C32 44.5492 32.0454 44.5492 32.0756 44.578C32.1663 44.4194 32.2117 44.2463 32.2571 44.0733C32.1663 44.131 32.0302 44.0733 31.9697 43.9868C31.9092 43.9002 31.9244 43.7848 31.9395 43.6839C31.9546 43.5829 32 43.482 32 43.381C32.0151 43.0349 31.7126 42.7465 31.6824 42.4003C31.6673 42.0975 31.879 41.8379 32.1512 41.6793C32.4234 41.5206 32.741 41.4773 33.0435 41.4341C33.0435 41.4341 33.0132 41.8091 32.9981 41.8379C33.3308 41.91 33.8752 42.3427 33.9055 42.6888C33.9962 43.2512 33.1644 42.559 33.0888 42.9051Z" fill="#4A4A4B"/>
<path d="M44.4461 44.7078C44.431 44.7799 44.3705 44.8376 44.3705 44.9097C44.3705 44.9818 44.4612 45.0539 44.5066 44.9962C44.5368 45.5298 44.4763 46.0634 44.31 46.5682C44.2798 46.6836 44.2344 46.7989 44.1436 46.871C44.0832 46.9287 44.0075 46.9576 43.9622 47.0153C43.9168 47.073 43.9168 47.1739 43.9924 47.2027H45.5047C45.5501 47.1162 45.5047 47.0153 45.4442 46.9432C45.3837 46.871 45.3232 46.7989 45.2627 46.7268C45.1266 46.5538 45.0813 46.3519 45.0359 46.15C44.9603 45.7606 44.8998 45.3712 44.8695 44.9818C44.9452 45.025 45.051 44.9818 45.0661 44.8953C45.0813 44.8231 45.0208 44.751 45.0208 44.6789C45.0208 44.6212 45.0661 44.5636 45.0964 44.5059C45.1418 44.3905 45.0964 44.2607 45.0359 44.1597C45.0359 44.1453 45.0208 44.1453 45.0056 44.1309C44.9603 44.1021 44.8998 44.1597 44.8847 44.2174C44.8998 44.1597 44.8393 44.1021 44.7788 44.1021C44.7183 44.1021 44.6729 44.1742 44.6881 44.2319C44.6881 44.1742 44.6276 44.1309 44.5822 44.1453C44.5217 44.1597 44.5066 44.2318 44.5217 44.2751C44.4915 44.2463 44.4612 44.2174 44.4159 44.2174C44.3705 44.2174 44.3251 44.2318 44.3251 44.2751C44.3251 44.3184 44.3705 44.3472 44.3705 44.3905C44.3705 44.4626 44.3402 44.477 44.3554 44.5491C44.3705 44.6068 44.4763 44.6068 44.4461 44.7078Z" fill="#D7D6DA"/>
<path d="M50.3441 44.1307C50.3743 44.2461 50.2231 44.3182 50.1172 44.3759C49.9206 44.4768 49.7845 44.6643 49.7543 44.8806C49.724 45.0825 49.7996 45.3133 49.9509 45.4575C49.9357 45.5585 49.9357 45.6738 49.9206 45.7748C49.7996 45.7748 49.7391 45.9478 49.7543 46.0632C49.7694 46.1786 49.7996 46.3228 49.724 46.4238C49.6182 46.3949 49.5728 46.5391 49.5879 46.6401C49.5879 46.6689 49.5879 46.7122 49.6182 46.7266C49.6333 46.7555 49.6938 46.7699 49.724 46.7411H51.7202C51.7051 46.6257 51.69 46.5103 51.6597 46.3949C51.6144 46.3805 51.5539 46.3661 51.5085 46.3805C51.5236 46.1786 51.5085 45.9767 51.4631 45.7748C51.4329 45.7748 51.3875 45.7748 51.3573 45.8036C51.2665 45.645 51.2212 45.4719 51.1758 45.2989C51.2665 45.3566 51.4027 45.2989 51.4631 45.2123C51.5236 45.1258 51.5085 45.0104 51.4934 44.9095C51.4783 44.8085 51.4329 44.7076 51.4329 44.6066C51.4178 44.2605 51.7202 43.9721 51.7505 43.6259C51.7656 43.3231 51.5539 43.0635 51.2817 42.9048C51.0095 42.7606 50.6919 42.7029 50.3894 42.6597C50.3894 42.6597 50.4197 43.0346 50.4348 43.0635C50.1021 43.1356 49.5577 43.5682 49.5274 43.9144C49.4367 44.4768 50.2684 43.799 50.3441 44.1307Z" fill="#D7D6DA"/>
<path d="M25.1191 49.4378C25.0435 49.1782 25.2703 48.8898 25.5577 48.861C25.845 48.8465 26.1172 49.0917 26.1172 49.3657C26.1172 49.6397 25.845 49.8705 25.5577 49.8416C25.603 49.8849 25.6182 49.957 25.5728 50.0003C25.5274 50.0436 25.4367 50.0291 25.4064 49.9859C25.1342 50.3608 24.8771 50.7358 24.6654 51.1396C24.62 51.2117 24.5747 51.2982 24.5747 51.3848C24.5747 51.4857 24.6352 51.5867 24.6503 51.6876C24.6654 51.7742 24.6503 51.8751 24.5595 51.8895C24.3327 51.6588 24.0454 51.5002 23.8034 51.2983L23.138 50.7502C23.1531 50.707 23.1985 50.6637 23.2287 50.6204C23.259 50.5772 23.3195 50.5627 23.38 50.5772C23.4102 50.5916 23.4556 50.606 23.4858 50.606C23.5312 50.606 23.5614 50.5483 23.6068 50.5627C23.6522 50.5627 23.6673 50.606 23.6975 50.6204C23.758 50.6493 23.8337 50.6204 23.879 50.5916C24.0605 50.4906 24.2268 50.3608 24.3781 50.2455C24.5898 50.0724 24.8015 49.8849 24.9679 49.683C24.983 49.6686 24.9981 49.6397 24.983 49.6253C24.983 49.6109 24.9679 49.6109 24.9527 49.5965C24.9074 49.5676 24.8923 49.4811 24.9527 49.4378C24.983 49.3946 25.0889 49.3946 25.1191 49.4378Z" fill="#4A4A4B"/>
<path d="M37.8072 35.0594C37.7618 35.1604 37.8828 35.2613 37.9735 35.3479C38.1399 35.4921 38.2306 35.7084 38.2004 35.9247C38.1853 36.1411 38.0491 36.3285 37.8677 36.4439C37.8525 36.5449 37.8374 36.6458 37.8223 36.7612C37.9433 36.79 37.9584 36.9631 37.913 37.0785C37.8677 37.1938 37.8072 37.3236 37.8677 37.4246C37.9735 37.4246 37.9887 37.5688 37.9584 37.6698C37.9433 37.6986 37.9433 37.7419 37.913 37.7563C37.8828 37.7707 37.8223 37.7851 37.8072 37.7563L35.8563 37.3092C35.9017 37.1938 35.9471 37.0929 35.9924 36.9775C36.0378 36.9631 36.0983 36.9775 36.1437 37.0064C36.1739 36.8045 36.2495 36.6026 36.3403 36.4295C36.3705 36.4295 36.4159 36.4439 36.4461 36.4728C36.5671 36.343 36.6578 36.1843 36.7335 36.0257C36.6276 36.0545 36.5066 35.9824 36.4764 35.8815C36.4461 35.7805 36.4764 35.6796 36.5217 35.5786C36.5671 35.4777 36.6276 35.3911 36.6578 35.2902C36.7637 34.9585 36.5217 34.6123 36.5973 34.2662C36.6578 33.9778 36.93 33.7615 37.2325 33.6749C37.535 33.5884 37.8525 33.6172 38.155 33.6317C38.155 33.6317 38.034 33.9922 38.0189 34.021C38.3214 34.1653 38.7448 34.6989 38.6843 35.045C38.5936 35.593 37.9584 34.7421 37.8072 35.0594Z" fill="#D7D6DA"/>
<path d="M26.0114 45.1549C25.8904 45.1837 25.7996 45.0539 25.7391 44.9674C25.603 44.7943 25.3913 44.6789 25.1796 44.6789C24.9527 44.6645 24.741 44.7655 24.5898 44.9241C24.4839 44.9241 24.363 44.9241 24.2571 44.9241C24.242 44.8087 24.0605 44.7799 23.9395 44.8087C23.8185 44.8376 23.6673 44.8808 23.5614 44.8087C23.5766 44.7078 23.4253 44.6789 23.3195 44.6934C23.2892 44.6934 23.2439 44.7078 23.2287 44.7222C23.1985 44.7511 23.1985 44.8087 23.2287 44.8232L23.4556 46.7124C23.5766 46.6836 23.6975 46.6547 23.8185 46.6259C23.8337 46.5826 23.8337 46.5249 23.8185 46.4817C24.0303 46.4817 24.242 46.4384 24.4386 46.3663C24.4386 46.3375 24.4234 46.2942 24.4083 46.2653C24.5596 46.1644 24.7259 46.0923 24.9074 46.0346C24.862 46.1211 24.9225 46.2509 25.0284 46.2942C25.1342 46.3375 25.2401 46.323 25.3459 46.2942C25.4518 46.2653 25.5577 46.2221 25.6635 46.1932C26.0265 46.1355 26.3592 46.3951 26.7221 46.3807C27.0397 46.3663 27.2968 46.1211 27.4178 45.8471C27.5388 45.5731 27.5539 45.2702 27.569 44.9674C27.569 44.9674 27.1758 45.0395 27.1456 45.0539C27.0397 44.751 26.5255 44.2896 26.1626 44.2896C25.5577 44.3328 26.3592 45.0539 26.0114 45.1549Z" fill="#D7D6DA"/>
<path d="M15.0775 11.581C15.1834 11.5089 15.2892 11.4368 15.4102 11.3647C16.4083 10.7589 17.603 10.3984 18.7675 10.6003C19.0548 10.6436 19.3573 10.7301 19.5841 10.9032C20.0076 11.2204 20.1437 11.754 20.2949 12.2444C20.7486 13.6721 21.4896 15.5903 23.017 16.1383C24.8318 16.8017 25.9509 16.5277 26.3289 18.8207C26.8734 22.1378 27.4178 25.4548 27.9622 28.7574C28.0529 29.2622 28.1286 29.8102 27.8866 30.2717C27.7202 30.6034 27.4178 30.8486 27.1607 31.137C26.4953 31.9014 26.2836 32.9253 25.9357 33.8627C25.5879 34.8002 24.983 35.7808 23.9849 36.0404C23.5614 36.1558 23.1229 36.1125 22.6843 36.0837C20.3554 35.9106 18.0265 35.752 15.6976 35.5789C14.7448 35.5068 13.7013 35.4636 12.9301 35.9972C12.4613 36.3144 12.1588 36.8048 11.932 37.3096C11.1002 39.069 10.8129 41.2756 9.1191 42.3428C8.93762 42.4582 8.74103 42.5591 8.52931 42.5158C8.36296 42.487 8.22685 42.386 8.09074 42.2851C7.09263 41.5352 6.09452 40.7996 5.11154 40.0497C4.58224 39.6603 4.02269 39.2132 3.88658 38.5931C3.72023 37.8432 4.20416 37.1221 4.53687 36.4154C5.14178 35.1463 5.24764 33.7329 5.36863 32.3484C5.65596 28.9305 6.00379 25.4836 7.0019 22.1666C7.98488 18.9073 10.5104 16.1671 12.8242 13.6433C13.5047 12.8934 14.2306 12.1579 15.0775 11.581Z" fill="#494952"/>
<path d="M18.1172 44.1163C18.1323 44.3182 18.1323 44.5346 18.1172 44.7365C18.1474 44.7653 18.1928 44.7653 18.2382 44.7365C18.2382 44.8807 18.2533 45.0249 18.2684 45.1691C18.2987 45.1258 18.3743 45.1403 18.4197 45.1835C18.4499 45.2268 18.465 45.2845 18.465 45.3278C18.5104 45.8037 18.5255 46.2796 18.5104 46.7555C18.5104 46.7699 18.5104 46.7988 18.4953 46.8132C18.4348 46.9142 18.2533 46.7844 18.1777 46.8565C18.1777 47.0151 18.1928 47.1737 18.1928 47.3324C18.1928 47.3612 18.1928 47.3757 18.1777 47.3901C18.1626 47.4045 18.1474 47.4045 18.1172 47.4045C17.966 47.4478 17.9811 47.6641 18.0265 47.8083C18.0567 47.8227 18.1021 47.8227 18.1323 47.8372L20.2646 47.866C20.2495 47.7506 20.2344 47.6352 20.2344 47.5199C20.189 47.5199 20.1285 47.5199 20.0832 47.5199C20.068 47.2747 20.0529 47.0295 20.0378 46.7699C19.9622 46.7555 19.8866 46.7699 19.8261 46.8132C19.7353 46.2508 19.7051 45.6883 19.7353 45.1258C19.8261 45.1258 19.9168 45.1258 19.9924 45.1114C19.9924 44.996 20.0075 44.8951 20.0075 44.7797C20.068 44.7941 20.1437 44.7797 20.2041 44.7653C20.189 44.7076 20.2646 44.0298 20.2495 44.0298C20.1437 44.0298 20.0378 44.0298 19.9168 44.0298C19.9168 44.1163 19.9168 44.2028 19.9168 44.2894C19.9168 44.448 19.5841 44.3326 19.5841 44.4048C19.5841 44.3038 19.5841 44.2028 19.5992 44.1019C19.4782 44.1019 19.3724 44.1019 19.2514 44.0875C19.2665 44.2029 19.2665 44.3038 19.2817 44.4192C19.2212 44.4192 19.1304 44.4336 19.0699 44.448C19.0851 44.3326 19.0851 44.2029 19.0548 44.0875C18.9641 44.0731 18.8885 44.0731 18.7977 44.0586C18.7977 44.1596 18.7977 44.275 18.8128 44.3759C18.7221 44.3759 18.6162 44.3615 18.5255 44.3615C18.5406 44.2605 18.5255 44.1596 18.5104 44.0586C18.3592 44.1163 18.2533 44.1307 18.1172 44.1163Z" fill="#4A4A4B"/>
<path d="M31.6522 31.454C31.9093 31.5694 32.1664 31.6703 32.3478 31.8722C32.5293 32.0741 32.6049 32.377 32.4537 32.6077C32.3478 32.7664 32.1361 32.8385 31.9395 32.9106C30.7902 33.3 29.6106 33.6749 28.4008 33.6605C27.1909 33.6317 25.9055 33.1125 25.3308 32.103C25.225 31.9155 25.1493 31.6991 25.1645 31.4972C25.4367 27.7764 29.9584 30.7185 31.6522 31.454Z" fill="#DDC8AF"/>
<path d="M13.3535 35.4488C13.6106 35.0017 14.1248 34.7277 14.6087 34.4825C16.2873 33.6028 18.0265 32.6942 19.9471 32.4779C23.0019 32.1317 26.2382 33.5595 29.1115 32.5644C30.3365 32.1462 31.38 31.3097 32.6805 31.1366C33.7542 30.9924 34.8431 31.353 35.7958 31.8289C36.9754 32.4202 38.0189 33.2134 38.8658 34.1508C37.0057 34.5546 34.9641 33.7758 33.1342 34.3094C32.0454 34.6267 31.1985 35.3767 30.155 35.8093C28.3705 36.5448 26.2987 36.2276 24.3478 36.0689C21.9433 35.867 19.5236 35.8958 17.1342 36.1554C16.3327 36.242 12.1437 37.4823 13.3535 35.4488Z" fill="#EDD9BE"/>
<path d="M27.7051 4.15368C29.3081 4.35559 30.6843 5.35069 31.7126 6.53329C32.0151 6.87941 32.3024 7.25438 32.4234 7.70145C32.6654 8.59561 32.1966 9.50418 31.7429 10.3262C30.7599 12.0713 29.792 13.8019 28.8091 15.5469C27.9622 17.0612 26.223 16.8737 24.8922 15.7921C24.1663 15.2008 23.7278 14.3643 23.3799 13.5135C21.9735 10.0234 21.7618 3.3749 27.7051 4.15368Z" fill="#EDD9BE"/>
<path d="M29.8525 6.6628C30.4575 7.57138 30.6389 8.92703 31.5463 9.54717C32.3478 10.1096 35.2968 10.6 36.068 9.83561C36.7486 9.15778 36.5369 8.01846 36.0227 7.21083C35.1002 5.73981 33.4064 5.45137 32.3327 4.26878C31.0321 2.81217 30.4575 0.980599 28.3856 0.245085C25.845 -0.663491 22.5331 1.24019 21.8072 3.66306C21.4896 4.70143 21.8828 5.61001 22.0643 6.63396C22.3516 8.29247 22.3214 9.9654 22.6238 11.6383C22.6843 11.9989 22.8355 12.446 23.2287 12.5036C23.6068 12.5469 23.8639 12.1719 24.0302 11.8547C24.3478 11.2489 24.6805 10.5567 24.4234 9.93656C24.2268 9.46064 23.7127 9.07125 23.7883 8.56649C23.8488 8.06172 24.5293 7.80213 25.0132 7.98961C25.4972 8.1771 25.7996 8.66744 25.9206 9.14336C26.2382 8.36458 26.0718 7.44158 26.4801 6.69165C26.7826 6.15804 27.3875 5.79749 28.0227 5.75423C28.9603 5.71096 29.4896 6.10035 29.8525 6.6628Z" fill="#5D523E"/>
</g>
<defs>
<linearGradient id="paint0_linear" x1="-0.000204062" y1="48.1612" x2="56.0044" y2="48.1612" gradientUnits="userSpaceOnUse">
<stop stop-color="#4D4D4D"/>
<stop offset="1"/>
</linearGradient>
<linearGradient id="paint1_linear" x1="-0.000204062" y1="48.1612" x2="56.0044" y2="48.1612" gradientUnits="userSpaceOnUse">
<stop/>
<stop offset="1"/>
</linearGradient>
<clipPath id="clip0">
<rect width="56" height="56" fill="white"/>
</clipPath>
</defs>
</svg>
