<svg width="56" height="56" viewBox="0 0 56 56" fill="none" xmlns="http://www.w3.org/2000/svg">
<path d="M37.4317 15.7673C39.2965 17.4009 39.8437 17.8325 40.6605 17.3547C41.4773 16.8769 43.3421 14.4881 43.527 14.2338C43.6969 13.7012 43.7339 13.135 43.6349 12.5848C43.6349 12.2149 44.7446 11.113 44.2976 11.0898C43.6385 11.1552 43.0163 11.4246 42.5176 11.8604C42.2378 12.3239 42.1705 12.8851 42.3326 13.4016C42.3326 13.6174 40.2906 14.9428 40.2906 14.9428C39.4803 14.1739 38.5738 13.5134 37.5935 12.9778C35.5438 12.0068 37.4317 15.7673 37.4317 15.7673Z" fill="#FFB884"/>
<g style="mix-blend-mode:multiply" opacity="0.3">
<path d="M40.1441 16.9621C39.6651 16.9658 39.2016 16.793 38.8419 16.4767L38.3179 16.5537C39.4891 17.5401 39.99 17.7713 40.6296 17.3783C41.5989 16.576 42.4682 15.6602 43.2188 14.6504C43.2188 14.6504 40.5448 16.9005 40.1441 16.9621Z" fill="#FFB884"/>
</g>
<path d="M40.206 46.8532C40.1294 47.3772 40.2666 47.9101 40.5869 48.3318C40.9072 48.7535 41.3836 49.0288 41.909 49.0956C42.6796 49.2497 43.2575 48.7258 44.3517 49.3576C45.5412 50.0556 47.0152 50.0556 48.2047 49.3576C49.4299 48.587 48.8134 48.1093 47.5111 47.6932C46.0257 47.2188 44.576 46.6394 43.1727 45.9594C41.9783 45.3275 42.0169 45.1888 41.4852 45.4354C40.3678 46.0056 40.4141 45.3968 40.206 46.8532Z" fill="#505366"/>
<path d="M35.6673 25.9165C36.0064 25.8625 43.666 30.6324 44.4982 31.7113C45.3304 32.7901 44.1977 33.9691 43.7276 38.4616C43.2576 42.9541 43.1189 45.9208 42.9571 46.4834C42.7952 47.0459 41.2309 47.0613 40.9612 46.4834C40.6915 45.9054 40.6684 43.8248 40.3987 41.6287C40.0134 38.4924 39.3353 39.2013 41.2386 34.2388L34.1955 31.1564L35.6673 25.9165Z" fill="#FFB884"/>
<path d="M18.9686 38.8087C18.2188 38.4127 17.3219 38.4127 16.5721 38.8087C15.8863 39.2402 15.8401 39.9954 14.6071 40.2882C13.3238 40.702 12.3729 41.7892 12.1335 43.1162C11.7714 44.5187 12.5497 44.4416 13.7749 43.8868C15.0595 43.1602 16.3933 42.5242 17.7665 41.9835C18.6977 41.8279 19.5097 41.262 19.9781 40.4423C20.4404 39.2171 18.9686 38.8087 18.9686 38.8087Z" fill="#505366"/>
<path d="M31.5752 29.4841C33.5431 31.2836 35.7498 32.8032 38.1329 33.9997C38.1329 33.9997 39.1192 32.4585 41.1459 28.6595C39.9218 27.9327 38.7361 27.1431 37.5935 26.2938C37.1774 25.8392 37.1774 23.3579 37.1774 23.3579L31.7833 26.5173L31.5752 29.4841Z" fill="#27AAE1"/>
<path d="M34.3263 29.6617C34.4573 29.9777 33.3169 37.9918 32.4692 39.0552C31.6216 40.1186 28.7704 39.6639 24.2856 40.265C19.8008 40.866 19.0919 41.1512 18.5139 41.1512C17.936 41.1512 17.6817 39.8874 18.0824 39.3634C18.4831 38.8394 19.5542 38.6468 21.6271 37.8916C24.7094 36.7665 23.7231 36.0653 29.0016 36.728L29.1711 28.6831L34.3263 29.6617Z" fill="#FFB884"/>
<path d="M36.1372 24.5527C35.1615 27.9219 34.4174 31.3539 33.9102 34.8246C33.8562 35.8957 28.4236 34.8246 27.8765 34.5241C27.8765 34.5241 28.7241 31.7808 28.3543 30.6712C27.9844 29.5615 26.5973 25.5776 28.2849 24.5913H36.1372V24.5527Z" fill="#27AAE1"/>
<path d="M25.6033 11.0825C24.3935 11.5911 20.7178 13.4944 20.1168 13.5407C19.5157 13.5869 18.6295 13.4944 16.025 14.843C13.4204 16.1915 12.6498 17.1547 11.6712 17.1547C10.6925 17.1547 8.13419 18.5032 8.00319 19.3201C7.95696 19.6437 8.41931 19.3817 8.97413 19.3201C9.74241 19.1368 10.4909 18.8787 11.2088 18.5495C11.7868 18.4955 10.2687 19.8441 10.6386 19.8441C11.0085 19.8441 11.4785 19.4357 12.2799 18.8731C13.0813 18.3106 12.9658 17.7789 15.4624 17.278C17.1553 17.0456 18.7717 16.4259 20.1861 15.4671C20.6793 15.3438 26.3508 14.4731 26.3508 14.4731L25.6033 11.0825Z" fill="#FFB884"/>
<path d="M32.0455 8.78613C31.6525 10.0422 30.2885 9.16372 28.0153 9.81872C25.9689 10.4864 23.9983 11.3672 22.1358 12.4464C21.9508 12.6313 22.7831 15.8986 23.0836 16.0219C23.3841 16.1452 27.3372 14.9123 27.6454 15.2513C27.9537 15.5904 28.5701 18.7035 28.416 20.7379C28.2619 22.7722 26.505 24.9915 27.1214 25.1765C27.7379 25.3614 32.7236 26.3477 34.8273 25.6696C35.6909 25.3483 36.5768 25.0907 37.4781 24.899C37.7247 24.8374 37.663 16.831 37.4781 15.7214C37.2931 14.6117 38.0868 11.0979 34.8889 10.5431C31.691 9.98824 32.0455 8.78613 32.0455 8.78613Z" fill="#FFB647"/>
<path d="M35.0969 12.6776C35.6437 12.2466 35.8827 11.5323 35.7057 10.859C35.4311 10.7316 35.1409 10.6409 34.8426 10.5893C31.6447 10.0422 32.0377 8.78613 32.0377 8.78613C31.9178 9.23462 31.4994 9.53719 31.0359 9.51048C30.8741 9.83413 30.928 10.2811 31.7603 11.0516C33.0317 12.3385 34.5729 12.9858 35.0969 12.6776Z" fill="#27AAE1"/>
<path d="M31.6525 7.61523C32.0763 8.59388 31.3443 9.40299 31.6525 10.0426C31.9607 10.6822 34.0953 12.2927 34.8504 11.969C35.6056 11.6454 35.2049 11.3449 35.4669 9.65728C35.7289 7.9697 31.6525 7.61523 31.6525 7.61523Z" fill="#FFB884"/>
<g style="mix-blend-mode:multiply" opacity="0.3">
<path d="M31.6524 7.61523C31.8268 7.98148 31.8544 8.40059 31.7295 8.78652C32.5 9.84993 34.0412 11.63 35.3512 10.9981C35.362 10.5418 35.398 10.0865 35.4591 9.63416C35.7442 7.92347 31.6524 7.61523 31.6524 7.61523Z" fill="#FFB884"/>
</g>
<path d="M34.8041 0.548595C36.7266 0.834475 38.0962 2.56494 37.9327 4.50169C37.8171 6.72868 37.4241 6.04286 37.5782 6.81344C37.7323 7.58403 37.3856 8.80925 35.5824 10.0576C33.7793 11.3059 31.2286 8.13885 31.2286 7.42991C30.8179 7.40199 30.4576 7.14591 30.2962 6.76721C30.1421 6.18156 30.1036 5.01028 30.9974 5.4418C30.526 5.39315 30.182 4.97348 30.2269 4.50169C30.2255 3.34001 30.7303 2.23537 31.6095 1.47607C32.4887 0.716771 33.655 0.378154 34.8041 0.548595Z" fill="#FFB884"/>
<path d="M31.2593 6.60556C31.4988 6.92958 31.8325 7.17177 32.2148 7.29908C32.4406 6.32526 32.5697 5.33152 32.6001 4.33233C33.2324 4.68849 33.9402 4.88922 34.6653 4.91798C34.4306 4.63937 34.2337 4.33105 34.0796 4.00098C34.8497 4.40015 35.6682 4.69801 36.5147 4.88715C37.2666 5.03237 38.043 4.81544 38.6107 4.30151C38.4797 4.11657 37.8401 3.65422 37.948 3.13022C38.1637 2.28258 37.2544 1.13441 36.8306 0.941763C36.1833 0.648941 35.5206 0.602706 34.9581 0.271355C34.3956 -0.0599958 32.8852 -0.244936 32.2765 0.672059C31.6349 0.669647 31.0253 0.951877 30.612 1.44264C29.9801 2.27487 29.8414 4.0241 29.8414 5.16456C29.8414 7.01396 30.6737 7.83849 31.5752 8.1159L31.2593 6.60556Z" fill="#58341F"/>
<path d="M31.2595 6.60567C31.2564 6.27817 31.1688 5.95701 31.0052 5.67326C30.7817 5.44979 30.3502 5.3265 30.3656 5.86591C30.381 6.40532 30.3194 7.55349 31.2595 7.64596C31.4875 8.04482 31.7451 8.42604 32.0301 8.78642C32.0301 8.78642 31.6833 7.57661 31.6371 7.50725C31.5908 7.4379 31.2595 6.60567 31.2595 6.60567Z" fill="#FFB884"/>
<path d="M35.9906 10.9976C37.0232 11.4291 39.5892 13.9335 39.5892 13.9335C39.5892 13.9335 39.1423 16.6768 38.2561 17.1622L35.3664 16.1065L35.9906 10.9976Z" fill="#FFB647"/>
<path d="M38.996 13.3633C38.9511 14.662 38.5309 15.92 37.7862 16.985L38.264 17.1546C39.1502 16.6691 39.5971 13.9258 39.5971 13.9258L38.996 13.3633Z" fill="#27AAE1"/>
<g style="mix-blend-mode:multiply" opacity="0.3">
<path d="M37.4781 16.8775C37.4781 16.8775 37.4781 14.0572 36.7845 12.7549C37.2852 13.4611 37.6725 14.241 37.9327 15.0666C37.9545 15.4499 38.0855 15.8189 38.3103 16.13L37.7863 16.9623L37.4781 16.8775Z" fill="#FFB647"/>
</g>
<g style="mix-blend-mode:multiply" opacity="0.3">
<path d="M38.3179 16.1147C38.1682 16.4234 37.9902 16.7175 37.7862 16.9932L38.264 17.1627C38.5236 16.9847 38.7268 16.736 38.8496 16.4461C38.5029 16.2457 38.3179 16.1147 38.3179 16.1147Z" fill="#27AAE1"/>
</g>
<path d="M33.9794 16.1916C34.1305 16.1739 34.2831 16.1739 34.4341 16.1916C34.8283 16.199 35.2021 16.3684 35.4674 16.66C35.7328 16.9516 35.8663 17.3396 35.8366 17.7328C35.8149 18.1699 35.6179 18.5798 35.2901 18.8699C34.9624 19.1599 34.5315 19.3056 34.095 19.2739C33.4486 19.2433 32.8647 18.8784 32.5539 18.3107L33.4554 17.7867C33.5566 18.0122 33.7786 18.1592 34.0257 18.1643C34.352 18.2058 34.6523 17.9806 34.7038 17.6557C34.6946 17.5091 34.6243 17.3731 34.5101 17.2808C34.3958 17.1884 34.248 17.1484 34.1027 17.1702C33.8776 17.133 33.65 17.2217 33.5094 17.4014L32.7388 17.0007L32.8621 14.689L35.7441 14.7737L35.6978 15.7986L33.9871 15.7215V16.1916H33.9794Z" fill="#27AAE1"/>
<path d="M22.7212 12.0845C22.5152 12.1884 22.317 12.3069 22.1278 12.4389C21.9429 12.6239 22.7751 15.8912 23.0756 16.0145C23.3365 16.0176 23.5963 15.9813 23.8462 15.9066C23.3742 14.6631 22.9981 13.3854 22.7212 12.0845Z" fill="#27AAE1"/>
<g style="mix-blend-mode:multiply" opacity="0.3">
<path d="M37.5242 24.4212C36.4223 24.5676 34.4418 24.845 33.5249 25.0608C32.1994 25.369 28.8166 24.5599 28.8166 24.5599C29.1419 22.2956 29.1393 19.9962 28.8089 17.7325C28.2541 14.2495 27.5143 14.4961 27.4681 14.026C27.4218 13.556 24.2239 14.8429 22.729 15.2821C22.7866 15.5403 22.9056 15.7808 23.0757 15.9833C23.384 16.1066 27.3294 14.8737 27.6376 15.2127C27.9458 15.5518 28.5623 18.665 28.4082 20.6993C28.2541 22.7336 26.4971 24.9529 27.1136 25.1379C27.7301 25.3228 32.7157 26.3091 34.8194 25.631C35.683 25.3097 36.569 25.0521 37.4702 24.8605C37.516 24.7188 37.5343 24.5697 37.5242 24.4212Z" fill="#FFB647"/>
</g>
<path opacity="0.5" d="M41.462 55.9999C43.858 55.9999 45.8004 55.6273 45.8004 55.1677C45.8004 54.7081 43.858 54.3354 41.462 54.3354C39.066 54.3354 37.1236 54.7081 37.1236 55.1677C37.1236 55.6273 39.066 55.9999 41.462 55.9999Z" fill="#F2F2F2"/>
<path d="M33.7794 51.0914C33.7922 48.7665 35.6849 46.891 38.0098 46.8994C40.3347 46.9079 42.2138 48.7973 42.2095 51.1222C42.2053 53.4471 40.3194 55.3296 37.9945 55.3296C35.6611 55.3211 33.7751 53.4248 33.7794 51.0914Z" fill="#F2F2F2"/>
<g style="mix-blend-mode:multiply">
<path d="M41.4387 49.3269V48.6411C41.7761 49.122 42.0097 49.6678 42.1245 50.2439L41.4695 49.3963L40.2828 49.3269V49.2576L41.4387 49.3269Z" fill="#403D3D"/>
<path fill-rule="evenodd" clip-rule="evenodd" d="M34.3647 50.3747L33.8253 50.5057C33.9639 49.5087 34.4529 48.5937 35.2046 47.9243L35.2894 49.0493H36.977H37.0078L38.549 48.1323L38.3717 47.2153H38.3949L38.5721 48.1554L40.2443 49.3113L39.6047 50.9218L40.4215 52.8637L41.5388 52.7096L42.1707 51.4381V51.6385L41.562 52.7173V53.2952C41.1169 54.0313 40.4584 54.6145 39.674 54.9674H39.597L39.3658 54.2893H37.185V54.2199H39.3658L40.4138 52.8791L39.597 50.9373H37.6782H37.6243L36.4607 52.7096L37.1234 54.2508L36.1679 54.8749H36.06C35.3785 54.5205 34.8059 53.9879 34.4032 53.3338L34.5959 52.5247L34.3647 50.3747ZM35.2278 49.173L34.4187 50.3366L34.4726 50.2827L34.7038 52.4095L34.8271 52.4557L36.4684 52.6484L37.632 50.8683L36.9616 49.1345H35.2894L35.2278 49.173Z" fill="#403D3D"/>
<path d="M37.9942 46.8532C38.2293 46.8541 38.4638 46.8747 38.6954 46.9149L38.4026 47.1615L37.7399 46.861L37.9942 46.8532Z" fill="#403D3D"/>
</g>
<g style="mix-blend-mode:multiply">
<path d="M37.4166 54.3276C39.2142 54.2258 40.7017 52.8926 40.9989 51.1168C41.2961 49.3409 40.3238 47.5961 38.6572 46.9146C40.8077 47.2373 42.365 49.1351 42.2617 51.3072C42.1584 53.4793 40.428 55.2207 38.2566 55.3379C36.0852 55.455 34.1775 53.9099 33.8411 51.7615C34.3656 53.2904 35.8002 54.32 37.4166 54.3276Z" fill="#E6E7E8"/>
</g>
<path d="M28.2465 33.0444C28.1925 33.3141 28.1309 33.5607 28.0769 33.815C29.3548 34.3751 30.735 34.6637 32.1302 34.6627C32.7429 34.6631 33.3543 34.6063 33.9565 34.4931C33.9565 34.2851 34.0258 34.0231 34.0721 33.7225C32.1075 34.1208 30.0671 33.8833 28.2465 33.0444Z" fill="#FFB647"/>
<path d="M37.0543 33.4297L40.3678 28.1666L39.7205 27.7505L36.4147 33.0444L37.0543 33.4297Z" fill="#FFB647"/>
<g style="mix-blend-mode:multiply" opacity="0.3">
<path d="M34.6269 28.521C34.6378 28.447 34.6378 28.3717 34.6269 28.2976C34.573 28.182 34.5884 28.2822 34.6269 28.521Z" fill="#27AAE1"/>
<path d="M34.3418 31.7192C35.5441 32.5863 36.8116 33.3592 38.1331 34.0309C38.1331 34.0309 38.3257 33.7227 38.7187 33.06L38.8497 32.536L35.7674 30.9332C35.228 30.6558 34.7887 29.1146 34.6577 28.5059C34.6423 29.2919 34.3418 31.7115 34.3418 31.7192Z" fill="#27AAE1"/>
</g>
</svg>
