<svg width="56" height="56" viewBox="0 0 56 56" fill="none" xmlns="http://www.w3.org/2000/svg">
<g clip-path="url(#clip0)">
<g clip-path="url(#clip1)">
<path d="M19.1094 20.8655C19.9268 21.0306 20.5305 21.0871 20.6438 20.6221C20.7721 20.1592 19.3506 20.0462 19.3506 20.0462C18.991 19.9941 18.2919 20.7003 19.1094 20.8655Z" fill="#B1E0DC"/>
<path d="M36.5584 33.772L35.2999 33.5894L33.9298 35.9691L35.1883 36.1516L36.5584 33.772Z" fill="#352330"/>
<path d="M45.2632 35.0342L44.0047 34.8516L42.6346 37.2313L43.8932 37.4138L45.2632 35.0342Z" fill="#352330"/>
<path d="M8.76593 29.7407L7.5074 29.5582L6.13733 31.9378L7.39586 32.1204L8.76593 29.7407Z" fill="#352330"/>
<path d="M49.1094 37.099L3.8624 30.5366L3.73223 31.4341L48.9793 37.9966L49.1094 37.099Z" fill="#352330"/>
<path d="M19.4946 20.4248L15.4173 25.8599L4.39037 25.7362L5.61945 27.8093L4.80825 29.7109L18.7277 30.0367L19.4946 20.4248Z" fill="#331E2F"/>
<path d="M18.3205 21.031C18.0344 21.8437 18.0263 22.7434 18.7639 23.0368L19.8215 20.5963C19.8215 20.5963 18.7954 19.6553 18.3205 21.031Z" fill="#B1E0DC"/>
<path d="M15.4033 23.1084C14.9745 23.217 13.3616 23.2627 12.7802 24.0016C12.0137 24.9621 12.291 26.7419 12.3688 27.5764C12.5083 29.0411 14.4833 29.4519 16.8967 30.0038L25.1631 24.586C25.1631 24.586 16.4024 22.865 15.4033 23.1084Z" fill="#637DC9"/>
<path d="M17.5229 23.2604C17.4493 23.4517 17.3629 23.6255 17.2593 23.8124C16.3181 25.5553 14.6844 26.4833 13.6075 25.8922C13.0413 25.5771 12.7444 24.8817 12.7437 24.0428C12.0049 25.0229 12.2888 26.7571 12.3688 27.5764C12.5083 29.0411 14.4833 29.4518 16.8967 30.0038L25.1631 24.586C25.1631 24.586 20.4339 23.6516 17.5229 23.2604Z" fill="#4B64A0"/>
<path opacity="0.6" d="M15.4033 23.1086C14.9745 23.2173 13.3616 23.2629 12.7802 24.0018C12.0137 24.9624 12.291 26.7422 12.3689 27.5767C12.3952 27.9222 12.5225 28.2047 12.7336 28.4373C14.505 26.3488 15.6278 24.1974 16.1529 23.1086C15.7889 23.0869 15.5298 23.0804 15.4033 23.1086Z" fill="#843131"/>
<path d="M8.42856 21.9416C8.23825 23.8866 9.80228 25.7599 11.8232 25.9598C13.8418 26.1749 16.1043 23.4432 16.4752 22.3631C16.3987 21.2027 14.4826 19.0143 12.464 18.7992C10.4431 18.5993 8.63384 19.9988 8.42856 21.9416Z" fill="#68C3D8"/>
<path d="M12.4788 19.3293C13.3822 19.4293 14.2948 19.8878 14.9799 20.4376C14.364 19.727 13.4074 19.0446 12.4119 18.9468C11.2667 18.8273 10.1979 19.3402 9.63326 20.1747C10.3041 19.5575 11.3485 19.212 12.4788 19.3293Z" fill="#8ADFED"/>
<path d="M12.9901 23.5041C10.7727 23.1825 9.13191 21.7331 9.14279 20.1814C8.74873 20.6834 8.49346 21.2832 8.42856 21.9417C8.23825 23.8867 9.80228 25.7599 11.8232 25.9598C13.4801 26.138 15.3039 24.3212 16.1124 23.0716C15.256 23.4911 14.1587 23.6736 12.9901 23.5041Z" fill="#4BB5C6"/>
<path d="M19.4946 20.4245L16.0845 28.1154L2.97315 28.1242L4.67469 29.8932L47.0301 36.0362C47.0301 36.0362 53.7821 33.6761 54.4373 32.2179C49.4908 26.9806 34.325 22.591 19.4946 20.4245Z" fill="#C1BD40"/>
<path d="M3.43623 28.5174L4.67469 29.893L47.0301 36.036C37.4094 33.6 16.7657 28.5867 16.7657 28.5867L3.43623 28.5174Z" fill="#A09A30"/>
<path d="M19.6774 20.7459L17.3813 26.3462C27.2603 28.478 47.0318 32.1221 54.0384 32.3307C49.1559 27.1803 34.2531 22.8755 19.6774 20.7459Z" fill="#F9F5AA"/>
<path d="M52.194 37.981L-1.84776 30.1431L-1.99999 31.1927L49.7345 38.696L52.194 37.981Z" fill="#95C2C9"/>
<path d="M14.5257 33.5897L28.744 35.6518L30.2297 34.7956L16.0263 32.7356L14.5257 33.5897Z" fill="#B9D8DB"/>
<g opacity="0.56">
<path opacity="0.56" d="M16.7657 28.5871L37.7452 33.7112L45.2441 31.4749L50.9406 29.5364C49.9408 28.9409 48.8168 28.3585 47.5834 27.7914L39.5107 30.5036L16.7657 28.5871Z" fill="white"/>
</g>
<path d="M17.8306 24.9359L17.2394 26.4811C27.144 28.6476 47.1234 32.2287 54.1578 32.4568C53.9851 32.2765 53.7974 32.0939 53.5947 31.9092C45.7522 31.3464 27.8467 27.072 17.8306 24.9359Z" fill="#C1BD40"/>
<path d="M15.612 26.4157C15.1777 27.3002 15.6377 27.926 16.0995 28.1173L17.3992 25.1683C17.3992 25.1683 16.3724 24.864 15.612 26.4157Z" fill="#D2F9F7"/>
<path d="M15.4378 27.0896C15.4377 27.6177 15.7531 27.9741 16.0845 28.1154L16.3614 27.4721C15.863 27.3222 15.7273 26.9918 15.4378 27.0896Z" fill="#B1E0DC"/>
<path d="M28.837 24.3577L29.0745 24.4077L29.612 22.9169L30.6969 23.1363L29.7432 25.8093L28.2881 25.5051C27.9308 25.4378 27.747 25.3334 27.6541 25.0249L27.2229 23.6732L26.9854 23.6232L26.5216 24.9227L25.898 25.0031L25.3481 24.8923L26.1263 22.6909C26.2281 22.4106 26.5243 22.2671 26.8367 22.328L27.8317 22.5344C28.1891 22.6018 28.375 22.6909 28.4658 23.0147L28.837 24.3577Z" fill="white"/>
<path d="M22.7841 20.948C22.3668 20.8719 21.9623 20.8132 21.5428 20.7524L18.8112 29.0387L14.4432 31.3097L16.7056 31.6378L20.0776 29.3777L22.7841 20.948Z" fill="white"/>
<path d="M16.4756 22.2544C16.3423 21.3808 15.2858 20.0161 13.9397 19.2772L11.1036 23.4323C12.6333 24.8036 15.1057 24.106 16.4756 22.2544Z" fill="#FFF9D9"/>
<path d="M16.3179 22.0762C16.2013 21.2982 15.262 20.0747 14.0697 19.4358L11.5461 23.1237C12.8987 24.345 15.0987 23.7321 16.3179 22.0762Z" fill="#7FC6C9"/>
<path d="M12.2759 25.264C10.9658 25.1206 9.79063 24.4686 9.002 23.5776C9.44686 24.7294 10.5396 25.6334 11.8347 25.7747C12.5582 25.8486 13.3136 25.4921 13.9818 24.9988C13.4304 25.214 12.8346 25.3139 12.2759 25.264Z" fill="#6AD1DB"/>
<path d="M13.5028 22.2893C13.6573 21.2245 13.9783 20.277 14.3772 19.6359C14.2789 19.575 14.1679 19.4968 14.0525 19.449L11.5289 23.1369C12.0559 23.6171 12.7168 23.8062 13.4109 23.7671C13.4022 23.2998 13.4278 22.8065 13.5028 22.2893Z" fill="#5CAAAA"/>
<path opacity="0.41" d="M16.132 21.9868C16.0321 21.3044 15.2078 20.2374 14.1564 19.6811L13.6887 20.3743C13.8556 20.9111 14.3566 21.4652 15.0704 21.8173C15.3996 21.9737 15.7204 22.0824 16.0372 22.1128C16.0738 22.0715 16.0954 22.0281 16.132 21.9868Z" fill="white"/>
<path d="M17.0412 25.7377C17.8564 25.9181 18.4121 26.2006 18.5426 25.7225C18.6709 25.2596 17.2665 25.1335 17.2665 25.1335C16.8964 25.0488 16.2132 25.5399 17.0412 25.7377Z" fill="#D2F9F7"/>
<path d="M16.5863 26.4483C17.3733 26.7178 17.8862 26.9785 18.0744 26.5243C18.2627 26.0702 16.8654 25.7898 16.8654 25.7898C16.5296 25.679 15.8015 26.1636 16.5863 26.4483Z" fill="#D2F9F7"/>
<path d="M16.2557 27.1463C17.0211 27.4592 17.5273 27.7656 17.7284 27.3288C17.9294 26.892 16.5581 26.5378 16.5581 26.5378C16.2095 26.4096 15.4753 26.8312 16.2557 27.1463Z" fill="#D2F9F7"/>
<path d="M10.8145 23.4212C10.788 23.6037 10.9136 23.7928 11.1084 23.821C11.2882 23.8471 11.475 23.7189 11.5037 23.5211C11.5302 23.3386 11.4046 23.1495 11.2099 23.1213C11.0129 23.1082 10.841 23.2386 10.8145 23.4212Z" fill="#FFF9D9"/>
<path d="M10.9643 23.4433C10.9489 23.5498 11.0128 23.6367 11.1177 23.6519C11.2225 23.6671 11.3085 23.6019 11.3239 23.4954C11.3394 23.389 11.2755 23.302 11.1706 23.2868C11.0657 23.2716 10.9776 23.352 10.9643 23.4433Z" fill="#331E2F"/>
</g>
</g>
<defs>
<clipPath id="clip0">
<rect width="56" height="56" fill="white"/>
</clipPath>
<clipPath id="clip1">
<rect width="56" height="14.3415" fill="white" transform="translate(0.0584793 17) rotate(8.25236)"/>
</clipPath>
</defs>
</svg>
