<svg width="56" height="56" viewBox="0 0 56 56" fill="none" xmlns="http://www.w3.org/2000/svg">
<g clip-path="url(#clip0)">
<path fill-rule="evenodd" clip-rule="evenodd" d="M25.1463 22.9386C24.2812 22.534 24.4178 21.3203 25.9204 20.754C28.516 21.2799 29.5177 20.4708 32.3409 20.228C34.39 20.228 32.8418 21.199 32.3409 22.2913C29.0624 24.0309 27.4231 22.2913 25.1463 22.9386Z" fill="#313294"/>
<path fill-rule="evenodd" clip-rule="evenodd" d="M32.5231 35.3184L31.2937 37.2603L30.9749 37.2199L14.4455 3.23651C13.9447 2.2251 14.6732 0.525933 15.4473 0.0404564C15.4929 0 15.4929 0 15.5384 0L15.8116 0.0404564C15.8571 0.202282 15.6295 0.687758 15.9027 1.21369L32.5231 35.3184Z" fill="#0089C4"/>
<path fill-rule="evenodd" clip-rule="evenodd" d="M32.8419 35.3585L31.2937 37.2599L14.7643 3.27656C14.2634 2.26516 14.992 0.565988 15.7661 0.0805118C15.9937 -0.0813136 15.7661 0.282794 16.2669 1.25375L32.8419 35.3585Z" fill="#FF6600"/>
<path fill-rule="evenodd" clip-rule="evenodd" d="M27.0133 24.9611L26.649 25.6084H26.4669L25.4196 23.4642L25.966 22.8169L27.0133 24.9611Z" fill="#333333"/>
<path fill-rule="evenodd" clip-rule="evenodd" d="M27.1499 25.0023L26.649 25.6091L25.8294 23.3436L26.3303 22.6963L27.1499 25.0023Z" fill="#575756"/>
<path fill-rule="evenodd" clip-rule="evenodd" d="M19.2267 9.8305L14.9919 3.72159L14.7643 3.27657C14.2634 2.26516 14.992 0.565988 15.7661 0.0805119C15.9937 -0.0813136 15.7661 0.282794 16.2669 1.25375L16.4946 1.82014L19.2267 9.8305Z" fill="#E30613"/>
<path fill-rule="evenodd" clip-rule="evenodd" d="M27.1955 20.9965C26.6035 21.0774 26.0115 20.9156 25.6472 20.2683C25.4651 19.9447 25.283 19.621 25.1008 19.2974C24.8276 18.8928 24.7821 18.1646 24.4633 18.0837C22.5964 17.6386 22.824 20.1065 23.2794 20.6324C23.3705 20.7538 23.5071 20.9156 23.5981 21.0774C24.3267 21.482 25.0553 22.2507 24.4633 22.6148C24.5089 22.898 24.5999 23.3025 24.7365 23.5048C24.9187 23.5857 25.374 23.6666 25.6472 23.7476C25.7383 23.7476 25.7839 23.6262 25.8749 23.5857C26.4213 23.343 26.1937 23.1812 26.7401 22.6957L27.1955 20.9965Z" fill="#351536"/>
<path fill-rule="evenodd" clip-rule="evenodd" d="M24.6 18.2866C24.3268 18.5294 24.1902 18.7721 24.008 19.2576C23.8714 19.6621 23.325 19.9858 23.7348 20.4713C24.2357 20.8758 24.9643 21.685 25.1464 22.5345C25.2375 23.02 25.283 23.3841 25.5107 23.465C25.7384 23.5055 26.1937 23.6269 26.558 23.6269C27.2411 23.6269 28.7893 23.5055 29.5634 23.3437C29.6544 23.3437 29.8366 23.3032 29.9276 23.0605C29.8366 23.0605 29.7 23.1009 29.6089 23.1009C29.1991 22.6964 28.7437 22.8986 28.4705 22.3323C28.2428 21.8468 28.2884 21.2804 28.516 20.9163C28.6071 20.9163 28.8348 20.8758 28.9259 20.8354C28.9259 20.8354 28.8803 20.6331 28.7437 20.6735C28.1062 20.7545 26.7402 21.0781 26.1482 20.5117C25.875 20.269 25.5107 19.6621 25.3286 19.3789C25.1464 18.8935 25.283 18.3271 24.6 18.2866Z" fill="#0089C4"/>
<path fill-rule="evenodd" clip-rule="evenodd" d="M23.6893 18.0028C23.5982 18.0837 23.5982 18.286 23.5527 18.3669C23.4616 18.4478 23.4161 18.7715 23.3705 18.9333L23.0518 18.8929C22.8696 18.286 22.3687 17.1532 22.5964 16.87C22.642 16.8296 22.6875 16.8296 22.6875 16.8296L22.8696 16.87V16.951C23.0973 17.1532 23.4616 17.7196 23.6893 18.0028Z" fill="#333333"/>
<path fill-rule="evenodd" clip-rule="evenodd" d="M24.008 18.0437C23.7803 18.1246 23.5071 18.6101 23.3705 18.9337C23.1883 18.3269 22.5053 17.1536 22.7785 16.8705C23.0517 16.5468 23.6892 17.6796 24.008 18.0437Z" fill="#575756"/>
<path fill-rule="evenodd" clip-rule="evenodd" d="M26.649 23.6267C26.2847 23.4649 25.966 23.2626 25.8294 22.8176C25.7383 22.5749 25.7838 22.413 26.1481 22.3321C27.1954 22.1298 27.332 21.2398 27.0588 20.8352C27.6508 20.8757 28.0606 20.7948 28.4249 20.7139C27.9695 21.0375 27.8785 21.8062 28.1517 22.3726C28.4249 23.0199 28.9713 22.6558 29.4722 23.3435C29.0169 23.5054 27.5142 23.5863 26.649 23.6267Z" fill="#E30613"/>
<path fill-rule="evenodd" clip-rule="evenodd" d="M26.6491 22.7366C26.6491 22.6152 26.558 22.4939 26.3758 22.4534C26.1937 22.4129 26.0571 22.4939 26.0116 22.6152C26.0116 22.7366 26.1026 22.858 26.2848 22.8984C26.4669 22.9389 26.6491 22.858 26.6491 22.7366Z" fill="#4D4EAF"/>
<path fill-rule="evenodd" clip-rule="evenodd" d="M28.3339 20.7132C27.9696 20.875 27.6053 21.8864 28.3339 22.9383C28.2428 23.0192 27.7874 23.2215 27.6508 22.9383C27.241 22.291 27.241 21.0773 27.6964 20.7941C27.7874 20.7132 28.4249 20.6323 28.3339 20.7132Z" fill="#4D4EAF"/>
<path fill-rule="evenodd" clip-rule="evenodd" d="M27.6508 20.8349C27.2865 20.9968 26.9223 21.9677 27.6508 22.9791C27.5598 23.06 27.1499 23.2219 27.0133 22.9791C26.6035 22.3723 26.649 21.1586 27.0589 20.9159C27.1044 20.7945 27.6964 20.7136 27.6508 20.8349Z" fill="#4D4EAF"/>
<path fill-rule="evenodd" clip-rule="evenodd" d="M25.3285 21.6037C25.6018 21.4014 26.0116 21.2396 26.1026 20.39C26.1937 20.3496 26.6035 20.5114 26.558 20.7137C26.5125 21.2801 26.0116 21.9678 25.6018 21.9678C25.5107 21.9678 25.2375 21.6442 25.3285 21.6037Z" fill="#4D4EAF"/>
<path fill-rule="evenodd" clip-rule="evenodd" d="M24.7821 21.0778C25.1008 20.8756 25.5107 20.7137 25.6473 19.8642C25.7383 19.8237 26.1482 19.9855 26.0571 20.1878C25.966 20.7542 25.4196 21.4015 25.0098 21.4419C24.9187 21.4419 24.691 21.1183 24.7821 21.0778Z" fill="#4D4EAF"/>
<path fill-rule="evenodd" clip-rule="evenodd" d="M47.3677 37.7863C48.8249 39.4855 50.282 40.7396 50.8739 42.8029C51.1016 43.0052 49.4168 43.4502 48.7338 42.8434C48.2329 41.9938 46.7758 41.832 45.3186 39.4046C42.5865 37.5031 43.4061 36.5322 44.1802 36.0871C44.9088 35.6826 45.9106 35.9253 47.3677 37.7863Z" fill="#A41E24"/>
<path fill-rule="evenodd" clip-rule="evenodd" d="M51.1926 42.1556C52.6497 43.6525 52.6953 46.4035 53.0595 47.0913C53.014 47.4554 52.1033 47.9408 51.8301 47.3745C51.3747 46.444 50.9649 45.3921 49.3712 43.8952C49.0524 43.5716 48.1417 42.4792 48.7337 42.0342C49.3712 41.5487 50.1453 41.1037 51.1926 42.1556Z" fill="#A41E24"/>
<path fill-rule="evenodd" clip-rule="evenodd" d="M31.9311 21.8466C31.9767 21.442 31.7945 20.552 32.3865 20.3093C33.0695 20.1474 34.1168 20.0665 34.982 21.6039C37.532 24.5167 37.0766 27.1059 37.8507 28.7646C36.8034 30.0188 36.6668 30.2211 36.7579 31.192C34.7999 31.637 33.1606 30.4233 32.5686 28.8455C31.749 26.58 33.2972 23.6267 31.9311 21.8466Z" fill="#313294"/>
<path fill-rule="evenodd" clip-rule="evenodd" d="M24.7821 32.527C23.6892 32.7697 22.3232 33.417 22.1866 31.2324C23.9624 30.7064 24.9642 29.3309 26.3758 28.2791C28.1972 26.2967 27.4231 28.1981 28.3338 29.0882C28.0151 30.9087 26.1026 31.4751 24.7821 32.527Z" fill="#4D4EAF"/>
<path fill-rule="evenodd" clip-rule="evenodd" d="M28.1517 29.4116C27.2865 29.088 26.8311 28.5216 26.8767 27.9552C26.9222 27.6316 27.1954 27.1865 28.2883 27.2674C31.157 27.0652 32.0222 27.5102 34.2079 28.5216C34.8454 28.0766 35.574 27.9957 36.8489 28.9666C37.3498 30.504 37.5775 32.1222 38.4882 32.6481C36.7579 34.145 35.1641 34.1046 33.4793 32.5672C29.9276 31.0704 29.882 30.0185 28.1517 29.4116Z" fill="#4D4EAF"/>
<path fill-rule="evenodd" clip-rule="evenodd" d="M42.04 40.2944C40.765 40.8204 39.9909 40.9013 39.3078 40.4967C38.3061 40.3349 37.1677 38.8785 37.1221 38.6762C36.5757 35.8442 36.257 34.3473 34.3445 33.7405C33.1606 33.0527 33.6159 29.8567 38.1239 28.6025C40.0364 29.6949 42.8596 31.92 43.998 33.781C45.4096 34.4283 46.0926 36.7343 45.3641 39.4448C44.1346 40.2135 42.2221 40.1731 42.04 40.2944Z" fill="#E30613"/>
<path fill-rule="evenodd" clip-rule="evenodd" d="M36.3025 40.942C35.5739 42.803 35.8472 46.6463 36.3025 46.8891C36.8034 47.0105 37.9873 46.8891 38.0329 46.1609C38.3061 44.1785 39.3989 43.248 39.7632 40.6588C41.0382 38.4742 39.5811 37.665 38.4427 37.665C37.532 37.665 36.4391 37.9482 36.3025 40.942Z" fill="#A41E24"/>
<path fill-rule="evenodd" clip-rule="evenodd" d="M35.4829 45.2303C34.8909 47.6172 35.8927 50.9346 35.9838 51.8651C35.9383 52.1888 37.7141 52.7147 37.6231 51.9865C37.532 50.7324 37.1677 49.9637 37.9418 47.5768C38.124 47.0508 37.8963 45.6753 37.6231 45.028C37.3043 44.2594 36.3481 43.2884 35.4829 45.2303Z" fill="#E30613"/>
<path fill-rule="evenodd" clip-rule="evenodd" d="M41.2204 39.8897C39.9909 38.3524 42.9963 36.5319 44.3168 38.2715C45.4097 39.6875 42.8597 41.9935 41.2204 39.8897Z" fill="#4D4EAF"/>
<path fill-rule="evenodd" clip-rule="evenodd" d="M43.0418 41.8321C43.0418 41.8321 42.5864 41.1848 41.4936 40.052C40.2186 38.7574 43.1784 37.1391 44.3168 38.6765C44.681 39.2024 44.681 40.0115 44.9998 41.3871C45.2275 41.7512 43.0418 41.8321 43.0418 41.8321Z" fill="#DB9669"/>
<path fill-rule="evenodd" clip-rule="evenodd" d="M46.3658 42.762C46.3203 42.3979 46.4114 42.0338 46.4114 41.6697C46.548 41.2651 45.956 41.1842 46.2748 40.5773C46.2748 40.1728 46.0471 39.5255 45.8649 39.1209C45.7739 38.8377 45.6373 38.3927 45.0908 38.15C44.2257 37.7859 43.4971 38.5545 42.723 38.8782C41.9489 39.2018 42.4498 40.0514 42.2676 40.6583C41.9489 41.7506 42.2221 43.1665 43.5882 43.4902C44.1801 43.6116 45.1819 43.6116 45.7283 43.3688C46.0015 43.3688 46.4114 43.1261 46.3658 42.762Z" fill="#F2B387"/>
<path fill-rule="evenodd" clip-rule="evenodd" d="M46.8667 41.4677C47.14 42.8028 46.6846 44.1378 44.5444 44.5828C42.9507 44.9065 41.5846 44.421 41.1293 43.2073C40.9471 42.6814 40.9471 41.5082 40.8105 40.8204C40.8561 40.4968 40.9471 40.0113 41.9944 39.7685C42.5409 39.6472 43.1328 41.1845 43.4516 41.1441C45.1819 40.8609 46.548 41.0227 46.8667 41.4677Z" fill="#431E44"/>
<path fill-rule="evenodd" clip-rule="evenodd" d="M46.9123 41.7512C47.0489 42.9649 46.548 44.1382 44.5445 44.5427C42.9507 44.8664 41.5846 44.3809 41.1293 43.1672C40.9471 42.7222 40.9016 41.6299 40.8561 41.1848C40.9472 40.8207 40.8561 40.3353 41.9034 40.133C42.4498 40.0116 43.0873 41.5085 43.4061 41.468C45.0909 41.2253 46.5025 41.3871 46.9123 41.7512Z" fill="#4D4EAF"/>
<path fill-rule="evenodd" clip-rule="evenodd" d="M46.6846 41.9536C46.7757 43.0459 46.2748 44.0573 44.4534 44.4215C43.6337 44.5833 42.8596 44.5428 42.2677 44.2192C42.723 44.3001 43.2239 44.2596 43.7248 44.1383C45.3641 43.8146 46.4114 42.9246 46.6846 41.9536Z" fill="#A3B6E0"/>
<path fill-rule="evenodd" clip-rule="evenodd" d="M40.9471 42.4383C41.2659 41.9124 42.3132 41.3056 43.3605 41.0628C43.2239 41.0224 43.315 40.6583 43.1329 40.4155C42.1766 40.5369 41.1293 41.2247 40.8561 41.6697C40.8561 41.9529 40.9016 42.1956 40.9471 42.4383Z" fill="#E30613"/>
<path fill-rule="evenodd" clip-rule="evenodd" d="M43.5882 41.1842C44.8632 41.0224 46.1382 41.0628 46.8668 41.6292L47.0034 41.5078C47.0034 41.0628 46.7757 40.5773 46.5025 40.2941C45.9561 39.8491 46.2293 40.4155 45.7284 40.3346C45.5007 40.2941 45.3641 39.9705 45.0909 39.8087C44.6811 39.5659 43.907 39.5255 43.315 40.0109C42.7686 40.3751 42.8141 41.3055 43.5882 41.1842Z" fill="#333333"/>
<path fill-rule="evenodd" clip-rule="evenodd" d="M43.7248 41.0631C44.9998 40.9013 46.2748 40.9417 47.0034 41.5081C47.0489 41.0631 46.7757 40.3349 46.5025 40.0112C45.9561 39.5662 46.3659 40.2944 45.8195 40.2135C45.5918 40.1731 45.4552 39.8494 45.182 39.6876C44.7722 39.4448 43.9981 39.4044 43.4061 39.8899C42.9507 40.2135 42.9052 41.1845 43.7248 41.0631Z" fill="#E30613"/>
<path fill-rule="evenodd" clip-rule="evenodd" d="M46.9579 41.3463C46.9123 40.9417 46.6846 40.5371 46.457 40.2944C45.9105 39.8494 46.3204 40.5776 45.7739 40.4967C45.5463 40.4562 45.3641 40.0517 45.0909 39.8898C44.5445 39.5662 43.3606 39.7685 43.2695 40.4562C43.224 40.8608 43.4061 40.9417 43.6793 40.9013C45.3186 40.6585 46.1838 40.7799 46.9579 41.3463Z" fill="#D0DAF2"/>
<path fill-rule="evenodd" clip-rule="evenodd" d="M46.2293 40.133C46.0471 40.0925 46.2293 40.5376 45.7739 40.4566C45.5463 40.4162 45.3641 40.0116 45.0909 39.8498C44.5445 39.5261 43.3606 39.7284 43.2695 40.4162C43.224 40.8208 43.4061 40.9017 43.6793 40.8612C44.7721 40.6994 45.5007 40.6994 46.1382 40.9017C46.1382 40.8208 46.1837 40.6994 46.2293 40.578C46.2748 40.4567 46.2748 40.3353 46.2293 40.133Z" fill="#A3B6E0"/>
<path fill-rule="evenodd" clip-rule="evenodd" d="M44.2712 40.8204L44.0891 39.7686C43.9525 39.809 43.7703 39.8495 43.6793 39.9304L43.8614 40.8609C43.998 40.8609 44.1346 40.8204 44.2712 40.8204Z" fill="#E5ECFC"/>
<path fill-rule="evenodd" clip-rule="evenodd" d="M34.5266 40.4163L34.4356 42.6414L34.1168 42.7223L1.96877 19.2172C1.01252 18.5294 0.784847 16.7089 1.19467 15.9807C1.2402 15.9402 1.2402 15.8998 1.28574 15.8998L1.55895 15.8188C1.69556 15.9807 1.74109 16.4661 2.24198 16.8303L34.5266 40.4163Z" fill="#0089C4"/>
<path fill-rule="evenodd" clip-rule="evenodd" d="M34.8454 40.3351L34.4811 42.6412L2.2875 19.136C1.33125 18.4482 1.10357 16.6277 1.51339 15.8995C1.65 15.6568 1.65 16.0613 2.56071 16.7491L34.8454 40.3351Z" fill="#FF6600"/>
<path fill-rule="evenodd" clip-rule="evenodd" d="M9.61871 23.1007L2.69732 19.4191L2.2875 19.0955C1.33125 18.4077 1.10357 16.5872 1.51339 15.859C1.65 15.6162 1.65 16.0208 2.56071 16.7086L3.0616 17.0727L9.61871 23.1007Z" fill="#E30613"/>
<path fill-rule="evenodd" clip-rule="evenodd" d="M25.2374 34.0643V34.833L25.1008 34.8735L23.0517 33.3766L23.1883 32.6079L25.2374 34.0643Z" fill="#333333"/>
<path fill-rule="evenodd" clip-rule="evenodd" d="M25.374 34.0234L25.2374 34.8325L23.325 33.1333L23.4616 32.3242L25.374 34.0234Z" fill="#575756"/>
<path fill-rule="evenodd" clip-rule="evenodd" d="M23.3705 30.4639C22.9151 30.7471 22.2777 30.8684 21.6402 30.4639C21.3214 30.2616 21.0027 30.0188 20.6384 29.8166C20.183 29.5738 19.7277 28.9265 19.4545 29.0074C17.5875 29.3715 19.0446 31.4348 19.6821 31.7585C19.8643 31.8394 20.0464 31.9203 20.183 32.0012C21.0482 32.0821 22.0955 32.4462 21.7768 33.0126C21.9589 33.2149 22.2321 33.579 22.4598 33.7004C22.6875 33.7004 23.1428 33.579 23.416 33.5386C23.4616 33.4981 23.4616 33.3767 23.5071 33.2958C23.8714 32.8508 23.5982 32.8103 23.8259 32.163L23.3705 30.4639Z" fill="#351536"/>
<path fill-rule="evenodd" clip-rule="evenodd" d="M19.6821 29.1286C19.5911 29.4523 19.5455 29.7355 19.6366 30.2614C19.7277 30.666 19.3634 31.1919 20.0464 31.4751C20.6839 31.6369 21.7768 32.0415 22.3687 32.7292C22.6875 33.1338 22.9151 33.417 23.1428 33.417C23.3705 33.3361 23.8258 33.2552 24.1446 33.1338C24.7366 32.8506 26.0571 32.1224 26.649 31.6774C26.7401 31.6369 26.8767 31.556 26.8312 31.2728C26.7401 31.3133 26.649 31.3942 26.558 31.4346C25.966 31.2728 25.6928 31.5964 25.1464 31.2323C24.691 30.9087 24.4178 30.3828 24.4633 29.9377C24.5544 29.8973 24.7366 29.7355 24.8276 29.695C24.8276 29.695 24.691 29.5332 24.6 29.6141C24.0991 29.9377 23.0517 30.7873 22.1866 30.5041C21.8223 30.3828 21.1848 30.0186 20.866 29.8164C20.4562 29.4118 20.2741 28.8454 19.6821 29.1286Z" fill="#0089C4"/>
<path fill-rule="evenodd" clip-rule="evenodd" d="M18.6803 29.2498C18.6803 29.3711 18.7714 29.533 18.7258 29.6139C18.7258 29.7352 18.8169 30.0589 18.8624 30.2207L18.5437 30.3016C18.0883 29.8162 17.041 29.0475 17.0866 28.6834C17.0866 28.6429 17.1321 28.6025 17.1321 28.6025L17.3142 28.562L17.3598 28.6429C17.7241 28.7238 18.316 29.0879 18.6803 29.2498Z" fill="#333333"/>
<path fill-rule="evenodd" clip-rule="evenodd" d="M18.999 29.1692C18.8624 29.331 18.8624 29.8974 18.908 30.221C18.4526 29.7355 17.2231 29.0073 17.3142 28.6028C17.3598 28.2387 18.4981 28.9264 18.999 29.1692Z" fill="#575756"/>
<path fill-rule="evenodd" clip-rule="evenodd" d="M24.2356 33.0127C23.8258 33.0127 23.4615 32.9723 23.0972 32.6082C22.9151 32.4059 22.8696 32.2441 23.1428 32.0418C23.9624 31.4349 23.6437 30.5854 23.1883 30.3426C23.7347 30.1403 24.0535 29.8976 24.3722 29.6953C24.1446 30.1808 24.4178 30.8685 24.9642 31.3136C25.5562 31.7586 25.8749 31.2327 26.649 31.6372C26.2847 31.9609 24.9642 32.6486 24.2356 33.0127Z" fill="#E30613"/>
<path fill-rule="evenodd" clip-rule="evenodd" d="M23.7803 32.244C23.7348 32.1226 23.5526 32.0821 23.3705 32.1226C23.1883 32.1631 23.0973 32.3249 23.1428 32.4462C23.1883 32.5676 23.3705 32.6081 23.5526 32.5676C23.6892 32.4867 23.8258 32.3653 23.7803 32.244Z" fill="#4D4EAF"/>
<path fill-rule="evenodd" clip-rule="evenodd" d="M24.2357 29.7758C24.008 30.0994 24.1901 31.1513 25.3741 31.7582C25.3741 31.8795 25.0098 32.2032 24.7821 32.0414C24.0991 31.6368 23.4616 30.5445 23.6892 30.0994C23.7803 29.9781 24.2357 29.6544 24.2357 29.7758Z" fill="#4D4EAF"/>
<path fill-rule="evenodd" clip-rule="evenodd" d="M23.6436 30.1402C23.4159 30.4234 23.5981 31.4348 24.7365 32.0417C24.7365 32.163 24.4177 32.4867 24.1445 32.2844C23.4615 31.9203 22.8695 30.828 23.0972 30.4234C23.1883 30.3425 23.6892 30.0188 23.6436 30.1402Z" fill="#4D4EAF"/>
<path fill-rule="evenodd" clip-rule="evenodd" d="M22.0044 31.7584C22.141 31.4347 22.4142 31.1516 22.0499 30.3424C22.141 30.2615 22.5508 30.2211 22.6419 30.4638C22.9151 30.9897 22.824 31.7584 22.4598 31.9607C22.3232 32.0416 21.9133 31.8393 22.0044 31.7584Z" fill="#4D4EAF"/>
<path fill-rule="evenodd" clip-rule="evenodd" d="M21.2303 31.5157C21.4125 31.1921 21.6857 30.9089 21.4125 30.0998C21.5035 30.0188 21.9134 29.9784 21.9589 30.2211C22.1866 30.7875 22.0044 31.5562 21.6401 31.7585C21.5491 31.7989 21.1848 31.5966 21.2303 31.5157Z" fill="#4D4EAF"/>
<path fill-rule="evenodd" clip-rule="evenodd" d="M53.3328 46.808C53.014 46.363 51.2837 46.5248 51.5114 47.2125C51.6935 47.7385 51.3292 48.5072 51.4658 48.8308C51.5114 48.9926 51.8301 49.2354 51.8756 49.3972C51.9667 49.6399 52.0123 49.6804 52.2399 49.8422C52.4221 49.9636 52.8774 50.3277 53.0596 50.4491C53.3783 50.6109 53.9703 51.0154 54.1069 50.9345C54.1524 50.8941 54.2435 50.7727 54.198 50.6918C54.3346 50.7323 54.4712 50.8941 54.5622 50.7727C54.6989 50.5704 54.4712 50.3681 54.4712 50.3681L54.6078 50.4491C54.8355 50.4086 54.6989 50.0445 54.6078 49.9636C54.5167 49.8422 54.1524 49.5995 54.1069 49.4781C53.8792 49.2354 53.3783 48.669 53.9703 49.1949C54.198 49.4376 54.6078 49.7208 54.6533 49.5186C54.7444 49.1949 54.3801 49.0735 54.198 48.8308C54.0158 48.5881 53.8792 48.224 53.7881 47.9003C53.7426 47.698 53.5149 47.4148 53.5149 47.3339C53.3783 47.0103 53.5149 47.0912 53.3328 46.808Z" fill="#313294"/>
<path fill-rule="evenodd" clip-rule="evenodd" d="M52.331 48.426C52.4676 48.7092 52.2399 48.9115 52.1033 49.1542C51.9212 49.4374 52.2399 50.0038 51.9212 50.4084C51.7846 50.6106 51.6024 50.287 51.6024 49.9229C51.6024 49.5588 51.3748 49.316 51.3748 49.0328C51.3748 48.871 51.4658 48.2642 51.6935 48.1833C52.1944 48.0214 52.1944 48.2642 52.331 48.426Z" fill="#4D4EAF"/>
<path fill-rule="evenodd" clip-rule="evenodd" d="M35.8472 51.9058C36.0748 51.4203 37.7597 51.2585 37.7141 51.9462C37.6686 52.4722 38.215 53.2004 38.1239 53.524C38.1239 53.6859 37.8963 53.969 37.8507 54.1309C37.8507 54.3736 37.7597 54.4545 37.5775 54.6163C37.4409 54.7782 37.0766 55.2232 36.94 55.3446C36.6668 55.5468 36.1659 56.0728 36.0293 55.9919C35.9838 55.9514 35.8927 55.83 35.8927 55.7491C35.8016 55.83 35.665 55.9919 35.574 55.8705C35.3918 55.6682 35.574 55.4659 35.574 55.4659L35.4829 55.5468C35.2552 55.5468 35.3007 55.1827 35.3918 55.0614C35.4373 54.94 35.7106 54.6163 35.8016 54.495C35.9382 54.2118 36.3025 53.5645 35.8927 54.2118C35.7106 54.495 35.3918 54.8186 35.3007 54.6568C35.1641 54.3736 35.4373 54.1713 35.6195 53.8881C35.7561 53.6454 35.8016 53.2004 35.8016 52.9172C35.8016 52.7149 35.9382 52.4317 35.9382 52.3103C35.8016 52.1081 35.7106 52.2294 35.8472 51.9058Z" fill="#313294"/>
<path fill-rule="evenodd" clip-rule="evenodd" d="M37.1677 53.322C37.1222 53.6052 37.3498 53.767 37.532 54.0097C37.7597 54.2929 37.623 54.8593 37.9873 55.183C38.1695 55.3448 38.2605 55.0211 38.215 54.657C38.1239 54.2929 38.3061 54.0097 38.215 53.7265C38.1695 53.5647 37.9873 52.9579 37.7141 52.9579C37.2588 52.877 37.3043 53.1197 37.1677 53.322Z" fill="#4D4EAF"/>
</g>
<defs>
<clipPath id="clip0">
<rect width="56" height="56" fill="white"/>
</clipPath>
</defs>
</svg>
