<svg width="56" height="56" viewBox="0 0 56 56" fill="none" xmlns="http://www.w3.org/2000/svg">
<g clip-path="url(#clip0)">
<path d="M30.1412 12.517C31.1755 11.6461 33.0247 12.255 33.6986 13.4882C34.3724 14.7214 33.5732 15.153 34.2314 15.4768C35.3228 16.2875 35.801 17.6712 35.4381 18.9683C36.1978 18.0073 37.3377 17.4102 38.5723 17.3266C39.5625 17.4305 40.548 17.0941 41.26 16.4094C41.8712 16.024 42.3883 15.0529 42.8898 14.9295C43.3913 14.8062 44.3786 14.2127 44.8174 14.7985C45.1353 15.1159 45.2779 15.5647 45.2001 16.0037C45.1224 16.4427 44.8339 16.8177 44.4256 17.0106C43.642 17.5501 43.1327 17.3651 42.592 17.7813C42.0514 18.1976 39.7555 20.8027 38.4783 21.2498C37.2011 21.6968 35.109 23.3694 34.49 22.2286C33.871 21.0879 32.1941 19.5618 31.818 19.0146C31.5219 18.3626 31.3113 17.6763 31.1912 16.972C31.0658 16.6098 28.1431 14.1742 30.1412 12.517Z" fill="#E5C3B7"/>
<path d="M30.3442 35.9404C30.6811 36.6187 30.6341 38.0369 32.4363 40.2027C32.9378 40.8116 33.8076 41.4128 33.5647 43.0546C33.3218 44.6963 33.3218 45.5595 35.0143 47.7639C36.0847 49.0046 36.7533 50.532 36.934 52.1495C37.0594 53.0205 37.3885 54.8857 37.3885 54.8857C38.2565 54.7735 39.1153 54.6009 39.9586 54.3693C40.3189 54.0128 40.5875 53.5768 40.7421 53.0976C40.7421 53.0976 38.9321 51.0011 38.8145 49.9683C38.697 48.9355 37.7176 43.2704 37.984 42.5998C38.2504 41.9292 38.3287 40.9273 37.4668 39.1391C36.968 38.2157 36.5663 37.2446 36.268 36.241L30.3442 35.9404Z" fill="#E5C3B7"/>
<path d="M25.4711 37.0044C24.8521 37.1585 24.6875 38.1374 24.2252 39.0777C23.951 39.6712 24.3271 40.9738 22.854 40.758C21.3809 40.5422 20.8246 40.1414 18.7246 41.1126C16.6246 42.0837 15.512 41.4131 14.8068 41.3746C14.1016 41.3361 12.8949 41.3746 12.8949 41.3746C12.672 42.205 12.5278 43.0539 12.4639 43.9104C12.6909 44.2687 13.0028 44.5675 13.3728 44.7814C13.3728 44.7814 15.5355 43.7408 16.4052 43.8179C17.275 43.895 23.7473 44.0646 24.3428 44.1879C25.9099 44.5116 26.4819 43.7331 27.3908 42.8159C28.2959 41.8179 28.9247 40.6075 29.2165 39.3013L25.4711 37.0044Z" fill="#E5C3B7"/>
<path d="M25.9795 31.7788C25.9795 31.7788 24.6083 37.6674 23.9109 38.7157L28.9728 40.9894C29.9008 39.748 30.6277 38.3725 31.1276 36.9121L25.9795 31.7788Z" fill="#C2C2C2"/>
<path d="M26.474 26.9609C25.6051 27.7525 24.9575 28.7504 24.5935 29.859C23.9588 31.9169 25.8002 33.6434 27.5475 34.7842C29.2949 35.9249 31.8101 40.7499 31.8101 40.7499L37.4831 37.9443C37.4831 37.9443 35.8377 34.4142 35.3597 33.2426C34.8817 32.0711 32.9385 28.1402 32.9385 28.1402L26.474 26.9609Z" fill="white"/>
<path d="M30.6732 9.0332C30.6732 9.0332 31.3941 9.86563 34.4343 10.8753C34.4343 10.8753 37.5686 12.9255 37.404 16.1936C37.2395 19.4616 34.8966 22.1593 34.4813 23.5543C34.0661 24.9494 33.2668 28.6568 33.2668 28.6568C30.95 28.3058 28.6726 27.738 26.4655 26.9611C27.0337 25.7544 27.3177 24.437 27.296 23.1073C27.1158 21.3654 26.677 17.0106 27.1628 14.5287C27.6807 12.3645 28.9157 10.4312 30.6732 9.0332V9.0332Z" fill="#347CFF"/>
<path d="M35.7431 1.8418C36.0642 2.14697 36.2806 2.54302 36.3621 2.97482C36.4561 3.43727 36.7852 3.68392 36.5972 4.01534C36.464 4.43723 36.6183 4.89573 36.9811 5.15607C37.3964 5.55687 37.5766 5.81892 37.1848 5.9962C36.7931 6.17347 36.8557 6.13494 36.8871 6.24284C36.9184 6.35075 37.1065 6.48949 36.8871 6.69759C36.9961 6.78797 37.0165 6.94543 36.9341 7.05985C36.7852 7.23712 36.7147 7.3142 36.8322 7.47606C36.9569 7.61064 37.0157 7.79206 36.9931 7.97279C36.9705 8.15351 36.8688 8.31553 36.7147 8.41639C36.2289 8.66303 35.1868 8.51659 35.0771 8.67845C35.0137 8.96192 34.882 9.22626 34.6931 9.44921C34.4152 9.95637 34.3397 10.5473 34.4815 11.1063C34.4815 11.1063 31.8253 10.7826 30.5637 9.31047C30.8013 8.82918 30.9321 8.30374 30.9477 7.76895C30.9477 7.76895 31.5353 7.87686 31.4648 7.59938C31.5946 7.43774 31.6588 7.23452 31.645 7.02902C31.725 6.7705 31.6908 6.49084 31.551 6.25826C31.589 6.12597 31.563 5.98384 31.4805 5.87288C31.3139 5.71432 31.2063 5.50532 31.1749 5.27939C31.1279 4.99421 32.4208 3.89202 32.4678 3.73787C32.5964 3.59027 32.6636 3.4003 32.6558 3.20604C32.6079 3.16229 32.5806 3.10084 32.5806 3.03648C32.5806 2.97212 32.6079 2.91067 32.6558 2.86691C32.7342 2.92857 35.7431 1.8418 35.7431 1.8418Z" fill="#E5C3B7"/>
<path d="M30.9007 8.09299C31.0887 7.02934 30.2895 5.91174 29.8194 5.00995C29.3492 4.10816 29.2709 1.7188 31.2219 1.15614C33.173 0.593486 35.3827 0.948036 35.4924 0C35.4924 0 36.3935 1.30259 35.8371 2.05793C34.462 2.67854 33.5805 4.03039 33.5805 5.51865L33.1103 5.64197C33.1103 5.64197 33.1103 4.47812 32.4286 4.57832C31.7469 4.67852 32.2327 5.34908 32.2092 5.64197C32.1857 5.93486 31.8018 6.51293 32.4756 6.45898C32.4756 6.45898 32.6794 6.94456 31.6921 7.65366C31.4481 7.83222 31.1822 7.97983 30.9007 8.09299Z" fill="#37120B"/>
<path d="M31.5663 10.4977C33.1334 11.2685 33.3293 13.6963 32.1305 15.0683C30.9316 16.4403 30.007 15.7235 29.9365 16.6098C29.866 17.4962 28.4712 19.4154 26.2146 19.6929C26.2146 19.6929 28.8709 20.348 29.8033 22.4984C30.7357 24.6489 31.3077 24.9572 32.0913 25.4813C32.8749 26.0054 34.3401 26.1364 34.7398 26.6606C35.1394 27.1847 35.7114 27.4313 35.2804 28.2792C35.1499 28.6906 34.8188 29.0105 34.3982 29.1313C33.9776 29.2522 33.5234 29.158 33.1883 28.8803C32.1226 28.2252 32.0208 27.7936 31.2764 27.3388C30.532 26.8841 26.575 25.2038 25.3997 23.9398C24.2243 22.6757 20.7531 20.3711 21.8579 19.1071C22.7762 17.9561 23.6189 16.7487 24.381 15.4922C24.8668 14.7985 26.2381 14.0971 26.5985 13.7965C26.959 13.496 28.5182 8.99471 31.5663 10.4977Z" fill="#E5C3B7"/>
<path d="M40.2415 52.581C39.737 53.0858 39.063 53.3926 38.3453 53.4443C37.7968 53.3749 37.0054 52.8431 36.8957 53.2439C36.7111 53.9204 36.7111 54.6329 36.8957 55.3095C36.8125 55.4445 36.8125 55.6138 36.8957 55.7488C37.0211 56.0417 37.7576 56.0417 38.6979 55.9338C39.6382 55.8259 42.5139 55.7488 43.2739 55.4328C44.034 55.1168 44.7157 54.7314 44.7784 54.3615C44.8411 53.9915 44.9821 53.1899 44.2926 53.3672C43.6775 53.5641 43.0202 53.596 42.3885 53.4597C41.846 53.2785 41.3214 53.0488 40.8214 52.7737C40.5001 52.5039 40.3669 52.4346 40.2415 52.581Z" fill="#347CFF"/>
<path d="M14.5556 44.3266C14.2988 43.7182 14.2765 43.0385 14.4929 42.4151C14.7514 41.9835 15.5037 41.4979 15.1902 41.2589C14.67 40.8488 14.0478 40.5827 13.388 40.4882C13.3 40.3689 13.1526 40.3067 13.0041 40.3263C12.7063 40.3263 12.4399 40.9506 12.2205 41.7831C12.0011 42.6155 10.9982 45.0665 10.9982 45.8296C10.9982 46.5926 11.0844 47.294 11.39 47.4867C11.6955 47.6794 12.3381 48.0879 12.4321 47.4327C12.4828 46.8415 12.6938 46.2746 13.0433 45.791C13.396 45.4047 13.7842 45.0512 14.203 44.7351C14.5242 44.5732 14.6417 44.4884 14.5556 44.3266Z" fill="#005AFF"/>
</g>
<defs>
<clipPath id="clip0">
<rect width="56" height="56" fill="white"/>
</clipPath>
</defs>
</svg>
