<svg width="56" height="56" viewBox="0 0 56 56" fill="none" xmlns="http://www.w3.org/2000/svg">
<path d="M55.994 36.5981L37.1029 35.8391L37.0248 35.833L8.33659 36.3795L6.76184 36.5009L0 37.0474V38.9539L55.994 38.6139V36.5981Z" fill="#00A19A"/>
<path d="M37.139 36.1183C37.1488 36.437 37.0302 36.746 36.8105 36.9749C36.5908 37.2037 36.2886 37.3328 35.973 37.3327H7.86778C7.37202 37.3233 6.93282 37.0074 6.76184 36.5373L8.3366 36.4097L12.8325 36.3247L23.2247 36.1244L28.8265 36.0211L31.2006 35.9726L37.0248 35.8633H37.103C37.1256 35.9464 37.1377 36.0321 37.139 36.1183Z" fill="#3C3C3B"/>
<path d="M22.371 12.4869L23.8135 10.3496C24.6216 10.7724 25.4523 11.1494 26.3019 11.479L24.649 14.4299C24.649 14.4299 22.1606 13.3552 22.371 12.4869Z" fill="#FFBE78"/>
<path d="M22.6354 10.9574C22.4196 10.3455 22.3098 9.70052 22.3108 9.05088C22.4851 6.15462 24.4987 6.35499 25.5625 6.38535C26.8067 6.47642 27.9667 7.36291 27.9667 9.29375C27.9233 9.40996 27.8731 9.52349 27.8165 9.63377L28.1951 10.7206C28.2247 10.8061 28.2158 10.9003 28.1707 10.9786C28.1256 11.0568 28.0489 11.1112 27.9607 11.1274L27.6842 11.1942C27.6842 11.3885 27.6842 12.2204 27.6842 12.2204C27.6542 12.7122 27.3657 13.3619 26.7766 13.3315L26.1756 13.289C25.1177 13.0406 24.3806 12.0723 24.4145 10.9756C23.9397 10.8906 22.7977 11.3703 22.6354 10.9574Z" fill="#FFBE78"/>
<path d="M23.1766 11.5643C25.1 12.0501 24.0782 9.77919 24.0782 9.77919C24.0782 9.77919 24.4929 10.4957 24.6432 10.696C24.9557 10.696 24.9557 10.696 25.2442 10.696C25.4306 8.23695 24.9858 7.11366 27.6484 7.76942C28.1834 7.69048 28.532 6.00859 25.2803 6.00859C23.9144 5.89992 22.6813 6.8335 22.4012 8.18837C22.1188 9.57275 22.0586 11.1696 23.1766 11.5643Z" fill="#3C3C3B"/>
<path d="M23.7414 9.96755C23.7251 10.4054 23.9858 10.8055 24.3905 10.9633C24.685 10.9633 24.661 10.599 24.679 10.1497C24.679 9.85218 24.7752 9.42715 24.4566 9.31786C24.138 9.20857 23.7594 9.29965 23.7414 9.96755Z" fill="#FFBE78"/>
<path d="M22.936 13.9446C22.2011 13.8774 21.5484 14.4178 21.4695 15.159C21.4029 15.9014 21.9378 16.5607 22.6716 16.6405L26.5844 16.9927V14.2178L22.936 13.9446Z" fill="#47AADB"/>
<path d="M29.4275 14.527L26.6086 14.272V17.0286L29.1811 17.2593C29.916 17.3265 30.5687 16.7862 30.6477 16.0449C30.6897 15.6793 30.5838 15.312 30.3541 15.0263C30.1245 14.7406 29.7904 14.5605 29.4275 14.527Z" fill="#EBAF6E"/>
<path d="M35.0594 11.6677C35.2397 11.9895 35.2938 12.4388 34.6386 13.0946L30.251 17.0291C29.6451 17.4699 28.8003 17.3313 28.3637 16.7194C27.9274 16.1074 28.0646 15.254 28.6702 14.8129L33.8693 11.5645C34.2453 11.3307 34.7283 11.3726 35.0594 11.6677Z" fill="#EBAF6E"/>
<path d="M18.1336 22.9548L17.827 25.4625L22.1847 26.3976L23.1043 24.5457L23.3447 24.0599L23.507 23.726L18.1756 22.627L18.1336 22.9548Z" fill="#E6332A"/>
<path d="M23.8436 13.0399C23.2004 12.6938 22.0765 12.1109 21.1929 12.3295C19.9127 12.6513 19.3056 13.9385 19.1313 14.8068L18.1756 22.6334L23.507 23.7385L26.3019 18.0977C27.7384 14.7279 25.2139 13.7746 23.8436 13.0399Z" fill="#52C6FF"/>
<path d="M23.2188 36.0946C22.9782 36.6128 22.5469 37.0158 22.0167 37.2179L21.4938 37.3029H10.0738C10.158 37.2543 10.2601 37.1996 10.3683 37.1511L12.8567 36.2949L20.6704 33.6051C21.6795 33.1598 22.855 33.6244 23.297 34.6434V34.6798C23.4652 35.1421 23.437 35.6541 23.2188 36.0946Z" fill="#EBAF6E"/>
<path d="M21.9684 25.7906C21.7344 24.7019 20.6728 24.0095 19.5943 24.2423H19.5522C18.4576 24.3813 17.6807 25.3888 17.8152 26.495C17.9893 27.9107 18.2849 29.3084 18.6987 30.6724L22.6957 30.1866L21.9684 25.7906Z" fill="#CC2D25"/>
<path d="M22.7015 30.1865L18.7045 30.6723C19.3781 32.9921 20.4085 35.1907 21.7579 37.1873C22.8525 37.0484 23.6294 36.0409 23.4949 34.9347L22.7015 30.1865Z" fill="#EBAF6E"/>
<path d="M32.0539 26.7799L31.2184 35.9484L31.0922 37.3024H28.9284L28.8443 35.9909L28.2432 27.211C28.1584 26.6835 28.2851 26.1435 28.5953 25.7106C28.9055 25.2776 29.3736 24.9872 29.8961 24.9037H29.9382C30.4651 24.8688 30.9842 25.0469 31.381 25.3988C31.7779 25.7507 32.0199 26.2476 32.0539 26.7799Z" fill="#FFBE78"/>
<path d="M20.1051 23.7684C19.5543 23.7125 19.0041 23.8801 18.5757 24.2343C18.1472 24.5885 17.8758 25.1002 17.8211 25.6567V25.6992C17.7434 26.587 18.2238 27.4291 19.0232 27.8061C20.3035 28.4133 22.4793 28.6319 24.6852 28.5651L25.5807 24.3148L20.1051 23.7684Z" fill="#E6332A"/>
<path d="M30.0825 24.7703L25.5445 24.3149L24.649 28.5652C28.2553 28.4559 31.9037 27.6787 32.0118 27.0169C32.1801 25.9422 31.8496 24.8918 30.0825 24.7703Z" fill="#FFBE78"/>
<path d="M26.362 14.7398C26.1476 14.449 25.8277 14.2562 25.4726 14.2038C25.1175 14.1514 24.7563 14.2438 24.4686 14.4605C24.1808 14.677 23.9899 15.0002 23.938 15.3589C23.8862 15.7177 23.9776 16.0825 24.1922 16.3731L26.9149 20.0527L28.9345 18.1704L26.362 14.7398Z" fill="#52C6FF"/>
<path d="M30.2511 20.0105L28.8987 18.189L26.8792 20.0712L28.0813 21.6681C28.2956 21.9589 28.6156 22.1518 28.9707 22.2041C29.3258 22.2565 29.687 22.1642 29.9746 21.9474C30.2695 21.7306 30.4652 21.4026 30.5173 21.0379C30.5693 20.6732 30.4734 20.3027 30.2511 20.0105Z" fill="#FFBE78"/>
<path d="M37.0548 19.8342C37.0548 20.2046 36.3997 20.6843 35.6604 20.7814L29.4335 22.2386C29.0771 22.2869 28.7163 22.1897 28.431 21.9687C28.1456 21.7477 27.9592 21.4209 27.9128 21.0607C27.8651 20.7007 27.9612 20.3363 28.18 20.048C28.3988 19.7597 28.7223 19.5714 29.0789 19.5245L35.6904 19.0449C36.4237 18.9477 36.9527 19.0874 37.0548 19.8342Z" fill="#FFBE78"/>
<path d="M55.994 38.6143L0 38.9543V41.4862H55.994V38.6143Z" fill="#EDEDED"/>
<path d="M55.994 40.1019C55.5072 40.0214 55.0146 39.9828 54.5214 39.9866C53.4348 39.9592 52.355 40.1662 51.3538 40.5937C49.724 41.2755 47.8928 41.2755 46.2629 40.5937C44.2336 39.7617 41.9632 39.7617 39.9339 40.5937C38.304 41.2755 36.4728 41.2755 34.8429 40.5937C32.8136 39.7617 30.5432 39.7617 28.5139 40.5937C26.884 41.2755 25.0528 41.2755 23.4229 40.5937C22.424 40.1662 21.346 39.9591 20.2614 39.9866V45.6759C21.1354 45.6509 22.004 45.8231 22.8039 46.1798C24.8333 47.0219 27.1095 47.0219 29.139 46.1798C30.7682 45.5057 32.5946 45.5057 34.2239 46.1798C36.2533 47.0219 38.5295 47.0219 40.5589 46.1798C42.1882 45.5057 44.0146 45.5057 45.6438 46.1798C47.6733 47.0219 49.9495 47.0219 51.9789 46.1798C52.7807 45.8224 53.6514 45.6502 54.5274 45.6759C55.0222 45.6673 55.5163 45.7162 56 45.8216V40.1019H55.994Z" fill="#ADF0FF"/>
<path d="M55.994 40.1019C55.5072 40.0213 55.0146 39.9827 54.5214 39.9866C53.4348 39.959 52.3549 40.166 51.3538 40.5937C49.724 41.2755 47.8928 41.2755 46.2629 40.5937C44.2336 39.7617 41.9632 39.7617 39.9339 40.5937C38.304 41.2755 36.4728 41.2755 34.8429 40.5937C32.8136 39.7617 30.5432 39.7617 28.5139 40.5937C26.884 41.2755 25.0528 41.2755 23.4229 40.5937C22.424 40.166 21.3461 39.9589 20.2614 39.9866V41.6927C21.1354 41.6678 22.004 41.84 22.8039 42.1967C24.8333 43.0388 27.1095 43.0388 29.139 42.1967C30.7682 41.5226 32.5946 41.5226 34.2239 42.1967C36.2533 43.0388 38.5295 43.0388 40.5589 42.1967C42.1882 41.5226 44.0146 41.5226 45.6438 42.1967C47.6733 43.0388 49.9495 43.0388 51.9789 42.1967C52.7807 41.8393 53.6514 41.6671 54.5274 41.6927C55.0222 41.6842 55.5163 41.7331 56 41.8385V40.1019H55.994Z" fill="#52C6FF"/>
<path d="M55.994 44.1156C55.5072 44.0354 55.0146 43.9968 54.5214 44.0002C53.4346 43.97 52.3541 44.1772 51.3538 44.6074C49.724 45.2892 47.8928 45.2892 46.2629 44.6074C44.2336 43.7754 41.9632 43.7754 39.9339 44.6074C38.304 45.2892 36.4728 45.2892 34.8429 44.6074C32.8136 43.7754 30.5432 43.7754 28.5139 44.6074C26.884 45.2892 25.0528 45.2892 23.4229 44.6074C22.4248 44.1769 21.3463 43.9698 20.2614 44.0002V45.7064C21.1354 45.6815 22.004 45.8537 22.8039 46.2104C24.8333 47.0525 27.1095 47.0525 29.139 46.2104C30.7682 45.5362 32.5946 45.5362 34.2239 46.2104C36.2533 47.0525 38.5295 47.0525 40.5589 46.2104C42.1882 45.5362 44.0146 45.5362 45.6438 46.2104C47.6733 47.0525 49.9495 47.0525 51.9789 46.2104C52.7807 45.853 53.6514 45.6808 54.5274 45.7064C55.0222 45.6979 55.5163 45.7468 56 45.8521V44.1156H55.994Z" fill="#52C6FF"/>
<path d="M55.994 44.1093C55.5072 44.029 55.0146 43.9904 54.5214 43.9939C53.4346 43.9637 52.3541 44.1708 51.3538 44.6011C49.724 45.2828 47.8928 45.2828 46.2629 44.6011C44.2336 43.769 41.9632 43.769 39.9339 44.6011C38.304 45.2828 36.4728 45.2828 34.8429 44.6011C32.8136 43.769 30.5432 43.769 28.5139 44.6011C26.884 45.2828 25.0528 45.2828 23.4229 44.6011C22.4248 44.1706 21.3463 43.9634 20.2614 43.9939V49.6771C21.1354 49.6522 22.004 49.8244 22.8039 50.1811C24.8332 51.0239 27.1097 51.0239 29.139 50.1811C30.7684 49.5076 32.5944 49.5076 34.2239 50.1811C36.2532 51.0239 38.5296 51.0239 40.5589 50.1811C42.1884 49.5076 44.0144 49.5076 45.6438 50.1811C47.6731 51.0239 49.9496 51.0239 51.9789 50.1811C52.7807 49.8237 53.6514 49.6515 54.5274 49.6771C55.0222 49.6683 55.5163 49.7172 56 49.8228V44.1093H55.994Z" fill="#ADF0FF"/>
<path d="M55.994 44.1093C55.5072 44.029 55.0146 43.9904 54.5214 43.9939C53.4346 43.9637 52.3541 44.1708 51.3538 44.6011C49.724 45.2828 47.8928 45.2828 46.2629 44.6011C44.2336 43.769 41.9632 43.769 39.9339 44.6011C38.304 45.2828 36.4728 45.2828 34.8429 44.6011C32.8136 43.769 30.5432 43.769 28.5139 44.6011C26.884 45.2828 25.0528 45.2828 23.4229 44.6011C22.4248 44.1706 21.3463 43.9634 20.2614 43.9939V45.7001C21.1354 45.6752 22.004 45.8473 22.8039 46.204C24.8332 47.0468 27.1097 47.0468 29.139 46.204C30.7684 45.5305 32.5944 45.5305 34.2239 46.204C36.2532 47.0468 38.5296 47.0468 40.5589 46.204C42.1884 45.5305 44.0144 45.5305 45.6438 46.204C47.6731 47.0468 49.9496 47.0468 51.9789 46.204C52.7807 45.8466 53.6514 45.6744 54.5274 45.7001C55.0222 45.6913 55.5163 45.7402 56 45.8458V44.1093H55.994Z" fill="#52C6FF"/>
<path d="M55.994 48.0927C55.5072 48.0124 55.0146 47.9738 54.5214 47.9773C53.4346 47.9471 52.3541 48.1542 51.3538 48.5845C49.724 49.2662 47.8928 49.2662 46.2629 48.5845C44.2336 47.7524 41.9632 47.7524 39.9339 48.5845C38.304 49.2662 36.4728 49.2662 34.8429 48.5845C32.8136 47.7524 30.5432 47.7524 28.5139 48.5845C26.884 49.2662 25.0528 49.2662 23.4229 48.5845C22.4248 48.154 21.3463 47.9468 20.2614 47.9773V49.6835C21.1354 49.6588 22.0039 49.8309 22.8039 50.1874C24.8332 51.0302 27.1097 51.0302 29.139 50.1874C30.7684 49.5139 32.5944 49.5139 34.2239 50.1874C36.2532 51.0302 38.5296 51.0302 40.5589 50.1874C42.1884 49.5139 44.0144 49.5139 45.6438 50.1874C47.6731 51.0302 49.9496 51.0302 51.9789 50.1874C52.7807 49.83 53.6514 49.6578 54.5274 49.6835C55.0222 49.6747 55.5163 49.7236 56 49.8292V48.0927H55.994Z" fill="#52C6FF"/>
<path d="M23.6035 40.636C21.5724 39.8023 19.2995 39.8023 17.2684 40.636C15.6385 41.3178 13.8074 41.3178 12.1775 40.636C10.1482 39.804 7.87773 39.804 5.84842 40.636C4.21855 41.3178 2.38738 41.3178 0.75751 40.636C0.5231 40.5449 0.276669 40.4478 0.00619507 40.3628V46.1735L0.138427 46.2281C2.16785 47.0703 4.44409 47.0703 6.47352 46.2281C8.10481 45.5536 9.93313 45.5536 11.5644 46.2281C13.5921 47.0686 15.8658 47.0686 17.8935 46.2281C19.5248 45.5536 21.3531 45.5536 22.9844 46.2281C23.9849 46.6579 25.0652 46.865 26.152 46.8353V41.146C25.2755 41.1693 24.4049 40.9951 23.6035 40.636Z" fill="#ADF0FF"/>
<path d="M23.6035 40.6423C21.5724 39.8087 19.2995 39.8087 17.2684 40.6423C15.6385 41.3241 13.8074 41.3241 12.1775 40.6423C10.1482 39.8103 7.87773 39.8103 5.84842 40.6423C4.21855 41.3241 2.38738 41.3241 0.75751 40.6423C0.5231 40.5513 0.276669 40.4541 0.00619507 40.3691V42.1907L0.138427 42.2453C2.16785 43.0874 4.44409 43.0874 6.47352 42.2453C8.10481 41.5708 9.93313 41.5708 11.5644 42.2453C13.5921 43.0858 15.8658 43.0858 17.8935 42.2453C19.5248 41.5708 21.3531 41.5708 22.9844 42.2453C23.9848 42.6752 25.0652 42.8823 26.152 42.8525V41.1463C25.276 41.1715 24.4054 40.9994 23.6035 40.6423Z" fill="#52C6FF"/>
<path d="M23.6035 44.6257C21.5724 43.7921 19.2995 43.7921 17.2684 44.6257C15.6385 45.3075 13.8074 45.3075 12.1775 44.6257C10.1482 43.7937 7.87773 43.7937 5.84842 44.6257C4.21855 45.3075 2.38738 45.3075 0.75751 44.6257C0.5231 44.5347 0.276669 44.4375 0.00619507 44.3464V46.168L0.138427 46.2226C2.16785 47.0647 4.44409 47.0647 6.47352 46.2226C8.10481 45.5481 9.93313 45.5481 11.5644 46.2226C13.5921 47.0631 15.8658 47.0631 17.8935 46.2226C19.5248 45.5481 21.3531 45.5481 22.9844 46.2226C23.9849 46.6524 25.0652 46.8594 26.152 46.8298V45.1236C25.2764 45.1508 24.4059 44.9807 23.6035 44.6257Z" fill="#52C6FF"/>
<path d="M23.6035 44.6194C21.5724 43.7857 19.2995 43.7857 17.2684 44.6194C15.6385 45.3011 13.8074 45.3011 12.1775 44.6194C10.1482 43.7874 7.87773 43.7874 5.84842 44.6194C4.21855 45.3011 2.38738 45.3011 0.75751 44.6194C0.5231 44.5283 0.276669 44.4312 0.00619507 44.3401V50.1326L0.138427 50.1873C2.16773 51.03 4.44422 51.03 6.47352 50.1873C8.10493 49.5134 9.93301 49.5134 11.5644 50.1873C13.592 51.0284 15.866 51.0284 17.8935 50.1873C19.5249 49.5134 21.353 49.5134 22.9844 50.1873C23.9848 50.6173 25.0652 50.8244 26.152 50.7944V45.1112C25.2769 45.1402 24.4064 44.9723 23.6035 44.6194Z" fill="#ADF0FF"/>
<path d="M23.6035 44.6194C21.5724 43.7857 19.2995 43.7857 17.2684 44.6194C15.6385 45.3011 13.8074 45.3011 12.1775 44.6194C10.1482 43.7874 7.87773 43.7874 5.84842 44.6194C4.21855 45.3011 2.38738 45.3011 0.75751 44.6194C0.5231 44.5283 0.276669 44.4312 0.00619507 44.3401V46.1616L0.138427 46.2163C2.16773 47.0591 4.44422 47.0591 6.47352 46.2163C8.10493 45.5424 9.93301 45.5424 11.5644 46.2163C13.592 47.0574 15.866 47.0574 17.8935 46.2163C19.5249 45.5424 21.353 45.5424 22.9844 46.2163C23.9848 46.6464 25.0652 46.8535 26.152 46.8235V45.1173C25.2764 45.1444 24.4059 44.9743 23.6035 44.6194Z" fill="#52C6FF"/>
<path d="M23.6035 48.6023C21.5724 47.7686 19.2995 47.7686 17.2684 48.6023C15.6385 49.2841 13.8074 49.2841 12.1775 48.6023C10.1482 47.7703 7.87773 47.7703 5.84842 48.6023C4.21855 49.2841 2.38738 49.2841 0.75751 48.6023C0.5231 48.5112 0.276669 48.4141 0.00619507 48.323V50.1445L0.138427 50.1992C2.16773 51.042 4.44422 51.042 6.47352 50.1992C8.10493 49.5253 9.93301 49.5253 11.5644 50.1992C13.592 51.0403 15.866 51.0403 17.8935 50.1992C19.5249 49.5253 21.353 49.5253 22.9844 50.1992C23.9848 50.6293 25.0652 50.8364 26.152 50.8064V49.1002C25.2764 49.1273 24.4059 48.9572 23.6035 48.6023Z" fill="#52C6FF"/>
<path d="M34.8009 12.9303L33.8453 11.5338L34.5906 9.85193L36.9106 9.68799C37.2893 11.297 36.7183 12.1714 34.8009 12.9303Z" fill="#EBAF6E"/>
<rect width="1.01019" height="27.761" transform="matrix(0.978774 -0.204942 0.200992 0.979593 35.2992 11.2563)" fill="#7B6A58"/>
<path d="M37.7701 20.4411L36.8565 20.8236H35.6544L35.4741 19.0749L36.9046 18.0913H37.8002C38.0529 18.0985 38.2824 18.2422 38.4012 18.4678C38.6565 18.9441 38.7811 19.4808 38.7618 20.0222C38.7531 20.182 38.6755 20.3299 38.5494 20.4269C38.4234 20.5239 38.2615 20.5601 38.1067 20.5261L37.7701 20.4411Z" fill="#FFBE78"/>
<path d="M36.9226 10.9574L34.6867 11.4067C34.5607 11.4309 34.4352 11.3625 34.3862 11.2428C34.3311 11.1165 34.3025 10.98 34.302 10.842C34.2994 10.7101 34.3904 10.5951 34.5184 10.5688L36.7543 10.1195C36.8752 10.0965 36.9963 10.1589 37.0488 10.2713C37.1153 10.4088 37.1444 10.5618 37.133 10.7145C37.1227 10.8331 37.0376 10.9314 36.9226 10.9574Z" fill="#7B6A58"/>
<path d="M34.5485 11.6853C34.5295 11.8811 34.3578 12.0247 34.1638 12.0071C33.97 11.9879 33.8278 11.8145 33.8453 11.6185L33.9655 10.2827C33.9845 10.087 34.1562 9.94332 34.3501 9.96093C34.5439 9.98015 34.6861 10.1536 34.6687 10.3495L34.5485 11.6853Z" fill="#EBAF6E"/>
<path d="M34.6731 12.5128C34.9693 12.4527 35.1448 12.0789 35.0651 11.6777C34.9854 11.2766 34.6807 11.0001 34.3845 11.0602C34.0883 11.1203 33.9128 11.4941 33.9925 11.8952C34.0722 12.2963 34.377 12.5728 34.6731 12.5128Z" fill="#EBAF6E"/>
<path d="M36.3636 10.8781L35.1615 10.8234C34.9829 10.8156 34.8147 10.7363 34.6941 10.603C34.5734 10.4697 34.5102 10.2934 34.5184 10.113V9.70623C34.5221 9.6016 34.5969 9.51345 34.6987 9.49371C35.4266 9.36458 36.1737 9.39983 36.8865 9.59693C36.9902 9.62302 37.0609 9.7199 37.0548 9.82766V10.2284C37.0385 10.5992 36.7309 10.8884 36.3636 10.8781Z" fill="#FFBE78"/>
<path d="M43.3059 42.877L41.3525 43.2898C40.8984 43.3857 40.4254 43.2784 40.0555 42.9955C39.6856 42.7127 39.455 42.2819 39.4231 41.8144L38.8221 35.6454C38.7662 34.8365 39.3104 34.1104 40.0963 33.9453L40.8236 33.7935C41.6088 33.6284 42.3942 34.0743 42.6628 34.8379L44.52 40.7457C44.6754 41.1914 44.6306 41.6834 44.3973 42.0929C44.164 42.5024 43.7654 42.7888 43.3059 42.877Z" fill="#F39200"/>
<path d="M41.148 37.2848C40.7746 37.3633 40.4088 37.1215 40.3306 36.7444L39.5312 32.8645L40.9016 32.5791L41.6709 36.459C41.7493 36.8324 41.5164 37.2001 41.148 37.2848Z" fill="#F9B233"/>
</svg>
