<svg width="56" height="56" viewBox="0 0 56 56" fill="none" xmlns="http://www.w3.org/2000/svg">
<g clip-path="url(#clip0)">
<path d="M15.4567 8.62439H19.7459C20.0303 8.62439 20.303 8.53352 20.5041 8.37177C20.7052 8.21002 20.8182 7.99065 20.8182 7.7619C20.8182 7.53316 20.7052 7.31378 20.5041 7.15203C20.303 6.99028 20.0303 6.89941 19.7459 6.89941H15.4567C15.1723 6.89941 14.8996 6.99028 14.6985 7.15203C14.4974 7.31378 14.3844 7.53316 14.3844 7.7619C14.3844 7.99065 14.4974 8.21002 14.6985 8.37177C14.8996 8.53352 15.1723 8.62439 15.4567 8.62439Z" fill="white"/>
<path d="M15.4567 11.2123H19.7459C20.0303 11.2123 20.303 11.1214 20.5041 10.9597C20.7052 10.7979 20.8182 10.5785 20.8182 10.3498C20.8182 10.121 20.7052 9.90167 20.5041 9.73992C20.303 9.57817 20.0303 9.4873 19.7459 9.4873H15.4567C15.1723 9.4873 14.8996 9.57817 14.6985 9.73992C14.4974 9.90167 14.3844 10.121 14.3844 10.3498C14.3844 10.5785 14.4974 10.7979 14.6985 10.9597C14.8996 11.1214 15.1723 11.2123 15.4567 11.2123Z" fill="white"/>
<path d="M15.4567 13.7997H19.7459C20.0303 13.7997 20.303 13.7088 20.5041 13.5471C20.7052 13.3853 20.8182 13.1659 20.8182 12.9372C20.8182 12.7084 20.7052 12.4891 20.5041 12.3273C20.303 12.1656 20.0303 12.0747 19.7459 12.0747H15.4567C15.1723 12.0747 14.8996 12.1656 14.6985 12.3273C14.4974 12.4891 14.3844 12.7084 14.3844 12.9372C14.3844 13.1659 14.4974 13.3853 14.6985 13.5471C14.8996 13.7088 15.1723 13.7997 15.4567 13.7997Z" fill="white"/>
<path d="M2 48C-0.767826 45.2322 7.55192 33.6443 12 27L13.4311 22.1377C15.3374 22.6488 17.4749 22.1377 19 22.1377H26.7753C28.3003 22.1377 30.5879 23.1599 32.4942 23.671V25.2043L34.4006 28.2709C37.5778 34.4042 45 43.3201 45 47C45 53.1332 25.7189 52.5 20 52.5C14.281 52.5 5.99998 52 2 48Z" fill="#347CFF" stroke="#347CFF"/>
<path d="M45.0136 42.4171L34.7583 24.8202V5.17492C35.6115 5.17492 36.4297 4.90232 37.033 4.41707C37.6363 3.93183 37.9752 3.2737 37.9752 2.58746C37.9752 1.90122 37.6363 1.24309 37.033 0.75785C36.4297 0.272607 35.6115 1.02257e-08 34.7583 0H11.1677C10.3145 1.02257e-08 9.49626 0.272607 8.89298 0.75785C8.28969 1.24309 7.95077 1.90122 7.95077 2.58746C7.95077 3.2737 8.28969 3.93183 8.89298 4.41707C9.49626 4.90232 10.3145 5.17492 11.1677 5.17492V24.8202L0.912439 42.4171C0.223004 43.6001 -0.0840541 44.9039 0.019716 46.2077C0.123486 47.5116 0.634726 48.7732 1.50607 49.8758C2.37741 50.9784 3.58066 51.8863 5.00434 52.5153C6.42801 53.1444 8.02604 53.4742 9.65036 53.4742H36.2756C37.9 53.4742 39.498 53.1444 40.9217 52.5153C42.3453 51.8863 43.5486 50.9784 44.4199 49.8758C45.2913 48.7732 45.8025 47.5116 45.9063 46.2077C46.0101 44.9039 45.703 43.6001 45.0136 42.4171ZM10.0954 2.58746C10.0958 2.35881 10.2089 2.13962 10.4099 1.97794C10.6109 1.81626 10.8834 1.72529 11.1677 1.72497H34.7583C35.0427 1.72497 35.3155 1.81584 35.5166 1.97759C35.7177 2.13934 35.8306 2.35872 35.8306 2.58746C35.8306 2.81621 35.7177 3.03558 35.5166 3.19733C35.3155 3.35908 35.0427 3.44995 34.7583 3.44995H11.1677C10.8834 3.44964 10.6109 3.35867 10.4099 3.19699C10.2089 3.03531 10.0958 2.81611 10.0954 2.58746ZM32.6137 5.17492V21.0986C31.8673 21.0468 31.131 20.9252 30.4195 20.7364C29.1668 20.4067 27.8542 20.2486 26.5365 20.2685C25.2191 20.2486 23.9069 20.4067 22.6547 20.7364C21.6018 21.0168 20.4971 21.1503 19.3882 21.1309C18.2794 21.1503 17.1746 21.0168 16.1217 20.7364C15.2116 20.4965 14.2678 20.3491 13.3123 20.2976V5.17492H32.6137ZM42.6103 48.9505C41.9351 49.81 40.9998 50.5177 39.8919 51.0072C38.784 51.4967 37.5397 51.752 36.2756 51.7492H9.65036C8.38702 51.7492 7.14414 51.4926 6.03688 51.0033C4.92962 50.5141 3.99381 49.8079 3.31614 48.9503C2.63848 48.0927 2.2409 47.1114 2.16022 46.0974C2.07955 45.0833 2.3184 44.0692 2.85465 43.1492L13.2104 25.3787C13.2773 25.264 13.3121 25.1388 13.3123 25.0121V22.0258C14.0587 22.0776 14.7951 22.1991 15.5065 22.388C16.7587 22.7177 18.0709 22.8759 19.3882 22.8559C20.7056 22.8759 22.0178 22.7177 23.27 22.388C24.3228 22.1076 25.4276 21.9741 26.5365 21.9934C27.6453 21.9741 28.7501 22.1076 29.803 22.388C30.7135 22.6278 31.6578 22.7752 32.6137 22.8268V25.0121C32.6139 25.1388 32.6487 25.264 32.7156 25.3787L43.0714 43.1492C43.6111 44.0685 43.8519 45.083 43.7712 46.0977C43.6906 47.1123 43.2911 48.0939 42.6103 48.9505Z" fill="white"/>
<path d="M55.9208 20.3128C55.7602 19.9879 55.3782 19.7759 54.9564 19.7759C14.4605 19.7759 10.0769 33.7486 10.0769 39.7567C10.0769 47.5509 17.2076 52.7877 27.82 52.7877C41.2233 52.7877 44.0309 42.1717 45.538 36.4677C47.0033 30.6611 50.5436 25.3601 55.6933 21.2579C55.9919 21.0095 56.0816 20.6376 55.9208 20.3128Z" fill="#4CAF50"/>
<path d="M11.1177 57.9999C10.5416 57.9999 10.074 57.6106 10.074 57.1311C10.074 51.9656 20.8346 35.3919 37.7991 28.5498C38.3189 28.3414 38.9431 28.5203 39.1935 28.9529C39.444 29.3855 39.2291 29.9051 38.7093 30.1136C21.5779 37.0235 12.1615 53.0707 12.1615 57.1312C12.1615 57.6107 11.6939 57.9999 11.1177 57.9999Z" fill="#388E3C"/>
<path d="M27.82 52.7877C17.2075 52.7877 10.0769 47.5509 10.0769 39.7567C10.0769 33.7486 14.45 19.7759 54.9564 19.7759C55.3823 19.7759 55.7663 19.9931 55.925 20.3215C56.0836 20.6516 55.9856 21.0286 55.6787 21.2736C50.5061 25.381 47.0013 30.6334 45.5422 36.459C44.033 42.1718 41.2275 52.7877 27.82 52.7877ZM52.4495 21.536C38.5828 21.7809 12.1643 24.2863 12.1643 39.7567C12.1643 46.5119 18.4558 51.0502 27.82 51.0502C38.6432 51.0502 41.5886 43.3307 43.5007 36.0959C44.8701 30.6281 47.9469 25.6329 52.4495 21.536Z" fill="#346C25"/>
<path d="M11.1177 57.9999C10.5416 57.9999 10.074 57.6107 10.074 57.1311C10.074 51.9656 20.8346 35.392 37.7991 28.5499C38.3189 28.3414 38.9409 28.5203 39.1935 28.9512C39.444 29.3839 39.2291 29.9034 38.7093 30.1119C21.5779 37.0235 12.1615 53.0708 12.1615 57.1312C12.1615 57.6107 11.6939 57.9999 11.1177 57.9999Z" fill="#346C25"/>
</g>
<defs>
<clipPath id="clip0">
<rect width="56" height="56" fill="white"/>
</clipPath>
</defs>
</svg>
