<svg width="56" height="56" viewBox="0 0 56 56" fill="none" xmlns="http://www.w3.org/2000/svg">
<path d="M20.5416 10.6933C21.1253 10.657 21.709 10.6388 22.2738 10.8386C22.5751 11.2198 22.8952 11.5648 23.1588 11.9824C23.46 12.4544 23.7801 12.5452 24.1378 12.0187C24.2885 11.8008 24.4579 11.5829 24.7027 11.4377C24.891 11.4922 25.0604 11.5466 25.2487 11.5829C26.642 11.9824 27.8282 12.7631 29.0708 13.4348C29.7675 13.8161 30.6336 13.9432 31.0855 14.6694C32.2905 15.323 33.6273 15.795 34.5122 16.9025C34.5875 16.9933 34.644 17.1022 34.7005 17.2112C34.2298 17.5198 33.7403 17.1204 33.2696 17.2293C30.9725 17.2293 29.7487 18.1371 29.0144 20.3703C28.9955 20.4792 29.0332 20.334 28.9955 20.461C28.9579 20.5518 28.9579 20.5518 29.0144 20.4792C29.4474 18.5729 30.6712 17.5198 32.6294 17.2475C33.3072 17.0841 34.0039 17.538 34.6817 17.2112C34.9076 17.3564 35.1147 17.538 35.2277 17.7922C36.0373 19.6985 36.508 21.6775 36.9034 23.6927C36.7528 24.2374 36.3762 24.5097 35.7925 24.5461C35.19 24.0922 35.0959 23.3841 34.8511 22.7486C34.6628 22.2766 34.5122 21.7864 34.3428 21.3144C33.9474 20.4792 33.8721 19.4988 33.2319 18.7544C33.0436 18.8997 33.006 19.1357 32.8177 19.2628C32.4599 19.6622 32.8742 19.989 32.9871 20.3158C33.552 21.9861 34.2674 23.6201 34.644 25.3631C34.4746 25.8896 34.0792 26.1801 33.552 26.3072C33.006 26.6884 32.4223 27.0334 31.9139 27.4691C31.4432 27.8504 31.2738 27.7051 31.1043 27.2331C30.8972 26.6158 30.6148 25.9985 30.3888 25.3812C30.3135 25.1633 30.2194 25.0726 30.0123 25.236C29.5039 24.4371 29.3533 23.493 28.8826 22.6397C28.5813 25.7443 28.6001 28.8489 28.0729 31.9172C28.0165 32.117 27.96 32.3167 27.9035 32.5164C27.3386 32.8795 26.6797 32.9158 26.0395 32.9158C25.6064 32.8976 25.1734 32.9158 24.7403 32.8976C24.4203 32.8976 24.0814 32.8976 23.7613 32.8613C22.7822 32.6072 21.7466 32.8069 20.7487 32.5708C20.4475 32.4982 20.1274 32.5345 19.8826 32.3348C19.7697 31.8265 20.2404 32.1351 20.391 32.008C20.5228 31.9899 20.4098 31.9354 20.391 31.9536C20.2027 32.0988 19.9015 31.9536 19.732 32.2077C19.4496 32.3167 19.186 32.3348 19.0354 32.0262C19.073 31.8446 19.2613 31.8991 19.4873 31.7538C18.8659 32.0262 18.3387 31.7357 17.8492 31.9354C16.6254 31.7902 15.4015 31.6449 14.3471 30.9368C13.2551 30.5556 12.163 30.1743 11.071 29.8293C10.5062 29.6478 10.2991 29.4118 10.6756 28.8671C10.958 28.4677 11.1652 28.0319 11.4287 27.6144C11.6359 27.4146 11.843 27.5236 12.0313 27.6325C13.6317 28.5221 15.2697 29.3028 16.8136 30.1743C15.6839 29.1757 14.6107 28.0501 13.5752 26.8881C13.4057 26.6884 13.0856 26.4706 13.2739 26.1982C13.4622 25.9259 13.8011 26.0893 14.0459 26.1801C14.5731 26.3616 15.1003 26.5613 15.5898 26.7247C14.7425 26.1256 13.7635 25.6536 13.0292 24.8547C14.1777 22.6942 15.6086 20.7152 17.2279 18.8452C17.3597 18.6999 17.9245 18.4458 17.1902 18.3005C18.2069 17.7558 18.6211 16.7391 19.2801 15.9221C17.755 16.8118 16.3618 17.9374 14.7237 18.6818C14.1212 18.2824 14.366 17.5925 14.14 17.0659C13.6505 16.5757 13.7258 15.8858 13.5187 15.3048C13.4245 14.6875 13.1233 14.1066 13.2927 13.453C13.707 12.9991 14.3095 12.8901 14.8555 12.6904C16.7571 12.0187 18.5647 11.129 20.5416 10.6933Z" fill="#D82466"/>
<path d="M13.3869 38.98C13.5941 37.1462 13.8012 35.3307 13.9706 33.497C14.0083 33.2065 13.9518 32.8978 14.1212 32.6255C14.5543 33.1157 15.1191 33.152 15.7405 33.0975C17.4727 32.916 19.2237 32.8615 20.9559 32.7344C21.8597 32.6618 22.5187 32.8978 23.0835 33.5514C23.3094 33.8238 23.6107 34.0598 23.8366 34.3503C24.1379 34.8586 24.5709 35.2399 25.004 35.6212C26.1902 36.656 27.1504 37.8906 28.2801 38.9437C29.8428 39.9241 29.8805 41.3221 29.4286 42.8471C29.4098 42.9379 29.3721 43.0105 29.3345 43.1013C28.9014 43.5007 28.6002 43.1013 28.2801 42.9379C27.3575 42.484 26.5667 41.7215 25.4935 41.5399C25.5312 41.2494 25.4559 41.0316 25.1923 40.8318C23.9684 39.9241 22.7446 38.9981 21.5396 38.0903C20.9936 38.2356 20.7865 37.7454 20.4852 37.5094C19.2237 36.529 17.981 35.5304 16.8137 34.4592C16.7196 34.4047 16.889 34.3503 16.776 34.4229C16.7007 34.4774 16.8325 34.4955 16.8325 34.5681C17.2091 35.2036 17.6045 35.8209 17.9246 36.4745C18.094 36.8376 18.1882 37.2189 18.0752 37.6183C17.5103 39.2523 16.8513 40.8682 16.4183 42.5203C16.0417 43.9728 15.2133 44.6264 13.7259 44.5719C13.3493 44.4993 13.1987 44.2451 13.1798 43.9365C13.0857 42.4477 13.0857 40.9408 13.1798 39.452C13.161 39.2705 13.274 39.1252 13.3869 38.98Z" fill="#479D9D"/>
<path d="M33.5331 0C35.9243 0.762537 38.1272 1.83372 39.9348 3.54035C41.3469 4.88387 41.0833 6.30001 39.3699 7.28041C38.8804 7.11701 39.2381 6.86283 39.2758 6.64496C39.8594 5.57378 39.7088 5.30145 38.4662 5.11989C37.3553 4.97465 36.2256 4.88387 35.1524 4.55707C35.3407 4.62969 35.5666 4.68416 35.6796 4.86571C35.7925 5.68272 35.2653 6.33632 35.0018 7.04439C34.9076 7.29857 34.6628 7.33488 34.3804 7.22595C33.2319 6.77206 33.2319 6.77206 32.7047 7.84324C31.3114 9.22307 29.9181 10.5666 27.7152 10.5484C27.414 10.5484 27.0939 10.5484 26.7926 10.6211C26.642 10.6211 26.4914 10.6029 26.3972 10.4576C26.1336 8.40606 26.1901 6.39079 26.7926 4.39367C27.4704 2.19683 30.4641 8.65728e-07 33.2507 0.853316C33.3825 0.889627 33.4767 0.817004 33.552 0.70807C34.0792 0.671759 34.0792 1.12565 34.2486 1.41614C34.5687 2.01528 35.0018 2.43286 35.8302 2.37839C35.2653 1.85188 34.7382 1.36167 34.1545 0.907782C33.8721 0.689914 33.552 0.435735 33.5331 0Z" fill="#9D0000"/>
<path d="M26.0207 32.6256C26.642 32.5893 27.2633 32.5348 27.8847 32.4985C27.9035 32.5348 27.9223 32.5893 27.9223 32.6438C27.6587 33.0069 27.2068 33.1158 26.8491 33.3337C26.0583 33.8421 26.0395 33.8239 26.8114 34.3323C28.2424 35.2945 29.6922 36.2386 31.1231 37.219C31.4809 37.4732 31.8009 37.7455 32.0834 38.0723C33.0248 39.4885 33.2695 41.1043 33.3637 42.7383C33.5143 45.5524 33.1001 48.3484 32.5729 51.1081C32.5164 51.3986 32.4599 51.7254 32.0081 51.689C30.7089 51.5983 29.3909 51.7617 28.0729 51.5256C28.0918 51.4349 28.1483 51.3441 28.2047 51.2715C28.6378 50.055 28.5437 48.7841 28.7884 47.5314C28.7884 47.2954 28.8072 47.0594 28.8637 46.8233C28.9767 46.5147 28.9767 46.1879 28.9767 45.8611C28.9579 45.4072 29.1462 44.9715 29.1838 44.5357C29.2215 44.2997 29.2591 44.0274 29.5039 43.9184C30.0499 43.7006 29.4098 43.5916 29.4662 43.4282C29.2591 42.7202 29.5227 42.0484 29.6357 41.3766C29.7675 40.6141 29.4851 40.1239 28.9767 39.6337C28.7319 39.3977 28.4872 39.1617 28.2612 38.9256C26.7738 37.4369 25.3052 35.9118 23.8178 34.3867C23.5353 34.0781 23.1964 33.8057 22.914 33.4971C22.7445 33.3155 22.4245 33.1521 22.6127 32.8253C22.7634 32.5348 23.0835 32.6075 23.3659 32.6075C23.5165 32.6075 23.6671 32.6801 23.8178 32.6801C24.119 32.6801 24.4203 32.6801 24.7215 32.6801C25.1357 32.6801 25.5876 32.8616 26.0207 32.6256Z" fill="#479D9D"/>
<path d="M26.4161 10.4761C26.529 10.4943 26.642 10.4943 26.7738 10.5125C26.8303 10.4943 26.9056 10.4761 26.9621 10.4943C28.6943 11.0208 30.1817 10.3127 31.6692 9.62283C32.1587 9.38681 32.5353 9.15078 32.4035 8.55165C32.3658 8.31562 32.5164 8.0796 32.5164 7.84358C32.9683 6.42744 33.665 6.22773 34.7005 7.29891C35.0394 6.50006 35.3595 5.71937 35.6796 4.95683C35.8302 4.77527 36.0185 4.81159 36.1879 4.88421C37.1482 5.28363 38.0708 5.77383 39.0498 6.17326C39.2758 6.26404 39.4641 6.44559 39.4264 6.73608C39.5017 6.9358 39.1252 7.0992 39.3888 7.31706C39.0122 8.22485 38.6168 9.13263 38.2402 10.0223C38.0519 10.8211 37.9013 11.6381 37.3553 12.2917C36.6775 12.8364 36.3762 13.6534 35.7925 14.2888C35.2654 14.8517 34.7758 15.0151 34.1357 14.5249C33.3637 14.0347 32.6106 13.5263 31.7633 12.9272C31.801 13.2721 31.9328 13.5808 31.688 13.7986C31.4997 14.1073 31.3114 14.3978 31.1231 14.7064C29.1462 13.726 27.1504 12.7819 25.2864 11.62C25.4935 11.0934 26.1901 11.0027 26.4161 10.4761Z" fill="#FEBCAA"/>
<path d="M51.9848 26.8519C51.4953 27.1242 51.5329 27.5599 51.4576 28.032C51.3258 28.74 50.8928 29.3936 50.761 30.138C50.6857 30.5556 50.2526 30.8824 49.6878 30.7735C49.5936 30.6645 49.5748 30.5556 49.5748 30.4285C49.1418 29.5389 48.2003 29.1939 47.4849 28.5948C47.2966 28.4314 47.0706 28.5403 46.92 28.7219C46.7506 28.9398 46.5811 29.1576 46.3363 29.3029C46.2045 29.321 46.0727 29.321 45.9409 29.3392C45.6397 29.2121 45.4138 29.43 45.1502 29.4663C44.8489 29.5934 44.4912 29.6478 44.2652 29.902C44.1523 29.902 44.0205 29.9202 43.9075 29.9202C43.1167 30.0654 42.3636 30.3014 41.554 30.2651C40.4431 30.3741 39.3887 29.9746 38.2778 30.0473C38.2025 29.9928 38.1272 29.9565 38.0519 29.902C37.2046 29.2302 36.6398 28.3225 35.9431 27.5236C35.5666 27.106 35.6607 26.7066 35.9243 26.289C36.6021 25.1815 37.2046 24.0377 37.9013 22.9302C37.9954 22.8395 38.1084 22.7487 38.259 22.8213C38.6167 23.1844 38.7485 23.6746 38.8803 24.1104C39.1439 24.9092 39.6335 25.2542 40.4807 25.3268C42.9661 25.5447 45.4326 25.817 47.9179 26.053C48.0121 26.0712 48.125 25.9441 48.2192 25.8896C49.2359 25.9078 50.2338 26.0167 51.2129 26.2527C51.5329 26.3798 51.8342 26.5251 51.9848 26.8519Z" fill="#FEBCAA"/>
<path d="M46.4682 22.6945C46.1669 20.6974 47.2966 18.7729 49.2548 17.9741C51.3071 17.1389 53.6229 17.7017 54.9974 19.3902C56.3342 21.0242 56.3342 23.3844 54.9974 25.0185C54.7715 25.2908 54.5644 25.6176 54.2066 25.781C53.6606 26.0896 53.0957 25.8536 52.5686 25.7447C51.1376 25.4723 49.7067 25.1455 48.2757 24.8732C47.8991 24.8006 47.3531 24.8732 47.2402 24.2922C47.5226 24.038 47.8803 24.0744 48.2004 24.1288C49.2924 24.3104 50.4221 24.4193 51.5142 24.6553C51.8154 24.6735 52.079 24.8551 52.3614 24.9095C52.2485 24.8187 52.0978 24.8551 51.966 24.7824C50.4033 24.3285 48.8782 23.7112 47.3531 23.1666C47.033 23.0395 46.7506 22.8942 46.4682 22.6945Z" fill="#E74200"/>
<path d="M13.4057 13.4168C13.5187 14.0159 13.6317 14.6151 13.7446 15.2142C13.6317 15.4502 13.6317 15.7407 13.4057 15.9404C11.6923 17.4292 10.3367 19.2811 8.49153 20.6609C7.90786 21.2056 7.71957 21.841 7.68191 22.6399C7.62543 23.7474 6.64636 24.4373 5.94971 25.2543C5.89323 25.3269 5.68612 25.3451 5.62963 25.3087C5.40369 25.1272 5.25307 24.873 5.32838 24.6007C5.40369 24.2557 5.55432 23.9289 5.66729 23.584C5.83674 23.0211 5.6108 22.4402 5.68612 21.9136C5.64846 21.9863 5.66729 22.0952 5.6108 22.2041C5.42252 22.5491 5.2719 23.003 4.83885 23.0393C4.42462 23.0756 4.31165 22.5854 4.08571 22.3131C3.82212 22.0226 3.80329 21.4416 3.18196 21.5868C2.69242 21.7139 2.20289 21.8773 1.67569 21.9318C1.39327 21.8592 1.09202 21.8773 0.809593 21.7502C0.828421 21.1693 1.31796 21.024 1.75101 20.8788C2.33468 20.6791 2.93719 20.4612 3.53969 20.3704C4.91416 20.1344 5.76143 19.3355 6.42042 18.1917C7.24887 16.7574 8.39739 15.5592 9.50826 14.3427C10.525 13.2353 11.7677 12.4546 13.2174 11.9644C13.4999 12.4182 13.6505 12.8903 13.4057 13.4168Z" fill="#FEBCAA"/>
<path d="M15.1191 46.4602C13.0292 47.949 10.7133 49.0201 8.35974 50.0369C7.92669 50.2184 7.81372 50.0005 7.66309 49.7101C7.21121 48.8567 6.75933 48.0034 6.28863 47.1501C5.96855 46.9141 5.72378 46.6418 5.83675 46.2242C6.06269 45.97 6.4016 45.8974 6.72168 45.8248C7.04176 45.734 7.36184 45.6795 7.68192 45.6614C8.002 45.6432 8.30325 45.5161 8.62333 45.4616C8.94341 45.3709 9.26349 45.3164 9.58358 45.2982C10.0355 45.2256 10.4873 45.1348 10.9392 45.0259C11.1087 44.9896 11.2969 44.9533 11.4852 44.9351C11.9371 44.8625 12.3702 44.7354 12.822 44.7354C13.1045 44.7899 13.2363 44.9533 13.2174 45.2438C13.2363 44.7173 13.6317 44.5902 14.0459 44.4994C14.1588 44.4631 14.2906 44.4449 14.4224 44.4449C15.3639 44.3905 15.8534 43.9547 16.117 43.0288C16.6254 41.2495 17.3408 39.5247 17.9433 37.7636C18.1504 37.3642 18.3764 37.5458 18.5835 37.7455C19.5814 38.7077 19.6944 39.5611 18.9412 40.7049C17.6609 42.6112 16.4936 44.6083 15.1191 46.4602Z" fill="#479D9D"/>
<path d="M28.2989 51.4893C28.2048 51.5074 28.1294 51.5256 28.0353 51.5437C27.847 51.5619 27.6587 51.58 27.4705 51.5982C26.1525 51.9068 24.8533 51.9976 23.5542 51.5256C23.3282 50.9446 23.6295 50.4181 23.7425 49.8916C24.1002 48.1305 24.4956 46.3875 24.8722 44.6446C25.5311 44.6083 25.7383 45.2437 26.2843 45.5342C26.1901 45.0803 26.0583 44.699 25.9642 44.3178C25.7759 43.5552 25.8701 43.4463 26.642 43.4826C27.1692 43.5189 27.6964 43.4826 28.2236 43.6097C29.2591 43.9002 29.3156 43.9728 29.1085 45.2619C28.9767 45.6068 29.0144 45.9518 29.0144 46.2967C29.0332 46.5509 28.9391 46.8051 28.8826 47.0411C28.6943 48.5117 28.6002 50.0005 28.2989 51.4893Z" fill="#479D9D"/>
<path d="M4.68821 44.0638C4.16102 43.3194 4.57524 43.0289 5.27189 42.7203C7.00409 41.9577 8.67981 41.1226 10.3932 40.3237C10.8074 40.7958 10.8074 41.4494 11.184 41.9214C11.2593 41.9396 11.2969 41.9033 11.3346 41.8306C11.5417 41.4312 11.4852 40.6868 12.0312 40.705C12.4643 40.7231 12.4266 41.4312 12.5584 41.8488C12.7467 42.4842 12.9162 43.1197 13.048 43.7733C13.1233 44.1727 13.1986 44.5721 12.6902 44.7537C12.276 44.79 11.8806 44.9716 11.4664 44.9897C11.2216 45.0079 11.0145 45.0805 10.7886 45.1531C10.3555 45.135 9.97896 45.371 9.56474 45.371C9.24466 45.4073 8.9434 45.4981 8.62332 45.5526C8.30324 45.5889 8.02082 45.7523 7.68191 45.7341C7.38066 45.7704 7.06058 45.8612 6.75932 45.9157C6.43924 45.952 6.15682 46.0972 5.85557 46.1698C5.12126 45.7704 5.02712 44.9897 4.68821 44.3543C4.65056 44.2272 4.66938 44.1364 4.68821 44.0638Z" fill="#479D9D"/>
<path d="M15.1191 46.4603C15.2885 45.5344 16.0228 44.8989 16.4935 44.1182C17.2843 42.7929 18.1128 41.4857 19.0165 40.2329C19.4496 39.6338 19.3554 39.1436 18.9412 38.7078C18.64 38.3992 18.7718 37.7274 18.0939 37.7274C17.9245 37.7638 17.8303 37.7456 17.9057 37.5459C17.9998 36.6744 17.3785 36.0571 17.0207 35.3491C16.8701 35.0586 16.6442 34.8044 16.5877 34.4776C16.5312 34.296 16.6065 34.2416 16.7948 34.296C18.3764 35.5669 19.9579 36.8378 21.5395 38.1269C21.1629 39.3251 20.5604 40.4145 20.0144 41.5401C19.7885 42.6839 18.96 43.4101 18.0563 44.0819C17.1337 44.9171 16.1923 45.7704 15.1191 46.4603Z" fill="#027491"/>
<path d="M0.997898 48.2393C0.97907 48.1304 0.979071 48.0215 0.960243 47.9307C0.866101 47.6584 0.753131 47.3679 0.640162 47.0955C0.414222 46.6961 0.301252 46.2422 0 45.8973C0.169454 45.6249 0.489536 45.6068 0.77196 45.5341C1.28032 45.8791 1.33681 46.4601 1.56275 46.9321C2.07111 48.0215 2.5983 49.129 2.93721 50.2909C3.03135 50.4543 3.10667 50.6359 3.18198 50.7811C3.18198 50.6903 3.12549 50.6359 3.10667 50.5814C3.03135 50.418 2.95604 50.2728 2.88073 50.1094C2.4665 48.8566 2.20291 47.5676 1.82634 46.2967C1.71337 45.9336 1.54392 45.5705 1.71337 45.171C1.78869 45.1347 1.84517 45.0803 1.92048 45.0439C2.54182 45.2437 3.16315 45.4978 3.84097 45.5705C4.48113 45.988 4.49996 46.6961 4.7259 47.3134C4.74473 47.4405 4.7259 47.5857 4.68824 47.7128C4.70707 47.7673 4.70707 47.8218 4.68824 47.8581C4.51879 48.1486 4.19871 48.203 3.89745 48.2938C3.91628 48.2938 3.91628 48.2938 3.91628 48.2938C4.27402 48.2938 4.78238 48.1486 4.4623 48.8203C4.38699 48.9837 4.04808 49.02 4.10456 49.2016C4.19871 49.4739 4.83887 49.8552 5.06481 49.8733C5.08363 49.8733 5.12129 49.9097 5.14012 49.9278C5.51668 51.4529 4.82004 52.6511 3.8598 53.7586C3.44557 53.8131 3.48323 53.45 3.3326 53.2503C3.20081 52.7601 2.88073 52.3425 2.76776 51.8523C2.65479 51.5981 2.54182 51.3439 2.29705 51.1805H2.31588C2.27822 50.7085 2.03345 50.3091 1.88283 49.8915C1.80751 49.5828 1.65689 49.3105 1.50626 49.0382C1.33681 48.7477 1.20501 48.4754 0.997898 48.2393Z" fill="#BC1889"/>
<path d="M32.0081 55.5382C32.0269 55.5745 32.0458 55.6289 32.0458 55.6652C31.8387 55.9194 31.5374 55.865 31.255 55.865C28.7885 55.865 26.3031 55.865 23.8366 55.865C23.5542 55.865 23.2718 55.8468 23.027 55.6834C23.0082 55.3203 23.0082 54.939 23.1776 54.5941C23.799 54.0131 24.2697 53.3413 24.7592 52.6696C24.9852 52.5606 25.2299 52.5606 25.4747 52.5425C25.7571 52.5425 26.0584 52.5425 26.322 52.6696C26.6797 52.9238 26.5667 53.3232 26.6609 53.7771C27.1127 52.9419 27.5458 54.0131 28.0165 53.6863C28.2236 53.9586 28.3366 53.9405 28.4684 53.6137C28.5625 53.3958 28.7508 53.2142 29.0521 53.2687C29.2215 53.3595 29.391 53.4503 29.5604 53.5229C29.8617 53.8315 30.4642 54.0312 30.3136 54.5578C30.1629 55.0843 29.5604 54.9935 29.1085 55.0661C27.9224 55.284 26.7362 55.284 25.5312 55.3748C27.2445 55.2477 28.9391 55.175 30.6525 55.2114C31.1232 55.2658 31.6127 55.1569 32.0081 55.5382Z" fill="#BD188A"/>
<path d="M23.7424 32.8072C23.5541 32.8072 23.3847 32.8072 23.1964 32.8254C23.027 32.8435 22.801 32.7709 22.7257 32.9706C22.6504 33.1703 22.8575 33.2793 22.9705 33.4064C23.2906 33.7513 23.6295 34.0963 23.9495 34.4412C24.0249 34.6228 23.9307 34.6591 23.7613 34.6228C23.2906 34.1507 22.8198 33.6605 22.3491 33.1885C22.1232 32.9525 21.8973 32.898 21.5395 32.9343C19.3366 33.1159 17.1525 33.2066 14.9496 33.37C14.3283 33.4064 14.1024 33.1885 14.14 32.6257C14.1965 32.0447 14.2718 31.4819 14.3283 30.9009C15.5333 31.1732 16.7195 31.4637 17.9245 31.736C18.3011 31.6816 18.6776 31.736 19.0165 31.9357C19.2425 32.1173 19.5249 32.081 19.7885 32.1173C21.0876 32.5167 22.4621 32.317 23.7613 32.6438C23.8177 32.6801 23.8554 32.7164 23.8177 32.7528C23.7801 32.7891 23.7613 32.8072 23.7424 32.8072Z" fill="#047490"/>
<path d="M13.0103 24.8188C14.1777 25.3817 15.1567 26.1987 16.117 27.0883C15.2132 26.7797 14.3095 26.471 13.1609 26.0716C14.5731 27.7419 16.0228 29.1036 17.3596 30.6287C15.3638 29.6119 13.368 28.5952 11.3911 27.5785C11.7865 26.5799 12.389 25.6903 13.0103 24.8188Z" fill="#F57149"/>
<path d="M32.0457 38.0726C29.9181 36.6746 27.8094 35.2766 25.5876 33.8242C26.4349 33.3703 27.0562 32.8074 27.9035 32.644C29.711 34.151 31.029 36.0028 32.0457 38.0726Z" fill="#81D1B4"/>
<path d="M38.0331 23.0216C37.3929 24.1473 36.7716 25.2911 36.1126 26.3986C35.849 26.8524 35.849 27.1429 36.2256 27.5605C36.9034 28.2867 37.4494 29.1401 38.0519 29.9207C36.1691 29.1582 34.7382 27.851 33.5331 26.2896C33.8532 25.981 34.1921 25.6905 34.5122 25.3818C34.6064 25.2547 34.6817 25.1277 34.8135 25.0369C34.9829 24.8735 35.1524 24.7101 35.3407 24.583C35.4725 24.4922 35.6419 24.4741 35.7925 24.4741C36.1126 24.238 36.4327 23.9839 36.7528 23.7478C37.1293 23.421 37.3176 22.8037 38.0331 23.0216Z" fill="#DC8B83"/>
<path d="M28.0542 31.918C27.8847 30.9194 28.0353 29.8846 28.1483 28.9042C28.3178 27.597 28.2613 26.2716 28.4119 24.9644C28.5437 23.9658 28.5814 22.9491 28.7132 21.6782C29.2404 23.0217 29.937 24.0203 29.9935 25.2549C29.3345 27.4699 28.6943 29.6849 28.0542 31.918Z" fill="#A0165C"/>
<path d="M28.073 43.7183C27.4328 43.7183 26.7927 43.7183 26.0772 43.7183C26.2843 44.4264 26.5102 45.1889 26.755 46.0604C25.8889 45.7154 25.55 44.9892 24.9098 44.608C25.0981 43.5912 25.3052 42.5564 25.4935 41.5397C25.7383 41.1765 25.9642 41.3399 26.2655 41.5033C27.2634 42.048 28.1671 42.7379 29.2215 43.1737C29.5793 43.0647 29.4286 43.4642 29.6169 43.5368C29.824 43.6457 30.0311 43.7728 30.3324 43.9362C29.9558 44.1178 29.3721 43.8273 29.391 44.4264C28.8638 43.8454 28.8638 43.8454 28.073 43.7183Z" fill="#037491"/>
<path d="M12.6526 44.6263C13.0292 44.481 12.9162 44.2087 12.8409 43.9545C12.5773 42.9015 12.2949 41.8485 11.9936 40.6139C11.73 41.3583 11.5418 41.9393 11.297 42.6836C10.8639 41.8303 10.4121 41.1586 10.4121 40.3234C11.41 39.8877 12.4079 39.4338 13.4058 38.998C13.4058 40.5957 13.4058 42.1753 13.4058 43.773C13.4058 44.1724 13.4246 44.5174 13.9894 44.4629C14.0271 44.4992 14.0459 44.5355 14.0271 44.59C14.0083 44.6263 13.9894 44.6445 13.9706 44.6445C13.6317 44.7897 13.274 44.9168 13.4622 45.5885C13.161 45.2254 12.9915 45.0257 12.8409 44.826C12.6338 44.8805 12.615 44.7897 12.6526 44.6263Z" fill="#037491"/>
<path d="M13.4058 13.4166C13.2363 12.9446 13.1233 12.4725 13.1987 11.9642C15.5522 11.0564 17.9622 10.4391 20.5228 10.6933C18.7718 11.5466 16.8702 12.0913 15.0626 12.8175C14.5355 13.0535 13.9706 13.2169 13.4058 13.4166Z" fill="#F5724A"/>
<path d="M38.0331 23.0214C37.4683 23.0577 37.3177 23.7295 36.7528 23.7658C36.2444 21.7687 35.6043 19.8078 35.2089 17.7744C36.5269 19.2995 37.6001 20.9516 38.2402 22.8398C38.1838 22.8943 38.1084 22.9669 38.0331 23.0214Z" fill="#F5724A"/>
<path d="M8.51035 20.6796C9.92247 19.1001 11.4287 17.575 12.9538 16.1044C13.2362 15.832 13.481 15.5234 13.7446 15.2329C13.8764 15.832 14.0082 16.4493 14.14 17.0485C12.6902 17.7747 11.4852 18.8277 10.1484 19.6992C9.62122 20.0442 9.16934 20.5344 8.51035 20.6796Z" fill="#DD8B83"/>
<path d="M51.9849 26.8522C51.1376 26.3983 50.1962 26.253 49.2548 26.253C48.8594 26.253 48.5581 26.0352 48.2004 25.9081C47.8991 25.5268 47.4472 25.2545 47.2401 24.8006C47.9933 24.4738 48.6711 24.9095 49.3866 25.0185C50.6669 25.2 51.9095 25.5813 53.2087 25.7628C53.4346 25.7991 53.6229 25.9081 53.6794 26.1441C53.2087 26.5798 52.6062 26.7251 51.9849 26.8522Z" fill="#FD7E21"/>
<path d="M51.7966 24.8368C50.5916 24.8005 49.443 24.5644 48.2568 24.3647C47.9179 24.3103 47.5978 24.274 47.2589 24.2921C47.146 24.3829 47.033 24.3829 46.92 24.274C46.5811 23.7838 46.4682 23.2572 46.487 22.6763C48.4263 23.2028 50.2715 24.0198 52.1731 24.6552C52.1731 25.0002 52.0037 24.9457 51.7966 24.8368Z" fill="#FB6A0D"/>
<path d="M32.008 55.538C29.7675 55.538 27.5081 55.538 25.2675 55.538C25.2675 55.4835 25.2675 55.429 25.2487 55.3746C26.6232 55.1748 27.9976 54.9933 29.3721 54.7936C29.6357 54.7573 30.0122 54.8844 30.144 54.612C30.2947 54.3215 29.8804 54.1944 29.7486 53.9766C29.6733 53.8495 29.6169 53.7042 29.5604 53.5771C30.6147 53.9221 31.5938 54.4123 32.008 55.538Z" fill="#E07AB1"/>
<path d="M14.7238 18.6462C15.9099 17.6658 17.2656 16.9577 18.5459 16.1044C18.9225 15.8502 19.299 15.596 19.845 15.2329C19.3179 16.3767 18.5835 17.1756 18.0187 18.0833C17.8116 18.4101 17.3974 17.9381 17.1903 18.2831C16.3618 18.392 15.5334 18.5191 14.7238 18.6462Z" fill="#A1175D"/>
<path d="M3.23846 24.51C2.5983 24.5463 1.90165 25.1092 1.35563 24.3103C1.48743 24.1288 1.3368 24.1288 1.22383 24.1106C1.12969 24.0924 1.03555 24.1106 0.960235 24.0743C0.4707 23.8383 0.602497 23.6022 0.997891 23.4025C1.26149 23.2754 1.37446 22.985 1.65688 22.876C2.31587 22.7489 2.95603 22.404 3.67151 22.5492C3.9351 22.6763 3.99159 22.876 3.9351 23.1302C3.59619 23.5478 2.99369 23.457 2.61712 23.7112C3.05017 23.6567 3.4644 23.2573 3.97276 23.5296C4.17987 23.7293 4.17987 23.929 4.01042 24.1651C3.74682 24.2558 3.48322 24.3829 3.23846 24.51Z" fill="#FDBDAC"/>
<path d="M3.99163 24.1283C3.9728 23.9286 4.02929 23.6926 3.78452 23.5473C3.67155 23.4202 3.78452 23.3113 3.78452 23.1842C3.78452 22.9845 3.82218 22.7666 3.59624 22.6396C3.5021 22.5306 3.72804 22.3491 3.5021 22.2583C3.38913 22.0767 3.25733 21.8952 3.18202 21.6955C3.06905 21.5684 3.61507 21.5139 3.21967 21.3505C3.59624 21.0237 3.74686 21.3142 3.91632 21.5865C4.17992 22.0223 4.46234 22.458 4.74476 22.9119C5.27196 22.5488 5.38493 21.9678 5.81798 21.5502C5.57321 22.222 6.53345 22.93 5.68618 23.5655C5.12133 23.7652 4.55648 23.9468 3.99163 24.1283Z" fill="#E7A8A2"/>
<path d="M23.027 55.6832C26.0395 55.6832 29.0332 55.665 32.0457 55.665C32.234 55.774 32.3281 55.9918 32.0457 55.9918C29.1273 56.01 26.2089 55.9918 23.2905 55.9918C23.1211 55.9918 22.9893 55.8829 23.027 55.6832Z" fill="#890938"/>
<path d="M2.88073 50.4185C2.18409 48.7845 1.48744 47.1504 0.790794 45.5164C1.03556 45.2441 1.37447 45.1533 1.73221 45.1533C2.27823 46.8055 2.76776 48.4758 3.06902 50.2006C3.16316 50.4185 3.05019 50.4366 2.88073 50.4185Z" fill="#E382B5"/>
<path d="M46.3364 29.3215C46.3552 28.9584 46.6753 28.7586 46.8259 28.4682C46.9766 28.1777 47.259 28.1232 47.5226 28.3229C48.2757 28.9039 49.0288 29.4849 49.7631 30.084C49.8949 30.1929 49.8761 30.3563 49.7255 30.4653C49.1418 30.4108 48.5958 30.1929 48.0121 30.1022C47.6732 29.4304 46.9012 29.612 46.3364 29.3215Z" fill="#E7A7A1"/>
<path d="M4.68827 47.7134C4.65062 47.659 4.63179 47.5863 4.59413 47.5319C4.61296 46.7693 4.36819 46.0068 4.44351 45.2261C4.48116 44.8811 4.44351 44.4999 4.76359 44.2275C5.12133 44.8448 5.49789 45.4621 5.85563 46.0794C5.91211 46.1157 5.94977 46.1702 5.91211 46.2428C6.02508 46.5515 6.15688 46.8419 6.26985 47.1506C5.74266 47.3322 5.21547 47.5137 4.68827 47.7134Z" fill="#C7B10C"/>
<path d="M24.7027 11.438C24.4956 11.9827 24.2132 12.6363 23.6483 12.7089C23.14 12.7634 22.914 12.0553 22.6504 11.6196C22.4998 11.3835 22.0479 11.2564 22.255 10.8389C23.1211 10.9115 23.9308 11.0749 24.7027 11.438Z" fill="#A2195E"/>
<path d="M29.052 53.2868C28.5437 53.5228 28.5813 54.122 28.2047 54.4488C27.9412 54.3035 28.1859 53.9767 27.9788 53.8315C27.6587 53.8678 27.7905 54.2672 27.5081 54.3398C27.1504 54.1946 27.4516 53.7589 27.1504 53.5773C26.755 53.6499 26.8679 54.1764 26.3784 54.2854C26.3784 53.7589 26.3784 53.2687 26.3784 52.7784C26.5102 52.615 26.6985 52.5969 26.8868 52.615C26.9809 52.6514 27.0562 52.6877 27.1315 52.7421C27.7717 52.9419 28.4119 53.1234 29.052 53.2868Z" fill="#E281B4"/>
<path d="M46.9201 24.292C47.0331 24.292 47.146 24.3101 47.259 24.3101C49.556 24.9456 51.8908 25.3632 54.2255 25.7626C54.1501 26.0168 53.943 26.1076 53.6983 26.1439C51.5707 25.581 49.4242 25.1635 47.259 24.8185C47.0707 24.6914 46.9577 24.5099 46.9201 24.292Z" fill="#A91E58"/>
<path d="M33.5332 0C34.3428 0.944092 35.4348 1.61585 36.3574 2.50548C35.2466 2.77781 34.644 2.52363 34.1169 1.63401C33.9286 1.32536 33.9662 0.907781 33.5708 0.708069C33.6838 0.472046 33.1566 0.254179 33.5332 0Z" fill="#7D0022"/>
<path d="M3.23843 21.7501C3.61499 21.7683 3.63382 22.0225 3.61499 22.2948C3.01249 22.7487 2.20287 22.6761 1.54388 23.021C1.43091 23.2571 1.26146 23.3841 0.979032 23.4023C0.847234 22.9303 0.320041 22.4037 1.18614 22.0769C1.05434 21.968 0.922547 21.8591 0.790749 21.7683C1.11083 21.7683 1.41208 21.7683 1.73216 21.7683C2.24053 21.9498 2.73006 21.4233 3.23843 21.7501Z" fill="#FDBEAD"/>
<path d="M27.1315 52.7601C27.0562 52.7601 26.9997 52.742 26.9244 52.742C26.2843 52.2518 25.5311 52.2881 24.778 52.2881C24.3826 52.2881 23.9684 52.397 23.573 52.2155C23.573 51.9795 23.573 51.7253 23.5542 51.4893C24.8533 51.5074 26.1713 51.5256 27.4704 51.5619C27.3763 51.9795 27.2633 52.3789 27.1315 52.7601Z" fill="#C5B10D"/>
<path d="M48.0309 30.1018C48.7088 29.775 49.2171 30.1381 49.7443 30.4649C49.7255 30.5739 49.7067 30.6828 49.6878 30.7917C49.6502 30.8099 49.5937 30.8281 49.556 30.8462C49.0853 30.8825 49.4431 31.0641 49.4807 31.1912C49.2548 31.6995 48.8782 31.99 48.3134 31.6814C47.6167 31.282 47.8615 30.6647 48.0309 30.1018Z" fill="#FD8128"/>
<path d="M4.76352 44.2275C4.63173 45.3168 4.93298 46.4424 4.59407 47.5136C4.3493 46.8963 4.10453 46.279 3.85977 45.6617C3.70914 45.6073 3.615 45.4983 3.55851 45.3713C3.44554 45.0989 3.3514 44.8266 3.55851 44.5543C3.93508 44.3909 4.31165 44.2093 4.70704 44.0459C4.72587 44.1185 4.7447 44.173 4.76352 44.2275Z" fill="#FCC602"/>
<path d="M5.1213 49.8919C4.74473 49.9827 4.36817 50.0916 3.9916 50.1824C3.84098 49.7648 4.42465 49.783 4.29286 49.4925C4.16106 49.1657 3.76566 49.4562 3.5209 49.2202C3.82215 49.0205 4.10457 48.8207 4.42465 48.5847C4.16106 48.2942 3.80332 48.5484 3.53972 48.3487C3.85981 48.04 4.23637 47.8948 4.68825 47.8403C4.82005 48.5302 5.21544 49.1657 5.1213 49.8919Z" fill="#7F062A"/>
<path d="M23.5918 52.2334C24.4767 51.8885 25.3805 52.1064 26.2843 52.07C26.7173 52.0519 26.7738 52.4695 26.9432 52.7418C26.755 52.76 26.5855 52.7781 26.3972 52.7781C26.096 52.76 25.8135 52.76 25.5123 52.7418C25.1922 52.6329 24.8533 52.6329 24.5332 52.76C24.4391 52.7963 24.3449 52.8144 24.2508 52.8144C23.9872 52.8144 23.7424 52.7963 23.5542 52.5966C23.5542 52.4876 23.573 52.3605 23.5918 52.2334Z" fill="#FDC503"/>
<path d="M31.6503 13.7804C31.7256 13.3992 31.3302 13.0542 31.5185 12.6548C32.5729 13.1087 33.8344 14.0165 34.098 14.5067C33.2884 14.2525 32.4599 14.0165 31.6503 13.7804Z" fill="#E7A8A2"/>
<path d="M37.3365 12.2553C37.4683 11.4383 37.8449 10.7121 38.2214 9.98584C38.2967 10.5487 38.3156 11.1296 38.485 11.6743C38.6921 12.3642 38.4285 12.5095 37.7884 12.3461C37.6377 12.3098 37.4871 12.2916 37.3365 12.2553Z" fill="#DB837C"/>
<path d="M23.5353 52.6147C23.7989 52.6329 24.0437 52.6692 24.3073 52.6874C24.3826 53.7222 24.0814 54.0854 23.2153 54.0672C23.2153 53.5588 23.0835 53.0142 23.5353 52.6147Z" fill="#C22987"/>
<path d="M41.6293 30.1203C42.4013 30.2656 43.1356 29.7935 43.9076 29.9388C42.6837 30.5016 41.4034 30.6287 40.0666 30.32C40.5561 30.0295 41.121 30.3563 41.6293 30.1203Z" fill="#E49B93"/>
<path d="M23.1964 54.0678C24.0437 53.977 24.1002 53.269 24.2885 52.688C24.3638 52.688 24.4391 52.688 24.5144 52.688C24.6085 52.688 24.665 52.7243 24.6839 52.7969C24.5332 53.6684 24.006 54.2494 23.1588 54.5943C23.1776 54.4128 23.1964 54.2494 23.1964 54.0678Z" fill="#A51764"/>
<path d="M3.55853 44.5719C3.63385 44.8261 3.70916 45.0984 3.78447 45.3526C3.12548 45.7157 2.65478 45.4434 2.24055 44.9532C2.65478 44.7716 3.03134 44.4267 3.55853 44.5719Z" fill="#BC1D82"/>
<path d="M41.6293 30.1201C41.1586 30.4832 40.5938 30.1927 40.0854 30.3198C39.4641 30.3924 38.8804 30.229 38.2779 30.0838C38.9934 29.6481 39.7089 30.1927 40.4243 30.1201C40.8197 30.0656 41.2151 30.1019 41.6293 30.1201Z" fill="#E4998F"/>
<path d="M2.24059 44.9531C2.7113 45.2436 3.20083 45.4252 3.78451 45.3525C3.80334 45.4615 3.84099 45.5704 3.85982 45.6794C3.08786 45.8064 2.46653 45.5704 1.92051 45.0439C2.03348 45.0076 2.14645 44.9713 2.24059 44.9531Z" fill="#A61766"/>
<path d="M2.82423 51.7074C3.01251 52.1794 3.21962 52.6696 3.40791 53.1417C3.35142 53.2143 3.33259 53.3414 3.20079 53.3595C2.95603 52.9057 2.73009 52.4518 2.61712 51.9434C2.56063 51.78 2.61712 51.6892 2.82423 51.7074Z" fill="#861034"/>
<path d="M0.0187988 45.8794C0.621303 46.0246 0.508333 46.6238 0.753101 46.9869C0.696616 47.0595 0.677788 47.1684 0.564818 47.1866C0.301222 46.8053 0.0376271 46.3877 0.0187988 45.8794Z" fill="#981C4D"/>
<path d="M49.4807 31.1911C49.123 31.1366 48.9159 30.9369 48.8217 30.592C49.1795 30.483 49.3677 30.6646 49.556 30.8461C49.5184 30.9551 49.4995 31.0822 49.4807 31.1911Z" fill="#F59C03"/>
<path d="M1.56277 48.9658C1.78871 49.22 1.93934 49.5105 1.92051 49.8555C2.01465 50.0189 2.03348 50.1641 1.88285 50.2912C1.7134 49.9099 1.54394 49.5286 1.37449 49.1474C1.41215 49.0566 1.46863 48.984 1.56277 48.9658Z" fill="#932548"/>
<path d="M44.2653 29.9202C44.3782 29.4118 44.8678 29.5026 45.2067 29.3755C45.3196 29.4481 45.3196 29.5207 45.2255 29.6115C44.9431 29.8112 44.6042 29.8475 44.2653 29.9202Z" fill="#E29790"/>
<path d="M1.56271 48.9655C1.50623 49.02 1.44974 49.0926 1.39326 49.147C1.3556 48.8021 0.903723 48.6387 0.997865 48.2393C1.44974 48.2937 1.46857 48.6568 1.56271 48.9655Z" fill="#7F032A"/>
<path d="M1.88284 50.2907C1.90166 50.1455 1.90166 50.0002 1.92049 49.855C2.1276 50.2726 2.50417 50.6538 2.27823 51.1803C2.07112 50.908 1.95815 50.5994 1.88284 50.2907Z" fill="#7F032A"/>
<path d="M3.20078 53.3775C3.27609 53.3049 3.33257 53.2323 3.40789 53.1597C3.53968 53.3594 3.69031 53.5409 3.82211 53.7407C3.20078 54.3035 3.3514 53.5773 3.20078 53.3775Z" fill="#830E32"/>
<path d="M2.82425 51.7069C2.76776 51.7795 2.69245 51.8703 2.63597 51.9429C2.3912 51.725 2.35354 51.4345 2.27823 51.144C2.6548 51.1622 2.73011 51.4345 2.82425 51.7069Z" fill="#8E2541"/>
<path d="M45.2255 29.6118C45.2255 29.5392 45.2067 29.4666 45.2067 29.3758C45.4514 29.285 45.6962 29.0308 45.9598 29.3577C45.715 29.4484 45.4703 29.5211 45.2255 29.6118Z" fill="#E0938B"/>
<path d="M0.564819 47.2046C0.621304 47.132 0.696617 47.0775 0.753102 47.0049C0.847243 47.3135 1.03553 47.5859 0.960214 47.9308C0.696618 47.7493 0.658961 47.4769 0.564819 47.2046Z" fill="#7B0024"/>
<path d="M35.4536 24.673C35.3218 24.909 35.1147 25.0724 34.87 25.1814C34.4181 24.8727 34.4369 24.3462 34.2486 23.9286C33.7026 22.694 33.4014 21.3687 32.8365 20.1523C32.7236 19.8799 32.4788 19.5531 32.78 19.2263C32.8177 18.9358 32.9118 18.6816 33.1566 18.4819C33.9097 19.1537 33.8532 20.1523 34.2863 20.9511C34.3616 21.0782 34.3804 21.2234 34.4369 21.3687C34.7382 22.1857 34.9641 23.0208 35.3407 23.8197C35.4536 24.0739 35.6231 24.3644 35.4536 24.673Z" fill="#D82266"/>
<path d="M32.78 19.2269C33.4767 21.2059 34.1733 23.203 34.87 25.182C34.7947 25.3272 34.6629 25.3817 34.5122 25.3817C33.7591 23.2393 33.006 21.097 32.234 18.9365C32.6294 18.882 32.6106 19.1725 32.78 19.2269Z" fill="#F36B4B"/>
<path d="M32.5918 17.3934C30.916 17.6294 29.8052 18.5009 29.2968 20.0804C29.2215 20.3346 29.1085 20.5888 28.9955 20.843C28.6378 20.8611 28.7131 20.6614 28.8073 20.4617C29.2403 18.283 30.8031 17.0484 33.1378 17.0303C33.2131 17.5205 32.7047 17.1755 32.5918 17.3934Z" fill="#F36D4A"/>
<path d="M35.4536 24.6739C35.0582 23.5845 34.6817 22.477 34.2863 21.3877C34.3428 21.3151 34.3616 21.2061 34.4745 21.188C34.9076 22.2955 35.3407 23.3848 35.7925 24.4923C35.6796 24.5649 35.5666 24.6194 35.4536 24.6739Z" fill="#F0654E"/>
<path d="M34.4934 21.1877C34.4369 21.2603 34.3616 21.3148 34.3051 21.3874C33.9286 20.4252 33.552 19.4448 33.1754 18.4825C33.2884 18.1194 33.4202 18.0468 33.5708 18.4644C33.8721 19.3721 34.1733 20.2799 34.4934 21.1877Z" fill="#F1664D"/>
<path d="M32.5917 17.3928C32.78 17.2839 32.9683 17.1568 33.1566 17.0479C33.6649 17.1023 34.1733 17.1568 34.6817 17.2113V17.1931C34.644 17.4473 34.5687 17.5381 34.2486 17.5017C33.7026 17.4291 33.1566 17.4291 32.5917 17.3928Z" fill="#EF604F"/>
<path d="M18.9978 31.9356C18.6212 31.9537 18.2635 31.8993 17.9057 31.7359C18.4329 31.2638 18.9036 31.8993 19.412 31.8811C19.2802 31.8993 19.1296 31.9174 18.9978 31.9356Z" fill="#E01E63"/>
<path d="M26.0207 32.6255C25.6253 32.9886 25.1358 32.7526 24.6839 32.807C24.6274 32.7526 24.6086 32.7163 24.6274 32.68C24.6462 32.6436 24.665 32.6255 24.7027 32.6255C25.1358 32.6255 25.5688 32.6255 26.0207 32.6255Z" fill="#3B979C"/>
<path d="M28.8261 20.4614C28.8449 20.6067 28.8638 20.7519 29.0144 20.8427C28.9767 20.9698 28.9579 21.224 28.7884 21.115C28.5249 20.9516 28.6002 20.6793 28.8261 20.4614Z" fill="#EF604F"/>
<path d="M24.7027 32.6255C24.7027 32.6981 24.7027 32.7526 24.6839 32.8252C24.3638 32.8252 24.0437 32.807 23.7237 32.807C23.7237 32.7526 23.7237 32.6981 23.7425 32.6436C24.0626 32.6436 24.3826 32.6436 24.7027 32.6255Z" fill="#238896"/>
<path d="M19.7697 32.1177C19.9956 31.8272 20.278 31.918 20.5605 32.0632C20.2969 32.0814 20.0333 32.0995 19.7697 32.1177Z" fill="#E61D63"/>
<path d="M13.9518 44.6081C13.9518 44.5536 13.9518 44.481 13.9518 44.4265C15.4957 44.3176 15.9099 43.2645 16.2865 42.03C16.7572 40.5049 17.209 38.9798 17.9057 37.5273C17.9622 37.5818 18.0187 37.6544 18.094 37.7089C17.3785 39.7423 16.7007 41.7939 15.9664 43.8274C15.6086 44.7533 14.6672 44.4447 13.9518 44.6081Z" fill="#0D7A92"/>
<path d="M23.7613 34.641C23.8177 34.5866 23.8742 34.5139 23.9495 34.4595C25.5311 35.7848 26.8303 37.3644 28.2612 38.835C28.2236 38.9258 28.1671 38.9802 28.0729 39.0165C26.642 37.5459 25.211 36.0935 23.7613 34.641Z" fill="#0C7A92"/>
<path d="M28.0729 38.998C28.1294 38.9435 28.1859 38.8709 28.2612 38.8164C29.5039 39.6879 30.1629 40.7409 29.6357 42.2841C29.5039 42.6654 29.598 43.1193 29.598 43.5187C29.4662 43.3916 29.3344 43.2827 29.2026 43.1556C29.2591 42.7199 29.2968 42.266 29.3909 41.8302C29.5792 40.9043 29.4662 40.0873 28.5625 39.5245C28.3554 39.4155 28.2424 39.1795 28.0729 38.998Z" fill="#0B7992"/>
<path d="M16.7948 34.2777C16.7195 34.3322 16.663 34.4048 16.5877 34.4593C16.4559 34.314 16.1923 34.1506 16.4183 33.9872C16.5312 33.8783 16.7007 34.1143 16.7948 34.2777Z" fill="#198294"/>
<path d="M32.5165 7.8252C32.3658 8.36986 33.0625 8.93269 32.5729 9.38658C32.1964 9.73154 31.5562 9.82232 31.0667 10.0947C29.6922 10.8753 28.2801 11.2203 26.755 10.4941C26.9998 10.2217 27.3387 10.3125 27.6399 10.3307C29.7864 10.4215 31.0855 9.00531 32.5165 7.8252Z" fill="#7D0325"/>
<path d="M39.4076 6.69981C38.2591 5.91911 36.9599 5.46522 35.6796 4.92055C35.4537 4.77531 35.1524 4.739 34.9453 4.39404C36.3574 4.59375 37.7319 4.77531 39.0687 5.01133C40.0854 5.21104 40.1984 5.90096 39.4076 6.69981Z" fill="#7C0124"/>
<path d="M28.2989 51.489C28.2424 49.9639 28.506 48.457 28.8073 46.9683C28.9956 47.1135 28.8261 47.3858 28.9956 47.5311C28.8638 48.7112 28.732 49.8913 28.6002 51.0896C28.6002 51.253 28.506 51.4164 28.2989 51.489Z" fill="#0F7C93"/>
<path d="M28.0729 43.7188C28.6943 43.6462 29.2403 43.7006 29.3909 44.4269C29.3344 44.9171 29.278 45.3891 29.2026 45.8793C28.7508 45.8249 28.9579 45.5525 29.0144 45.3165C29.0897 44.5903 29.165 43.8277 28.0729 43.7188Z" fill="#0D7A92"/>
<path d="M29.0144 45.335C29.0332 45.5347 28.9767 45.7525 29.2026 45.8978C29.1838 46.2064 29.3156 46.5514 29.0332 46.8237C28.8449 46.6785 29.0144 46.4061 28.8449 46.2609C28.8637 45.9523 28.7319 45.6073 29.0144 45.335Z" fill="#0F7C93"/>
<path d="M28.8449 46.2607C29.0708 46.406 29.0143 46.6239 29.0332 46.8236C29.0332 47.0596 29.0143 47.2956 29.0143 47.5316C28.7884 47.3864 28.8449 47.1685 28.8261 46.9688C28.8261 46.7328 28.8261 46.4968 28.8449 46.2607Z" fill="#0D7A92"/>
<path d="M34.8888 11.8921C35.2088 12.4186 35.5478 12.9451 35.9996 13.6895C35.1335 13.1993 34.7946 12.6546 34.8888 11.8921Z" fill="#DD867D"/>
<path d="M37.8825 8.84192C37.8448 9.04163 37.7507 9.20503 37.5436 9.20503C37.2988 9.22319 37.2423 9.02348 37.2988 8.84192C37.3365 8.66036 37.4683 8.51512 37.6754 8.53327C37.8448 8.53327 37.8825 8.69667 37.8825 8.84192Z" fill="#810A2C"/>
<path d="M51.7966 24.8368C51.9472 24.8368 52.0978 24.8005 52.1732 24.6553C52.3991 24.7461 52.625 24.8368 52.851 24.9276C52.4744 24.9821 52.0978 25.1455 51.7966 24.8368Z" fill="#F35805"/>
<path d="M3.23844 21.7503C2.74891 21.6777 2.24054 22.2405 1.75101 21.7685C2.24054 21.6414 2.74891 21.5143 3.23844 21.3872C3.82212 21.478 3.20079 21.6232 3.23844 21.7503Z" fill="#E29086"/>
<path d="M9.4518 45.1895C9.88485 45.1168 10.3179 45.0442 10.7698 44.9897C10.8263 45.0442 10.9581 45.0624 10.9769 45.1713C10.5627 45.4255 10.0731 45.371 9.64008 45.4981C9.48945 45.4436 9.39531 45.3529 9.4518 45.1895Z" fill="#0F7C92"/>
<path d="M12.6526 44.6265C12.7091 44.6809 12.7844 44.7354 12.8409 44.7899C12.4455 45.0622 11.956 44.9896 11.5041 45.1167C11.3723 45.0622 11.2781 44.9714 11.3346 44.8262C11.7677 44.7717 12.2196 44.6991 12.6526 44.6265Z" fill="#0B7992"/>
<path d="M7.569 45.5522C7.88908 45.4977 8.19033 45.4251 8.51041 45.3706C8.64221 45.4251 8.73635 45.5159 8.67987 45.6793C8.35979 45.7337 8.05853 45.8063 7.73845 45.8608C7.60665 45.8063 7.53134 45.7156 7.569 45.5522Z" fill="#0F7C92"/>
<path d="M8.67981 45.6792C8.62332 45.5702 8.56684 45.4795 8.51035 45.3705C8.83043 45.3161 9.13169 45.2434 9.45177 45.189C9.50825 45.2979 9.56474 45.3887 9.62122 45.4976C9.31997 45.5702 8.99989 45.6247 8.67981 45.6792Z" fill="#0F7C92"/>
<path d="M5.93088 46.2426C5.89323 46.1882 5.8744 46.1337 5.8744 46.0792C6.06268 45.8251 6.38276 45.8614 6.64636 45.7524C6.77816 45.8069 6.8723 45.8977 6.81581 46.0611C6.51456 46.1156 6.21331 46.17 5.93088 46.2426Z" fill="#0F7C92"/>
<path d="M6.79697 46.0425C6.74049 45.9335 6.684 45.8427 6.62752 45.7338C6.9476 45.6793 7.24885 45.6067 7.56893 45.5522C7.62542 45.6612 7.6819 45.752 7.73839 45.8609C7.43713 45.9335 7.11705 45.988 6.79697 46.0425Z" fill="#0F7C92"/>
<path d="M11.3346 44.8447C11.3911 44.9355 11.4476 45.0444 11.504 45.1352C11.3158 45.1534 11.1463 45.1534 10.958 45.1715C10.8827 45.1171 10.8262 45.0444 10.7509 44.99C10.958 44.9355 11.1463 44.8992 11.3346 44.8447Z" fill="#0B7992"/>
<path d="M3.23843 50.5815C3.44554 50.8176 3.4832 51.0717 3.3514 51.3622C3.14429 51.2896 3.10663 51.1081 3.05015 50.9447C3.18195 50.872 3.0878 50.6723 3.23843 50.5815Z" fill="#DA69AA"/>
<path d="M3.2385 50.5815C3.21967 50.7267 3.20084 50.872 3.05021 50.9446C2.99373 50.763 2.93724 50.5815 2.86193 50.3999C2.91842 50.3273 2.99373 50.2547 3.05021 50.2002C3.12553 50.3454 3.18201 50.4544 3.2385 50.5815Z" fill="#E17DB3"/>
<path d="M24.7027 52.8151C24.6462 52.7788 24.5897 52.7425 24.5332 52.7061C24.8722 52.6698 25.1922 52.579 25.5123 52.7788C25.2299 52.7788 24.9663 52.7969 24.7027 52.8151Z" fill="#C22987"/>
<path d="M3.78449 23.2031C3.9916 23.3302 3.82214 23.4392 3.78449 23.5662C3.20081 23.7115 2.61713 23.8567 2.03345 24.002C2.50416 23.4755 3.14432 23.3121 3.78449 23.2031Z" fill="#E18F86"/>
<path d="M1.54391 23.0216C2.12759 22.4951 2.89955 22.4951 3.61503 22.2954C3.82214 22.4225 3.63385 22.5314 3.61503 22.6585C2.89955 22.6948 2.25939 23.0761 1.54391 23.0216Z" fill="#E08F86"/>
<path d="M1.46858 45.6436C1.84515 46.2064 1.92046 46.8781 1.92046 47.5681C1.67569 46.9508 1.44975 46.3335 1.20499 45.7162C1.29913 45.698 1.39327 45.6799 1.46858 45.6436Z" fill="#E17EB3"/>
</svg>
