<svg width="56" height="56" viewBox="0 0 56 56" fill="none" xmlns="http://www.w3.org/2000/svg">
<g clip-path="url(#clip0)">
<path d="M46.9992 55.6703C46.9994 55.7185 46.9874 55.7658 46.9644 55.8076C46.9159 55.9007 46.8224 55.9589 46.7205 55.9594C43.4034 55.9594 42.8877 55.6775 39.8843 55.9594C38.2746 56.1184 38.4906 55.3162 38.6509 54.6657C38.6962 54.4632 38.779 54.2718 38.8948 54.102C39.2399 53.5738 39.4332 52.9547 39.4522 52.3169V51.8833H41.7728L42.0236 52.765C42.2025 53.3976 42.6683 53.8996 43.271 54.1093L46.7414 55.28C46.9038 55.333 47.0102 55.4941 46.9992 55.6703Z" fill="#FFD9AB"/>
<path opacity="0.05" fill-rule="evenodd" clip-rule="evenodd" d="M46.9643 55.7207C46.968 55.7471 46.968 55.7738 46.9643 55.8002L46.9573 55.8147C46.9089 55.9077 46.8154 55.9659 46.7134 55.9664C45.4448 55.9664 44.5871 55.9238 43.8477 55.8871C42.6376 55.8269 41.7442 55.7825 39.8843 55.9664C38.3092 56.1149 38.4887 55.3571 38.6408 54.715C38.6442 54.7009 38.6475 54.6868 38.6508 54.6728C38.6951 54.4699 38.778 54.2782 38.8947 54.1091C39.2419 53.5738 39.4352 52.9472 39.4522 52.3023V51.8687H41.8145L41.9888 52.4902L42.0654 52.7504V52.7865C42.107 52.9098 42.2398 53.1644 42.3126 53.304C42.3252 53.3281 42.336 53.3487 42.3442 53.3647C42.5824 53.7025 42.916 53.9551 43.2988 54.0874L46.7413 55.2799C46.8685 55.3364 46.9546 55.4619 46.9643 55.6051C46.97 55.6434 46.97 55.6824 46.9643 55.7207ZM41.9051 53.5813C41.227 53.8738 40.4829 53.9615 39.7588 53.8343C39.703 55.4387 45.0688 55.8868 46.6577 55.641C46.0848 55.3413 45.3751 55.1597 44.673 54.98C43.5132 54.6832 42.3739 54.3916 41.9051 53.5813Z" fill="#1D1D1B"/>
<path d="M25.4592 54.6874C25.6125 55.3379 25.8355 56.1328 24.2257 55.9811C21.2292 55.6848 20.7414 55.9811 17.3965 55.9811C17.2426 55.9811 17.1178 55.8516 17.1178 55.692C17.0974 55.5127 17.1983 55.3423 17.3617 55.28L20.8041 54.0876C21.3939 53.8764 21.8501 53.3844 22.0306 52.765L22.3094 51.8833H24.6299V52.3169C24.6469 52.9618 24.8402 53.5884 25.1874 54.1237C25.314 54.2905 25.4065 54.4823 25.4592 54.6874Z" fill="#FFD9AB"/>
<path opacity="0.05" d="M25.4593 54.6874C25.415 54.4845 25.3321 54.2929 25.2154 54.1237C24.8682 53.5884 24.6749 52.9618 24.6579 52.3169V51.8833H22.3095L22.0308 52.765C21.9411 52.9773 21.8411 53.1848 21.7311 53.3865C22.5271 53.8107 23.4314 53.9649 24.3164 53.8274C24.3792 55.5691 18.0447 55.9522 17.097 55.5547C17.0914 55.593 17.0914 55.632 17.097 55.6703C17.097 55.83 17.2218 55.9594 17.3757 55.9594C20.6928 55.9594 21.2085 55.6775 24.2049 55.9594C25.8356 56.1401 25.6056 55.3379 25.4593 54.6874Z" fill="#1D1D1B"/>
<path d="M43.4383 39.1492C43.258 39.4876 43.0222 39.7909 42.7414 40.0453L42.6857 40.1031C42.0373 40.6808 41.194 40.9673 40.3417 40.8995C39.4894 40.8317 38.6981 40.4152 38.1422 39.7418L37.4453 38.9034L31.4733 31.6763L36.414 27.2822L41.947 33.9818L42.8599 35.0442L43.0759 35.3116C43.9707 36.3809 44.1161 37.9201 43.4383 39.1492Z" fill="#EDEDED"/>
<path d="M44.0723 53.2567L41.2848 53.2928H40.4626H40.0653H37.5636L37.4452 38.8386V37.5594C37.434 36.6738 37.7625 35.82 38.3585 35.1856C38.9544 34.5513 39.7689 34.1885 40.6228 34.1771H40.6855C41.0234 34.1719 41.3599 34.2232 41.6821 34.3289C43.011 34.7601 43.922 36.0286 43.9399 37.4727L44.0723 53.2567Z" fill="#EDEDED"/>
<path opacity="0.1" fill-rule="evenodd" clip-rule="evenodd" d="M42.8599 35.0442C43.5469 35.6716 43.9425 36.5737 43.947 37.5231L44.0654 53.271L41.278 53.3072H40.4557H40.0794H37.5777L37.4592 38.8529L35.076 35.9621L38.1422 35.4489L41.1874 34.943H41.2989L41.6822 34.3504L41.947 33.9385L42.8599 35.0442ZM38.4348 51.8979C39.2694 52.5087 40.2412 52.8869 41.2571 52.9965C43.5567 51.6667 43.6334 44.1649 43.4104 39.1421V38.5205C43.3638 37.2526 42.6928 36.0982 41.6334 35.4635L41.1595 35.1816L41.2013 35.1238L37.6613 37.0751L39.501 38.441C39.078 38.9479 38.7729 39.5488 38.609 40.1972C38.0025 42.35 38.2628 48.0992 38.4193 51.554C38.4246 51.6714 38.4298 51.7861 38.4348 51.8979Z" fill="#1D1D1B"/>
<path d="M32.7414 31.6624L29.1526 35.9987L26.7693 38.8896L26.0725 39.7207C25.9324 39.8909 25.7759 40.0458 25.6056 40.1832C24.4029 41.1623 22.7022 41.129 21.536 40.1037L21.4872 40.0604C20.8383 39.4851 20.4368 38.6657 20.3714 37.7829C20.3061 36.9002 20.5822 36.0268 21.1387 35.3555L21.3339 35.0447L27.7728 27.2539L32.7414 31.6624Z" fill="#EDEDED"/>
<path d="M26.7763 37.6098V38.889L26.6578 53.3433L20.4697 53.2638H20.1422L20.2676 37.5303C20.2768 36.6442 20.626 35.7983 21.2381 35.1798C21.8501 34.5613 22.6745 34.2213 23.5289 34.2348H23.5917C24.4455 34.2443 25.2608 34.6052 25.858 35.2382C26.4553 35.8712 26.7856 36.7243 26.7763 37.6098Z" fill="#EDEDED"/>
<path opacity="0.1" d="M29.1526 35.9985L26.7693 38.8894L26.6509 53.3436L20.4628 53.2713H20.3652C22.4558 53.1051 24.5464 52.9389 25.7798 51.8982C25.9331 48.4942 26.2328 42.4234 25.6056 40.1975C25.4418 39.549 25.1366 38.9482 24.7136 38.4413L26.5533 37.0754L22.6788 34.9072L26.0795 35.4709L29.1526 35.9985Z" fill="#1D1D1B"/>
<path d="M16.4559 12.0839L15.5918 14.3893L13.9542 13.7245C13.78 14.1364 13.1807 14.1509 12.5605 13.9124L10.6441 13.1174C10.7085 11.8602 11.0216 10.6302 11.564 9.50381L12.8462 10.0242L13.0552 9.42432C13.104 9.42432 14.205 10.147 14.2887 10.147C14.6005 10.3896 14.8002 10.7566 14.8392 11.1588V11.3901L16.4559 12.0839Z" fill="#F5CD9D"/>
<path d="M11.8566 10.3636C11.9749 10.4136 12.1075 10.4128 12.2251 10.3612C12.3428 10.3097 12.4359 10.2118 12.4838 10.089V10.0023C12.532 9.87961 12.5312 9.7421 12.4815 9.62008C12.4318 9.49805 12.3374 9.40154 12.219 9.35183L11.32 8.96879C11.0911 8.87377 10.8309 8.98621 10.7347 9.22174L10.665 9.39519C10.6214 9.50242 10.6213 9.62332 10.6645 9.73069C10.7078 9.83806 10.7908 9.9229 10.895 9.96613L11.8566 10.3636Z" fill="#FFD9AB"/>
<path d="M11.5778 11.4266C11.696 11.4793 11.8296 11.4806 11.9488 11.4304C12.068 11.3801 12.1628 11.2825 12.212 11.1592V11.0725C12.3132 10.819 12.1979 10.5284 11.9541 10.422L10.881 9.92334C10.7701 9.87542 10.6454 9.87515 10.5343 9.92259C10.4232 9.97003 10.3348 10.0613 10.2886 10.1763L10.219 10.3497C10.132 10.5693 10.2314 10.8205 10.4419 10.9135L11.5778 11.4266Z" fill="#FFD9AB"/>
<path d="M11.2923 12.4452C11.4106 12.4952 11.5432 12.4943 11.6608 12.4428C11.7785 12.3913 11.8715 12.2933 11.9195 12.1705V12.0838C11.9677 11.9612 11.9669 11.8236 11.9172 11.7016C11.8675 11.5796 11.7731 11.4831 11.6547 11.4334L10.7488 11.0503C10.5198 10.9553 10.2596 11.0678 10.1634 11.3033L10.0937 11.4767C10.0502 11.584 10.05 11.7049 10.0932 11.8122C10.1365 11.9196 10.2195 12.0044 10.3237 12.0477L11.2923 12.4452Z" fill="#FFD9AB"/>
<path d="M10.9369 13.24C11.0329 13.2771 11.1393 13.2728 11.2323 13.228C11.3253 13.1832 11.3971 13.1016 11.4316 13.0015V12.9292C11.4742 12.8334 11.4783 12.7239 11.443 12.625C11.4077 12.526 11.3359 12.4457 11.2435 12.4016L10.5466 12.1053C10.3601 12.0373 10.1554 12.137 10.0867 12.3294L10.031 12.4739C9.99334 12.5582 9.98987 12.6545 10.0213 12.7415C10.0527 12.8284 10.1164 12.8986 10.1982 12.9364L10.9369 13.24Z" fill="#FFD9AB"/>
<path d="M15.2015 13.0018L14.2817 12.6404C13.4722 12.4559 12.9448 11.645 13.0831 10.7975L12.9367 10.7035C12.8617 10.667 12.7748 10.667 12.6998 10.7035L12.2259 10.877C12.0624 10.9367 11.8827 10.9259 11.7268 10.8472C11.571 10.7684 11.4521 10.6282 11.3967 10.4578V10.3566C11.3556 10.2732 11.352 10.1753 11.387 10.089C11.4219 10.0026 11.4917 9.9366 11.5779 9.90855L12.0587 9.74955L12.8113 9.46769C12.8898 9.43655 12.9767 9.43655 13.0552 9.46769C13.104 9.46769 14.205 10.1904 14.2886 10.1904C14.6005 10.433 14.8002 10.7999 14.8392 11.2022V11.4335L15.313 11.6141L15.2015 13.0018Z" fill="#FFD9AB"/>
<path d="M23.4246 17.1354C23.3968 17.3232 23.3428 17.5058 23.2643 17.6774V17.7136C22.9368 18.4277 22.2428 18.8831 21.4804 18.8844H21.4316C21.1567 18.8763 20.8864 18.8098 20.6372 18.6892L14.9369 15.9429V11.3682L21.4873 14.5264L22.3236 14.9311C23.1277 15.3245 23.5787 16.2272 23.4246 17.1354Z" fill="#EDEDED"/>
<path d="M37.8981 12.0765C37.8981 12.0765 37.689 13.4713 37.5148 15.0324C37.3894 16.1453 37.2779 17.345 37.2779 18.1617L36.7483 25.649H27.4661C27.4661 25.649 27.264 24.1024 26.9923 22.0354C26.9923 21.8403 26.9435 21.638 26.9156 21.4356C26.5672 18.7182 26.1351 15.3648 25.947 13.6159C25.8921 13.2304 25.8595 12.8418 25.8494 12.4523C26.6647 11.9825 27.94 11.0647 28.9853 10.3275C29.5288 9.9517 30.0236 9.6048 30.379 9.40967H33.3964C34.2535 9.82161 37.8981 12.0765 37.8981 12.0765Z" fill="#EDEDED"/>
<path d="M33.4035 5.05176V9.38803C32.9366 10.024 29.8426 16.3911 29.8426 16.3911C29.8426 16.3911 29.3757 11.9753 29.1457 10.1975C29.0551 9.74938 28.9994 9.41694 28.9994 9.41694V8.53523L28.8391 7.08981L28.6858 5.70943L31.1318 5.41311L31.6544 5.34807L32.4906 5.24689L33.4035 5.05176Z" fill="#FFD9AB"/>
<rect x="27.4664" y="25.6416" width="9.28213" height="2.00914" fill="#E6332A"/>
<path d="M42.4764 34.6106C35.4591 37.8483 28.5393 37.8989 21.738 34.6106L27.4661 27.6509H36.7483L42.4764 34.6106Z" fill="#EDEDED"/>
<path d="M29.8425 16.4198L28.0028 20.0334L26.9993 22.0353C26.7903 20.4092 26.5394 18.4795 26.3025 16.7739L22.3931 18.6747C22.0973 18.8186 21.7715 18.8832 21.4454 18.8626H21.4314C20.7326 18.8094 20.114 18.3743 19.8077 17.7207C19.8063 17.7039 19.8063 17.6869 19.8077 17.6701V17.634C19.3577 16.6099 19.7866 15.401 20.7694 14.9238L21.529 14.5118C23.4035 13.4928 28.17 10.8983 29.0272 10.3057L29.8425 16.4198Z" fill="#EDEDED"/>
<path opacity="0.1" d="M37.515 15.0323C37.3896 16.1452 37.2781 17.3449 37.2781 18.1616L36.7485 25.6489H27.4663C27.4663 25.6489 27.2643 24.1023 26.9925 22.0353C26.9925 21.8402 26.9437 21.6378 26.9158 21.4355L35.6405 19.9178V14.5625L37.515 15.0323Z" fill="#1D1D1B"/>
<path opacity="0.1" d="M36.7485 27.6509H31.7172C35.292 28.099 37.8843 29.2119 39.0411 31.7197C37.2323 32.7027 35.3317 33.4921 33.3687 34.0758C35.4219 33.7225 37.4253 33.1084 39.3338 32.2473L39.724 32.97C36.2301 34.4213 32.4983 35.1575 28.7346 35.1382C32.5939 35.6266 36.5098 35.1304 40.1422 33.6928L40.3582 34.0758C36.0446 36.6342 28.7207 37.0534 21.7312 34.6106C28.5395 37.8989 35.4523 37.8483 42.4697 34.6106L36.7485 27.6509Z" fill="#1D1D1B"/>
<path opacity="0.1" d="M28.003 20.0689L26.9995 22.0347C26.7904 20.4086 26.5396 18.479 26.3026 16.7734L22.3933 18.6741C22.0975 18.818 21.7716 18.8826 21.4455 18.862H21.4316C21.1582 18.8607 20.8879 18.8017 20.6372 18.6886L14.9369 15.9422L19.8149 17.7418L20.0797 17.843C20.9232 18.1528 21.8533 18.0821 22.6441 17.6478L23.4316 17.142L26.5535 15.1328C26.729 16.8589 27.221 18.5343 28.003 20.0689Z" fill="#1D1D1B"/>
<path d="M40.7551 22.6353C40.7458 23.6247 40.0572 24.4665 39.1174 24.6372H39.0756C38.0002 24.8294 36.9777 24.0826 36.7899 22.9677L36.3997 20.6334L35.3474 14.3964C35.2564 13.8596 35.3749 13.3073 35.6769 12.8613C35.9789 12.4153 36.4395 12.1121 36.9572 12.0186H36.999C38.0721 11.8261 39.0936 12.569 39.2847 13.6809L39.6192 15.6828L40.7272 22.2522C40.7484 22.3787 40.7577 22.507 40.7551 22.6353Z" fill="#EDEDED"/>
<rect x="25.7449" y="20.2793" width="2.44597" height="1.00457" rx="0.502285" fill="#F5CD9D"/>
<rect x="25.6058" y="21.2769" width="2.73865" height="1.00457" rx="0.502285" fill="#F5CD9D"/>
<path d="M29.5639 20.4022C29.1667 20.2866 28.7765 20.1492 28.4002 20.0047C28.197 19.9184 27.9692 19.9184 27.766 20.0047C27.4176 20.1637 27.0692 20.3155 26.7277 20.4383C26.4599 20.5404 26.316 20.8421 26.4002 21.1249C26.4411 21.2633 26.5357 21.3778 26.6613 21.4409C26.7869 21.504 26.9322 21.5099 27.0622 21.4574C27.4106 21.3273 27.7591 21.1827 28.1075 21.0237C28.4629 21.161 28.8043 21.2911 29.1946 21.4068C29.4938 21.5022 29.8139 21.3456 29.9333 21.0454C29.969 20.9092 29.9499 20.7638 29.8802 20.6425C29.8106 20.5212 29.6964 20.4345 29.5639 20.4022Z" fill="#F5CD9D"/>
<rect x="25.8913" y="22.2812" width="2.44597" height="1.00457" rx="0.502285" fill="#F5CD9D"/>
<rect x="26.1631" y="23.2788" width="2.17419" height="0.888936" rx="0.444468" fill="#F5CD9D"/>
<path d="M30.4281 22.715V21.7394C30.4281 20.9411 29.8041 20.2939 29.0344 20.2939H27.8706V24.2038H28.9995C29.3825 24.2139 29.7526 24.0601 30.0229 23.7784C30.2931 23.4968 30.4397 23.1122 30.4281 22.715Z" fill="#FFD9AB"/>
<rect x="29.2571" y="20.8574" width="2.55746" height="2.73908" fill="#FFD9AB"/>
<path d="M28.0445 24.2036H27.1874C26.9526 24.2036 26.7623 24.0062 26.7623 23.7628C26.7623 23.5193 26.9526 23.3219 27.1874 23.3219H27.034C26.8961 23.3211 26.7651 23.2588 26.6745 23.1509C26.5838 23.0431 26.5422 22.9001 26.5602 22.7582C26.5602 22.4828 26.7755 22.2595 27.041 22.2595H26.9086C26.6431 22.2595 26.4278 22.0363 26.4278 21.7609C26.4529 21.5054 26.661 21.3115 26.9086 21.3128C26.6431 21.3128 26.4278 21.0895 26.4278 20.8141C26.4181 20.6757 26.4644 20.5394 26.5557 20.4379C26.6469 20.3364 26.7748 20.2789 26.9086 20.2793H28.0654V24.2036H28.0445Z" fill="#FFD9AB"/>
<path d="M40.7552 22.6352V22.6931C40.7608 23.2367 40.5574 23.7604 40.1899 24.1482C39.8225 24.536 39.3213 24.7562 38.797 24.76L30.5253 24.8467V20.6984L36.3998 20.6405L38.7552 20.59C39.2825 20.5842 39.7902 20.7969 40.1657 21.1809C40.5412 21.5648 40.7534 22.0884 40.7552 22.6352Z" fill="#EDEDED"/>
<path opacity="0.1" d="M40.7552 22.6357V22.6935C40.7608 23.2372 40.5574 23.7608 40.1899 24.1487C39.8225 24.5365 39.3213 24.7567 38.797 24.7605L30.5253 24.8472V24.2979L37.3197 24.0378H37.9538C38.6098 24.0123 39.2255 23.7033 39.6518 23.1857C40.0781 22.6681 40.2761 21.989 40.1977 21.3131V21.2336L39.6263 15.6904L40.7343 22.2599C40.7527 22.3842 40.7597 22.51 40.7552 22.6357Z" fill="#1D1D1B"/>
<path opacity="0.1" d="M36.7485 27.6507H27.4664L36.205 27.1304L36.7485 25.6416V27.6507Z" fill="#1D1D1B"/>
<path opacity="0.1" d="M29.1037 10.104C29.048 9.69923 29.0131 9.43906 29.0131 9.38124L29.1386 8.43449L28.9992 7.17697L31.2919 6.97461C31.5427 8.8898 31.5567 9.13552 29.1037 10.104Z" fill="#1D1D1B"/>
<path d="M26.6092 6.61998C26.7797 6.70916 26.9634 6.76781 27.1528 6.79343C27.1528 6.79343 27.313 7.69682 27.3688 7.98591C27.7102 9.70596 28.2817 9.63369 29.0203 9.43133C29.6416 9.24509 30.242 8.9907 30.8113 8.67248C31.2294 8.39785 31.1248 7.94977 31.4036 6.3309C31.4036 6.3309 33.1248 6.3309 33.1318 6.3309C33.7607 5.28581 34.0239 4.04824 33.8774 2.82574C33.7381 -0.20242 27.1876 -1.61171 26.9089 3.74359C26.8899 4.07086 26.9548 4.39751 27.097 4.69034C26.9646 5.1601 26.6928 5.72382 26.5395 6.22972C26.5006 6.36384 26.5266 6.5092 26.6092 6.61998Z" fill="#FFD9AB"/>
<path d="M27.3686 2.58008C29.7658 2.58008 30.4138 2.87639 30.2675 4.98671C30.6508 4.98671 31.3894 5.03007 31.3058 5.8901C31.296 6.0031 31.296 6.11678 31.3058 6.22978C31.3058 6.40323 31.3058 6.555 31.3476 6.69954C31.3894 7.06915 31.5819 7.40248 31.8763 7.61524C32.1707 7.82801 32.5389 7.89982 32.8877 7.81251C33.4995 7.75806 33.9938 7.27236 34.0793 6.64172C34.2243 5.60819 34.2826 4.56358 34.2535 3.51961C34.2715 2.47027 33.7989 1.47673 32.9852 0.8528C32.8009 0.712387 32.605 0.589051 32.3999 0.484217C32.2415 0.404252 32.0786 0.334263 31.9121 0.27463C31.7402 0.216814 31.566 0.166224 31.3894 0.122861C31.0822 0.053581 30.7698 0.0124688 30.4556 0H30.2396C28.8459 0 27.3546 0.332447 26.7553 1.6261C26.6647 1.8386 26.6851 2.08439 26.8094 2.27773C26.9336 2.47106 27.1446 2.58511 27.3686 2.58008Z" fill="#3C3C3B"/>
<path d="M32.3024 4.97249C32.3024 5.6952 31.9191 6.58413 31.3407 6.26614C30.9546 6.00682 30.7481 5.53907 30.8111 5.06644C30.761 4.57082 31.0956 4.12196 31.5707 4.04741C32.0237 3.96792 32.3163 4.37986 32.3024 4.97249Z" fill="#FFD9AB"/>
<path opacity="0.1" d="M28.0448 36.0632C28.4281 32.5003 28.442 28.3085 30.5326 27.6509H28.3375L28.0448 36.0632Z" fill="#1D1D1B"/>
</g>
<defs>
<clipPath id="clip0">
<rect width="56" height="56" fill="white"/>
</clipPath>
</defs>
</svg>
