<svg width="56" height="56" viewBox="0 0 56 56" fill="none" xmlns="http://www.w3.org/2000/svg">
<path d="M4.24952 1.86907C4.02169 1.51682 3.72315 0.364 4.51664 0.0197548C5.31013 -0.32449 13.2686 3.94254 13.4807 4.07864C13.6928 4.21474 13.3472 4.79115 12.9229 4.64705C12.5413 4.43804 12.1447 4.25874 11.7366 4.11066C11.5406 4.40184 11.3994 4.7276 11.3202 5.07135L10.6839 4.78314C10.9631 4.14639 10.7216 3.39766 10.1261 3.05391C9.08117 2.50953 7.76916 1.92511 7.53347 2.02118C7.31308 2.3716 7.18584 2.77438 7.16422 3.19001L6.23718 2.77371C6.23718 2.77371 6.96782 1.66092 5.93864 1.17257C4.90946 0.684227 4.10025 0.476079 4.96445 2.21331C5.82865 3.95055 4.24952 1.86907 4.24952 1.86907Z" fill="#505366"/>
<path d="M31.8643 12.7407C31.4951 12.7887 31.2908 13.8935 31.4479 14.3018C31.4479 14.3018 31.3222 14.7501 30.1831 14.0776C29.0439 13.4051 29.091 13.0929 28.6118 12.9168C28.1326 12.7407 28.3447 12.9168 28.2818 12.8127C28.2551 12.4612 28.1475 12.1211 27.9676 11.82C27.6533 11.4357 27.0327 9.71451 29.2324 10.0668C30.5492 10.3535 31.579 11.3997 31.8643 12.7407Z" fill="#FFB884"/>
<g style="mix-blend-mode:multiply" opacity="0.3">
<path d="M28.1957 10.9877C28.0779 10.7956 27.6615 10.8757 27.6222 10.7316C27.6772 10.2672 28.0465 9.88295 29.1935 10.0671C30.5194 10.3454 31.5601 11.3933 31.8489 12.741C31.5765 12.9107 31.4146 13.2164 31.4247 13.5416L31.4797 13.3174C30.096 13.086 28.889 12.2298 28.1957 10.9877Z" fill="#FFB884"/>
</g>
<path d="M31.9434 6.13602C31.1577 5.51958 30.6235 4.96719 29.6415 4.96719C28.5912 4.86612 27.5421 5.17196 26.7032 5.8238C25.9629 6.52138 25.568 7.52004 25.6269 8.54574C25.7211 9.28226 26.6089 11.4278 27.9838 11.8441C27.9323 11.6471 27.9642 11.4371 28.0717 11.2652C28.1792 11.0933 28.3525 10.9751 28.5494 10.9394C28.7548 10.874 28.9248 10.7256 29.0198 10.5289C29.1149 10.3322 29.1266 10.1044 29.0522 9.8987L31.9434 6.13602Z" fill="#45332B"/>
<path d="M27.5118 5.27931C27.4411 4.59883 26.9226 3.67817 25.8306 4.33464C24.7386 4.9911 24.22 6.73635 25.8306 7.12062C27.4411 7.50489 27.5118 5.27931 27.5118 5.27931Z" fill="#45332B"/>
<path d="M29.4997 11.6439C29.3897 12.0362 31.4481 12.7647 32.383 12.8047C33.3179 12.8448 33.4279 12.5005 33.3493 12.1803C33.2708 11.8601 33.3493 11.6839 33.5143 11.6599C33.5958 11.6414 33.6608 11.5789 33.6838 11.4971C33.7067 11.4153 33.6839 11.3272 33.6243 11.2676C33.7432 11.1724 33.7643 10.9971 33.6714 10.8754C33.5388 10.7646 33.4707 10.5926 33.4907 10.419C33.6565 10.3587 33.7847 10.2222 33.8364 10.0508C33.6981 9.83398 33.5346 9.63505 33.3493 9.45834C33.1295 9.1936 32.9855 8.87231 32.9329 8.52968C33.0748 8.18393 33.0748 7.79467 32.9329 7.44892C32.7197 6.85337 32.3156 6.34849 31.7859 6.0159C30.8261 5.90245 29.8718 6.26936 29.2248 7.0006C28.7377 7.84119 29.0205 9.87464 29.0205 9.87464C28.805 9.72638 28.5314 9.6964 28.2899 9.79458C27.9835 9.98672 28.2113 10.4751 28.3291 10.7793C28.4466 11.1774 28.7115 11.5133 29.0676 11.716C29.2155 11.7341 29.3653 11.7092 29.4997 11.6439Z" fill="#FFB884"/>
<path d="M32.0688 6.19998C31.6917 6.02386 30.2383 7.12064 30.2383 7.54494C30.1913 8.10935 30.0223 8.65617 29.7433 9.14608C29.6052 9.48582 29.5178 9.84472 29.4841 10.2108L28.9891 10.0347C28.942 9.85653 28.8217 9.70772 28.6591 9.62642L27.8735 6.37611C27.8735 6.37611 29.6805 5.57554 29.7826 5.48748C30.2917 5.45284 30.803 5.47702 31.3067 5.55953L32.0688 6.19998Z" fill="#45332B"/>
<path d="M32.0688 6.20016C31.5697 5.50025 30.8004 5.0515 29.9554 4.96729L29.2326 5.976C29.2326 5.976 31.1575 5.93597 31.4717 5.976C31.6828 6.01169 31.8854 6.08775 32.0688 6.20016H32.0688Z" fill="#45332B"/>
<path d="M30.6467 13.6775C33.3179 13.0691 33.9699 13.9417 37.5996 14.5822C41.2292 15.2226 40.5771 15.2787 41.2292 15.2226C43.3036 15.2231 45.3663 15.5388 47.3493 16.1593C49.659 16.7837 49.879 17.12 50.5311 18.4649C50.9632 19.3536 52.2124 20.2582 51.9688 20.3943C51.5603 20.6185 49.4155 18.6811 48.8263 17.9285C48.4806 17.4962 48.622 19.7458 48.1035 19.6898C47.8285 19.6898 48.2056 17.5843 47.4986 17.3601C47.2393 17.2801 42.4312 17.9285 41.402 17.5923C38.6313 17.1004 35.8055 17.0168 33.0115 17.3441L30.6467 13.6775Z" fill="#FFB884"/>
<path d="M20.3079 19.5778C18.9409 19.1935 15.7669 20.0981 14.4549 19.4256C12.9937 18.6731 10.6368 18.8973 10.5268 18.2248C10.4168 17.5523 11.3124 15.5509 10.7075 13.6375C10.1025 11.7242 9.1362 10.2191 10.1182 9.06628C11.1003 7.91346 11.8781 5.20753 11.501 4.86329C10.5546 4.37555 9.57837 3.95037 8.5784 3.59038C7.57279 3.12605 4.90949 1.63699 4.40668 2.4856C3.90388 3.3342 3.79389 4.08673 5.90724 5.14349C8.0206 6.20024 6.86572 8.71403 7.0857 9.39451C7.38181 11.832 7.49998 14.2885 7.43923 16.7437C7.38424 18.9533 6.43362 20.8507 8.96336 21.8834C12.1062 23.3648 15.4762 24.2829 18.9252 24.5973C23.9611 25.1177 20.3079 19.5778 20.3079 19.5778Z" fill="#FFB884"/>
<path d="M31.244 53.914C31.5897 54.1382 32.3203 55.0748 31.739 55.7153C31.1576 56.3558 22.1778 55.7153 21.9264 55.7153C21.675 55.7153 21.7693 55.0108 22.2092 54.9628C22.6407 54.9962 23.0741 54.9962 23.5055 54.9628C23.569 54.6162 23.569 54.2606 23.5055 53.914H24.1969C24.1938 54.6139 24.7151 55.2007 25.3989 55.267C26.5695 55.331 27.9915 55.331 28.1801 55.1389C28.2433 54.7264 28.2 54.3042 28.0544 53.914H29.0678C29.0678 53.914 28.8478 55.235 29.987 55.267C31.1262 55.299 31.9432 55.1389 30.4584 53.914C28.9735 52.6891 31.244 53.914 31.244 53.914Z" fill="#505366"/>
<path d="M21.9735 25.0373C23.0027 27.2229 26.4044 36.3014 26.5066 36.8217C26.6087 37.3421 25.4695 44.8674 25.6581 45.628C25.8466 46.3885 27.0487 46.4286 27.0487 47.109C27.0487 47.7895 26.4909 50.2633 28.6199 51.232C30.749 52.2007 32.2496 52.5849 31.6132 54.13C30.5464 54.4517 29.4287 54.5604 28.3214 54.4503C25.8624 54.3862 23.8983 54.5463 23.3876 54.2821C22.8769 54.018 23.2462 53.2334 22.8141 52.3207C22.327 51.288 22.8141 49.5508 23.0812 48.8463C23.3483 48.1418 22.4213 43.5705 21.9892 41.9534C21.5571 40.3362 22.7748 37.7023 22.3191 36.8057C21.8635 35.9091 19.1766 33.2672 18.0217 28.76C16.8669 24.2528 17.2361 22.9639 17.2361 22.9639L21.9735 25.0373Z" fill="#FFB884"/>
<path d="M4.4146 2.47754C4.90954 1.63694 7.55713 3.11799 8.58631 3.58232C9.58628 3.94231 10.5625 4.36749 11.5089 4.85523C11.886 5.19147 11.1239 7.9054 10.1262 9.05822C10.0839 9.10927 10.0446 9.16272 10.0083 9.21833C9.11268 9.47451 8.06779 9.80274 7.21145 10.0189C7.19169 9.80276 7.15491 9.58858 7.10146 9.37844C6.88148 8.69796 8.02851 6.17617 5.92301 5.12742C3.81751 4.07867 3.91965 3.32614 4.4146 2.47754Z" fill="#505366"/>
<path d="M28.5964 51.2403C30.7097 52.209 32.226 52.5933 31.5896 54.1384C30.5228 54.46 29.4051 54.5688 28.2978 54.4586C25.8388 54.3946 23.8747 54.5547 23.3641 54.2905C22.8534 54.0263 23.2226 53.2417 22.7905 52.3291C22.3035 51.2964 22.7905 49.5591 23.0577 48.8546C23.1324 48.3961 23.1324 47.9282 23.0577 47.4696C24.1104 46.9973 25.556 46.3008 26.3966 46.3728C26.7405 46.4731 27.001 46.7602 27.0722 47.1174C27.0408 47.8299 26.483 50.2716 28.5964 51.2403Z" fill="#505366"/>
<g style="mix-blend-mode:screen" opacity="0.4">
<path d="M20.3079 19.5778C18.9409 19.1935 15.7669 20.0981 14.4549 19.4256C12.9937 18.6731 10.6368 18.8973 10.5268 18.2248C10.4168 17.5523 11.3124 15.5509 10.7075 13.6375C10.1025 11.7242 9.1362 10.2191 10.1182 9.06628C11.1003 7.91346 11.8781 5.20753 11.501 4.86329C10.5546 4.37555 9.57837 3.95037 8.5784 3.59038C7.57279 3.12605 4.90949 1.63699 4.40668 2.4856C3.90388 3.3342 3.79389 4.08673 5.90724 5.14349C8.0206 6.20024 6.86572 8.71403 7.0857 9.39451C7.38181 11.832 7.49998 14.2885 7.43923 16.7437C7.38424 18.9533 6.43362 20.8507 8.96336 21.8834C12.1062 23.3648 15.4762 24.2829 18.9252 24.5973C23.9611 25.1177 20.3079 19.5778 20.3079 19.5778Z" fill="white"/>
</g>
<g style="mix-blend-mode:screen" opacity="0.4">
<path d="M21.9735 25.0373C23.0027 27.2229 26.4044 36.3014 26.5066 36.8217C26.6087 37.3421 25.4695 44.8674 25.6581 45.628C25.8466 46.3885 27.0487 46.4286 27.0487 47.109C27.0487 47.7895 26.4909 50.2633 28.6199 51.232C30.749 52.2007 32.2496 52.5849 31.6132 54.13C30.5464 54.4517 29.4287 54.5604 28.3214 54.4503C25.8624 54.3862 23.8983 54.5463 23.3876 54.2821C22.8769 54.018 23.2462 53.2334 22.8141 52.3207C22.327 51.288 22.8141 49.5508 23.0812 48.8463C23.3483 48.1418 22.4213 43.5705 21.9892 41.9534C21.5571 40.3362 22.7748 37.7023 22.3191 36.8057C21.8635 35.9091 19.1766 33.2672 18.0217 28.76C16.8669 24.2528 17.2361 22.9639 17.2361 22.9639L21.9735 25.0373Z" fill="white"/>
</g>
<path d="M29.2247 13.2131C27.0249 11.724 26.145 12.2764 22.6568 11.5719C19.1686 10.8674 19.7421 11.1476 19.1686 10.8674C17.3007 10.1342 15.3359 9.68899 13.3392 9.54649C11.0451 9.29031 10.7309 9.54649 9.68596 10.4992C8.9946 11.1476 7.56475 11.5159 7.73759 11.724C8.02827 12.0683 10.6209 11.0836 11.4144 10.6193C11.87 10.3551 10.9823 12.3245 11.4694 12.4606C11.7286 12.5326 12.0979 10.5312 12.8049 10.5792C13.0642 10.5792 17.173 12.8769 18.2101 12.9809C20.8712 13.5157 23.443 14.4378 25.8464 15.7189L29.2247 13.2131Z" fill="#FFB884"/>
<path d="M9.49742 11.2438C9.01033 11.7082 8.49181 11.9403 8.71179 12.1165C9.76284 11.9462 10.7264 11.4186 11.4458 10.6194C12.035 9.69874 9.49742 11.2438 9.49742 11.2438Z" fill="#FFB884"/>
<path d="M10.2438 10.0508C9.56029 10.5792 8.16186 10.8514 8.13829 11.0195C8.11472 11.1876 8.69609 11.2917 9.19104 11.1796C9.69135 10.9942 10.1686 10.7497 10.613 10.4511L10.2438 10.0508Z" fill="#FFB884"/>
<path d="M14.4549 19.4177C15.5302 19.6146 16.6347 19.5709 17.6917 19.2896C19.4364 18.7335 21.328 18.9243 22.9319 19.818C23.8631 19.7547 24.7223 19.2849 25.2888 18.5291C25.9723 17.7845 25.7994 16.4716 25.2888 15.3268C24.841 15.0866 24.3146 14.8464 23.7175 14.6143C24.0327 13.678 24.0048 12.6572 23.639 11.7402C25.8073 12.0925 26.8208 11.9564 28.1721 12.5968H28.2192L28.447 12.765C28.6978 12.899 28.9416 13.046 29.1777 13.2053C29.7381 13.5145 30.3719 13.6586 31.0082 13.6216L31.3067 13.5735L31.4324 13.5335C33.3101 13.2853 34.1979 13.9018 36.8455 14.4462C36.8455 14.4462 35.942 15.9672 36.3819 17.1521C35.3636 17.1272 34.3448 17.178 33.3337 17.3042C33.2298 18.1361 32.9992 18.9464 32.6502 19.7059C31.8501 21.5075 30.6761 23.1108 29.2091 24.4052C27.8801 25.4163 26.385 26.178 24.7938 26.6548C24.2596 27.4554 23.4975 28.3921 23.4975 28.3921L24.4246 31.162C22.6412 30.6577 20.5828 32.3709 19.1687 31.9626C17.7546 31.5543 16.1047 30.1453 15.9712 28.9845C15.8376 27.8237 15.5312 27.5675 14.0149 26.2145C12.4987 24.8616 14.4549 19.4177 14.4549 19.4177Z" fill="#35AFD4"/>
<path d="M31.4953 21.7636C31.1674 22.2595 30.8078 22.7328 30.419 23.1806C30.419 23.1806 25.823 24.7177 22.9162 19.8183C23.6222 19.7634 24.2894 19.4672 24.8096 18.9777C24.8096 18.9777 26.1294 21.3794 29.7119 21.3794C29.7119 21.3794 25.7052 15.6713 26.0273 12.0527C26.7573 12.1142 27.4718 12.3009 28.1406 12.6051H28.1878C27.8735 14.0622 29.6412 19.434 31.4953 21.7636Z" fill="#006C8A"/>
<path d="M31.008 13.6052L31.3066 13.5571L31.4323 13.5171C32.2548 13.4059 33.0907 13.4631 33.8913 13.6852C33.2785 15.5746 33.2235 16.6633 33.3649 17.2798C33.3029 17.7754 33.1923 18.2636 33.035 18.7368C31.9572 17.2211 31.2612 15.459 31.008 13.6052Z" fill="#006C8A"/>
<path d="M20.9677 19.1216C21.4568 19.2367 21.9352 19.3947 22.3976 19.5939C21.7848 22.5961 23.5603 26.3107 24.8016 26.6469L23.5053 28.3842C21.1249 26.2467 20.9677 20.5946 20.9677 19.1216Z" fill="#006C8A"/>
<path d="M18.556 31.6902C17.9026 31.3786 17.3092 30.9502 16.804 30.4253C16.859 28.4639 17.2047 21.8673 19.3416 19.0012C19.8866 18.9604 20.4344 19.0009 20.9679 19.1213C19.9701 21.3069 18.1082 27.3351 19.1767 31.9304L18.556 31.6902Z" fill="#006C8A"/>
<path d="M13.4257 23.9087C13.5751 22.3761 13.9075 20.8679 14.4156 19.4175C15.3012 19.5836 16.209 19.5836 17.0946 19.4175C15.6454 20.7066 14.4069 22.2226 13.4257 23.9087Z" fill="#006C8A"/>
</svg>
