<svg width="56" height="56" viewBox="0 0 56 56" fill="none" xmlns="http://www.w3.org/2000/svg">
<path d="M16.0494 14.3818C16.0494 14.3818 14.8389 13.8269 14.7493 14.0119C14.6596 14.1968 15.9597 14.6593 15.9597 14.6593L16.0494 14.3818Z" fill="#131D28"/>
<path d="M16.5439 14.659C16.2301 15.4914 15.8266 16.0925 15.4231 15.9075C15.1093 15.7688 15.0645 15.0289 15.3783 14.1966C15.6921 13.3642 16.1853 12.8093 16.4991 12.948C16.9474 13.133 16.8129 13.8729 16.5439 14.659ZM15.6025 14.3353C15.3783 14.9827 15.3783 15.6301 15.6025 15.6763C15.8266 15.7688 16.1853 15.3064 16.4542 14.6127C16.6784 13.9653 16.6784 13.3179 16.4542 13.2717C16.2301 13.1792 15.8266 13.6416 15.6025 14.3353Z" fill="#CE4670"/>
<path d="M16.3184 14.0114C16.2287 13.9652 16.0494 14.1502 15.9597 14.4739C15.8701 14.7513 15.8701 15.0288 15.9597 15.0288C16.0494 15.075 16.2287 14.89 16.3184 14.5663C16.408 14.3351 16.408 14.0577 16.3184 14.0114Z" fill="#E24C7B"/>
<path d="M16.5873 14.7054C16.2735 15.5378 15.7804 16.0927 15.4666 16.0002C15.1528 15.8615 15.1079 15.1216 15.4217 14.2892C15.7356 13.4569 16.2287 12.9019 16.5425 12.9944C16.8563 13.1332 16.9012 13.873 16.5873 14.7054ZM15.6459 14.3355C15.4217 14.9829 15.4217 15.6303 15.6459 15.6765C15.87 15.769 16.2287 15.3066 16.4977 14.6129C16.7218 13.9655 16.7218 13.3181 16.4977 13.2719C16.2735 13.2256 15.9149 13.6881 15.6459 14.3355Z" fill="#E24C7B"/>
<path d="M16.3632 14.1042L16.7218 13.4568L16.5425 13.2256L16.3184 13.2718L16.2287 14.1042H16.3632Z" fill="#E24C7B"/>
<path d="M16.0494 14.9828L15.9149 15.7226L15.6459 15.8151L15.4666 15.5839L15.9597 14.9365L16.0494 14.9828Z" fill="#E24C7B"/>
<path d="M16.2735 14.2427C16.2287 14.2427 16.139 14.3352 16.0494 14.5201C15.9597 14.7051 16.0046 14.8438 16.0494 14.8438C16.0942 14.8438 16.1839 14.7513 16.2735 14.5664C16.3184 14.4276 16.3184 14.2427 16.2735 14.2427Z" fill="#CE4670"/>
<path d="M16.408 14.9365L16.2287 14.7053L16.3184 14.4741H16.5873L16.408 14.9365Z" fill="#E24C7B"/>
<path d="M15.6907 14.0576L16.0494 14.3351L15.9597 14.6125L15.5562 14.5663L15.6907 14.0576Z" fill="#E24C7B"/>
<path d="M41.9167 11.6995C41.9167 11.6995 28.5572 13.3642 28.333 11.1908C28.064 8.50873 41.0201 7.86133 41.0201 7.86133L41.9167 11.6995Z" fill="#EA5C88"/>
<path d="M30.3056 10.0347C30.5297 10.6358 32.1885 11.7919 33.4885 13.5954C34.6541 15.2139 37.8371 20.8092 37.8371 20.8092L37.2992 21.7341C37.2992 21.7341 29.4089 15.1676 28.333 11.237L30.3056 10.0347Z" fill="#EA5C88"/>
<path d="M16.0942 14.7516L46.355 26.2661L46.5343 25.8037L16.2287 14.3354C16.0942 14.3817 16.0046 14.6129 16.0942 14.7516Z" fill="#131D28"/>
<path d="M38.0164 20.4858L37.1647 21.9656L38.1958 22.7517C38.1958 22.7517 38.2854 23.7228 38.6889 24.0465C39.2717 24.5552 40.6166 25.2488 41.0201 24.6939C41.8719 23.4916 39.0924 21.5032 39.0924 21.5032L38.0164 20.4858Z" fill="#464A6F"/>
<path d="M44.3376 24.6939C44.2479 24.6477 44.1583 24.6939 44.1583 24.7864L43.9341 25.48C43.8893 25.5725 43.9341 25.665 44.0238 25.665L47.2068 26.8673C47.4757 26.5436 47.5654 26.2662 47.5654 25.8962L44.3376 24.6939Z" fill="#E24C7B"/>
<path opacity="0.3" d="M43.8893 25.48L44.1134 24.7863C44.1134 24.7401 44.1583 24.6938 44.2031 24.6938L44.0686 25.11C44.0238 25.2025 44.0686 25.295 44.1583 25.295L47.3412 26.4973C47.3861 26.4511 47.3861 26.4511 47.4309 26.4048C47.3861 26.5436 47.2964 26.6823 47.1619 26.821L43.9789 25.6187C43.8893 25.6187 43.8444 25.5262 43.8893 25.48Z" fill="#E24C7B"/>
<path d="M26.0018 49.0635L26.0915 49.156L25.8225 49.0635H26.0018Z" fill="#A3AAB4"/>
<path d="M27.3916 49.8496C27.3916 49.8496 27.4364 49.8958 27.3916 49.9421L27.2571 49.8496H27.3916Z" fill="#A3AAB4"/>
<path d="M23.1775 47.5835C23.1775 47.5835 22.1464 48.2771 21.6532 49.5257L27.9295 50.913C27.9295 50.913 27.9295 50.1731 26.8984 49.5257C25.8225 48.8783 24.1637 48.8321 24.8362 48.1847L23.1775 47.5835Z" fill="#131D28"/>
<path d="M22.9085 48.4621C22.5499 48.5084 22.2809 48.5546 22.1464 48.5546C22.6395 47.9072 23.1327 47.5835 23.1327 47.5835L23.7603 47.8147C23.6258 48.0459 23.3568 48.3696 22.9085 48.4621Z" fill="#B4BCC9"/>
<path d="M36.1336 34.4507C36.1336 34.4507 36.7612 34.8206 36.0439 35.2831C35.2369 35.838 32.7264 36.0692 31.1574 37.2253C29.2745 38.52 26.3156 43.468 23.043 47.4911C23.1326 47.6761 24.881 48.416 24.881 48.416C24.881 48.416 31.2022 42.4507 36.6267 39.3987L40.6615 36.6241L36.1336 34.4507Z" fill="#464A6F"/>
<path d="M27.5709 20.8091L33.0402 22.0576L32.5471 24.5085C42.5892 32.6472 41.4236 35.6068 41.4236 35.6068C40.8408 36.9016 39.1821 37.4102 39.1821 37.4102L36.2681 34.4507C32.5471 32.3235 26.8536 29.1328 25.7328 26.2195C25.7328 26.2657 24.3431 23.8149 27.5709 20.8091Z" fill="#464A6F"/>
<path d="M1.21041 45.5952L42.4995 54.1964C44.7859 54.6126 45.6377 54.0114 45.817 54.1964C45.9963 54.4276 44.6962 55.7686 42.634 55.3987C40.3925 55.2137 1.12075 46.0114 1.12075 46.0114L1.21041 45.5952Z" fill="#131D28"/>
<path d="M42.4995 54.1964C44.2928 54.5201 45.1894 54.2426 45.5929 54.1964C45.1446 54.6588 44.0686 55.26 42.5892 54.9825C40.4373 54.7975 3.31749 46.1039 1.16561 45.5952L42.4995 54.1964Z" fill="#9FAED0"/>
<path d="M29.5434 51.5145C29.5434 51.5145 30.5745 50.4972 27.9295 50.9134L21.6532 49.5261C21.6532 49.5261 19.7703 46.7053 20.5773 49.6648L29.5434 51.5145Z" fill="#131D28"/>
<path d="M27.3916 49.8497C27.3916 49.8497 26.9433 49.8959 26.6294 50.0809L25.957 49.8034C25.957 49.8034 26.495 49.3872 26.8984 49.4797C27.0778 49.526 27.3019 49.6647 27.3916 49.8497Z" fill="#B4BCC9"/>
<path d="M26.0018 49.0636C25.7328 48.9249 25.5535 48.8324 25.1948 48.7861C25.1948 48.7861 24.8362 48.8786 24.5224 49.2948L25.2397 49.4798C25.2845 49.4798 25.5983 49.1098 26.0018 49.0636Z" fill="#B4BCC9"/>
<path d="M21.6981 49.3408L27.8847 50.7281C27.9295 50.8206 27.9295 50.9131 27.9295 50.9131L21.6532 49.5258C21.6532 49.4795 21.6981 49.4333 21.6981 49.3408Z" fill="#B4BCC9"/>
<path d="M24.7914 49.1561L24.8362 49.2024L24.5673 49.1099L24.7914 49.1561Z" fill="#B0B7C1"/>
<path d="M26.1812 49.9422C26.1812 49.9422 26.1812 49.9885 26.1812 50.0347L26.0467 49.896L26.1812 49.9422Z" fill="#B0B7C1"/>
<path d="M21.9671 47.584C21.9671 47.584 20.8911 48.2314 20.398 49.4799L26.6295 51.006C26.6295 51.006 26.6295 50.2661 25.5983 49.5724C24.5672 48.925 22.9085 48.7863 23.581 48.1851L21.9671 47.584Z" fill="#202A35"/>
<path d="M43.5755 27.4222C44.2031 27.4222 45.0549 28.0234 45.8618 28.0234C46.8481 28.0234 47.2068 27.191 46.6688 26.6361C46.7136 26.6361 46.7584 26.5898 46.8481 26.5898C47.1619 26.7748 47.2964 27.0523 47.2964 27.376C47.2964 28.3933 45.9963 29.2719 44.8756 29.2719C44.0686 29.2719 42.8582 28.7633 42.8582 28.0696C42.7685 27.7459 42.9927 27.4222 43.5755 27.4222ZM44.8756 28.9482C45.7722 28.9482 46.7136 28.4858 47.0274 27.6072C46.7136 28.0696 46.2205 28.2083 45.7273 28.2083C44.9652 28.2083 43.8445 27.6072 43.441 27.7459C43.2168 27.7922 43.172 28.0234 43.2617 28.2083C43.3961 28.532 43.9341 28.9482 44.8756 28.9482Z" fill="#202A35"/>
<path d="M15.5563 14.3813C15.5563 14.3813 14.3458 13.8264 14.2562 14.0114C14.1665 14.1964 15.4666 14.6588 15.4666 14.6588L15.5563 14.3813Z" fill="#202A35"/>
<path d="M16.0047 14.659C15.6909 15.4914 15.2874 16.0925 14.8839 15.9075C14.5701 15.7688 14.5253 15.0289 14.8391 14.1966C15.1529 13.3642 15.646 12.8093 15.9599 12.948C16.453 13.133 16.3185 13.8729 16.0047 14.659ZM15.0632 14.3353C14.8391 14.9827 14.8391 15.6301 15.0632 15.6763C15.2874 15.7688 15.646 15.3064 15.915 14.6127C16.1392 13.9653 16.1392 13.3179 15.915 13.2717C15.6909 13.1792 15.3322 13.6416 15.0632 14.3353Z" fill="#DB537D"/>
<path d="M15.7804 14.0114C15.6908 13.9652 15.5115 14.1502 15.4218 14.4739C15.3321 14.7513 15.3321 15.0288 15.4218 15.0288C15.5115 15.075 15.6908 14.89 15.7804 14.5663C15.8701 14.3351 15.9149 14.0577 15.7804 14.0114Z" fill="#EF5988"/>
<path d="M16.0943 14.7054C15.7804 15.5378 15.2873 16.0927 14.9735 16.0002C14.6597 15.9077 14.6148 15.1216 14.9287 14.2892C15.2425 13.4569 15.7356 12.9019 16.0494 12.9944C16.3632 13.1332 16.3632 13.873 16.0943 14.7054ZM15.1528 14.3355C14.9287 14.9829 14.9287 15.6303 15.1528 15.6765C15.377 15.769 15.7356 15.3066 16.0046 14.6129C16.2287 13.9655 16.2287 13.3181 16.0046 13.2719C15.7804 13.2256 15.377 13.6881 15.1528 14.3355Z" fill="#EF5988"/>
<path d="M15.8701 14.1042L16.1839 13.4568L16.0494 13.2256L15.7804 13.2718L15.7356 14.1042H15.8701Z" fill="#EF5988"/>
<path d="M15.5563 14.9828L15.3769 15.7226L15.108 15.8151L14.9735 15.5839L15.4218 14.9365L15.5563 14.9828Z" fill="#EF5988"/>
<path d="M15.7356 14.2427C15.6908 14.2427 15.6011 14.3352 15.5115 14.5201C15.4666 14.7051 15.4666 14.8438 15.5115 14.8438C15.5563 14.8438 15.6459 14.7513 15.7356 14.5664C15.8253 14.4276 15.8253 14.2427 15.7356 14.2427Z" fill="#DB537D"/>
<path d="M15.9149 14.9365L15.7356 14.7053L15.8253 14.4741H16.0942L15.9149 14.9365Z" fill="#EF5988"/>
<path d="M15.1976 14.0576L15.5114 14.3351L15.4218 14.6125L15.0183 14.5663L15.1976 14.0576Z" fill="#EF5988"/>
<path d="M44.6514 10.6823C45.0997 10.6823 47.8792 7.39903 47.6999 4.06955C47.2964 3.42215 46.1308 2.68227 44.4721 2.86724C43.71 2.95972 43.5755 3.37591 43.0375 4.57822C42.2306 6.24296 42.0512 7.16782 42.4996 8.18516C43.0824 9.47995 44.248 10.7285 44.6514 10.6823Z" fill="#F9B74B"/>
<path d="M48.462 6.15044L47.3861 6.38165L47.4758 6.05795C47.4758 6.05795 45.3687 5.04061 44.6514 5.31807C43.6651 5.68801 42.9927 8.87876 42.9927 8.87876L42.8582 8.41633L43.4858 4.43945L46.3102 4.71691L48.462 6.15044Z" fill="#202A35"/>
<path d="M47.4309 6.42779C47.4309 6.47403 47.3861 6.52028 47.3861 6.56652C46.9378 6.33531 45.279 5.64166 44.6962 5.87288C43.8893 6.19658 43.3065 8.32375 43.1272 9.10987C43.0823 9.06363 43.0375 9.01739 43.0375 8.97114L43.0823 8.87866C43.0823 8.87866 43.7548 5.73415 44.7411 5.31796C45.4584 5.04051 47.5654 6.05785 47.5654 6.05785L47.4309 6.42779Z" fill="#F4A422"/>
<path d="M48.4621 6.15028C48.4621 6.15028 45.3688 4.39306 44.4722 4.99421C43.5756 5.59537 43.0376 7.53757 42.8135 8.83237L40.3029 4.85549C40.3029 4.85549 40.6168 2.40462 41.5134 1.24855C42.1858 0.462421 43.6652 -0.323707 45.593 0.138721C46.8931 0.462421 50.3002 1.75722 48.4621 6.15028Z" fill="#53577C"/>
<path opacity="0.3" d="M40.527 5.17933C40.3028 5.73424 40.5718 6.38164 41.1098 6.61286L41.5133 6.79783C42.0512 7.02904 42.6789 6.75158 42.903 6.19667L43.3962 5.0406C43.6203 4.48569 43.3513 3.83829 42.8134 3.60708L42.4099 3.4221C41.8719 3.19089 41.2443 3.46835 41.0201 4.02326L40.527 5.17933Z" fill="#53577C"/>
<path opacity="0.3" d="M42.4099 0.554888C42.4547 0.508645 42.4995 0.508645 42.5444 0.462402C42.7237 1.71096 44.3824 3.32945 46.6688 4.43928C47.3861 4.80922 48.1034 5.08668 48.7758 5.22541C48.7758 5.31789 48.731 5.36414 48.731 5.45662C48.0586 5.27165 47.2964 4.99419 46.5791 4.62425C44.2031 3.51443 42.5444 1.80344 42.4099 0.554888Z" fill="#53577C"/>
<path opacity="0.3" d="M47.4757 2.91344C47.6102 3.32962 47.7447 3.65332 47.8344 3.65332C47.9241 3.65332 47.8344 3.28338 47.6999 2.82095C47.5654 2.40477 47.3861 2.03483 47.3413 2.08107C47.2516 2.08107 47.3413 2.45101 47.4757 2.91344Z" fill="#53577C"/>
<path opacity="0.3" d="M48.3724 2.91344C48.5068 3.32962 48.6413 3.65332 48.731 3.65332C48.8207 3.65332 48.731 3.28338 48.5965 2.82095C48.462 2.40477 48.2827 2.03483 48.2379 2.08107C48.1482 2.08107 48.2379 2.45101 48.3724 2.91344Z" fill="#53577C"/>
<path d="M46.624 8.27734C46.624 8.27734 46.5791 8.60104 46.624 8.78601C46.624 8.78601 46.8929 8.8785 46.9378 8.97099C46.9826 9.06347 46.4446 9.38717 45.9963 9.2022L46.624 8.27734Z" fill="#F9B74B"/>
<path d="M21.6981 48.4626C21.3394 48.5088 21.0705 48.5551 20.936 48.5551C21.4291 47.9077 21.9671 47.584 21.9671 47.584L22.5947 47.8152C22.4602 48.0464 22.1464 48.3701 21.6981 48.4626Z" fill="#C1C9D6"/>
<path d="M42.3202 12.6244C42.3202 12.6244 44.3824 11.2833 44.3824 10.4047C43.8445 9.52609 42.8134 8.73996 40.3925 4.06944C37.5233 3.60701 35.1025 10.4047 35.1025 10.4047L42.3202 12.6244Z" fill="#DB537D"/>
<path opacity="0.3" d="M41.5581 8.32349C41.5581 8.32349 38.7338 10.4044 36.9405 10.9593L35.4611 10.4969C35.3715 10.127 35.506 9.47956 35.8646 8.5547C36.806 6.56626 38.5096 3.74545 40.3925 4.02291C37.7027 6.52002 41.5581 8.32349 41.5581 8.32349Z" fill="#DB537D"/>
<path d="M35.2818 34.7744C35.2818 34.7744 35.9094 35.1444 35.1473 35.6068C34.2955 36.1155 31.8298 36.3467 30.2159 37.4103C28.2882 38.7051 25.2397 43.5605 21.8326 47.4912C21.9222 47.6761 23.6258 48.4623 23.6258 48.4623C23.6258 48.4623 30.1263 42.6819 35.5956 39.7224L39.6752 37.0403L35.2818 34.7744Z" fill="#53577C"/>
<path opacity="0.3" d="M43.6651 11.5145C43.0823 12.1156 42.2754 12.6243 42.2754 12.6243L42.1857 12.578V8.78613C42.2305 8.78613 43.3065 10.0347 43.6651 11.5145Z" fill="#DB537D"/>
<path d="M27.0329 20.9482L32.5023 22.3355L31.9643 24.7401C41.7822 33.1563 40.527 36.0696 40.527 36.0696C39.8994 37.3182 38.2406 37.8269 38.2406 37.8269L35.3715 34.8211C31.6953 32.6014 26.0915 29.2257 25.0604 26.3586C25.0604 26.3586 23.7155 23.8615 27.0329 20.9482Z" fill="#53577C"/>
<g opacity="0.2">
<path opacity="0.2" d="M27.0329 20.9482L32.5023 22.3355L31.9643 24.7401C32.4126 25.1101 32.8609 25.5263 33.2644 25.8962C31.8298 25.7575 27.4812 25.2026 25.688 22.5205C25.688 22.5205 25.7328 22.428 25.8673 22.243C26.1363 21.7806 26.5398 21.3644 27.0329 20.9482Z" fill="#53577C"/>
</g>
<path opacity="0.2" d="M27.1226 27.6993C28.064 28.8091 32.5471 32.1848 34.6093 33.9883C34.9232 34.2657 35.4611 34.8207 35.4611 34.8669C35.4611 34.9131 35.3266 34.7744 35.3266 34.7744C31.6505 32.5548 26.0915 29.2253 25.1052 26.312C25.1052 26.312 23.9844 24.2311 26.4053 21.5952L26.8088 22.1964C24.8811 24.8785 25.9122 26.2195 27.1226 27.6993Z" fill="#53577C"/>
<path d="M32.4575 25.2024C32.4575 25.2024 27.9744 24.1388 26.1812 21.7804C26.1812 21.7804 35.5508 6.56656 41.1098 8.00008C43.6651 8.64748 43.1272 14.4741 39.989 17.5261C32.6368 23.2602 32.4575 25.2024 32.4575 25.2024Z" fill="#EF5988"/>
<path d="M37.9268 9.7108C37.1198 11.2368 37.2543 12.9015 38.2406 13.5027C39.2269 14.1039 40.7063 13.364 41.5581 11.838C42.4099 10.312 42.2305 8.64721 41.2443 8.04606C40.2132 7.49114 38.7337 8.23103 37.9268 9.7108Z" fill="#F76995"/>
<path d="M41.4236 11.6995C41.4236 11.6995 28.0641 13.3642 27.8399 11.1908C27.5709 8.50873 40.527 7.86133 40.527 7.86133L41.4236 11.6995Z" fill="#F76995"/>
<path opacity="0.5" d="M46.624 8.27768C46.624 8.27768 46.624 8.50889 46.624 8.69386C46.624 8.74011 45.2342 9.06381 44.7859 8.78635C44.4273 8.55513 44.4721 7.95398 44.4721 7.95398L44.2928 7.81525C44.2928 7.81525 44.2031 7.58404 44.2479 7.39906L43.6651 7.02912L43.7996 6.65918L46.624 8.27768Z" fill="#F4A422"/>
<path opacity="0.3" d="M34.3852 20.7631C33.1299 19.607 31.4263 17.9885 29.9918 16.3238C30.6194 15.4914 31.2919 14.659 32.0091 13.8267C32.1436 13.9654 32.2781 14.1504 32.3678 14.2891C33.1299 15.3064 34.699 17.9885 35.7301 19.7457C36.8509 19.0059 38.151 18.3122 39.6752 17.7111C32.5919 23.3064 32.4126 25.2024 32.4126 25.2024C32.4126 25.2024 31.7402 25.0637 30.8435 24.6937C31.247 24.0926 32.2781 22.4741 34.3852 20.7631Z" fill="#EF5988"/>
<path d="M45.3239 5.919L45.0549 5.78027C45.0549 5.78027 44.3376 6.84386 44.3824 7.62998L44.6963 7.81495L45.3239 5.919Z" fill="#646493"/>
<path d="M29.8124 10.0347C30.0366 10.6358 31.6953 11.7919 32.9954 13.5954C34.161 15.2139 37.344 20.763 37.344 20.763L36.806 21.6878C36.806 21.6878 28.9158 15.1214 27.8399 11.1907L29.8124 10.0347Z" fill="#F76995"/>
<path d="M40.8408 2.68213C40.8408 2.68213 42.2306 4.4856 45.2342 6.01161C45.2342 6.01161 45.0101 6.65901 44.7859 7.49138C44.7859 7.49138 41.6926 5.54918 40.527 3.79196C40.527 3.79196 40.4822 3.05207 40.8408 2.68213Z" fill="#646493"/>
<path d="M46.624 8.27753C46.624 8.27753 46.624 8.55498 46.8033 8.55498C46.8929 8.55498 47.4309 7.72261 47.6102 6.75152C47.6102 6.75152 46.355 6.33533 45.3239 5.82666C45.3239 5.82666 44.3376 7.44516 44.7411 8.23128C45.0997 8.97117 46.624 8.27753 46.624 8.27753Z" fill="#ACBBDD"/>
<path d="M46.6688 8.0462C46.8481 8.09244 46.7584 8.27741 46.8481 8.32366C46.9378 8.3699 47.3412 7.53753 47.5206 6.89013C47.5206 6.89013 46.355 6.52019 45.5032 6.104C45.5032 6.104 44.7411 7.3988 45.01 8.0462C45.3239 8.64736 46.5343 7.99996 46.6688 8.0462Z" fill="#202A35"/>
<path d="M29.2745 24.0464C29.2745 24.0464 32.054 19.5609 31.6953 19.3759C31.3367 19.2372 26.8088 22.4742 26.8088 22.4742C26.8088 22.4742 27.9744 23.4915 29.2745 24.0464Z" fill="#F76995"/>
<path d="M15.5563 14.7516L45.817 26.2661L45.9963 25.8037L15.7356 14.3354C15.6011 14.3817 15.5114 14.6129 15.5563 14.7516Z" fill="#202A35"/>
<path d="M37.4785 20.4858L36.6267 21.9656L37.6578 22.7517C37.6578 22.7517 37.7475 23.7228 38.151 24.0465C38.7338 24.5552 40.0787 25.2488 40.4822 24.6939C41.334 23.4916 38.5544 21.5032 38.5544 21.5032L37.4785 20.4858Z" fill="#53577C"/>
<path d="M43.7996 24.6939C43.71 24.6477 43.6203 24.6939 43.6203 24.7864L43.3961 25.48C43.3513 25.5725 43.3961 25.665 43.4858 25.665L46.6688 26.8673C46.9378 26.5436 47.0274 26.2662 47.0274 25.8962L43.7996 24.6939Z" fill="#EF5988"/>
<path opacity="0.3" d="M43.3513 25.48L43.6203 24.7863C43.6203 24.7401 43.6651 24.6938 43.71 24.6938L43.5755 25.11C43.5306 25.2025 43.5755 25.295 43.6651 25.295L46.8481 26.4973C46.8929 26.4511 46.8929 26.4511 46.9378 26.4048C46.8929 26.5436 46.8033 26.6823 46.6688 26.821L43.4858 25.6187C43.3961 25.6187 43.3513 25.5262 43.3513 25.48Z" fill="#EF5988"/>
<path d="M0.0896797 45.0405L41.1546 54.7053C43.3962 55.1677 44.2928 54.5665 44.4721 54.7977C44.6514 55.029 43.3065 56.3238 41.2443 55.9076C39.0028 55.6301 1.52588e-05 45.4567 1.52588e-05 45.4567L0.0896797 45.0405Z" fill="#202A35"/>
<path d="M41.1098 54.659C42.903 55.029 43.8444 54.7978 44.2479 54.7515C43.7996 55.2139 42.7237 55.7689 41.2443 55.4914C39.0924 55.2602 2.19669 45.5954 0.0896454 45.0405L41.1098 54.659Z" fill="#ACBBDD"/>
<path d="M28.2434 51.6531C28.2434 51.6531 29.3193 50.6358 26.6743 51.0057L20.4428 49.4797C20.4428 49.4797 18.6048 46.6126 19.3669 49.5722L28.2434 51.6531Z" fill="#202A35"/>
<path d="M26.1812 49.9423C26.1812 49.9423 25.688 49.9885 25.419 50.1735L24.7466 49.8498C24.7466 49.8498 25.2845 49.4336 25.688 49.5261C25.8225 49.6186 26.0467 49.7573 26.1812 49.9423Z" fill="#C1C9D6"/>
<path d="M24.7914 49.1562C24.5224 49.0175 24.3431 48.925 23.9845 48.8325C23.9845 48.8325 23.6258 48.925 23.312 49.295L24.0293 49.5262C24.0741 49.5262 24.3879 49.2025 24.7914 49.1562Z" fill="#C1C9D6"/>
<path d="M20.4876 49.2949L26.6295 50.8209C26.6743 50.9134 26.6743 51.0059 26.6743 51.0059L20.4428 49.4799C20.4428 49.4337 20.4428 49.3874 20.4876 49.2949Z" fill="#C1C9D6"/>
</svg>
