<svg width="56" height="56" viewBox="0 0 56 56" fill="none" xmlns="http://www.w3.org/2000/svg">
<rect x="34.1415" y="34.4556" width="2.0646" height="11.7036" fill="#BFB8B8"/>
<rect x="29.9748" y="44.8594" width="10.4039" height="1.83451" rx="0.74" fill="#9B8F8E"/>
<path d="M45.2231 35.1274C45.2839 35.4314 45.1115 35.7338 44.8188 35.8363H30.3915C30.0989 35.7338 29.9264 35.4314 29.9873 35.1274V31.9497C29.9264 31.6456 30.0989 31.3432 30.3915 31.2407H44.8064C45.099 31.3432 45.2715 31.6456 45.2106 31.9497V35.1274H45.2231Z" fill="#232121"/>
<path d="M30.7893 33.4232C30.1682 33.8459 29.9401 34.6534 30.2483 35.3386L14.7514 15.2087C14.6145 15.0284 14.8322 14.848 15.2364 14.7983L27.6303 13.3866C27.8904 13.3424 28.1565 13.4204 28.3516 13.5981L40.6833 30.6497C40.7828 30.7865 37.2692 28.9023 37.0453 29.0018L30.7893 33.4232Z" fill="#9B8F8E"/>
<path d="M17.6743 15.1777L31.0818 33.7156L30.2796 35.6061L14.9194 15.4825L17.6743 15.1777Z" fill="#232121"/>
<path d="M30.9824 16.7817C31.7846 17.2419 35.8019 18.1561 35.8019 18.1561C35.8019 18.1561 36.7223 20.799 36.4922 20.9109C36.2621 21.0229 33.6254 21.4831 32.1391 19.8786C30.6528 18.2742 30.9824 16.7817 30.9824 16.7817Z" fill="#E5C3B7"/>
<path d="M44.508 11.3221C44.508 13.7039 43.1958 15.4016 41.3178 15.6317C40.8693 15.7098 40.4106 15.7098 39.9621 15.6317C38.6499 15.0969 38.1338 13.2686 38.1338 11.3221C38.1338 9.3757 38.2768 7.64068 39.589 7.10587C40.1624 7.01367 40.744 6.98241 41.324 7.01259C43.0777 6.96906 44.508 8.92795 44.508 11.3221Z" fill="#3F3C3C"/>
<path opacity="0.98" d="M40.1985 15.6191C41.957 15.6191 43.3825 13.6896 43.3825 11.3096C43.3825 8.92945 41.957 7 40.1985 7C38.4401 7 37.0146 8.92945 37.0146 11.3096C37.0146 13.6896 38.4401 15.6191 40.1985 15.6191Z" fill="#524E4E"/>
<path d="M40.0555 13.5544C40.9622 13.5544 41.6972 12.5604 41.6972 11.3343C41.6972 10.1082 40.9622 9.11426 40.0555 9.11426C39.1488 9.11426 38.4137 10.1082 38.4137 11.3343C38.4137 12.5604 39.1488 13.5544 40.0555 13.5544Z" fill="#232121"/>
<path d="M39.8191 12.1617C40.2278 12.1617 40.5591 11.7886 40.5591 11.3284C40.5591 10.8682 40.2278 10.4951 39.8191 10.4951C39.4104 10.4951 39.0791 10.8682 39.0791 11.3284C39.0791 11.7886 39.4104 12.1617 39.8191 12.1617Z" fill="#9B8F8E"/>
<path d="M37.1388 14.1265C36.9833 13.4362 37.4248 13.0009 37.0455 12.5034C36.6618 12.1829 36.2008 11.9684 35.7085 11.8816C35.4784 11.8816 34.6016 11.6515 34.1414 11.8816C33.6812 12.1117 33.3392 12.5718 34.0294 13.1253C34.7197 13.6788 35.6339 13.6228 35.5592 14.4996C35.5219 15.1028 37.1388 14.1265 37.1388 14.1265Z" fill="#E5C3B7"/>
<path d="M21.1878 15.2519C21.7289 15.7619 23.5198 16.6636 23.3706 18.3613C23.2649 19.4931 24.1417 19.5491 24.1417 19.5491L26.6292 18.3986C26.6292 18.3986 25.7959 16.3713 26.3991 15.1089C26.766 14.3191 21.1878 15.2519 21.1878 15.2519Z" fill="#D3A197"/>
<path d="M33.4075 18.4172C32.6099 17.766 31.7796 17.1558 30.92 16.5889C29.8566 16.2282 28.588 16.7257 27.1888 16.6635C27.2324 16.8065 26.0695 15.5939 26.2125 14.885C26.2622 14.6486 26.3058 14.5181 25.7647 14.3999L24.4339 14.487L25.9451 17.814C25.1268 18.0624 24.2606 18.1093 23.4203 17.9508C22.6367 18.7219 21.7972 18.61 21.1878 18.9955C20.9204 18.9955 20.6468 19.238 20.2239 19.8288C19.5865 20.8356 19.0313 21.892 18.5635 22.9879L17.2389 26.8684C18.1717 26.9616 20.4105 26.4455 22.133 24.269C22.4004 24.8908 22.7549 25.4629 24.1976 25.2639C25.6404 25.065 34.3217 22.8511 34.3217 22.8511L33.4075 18.4172Z" fill="#E5C3B7"/>
<path d="M23.5073 17.876C22.7175 18.6471 21.9588 18.6471 21.2748 18.9208C21.0074 18.9208 20.7337 19.1633 20.3109 19.7541C19.6742 20.7591 19.119 21.8134 18.6505 22.9069L18.1903 25.9603C19.208 24.4876 20.1183 22.9434 20.9141 21.3398C21.2561 20.5936 21.4862 19.7354 23.2399 19.4742C24.2609 19.1644 25.1815 18.5893 25.9077 17.8076C25.1122 17.9149 24.3076 17.9378 23.5073 17.876Z" fill="#D3A197"/>
<path d="M19.8881 17.9695C20.2364 17.1895 20.475 16.3649 20.597 15.5194C20.597 14.7172 19.6331 13.8963 19.1729 13.548C18.7127 13.1998 16.219 13.604 16.1009 14.4062C16.1084 15.2555 16.6446 16.0101 17.4441 16.2967C17.9603 16.4708 17.8483 17.385 17.8172 17.7208C17.8026 17.8382 17.7668 17.952 17.7115 18.0566L19.8881 17.9695Z" fill="#E5C3B7"/>
<path d="M16.0637 25.9667C14.5712 23.3238 16.9841 19.8848 17.7863 16.5578C18.7188 16.5074 19.6428 16.3531 20.5411 16.0977C20.0203 18.5088 19.8278 20.9792 19.969 23.4419C20.0436 25.3946 17.8609 27.1731 17.0587 26.912C16.5888 26.7849 16.2147 26.4295 16.0637 25.9667Z" fill="#E5C3B7"/>
<path d="M16.8661 15.2895C17.4382 15.9114 18.8436 16.3529 18.7876 16.695C18.7317 17.037 16.8101 21.2595 16.7541 23.7221C16.7079 24.4048 16.7329 25.0905 16.8288 25.768C16.9442 26.1834 17.1574 26.5651 17.4506 26.8812C17.064 26.9817 16.6535 26.8623 16.381 26.5702C15.8852 26.0034 15.5997 25.2831 15.5726 24.5305C15.3301 22.043 17.5439 17.9698 17.6372 16.8442C17.6807 16.3281 16.2815 15.9238 16.0887 15.4077C15.896 14.8915 16.8661 15.2895 16.8661 15.2895Z" fill="#D3A197"/>
<path d="M41.1934 25.625C43.6436 25.625 50.8324 26.0852 52.0947 28.0379C52.2834 28.7873 52.336 29.5645 52.2502 30.3325C51.7278 32.82 50.565 39.0387 51.0065 40.127C51.448 41.2153 53.9168 42.7264 54.3708 43.1866C54.8248 43.6468 49.4767 43.1866 48.2516 43.0311C47.0265 42.8756 48.2516 41.0722 48.0961 39.9715C47.7914 37.5213 46.8524 32.6272 48.2516 30.942L41.212 30.0216L41.1934 25.625Z" fill="#E5C3B7"/>
<path d="M48.0837 39.9282C48.7926 40.2826 51.1122 40.0899 51.1931 39.8784C51.2615 40.6558 52.1321 41.2901 52.7602 41.744C53.3883 42.198 47.7852 42.3286 47.7852 42.3286C47.7852 42.3286 47.9904 41.1595 48.0215 41.004C48.2143 40.1023 48.0837 39.9282 48.0837 39.9282Z" fill="#E8E9EA"/>
<path d="M53.2266 41.5638C53.0721 41.088 52.798 40.6597 52.4306 40.3201C51.9704 40.1398 51.6843 40.3201 51.7279 40.7989C51.9232 41.3465 52.2022 41.8604 52.5549 42.3225L53.2266 41.5638Z" fill="#BFB8B8"/>
<path d="M48.1521 41.0722C48.1015 41.0453 48.0418 41.0414 47.9882 41.0617C47.9346 41.0819 47.8924 41.1243 47.8722 41.1779C47.667 41.9925 47.4245 42.8072 47.8722 43.6654C48.6869 44.1753 55.4155 43.7649 55.4155 43.7649C55.6001 43.741 55.7643 43.6358 55.863 43.4781C55.9617 43.3203 55.9847 43.1266 55.9254 42.9502C55.8011 42.4465 54.3272 42.3284 53.1084 41.4515C52.2937 42.2662 51.933 41.1157 51.2987 41.5137C50.1234 42.2289 48.7242 41.3769 48.1521 41.0722Z" fill="#BFB8B8"/>
<path d="M49.8248 43.2987C49.1311 43.2408 48.4328 43.2743 47.7478 43.3982C47.7478 43.5972 47.7167 44.0885 47.9157 44.1196C48.1147 44.1507 53.5125 44.5114 55.3781 44.0885C55.742 43.9398 55.9852 43.592 56 43.1992C55.9437 43.4364 55.7274 43.6006 55.4838 43.591C52.4615 44.0885 51.3235 43.3671 49.8248 43.2987Z" fill="#9B8F8E"/>
<path d="M53.0463 42.1419C53.0293 42.1154 53.0293 42.0814 53.0463 42.0549L53.3074 41.7937L52.3436 41.8994C52.3048 41.9042 52.2682 41.8806 52.2565 41.8434C52.2458 41.8074 52.2612 41.7688 52.2938 41.7501L53.0836 41.3211C53.1215 41.3021 53.1677 41.3157 53.1893 41.3521C53.2083 41.3901 53.1947 41.4362 53.1582 41.4579L52.7229 41.6942L53.5064 41.6071C53.5402 41.6014 53.5735 41.6193 53.5873 41.6506C53.6042 41.6772 53.6042 41.7112 53.5873 41.7377L53.3385 41.9865L54.3211 41.9305C54.3634 41.9304 54.3987 41.9629 54.4019 42.0051C54.4021 42.0474 54.3695 42.0827 54.3273 42.086L53.1395 42.1544C53.1106 42.1532 53.0845 42.1365 53.0711 42.1108L53.0463 42.1419Z" fill="white"/>
<path d="M37.1824 23.6099L40.3352 25.2578C40.3352 25.2578 45.932 25.6185 47.5365 26.1471C46.8773 26.2031 45.7268 30.3198 45.1547 30.836C42.8289 30.6183 43.0093 30.5934 39.278 30.3509L34.2596 27.0488L37.1824 23.6099Z" fill="black"/>
<path d="M47.5675 26.1291C45.7019 25.5818 40.3476 25.2896 40.3476 25.2896L40.0927 25.6378C40.0927 25.6378 45.192 26.44 46.7031 27.435C47.0078 26.695 47.3188 26.1477 47.5675 26.1291Z" fill="#232121"/>
<path d="M39.0044 27.7207C42.8289 28.6411 46.1995 29.5863 46.5042 31.8561C46.6659 33.0688 44.2592 41.8993 44.7443 44.3246C45.5092 45.5683 47.4992 46.6193 48.1894 46.8494C48.8797 47.0795 43.8363 47.7697 42.2195 47.3096C40.6026 46.8494 41.5976 45.0149 41.9894 43.7898C41.8791 41.7383 41.6486 39.6951 41.2991 37.6706C41.0531 36.2204 41.1317 34.7337 41.5292 33.3175L35.7894 31.9432L39.0044 27.7207Z" fill="#D3A197"/>
<path d="M41.8339 43.3232C42.5802 43.7399 44.8873 43.6031 44.9433 43.3792C44.9868 44.225 45.7704 45.0209 46.4358 45.506C47.1012 45.9911 41.3986 45.8729 41.3986 45.8729C41.3986 45.8729 41.6723 44.6292 41.7158 44.4488C41.9708 43.4974 41.8339 43.3232 41.8339 43.3232Z" fill="#E8E9EA"/>
<path d="M47.3187 45.3069C47.1747 44.7835 46.8984 44.306 46.5165 43.9202C46.0252 43.7087 45.7081 43.9202 45.7392 44.4052C45.9265 45.0062 46.2055 45.5747 46.5663 46.0905L47.3187 45.3069Z" fill="#BFB8B8"/>
<path d="M41.859 44.5484C41.8053 44.5163 41.7405 44.5089 41.681 44.5279C41.6215 44.547 41.5731 44.5906 41.548 44.6479C41.2868 45.5185 40.9883 46.3891 41.4547 47.3095C42.3129 47.9002 49.6074 47.7572 49.6074 47.7572C49.8119 47.7481 50.0003 47.6437 50.1164 47.4751C50.2325 47.3065 50.2627 47.0933 50.1982 46.899C50.0863 46.3456 48.5005 46.1652 47.2195 45.1516C46.2991 45.9973 45.9757 44.7411 45.2606 45.1516C43.936 45.8854 42.4622 44.9028 41.859 44.5484Z" fill="#BFB8B8"/>
<path d="M43.5689 47.0296C42.8217 46.9322 42.0649 46.9322 41.3177 47.0296C41.3177 47.241 41.2493 47.7759 41.467 47.8194C41.6846 47.8629 47.4742 48.491 49.5202 48.1179C49.9165 47.9709 50.1909 47.6066 50.2229 47.1851C50.1501 47.4362 49.9115 47.6022 49.6508 47.5831C46.3797 48.0122 45.1857 47.1726 43.5689 47.0296Z" fill="#9B8F8E"/>
<path d="M47.0887 45.9226C47.0707 45.8942 47.0707 45.8578 47.0887 45.8293L47.3562 45.5868L46.3114 45.6614C46.2716 45.6631 46.2357 45.6375 46.2243 45.5993C46.2139 45.56 46.2319 45.5187 46.2679 45.4998L47.1447 45.0707C47.1861 45.0521 47.2347 45.0683 47.2567 45.108C47.2752 45.1493 47.259 45.198 47.2193 45.2199L46.7405 45.4562L47.5925 45.4003C47.6295 45.3947 47.6655 45.4153 47.6795 45.45C47.7003 45.4799 47.7003 45.5196 47.6795 45.5495L47.3997 45.8107H48.4631C48.5112 45.8107 48.5501 45.8497 48.5501 45.8978C48.5501 45.9458 48.5112 45.9848 48.4631 45.9848H47.1758C47.1399 45.9846 47.1078 45.9624 47.095 45.9288L47.0887 45.9226Z" fill="white"/>
<path d="M31.1936 27.9382C30.9946 29.7292 31.0133 31.7627 34.1848 33.3609L40.8699 33.7713C40.8699 33.7713 41.1 28.3175 44.713 29.126C42.3686 27.733 41.1 26.8126 41.1 26.8126L35.8763 25.0527L31.1936 27.9382Z" fill="black"/>
<path d="M37.8478 26.8687C39.3402 27.4408 43.4446 28.84 43.7369 29.0079C43.2333 29.0761 42.7614 29.2926 42.3812 29.6297C40.7869 28.8534 39.2691 27.929 37.8478 26.8687Z" fill="#232121"/>
<path d="M26.0259 11.4528C27.3007 13.1816 27.8915 14.8606 27.0022 15.5198C26.1129 16.179 22.7673 16.9874 21.4925 15.2648C20.2176 13.5423 20.286 11.1543 22.1454 10.1717C24.1727 9.10834 24.7448 9.73021 26.0259 11.4528Z" fill="#E5C3B7"/>
<path d="M21.592 15.675C22.7549 17.2483 25.8083 16.6015 26.9774 15.476C25.3357 15.5319 22.4689 15.2832 21.0137 11.3032C21.0137 11.3032 21.2687 11.4587 20.6965 12.0495C20.6553 13.3174 20.9652 14.5721 21.592 15.675Z" fill="#D3A197"/>
<path d="M23.9864 9.21383C24.9254 9.69889 25.3669 10.5198 24.9689 10.1839C24.0983 9.4377 22.7364 9.92276 22.6369 10.3705C22.4659 10.7545 22.2728 11.1282 22.0586 11.4899C21.9777 11.7884 21.6917 10.7001 21.6917 10.7001L21.8596 11.5832L21.3496 13.0508L21.8844 13.8903L21.4989 14.2323L23.0287 16.8504C23.0287 16.8504 21.8409 16.8131 20.1183 15.3579C19.6961 14.9848 19.337 14.5459 19.0549 14.0582C18.7252 13.4935 18.6507 12.8154 18.8497 12.1926C18.9776 11.9187 19.1977 11.6986 19.4716 11.5707C19.6955 11.5147 19.4156 11.1541 19.7825 10.6628C20.0877 10.154 20.5506 9.75881 21.1009 9.5372C22.9727 8.54221 23.9864 9.21383 23.9864 9.21383Z" fill="#300901"/>
<path d="M40.1674 11.2162C40.1658 11.0754 40.1075 10.9413 40.0057 10.8441C39.9038 10.747 39.7671 10.695 39.6264 10.7L8.80657 15.675C8.54514 15.7586 8.393 16.0303 8.45833 16.2969C8.47171 16.578 8.70546 16.798 8.98692 16.7944L39.8005 11.8194C40.0619 11.7358 40.2141 11.4641 40.1488 11.1975L40.1674 11.2162Z" fill="#BFB8B8"/>
<path d="M36.5169 20.9174C36.859 20.7432 37.7607 20.4199 37.8539 18.8154C37.8946 17.0762 37.6359 15.3428 37.089 13.6912C36.6223 13.6541 36.1532 13.7199 35.7147 13.884C35.2676 15.2783 34.8981 16.6962 34.6078 18.1314C34.1041 20.5069 36.5169 20.9174 36.5169 20.9174Z" fill="#E5C3B7"/>
<path d="M34.8876 12.5658C35.3105 12.8332 35.9199 12.8518 36.2868 13.3493C36.3783 13.9261 36.3783 14.5138 36.2868 15.0906C36.2495 15.6254 35.9821 18.8218 35.9821 18.8218L34.6078 17.8268C34.6078 17.8268 35.6028 14.3257 35.4846 13.9463C35.3665 13.567 33.7185 13.1317 33.6874 12.7026C33.6377 12.4165 34.8876 12.5658 34.8876 12.5658Z" fill="#D3A197"/>
<path d="M13.5948 15.5196L40.161 11.2163C40.161 11.2163 40.3911 11.7884 40.0429 11.8382L13.5077 16.1229L13.5948 15.5196Z" fill="#9B8F8E"/>
<path d="M33.7185 11.6948C33.8746 11.3758 34.1211 11.1098 34.4274 10.9299C34.6015 10.818 35.2296 11.2471 35.4037 11.4772C35.5778 11.7072 35.9323 11.9436 35.5467 11.9622C35.1923 11.902 34.8599 11.7498 34.5828 11.5207L33.7185 11.6948Z" fill="#E5C3B7"/>
<path d="M34.7384 11.0049C34.901 10.842 35.1402 10.7822 35.3603 10.8494C35.5157 10.924 36.3179 11.577 36.2806 11.7698C36.2433 11.9626 36.2433 12.1118 35.9759 11.9252C35.7085 11.7387 34.7384 11.0049 34.7384 11.0049Z" fill="#E5C3B7"/>
<path d="M35.5717 11.0298C35.6741 10.9091 35.8442 10.8711 35.9883 10.9365C36.2698 11.1822 36.4658 11.511 36.548 11.8755C36.415 11.8758 36.2866 11.8271 36.1873 11.7387L35.5717 11.0298Z" fill="#E5C3B7"/>
<path d="M36.0319 11.0858C36.2675 11.0378 36.5096 11.1298 36.6538 11.3221C36.7657 11.5149 36.8901 11.8196 36.7533 11.8383C36.4743 11.6275 36.2308 11.3734 36.0319 11.0858H36.0319Z" fill="#E5C3B7"/>
<path d="M34.6202 12.8079C34.4647 11.7756 33.961 11.2222 34.3403 11.2222C34.7197 11.2222 35.0368 11.844 35.2669 12.2731C35.4828 12.6484 35.7393 12.9987 36.0318 13.3179L34.6202 12.8079Z" fill="#D3A197"/>
<path d="M20.3108 16.4093C20.4538 16.5523 20.7275 15.2899 20.7959 14.9479C20.8286 14.5634 20.653 14.1909 20.3357 13.9715C20.0131 13.7909 19.7231 13.5576 19.4775 13.2813C19.3096 13.0263 18.9302 13.4243 19.3656 13.9031C19.5765 14.1387 19.7601 14.3974 19.9128 14.6742L19.4962 15.2277C19.7295 15.6465 20.0023 16.0422 20.3108 16.4093Z" fill="#E5C3B7"/>
<path d="M18.9119 13.1876C19.2224 13.4553 19.3979 13.8472 19.3907 14.2572C19.3348 14.5992 18.9679 14.4686 18.5077 13.7224C19.0798 14.3443 19.2539 14.736 18.7751 14.6801C18.3626 14.56 18.0168 14.2771 17.8174 13.8965C17.8174 13.8965 18.5823 14.6801 18.1221 14.7982C17.5002 14.9537 16.953 14.1764 16.953 14.1764C16.953 14.1764 17.7552 14.8853 17.3572 14.9413C16.8964 14.8435 16.4682 14.6294 16.1135 14.3194C16.1135 14.3194 15.9829 13.6975 16.499 13.7348C16.6088 13.4948 16.8581 13.3502 17.1209 13.3741C17.2113 13.2134 17.3683 13.101 17.5497 13.0673C17.731 13.0337 17.9179 13.0823 18.0599 13.2C18.296 12.9714 18.6692 12.966 18.9119 13.1876Z" fill="#E5C3B7"/>
<path d="M14.1295 15.7685C14.2787 18.5855 12.8422 20.6688 10.6408 21.0668C10.1131 21.1894 9.56803 21.2188 9.03017 21.1538C7.44441 20.6066 6.71682 18.4798 6.59245 16.1789C6.46807 13.878 6.53026 11.8258 8.0414 11.1044C8.7135 10.9574 9.39935 10.8823 10.0873 10.8806C12.183 10.7686 13.9927 12.9576 14.1295 15.7685Z" fill="#3F3C3C"/>
<path opacity="0.98" d="M9.32829 21.1458C11.41 21.0331 12.9739 18.6592 12.8214 15.8436C12.6689 13.028 10.8578 10.8369 8.77609 10.9497C6.6944 11.0624 5.13048 13.4363 5.28297 16.2519C5.43545 19.0675 7.24661 21.2586 9.32829 21.1458Z" fill="#524E4E"/>
<path d="M9.01627 18.7148C10.0863 18.6568 10.89 17.4339 10.8114 15.9832C10.7328 14.5325 9.80176 13.4035 8.73176 13.4615C7.66177 13.5194 6.85806 14.7424 6.93663 16.1931C7.01519 17.6437 7.94628 18.7727 9.01627 18.7148Z" fill="#232121"/>
<path d="M8.66142 17.084C9.14497 17.0578 9.51303 16.5945 9.4835 16.0492C9.45397 15.5039 9.03803 15.0831 8.55448 15.1093C8.07092 15.1355 7.70286 15.5988 7.7324 16.1441C7.76193 16.6893 8.17787 17.1102 8.66142 17.084Z" fill="#9B8F8E"/>
<path d="M8.98074 16.0855C8.98915 15.8771 8.89937 15.6768 8.73821 15.5444L0.100457 16.981C-0.00983934 17.1582 -0.0305612 17.3769 0.0444889 17.5717C0.035089 17.7803 0.125056 17.981 0.287018 18.1128L8.91856 16.67C9.03092 16.4938 9.05395 16.275 8.98074 16.0792V16.0855Z" fill="#BFB8B8"/>
<path d="M0.0503998 17.6152L8.98044 16.0854C8.98044 16.0854 9.2354 16.6016 8.91825 16.6762C8.6011 16.7508 0.28671 18.119 0.28671 18.119L0.0503998 17.6152Z" fill="#9B8F8E"/>
<path d="M28.8803 16.477C29.8007 16.7817 29.9873 17.8575 28.843 18.5416C27.5495 19.3189 23.4328 18.5416 22.6679 18.4172C22.3203 18.5697 21.9604 18.6924 21.592 18.7841C22.5484 18.9035 23.4572 19.27 24.2288 19.8475C26.9836 22.1422 25.2922 25.3262 23.1094 25.2702C23.1094 25.2702 26.8406 26.2652 28.3704 27.795C29.9002 29.3248 30.8579 30.6058 31.4798 31.178C31.7845 30.6431 31.3243 28.9703 33.9672 27.2167C35.3416 26.2963 39.875 24.8038 39.875 24.8038C38.8992 24.3217 38.0235 23.6591 37.2942 22.8511C35.9199 21.4768 35.1923 20.1709 32.7795 18.1063C32.7795 18.1063 30.7211 16.9869 29.5644 16.4583C29.3425 16.3764 29.0975 16.3831 28.8803 16.477Z" fill="#4D87DB"/>
<path d="M23.1218 25.2768C23.1218 25.2768 26.853 26.2718 28.3828 27.8016C29.9126 29.3314 30.8703 30.6124 31.4921 31.1846C31.7968 30.656 31.3491 29.0018 33.8988 27.2668C31.1812 24.4311 27.3007 22.5592 25.4476 21.4834C26.2 23.4112 24.8132 25.3203 23.1218 25.2768Z" fill="#3357BC"/>
</svg>
