<svg width="56" height="56" viewBox="0 0 56 56" fill="none" xmlns="http://www.w3.org/2000/svg">
<g clip-path="url(#clip0)">
<path d="M14.8356 5.50365C15.158 5.428 15.2717 5.50365 15.2907 5.65495C15.4803 5.2767 15.7648 4.86062 16.163 4.69041C16.9405 4.34999 16.5612 5.52256 16.5612 5.52256C16.5612 5.52256 17.0732 4.63367 17.9076 4.70932C18.742 4.80389 18.3248 6.56275 17.6421 7.58403L17.2439 9.07812C17.2439 9.07812 16.2199 9.91027 15.6131 9.70223C15.0063 9.4942 15.0063 8.66204 15.0063 8.66204C14.2288 8.60531 13.9254 5.71169 14.8356 5.50365Z" fill="#C17348"/>
<path d="M14.7408 5.5415C15.158 7.14907 16.656 5.40912 17.3198 5.65498C17.7938 5.82519 17.7369 6.97886 18.0972 6.69517C17.9645 7.01668 17.8128 7.33819 17.6421 7.60297L17.2439 9.07815C17.2439 9.07815 16.2199 9.9103 15.6131 9.70226C15.0063 9.49422 15.0063 8.66207 15.0063 8.66207C14.2477 8.60533 13.9443 5.90084 14.7408 5.5415Z" fill="#AA5B33"/>
<path d="M14.5511 43.6879C14.5511 43.6879 13.3754 44.3876 13.1099 44.1417C12.8445 43.8959 13.0151 43.1016 13.0151 43.1016C13.0151 43.1016 13.0531 44.2552 14.4753 43.4798L14.5511 43.6879Z" fill="#B58F72"/>
<path d="M14.5132 43.3473C14.5132 43.3473 13.3375 42.6853 13.072 42.9312C12.8065 43.1582 12.9772 43.8958 12.9772 43.8958C12.9772 43.8958 13.0151 42.8177 14.4374 43.5364L14.5132 43.3473Z" fill="#E5C4A8"/>
<path d="M23.1983 43.8773C23.1983 43.8773 22.0226 44.5771 21.7571 44.3312C21.4916 44.0853 21.6623 43.291 21.6623 43.291C21.6623 43.291 21.7002 44.4447 23.1225 43.6693L23.1983 43.8773Z" fill="#B58F72"/>
<path d="M14.7408 30.1846C14.7408 30.0522 15.1769 29.2579 15.7648 29.2011C16.3526 29.1633 16.8646 29.882 16.8646 30.0144C16.8646 30.1468 16.3906 30.2981 15.8027 30.3548C15.2338 30.4116 14.7408 30.3359 14.7408 30.1846Z" fill="#AD8668"/>
<path d="M22.6294 30.1086C22.6104 29.9762 23.0276 29.1441 23.6155 29.0495C24.2034 28.9549 24.7533 29.6358 24.7533 29.7682C24.7722 29.9006 24.2982 30.0897 23.7103 30.1843C23.1414 30.2977 22.6484 30.2599 22.6294 30.1086Z" fill="#AD8668"/>
<path d="M20.1453 16.0378C21.3779 18.1371 27.5978 22.0898 28.3373 22.1087C29.02 22.1276 29.4182 21.0496 29.0579 20.6335C28.8304 20.3688 24.3551 16.1891 22.1364 15.2056C20.771 14.6193 19.5384 15.0165 20.1453 16.0378Z" fill="#F4DDC9"/>
<path d="M28.3373 19.9149L28.0339 19.688L26.8961 20.6714L27.5598 21.1253L28.3373 19.9149Z" fill="#E5C4A8"/>
<path d="M20.6762 14.96C20.6762 15.0923 21.2072 15.1491 22.2691 15.8678C24.2982 17.2484 26.5548 21.3146 29.001 21.4848C29.0389 21.4848 29.0579 21.4848 29.0958 21.4848C28.9631 21.8252 28.6786 22.1278 28.3183 22.1278C27.5788 22.1089 21.3589 18.1562 20.1263 16.0569C19.785 15.4328 20.0884 15.0356 20.6762 14.96Z" fill="#E5C4A8"/>
<path d="M18.9885 12.974C17.4335 12.4444 15.3665 10.799 15.8406 8.37822C16.3906 5.59807 17.9455 5.16309 19.8608 5.23874C21.9088 5.3333 23.3879 6.58153 22.1553 11.2718C21.6813 13.0307 18.9885 12.974 18.9885 12.974Z" fill="#C17348"/>
<path d="M15.7648 8.35931C16.0492 6.9787 16.6371 6.18437 17.3387 5.73047C17.6421 6.35458 19.747 5.48461 20.79 5.86286C22.0226 6.31676 21.9088 7.79193 22.5156 7.33803C22.7053 8.24583 22.6105 9.51297 22.1553 11.2718C21.6813 13.0496 18.9885 12.974 18.9885 12.974C17.4335 12.4444 15.2907 10.7801 15.7648 8.35931Z" fill="#AA5B33"/>
<path d="M24.6964 44.4636C25.9859 43.6693 24.4499 30.2603 23.862 27.1587C22.7621 21.3714 19.0075 29.674 19.0075 29.674C19.0075 29.674 16.7508 35.518 19.8039 34.7048C20.9607 34.3832 21.6623 46.3549 24.6964 44.4636Z" fill="#F4DDC9"/>
<path d="M18.9885 29.6738C18.9885 29.6738 21.4347 29.0307 21.4916 29.8818C21.6813 32.1702 21.3968 40.6998 24.1275 44.7092C21.3968 44.4445 20.7331 34.5343 19.6522 34.818C16.5992 35.6312 18.9885 29.6738 18.9885 29.6738Z" fill="#E5C4A8"/>
<path d="M15.3855 44.4636C17.5663 44.8607 19.1781 33.5889 20.6952 34.5345C20.6952 34.5345 21.1313 29.2201 20.4487 28.0853C19.4626 26.4588 16.3526 25.3241 14.9873 30.4494C13.603 35.6692 15.4235 38.1468 13.7926 44.7094C13.6599 45.2957 15.0252 44.4068 15.3855 44.4636Z" fill="#F4DDC9"/>
<path d="M21.0365 34.6478C20.1453 34.8936 13.6788 34.0804 15.1769 30.5059C18.0783 23.6028 17.0922 21.7872 16.0492 18.1182C15.4993 16.208 16.9595 14.487 19.4815 14.4303C21.4537 14.3924 23.1793 16.227 23.6345 17.948C24.6964 21.9385 21.7192 17.513 23.8051 27.4421C24.7722 32.1135 23.7862 33.8724 21.0365 34.6478Z" fill="#F4DDC9"/>
<path d="M15.139 29.7307C18.0404 22.8276 17.0732 21.7874 16.0492 18.1184C15.7458 17.0404 16.0682 16.0191 16.8646 15.3193C16.9784 15.7921 17.206 16.3974 17.5852 17.1349C17.9835 17.8914 17.8697 19.1775 18.8937 19.6881C19.6901 20.1042 21.4158 19.8583 22.9708 19.7449C23.2742 19.726 23.5586 19.6692 23.8241 19.6125C23.6724 20.4068 22.8759 20.1042 23.0466 22.7331C22.6673 22.2035 22.1933 21.1444 21.6623 21.0877C19.6901 20.9174 15.9734 27.291 15.632 31.2626C15.5752 31.9624 15.6131 32.6054 15.7269 33.1539C15.0252 32.5108 14.6649 30.8844 15.139 29.7307Z" fill="#E5C4A8"/>
<path d="M13.8116 44.7091C15.4424 38.1464 13.6219 35.6689 15.0062 30.449C15.651 28.066 16.5802 28.1606 16.144 29.7493C15.7648 31.1866 15.3476 41.5507 14.3805 44.6902C14.3615 44.728 14.3615 44.7469 14.3615 44.7847C14.0202 44.936 13.7357 44.9928 13.8116 44.7091Z" fill="#E5C4A8"/>
<path d="M15.3097 29.9384C15.3097 29.9384 15.1011 29.9384 14.7408 30.1086C14.7408 30.1086 16.694 25.2102 16.694 25.5506C16.694 26.118 15.3097 29.9384 15.3097 29.9384Z" fill="#E5C4A8"/>
<path d="M17.1301 15.2056C14.8925 15.9054 10.7016 20.8605 10.493 21.6359C10.2844 22.3735 11.2326 22.7895 11.7825 22.4491C12.1239 22.2411 16.144 18.9881 17.5094 17.1914C18.2869 16.0567 18.1541 14.8652 17.1301 15.2056Z" fill="#F4DDC9"/>
<path d="M10.4741 21.6359C10.493 21.5603 10.5499 21.4657 10.6258 21.3333C10.7396 21.9007 11.536 22.3168 11.9911 22.0331C12.3325 21.844 16.163 18.7802 17.6801 16.8511C17.718 16.9078 17.6611 17.078 17.5852 17.1726C16.3147 19.253 12.1808 22.4114 11.8394 22.6194C11.3085 22.9787 10.2655 22.3735 10.4741 21.6359Z" fill="#E5C4A8"/>
<path d="M10.4741 21.6359C10.6637 20.9551 13.8116 17.1915 16.1061 15.7163C13.9443 17.4373 11.3084 20.9551 11.1567 21.5981C11.043 22.0898 11.4602 22.487 11.9153 22.6194C11.8963 22.6383 11.8773 22.6383 11.8584 22.6572C11.3085 22.9787 10.2655 22.3735 10.4741 21.6359Z" fill="#E5C4A8"/>
<path d="M12.6738 21.7871L12.9203 21.4655L11.7636 20.293L11.2516 20.9927L12.6738 21.7871Z" fill="#E5C4A8"/>
<path d="M34.0642 15.2812C33.4194 15.7919 27.3323 20.6902 27.5029 21.3143C27.6736 21.9385 28.6218 22.1465 29.001 21.9385C29.3803 21.7115 34.3486 15.4704 34.3486 15.4704L34.0642 15.2812Z" fill="#FFCD9C"/>
<path d="M29.1148 19.4608C28.5649 20.4064 29.1527 21.1061 29.4372 20.9359C29.5889 20.8414 30.6698 19.631 31.8265 18.2504C31.8834 18.1747 31.4283 17.4749 31.4852 17.4182C32.3954 16.5482 33.4573 16.2835 34.0262 15.5459C34.1021 15.4702 34.3296 15.4702 34.3296 15.4702C34.3296 15.4702 29.4372 21.9761 29.0579 22.2031C28.6786 22.43 27.6736 21.9383 27.484 21.3142C27.446 21.0872 28.1477 20.3496 29.1148 19.4608Z" fill="#F7A27C"/>
<path d="M16.9215 24.3215C16.9974 24.1134 19.3678 21.0685 19.5195 19.5555C19.6522 18.3262 19.6712 16 19.9935 15.3948L19.785 15.3569C19.4436 16.0189 19.4436 18.1371 19.3109 19.4231C19.1592 20.7659 17.0732 23.5839 16.9974 23.8108L16.9215 24.3215Z" fill="#E5C4A8"/>
<path d="M16.8646 24.6618C16.9405 24.4538 19.2161 21.3143 19.3678 19.8013C19.5005 18.572 19.5195 16.3214 19.8418 15.7162L19.7281 15.6973C19.3867 16.3592 19.3867 18.4774 19.254 19.7635C19.1023 21.1063 17.0163 23.9242 16.9405 24.1512L16.8646 24.6618Z" fill="#C9A589"/>
<path d="M21.2072 14.9787C21.2072 14.9787 21.2451 15.9811 20.1452 16.0189C19.1971 16.0567 18.0214 15.338 17.4904 14.9409C19.1402 14.1466 19.9367 14.2033 21.2072 14.9787Z" fill="#FFF4E3"/>
<path d="M20.9796 14.903C20.9796 14.903 21.0176 15.8108 20.0125 15.8486C19.1592 15.8864 18.0783 15.2245 17.6042 14.8652C19.1023 14.1276 19.8229 14.1843 20.9796 14.903Z" fill="#FFCD9C"/>
<path d="M20.3349 14.7707L20.2211 13.0686L18.1921 10.3452L18.2489 14.7707H20.3349Z" fill="#FFCD9C"/>
<path d="M13.0341 55.6029H12.4841C12.4841 55.6029 12.4083 48.0568 12.9962 46.3547C13.584 44.6525 15.1959 41.7967 15.9734 42.1183C16.7509 42.4209 16.144 45.2577 15.0062 48.5485C13.4892 52.9741 13.0341 55.6029 13.0341 55.6029Z" fill="#F4DDC9"/>
<path d="M12.8445 46.298C13.1858 45.2956 13.9254 43.6313 14.7029 42.9883C14.115 44.1609 13.5271 45.636 13.2237 46.5249C12.6928 48.0758 12.8065 54.4493 12.8445 55.6029H12.4842C12.5031 55.6029 12.2566 47.9812 12.8445 46.298Z" fill="#E5C4A8"/>
<path d="M24.6016 55.6027H24.1085C24.1085 55.6027 22.2881 48.5483 22.4208 46.9218C22.5536 45.2954 23.2173 42.3639 24.0706 42.6476C24.924 42.9502 25.0757 45.6547 24.7912 48.8131C24.4119 53.0873 24.6016 55.6027 24.6016 55.6027Z" fill="#F4DDC9"/>
<path d="M22.2122 46.8274C22.307 45.7115 22.8759 43.4609 23.2931 43.1772C23.2362 44.4444 22.838 45.8628 22.7432 47.0732C22.6294 48.5295 24.1275 54.3545 24.4688 55.5839H24.0896C24.1085 55.6028 22.0795 48.4538 22.2122 46.8274Z" fill="#E5C4A8"/>
<path d="M22.3829 33.9099C21.8899 34.3827 20.2211 35.1014 18.4007 33.6641C18.4007 33.6641 19.0833 35.0636 20.1832 35.0636C21.4727 35.0636 22.3829 33.9099 22.3829 33.9099Z" fill="#E5C4A8"/>
<path d="M28.5269 19.8581C28.5269 19.8581 29.2475 22.26 28.9631 22.468C28.6786 22.6761 27.1616 22.1654 27.0099 21.9574C26.8582 21.7304 28.0718 19.9905 28.3183 19.7446L28.5269 19.8581Z" fill="#FFF4E3"/>
<path d="M24.3361 30.3738L24.2792 29.2012L16.0682 29.2957L15.8027 30.4494L24.3361 30.3738Z" fill="#E5C4A8"/>
<path d="M24.7722 29.8249C24.4499 27.4986 23.6724 22.4301 22.2502 21.352C19.273 19.1015 15.6131 29.9383 15.6131 29.9383C19.8987 29.6168 24.0896 29.4655 24.7722 29.8249Z" fill="#F4DDC9"/>
<path d="M16.2199 29.0116C15.8975 28.2551 12.6359 21.3142 11.9532 21.2953C11.2705 21.2763 10.7016 22.0707 10.8154 22.5057C10.9292 22.9217 15.9544 29.4655 15.9544 29.4655L16.2199 29.0116Z" fill="#FFCD9C"/>
<path d="M11.9532 21.2954C12.1428 21.2954 12.56 21.8628 13.0341 22.676C12.8634 22.6193 12.3893 22.6382 12.2566 22.6571C10.531 22.9975 15.3665 28.4065 16.1061 29.2008L15.9544 29.4656C15.9544 29.4656 10.7016 22.9597 10.5878 22.5436C10.4551 22.1276 11.2516 21.2954 11.9532 21.2954Z" fill="#F7A27C"/>
<path d="M12.9962 22.1846C12.9962 22.1846 10.2844 22.9033 10.0569 22.6007C9.82932 22.2792 10.4172 20.6716 10.6827 20.5203C10.9292 20.369 12.8634 21.6929 13.1289 21.9577L12.9962 22.1846Z" fill="#FFF4E3"/>
<path d="M20.4107 34.6668L22.5536 29.9008L23.881 29.8252C23.881 29.8252 23.3311 33.2673 20.9607 34.8748L20.4107 34.6668Z" fill="#E5C4A8"/>
<path d="M20.3159 34.6666L18.211 29.9007L17.0922 29.4468C17.0922 29.4468 18.3627 33.1347 19.8798 35.0638L20.3159 34.6666Z" fill="#E5C4A8"/>
<path d="M20.809 34.7421L19.8039 34.6854C19.7849 33.683 18.3438 31.8296 17.0732 29.3142L23.843 29.0684C23.843 29.0873 23.5396 32.4348 20.809 34.7421Z" fill="#F4DDC9"/>
<path d="M24.6395 44.501C24.6395 44.501 26.0807 43.404 22.9708 42.7988V43.9714C23.5017 43.1771 24.9619 43.8201 24.6395 44.501Z" fill="#E5C4A8"/>
<path d="M16.2389 44.0849C16.2389 44.0849 17.6801 42.988 14.5701 42.3828L14.1908 43.8391C14.9494 42.6287 16.5612 43.3852 16.2389 44.0849Z" fill="#E5C4A8"/>
<path d="M32.3385 18.3263L31.5231 16.8133L33.8745 15.3003L34.0073 15.9244L32.3385 18.3263Z" fill="#F9E9D7"/>
<path d="M32.2247 16.3784L33.8745 15.3193L34.0073 15.9245L32.7936 17.6456C32.7747 17.116 32.5471 16.6621 32.2247 16.3784Z" fill="#EAD9C1"/>
<path d="M33.116 16.87C32.8505 16.7376 32.5661 16.7376 32.6609 16.5484C32.7367 16.3593 34.5003 14.5815 34.5003 14.5815L34.3107 15.2624L33.116 16.87Z" fill="#9E8D7A"/>
<path d="M33.5711 15.5651C33.5901 15.376 33.609 15.2436 33.7039 15.2625C33.7987 15.2625 33.8745 15.4328 33.8556 15.6219C33.8366 15.811 33.7418 15.9434 33.647 15.9434C33.5522 15.9056 33.5522 15.7354 33.5711 15.5651Z" fill="#EAD9C1"/>
<path d="M33.8176 15.8674C33.628 15.8296 33.4953 15.8107 33.4763 15.9052C33.4574 15.9998 33.5901 16.0944 33.7797 16.1322C33.9694 16.17 34.14 16.1322 34.159 16.0376C34.159 15.9431 33.9883 15.9052 33.8176 15.8674Z" fill="#EAD9C1"/>
<path d="M34.0073 15.5837C33.8176 15.5459 33.6849 15.527 33.6659 15.6215C33.647 15.7161 33.7797 15.8107 33.9693 15.8485C34.159 15.8863 34.3296 15.8485 34.3486 15.7539C34.3676 15.6594 34.1969 15.6215 34.0073 15.5837Z" fill="#EAD9C1"/>
<path d="M34.1779 15.3381C33.9883 15.3003 33.8556 15.2814 33.8366 15.3759C33.8176 15.4705 33.9504 15.5651 34.14 15.6029C34.3297 15.6407 34.5003 15.6029 34.5003 15.5083C34.5193 15.4138 34.3676 15.3759 34.1779 15.3381Z" fill="#EAD9C1"/>
<path d="M33.4953 15.6593C33.3056 15.8106 33.2867 16.17 32.9453 16.0376C32.623 15.9052 33.2298 15.4135 33.4194 15.2622C33.609 15.1109 33.7039 15.2054 33.7607 15.2811C33.8176 15.3567 33.6849 15.508 33.4953 15.6593Z" fill="#EAD9C1"/>
<path d="M35.164 13.9953L46.0678 0L34.9365 13.8629L35.164 13.9953Z" fill="#E8DCCA"/>
<path d="M34.633 17.0213C34.633 17.0213 33.2867 15.0166 33.4384 14.2033C33.5521 13.5792 34.8985 13.1253 35.183 13.3334C35.9036 13.8818 35.4864 16.0568 34.633 17.0213Z" fill="#E8DCCA"/>
<path d="M33.4384 14.2034C33.4763 13.9953 33.647 13.8251 33.8556 13.6738C33.8556 13.7117 33.8556 13.7495 33.8556 13.7873C33.8556 14.7708 34.3486 15.584 34.9365 15.584C35.1071 15.584 35.2588 15.5273 35.4105 15.4138C35.2588 16.0379 34.9744 16.6431 34.6331 17.0403C34.6331 17.0213 33.2867 14.9977 33.4384 14.2034Z" fill="#C4B39D"/>
<path d="M17.2818 29.8441L16.3337 27.5557L15.3665 30.0143L17.2818 29.8441Z" fill="#E5C4A8"/>
<path d="M26.7065 56.0002H24.0327C24.0327 56.0002 23.8051 54.9411 24.2792 55.0735C24.7722 55.2248 26.7065 56.0002 26.7065 56.0002Z" fill="#FFF4E3"/>
<path d="M13.8305 56H11.6308C11.6308 56 12.3514 54.9031 12.8255 55.0544C13.2996 55.1868 13.8305 56 13.8305 56Z" fill="#FFF4E3"/>
<path d="M23.1604 43.5367C23.1604 43.5367 21.9847 42.8748 21.7192 43.1207C21.4537 43.3476 21.6244 44.0852 21.6244 44.0852C21.6244 44.0852 21.6623 43.0072 23.0845 43.7259L23.1604 43.5367Z" fill="#E5C4A8"/>
<path d="M14.5511 17.2674C14.9683 16.8513 15.4424 16.6622 15.6131 16.8324C15.7837 17.0026 15.5941 17.4754 15.1959 17.8726C14.7787 18.2886 14.3046 18.4778 14.134 18.3076C13.9443 18.1563 14.134 17.6834 14.5511 17.2674Z" fill="#E08079"/>
<path d="M12.8445 21.7495C12.9772 21.8441 13.072 21.9197 13.11 21.9765L12.9772 22.2034C12.9772 22.2034 12.8824 22.2223 12.7307 22.2601C12.8065 22.0899 12.8445 21.9197 12.8445 21.7495Z" fill="#F4DDC9"/>
<path d="M10.6637 20.5201C10.7396 20.4822 10.9861 20.5768 11.2895 20.7281C11.0809 20.955 10.9482 21.2955 10.9482 21.6737C10.9482 22.0141 11.0619 22.3357 11.2326 22.5626C10.6637 22.6572 10.1327 22.7139 10.0569 22.5815C9.82932 22.2789 10.4172 20.6714 10.6637 20.5201Z" fill="#F4DDC9"/>
<path d="M28.3752 20.1418C28.2615 20.104 28.1477 20.104 28.0339 20.0851C28.1477 19.9338 28.2425 19.8014 28.2994 19.7446L28.508 19.8581C28.508 19.8581 28.5459 20.0094 28.6028 20.2175C28.5459 20.1985 28.4701 20.1607 28.3752 20.1418Z" fill="#F4DDC9"/>
<path d="M27.9391 21.7874C28.3373 21.882 28.6976 21.8631 28.9821 21.7496C29.0389 22.1089 29.0579 22.4115 28.9631 22.4683C28.6786 22.6763 27.1616 22.1657 27.0099 21.9576C26.972 21.882 27.0478 21.674 27.1995 21.4092C27.3892 21.5794 27.6357 21.7118 27.9391 21.7874Z" fill="#F4DDC9"/>
<path d="M15.8596 30.071C15.7648 30.0899 15.67 29.9954 15.632 29.8441C15.5941 29.6928 15.632 29.5604 15.7269 29.5415C15.8217 29.5225 15.9165 29.6171 15.9544 29.7684C15.9923 29.9197 15.9354 30.0521 15.8596 30.071Z" fill="#F7A27C"/>
<path d="M15.6889 29.9386C15.7079 29.8441 15.8596 29.8252 16.0303 29.863C16.2009 29.9008 16.3147 30.0143 16.2768 30.1089C16.2578 30.2034 16.1061 30.2223 15.9354 30.1845C15.7837 30.1467 15.67 30.0332 15.6889 29.9386Z" fill="#F7A27C"/>
<path d="M15.8217 28.312C16.2199 28.5957 17.0163 29.4846 16.8646 29.6926C16.7129 29.9007 16.2958 30.26 16.1061 30.2033C15.9165 30.1276 15.5183 28.5768 15.5183 28.5768L15.8217 28.312Z" fill="#FFCD9C"/>
<path d="M21.302 22.8277C20.4487 22.8844 18.761 24.0381 18.761 24.0381C18.761 24.0381 20.259 22.7898 21.283 22.7142C22.0036 22.6574 22.4967 23.0357 22.8191 23.395C22.4588 23.0546 21.9657 22.7709 21.302 22.8277Z" fill="#E5C4A8"/>
<path d="M21.2641 23.7539C20.1642 23.8296 18.0214 25.5317 18.0214 25.5317C18.0214 25.5317 19.9367 23.5837 21.2641 23.4892C22.1933 23.4135 22.8759 24.17 23.2931 24.6428C22.819 24.2078 22.1364 23.6783 21.2641 23.7539Z" fill="#E5C4A8"/>
<path opacity="0.5" d="M16.1061 15.7165C16.4095 15.5274 16.675 15.3761 16.9405 15.2626C17.206 15.0546 17.5283 14.8654 17.8697 14.7331C18.0024 14.6763 18.1352 14.6196 18.2489 14.5818L18.1921 10.3643L20.2021 13.0687L20.3159 14.5439C20.3159 14.5439 20.3159 14.5439 20.3349 14.5439C20.7141 14.6385 21.0555 14.7898 21.3968 14.9978C21.6244 15.0357 21.8709 15.1113 22.1174 15.2248C22.5346 15.4139 23.0466 15.7165 23.5776 16.0758C22.7432 16.5108 21.5106 16.7945 20.1073 16.7945C18.3627 16.7945 16.8457 16.3595 16.1061 15.7165Z" fill="#BC5642"/>
<path d="M20.6573 13.8817C21.4916 13.6925 22.6105 12.0661 22.2122 10.2504C22.1364 9.89111 22.5536 9.34265 22.4967 8.92657C22.307 7.45139 21.6244 6.12752 20.3159 6.16534C19.0075 6.20317 17.7369 7.58378 17.6232 9.04005C17.3956 12.2174 19.0644 13.806 20.6573 13.8817Z" fill="#FFCD9C"/>
<path d="M18.2489 11.4229C18.2679 11.2527 18.8558 6.90284 20.5435 6.37329C21.6813 6.01395 18.8558 5.25745 17.6232 6.5435C16.5992 7.62152 16.6371 9.68298 16.6371 9.68298L18.2489 11.4229Z" fill="#AA5B33"/>
<path d="M18.4955 12.2554C17.9455 12.0663 17.187 11.6313 16.9974 10.8559C16.8077 10.0805 17.5852 10.0994 17.8697 10.4398C18.1731 10.7803 18.8368 12.3689 18.4955 12.2554Z" fill="#FFCD9C"/>
<path d="M18.1541 11.7259C17.8128 11.6124 17.3577 11.3476 17.2439 10.8748C17.1301 10.402 17.6042 10.4209 17.7749 10.6289C17.9455 10.837 18.3627 11.8015 18.1541 11.7259Z" fill="#F7A27C"/>
<path d="M18.3627 11.9527C18.1541 11.8771 17.8507 11.7069 17.7749 11.4043C17.699 11.1017 18.0024 11.1206 18.1162 11.253C18.2489 11.3854 18.4955 11.9906 18.3627 11.9527Z" fill="#FFCD9C"/>
<path d="M18.5144 9.13485C18.761 8.77551 19.3867 8.09465 20.3539 8.62421C19.6143 8.43508 19.1971 8.49182 18.5144 9.13485Z" fill="#93542A"/>
<path d="M19.8418 11.9526C19.9936 12.2931 21.0934 12.6524 21.5485 12.2742C21.0176 12.8226 19.8798 12.3498 19.6901 12.0094C19.6901 12.0094 19.8229 11.9526 19.8418 11.9526Z" fill="#EF8F6F"/>
<path d="M19.4626 9.83462C19.4815 9.55094 19.6522 9.32399 19.8418 9.3429C20.0315 9.36181 20.1832 9.62659 20.1642 9.91027C20.1453 10.194 19.9746 10.4209 19.7849 10.402C19.5764 10.3831 19.4436 10.1183 19.4626 9.83462Z" fill="#7C4C40"/>
<path d="M19.0264 9.74015C19.3678 9.41864 19.8229 9.11604 20.5056 9.55103C19.8798 9.45647 19.4815 9.56994 19.0264 9.74015Z" fill="#7C4C40"/>
<path d="M21.3589 9.94777C21.3968 9.66408 21.5675 9.45605 21.7381 9.51278C21.9088 9.55061 22.0226 9.81538 21.9847 10.0991C21.9467 10.3828 21.7761 10.5908 21.6054 10.5341C21.4347 10.4962 21.3399 10.2315 21.3589 9.94777Z" fill="#7C4C40"/>
<path d="M21.0934 9.62662C21.4158 9.39967 21.7761 9.24836 22.307 9.79683C21.795 9.55097 21.4727 9.56988 21.0934 9.62662Z" fill="#7C4C40"/>
<path d="M22.2881 8.98361C22.1743 8.79448 21.7761 8.22711 20.9796 8.64318C21.6244 8.51079 21.9278 8.58644 22.2881 8.98361Z" fill="#93542A"/>
<path d="M20.9796 11.5932C20.7331 11.5743 20.5435 11.4041 20.5624 11.2339C20.5245 11.2717 20.4866 11.3284 20.4866 11.3852C20.4676 11.5365 20.6573 11.6878 20.8848 11.7067C21.0555 11.7256 21.2261 11.65 21.283 11.5554C21.1882 11.5743 21.0934 11.5932 20.9796 11.5932Z" fill="#EF8F6F"/>
<path d="M19.7281 12.0093C19.8608 11.9336 19.9556 11.8201 19.9177 11.7256C19.9367 11.7445 19.9556 11.7634 19.9556 11.7823C19.9935 11.8769 19.9177 12.0093 19.766 12.0849C19.6143 12.1606 19.4626 12.1417 19.4247 12.0471C19.4247 12.0471 19.4247 12.0471 19.4247 12.0282C19.5005 12.066 19.6143 12.066 19.7281 12.0093Z" fill="#EF8F6F"/>
<path d="M20.4107 12.766C20.4107 12.6903 20.5245 12.7281 20.6383 12.747C20.771 12.747 20.8658 12.7281 20.8658 12.8038C20.8658 12.8794 20.7521 12.9173 20.6193 12.9173C20.5055 12.8983 20.4107 12.8416 20.4107 12.766Z" fill="#F7A27C"/>
</g>
<defs>
<clipPath id="clip0">
<rect width="36.0678" height="56" fill="white" transform="matrix(-1 0 0 1 46.0678 0)"/>
</clipPath>
</defs>
</svg>
