<svg width="56" height="56" viewBox="0 0 56 56" fill="none" xmlns="http://www.w3.org/2000/svg">
<g clip-path="url(#clip0)">
<path fill-rule="evenodd" clip-rule="evenodd" d="M30.007 21.1886C17.9647 21.9625 9.47591 28.2179 11.0552 35.0538C12.6345 41.8897 23.6898 46.7909 35.7321 45.9525C47.7744 45.1787 56.2632 38.9232 54.6839 32.0873C53.1046 25.2514 42.0494 20.3502 30.007 21.1886Z" fill="#CADBF2"/>
<path d="M40.7333 43.1792C40.47 43.1792 40.141 43.1147 39.8778 42.9858L18.3596 30.6038C17.9647 30.4103 17.7015 30.0234 17.5699 29.572C17.4383 29.1205 17.5041 28.7336 17.7673 28.3467L18.3596 27.5083L43.168 41.0511L41.9835 42.5343C41.7203 42.9213 41.2597 43.1792 40.7333 43.1792ZM18.6886 28.5401L18.557 28.7981C18.4254 28.9916 18.4254 29.185 18.4254 29.443C18.4912 29.7009 18.6228 29.8299 18.8202 29.9589L40.3384 42.2764C40.6675 42.4699 41.1281 42.4054 41.3913 42.0829L42.0494 41.309L18.6886 28.5401Z" fill="white"/>
<path fill-rule="evenodd" clip-rule="evenodd" d="M14.7403 27.315C24.7427 32.9255 32.6392 37.3108 42.5758 42.9214C47.7744 42.47 51.7227 39.8259 54.8813 35.9565C44.879 30.346 36.9824 25.9607 26.98 20.3501C24.611 24.7354 20.0705 26.6056 14.6087 26.7346C14.6087 26.8635 14.6087 27.186 14.7403 27.315Z" fill="#333333"/>
<path fill-rule="evenodd" clip-rule="evenodd" d="M14.7403 26.7988C24.7427 32.4094 32.6392 36.7947 42.5758 42.4053C47.7744 41.9539 51.7227 39.3098 54.8813 35.4404C44.879 29.8299 36.9824 25.4446 26.98 19.834C24.5452 24.3482 20.3337 26.5409 14.7403 26.7988Z" fill="#666666"/>
<path fill-rule="evenodd" clip-rule="evenodd" d="M10.6604 10.7411C10.0682 10.3541 9.93655 8.22599 8.55465 9.32231C8.09401 9.70925 7.9624 9.70925 7.56757 9.90271C6.97533 10.0962 6.31728 10.0962 5.39601 10.0962C4.47474 10.1607 3.09284 10.6766 3.29025 10.999C3.48766 11.7729 8.15982 11.515 10.1998 13.3851C11.1868 13.9011 10.5946 13.2562 10.6604 10.7411Z" fill="#351536"/>
<path fill-rule="evenodd" clip-rule="evenodd" d="M10.6604 10.7409C10.3314 10.5475 10.134 9.83808 9.80494 9.38666C9.54172 9.19319 9.21269 9.25768 8.75206 9.58013C8.29143 9.96706 8.09401 10.225 7.69918 10.4185C7.10694 10.612 6.51469 10.354 5.59342 10.4185C4.73796 10.4185 3.42186 10.9344 3.55347 11.1924C4.60635 11.7083 8.42304 11.7083 10.1998 13.3205C11.1868 13.9009 10.5946 13.256 10.6604 10.7409Z" fill="#EF7D00"/>
<path fill-rule="evenodd" clip-rule="evenodd" d="M6.84301 13.0628C6.44818 12.8694 6.38237 12.031 6.31657 11.3861C6.25076 10.9347 5.52691 10.8702 5.00047 11.3861C4.60564 11.773 4.47403 11.8375 4.0792 12.0955C3.55276 12.3534 2.89471 12.4179 1.97344 12.5469C1.05217 12.7404 -0.198119 13.3853 -0.000704367 13.6432C0.262515 14.4171 4.93467 13.5787 7.10623 15.191C8.15911 15.5779 7.04042 15.5779 6.84301 13.0628Z" fill="#431E44"/>
<path fill-rule="evenodd" clip-rule="evenodd" d="M7.50176 12.9335C7.10693 12.7401 6.77791 11.8372 6.25147 11.3213C5.92244 11.2568 5.59342 11.3213 5.26439 11.6437C4.86956 12.0952 4.80376 12.2242 4.40893 12.4821C3.81669 12.7401 3.09283 12.7401 2.23737 12.869C1.3819 12.998 0.263219 13.5784 0.263219 13.9009C1.3161 14.2878 5.19859 13.7719 7.17274 15.1907C8.15981 15.5776 7.76498 15.4486 7.50176 12.9335Z" fill="#EF7D00"/>
<path fill-rule="evenodd" clip-rule="evenodd" d="M42.2468 24.671C39.483 22.9298 34.8766 22.8008 33.8237 22.5428C32.9683 22.4783 32.7051 24.1551 33.7579 24.413C35.4031 24.8644 36.5875 25.3159 39.4172 27.2506C40.0094 27.6375 41.9836 28.7338 42.6416 27.702C43.2997 26.6702 44.2209 25.9608 42.2468 24.671Z" fill="#EF7D00"/>
<path fill-rule="evenodd" clip-rule="evenodd" d="M50.3408 29.0562C48.235 26.9925 42.839 25.0578 42.839 25.0578C42.4442 24.7354 40.47 27.4439 41.5887 28.0243C44.5499 29.6366 44.9448 31.5712 47.906 33.5059C50.604 36.6014 52.9072 34.9892 53.5652 33.5059C54.0917 32.2806 54.2891 30.8619 50.3408 29.0562Z" fill="#EF7D00"/>
<path fill-rule="evenodd" clip-rule="evenodd" d="M31.7838 23.4455C31.389 23.252 31.1257 23.51 30.7309 23.7034C30.2703 23.8969 29.4806 23.51 28.8884 23.8969C28.5593 24.0904 29.0858 24.3483 29.6122 24.3483C30.1387 24.3483 30.4677 24.6708 30.9283 24.6708C31.1915 24.6708 32.1128 24.6063 32.1786 24.2838C32.376 23.6389 32.047 23.6389 31.7838 23.4455Z" fill="#DB9669"/>
<path fill-rule="evenodd" clip-rule="evenodd" d="M34.1528 22.7363C34.416 23.0587 34.2186 24.542 33.6263 24.413C32.9025 24.284 31.718 24.7999 31.2573 24.6064C30.9941 24.542 30.6651 24.155 30.4677 24.0905C30.1387 23.9616 30.0729 23.8971 29.8096 23.6391C29.6122 23.4456 29.0858 22.8007 28.9542 22.6073C28.7568 22.2203 28.0987 21.4465 28.2961 21.3175C28.3619 21.253 28.5593 21.1885 28.691 21.1885C28.6251 21.0595 28.4277 20.8661 28.6251 20.7371C28.9542 20.6081 29.2174 20.8661 29.2174 20.8661L28.9542 20.6081C29.02 20.2857 29.5464 20.4791 29.678 20.6081C29.8096 20.7371 30.2045 21.1885 30.4019 21.253C30.7309 21.511 31.5864 22.1558 30.7967 21.4465C30.4677 21.124 30.0729 20.6081 30.3361 20.5436C30.7967 20.4791 30.9941 20.8661 31.3231 21.124C31.6522 21.382 32.376 21.7689 32.8367 21.8334C33.7579 22.0914 33.7579 22.2848 34.1528 22.7363Z" fill="#431E44"/>
<path fill-rule="evenodd" clip-rule="evenodd" d="M18.0306 15.1265C18.4912 16.0939 19.8731 17.1902 20.5311 18.222C20.9918 18.9314 19.4125 22.2849 16.9119 19.7698C15.6616 18.4155 14.2797 17.1902 13.3584 16.4163C11.8449 14.8041 10.9894 14.1592 9.08108 12.6759C8.48884 12.2245 9.2785 10.8057 10.5946 10.6768C14.0823 12.6114 16.9119 12.9984 18.0306 15.1265Z" fill="#347CFF"/>
<path fill-rule="evenodd" clip-rule="evenodd" d="M16.4512 19.3829C18.6886 22.2204 21.8472 24.671 24.8085 26.3477C27.1774 28.3469 29.7438 30.2171 32.3102 30.7975C32.1128 29.8947 32.1128 27.2506 33.7579 26.0898C34.6134 26.2188 35.5347 26.4767 36.5217 26.9926C36.3243 26.6057 35.9295 25.9608 35.403 25.3159C34.6134 23.1233 33.0999 21.3176 29.5464 21.1241C29.1516 20.8661 28.7568 20.6727 28.3619 20.4792C27.5065 19.9633 26.5852 19.5764 25.7297 19.2539C25.0059 18.9959 24.3478 18.738 23.5582 18.5445C21.3866 17.9641 19.6757 17.6417 18.6886 16.8678C17.3725 15.9005 14.7403 17.2547 16.4512 19.3829Z" fill="#347CFF"/>
<path fill-rule="evenodd" clip-rule="evenodd" d="M14.8719 17.3189C15.3326 18.2863 16.7145 19.3826 17.4383 20.3499C17.8989 21.0593 16.3196 24.4128 13.819 21.9622C12.5687 20.6079 11.1868 19.4471 10.2656 18.6087C8.81786 17.061 8.0282 16.0936 6.11986 14.6104C5.39601 14.0944 6.11986 12.9981 7.37015 12.8691C10.8578 14.8038 13.7532 15.1263 14.8719 17.3189Z" fill="#347CFF"/>
<path fill-rule="evenodd" clip-rule="evenodd" d="M13.49 21.8333C16.4512 24.8643 20.7285 27.1859 24.2162 28.3467C25.0717 28.8626 27.0458 29.443 27.4407 28.9916C27.0458 27.7663 29.6122 25.2512 34.416 26.9279C33.5605 25.5736 29.8096 21.7688 26.9142 22.0912C21.9788 19.3827 17.5041 20.221 15.5958 18.9957C14.0823 18.2218 11.5817 19.8986 13.49 21.8333Z" fill="#347CFF"/>
<path fill-rule="evenodd" clip-rule="evenodd" d="M18.7544 25.8315C22.2421 27.8952 26.322 30.9907 30.3361 31.3131C29.9413 30.2168 29.4148 26.2829 32.8367 25.6381C31.7838 23.5099 29.8096 22.0266 26.1904 22.3491C24.3478 21.3173 22.3079 20.8658 20.3337 20.6724C19.5441 22.4781 19.215 23.6389 18.7544 25.8315Z" fill="#EF7D00"/>
<path fill-rule="evenodd" clip-rule="evenodd" d="M30.0729 29.2493C30.1387 27.7661 30.7309 26.0894 32.7709 25.6379L32.8367 25.5734C31.718 23.4453 29.8754 21.4461 26.2562 21.7686C24.4136 20.7367 22.4395 20.2853 20.5311 20.0273C18.9518 20.9302 18.228 22.1555 18.0964 23.5098C21.7156 25.5089 25.9929 28.153 30.0729 29.2493Z" fill="#347CFF"/>
<path fill-rule="evenodd" clip-rule="evenodd" d="M18.6886 22.8652L19.6099 23.2522L19.5441 26.3477C19.215 26.1542 18.9518 25.9607 18.6228 25.7673L18.6886 22.8652ZM20.4653 26.9281C20.7944 27.1215 21.0576 27.315 21.3866 27.5085L21.4524 24.026L20.5311 23.6391L20.4653 26.9281ZM22.2421 28.0244C22.5711 28.2179 22.8343 28.4113 23.1633 28.5403L23.2291 24.7354L22.3737 24.413L22.2421 28.0244ZM24.0846 29.1207C24.4136 29.3142 24.6769 29.4432 25.0059 29.6366L25.0717 25.5738L24.1504 25.1869L24.0846 29.1207ZM25.9271 30.0236C26.2562 30.1525 26.5194 30.2815 26.8484 30.4105L26.9142 26.2832L25.993 25.8962L25.9271 30.0236ZM27.7039 30.733C28.0329 30.8619 28.2961 30.9264 28.6251 30.9909L28.691 27.0571L27.7697 26.6701L27.7039 30.733ZM29.5464 31.2489C29.8096 31.3134 30.0729 31.3134 30.4019 31.3778C30.1387 30.733 29.9412 29.1852 30.4019 27.8309L29.6122 27.444L29.5464 31.2489Z" fill="#431E44"/>
<path fill-rule="evenodd" clip-rule="evenodd" d="M23.624 30.7972C23.1633 30.6682 22.6369 31.1842 22.3079 31.4421C21.913 31.7001 21.1892 31.2486 20.6627 31.7646C20.1363 32.216 22.6369 32.216 22.9659 32.216C23.2291 32.216 24.1504 31.958 24.2162 31.6356C24.282 30.9262 23.953 30.9262 23.624 30.7972Z" fill="#351536"/>
<path fill-rule="evenodd" clip-rule="evenodd" d="M25.4665 30.1522C25.7955 30.4747 25.7955 31.8934 25.1375 31.7645C24.5452 31.7645 22.3737 31.7645 22.2421 31.7C21.9789 31.6355 21.8472 31.6355 21.584 31.5065C21.255 31.3775 21.1234 31.313 20.8602 30.9906C20.6628 30.7326 20.0047 30.0877 19.8731 29.8943C19.6099 29.4428 19.215 28.9269 19.0834 28.4755C19.1492 28.411 19.3467 28.3465 19.4783 28.3465C19.4125 28.1531 19.215 27.8951 19.3467 27.8306C19.6757 27.6371 19.9389 27.9596 19.9389 27.9596L19.8073 27.7661C20.1363 27.5082 20.3995 27.6371 20.5969 27.7661C20.7944 27.8951 21.1892 28.3465 21.3866 28.4755C21.7814 28.798 22.7027 29.4428 21.8472 28.669C21.4524 28.3465 20.9918 27.7661 21.255 27.7016C21.7156 27.6371 21.8472 28.0241 22.2421 28.3465C22.6369 28.6045 23.4924 29.0559 24.0188 29.1204C25.0059 29.5073 25.0059 29.7008 25.4665 30.1522Z" fill="#431E44"/>
<path fill-rule="evenodd" clip-rule="evenodd" d="M46.7873 28.0886C42.9706 25.1221 39.4172 25.9605 35.0082 24.2192C33.4289 24.3482 30.1387 26.0249 29.4806 27.7662C29.0858 28.798 28.8226 30.7972 30.3361 31.3776C31.5206 31.8935 35.7979 34.602 36.4559 35.7629C38.7591 40.4706 41.4571 39.8257 43.5629 39.8257C46.3925 38.02 49.2879 37.1816 50.4066 34.602C51.4595 33.6347 51.3279 32.6674 50.7356 31.829C49.7485 30.2168 47.6428 28.927 46.7873 28.0886Z" fill="#347CFF"/>
<path fill-rule="evenodd" clip-rule="evenodd" d="M33.2315 31.7646C30.5335 29.8944 26.0588 30.0234 24.9401 29.7654C24.0846 29.6365 23.6898 31.5711 24.6769 31.8291C26.322 32.345 27.7697 32.6675 30.5335 34.7311C31.1257 35.1826 33.0341 36.2789 33.7579 35.3115C34.4818 34.3442 35.1398 33.1189 33.2315 31.7646Z" fill="#EF7D00"/>
<path fill-rule="evenodd" clip-rule="evenodd" d="M40.2726 35.0538C37.9694 33.1836 32.5076 31.6359 32.5076 31.6359C32.1128 31.3135 30.7309 34.5379 31.8496 34.9894C34.9424 36.3436 33.8237 38.2783 38.2985 39.6326C41.1939 42.5346 43.3654 40.7289 43.8919 39.1812C44.2867 37.9559 44.3525 36.5371 40.2726 35.0538Z" fill="#EF7D00"/>
<path fill-rule="evenodd" clip-rule="evenodd" d="M47.9718 32.9899C46.8531 32.0871 44.2209 34.9891 45.866 36.7303C46.7215 36.8593 48.8931 37.8266 50.8014 36.7303C53.2362 36.4724 48.8273 33.6348 47.9718 32.9899Z" fill="#DB9669"/>
<path fill-rule="evenodd" clip-rule="evenodd" d="M47.0505 34.1509C44.8132 34.5378 44.0235 38.6007 45.8002 40.0194C47.906 40.5353 49.0905 40.8578 51.3279 40.5998C50.8672 38.6007 50.4066 36.6015 49.9459 34.6668C48.9589 34.4733 48.0376 34.3443 47.0505 34.1509Z" fill="#D0DAF2"/>
<path fill-rule="evenodd" clip-rule="evenodd" d="M51.1962 39.9549L49.9459 34.6667L47.906 34.2798C47.0505 34.4088 46.1293 34.4088 45.866 35.3116C45.537 36.5369 44.4183 37.8912 45.2738 39.052C45.866 39.8259 46.5899 39.8259 47.1163 39.8904C47.8402 40.0193 48.9589 40.1483 49.6827 40.0193C50.4724 39.5679 50.7356 39.8904 51.1962 39.9549Z" fill="#A3B6E0"/>
<path fill-rule="evenodd" clip-rule="evenodd" d="M51.3279 40.6643C53.6968 40.6643 55.8026 39.5679 56 36.2145C56.0658 33.7639 54.8813 31.8292 52.7098 31.5712C51.7227 31.4423 49.7485 31.8292 48.4982 31.8292C47.9718 32.0227 47.1163 32.2806 47.0505 33.9574C46.9847 34.7957 49.8143 35.2471 49.8143 35.6986C49.8801 38.3426 50.5382 40.2773 51.3279 40.6643Z" fill="#EF7D00"/>
<path fill-rule="evenodd" clip-rule="evenodd" d="M51.8543 40.5998C54.0259 40.4064 55.8026 39.2456 55.9342 36.1501C56 33.6995 54.8155 31.7648 52.6439 31.5068C51.8543 31.3779 49.9459 31.6358 49.1563 31.7648C48.564 32.0227 47.7086 32.0872 47.6428 33.6995C47.577 34.5378 50.3408 34.9893 50.3408 35.5052C50.4724 38.0848 51.1304 40.1484 51.8543 40.5998Z" fill="#347CFF"/>
<path fill-rule="evenodd" clip-rule="evenodd" d="M55.671 36.1498C55.8684 32.4094 52.9072 31.571 49.2879 32.1514C52.6439 32.2804 55.2761 33.1188 55.671 36.1498Z" fill="#C3C2CF"/>
<path fill-rule="evenodd" clip-rule="evenodd" d="M49.8143 36.7949L45.0764 37.3108C45.1422 37.0528 45.2738 36.7949 45.3396 36.6014L49.7485 36.021C49.8143 36.279 49.8143 36.5369 49.8143 36.7949Z" fill="#E5ECFC"/>
</g>
<defs>
<clipPath id="clip0">
<rect width="56" height="37.0169" fill="white" transform="translate(0 9)"/>
</clipPath>
</defs>
</svg>
