<svg width="56" height="56" viewBox="0 0 56 56" fill="none" xmlns="http://www.w3.org/2000/svg">
<path d="M49.585 18.0575C50.1795 18.0575 50.9062 18.0575 50.3909 16.6569C49.4132 14.0606 49.5321 13.5387 48.7327 10.5922C48.6942 10.4555 48.5524 10.3757 48.4156 10.4138C48.28 10.4473 48.1781 10.5596 48.158 10.6979L47.9664 14.0011C47.9316 14.5854 47.6133 15.1158 47.1141 15.4215L46.4205 15.8509L46.9886 17.965L47.3652 17.8857C47.9208 17.7528 48.5026 17.7803 49.0432 17.965C49.2158 18.0316 49.4 18.0631 49.585 18.0575Z" fill="#FFD9AB"/>
<path opacity="0.1" d="M46.5988 16.5376L46.9886 17.9646L47.3652 17.8853C47.9208 17.7525 48.5026 17.7799 49.0432 17.9646C49.2163 18.029 49.4005 18.0582 49.585 18.0505C49.9511 18.1361 50.3317 17.9828 50.5363 17.6673C49.1727 17.4994 47.844 17.1182 46.5988 16.5376H46.5988Z" fill="#1D1D1B"/>
<path d="M21.7982 54.8486C21.6727 55.43 21.4877 56.1699 22.9676 55.9651C25.7159 55.6282 26.2047 55.866 29.2503 55.7801C29.3186 55.7784 29.3835 55.7496 29.4306 55.7C29.4777 55.6505 29.5031 55.5842 29.5013 55.5159C29.4963 55.3687 29.3979 55.2412 29.2569 55.1988L26.0594 54.2276C25.4986 54.057 25.0569 53.6227 24.8768 53.0649L24.6258 52.3184L22.4919 52.3778V52.761C22.4911 53.3319 22.3285 53.8908 22.0228 54.373C21.9182 54.5157 21.8419 54.6771 21.7982 54.8486Z" fill="#FFD9AB"/>
<path opacity="0.1" d="M26.0594 54.2276C25.4987 54.057 25.057 53.6227 24.8769 53.0649L24.6258 52.3184L22.4919 52.3778V52.761C22.4911 53.3319 22.3285 53.8908 22.0229 54.373C21.919 54.5266 21.8471 54.6996 21.8115 54.8817C21.7256 55.2979 21.6067 55.7801 22.0889 55.9585C23.3063 54.9786 24.7971 54.3993 26.3567 54.3003L26.0594 54.2276Z" fill="#1D1D1B"/>
<path d="M17.0416 32.6574C21.4151 32.7433 25.4384 32.3931 28.0678 30.3253C28.3056 26.6059 26.6276 24.1087 25.0156 21.5718L17.0416 32.6574Z" fill="#B54824"/>
<path d="M38.3078 22.4239C37.9928 23.0553 37.4636 23.5541 36.8147 23.8311L36.4249 23.9764L25.8546 28.0262L25.4186 28.1914L20.8667 29.9355L22.0955 24.8815L22.6174 22.7476L22.6769 22.4966L24.0577 22.0077H24.0907L24.8967 21.7236L26.1717 21.2744L34.5024 18.3279C34.7469 18.2237 35.0049 18.1547 35.2688 18.1231C36.5898 17.9458 37.8663 18.6733 38.387 19.9003V19.9531C38.7223 20.7489 38.6933 21.6513 38.3078 22.4239Z" fill="#3C3C3B"/>
<path d="M47.2728 21.2682L36.643 23.9108L36.425 23.9504C34.8976 24.2155 33.4236 23.2597 33.0425 21.7571V21.6976C32.8507 20.9354 32.97 20.1282 33.374 19.454C33.778 18.7798 34.4336 18.294 35.1962 18.1037H35.2557L47.0217 15.2695L47.2728 21.2682Z" fill="#3C3C3B"/>
<path d="M27.579 39.0526C27.4688 40.3488 26.5252 41.4211 25.2535 41.6952H25.2006C24.4332 41.862 23.6309 41.7169 22.9704 41.2919C22.31 40.8669 21.8456 40.1968 21.6794 39.4292L21.6199 39.1782L19.0434 28.3238L18.2507 24.9809L22.5845 22.7678L24.0313 22.0278H24.0643L24.17 22.5299L25.3922 28.2247L25.4979 28.7136L27.5261 38.1806C27.587 38.467 27.6048 38.7609 27.579 39.0526Z" fill="#3C3C3B"/>
<path d="M27.5854 39.5811L26.7861 53.5867L20.8403 53.1771L21.6396 39.1715C21.7184 38.3549 21.9755 37.5655 22.3928 36.8592C22.9807 35.8683 23.8396 35.0755 24.7711 35.1415H24.8305C26.2972 35.2406 27.4401 37.4208 27.5788 39.0526C27.5939 39.2283 27.5961 39.405 27.5854 39.5811Z" fill="#3C3C3B"/>
<path opacity="0.2" d="M47.2727 21.2679L36.6429 23.9105L36.4249 23.9501L25.8546 27.9999L25.4186 28.165L25.5243 28.6539C24.6138 30.4416 23.0007 31.7699 21.0715 32.3205C21.2574 33.894 21.7039 35.4256 22.3928 36.8525C23.0534 38.1342 23.8 38.9005 24.4144 38.7618C23.7036 39.4432 23.1764 40.293 22.8817 41.2326C21.3754 45.5268 22.5249 52.6749 26.7861 53.5866L20.8403 53.177L21.6397 39.1714L19.0632 28.317L22.0889 24.8948L24.1964 22.5099L24.89 21.7237C25.7696 23.0673 26.2548 24.6305 26.2906 26.2359C26.2906 26.3483 31.4106 24.4522 34.1589 23.4282L35.8567 22.7676L38.3342 22.4042C41.677 21.9285 47.2925 21.1292 47.2727 21.2679Z" fill="#1D1D1B"/>
<path d="M28.8079 15.0514L29.5346 17.1192L31.0607 16.5775C31.206 16.9474 31.761 16.9805 32.3159 16.7889L34.0996 16.1282C34.0754 15.0165 33.8236 13.9215 33.3597 12.9109L32.1706 13.3403L31.9988 12.8052C31.9525 12.8052 30.9219 13.3865 30.8427 13.4658C30.5463 13.6693 30.3496 13.9883 30.3009 14.3445V14.5493L28.8079 15.0514Z" fill="#FAC48E"/>
<path d="M33.0756 13.6637C32.8476 13.7486 32.5938 13.6335 32.5074 13.4061V13.3268C32.4226 13.0988 32.5377 12.845 32.7651 12.7586L33.6041 12.4481C33.8194 12.368 34.0589 12.4774 34.1392 12.6926L34.1987 12.8511C34.2705 13.0499 34.1709 13.2697 33.9741 13.3466L33.0756 13.6637Z" fill="#FFCF9F"/>
<path d="M33.3002 14.6155C33.1899 14.6583 33.067 14.6552 32.959 14.6068C32.851 14.5584 32.7669 14.4687 32.7255 14.3579V14.2786C32.6406 14.0506 32.7557 13.7968 32.9831 13.7104L34.0401 13.3008C34.1443 13.2603 34.2604 13.2633 34.3623 13.3093C34.4642 13.3553 34.5433 13.4403 34.5819 13.5453L34.6413 13.7038C34.7131 13.9026 34.6135 14.1223 34.4167 14.1993L33.3002 14.6155Z" fill="#FFCF9F"/>
<path d="M33.5314 15.527C33.3034 15.6119 33.0496 15.4968 32.9632 15.2694V15.1901C32.8784 14.9621 32.9935 14.7083 33.2209 14.6219L34.0599 14.3114C34.2752 14.2313 34.5147 14.3407 34.595 14.5559L34.6545 14.7144C34.7263 14.9132 34.6267 15.1329 34.4299 15.2099L33.5314 15.527Z" fill="#FFCF9F"/>
<path d="M33.8352 16.2475C33.6492 16.3086 33.4487 16.2084 33.386 16.0229V15.9568C33.3129 15.7762 33.3981 15.5703 33.5776 15.4944L34.2382 15.2565C34.4115 15.2001 34.5978 15.2947 34.6544 15.468L34.7007 15.6001C34.7649 15.757 34.6913 15.9363 34.5355 16.0031L33.8352 16.2475Z" fill="#FFCF9F"/>
<path d="M29.9177 15.9033L30.7765 15.5928C31.5273 15.4582 32.0395 14.7568 31.9393 14.0007L32.0714 13.9214C32.1403 13.8882 32.2205 13.8882 32.2894 13.9214L32.7188 14.0865C32.8676 14.1466 33.0343 14.1439 33.1811 14.0792C33.3279 14.0146 33.4423 13.8933 33.4984 13.743L33.5314 13.6571C33.5858 13.513 33.5155 13.3519 33.3729 13.2938L32.9104 13.1088L32.2498 12.8379C32.1775 12.8099 32.0974 12.8099 32.0251 12.8379C31.9789 12.8379 30.9483 13.4193 30.869 13.4986C30.5727 13.702 30.3759 14.0211 30.3273 14.3772V14.582L29.8847 14.7274L29.9177 15.9033Z" fill="#FFCF9F"/>
<path d="M21.9567 9.15186H21.917C21.44 9.22807 21.013 9.49112 20.7303 9.88286C20.4477 10.2746 20.3327 10.7628 20.4108 11.2395L21.6263 18.8633C21.701 19.3416 21.9634 19.7702 22.3553 20.0543C22.7472 20.3383 23.2363 20.4542 23.714 20.3762C24.7045 20.2174 25.3788 19.2858 25.2202 18.2952L24.0443 10.6978C23.9776 10.2135 23.7185 9.77655 23.3257 9.48564C22.9328 9.19473 22.4393 9.07441 21.9567 9.15186Z" fill="#E94E1B"/>
<path d="M31.2454 17.9647L24.0246 20.3695C23.3794 20.5831 22.669 20.4201 22.1814 19.9467C21.9728 19.745 21.8164 19.4956 21.7256 19.22V19.1803C21.4502 18.3589 21.7931 17.4574 22.5448 17.0266C22.6512 16.9638 22.7642 16.9129 22.8817 16.8747L24.5861 16.3065L30.0695 14.4897L31.2454 17.9647Z" fill="#E94E1B"/>
<path opacity="0.1" d="M31.2455 17.9646L24.0246 20.3694C23.3794 20.583 22.669 20.42 22.1814 19.9466L22.5316 17.0265L23.1394 11.8867L24.573 16.3064L25.2336 18.4403L31.2455 17.9646Z" fill="#1D1D1B"/>
<path d="M24.7447 20.9638L24.3813 21.096L16.6782 23.7782L15.674 21.4395L14.0554 17.6606C13.38 15.9608 12.6148 14.298 11.763 12.6794C11.763 12.6794 14.2867 9.69986 14.9143 9.11188L17.5569 8.2002C17.94 8.26626 18.4619 8.39178 19.0499 8.55034L20.7412 9.00618L23.5357 17.1453L24.6852 20.5014L24.7447 20.9638Z" fill="#E94E1B"/>
<path d="M20.0277 13.9354C20.0277 13.9354 15.4957 9.51566 14.9077 9.12588L14.5378 7.395L14.2273 5.98122L14.115 5.49234L14.5047 5.39985L15.2579 5.23469L15.7335 5.12898L17.9269 4.65332L18.4554 7.04485V7.09771L18.865 7.93012C18.865 7.93012 18.9839 8.48506 19.116 9.25141C19.4794 10.9691 20.0277 13.9354 20.0277 13.9354Z" fill="#FFD9AB"/>
<path d="M25.009 21.5655L22.5448 22.7085L16.665 25.4237V23.7391L24.3814 21.0965L24.7447 20.9644H24.7513L25.009 21.5655Z" fill="#3C3C3B"/>
<path d="M19.017 8.56348C19.42 8.66918 21.3491 8.9995 22.71 9.22412C22.71 9.22412 23.8397 16.3921 24.1238 17.8125L20.0278 13.9345L19.017 8.56348Z" fill="#E94E1B"/>
<path d="M17.0415 32.6576L18.5808 32.248C22.3763 31.2576 25.0274 27.8333 25.0353 23.9107V21.5786L16.6914 25.4368L17.0415 32.6576Z" fill="#E94E1B"/>
<path opacity="0.1" d="M19.1358 9.19117C17.1539 8.95334 16.5857 8.23984 16.3215 6.7666L18.4289 7.02425V7.0771L18.8385 7.90952C18.8385 7.90952 19.0037 8.45785 19.1358 9.19117Z" fill="#1D1D1B"/>
<path d="M20.5432 5.783C20.402 5.8924 20.2435 5.97726 20.0741 6.03404C20.0964 6.39926 20.0964 6.7655 20.0741 7.13071C19.8693 8.3463 19.3474 8.76911 17.9337 8.452C17.1541 8.29345 16.6124 7.65262 16.0839 6.28509H16.031H15.8196H15.6016C15.3571 6.28509 15.1259 6.28509 14.9409 6.28509C14.7512 6.26811 14.5658 6.21896 14.3926 6.13975C14.1908 6.03959 14.018 5.88949 13.8905 5.70372C13.7422 5.48984 13.6244 5.25638 13.5404 5.01005V4.93737V4.87792V4.82506L13.4941 4.69294L13.4545 4.5542C13.4165 4.4216 13.3857 4.28708 13.362 4.15121C13.362 4.15121 13.362 4.08514 13.362 4.05211V4.00587C13.3443 3.88545 13.3333 3.76414 13.329 3.64251C13.2945 2.89548 13.5638 2.16629 14.0755 1.62094C14.2087 1.48007 14.3547 1.3518 14.5115 1.23776L14.6965 1.11224L14.8881 0.999932C15.0221 0.924369 15.1612 0.858147 15.3043 0.801739C15.5485 0.707193 15.8005 0.634243 16.0574 0.583726L16.2556 0.550694C17.4301 0.326086 18.626 0.818983 19.3012 1.80592C19.3673 1.90502 19.5126 1.97769 19.5654 2.07678C19.7785 2.79545 19.9114 3.53546 19.9618 4.28334C20.16 4.67972 20.4243 5.03647 20.6225 5.45928C20.6458 5.57362 20.6168 5.6924 20.5432 5.783Z" fill="#FFD9AB"/>
<path d="M19.5389 1.49501C16.6651 1.92443 16.0045 1.90461 16.8105 4.79823C16.4603 4.87751 15.7733 4.99643 15.9781 5.79581C15.9875 5.90571 15.9875 6.01622 15.9781 6.12613C15.9781 6.29129 15.9781 6.43663 15.9781 6.57537C16.0243 8.32608 13.7054 7.77774 13.6988 7.74471C13.2717 6.52012 12.9771 5.25325 12.8202 3.96582C12.6499 2.98972 12.9456 1.99011 13.6196 1.26379C13.7693 1.10626 13.9329 0.962542 14.1084 0.834367C14.2437 0.737495 14.3849 0.649235 14.5312 0.570109C14.6837 0.489299 14.8402 0.416529 15.0003 0.352096C15.274 0.24469 15.5571 0.162861 15.8459 0.107657L16.0705 0.0680188C17.4092 -0.205077 18.78 0.358922 19.5389 1.49501Z" fill="#3C3C3B"/>
<path d="M15.0201 5.26729C15.1589 5.92793 15.6345 6.63482 16.1168 6.25826C16.4324 5.96352 16.5483 5.51252 16.4141 5.10213C16.3791 4.65335 15.9986 4.31065 15.5487 4.32257C15.3342 4.34421 15.1437 4.46917 15.0384 4.65733C14.9332 4.84548 14.9263 5.07316 15.0201 5.26729Z" fill="#FFD9AB"/>
<path d="M20.2127 2.82977C19.3965 2.05836 18.2938 1.66524 17.1737 1.74631L16.665 0.458052C19.5719 -0.57916 21.3028 0.748736 20.2127 2.82977Z" fill="#3C3C3B"/>
<path opacity="0.1" d="M25.0353 21.5655C24.1768 21.866 23.3494 22.2488 22.5645 22.7084C19.4727 24.5318 17.4181 27.584 17.068 32.6577L16.6914 25.4237L15.6872 21.4003L13.8044 13.9351L16.3214 18.2887L23.5026 17.159L24.6522 20.5151L24.738 20.9643L25.0353 21.5655Z" fill="#1D1D1B"/>
<path d="M12.569 12.3756H12.5294C11.5389 12.5345 10.8645 13.4661 11.0231 14.4566L12.2387 22.0805C12.3133 22.5587 12.5757 22.9874 12.9677 23.2714C13.3596 23.5554 13.8486 23.6713 14.3263 23.5934H14.3594C15.3478 23.4312 16.0204 22.502 15.8656 21.5123L14.6567 13.8951C14.5836 13.4157 14.3219 12.9853 13.9297 12.6999C13.5376 12.4145 13.0477 12.2978 12.569 12.3756Z" fill="#E94E1B"/>
<path d="M21.4083 17.1987C21.7188 16.9807 22.0161 16.7495 22.3068 16.5381C22.4621 16.4102 22.6614 16.3485 22.8618 16.3663C23.2119 16.3663 23.5224 16.4191 23.8924 16.4191C24.1533 16.4259 24.3643 16.634 24.3746 16.8948C24.3783 17.0221 24.3294 17.1452 24.2394 17.2352C24.1494 17.3252 24.0262 17.3742 23.899 17.3705C23.5554 17.3705 23.2383 17.3705 22.8618 17.3176C22.5909 17.5356 22.32 17.7536 22.0293 17.9783C21.7977 18.1497 21.4733 18.1153 21.2828 17.899C21.1942 17.7938 21.157 17.6547 21.1812 17.5194C21.2055 17.384 21.2887 17.2665 21.4083 17.1987Z" fill="#FAC48E"/>
<path d="M22.7166 17.1061C22.6374 16.8763 22.7584 16.6256 22.9875 16.5446L24.3088 16.1019C24.5386 16.0227 24.7893 16.1436 24.8704 16.3728C24.9496 16.6026 24.8286 16.8533 24.5995 16.9343L23.2782 17.377C23.0484 17.4562 22.7977 17.3353 22.7166 17.1061Z" fill="#FAC48E"/>
<path d="M22.8751 17.9647C22.7959 17.7349 22.9168 17.4842 23.146 17.4032L24.6985 16.868C24.9283 16.7888 25.179 16.9097 25.2601 17.1389C25.3393 17.3687 25.2184 17.6194 24.9892 17.7004L23.4367 18.2356C23.2069 18.3148 22.9562 18.1939 22.8751 17.9647Z" fill="#FAC48E"/>
<path d="M23.1657 18.8302C23.0865 18.6004 23.2074 18.3497 23.4366 18.2687L24.7579 17.826C24.9877 17.7468 25.2384 17.8677 25.3194 18.0969C25.3768 18.3202 25.2532 18.5501 25.0354 18.6254L23.7141 19.0681C23.4973 19.1428 23.2593 19.0396 23.1657 18.8302Z" fill="#FAC48E"/>
<path d="M23.4365 19.6233C23.403 19.5252 23.4099 19.4177 23.4558 19.3247C23.5017 19.2318 23.5827 19.1609 23.681 19.1278L24.8371 18.7314C24.9352 18.6979 25.0426 18.7048 25.1356 18.7507C25.2286 18.7965 25.2995 18.8776 25.3326 18.9758C25.3661 19.074 25.3592 19.1814 25.3133 19.2744C25.2674 19.3674 25.1864 19.4382 25.0881 19.4713L23.932 19.8677C23.8339 19.9013 23.7265 19.8943 23.6335 19.8484C23.5405 19.8026 23.4696 19.7215 23.4365 19.6233Z" fill="#FAC48E"/>
<path d="M21.3292 19.3917L21.0716 18.5725C20.8549 17.8967 21.2107 17.1704 21.8776 16.9275L22.8818 16.584L24.0049 19.8476L23.0007 20.1911C22.3187 20.4253 21.5749 20.0696 21.3292 19.3917Z" fill="#FFCF9F"/>
<rect x="19.5864" y="18.2451" width="2.35189" height="2.43117" transform="rotate(-18.95 19.5864 18.2451)" fill="#FFCF9F"/>
<path d="M23.8198 19.9072L24.5663 19.6496C24.6646 19.6165 24.7456 19.5456 24.7915 19.4526C24.8374 19.3596 24.8443 19.2522 24.8108 19.1541C24.7777 19.0558 24.7068 18.9748 24.6138 18.9289C24.5208 18.883 24.4134 18.8761 24.3153 18.9096L24.4474 18.8634C24.6766 18.7823 24.7975 18.5317 24.7183 18.3019C24.6372 18.0727 24.3865 17.9518 24.1567 18.031L24.2823 17.9914C24.5114 17.9103 24.6323 17.6596 24.5531 17.4298C24.3993 17.5027 24.2174 17.4809 24.0851 17.3739C23.9528 17.2668 23.8936 17.0934 23.9329 16.9278C23.9721 16.7622 24.1028 16.6337 24.269 16.5974C24.188 16.3682 23.9373 16.2473 23.7075 16.3265L22.7033 16.6701L23.8198 19.9072Z" fill="#FFCF9F"/>
<path d="M12.3246 22.424C12.1699 21.9658 12.2043 21.4649 12.42 21.0322C12.6358 20.5994 13.0152 20.2705 13.4741 20.1183L20.662 17.7334L21.8577 21.2084L14.6369 23.6065C14.1796 23.7592 13.6803 23.7238 13.2491 23.5082C12.8179 23.2926 12.4901 22.9144 12.3378 22.457L12.3246 22.424Z" fill="#E94E1B"/>
</svg>
