<svg width="56" height="56" viewBox="0 0 56 56" fill="none" xmlns="http://www.w3.org/2000/svg">
<g clip-path="url(#clip0)">
<path d="M23.901 54.5516C24.0612 55.2068 24.2941 56.0076 22.6125 55.8474C19.4822 55.5489 19.7006 56.0003 16.2427 56.0003C14.9905 56.0003 15.2017 55.7018 15.2017 55.5417C15.1991 55.3741 15.305 55.2241 15.4637 55.1704L18.6159 53.9692C19.2455 53.758 19.7321 53.2524 19.919 52.6152L20.181 51.7271H23.0347V52.1638C23.0534 52.811 23.2554 53.4396 23.6171 53.9765C23.7504 54.1466 23.8471 54.3424 23.901 54.5516Z" fill="#FFD9AB"/>
<path opacity="0.1" d="M23.9011 54.5512C23.855 54.3467 23.7684 54.1537 23.6463 53.9833C23.2846 53.4464 23.0826 52.8178 23.0639 52.1707V51.7339H20.2102L19.9481 52.622C19.9481 52.6657 19.9481 52.7021 19.9045 52.7385C20.4141 53.4665 20.6324 54.1945 19.9845 54.8132C18.9872 55.8106 16.9416 55.5412 15.2308 55.5412C15.2308 55.7014 15.0197 55.9999 16.2718 55.9999C19.7298 55.9999 19.5186 55.5485 22.6417 55.847C24.2942 56.0144 24.0321 55.2064 23.9011 54.5512Z" fill="#1D1D1B"/>
<path d="M41.1399 53.2408C41.0393 53.4699 40.992 53.7188 41.0016 53.9688V54.6968C40.9855 54.9054 41.0534 55.1119 41.19 55.2704C41.3266 55.4289 41.5208 55.5264 41.7296 55.5412C43.8261 55.4684 44.9836 55.6068 46.476 55.4903C46.5857 55.482 46.6831 55.4166 46.7323 55.3181C46.7815 55.2197 46.7754 55.1026 46.7162 55.0098C46.3034 54.5804 45.8472 54.195 45.3549 53.8596C44.5177 53.0807 43.171 52.4036 42.0426 52.6148C41.6645 52.6812 41.3346 52.91 41.1399 53.2408Z" fill="#FFD9AB"/>
<path d="M45.3474 53.9103C42.6247 53.6409 40.2006 54.3907 37.7254 54.9367C37.063 55.0823 36.3932 55.2206 35.7089 55.3153C35.3668 55.3662 35.0173 55.4026 34.6679 55.4318C33.1328 55.5628 31.5872 55.3795 30.1253 54.893L29.0552 54.216C26.9149 55.8685 22.9984 53.539 18.7834 53.8593V53.6264L21.3459 37.3414L24.8111 26.1087L25.3425 24.3761L34.5078 23.3569C34.8975 23.981 35.2453 24.6304 35.5488 25.3006C36.2339 26.8347 36.7231 28.449 37.0047 30.1053L45.3474 53.9103Z" fill="#3C3C3B"/>
<path opacity="0.3" d="M45.3475 53.9103L37.0412 30.1053C36.7596 28.449 36.2704 26.8347 35.5853 25.3006C35.2818 24.6304 34.934 23.981 34.5442 23.3569L33.5979 23.4589C34.1511 26.4509 33.132 29.421 31.9381 32.1946C38.9485 34.6843 41.6566 45.2983 37.5872 51.406C37.2647 51.9187 36.8728 52.3842 36.4224 52.7892C34.1131 48.7606 32.4964 44.3731 31.6396 39.8093C31.5674 44.287 32.4483 48.7289 34.2239 52.8401C34.3841 53.2114 34.5588 53.5681 34.7481 53.9467C34.4377 54.1038 34.1194 54.2448 33.7944 54.3689C29.6793 49.0068 28.0023 42.1642 29.1718 35.5069C27.6368 39.7845 27.1378 44.365 27.7158 48.8726C27.5008 49.778 27.0368 50.6051 26.3763 51.2604C25.328 52.2432 23.8429 52.5781 22.4379 52.8693L18.798 53.5972V53.8302C23.0203 53.5099 26.9296 55.8467 29.0698 54.1869L30.14 54.8639C30.4239 54.9586 30.7005 55.0386 30.9771 55.1042H31.0208C31.7816 55.2904 32.5601 55.3953 33.3431 55.4172H33.8235C34.1147 55.4172 34.3987 55.4172 34.6826 55.4172C35.032 55.4172 35.4105 55.3517 35.7236 55.3007C36.4006 55.2061 37.0703 55.075 37.7401 54.9222C40.2007 54.3907 42.6321 53.6482 45.3475 53.9103Z" fill="#1D1D1B"/>
<path d="M36.2916 25.0533L35.5636 25.3008C31.516 26.6767 28.2328 26.9242 24.8259 26.1016L25.3573 24.369L35.3306 22.8257L36.2916 25.0533Z" fill="#2B2B2B"/>
<path d="M28.5166 33.6796H26.5146L26.7985 25.9994L27.6939 25.8247L28.5166 33.6796Z" fill="#2B2B2B"/>
<path d="M27.5194 32.5588H25.5101L26.5147 25.6284L27.1117 25.9342L27.5194 32.5588Z" fill="#2B2B2B"/>
<path d="M17.0511 22.8257C16.7716 22.9711 16.5122 23.1522 16.2794 23.3644C15.3986 24.0341 14.6487 25.0679 13.7824 25.7522C14.1666 26.2338 14.5122 26.745 14.8162 27.2809C16.1047 26.7713 17.8591 24.9004 19.0749 24.2307C18.5507 23.6556 17.7863 23.7284 17.2622 23.1533C17.2258 23.0256 17.1524 22.9115 17.0511 22.8257Z" fill="#F2CEA2"/>
<path d="M22.9619 20.5838L26.9876 14.6507L23.2385 10.8652L20.2465 17.6063C19.0818 19.601 21.6297 21.9014 22.9619 20.5838Z" fill="#EDEDED"/>
<path d="M18.1135 27.2807C19.6714 25.9776 21.6879 22.7891 23.2093 20.1756L20.1955 17.9917L14.4954 24.8857C16.4901 25.4317 16.6066 26.9386 18.1135 27.2807Z" fill="#EDEDED"/>
<path d="M13.3819 25.2507L10.7758 26.4009C10.6252 26.4509 10.4899 26.5386 10.3827 26.6557C10.2724 26.7776 10.2724 26.9632 10.3827 27.0852C10.1816 27.0751 10.0105 27.2299 10.0005 27.431C9.99041 27.632 10.1452 27.8031 10.3463 27.8131C10.2985 27.8572 10.2714 27.9193 10.2714 27.9842C10.2714 28.0492 10.2985 28.1112 10.3463 28.1553C10.4227 28.2486 10.5323 28.3086 10.652 28.3227C10.8342 28.3459 11.0194 28.3234 11.1907 28.2572C11.1907 28.3518 11.2635 28.8542 13.2145 28.1116C13.6513 27.9442 14.1318 27.784 14.5831 27.653C14.8097 27.5946 15.0276 27.5065 15.231 27.3909C15.7166 27.0894 15.9541 26.5105 15.8201 25.9548C15.6862 25.3991 15.211 24.992 14.6413 24.9449C14.2028 24.9416 13.7702 25.0466 13.3819 25.2507Z" fill="#FFD9AB"/>
<path d="M13.1127 25.7374C13.3 26.0791 13.6248 26.3241 14.0048 26.4104C14.3848 26.4966 14.7835 26.416 15.1001 26.1888C15.2087 26.1163 15.2986 26.019 15.3621 25.9049C15.4166 25.7846 15.4166 25.6466 15.3621 25.5263C15.3066 25.4151 15.2208 25.3217 15.1146 25.257C14.7788 25.0228 14.3964 24.8639 13.9935 24.7911C13.6805 24.7328 13.3602 24.7328 13.0472 24.6746C12.7305 24.6304 12.4407 24.4726 12.2318 24.2305C12.1784 24.1494 12.12 24.0716 12.0571 23.9976C11.993 23.9209 11.8941 23.8824 11.795 23.8956C11.7049 23.9237 11.6376 23.9994 11.6203 24.0922C11.5956 24.1827 11.5956 24.2783 11.6203 24.3688C11.7387 24.7102 12.0069 24.9785 12.3483 25.0968C12.4969 25.1302 12.6394 25.1867 12.7705 25.2642C12.9175 25.3954 13.0342 25.5568 13.1127 25.7374Z" fill="#FFD9AB"/>
<path opacity="0.1" d="M23.3843 11.0181C22.5689 14.8618 23.6026 18.9822 21.3168 22.2654C18.5432 25.6286 14.765 27.0919 10.7902 28.3076C10.9317 28.308 11.0722 28.2833 11.2051 28.2348C11.2051 28.3294 11.2779 28.8317 13.2289 28.0892C13.6657 27.9218 14.1462 27.7616 14.5975 27.6306C14.8241 27.5722 15.042 27.4841 15.2454 27.3685C15.479 27.219 15.6598 27.0001 15.7623 26.7424C16.0098 26.575 16.2646 26.3785 16.4903 26.1819C16.8923 26.7107 17.4538 27.0962 18.0918 27.2811C19.6497 25.9781 21.6662 22.7895 23.1877 20.1761L26.9368 14.6507L23.3843 11.0181Z" fill="#1D1D1B"/>
<path d="M34.5516 23.3573C31.101 24.4347 28.1017 25.7305 25.3863 24.3764C23.7349 20.4099 22.9243 16.1438 23.0058 11.8479C23.0067 10.8253 23.6929 9.9303 24.6802 9.66397L27.3155 8.93599L31.0282 8.20801L35.68 9.8678C36.7283 15.0729 36.4735 18.9821 34.5516 23.3573Z" fill="#EDEDED"/>
<path d="M27.0898 5.23788L27.1771 6.0241L27.2135 6.35897L27.3445 7.50918L27.2353 8.34636C27.2353 8.34636 27.2353 8.59387 27.3154 8.95786L27.3591 9.24905C27.503 10.7928 27.5564 12.3436 27.5193 13.8936C27.5193 13.8936 30.6423 8.73947 31.0354 8.22988V4.69189L30.2637 4.87389L29.5358 4.95397L29.099 5.00493L27.0898 5.23788Z" fill="#FFD9AB"/>
<path opacity="0.1" d="M27.2208 6.35196L27.3518 7.50217L27.2426 8.33935C27.2426 8.33935 27.2936 8.77614 27.3227 8.95085L25.9687 9.31484C25.9687 9.31484 28.24 9.94818 29.1135 8.44126C29.3964 7.99331 29.4931 7.45256 29.3829 6.93435V6.01709H27.1989L27.2208 6.35196Z" fill="#1D1D1B"/>
<path d="M25.0149 5.85637C25.1697 5.93713 25.3371 5.99126 25.5099 6.01652C25.5099 6.01652 25.6555 6.8173 25.7064 7.07937C26.0195 8.60813 26.5509 8.53534 27.2279 8.35334C27.7988 8.18664 28.3503 7.95969 28.8732 7.67632C29.259 7.42881 29.1644 6.9993 29.4191 5.5943H31.0134C31.5899 4.66417 31.829 3.56404 31.6904 2.47854C31.5594 -0.214988 25.5245 -1.46711 25.2697 3.29388C25.25 3.59385 25.313 3.89346 25.4517 4.16017C25.3279 4.5824 25.0804 5.07743 24.9421 5.52878C24.9151 5.64336 24.9419 5.76399 25.0149 5.85637Z" fill="#FFD9AB"/>
<path d="M25.7137 2.26774C27.8976 2.26774 28.5164 2.52981 28.3854 4.40072C28.7421 4.40072 29.4191 4.4444 29.339 5.2015C29.3298 5.30321 29.3298 5.40554 29.339 5.50725C29.339 5.66013 29.339 5.79844 29.3827 5.9222C29.4173 6.26001 29.5993 6.56528 29.8802 6.75623C30.161 6.94718 30.5118 7.00428 30.8387 6.91225C31.3992 6.86857 31.8214 5.13598 31.9088 4.57543C32.0472 3.97423 32.1059 3.35744 32.0835 2.74092C32.1054 1.91087 31.6652 1.13712 30.9406 0.731699C30.1918 0.220958 29.2982 -0.0343683 28.3926 0.00371834C27.0823 0.00371834 26.1505 0.389548 25.6263 1.18305C25.3497 1.51064 25.2769 2.26046 25.7137 2.26774Z" fill="#3C3C3B"/>
<path d="M30.0018 4.40053C30.0018 5.07027 29.7179 5.85649 29.2738 5.54346C28.9646 5.27944 28.8109 4.87618 28.8662 4.47332C28.7949 4.07113 29.0406 3.68053 29.434 3.57063C29.7834 3.50511 30.0091 3.89822 30.0018 4.40053Z" fill="#FFD9AB"/>
<path opacity="0.1" d="M36.0441 24.2821C35.5054 26.801 31.6763 26.7136 27.3084 24.9446C30.7517 23.9254 33.0376 22.2365 33.1322 19.2736L33.3725 12.9038L36.0441 24.2821Z" fill="#1D1D1B"/>
<path d="M33.6125 32.4423C33.3796 33.0174 32.9792 32.8354 32.9646 32.7262C32.8918 33.0756 32.4987 33.3013 32.3531 32.9373C32.3258 33.0173 32.2574 33.0762 32.1743 33.0913C32.0912 33.1064 32.0064 33.0754 31.9527 33.0101C31.8698 32.8833 31.841 32.7287 31.8726 32.5806C31.7489 32.5806 31.5014 32.5806 31.596 32.0346C31.7926 30.979 31.8799 30.12 32.0328 29.2101C32.1404 28.8188 32.3153 28.4493 32.5497 28.1181C32.7083 27.9117 32.8945 27.728 33.1029 27.5721C33.1539 26.9096 33.365 25.7813 33.416 25.1261C34.1439 24.7985 34.8719 25.5483 35.8183 25.8541C35.4689 26.7204 35.0903 27.3683 34.719 28.2346C34.7806 28.8101 34.7561 29.3916 34.6462 29.9599C34.3114 30.9499 33.9765 31.5614 33.6125 32.4423Z" fill="#FFD9AB"/>
<path d="M32.4332 29.4359C32.6151 29.2757 32.7316 29.0646 32.9136 28.9045C33.0832 28.7808 33.2145 28.6117 33.2922 28.4167C33.3326 28.2563 33.3172 28.0868 33.2485 27.9363C33.228 27.8535 33.1852 27.778 33.1247 27.7179C32.7316 27.5504 32.1565 28.657 31.9818 28.8753C31.8053 29.1128 31.545 29.2742 31.2538 29.3267C31.1437 29.3332 31.0342 29.3478 30.9262 29.3704C30.8154 29.3937 30.731 29.4839 30.7151 29.596C30.7232 29.6946 30.7808 29.7824 30.868 29.829C31.1169 29.9573 31.4125 29.9573 31.6615 29.829C31.9383 29.7407 32.199 29.6079 32.4332 29.4359Z" fill="#FFD9AB"/>
<path d="M37.9585 19.8411L37.4198 11.8333C37.0267 9.11794 33.1539 9.46737 33.3213 11.9498L33.9183 19.4625C33.6999 21.7338 37.3106 21.6028 37.9585 19.8411Z" fill="#EDEDED"/>
<path d="M36.6629 28.3873C37.5292 26.5528 37.6457 22.8692 37.9587 19.8408L33.9112 19.4404L32.0403 27.7904C34.0422 27.4482 35.156 28.7076 36.6629 28.3873Z" fill="#EDEDED"/>
<path opacity="0.1" d="M23.9159 17.7954C24.2106 20.7113 26.3005 23.1302 29.1428 23.8449C26.886 22.3453 24.8477 20.3433 23.9159 17.7954Z" fill="#1D1D1B"/>
<path opacity="0.1" d="M28.291 24.1874C27.055 23.4609 25.9256 22.5667 24.935 21.5303C25.5133 22.941 26.7852 23.9481 28.291 24.1874Z" fill="#1D1D1B"/>
<path opacity="0.1" d="M33.496 27.689C34.6972 29.6909 33.416 31.5181 31.8508 32.8503C31.86 32.9108 31.888 32.9668 31.9309 33.0105C31.9845 33.0757 32.0693 33.1068 32.1525 33.0917C32.2356 33.0766 32.304 33.0177 32.3313 32.9377C32.4769 33.3017 32.87 33.076 32.9428 32.7266C32.9428 32.8358 33.3577 33.0178 33.5907 32.4427C33.9547 31.5545 34.3187 30.943 34.6171 29.9894C34.727 29.4211 34.7515 28.8396 34.6899 28.2641L34.7336 28.1549C35.3338 28.4045 35.9909 28.4851 36.6336 28.3878C37.4999 26.5533 37.6164 22.8697 37.9294 19.8413L37.4635 12.9619C36.8739 18.1306 38.9413 25.3085 33.496 27.689Z" fill="#1D1D1B"/>
<path opacity="0.1" d="M41.1399 53.2408C41.0393 53.4699 40.992 53.7188 41.0016 53.9688V54.6968C40.9855 54.9054 41.0534 55.1119 41.19 55.2704C41.3266 55.4289 41.5208 55.5264 41.7296 55.5412C43.8261 55.4684 44.9836 55.6068 46.476 55.4903C46.5857 55.482 46.6831 55.4166 46.7323 55.3181C46.7815 55.2197 46.7754 55.1026 46.7162 55.0098C46.3034 54.5804 45.8472 54.195 45.3549 53.8596C44.5177 53.0807 43.171 52.4036 42.0426 52.6148C41.6645 52.6812 41.3346 52.91 41.1399 53.2408Z" fill="#1D1D1B"/>
</g>
<defs>
<clipPath id="clip0">
<rect width="56" height="56" fill="white"/>
</clipPath>
</defs>
</svg>
