<svg width="56" height="56" viewBox="0 0 56 56" fill="none" xmlns="http://www.w3.org/2000/svg">
<g clip-path="url(#clip0)">
<path d="M12.4899 34.7462C17.0254 36.1133 20.6891 36.6914 23.6493 36.5508C25.991 36.5438 28.2736 35.7662 30.1853 34.3243L30.449 34.0978L26.2578 26.2856H20.6012L18.4469 28.5199L12.4899 34.7462Z" fill="#C6C6C6"/>
<path d="M13.845 40.1521C14.6211 42.4605 17.5058 43.1819 18.9701 40.8735C19.9382 39.3866 20.7642 37.8144 21.4374 36.1772C22.3148 33.9326 23.0748 31.6452 23.7144 29.3239V29.2518L20.2806 24L17.1251 24.2453L13.7572 37.7282C13.7572 37.8436 13.7059 37.959 13.684 38.0672C13.662 38.1754 13.6474 38.2909 13.6327 38.3919C13.5728 38.9868 13.6452 39.5875 13.845 40.1521Z" fill="#EDEDED"/>
<path d="M9.21938 54.9037C9.08154 55.4433 8.8679 56.1178 10.3703 55.9829C13.1271 55.7324 13.637 55.9829 16.7177 55.9829C16.8623 55.9829 16.9796 55.8736 16.9796 55.7388C16.9815 55.5995 16.8868 55.475 16.7453 55.4304L13.5475 54.4347C12.9874 54.2591 12.555 53.8393 12.3896 53.3105L12.1553 52.5718H10.0119V52.9315C9.99554 53.4681 9.81632 53.9893 9.49505 54.4347C9.36889 54.5713 9.27497 54.7311 9.21938 54.9037Z" fill="#FFD9AB"/>
<path d="M8.00001 53.7141C10.1208 53.1725 10.8843 53.4504 13.7544 53.7141C14.6006 49.6846 16.0676 45.8136 18.1021 42.2417L13.7544 38.8569C10.5238 42.7618 9.24421 48.2914 8.00001 53.7141Z" fill="#EDEDED"/>
<path d="M18.1021 27.6943L18.4468 28.2134L23.4413 35.6917L25.8049 39.2518C28.1122 42.7461 32.3963 40.9551 31.4325 37.4754C31.0803 36.1931 30.6431 34.9376 30.1241 33.718L29.9905 33.4036C28.8124 30.8737 27.4679 28.4312 25.9667 26.0934L19.9451 25.1431L18.1021 27.6943Z" fill="#EDEDED"/>
<path d="M19.5196 50.3232C19.2085 50.866 18.7961 51.5318 20.33 51.8285C23.224 52.3858 23.6219 52.7838 26.7258 53.703C26.8695 53.7454 27.0207 53.6649 27.0659 53.522C27.1152 53.3604 27.0461 53.1862 26.8995 53.1023L24.0054 51.0686C23.4972 50.7136 23.1946 50.1326 23.1951 49.5126V48.6441L21.0245 48L20.8871 48.3836C20.694 48.9507 20.3455 49.4523 19.8814 49.831C19.7272 49.9675 19.6038 50.1352 19.5196 50.3232Z" fill="#FFD9AB"/>
<path d="M18.1021 49.4134C21.0086 49.7245 21.3505 50.4061 23.469 51.4284C24.3759 47.7243 27.9291 44.8204 31.5715 40.6571L25.424 38.8569C22.3466 41.2942 20.1834 44.8574 18.1021 49.4134Z" fill="#EDEDED"/>
<path opacity="0.07" d="M9.728 54.1784C9.83347 54.0271 9.92242 53.8643 9.99329 53.6931C9.31925 53.7197 8.65044 53.8258 8.00006 54.0093C9.26913 48.4134 10.5669 42.7071 13.8364 38.6774C13.8364 38.5671 13.8364 38.4568 13.8865 38.3392C13.9367 38.2215 13.9296 38.1112 13.9582 37.9936L17.2564 24.25L20.3466 24L22.6912 27.7282L23.1071 27.4046C23.1859 26.7061 23.3437 26.2354 23.5874 26.1546L26.2116 26.2428C27.7417 28.5944 29.112 31.0514 30.3128 33.5962L30.449 33.9124C28.6689 34.4366 26.9766 35.235 25.4301 36.2802C25.8317 36.8744 26.3883 37.3408 27.0362 37.6259C23.6089 40.7511 18.841 47.1853 22.6553 51.5018C23.6806 52.7298 25.3154 53.171 26.8784 53.671C26.8102 53.739 26.7117 53.7642 26.6203 53.7372C23.5444 52.8033 23.1429 52.3989 20.2821 51.8327C18.7477 51.5238 19.1636 50.8547 19.4791 50.3032C19.5726 50.1294 19.6994 49.9768 19.8519 49.8546C20.0785 49.6755 20.2747 49.4594 20.4327 49.2149C19.8154 49.041 19.1844 48.9229 18.547 48.8619C20.5115 44.4499 22.5621 40.9496 25.4373 38.5671L23.6663 35.9493L22.3614 34.0154C22.0889 34.861 21.795 35.6772 21.4795 36.4788C17.5504 34.6845 15.1915 37.8759 15.4209 38.9421C14.9127 39.4524 14.4339 39.9925 13.9869 40.5599C11.119 44.2954 9.68498 49.0605 11.0114 53.3107C11.6639 55.6638 14.5964 55.8477 17.07 55.98C14.0299 55.98 13.485 55.7153 10.6171 55.98C9.0612 56.1344 9.2763 55.3623 9.4197 54.7446C9.4801 54.5347 9.58543 54.3413 9.728 54.1784Z" fill="#1D1D1B"/>
<path d="M43.3712 12.6553L46.5571 11.5292C46.7292 11.4508 46.9188 11.4174 47.1078 11.4321C47.3032 11.4542 47.4534 11.6134 47.4618 11.8075C47.5671 11.6918 47.727 11.6405 47.8811 11.6728C48.0352 11.7051 48.1602 11.8162 48.2089 11.9641C48.2576 12.112 48.2227 12.2743 48.1173 12.3899C48.1949 12.3899 48.2693 12.4208 48.3236 12.4756C48.3779 12.5304 48.4075 12.6045 48.4057 12.6812C48.4193 12.8209 48.3769 12.9602 48.2877 13.0695C48.1549 13.2369 47.9813 13.3683 47.783 13.4514C47.8813 13.5096 48.2287 14.0209 45.9409 14.9658C45.4296 15.1729 44.8855 15.4318 44.3873 15.6777C44.1442 15.8108 43.884 15.9109 43.6138 15.9754C42.9386 16.0914 42.2595 15.792 41.8963 15.2182C41.553 14.6422 41.6106 13.9158 42.0405 13.3996C42.414 13.0455 42.8716 12.7895 43.3712 12.6553Z" fill="#FFD9AB"/>
<path d="M43.9049 13.7936C43.9656 14.2916 43.8197 14.7937 43.5118 15.1459C43.2496 15.6128 42.827 15.9243 42.3531 15.9999C42.1905 15.9999 41.0927 14.5132 42.082 13.4614C42.3573 13.1414 42.6006 12.7859 42.8071 12.4018C43.0479 12.0366 43.1638 11.58 43.1324 11.1207C43.1071 10.9823 43.089 10.8424 43.0782 10.7015C43.0671 10.5594 43.1212 10.4211 43.2205 10.3378C43.3207 10.2683 43.4455 10.2683 43.5457 10.3378C43.6451 10.4135 43.7211 10.5243 43.7626 10.6541C43.94 11.4152 43.94 12.2179 43.7626 12.979C43.7604 13.2592 43.8089 13.5368 43.9049 13.7936Z" fill="#FFD9AB"/>
<path d="M39.7541 17.1429L42.796 15.8418L42.2513 13.7144L39.4286 14.8073L39.7541 17.1429Z" fill="#FFD9AB"/>
<path d="M33.4268 20.5291L41.6735 18.357C41.4742 15.758 41.2474 14.9865 41.4742 12.9492L34.602 15.8778L30.6986 11.4962C27.984 8.20054 24.0531 12.38 27.0151 15.1663L32.2173 20.1996C32.5456 20.5208 32.9985 20.6442 33.4268 20.5291Z" fill="#EDEDED"/>
<path opacity="0.07" d="M30.0425 10.7389C30.0425 14.1278 30.6815 17.2992 33.5936 18.4238C35.5253 19.2185 38.8078 19.0236 40.7322 17.2317C41.2553 16.6969 41.7093 16.0946 42.083 15.4398C44.2616 15.0949 46.2804 14.4502 48.4082 13.8954C47.848 14.3921 47.2027 14.7761 46.5055 15.0275C45.9391 15.2674 45.3364 15.5673 44.7844 15.8522C44.5151 16.0063 44.2268 16.1223 43.9275 16.1971C43.4477 16.2841 42.954 16.1709 42.555 15.8822L42.2572 16.0171C42.3153 16.6469 42.4025 17.3741 42.4824 18.3563L33.7679 20.5305C33.3175 20.6431 32.8423 20.5197 32.497 20.2007L26.9997 15.1624C25.8684 14.2766 25.6228 12.6236 26.4449 11.4285C27.267 10.2334 28.8597 9.9281 30.0425 10.7389Z" fill="#1D1D1B"/>
<path d="M12.4899 34.0186C15.6901 34.4254 17.748 33.7475 20.4803 35.4286C21.2717 31.1513 22.1596 28.1484 24.8368 26.1827L15.5594 24C13.0404 26.1827 15.4149 30.4328 12.4899 34.0186Z" fill="#EDEDED"/>
<path d="M15.8572 23.5808C17.6383 25.9409 22.4171 26.2858 25.4887 26.2858L25.9592 24.5884L16.2605 21.7144L15.8572 23.5808Z" fill="#3C3C3B"/>
<path d="M15.8594 21.0776C15.8261 21.8331 16.1661 22.5565 16.7685 23.0123C17.855 23.8273 19.0941 24.4151 20.412 24.7407C21.9245 25.1052 23.4858 25.2228 25.0356 25.0892C26.002 25.0214 26.8294 24.3704 27.1237 23.4462L29.3326 17.4502V17.3719V17.3293L30.2274 14.8967C30.7459 13.3604 30.2914 11.3404 29.5172 10.8781H29.4675L29.2686 10.7856L29.1124 10.7145C28.8141 10.5817 28.5182 10.4584 28.2246 10.3446L27.5144 10.0815L27.4078 10.0459L26.7615 9.83962C26.2643 9.68788 25.7648 9.55986 25.2629 9.45554L24.8936 9.38441C24.3254 9.27795 23.7515 9.20433 23.1748 9.16392H23.0115C22.4906 9.13547 21.9651 9.13547 21.4348 9.16392C19.8596 9.23083 18.4636 10.1998 17.8481 11.6534V11.7031C16.6595 14.6925 15.987 17.8625 15.8594 21.0776Z" fill="#EDEDED"/>
<path d="M23.7536 26.3311C25.6217 28.2946 26.1084 32.0928 25.449 35.4285C27.0189 34.6022 28.6751 33.9123 30.0095 34.1321C30.159 34.1547 30.3061 34.1902 30.449 34.2383L30.2999 33.9123C28.9854 31.2886 27.4852 28.7556 25.8101 26.3311L23.7143 26.2856L23.7536 26.3311Z" fill="#EDEDED"/>
<path d="M23.7143 9.14489C25.9324 11.8742 27.2244 15.5538 27.3248 19.4283C28.3959 16.6427 28.6847 12.7445 27.066 9.95143C26.0079 9.3892 24.8651 9.11421 23.7143 9.14489Z" fill="#FFD9AB"/>
<path opacity="0.07" d="M15.8595 21.0168C15.8261 21.7836 16.1659 22.518 16.7681 22.9806C17.8541 23.8079 19.0927 24.4045 20.41 24.735C21.9218 25.105 23.4824 25.2245 25.0316 25.0888C25.9975 25.02 26.8245 24.3592 27.1188 23.421L29.3266 17.3346V17.2552L29.2911 17.3635C28.0558 17.2552 26.565 17.0242 25.6847 17.0242C24.869 15.0769 23.7837 13.2584 22.4617 11.6236L17.8543 11.4287V11.4793C16.6614 14.5201 15.9868 17.7454 15.8595 21.0168Z" fill="#1D1D1B"/>
<path d="M30.449 17.2011H30.7088C31.2048 17.1488 31.704 17.1319 32.2024 17.1502C34.0352 17.218 35.8583 17.3778 37.6719 17.6297C37.9066 17.6226 38.13 17.731 38.2708 17.9202C38.3157 18.019 38.3179 18.1322 38.2769 18.2327C38.2359 18.3332 38.1553 18.4121 38.0543 18.4505C38.3573 18.4505 38.5233 19.3367 37.7224 19.4166C37.6057 19.8899 37.157 20.2014 36.6761 20.1431C36.425 20.45 36.0368 20.6085 35.6443 20.5644C35.1247 20.5644 34.4176 20.4481 33.9197 20.4627C33.3069 20.446 32.7055 20.2922 32.1591 20.0123C31.9003 19.7951 31.6306 19.5914 31.351 19.4021C31.0666 19.2771 30.7482 19.254 30.449 19.3367V17.2519V17.2011Z" fill="#FFD9AB"/>
<path d="M34.8911 16.6329C34.7833 16.8613 34.634 17.0572 34.4543 17.2056C34.1478 17.5232 33.8129 17.7986 33.4559 18.0268C33.0966 18.2578 32.6838 18.3373 32.2828 18.2529C31.9658 18.1871 31.698 17.9318 31.5715 17.5748C32.1456 17.3939 32.7175 17.1955 33.2875 16.9795C33.6479 16.8798 33.981 16.6696 34.2546 16.3692C34.3524 16.1659 34.5232 16.0293 34.7164 16C34.8231 16.0316 34.9054 16.134 34.9285 16.2637C34.9504 16.3884 34.9372 16.5183 34.8911 16.6329Z" fill="#FFD9AB"/>
<path d="M22.6996 21.6022L31.5024 22.8571C31.3905 21.1414 31.4136 19.4189 31.5715 17.7072L25.3577 17.8595L23.176 12.4122C21.7399 8.39387 16.6654 10.6642 18.495 14.3126L21.6778 20.8406C21.8774 21.2565 22.26 21.5417 22.6996 21.6022Z" fill="#EDEDED"/>
<path opacity="0.07" d="M22.7241 19.8562C24.3728 21.4911 28.7742 21.8979 31.3405 19.8562C33.2168 20.617 35.2599 20.7055 37.1837 20.1095C36.9702 20.4166 36.6355 20.5885 36.2869 20.57C36.0468 20.8943 35.6757 21.0618 35.3004 21.0152C34.8037 21.0152 34.1276 20.8924 33.6516 20.9077C33.0657 20.8902 32.4907 20.7276 31.9683 20.4319C31.7733 20.2784 31.5889 20.1091 31.4164 19.9253C31.4164 20.8003 31.4509 21.6216 31.4785 22.8573L22.6827 21.5294C22.253 21.4711 21.8751 21.1852 21.6686 20.7619L18.4883 13.8541C18.0984 13.123 17.9985 12.2448 18.2123 11.4287C19.8887 14.1535 20.5579 17.7148 22.7241 19.8562Z" fill="#1D1D1B"/>
<path d="M26.9975 6.23877C26.9975 6.23877 26.7505 9.34689 27.0817 10.2806C27.0817 10.3573 24.0286 9.56433 23.7143 9.07828V5.71436L24.3541 5.88703L24.9153 5.96377L25.2801 6.01493L26.9975 6.23877Z" fill="#FFD9AB"/>
<path opacity="0.05" d="M24.919 9.04021C24.9795 9.19329 25.1086 9.321 25.2794 9.39672C26.0526 9.74839 26.8782 10.0134 27.7348 10.1848C28.2535 10.3082 28.8015 10.3189 29.3266 10.216C29.0112 10.0993 28.6984 9.99089 28.388 9.89082L27.6372 9.6594C28.0956 9.66441 28.4973 9.40498 28.6058 9.03396L27.3518 7.00127L27.2617 6.85742L25.1968 7.28272C25.1159 7.43556 25.0457 7.59218 24.9866 7.7518C24.8133 8.16653 24.7898 8.61448 24.919 9.04021Z" fill="#1D1D1B"/>
<path d="M22.94 6.3656C23.0028 6.50146 23.076 6.63339 23.1589 6.7605C23.1589 6.7605 25.0646 6.93282 25.0728 6.93282C25.0728 7.44259 25.1133 7.83031 25.1214 8.13186C25.0305 8.5149 25.1475 8.91354 25.4377 9.20885C25.965 9.54066 26.5304 9.82224 27.1244 10.0489L27.3191 10.1279C27.4938 10.1963 27.6758 10.2492 27.8624 10.2858H27.984C28.4791 10.2916 28.913 9.99377 29.0302 9.56785C29.1455 9.35916 29.243 9.14317 29.3221 8.92165C29.4194 8.656 29.7033 7.82313 29.7033 7.82313C29.914 7.81793 30.1224 7.78152 30.3196 7.71543C30.4233 7.6202 30.4686 7.48647 30.4412 7.35643C30.3358 6.86102 30.1006 6.30098 30.0114 5.84147C30.2155 5.57548 30.3333 5.26508 30.352 4.94398C30.6926 -0.139413 23.2806 0.470881 22.7616 3.30695C22.4854 4.3203 22.5474 5.38283 22.94 6.3656Z" fill="#FFD9AB"/>
<path d="M30.0313 3.13516C27.4972 2.87223 26.7843 3.07142 26.699 5.29443C26.2883 5.29443 25.5056 5.20678 25.5056 6.09121C25.4956 6.21241 25.4748 6.33242 25.4436 6.44976C25.4436 6.62505 25.3816 6.79237 25.3429 6.93579C25.2573 7.31954 25.0154 7.64692 24.6787 7.83448C24.342 8.02204 23.9432 8.05168 23.5838 7.91583C22.9406 7.78834 22.6848 5.68485 22.6616 5.01556C22.5686 4.29097 22.5686 3.55697 22.6616 2.83239C22.7383 1.85359 23.3345 0.998402 24.2115 0.609377C25.1338 0.0924556 26.1942 -0.103234 27.2338 0.0516328C28.7372 0.234892 29.7523 0.800604 30.2561 1.80454C30.5428 2.29058 30.5428 3.18297 30.0313 3.13516Z" fill="#3C3C3B"/>
<path d="M24.8477 5.44813C24.7891 6.20004 24.9649 7.07225 25.4208 6.80908C25.7458 6.55442 25.937 6.12708 25.9287 5.6737C26.0382 5.23545 25.8446 4.77226 25.4794 4.59848C25.1538 4.46313 24.8998 4.84661 24.8477 5.44813Z" fill="#FFD9AB"/>
</g>
<defs>
<clipPath id="clip0">
<rect width="56" height="56" fill="white"/>
</clipPath>
</defs>
</svg>
