<svg width="56" height="56" viewBox="0 0 56 56" fill="none" xmlns="http://www.w3.org/2000/svg">
<g clip-path="url(#clip0)">
<path d="M18.8167 34.6241C18.8167 34.6241 24.1753 27.7322 27.366 25.96L25.0343 25.0542C25.0343 25.0542 22.3755 26.1569 21.5983 26.9052C20.821 27.6534 17.8349 33.3245 17.8349 34.7422L18.8167 34.6241Z" fill="#8FAAB5"/>
<path d="M18.653 34.4668L18.8576 35.3726L18.0803 35.412L17.9167 34.6243L18.653 34.4668Z" fill="#FFB884"/>
<path d="M18.5712 34.4665C18.7348 34.309 18.9393 34.2302 18.9802 34.4665C19.0212 34.7028 19.0621 35.4905 18.8166 35.6086C18.653 35.7661 18.203 34.8997 18.5712 34.4665Z" fill="#227F98"/>
<path d="M17.6714 34.4269C17.8351 34.3481 18.1623 34.7813 18.4077 35.1357L19.0213 35.057C19.4304 36.0809 21.8847 35.8446 22.1711 36.0021C22.7847 36.2778 22.8665 37.1836 22.7029 37.3411L18.1623 37.0655C18.1623 37.0261 17.3851 34.545 17.6714 34.4269Z" fill="#2D9AB4"/>
<path d="M22.0893 35.9629C22.1302 35.9629 22.1302 35.9629 22.1711 36.0023C22.7847 36.278 22.8665 37.1837 22.7029 37.3413L22.0484 37.2625C21.9666 37.1444 22.0893 35.9629 22.0893 35.9629Z" fill="#227F98"/>
<path d="M22.7845 37.0655C22.7845 37.1837 22.7436 37.2625 22.7436 37.3018L18.2031 37.0262C18.2031 37.0262 18.1622 36.908 18.1212 36.7505L22.7845 37.0655Z" fill="#A3D5E0"/>
<path d="M18.2849 36.2783C18.4076 36.4752 18.653 36.5539 18.8166 36.4358C18.9803 36.3176 19.0212 36.0813 18.8576 35.8844C18.7348 35.6875 18.4894 35.6088 18.3258 35.7269C18.1622 35.8057 18.1212 36.0813 18.2849 36.2783Z" fill="#227F98"/>
<path d="M20.2075 36.16C20.2484 36.1994 20.3302 36.2388 20.3711 36.1994C20.412 36.16 20.412 36.0812 20.412 36.0025C20.3711 35.9631 20.2893 35.9237 20.2484 35.9631C20.1665 36.0419 20.1665 36.0812 20.2075 36.16Z" fill="#227F98"/>
<path d="M20.2484 36.1206C20.2893 36.16 20.3302 36.16 20.3711 36.16C20.412 36.1206 20.412 36.0812 20.412 36.0418C20.3711 36.0024 20.3302 36.0024 20.2893 36.0024C20.2075 36.0418 20.2075 36.0812 20.2484 36.1206Z" fill="#16576D"/>
<path d="M19.512 36.0811C19.553 36.1205 19.6348 36.1598 19.6757 36.1205C19.7166 36.0811 19.7575 36.0023 19.7166 35.9629C19.6757 35.9235 19.5939 35.8842 19.553 35.9235C19.4711 35.9235 19.4711 36.0023 19.512 36.0811Z" fill="#227F98"/>
<path d="M19.5529 36.0415C19.5529 36.0809 19.5938 36.0809 19.6347 36.0809C19.6756 36.0415 19.6756 36.0021 19.6756 35.9627C19.6347 35.9233 19.5938 35.9233 19.5529 35.9233C19.512 35.9627 19.512 36.0021 19.5529 36.0415Z" fill="#16576D"/>
<path d="M18.8576 35.6875C18.8985 35.7269 18.9803 35.7663 19.0212 35.7269C19.0621 35.6875 19.103 35.6087 19.0621 35.5694C19.0212 35.53 18.9394 35.4906 18.8985 35.53C18.8167 35.5694 18.8167 35.6481 18.8576 35.6875Z" fill="#227F98"/>
<path d="M18.8987 35.6484C18.9396 35.6878 18.9805 35.6878 19.0214 35.6878C19.0623 35.6484 19.0623 35.609 19.0623 35.5697C19.0214 35.5303 18.9805 35.5303 18.9396 35.5303C18.8987 35.5303 18.8578 35.6484 18.8987 35.6484Z" fill="#16576D"/>
<path d="M18.4894 35.1358C18.6939 35.057 18.8166 34.9783 19.0212 35.057C19.2666 35.6084 20.0438 35.8053 20.7801 35.8841C19.7166 36.1991 18.6121 35.2539 18.4894 35.1358Z" fill="#227F98"/>
<path d="M20.2892 36.1994C20.3302 36.1994 20.3711 36.16 20.3711 36.1206C20.3711 36.0812 20.4529 35.9237 20.5756 35.8843C20.6165 35.8449 20.6574 35.8055 20.6165 35.7661C20.5756 35.7268 20.5347 35.6874 20.4938 35.7268C20.3302 35.8055 20.2074 36.0418 20.2074 36.0812C20.1665 36.1206 20.2074 36.16 20.2892 36.1994C20.2483 36.1994 20.2892 36.1994 20.2892 36.1994Z" fill="#A3D5E0"/>
<path d="M19.5938 36.0813C19.6348 36.0813 19.6757 36.0813 19.6757 36.0419C19.7575 35.9238 19.9211 35.8056 20.0029 35.7662C20.0438 35.7662 20.0847 35.7269 20.0847 35.6481C20.0847 35.6087 20.0438 35.5693 19.962 35.5693C19.7166 35.6087 19.512 35.8844 19.512 35.9238C19.4711 35.9632 19.4711 36.0419 19.5529 36.0419C19.5529 36.0813 19.5938 36.0813 19.5938 36.0813Z" fill="#A3D5E0"/>
<path d="M18.9394 35.7267C18.9803 35.7267 18.9803 35.7267 19.0212 35.6873C19.103 35.6085 19.2666 35.4904 19.3484 35.4904C19.3893 35.4904 19.4302 35.4116 19.4302 35.3722C19.4302 35.3328 19.3893 35.2935 19.3075 35.2935C19.103 35.3328 18.8985 35.5298 18.8985 35.5298C18.8576 35.5691 18.8576 35.6479 18.8985 35.6873C18.8985 35.7267 18.9394 35.7267 18.9394 35.7267Z" fill="#A3D5E0"/>
<path d="M18.0803 36.751L22.7845 37.066L22.7436 36.9085L18.0394 36.6328L18.0803 36.751Z" fill="#227F98"/>
<path d="M10.7991 42.3826L25.3616 42.3432V42.1463L11.0037 42.1857L10.9628 40.3347L25.4025 36.5934L25.3207 36.3965L10.7173 40.2166L10.7991 42.3826Z" fill="#202A35"/>
<path d="M30.4339 11.9399C30.4339 11.9399 31.6202 20.4859 30.0657 20.6828C28.1841 20.9191 26.9569 12.4913 26.9569 12.4913L30.4339 11.9399Z" fill="#225384"/>
<path d="M30.7202 18.4775C30.7202 18.4775 32.6837 19.0683 33.7882 19.8559C34.8926 20.6436 37.8788 22.7308 37.8788 22.7308L37.6742 23.3216C37.6742 23.3216 32.3565 22.1007 29.6158 20.5648L30.7202 18.4775Z" fill="#225384"/>
<path d="M37.8787 22.77C37.8787 22.77 40.0467 23.1245 40.2104 23.6364C40.374 24.1484 38.3696 24.1878 38.1651 23.9515C37.8787 23.6758 37.7151 23.2032 37.7151 23.2032L37.8787 22.77Z" fill="#F1A975"/>
<path d="M40.1695 23.5972C40.1695 23.5972 40.6194 24.5817 40.3331 24.6605C40.0877 24.7393 39.8013 23.9122 39.8013 23.9122L40.1695 23.5972Z" fill="#ECAA3E"/>
<path d="M39.7195 23.9517C39.7195 23.9517 40.1286 24.8968 39.8013 24.8968C39.4741 24.8968 39.2695 24.0304 39.2695 24.0304L39.7195 23.9517Z" fill="#ECAA3E"/>
<path d="M39.2286 24.0698C39.2286 24.0698 39.4332 24.9756 39.2286 25.015C39.0241 25.0544 38.7378 24.0698 38.7378 24.0698H39.2286Z" fill="#ECAA3E"/>
<path d="M38.6559 24.0697C38.6559 24.0697 38.8605 24.9361 38.6969 24.9754C38.5332 25.0148 38.206 24.0303 38.206 24.0303L38.6559 24.0697Z" fill="#ECAA3E"/>
<path d="M21.0665 17.9653C21.0665 17.9653 28.1023 24.3846 27.4887 25.7236C26.8751 27.0626 22.0073 25.6842 16.4441 18.8711L21.0665 17.9653Z" fill="#8FAAB5"/>
<path d="M21.3528 37.2631C21.1483 37.1843 20.9437 37.2631 20.821 37.46L20.7801 37.5388C20.6983 37.7357 20.7801 37.9326 20.9847 38.0507L25.4025 39.9805C25.6888 40.0986 26.0161 40.0198 26.0979 39.8229V39.7836C26.1797 39.5866 26.057 39.311 25.7297 39.1928L21.3528 37.2631Z" fill="#31424F"/>
<path d="M19.6552 37.1587L21.9828 37.2891L21.9449 37.9181L19.6172 37.7878L19.6552 37.1587Z" fill="#31424F"/>
<path d="M19.5121 26.5902L20.2484 26.3539L18.8985 23.1245L18.2031 23.4002L19.5121 26.5902Z" fill="#31424F"/>
<path d="M23.0709 37.6961C24.2162 36.1995 26.2206 35.7663 27.5296 36.7115C28.8386 37.6567 28.9613 39.6258 27.8159 41.1223C26.6706 42.6189 24.6662 43.0521 23.3572 42.1069C22.0482 41.1617 21.9255 39.1926 23.0709 37.6961ZM26.3433 40.571C26.3433 40.571 27.2432 40.1378 27.0796 39.1138C27.0796 39.1138 25.198 38.8382 26.3433 40.571ZM26.9978 38.3262C26.9978 38.3262 26.5069 37.4598 25.4434 37.6567C25.4434 37.6567 25.2389 39.4683 26.9978 38.3262ZM25.6888 41.0829C25.6888 41.0829 25.6479 39.2714 24.0526 40.6497C24.0526 40.6104 24.6662 41.4374 25.6888 41.0829ZM24.5844 38.1687C24.5844 38.1687 23.6435 38.5625 23.8072 39.6258C23.8072 39.6258 25.6888 39.9409 24.5844 38.1687Z" fill="#31424F"/>
<path d="M23.1936 37.7751C24.298 36.3573 26.1797 35.9635 27.4069 36.8299C28.634 37.7357 28.7568 39.5866 27.6932 41.0044C26.5887 42.4222 24.7071 42.816 23.4799 41.9496C22.2118 41.0438 22.0891 39.1928 23.1936 37.7751ZM26.3433 40.5712C26.3433 40.5712 27.2432 40.138 27.0796 39.114C27.0796 39.114 25.198 38.8384 26.3433 40.5712ZM26.9978 38.3264C26.9978 38.3264 26.5069 37.46 25.4434 37.6569C25.4434 37.6569 25.2389 39.4685 26.9978 38.3264ZM25.6888 41.0832C25.6888 41.0832 25.6479 39.2716 24.0526 40.65C24.0526 40.6106 24.6662 41.4376 25.6888 41.0832ZM24.5844 38.1689C24.5844 38.1689 23.6435 38.5627 23.8072 39.626C23.8072 39.626 25.6888 39.9411 24.5844 38.1689Z" fill="#EFC997"/>
<path d="M23.9708 38.3262C24.7071 37.3811 25.9343 37.1054 26.7524 37.6961C27.5705 38.2868 27.6523 39.5077 26.916 40.4529C26.1797 41.398 24.9525 41.6737 24.1344 41.083C23.3163 40.4923 23.2345 39.2714 23.9708 38.3262ZM24.5844 38.1687C24.5844 38.1687 23.6435 38.5625 23.8072 39.6258C23.8072 39.6258 25.6888 39.9409 24.5844 38.1687ZM26.3433 40.571C26.3433 40.571 27.2433 40.1378 27.0796 39.1139C27.0796 39.1139 25.198 38.8382 26.3433 40.571ZM26.9978 38.3262C26.9978 38.3262 26.5069 37.4598 25.4434 37.6567C25.4434 37.6567 25.2389 39.4683 26.9978 38.3262ZM25.6888 41.083C25.6888 41.083 25.6479 39.2714 24.0526 40.6498C24.0526 40.6104 24.6662 41.4374 25.6888 41.083Z" fill="#31424F"/>
<path d="M24.7889 38.9169C24.4616 39.3108 24.5026 39.8621 24.8707 40.0984C25.2389 40.3347 25.7706 40.2165 26.057 39.8227C26.3842 39.4289 26.3433 38.8776 25.9752 38.6413C25.6479 38.405 25.1161 38.5231 24.7889 38.9169Z" fill="#31424F"/>
<path d="M28.8795 41.5552C29.084 41.634 29.2885 41.5159 29.3703 41.319C29.4522 41.122 29.4113 40.8857 29.2067 40.807L25.7297 39.3105C25.4843 39.2317 25.2389 39.3105 25.1571 39.5074V39.5468C25.0752 39.7437 25.1571 40.0193 25.4025 40.0981L28.8795 41.5552Z" fill="#31424F"/>
<path d="M40.9467 47.5809C40.8649 47.5809 40.783 47.5809 40.7012 47.5809L42.9511 37.5384L36.2834 45.9662C36.2016 45.9268 36.1607 45.8874 36.0789 45.8087L42.7465 37.4203L33.5018 42.5006C33.4609 42.4218 33.42 42.343 33.42 42.2643L42.6238 37.2234L32.7655 38.4048C32.7655 38.3261 32.7655 38.2473 32.7655 38.1685L42.5011 36.9871L33.3791 34.9786C33.42 34.8998 33.42 34.821 33.4609 34.7423L42.7056 36.7508L35.3835 31.2766C35.4244 31.1979 35.5062 31.1585 35.5471 31.0797L42.7465 36.5145L37.8787 28.8743C37.9605 28.8349 38.0015 28.7562 38.0833 28.7168L42.9511 36.3963L41.1103 27.1021C41.1921 27.0627 41.2739 27.0627 41.3557 27.0234L43.1965 36.3963L45.4463 26.4326C45.5281 26.4326 45.6099 26.4326 45.6917 26.4326L43.4419 36.4751L50.1505 28.0867C50.2323 28.1261 50.2732 28.1654 50.355 28.2442L43.6874 36.6326L52.9321 31.5523C52.973 31.6311 53.0139 31.7098 53.0139 31.7886L43.8101 36.8689L53.6684 35.6874C53.6684 35.7662 53.6684 35.845 53.6684 35.9237L43.9328 37.1052L53.0548 39.0349C53.0139 39.1137 53.0139 39.1925 52.973 39.2712L43.7692 37.2627L51.0913 42.7369C51.0504 42.8156 50.9686 42.855 50.9277 42.9338L43.7283 37.5384L48.596 45.1786C48.5142 45.2179 48.4733 45.2967 48.3915 45.3361L43.4828 37.6566L45.3236 46.9508C45.2418 46.9901 45.16 46.9901 45.0782 47.0295L43.2374 37.6566L40.9467 47.5809Z" fill="#202A35"/>
<path d="M34.9335 31.0799C38.9832 25.8814 45.9372 24.3455 50.5186 27.6142C55.1001 30.8829 55.55 37.7748 51.5004 42.9733C47.4507 48.1717 40.4967 49.7077 35.9153 46.4389C31.3338 43.1308 30.9248 36.2783 34.9335 31.0799ZM36.897 45.1787C40.8649 48.0142 46.9189 46.6752 50.3959 42.1856C53.8729 37.6567 53.5047 31.71 49.5369 28.8744C45.569 26.0389 39.515 27.3779 36.038 31.8675C32.561 36.3571 32.9291 42.3432 36.897 45.1787Z" fill="#31424F"/>
<path d="M40.9876 35.4116C39.924 36.79 40.0058 38.641 41.233 39.5074C42.4602 40.3738 44.3419 39.98 45.4054 38.5622C46.469 37.1838 46.3871 35.3329 45.16 34.4665C43.9328 33.6394 42.092 34.0333 40.9876 35.4116Z" fill="#31424F"/>
<path d="M35.7516 31.6315C39.3923 26.945 45.6917 25.5273 49.8232 28.5203C53.9547 31.5134 54.3229 37.6964 50.6822 42.3829C47.0416 47.0693 40.7421 48.4871 36.6107 45.4941C32.5201 42.5404 32.111 36.3574 35.7516 31.6315ZM36.897 45.179C40.8649 48.0145 46.9189 46.6755 50.3959 42.1859C53.8729 37.657 53.5047 31.7103 49.5369 28.8747C45.569 26.0392 39.515 27.3782 36.038 31.8678C32.561 36.3574 32.9291 42.3435 36.897 45.179Z" fill="#202A35"/>
<path d="M41.8057 36.0025C41.1103 36.9083 41.1921 38.0898 41.9693 38.6411C42.7465 39.1925 43.9737 38.9562 44.6691 38.0504C45.3645 37.1446 45.2827 35.9631 44.5055 35.4118C43.6874 34.821 42.5011 35.0967 41.8057 36.0025Z" fill="#202A35"/>
<path d="M42.6238 36.5932C42.3375 36.987 42.3375 37.499 42.7056 37.7353C43.0329 37.9716 43.5646 37.8534 43.851 37.4596C44.1373 37.0658 44.1373 36.5538 43.7692 36.3175C43.4419 36.0812 42.9101 36.1994 42.6238 36.5932Z" fill="#31424F"/>
<path d="M8.79476 51.8343C8.71295 51.8343 8.63114 51.8343 8.54932 51.8343L10.7991 41.7918L4.1315 50.2196C4.04969 50.1802 4.00878 50.1409 3.92697 50.0621L10.5946 41.6343L1.34991 46.7146C1.309 46.6358 1.2681 46.5571 1.2681 46.4783L10.4719 41.398L0.613609 42.5795C0.613609 42.5007 0.613609 42.4219 0.613609 42.3432L10.3492 41.1617L1.18629 39.232C1.22719 39.1532 1.22719 39.0745 1.2681 38.9957L10.5128 41.0042L3.23158 35.5694C3.27248 35.4907 3.35429 35.4513 3.3952 35.3725L10.5946 40.7285L5.72683 33.0884C5.80864 33.049 5.84954 32.9702 5.93136 32.9308L10.7991 40.6104L8.95838 31.3555C9.04019 31.3161 9.122 31.3162 9.20382 31.2768L11.0446 40.6497L13.2944 30.686C13.3762 30.686 13.458 30.686 13.5398 30.686L11.29 40.7285L17.9986 32.3007C18.0804 32.3401 18.1213 32.3795 18.2031 32.4582L11.5354 40.8467L20.7801 35.7663C20.8211 35.8451 20.862 35.9239 20.862 36.0026L11.6582 41.0829L21.5164 39.9015C21.5164 39.9802 21.5164 40.059 21.5164 40.1378L11.7809 41.3192L20.9029 43.3277C20.862 43.4065 20.862 43.4853 20.8211 43.564L11.5764 41.5555L18.8985 47.0297C18.8576 47.1084 18.7758 47.1478 18.7349 47.2266L11.5354 41.8312L16.4032 49.4714C16.3214 49.5107 16.2805 49.5895 16.1987 49.6289L11.3309 41.9494L13.1717 51.2436C13.0899 51.2829 13.0081 51.2829 12.9262 51.3223L11.0855 41.9494L8.79476 51.8343Z" fill="#202A35"/>
<path d="M2.7816 35.2937C6.83128 30.0953 13.7853 28.5594 18.3667 31.8281C22.9482 35.0968 23.3981 41.9887 19.3484 47.1872C15.2988 52.3856 8.34479 53.9215 3.76335 50.6528C-0.8181 47.3841 -1.26807 40.4922 2.7816 35.2937ZM4.70418 49.4319C8.67204 52.2675 14.7261 50.9285 18.2031 46.4389C21.6801 41.9099 21.3119 35.9632 17.3441 33.1277C13.3762 30.2922 7.32215 31.6312 3.84516 36.1207C0.368166 40.6103 0.736317 46.557 4.70418 49.4319Z" fill="#31424F"/>
<path d="M8.83565 39.6652C7.7721 41.0436 7.85392 42.8945 9.08109 43.7609C10.3083 44.6274 12.1899 44.2335 13.2535 42.8158C14.317 41.4374 14.2352 39.5864 13.008 38.72C11.7809 37.8536 9.8992 38.2474 8.83565 39.6652Z" fill="#31424F"/>
<path d="M3.55884 35.8844C7.19945 31.1979 13.4989 29.7802 17.6304 32.7732C21.7619 35.7269 22.171 41.9493 18.5303 46.6358C14.8897 51.3223 8.59025 52.74 4.45876 49.747C0.327278 46.7933 -0.0817776 40.5709 3.55884 35.8844ZM4.7042 49.4319C8.67206 52.2674 14.7261 50.9284 18.2031 46.4389C21.6801 41.9099 21.3119 35.9632 17.3441 33.1277C13.3762 30.2921 7.32217 31.6311 3.84517 36.1207C0.368185 40.6103 0.736336 46.557 4.7042 49.4319Z" fill="#202A35"/>
<path d="M9.61288 40.2165C8.91748 41.1223 8.99929 42.3038 9.7765 42.8551C10.5537 43.4065 11.7809 43.1702 12.4763 42.2644C13.1717 41.3586 13.0899 40.1771 12.3127 39.6258C11.5354 39.0744 10.3083 39.3107 9.61288 40.2165Z" fill="#202A35"/>
<path d="M10.1856 40.6497C9.77651 41.201 9.81741 41.9099 10.2674 42.2249C10.7582 42.5794 11.4536 42.4219 11.8627 41.8705C12.2718 41.3192 12.2309 40.6103 11.7809 40.2952C11.3309 39.9408 10.5946 40.0983 10.1856 40.6497Z" fill="#EFC997"/>
<path d="M43.5237 36.7901C43.5237 36.7901 39.065 29.3863 36.2425 21.7461L35.179 22.1793C35.179 22.1793 38.0424 28.5986 42.7874 37.1839C43.1147 37.6565 43.8101 37.3021 43.5237 36.7901Z" fill="#718D9E"/>
<path d="M36.8277 23.9077L37.0675 24.8647L20.4857 28.7158L20.2459 27.7587L36.8277 23.9077Z" fill="#718D9E"/>
<path d="M25.3718 38.9369L25.5125 39.9121L10.9668 41.8575L10.8261 40.8823L25.3718 38.9369Z" fill="#718D9E"/>
<path d="M25.8115 39.6652L37.7151 26.3934L37.1015 25.5664L24.9116 39.1927C24.7889 39.3896 24.8298 39.6259 25.1161 39.8228C25.3616 39.9803 25.6888 39.9015 25.8115 39.6652Z" fill="#718D9E"/>
<path d="M11.3309 41.595L20.8619 28.5201L20.0029 27.9688L10.3901 41.1224C10.3083 41.3193 10.3492 41.5556 10.6355 41.7525C10.9218 41.9101 11.2082 41.8707 11.3309 41.595Z" fill="#718D9E"/>
<path d="M25.8524 39.0742L19.6348 24.4634L18.653 24.8178L24.9525 39.5074C25.0752 39.7831 25.3207 39.9012 25.607 39.7831C25.8934 39.7043 26.0161 39.3499 25.8524 39.0742Z" fill="#718D9E"/>
<path d="M10.7582 41.0437C10.6355 41.2012 10.6355 41.4375 10.7991 41.5557C10.9628 41.6738 11.1673 41.595 11.29 41.4375C11.4127 41.28 11.4127 41.0437 11.2491 40.9255C11.0855 40.8074 10.8809 40.8862 10.7582 41.0437Z" fill="#31424F"/>
<path d="M25.1571 39.1531C25.0343 39.3106 25.0343 39.5469 25.198 39.665C25.3616 39.7832 25.5661 39.7044 25.6888 39.5469C25.8115 39.3894 25.8115 39.1531 25.6479 39.0349C25.4843 38.9168 25.2798 38.9955 25.1571 39.1531Z" fill="#31424F"/>
<path d="M42.992 36.8691C42.8692 37.0267 42.9102 37.1842 43.0329 37.263C43.1556 37.3417 43.3601 37.3023 43.4419 37.1842C43.5646 37.0267 43.5237 36.8691 43.401 36.7904C43.2783 36.6722 43.1147 36.7116 42.992 36.8691Z" fill="#31424F"/>
<path d="M36.038 21.0767C36.038 21.0767 36.5288 22.2975 36.7334 22.8095L35.5471 23.2033C35.5471 23.2033 35.0562 21.8249 34.8926 21.4705L36.038 21.0767Z" fill="#31424F"/>
<path d="M35.5062 23.3217L36.8152 22.8885L36.7334 22.731L35.4653 23.1642L35.5062 23.3217Z" fill="#31424F"/>
<path d="M35.0153 21.5098C35.0153 21.5098 34.4017 20.2102 34.729 20.0133C35.0971 19.8164 36.8561 19.6982 36.8561 19.6982L37.1015 20.4071C37.1015 20.4071 35.8743 20.4859 35.7925 20.604C35.7107 20.7222 35.9971 21.2341 35.9971 21.2341L35.0153 21.5098Z" fill="#31424F"/>
<path d="M36.3652 20.6435L37.2651 20.5254L37.306 19.5015L36.4061 19.6196L36.3652 20.6435Z" fill="#31424F"/>
<path d="M38.2469 24.818L40.4149 24.5423C40.4558 24.5423 41.7239 24.4635 42.5011 23.5971C42.9102 23.0852 43.0738 22.4551 42.992 21.7068C42.8693 20.9585 42.542 20.3678 42.0102 19.974C41.0285 19.2651 39.7604 19.4226 39.7195 19.462L36.8152 19.7377L36.897 20.5253L39.8013 20.2496C40.0468 20.2103 41.9284 20.0134 42.1739 21.8249C42.2557 22.3763 42.1329 22.8095 41.8875 23.1245C41.3557 23.7153 40.374 23.794 40.374 23.794L38.1651 24.0697L38.2469 24.818Z" fill="#31424F"/>
<path d="M40.9467 23.991C41.0694 24.306 41.233 24.5423 41.3148 24.5423C41.3966 24.5029 41.3557 24.2272 41.233 23.9122C41.1103 23.5971 40.9467 23.3608 40.8649 23.3608C40.783 23.4002 40.824 23.6759 40.9467 23.991Z" fill="#31424F"/>
<path d="M38.0424 24.4636C38.0833 24.8181 38.206 25.0543 38.2469 25.0543C38.3287 25.0543 38.3287 24.7787 38.2878 24.4242C38.2469 24.0698 38.1242 23.8335 38.0833 23.8335C38.0424 23.8335 38.0015 24.1486 38.0424 24.4636Z" fill="#31424F"/>
<path d="M38.2469 24.9363C38.2469 24.9363 39.7604 24.7788 40.374 24.6606C40.824 24.5819 41.2739 24.4243 41.2739 24.4243L40.9058 23.5186C40.9058 23.5186 40.7012 23.5973 40.2513 23.6761C39.5968 23.7548 38.0833 23.9518 38.0833 23.9518L38.2469 24.9363Z" fill="#31424F"/>
<path d="M18.8985 23.1245L18.1622 22.77L17.0577 22.9275L18.244 23.5183L18.8985 23.1245Z" fill="#31424F"/>
<path d="M21.8846 22.3371L15.0942 23.2429C15.0942 23.2429 14.1534 22.1009 15.2169 21.9433C16.2805 21.7464 22.4982 21.4707 21.8846 22.3371Z" fill="#31424F"/>
<path d="M16.5668 23.2426C17.794 23.2426 19.8393 22.6518 19.962 22.6124L19.9211 22.4155C19.8802 22.4155 16.8532 23.2819 16.035 22.9275L15.9532 23.1244C16.076 23.2032 16.2805 23.2426 16.5668 23.2426Z" fill="#31424F"/>
<path d="M27.9136 41.148L30.2427 41.2544L30.2117 41.8838L27.8826 41.7774L27.9136 41.148Z" fill="#31424F"/>
<path d="M27.5705 39.1529C27.5705 39.1529 27.0387 31.7884 27.6523 28.6772C27.6523 28.6772 28.3068 26.4718 27.2432 25.7235C27.2432 25.7235 23.2754 21.4309 19.103 17.217C19.103 17.217 15.9533 16.705 15.0942 17.7683C15.0942 17.7683 14.6034 18.9498 14.9715 20.0525C15.9942 23.0061 24.1344 26.9838 24.3798 27.5351C24.6253 28.0865 23.889 29.5436 23.889 30.6463C23.889 32.2216 26.9978 39.4285 26.9978 39.4285L27.5705 39.1529Z" fill="#9AB4C1"/>
<path d="M27.4887 38.5229L27.6932 39.4287L26.9569 39.5075L26.7524 38.7199L27.4887 38.5229Z" fill="#FFB884"/>
<path d="M27.4069 38.5622C27.5705 38.4047 27.775 38.3259 27.8159 38.5622C27.8568 38.7985 27.8977 39.5862 27.6932 39.7437C27.4887 39.8224 27.0387 38.9954 27.4069 38.5622Z" fill="#2F8CA5"/>
<path d="M26.5069 38.4832C26.7115 38.4438 26.9978 38.8376 27.2432 39.2315L27.8568 39.1527C28.3068 40.1766 30.7202 39.9403 31.0066 40.0585C31.6202 40.3342 31.702 41.24 31.5793 41.3581L27.0387 41.1218C26.9978 41.1218 26.2206 38.6013 26.5069 38.4832Z" fill="#3AA7C1"/>
<path d="M30.9248 40.0195C30.9657 40.0195 30.9657 40.0195 31.0066 40.0589C31.6202 40.3346 31.702 41.2404 31.5793 41.3585L30.9248 41.3191C30.843 41.1616 30.9248 40.0195 30.9248 40.0195Z" fill="#2F8CA5"/>
<path d="M31.6203 41.0828C31.6203 41.201 31.6203 41.2797 31.5794 41.3191L27.0389 41.0828C27.0389 41.0828 26.998 40.9647 26.957 40.8071L31.6203 41.0828Z" fill="#B0E2ED"/>
<path d="M27.1205 40.3344C27.2432 40.5313 27.4887 40.6101 27.6523 40.4919C27.8159 40.3738 27.8159 40.1375 27.6932 39.9406C27.5705 39.7437 27.3251 39.6649 27.1614 39.783C26.9978 39.9012 26.9978 40.1375 27.1205 40.3344Z" fill="#2F8CA5"/>
<path d="M29.0431 40.2168C29.084 40.2562 29.1658 40.2956 29.2067 40.2562C29.2476 40.2168 29.2885 40.138 29.2476 40.0987C29.2067 40.0593 29.1249 40.0199 29.084 40.0593C29.0022 40.0987 29.0022 40.138 29.0431 40.2168Z" fill="#2F8CA5"/>
<path d="M29.0828 40.177C29.1237 40.2164 29.1646 40.2164 29.2055 40.177C29.2464 40.1376 29.2464 40.0982 29.2055 40.0588C29.1646 40.0195 29.1237 40.0195 29.0828 40.0588C29.0828 40.0982 29.0419 40.1376 29.0828 40.177Z" fill="#23647A"/>
<path d="M28.3477 40.1377C28.3886 40.1771 28.4704 40.2165 28.5113 40.1771C28.5522 40.1377 28.5931 40.0589 28.5522 40.0196C28.5113 39.9802 28.4295 39.9408 28.3886 39.9802C28.3068 40.0196 28.3068 40.0589 28.3477 40.1377Z" fill="#2F8CA5"/>
<path d="M28.3874 40.0979C28.4283 40.1373 28.4692 40.1373 28.5101 40.0979C28.551 40.0585 28.551 40.0191 28.5101 39.9797C28.4692 39.9403 28.4283 39.9403 28.3874 39.9797C28.3874 40.0191 28.3465 40.0585 28.3874 40.0979Z" fill="#23647A"/>
<path d="M27.6932 39.7437C27.7341 39.783 27.8159 39.8224 27.8568 39.783C27.8977 39.7437 27.9386 39.6649 27.8977 39.6255C27.8568 39.5861 27.775 39.5468 27.7341 39.5861C27.6932 39.6255 27.6523 39.7043 27.6932 39.7437Z" fill="#2F8CA5"/>
<path d="M27.7346 39.7436C27.7755 39.783 27.8164 39.783 27.8573 39.7436C27.8982 39.7043 27.8982 39.6649 27.8573 39.6255H27.7755C27.7346 39.6649 27.6937 39.7043 27.7346 39.7436Z" fill="#23647A"/>
<path d="M27.3251 39.1924C27.5296 39.1136 27.6523 39.0742 27.8569 39.1136C28.1023 39.6649 28.8795 39.8619 29.6158 39.9012C28.5522 40.2557 27.4478 39.3105 27.3251 39.1924Z" fill="#2F8CA5"/>
<path d="M29.1249 40.2555C29.1658 40.2555 29.2067 40.2161 29.2067 40.1767C29.2067 40.1374 29.2885 39.9798 29.3703 39.9404C29.4112 39.9011 29.4522 39.8617 29.4112 39.8223C29.3703 39.7829 29.3294 39.7435 29.2885 39.7829C29.1249 39.8617 29.0022 40.098 29.0022 40.1374C29.0022 40.1767 29.0431 40.2161 29.1249 40.2555Z" fill="#B0E2ED"/>
<path d="M28.4704 40.177C28.5113 40.177 28.5522 40.177 28.5522 40.1376C28.634 40.0195 28.7568 39.9013 28.8795 39.8619C28.9204 39.8619 28.9613 39.8226 28.9613 39.7438C28.9613 39.7044 28.9204 39.665 28.8386 39.665C28.634 39.7044 28.3886 39.9801 28.3886 40.0195C28.3477 40.0589 28.3477 40.1376 28.4295 40.1376C28.3886 40.1376 28.4295 40.177 28.4704 40.177Z" fill="#B0E2ED"/>
<path d="M27.8159 39.7828C27.8568 39.7828 27.8568 39.7828 27.8977 39.7434C27.9796 39.6647 28.1023 39.5465 28.225 39.5465C28.2659 39.5465 28.3068 39.4678 28.3068 39.4284C28.3068 39.389 28.225 39.3496 28.1841 39.3496C27.9795 39.389 27.775 39.5859 27.775 39.5859C27.7341 39.6253 27.7341 39.704 27.775 39.7434C27.7341 39.7828 27.775 39.7828 27.8159 39.7828Z" fill="#B0E2ED"/>
<path d="M26.9161 40.8467L31.6203 41.083V40.9648L26.9161 40.7285V40.8467Z" fill="#2F8CA5"/>
<path d="M31.1293 8.39551C31.1293 8.39551 30.1885 9.85265 29.0022 9.89203C29.0022 9.89203 30.1476 12.3731 31.1293 11.9005C31.1293 11.9005 31.5383 11.1523 32.1928 10.8766L31.1293 8.39551Z" fill="#F1A975"/>
<path d="M30.5157 7.96253C30.9248 10.798 33.3791 11.8614 34.1563 11.6251C34.6063 11.4675 35.8744 9.38029 35.6698 7.25365C35.4653 5.12701 34.3609 3.78801 32.8883 3.90616C31.4156 4.0243 30.3521 5.83589 30.5157 7.96253Z" fill="#FFB884"/>
<path d="M28.7977 9.77382L30.1476 9.06494C30.1476 9.06494 30.5157 10.3646 31.4565 11.546L31.0475 12.5306C31.0475 12.5306 30.1885 12.2943 28.7977 9.77382Z" fill="#295282"/>
<path d="M20.7801 19.7374C20.7801 19.7374 21.8437 18.5166 21.8028 17.8864L16.2805 15.9961C16.2805 15.9961 15.2578 16.8625 14.8897 18.1621L20.7801 19.7374Z" fill="#9AB4C1"/>
<path opacity="0.3" d="M21.9255 18.7529L22.2937 19.1073C22.2937 19.1073 22.13 19.5011 21.5983 19.8556L21.4346 19.698C21.4346 19.698 16.2396 18.6347 15.7487 16.4687L16.2805 15.9961L21.9255 18.7529Z" fill="#8FAAB5"/>
<path d="M16.2805 15.9965C16.2805 15.9965 19.8802 18.4382 21.8846 18.7533C23.6844 18.517 33.5427 15.4452 30.5157 10.3648C27.4478 7.64747 15.7896 13.5154 16.2805 15.9965Z" fill="#295282"/>
<path opacity="0.2" d="M16.8532 14.6575C17.344 15.4057 18.5712 16.4297 21.6392 16.9023C25.5252 17.493 29.4522 13.7517 31.0884 11.9795C31.4974 16.0752 23.4799 18.5563 21.8846 18.7532C19.8802 18.4382 16.2805 15.9965 16.2805 15.9965C16.1987 15.6027 16.4441 15.1301 16.8532 14.6575Z" fill="#295282"/>
<path d="M26.8751 12.7672C27.0387 13.9093 27.8568 14.7363 28.6749 14.6182C29.4931 14.5 30.5157 13.3579 30.3521 12.2158C30.1885 11.0738 28.9204 10.3649 28.1023 10.483C27.2841 10.6012 26.7115 11.6251 26.8751 12.7672Z" fill="#2F6091"/>
<path d="M30.3521 12.2158C30.3521 12.2158 31.5384 20.7618 29.9839 20.9587C28.1023 21.195 26.8751 12.7672 26.8751 12.7672L30.3521 12.2158Z" fill="#2F6091"/>
<path d="M30.6793 18.7529C30.6793 18.7529 32.6428 19.3437 33.7473 20.1313C34.8517 20.919 37.8378 23.0062 37.8378 23.0062L37.6333 23.5969C37.6333 23.5969 32.3156 22.3761 29.5749 20.8402L30.6793 18.7529Z" fill="#2F6091"/>
<path d="M37.7969 23.0459C37.7969 23.0459 39.9649 23.4003 40.1286 23.9123C40.2922 24.4243 38.2878 24.4637 38.0833 24.2274C37.7969 23.9517 37.6333 23.4791 37.6333 23.4791L37.7969 23.0459Z" fill="#FFB884"/>
<path d="M35.7107 7.72602C35.7107 7.92293 35.7107 8.11984 35.6698 8.31675L30.5157 7.96232C30.5157 7.7654 30.5157 7.56849 30.5157 7.37158L35.7107 7.72602Z" fill="#F1A975"/>
<path d="M40.0877 23.8726C40.0877 23.8726 40.5376 24.8571 40.2513 24.9359C40.0058 25.0146 39.7195 24.1876 39.7195 24.1876L40.0877 23.8726Z" fill="#FFB884"/>
<path d="M39.6786 24.2271C39.6786 24.2271 40.0876 25.1722 39.7604 25.1722C39.4331 25.1722 39.2286 24.3058 39.2286 24.3058L39.6786 24.2271Z" fill="#FFB884"/>
<path d="M39.1877 24.3452C39.1877 24.3452 39.3923 25.251 39.1877 25.2904C38.9832 25.3298 38.6969 24.3452 38.6969 24.3452H39.1877Z" fill="#FFB884"/>
<path d="M38.615 24.3455C38.615 24.3455 38.8196 25.2119 38.6559 25.2513C38.4923 25.2907 38.1651 24.3062 38.1651 24.3062L38.615 24.3455Z" fill="#FFB884"/>
<path d="M31.7838 7.37153C31.7838 7.37153 31.702 8.553 30.7202 8.86806C30.7202 8.86806 29.9021 7.8835 29.9839 7.01709L31.7838 7.37153Z" fill="#774419"/>
<path d="M32.3156 8.08043L32.7246 8.11981C32.7246 8.11981 32.9701 7.37155 33.5427 7.29278C34.1154 7.21402 31.4565 7.13525 31.4565 7.13525L32.3156 8.08043Z" fill="#774419"/>
<path d="M31.9474 9.10438C31.9474 9.10438 30.8839 8.74994 30.7611 7.2928L30.3521 7.25342C30.3521 7.25342 30.4339 8.98624 31.9883 9.53759C31.9883 9.53759 32.0292 9.14376 31.9474 9.10438Z" fill="#202A35"/>
<path d="M33.2155 7.52934C33.2155 7.52934 32.6019 9.22278 31.9474 9.14402L31.9883 9.49846C31.9883 9.49846 33.0518 9.34093 33.6654 7.56873C33.6654 7.56873 33.2973 7.37182 33.2155 7.52934Z" fill="#202A35"/>
<path d="M32.1928 9.30142C32.1928 9.30142 32.0292 10.6404 32.561 11.1918C32.561 11.1918 32.3565 11.1524 31.9883 10.9161C31.9883 10.9161 31.6611 10.4435 31.7429 9.22266L32.1928 9.30142Z" fill="#202A35"/>
<path d="M36.447 7.76543L29.7794 7.29284C29.7794 7.29284 28.5522 3.94535 29.2476 3.47277C29.9021 3.03956 33.7882 2.2913 35.6698 4.45732C36.2425 5.20559 36.6107 6.26891 36.447 7.76543Z" fill="#31424F"/>
<path opacity="0.2" d="M29.2476 3.51234C29.3294 3.43358 29.4931 3.39419 29.6976 3.31543C29.6567 4.2606 30.3112 6.30848 36.4879 7.45056C36.4879 7.56871 36.4879 7.68686 36.447 7.80501L29.7794 7.33242C29.7794 7.29304 28.5522 3.94555 29.2476 3.51234Z" fill="#31424F"/>
<path d="M36.4879 7.52923C36.4879 7.60799 36.4879 7.68676 36.447 7.8049L29.7794 7.33232C29.7794 7.33232 29.7385 7.21417 29.6976 7.05664L36.4879 7.52923Z" fill="#202A35"/>
<path d="M30.9248 8.27728C31.0066 8.86802 31.7838 9.22246 32.1519 9.18308C32.5201 9.14369 32.3974 8.67111 32.3156 8.11976C32.2337 7.52902 31.8656 7.1352 31.4565 7.17458C31.0884 7.17458 30.8429 7.68655 30.9248 8.27728Z" fill="#F1A975"/>
<path d="M31.1702 8.23774C31.2111 8.59218 31.6611 8.78909 31.9065 8.78909C32.1519 8.74971 32.0701 8.47403 31.9883 8.11959C31.9474 7.76515 31.702 7.52886 31.4974 7.56824C31.2929 7.56824 31.1293 7.8833 31.1702 8.23774Z" fill="#FFB884"/>
<path d="M35.6289 8.43506C35.6289 8.43506 35.6289 8.90765 35.8335 9.34085C35.8335 9.34085 36.1607 9.41961 36.2016 9.49838C36.3243 9.65591 35.4653 10.0103 35.2199 9.81344C34.9744 9.57714 35.6289 8.43506 35.6289 8.43506Z" fill="#FFB884"/>
<path opacity="0.2" d="M33.0928 3.90575C33.5427 4.02389 33.9518 4.02389 33.9927 3.94513C34.0336 3.86637 33.6655 3.66945 33.1746 3.55131C32.7246 3.43316 32.3156 3.43316 32.2747 3.51193C32.2337 3.59069 32.6428 3.7876 33.0928 3.90575Z" fill="#31424F"/>
<path opacity="0.2" d="M33.6245 3.51231C33.1746 3.39416 32.8064 3.23663 32.8064 3.11848C32.8064 3.0791 32.8473 3.0791 32.9291 3.0791C33.4609 3.15787 33.9927 3.31539 34.4836 3.59107C34.4017 3.66984 34.0336 3.63045 33.6245 3.51231Z" fill="#31424F"/>
<path opacity="0.3" d="M24.7071 27.2598C24.9525 27.8112 24.2162 29.2683 24.2162 30.371C24.2162 31.9463 27.325 39.1532 27.325 39.1532L27.5296 39.0351C27.5296 39.1139 27.5296 39.1139 27.5296 39.1139L26.916 39.4289C26.916 39.4289 23.8072 32.222 23.8072 30.6467C23.8072 29.544 24.5435 28.0868 24.298 27.5355C24.0526 26.9841 15.9532 23.0065 14.8897 20.0529C14.8488 19.9347 14.8079 19.8559 14.8079 19.7378C16.6486 22.7308 24.4616 26.7478 24.7071 27.2598Z" fill="#8FAAB5"/>
<path d="M56 44.6274H50.4368L49.2505 47.3448L47.5325 46.951L38.3696 49.3533L31.9883 47.3448L21.8028 49.117L18.5712 52.1101L15.626 51.5193L8.46749 52.7402L1.84076 54.0004H56V44.6274Z" fill="#A0896E"/>
<path opacity="0.2" d="M38.3696 49.3532L33.2564 50.8104L31.9883 47.3447L38.3696 49.3532Z" fill="#A0896E"/>
<path opacity="0.2" d="M21.8028 49.1167L18.4894 53.2124L15.626 51.519L18.3667 52.0704L21.8028 49.1167Z" fill="#A0896E"/>
<path opacity="0.2" d="M50.4368 44.6274L49.7414 49.117L47.5325 46.951L49.2505 47.3448L50.4368 44.6274Z" fill="#A0896E"/>
</g>
<defs>
<clipPath id="clip0">
<rect width="56" height="51" fill="white" transform="matrix(-1 0 0 1 56 3)"/>
</clipPath>
</defs>
</svg>
