<svg width="56" height="56" viewBox="0 0 56 56" fill="none" xmlns="http://www.w3.org/2000/svg">
<path d="M22.0744 51.3804L20.4533 51.2109C20.4533 51.2674 20.4533 51.3126 20.4533 51.3409C20.4533 51.6911 18.527 52.7474 17.6289 53.1654C16.7308 53.5834 16.3128 53.8828 16.6573 54.4759C17.081 55.1989 18.0977 55.2272 19.3461 54.8713C20.5945 54.5154 20.329 54.2047 22.2043 53.3461C23.0404 52.962 22.1196 51.6854 22.0462 51.4086L22.0744 51.3804Z" fill="#505366"/>
<path d="M29.9486 51.4821C29.8898 51.27 29.8538 51.0523 29.8412 50.8325L28.2088 51.1037C28.2815 51.4076 28.325 51.7178 28.3387 52.03C28.3387 53.1598 28.2144 53.2728 28.2652 54.7019C28.3048 55.8599 29.2312 56.2044 30.3553 55.8655C31.0896 55.6452 31.485 54.7753 31.0783 53.7021C30.7224 52.7926 30.2875 52.2955 29.9486 51.4821Z" fill="#505366"/>
<path d="M29.5477 46.9633C29.5194 46.6244 29.4855 46.2968 29.446 46.003C29.2031 44.0655 28.4123 42.9979 28.2541 41.9642C27.9322 39.8968 25.8252 30.2827 25.8252 30.2827L18.1656 30.3392C17.804 33.0223 19.1993 39.5579 19.1371 41.0152C18.9892 42.4306 19.0329 43.8594 19.2671 45.263C19.8658 49.782 19.6399 51.4258 19.6399 51.4258C20.538 52.081 22.7975 51.7308 22.7975 51.7308C22.7975 51.7308 22.0406 46.5284 22.0688 45.3591C22.0688 45.3591 22.0688 45.3195 22.0688 45.3026C22.0688 45.2856 22.0688 45.2574 22.0688 45.2405C22.1761 43.5458 21.8429 41.9812 21.9389 41.0604C22.0462 39.9872 22.0236 34.0617 22.3964 34.8469C22.7692 35.632 25.1135 41.3146 25.6388 42.4839C26.1641 43.6532 26.4296 45.7714 26.7064 46.8447C26.7629 47.0706 26.8589 47.3813 26.9775 47.7428C27.3192 49.1618 27.5682 50.6015 27.7232 52.0528C27.7232 52.0528 29.7002 52.4369 30.3554 51.7365C30.3724 51.7421 29.6494 47.9179 29.5477 46.9633Z" fill="#A3B848"/>
<path d="M22.5093 52.3579C22.2986 52.7951 21.9377 53.142 21.4925 53.3351C20.7638 53.5837 20.0408 54.3463 18.7981 54.5722C18.014 54.6988 17.22 54.4128 16.6968 53.8153C16.5545 54.0126 16.5545 54.2789 16.6968 54.4762C17.1204 55.1992 18.1372 55.2274 19.3856 54.8716C20.6339 54.5157 20.3684 54.205 22.2438 53.3464C22.4126 53.2529 22.5362 53.0949 22.5862 52.9085C22.6363 52.7221 22.6085 52.5234 22.5093 52.3579Z" fill="#404352"/>
<path d="M18.1598 32.7567C20.8181 33.6538 23.7291 33.4126 26.2035 32.0902L25.8081 30.2656L18.4648 31.096L18.0863 32.1975L18.1598 32.7567Z" fill="#58341F"/>
<path d="M30.3497 55.8769C31.016 55.6346 31.3881 54.9246 31.2083 54.2388C31.0953 54.5494 30.6434 55.5945 29.7396 55.5267C29.2155 55.5386 28.7044 55.3622 28.2992 55.0296C28.4913 55.9277 29.3386 56.1819 30.3497 55.8769Z" fill="#404352"/>
<path d="M22.95 18.251C22.5715 19.1717 24.8649 18.4487 26.712 18.9458C28.5592 19.4429 31.536 19.9343 32.3607 19.8326C34.0527 19.6518 35.7606 19.6841 37.4445 19.9286C38.981 20.2789 42.2008 18.8271 42.2008 18.8271V21.7136C41.3485 21.622 40.5032 21.4748 39.6701 21.273C38.128 20.9002 34.1401 22.1881 32.5302 22.2785C30.9203 22.3689 27.5537 21.8322 26.2714 22.4875C24.9892 23.1427 25.9156 29.0626 26.6217 31.2825C26.6217 31.2825 21.261 33.9995 17.8775 32.0959C17.9437 31.4749 17.9776 30.8508 17.9792 30.2262C17.9792 27.577 18.1543 23.1201 17.934 22.7417C17.6233 22.2051 12.4152 22.4762 11.4154 22.0977C10.4156 21.7193 10.7884 20.1094 12.3192 20.0981C13.721 20.0807 15.1133 19.8639 16.454 19.4541C17.3955 19.1582 18.3762 19.0058 19.3631 19.0023C20.4363 18.9627 20.4928 18.2736 20.4928 18.2736L22.95 18.251Z" fill="#FFB647"/>
<path d="M40.2123 21.3973C40.8565 21.5805 41.5201 21.6867 42.1893 21.7136V18.8271C42.1893 18.8271 38.9639 20.2789 37.4331 19.9286C35.7492 19.6841 34.0412 19.6518 32.3493 19.8326C32.2177 19.8432 32.0855 19.8432 31.9539 19.8326C31.9539 19.8326 31.4568 21.4312 32.5187 22.2672C34.4788 22.4536 38.6702 21.0245 40.2123 21.3973Z" fill="#FFD7A3"/>
<g style="mix-blend-mode:multiply" opacity="0.3">
<path d="M22.3738 19.3183L20.4137 18.5049C20.177 18.8489 19.7734 19.0389 19.3574 19.002C18.3705 19.0055 17.3898 19.1579 16.4483 19.4539C15.1076 19.8636 13.7153 20.0804 12.3135 20.0978H12.161H11.9859C10.7319 20.3181 10.4833 21.719 11.421 22.0636C12.3587 22.4081 17.6346 22.1709 17.9396 22.7075C17.8436 21.9562 15.5276 21.7529 15.409 21.6117C15.2904 21.4704 18.8547 19.5612 19.8432 19.5442C20.8317 19.5273 21.6169 19.7137 22.3738 19.3183Z" fill="#FFB647"/>
</g>
<path d="M37.3486 37.7389C37.299 37.5969 37.2593 37.4515 37.23 37.304C37.1392 36.8828 37.0975 36.4525 37.1057 36.0217C37.1525 34.4539 37.6528 32.9333 38.5461 31.644L39.416 30.4521C39.6996 30.0381 39.9526 29.6038 40.1729 29.1529C40.6372 28.1646 40.9787 27.1231 41.1897 26.0518C41.5965 23.6683 41.7479 21.2483 41.6416 18.8327C41.6416 17.5787 41.6416 16.3417 41.5456 15.1272C41.479 13.948 41.3242 12.7754 41.0824 11.6194C40.8554 10.5519 40.4988 9.51611 40.0204 8.53518C39.7929 8.0871 39.5324 7.65661 39.2409 7.24727L38.3653 6.08364C37.4479 4.80794 36.9218 3.29263 36.8515 1.72285C36.8359 1.29294 36.87 0.862675 36.9532 0.440598C36.9806 0.291296 37.0183 0.144077 37.0661 0C36.9763 0.561297 36.9763 1.13331 37.0661 1.69461C37.1524 2.33634 37.3254 2.96341 37.5802 3.55868C37.9115 4.31689 38.3427 5.02739 38.8624 5.67129L39.834 6.80103C40.1772 7.22318 40.4852 7.67282 40.7547 8.14542C41.3308 9.16599 41.7641 10.2607 42.0426 11.3991C42.3373 12.6004 42.5263 13.8252 42.6075 15.0594C42.7035 16.3134 42.7318 17.5787 42.7431 18.8327C42.7544 20.0868 42.7431 21.3577 42.664 22.6117C42.5931 23.8468 42.4155 25.0733 42.133 26.2777C41.8698 27.4195 41.4516 28.5198 40.8903 29.5483C40.6276 30.0265 40.3253 30.4819 39.9865 30.9097L39.0432 32.0394C38.5293 32.6934 38.1056 33.4134 37.7835 34.1802C37.5378 34.7787 37.3744 35.4076 37.2977 36.05C37.225 36.6121 37.2422 37.1822 37.3486 37.7389Z" fill="#58341F"/>
<path d="M20.3573 10.3256C21.5209 10.1222 23.3737 10.5854 23.7465 12.9635C23.8256 13.438 23.7465 13.7995 23.8256 14.178C24.108 15.6862 24.3904 16.4374 23.8256 17.3582C23.1195 18.4879 22.9218 18.9455 22.1705 18.9794C21.4192 19.0132 19.7698 18.2563 19.4422 17.7366C19.2613 17.4616 19.1063 17.1704 18.979 16.8667C18.979 16.8667 18.8886 16.9967 18.5384 16.7481C18.1882 16.4996 17.499 15.1834 18.1712 15.1608C18.1712 15.1608 17.6063 12.9014 17.9114 12.3365C18.349 11.3067 19.2623 10.5558 20.3573 10.3256Z" fill="#FFD7A3"/>
<g style="mix-blend-mode:multiply" opacity="0.3">
<path d="M22.1819 16.3645C21.6622 16.0087 19.6004 16.2572 18.7926 16.7656L18.691 16.8108C18.9565 16.9633 19.0242 16.8616 19.0242 16.8616C19.1515 17.1652 19.3066 17.4564 19.4874 17.7315C20.0684 18.2912 20.791 18.6818 21.5774 18.8613C21.9452 18.9767 22.3394 18.9767 22.7072 18.8613C23.1195 18.4376 22.7015 16.7204 22.1819 16.3645Z" fill="#FFD7A3"/>
</g>
<path d="M22.5096 22.8604L24.695 22.6314L24.8651 24.255C24.8976 24.5653 24.6724 24.8432 24.3621 24.8757L23.3003 24.9869C22.9901 25.0194 22.7122 24.7942 22.6797 24.4839L22.5096 22.8604Z" fill="#A3B848"/>
<g style="mix-blend-mode:multiply" opacity="0.3">
<path d="M24.7068 22.6289L24.5091 22.6741L24.6503 24.0015C24.6799 24.3099 24.4556 24.5846 24.1475 24.6172L23.0856 24.7302C22.969 24.739 22.8525 24.7114 22.7523 24.6511C22.8429 24.8802 23.0714 25.0242 23.3172 25.007L24.3791 24.894C24.5282 24.8784 24.665 24.8041 24.7593 24.6876C24.8536 24.571 24.8977 24.4218 24.8819 24.2727L24.7068 22.6289Z" fill="#A3B848"/>
</g>
<g style="mix-blend-mode:multiply" opacity="0.3">
<path d="M26.6105 31.2828C25.9044 29.0629 24.978 23.1487 26.2602 22.4878C24.6221 22.8098 25.3169 30.3621 25.3169 30.3621C23.1648 32.2035 17.9736 31.4918 17.9736 31.4918L17.9341 31.5765C17.9341 31.8985 17.8889 32.0906 17.8889 32.0906C21.2499 33.9716 26.6105 31.2828 26.6105 31.2828Z" fill="#FFB647"/>
</g>
<path d="M17.4649 12.7209C17.4557 12.3647 17.6877 12.0469 18.0298 11.9471L17.7586 11.8397C18.0637 11.7098 18.1314 11.1788 18.476 10.8682C18.6785 10.6861 18.9627 10.6258 19.2216 10.71C19.0658 10.6477 18.9458 10.5194 18.894 10.3598C19.3177 10.5914 19.5944 10.0604 20.1593 9.8627C20.3069 9.79746 20.4753 9.79842 20.6221 9.86534C20.7688 9.93226 20.88 10.0588 20.9275 10.2129C21.3718 10.0905 21.8479 10.1963 22.1985 10.4954C22.59 10.7224 23.0406 10.8267 23.492 10.7947C23.4388 10.9841 23.3013 11.1383 23.1192 11.2127C23.7519 11.4104 23.9439 12.382 23.8705 12.7944C23.8598 13.0811 23.9988 13.3528 24.2377 13.5118C22.2267 13.5118 21.9443 12.6588 21.9443 12.6588C22.0064 13.1276 20.9558 13.4044 20.6677 13.5174C20.4659 13.6153 20.2956 13.768 20.1763 13.958C20.1172 13.7756 20.1056 13.5812 20.1424 13.3931C19.9803 13.6059 19.7903 13.7959 19.5775 13.958C19.373 14.0908 19.1996 14.2661 19.0691 14.472C19.0239 15.0369 19.007 15.7373 19.007 15.7373C18.8632 15.4425 18.5765 15.2436 18.2501 15.212C17.9026 14.4112 17.6394 13.5763 17.4649 12.7209Z" fill="#754C27"/>
<path d="M37.0886 35.8015L21.2271 18.2623L36.8457 1.92627L37.0491 2.12397L21.6112 18.2679L37.2976 35.6151L37.0886 35.8015Z" fill="#995F36"/>
<path d="M44.8668 20.6346L21.6055 18.3356L21.6168 18.1943L44.8781 20.4934L44.8668 20.6346Z" fill="#995F36"/>
<path d="M44.6238 20.5385L44.364 19.9736L45.1548 20.3803L46.0021 20.6571L45.1209 20.7644L44.2623 21.013L44.6238 20.5385Z" fill="#995F36"/>
<path d="M42.2063 18.8327C43.1383 18.4373 43.336 19.3128 43.4433 20.5781C43.5507 21.8435 43.0197 21.7474 42.1893 21.7079C41.359 21.6683 41.342 19.1999 42.2063 18.8327Z" fill="#FFD7A3"/>
<path d="M11.4041 22.1094C10.0993 22.0303 8.85658 19.9064 11.8391 19.0704C13.5337 18.5903 18.2673 17.9407 19.0299 17.4549C19.7925 16.9691 21.6113 16.4155 22.0915 16.7431C22.5716 17.0708 22.775 18.9405 22.3683 19.3359C21.9616 19.7313 20.4082 18.9461 19.3519 19.0139C18.2955 19.0817 13.6297 22.2337 11.4041 22.1094Z" fill="#FFD7A3"/>
<path d="M17.646 36.106L17.516 36.1286L15.7706 27.5878L15.9005 27.5596L17.646 36.106Z" fill="#9E291D"/>
<path d="M15.313 27.3453L15.3412 27.3623L15.7875 27.6617L15.5559 26.5319L15.0814 26.21L15.313 27.3453Z" fill="#9E291D"/>
<path d="M15.9851 26.0234L15.6857 26.5092L15.9173 27.639C16.0001 27.4677 16.1024 27.3066 16.2223 27.1588L15.9851 26.0234Z" fill="#9E291D"/>
<rect x="16.7544" y="26.4463" width="0.12992" height="9.18477" transform="rotate(-6.43 16.7544 26.4463)" fill="#35AFD4"/>
<path d="M16.8945 26.4865L17.4141 26.1024L17.3972 25.9498L16.8775 26.3339L16.8606 26.1871L17.3803 25.803L17.3633 25.6505L16.8436 26.0346L16.8267 25.8821L17.3464 25.5036L17.3294 25.3511L16.8097 25.7352L16.7928 25.5827L16.6629 25.594L16.6798 25.7521L16.0867 25.4923L16.1036 25.6392L16.6968 25.899L16.7137 26.0515L16.1206 25.7917L16.1375 25.9442L16.7307 26.1984L16.7476 26.3509L16.1545 26.0911L16.1714 26.2436L16.7645 26.5034L16.8945 26.4865Z" fill="#35AFD4"/>
<path d="M16.4089 28.2549L17.7984 37.3606L16.4089 28.2549Z" fill="#006C8A"/>
<path d="M17.8661 37.3211L17.7305 37.3437L16.341 28.2662L16.4709 28.2437L17.8661 37.3211Z" fill="#006C8A"/>
<path d="M16.4822 28.2998L16.985 27.8931L16.9624 27.7462L16.4596 28.1473L16.437 28.0004L16.9398 27.5937L16.9172 27.4468L16.4144 27.8479L16.3918 27.701L16.8946 27.2943L16.872 27.1475L16.3636 27.5485L16.341 27.396L16.2111 27.4186L16.2337 27.5711L15.6349 27.3339L15.6575 27.4864L16.2563 27.718L16.2845 27.8705L15.6801 27.6332L15.7027 27.7858L16.3071 28.0174L16.3297 28.1699L15.7253 27.9326L15.7479 28.0851L16.3523 28.3167L16.4822 28.2998Z" fill="#006C8A"/>
<path d="M17.9848 36.0729L17.8831 36.0785L17.5894 29.6277L17.691 29.6221L17.9848 36.0729Z" fill="#505366"/>
<path d="M17.6965 29.7291C17.6658 29.5528 17.7021 29.3715 17.7981 29.2207C17.906 29.0978 18.0543 29.0176 18.2161 28.9947L18.171 27.9893C17.9117 28.0279 17.6947 28.2058 17.6061 28.4525C17.4938 28.2092 17.2526 28.0513 16.9847 28.0457L17.0299 29.0512C17.2084 29.0673 17.375 29.1476 17.4988 29.2772C17.5801 29.4154 17.6194 29.5744 17.6117 29.7347H17.7191L17.6965 29.7291Z" fill="#58341F"/>
<path d="M18.64 39.7951L17.6515 39.9024L16.1998 30.616L18.0017 30.4126L18.64 39.7951Z" fill="#995F36"/>
<path d="M18.64 39.7951L17.6515 39.9024L16.1998 30.616L18.0017 30.4126L18.64 39.7951Z" fill="#995F36"/>
<g style="mix-blend-mode:multiply" opacity="0.5">
<path d="M17.9001 30.4239L18.3407 39.3771L17.5838 39.4618L17.6516 39.9024L18.6401 39.7951L18.0018 30.4126L17.9001 30.4239Z" fill="#995F36"/>
</g>
</svg>
