<svg width="56" height="56" viewBox="0 0 56 56" fill="none" xmlns="http://www.w3.org/2000/svg">
<g clip-path="url(#clip0)">
<path d="M16.5123 25.5095C16.5123 25.5095 15.8034 23.0836 11.4252 22.5817C6.92182 22.038 7.67238 28.3537 4.41996 25.635C1.16754 22.8745 -0.0416908 24.3802 -0.0416908 24.3802C-0.0416908 24.3802 2.71036 24.3802 2.96054 27.2662C3.25243 30.1522 7.79747 28.6047 7.79747 28.6047C7.79747 28.6047 7.2971 29.9849 6.33805 30.6123C7.21371 30.9469 8.96501 30.445 9.34029 28.3537C9.67387 26.2206 12.551 25.0076 13.5101 24.9658C14.4691 24.8822 16.3038 26.6388 16.3038 26.6388L16.5123 25.5095Z" fill="#876D6C"/>
<path d="M21.3075 28.103C21.3075 28.103 23.8511 29.6924 23.7677 31.9092C23.6426 34.126 22.4751 35.2971 21.7662 35.7153C21.0573 36.1336 19.0558 36.6773 19.0558 36.6773C19.0558 36.6773 22.6835 39.3542 23.0588 40.8599C23.309 41.9892 22.6835 43.0767 22.6835 43.0767L21.0156 42.1565L21.3075 40.6926C21.3075 40.6926 20.8488 40.6508 20.557 40.2325C20.3068 39.8979 20.6821 39.7306 18.4304 38.6013C16.1787 37.472 15.3031 36.8865 15.0946 36.5519C14.8861 36.2172 14.6776 35.2971 14.9278 35.0043C15.4281 34.3351 16.971 34.1678 17.1794 33.4567C17.513 32.4529 16.3455 30.1525 16.3455 30.1525L21.3075 28.103Z" fill="#876D6C"/>
<path d="M41.7394 31.3235C40.1966 35.6316 40.1549 38.2666 40.1549 39.6887C40.1549 41.1108 39.029 41.3199 38.487 41.3617C38.3619 41.3617 38.07 41.3617 37.7364 41.3617C37.4445 40.818 36.9859 40.1906 36.4021 39.605L37.4445 39.5632C37.4445 39.5632 36.1519 32.9129 36.5272 31.9927C36.9025 31.1144 38.07 28.814 38.07 28.814C38.07 28.814 42.1564 30.2779 41.7394 31.3235Z" fill="#876D6C"/>
<path d="M37.7364 41.3619C36.7357 41.3201 35.1929 41.1528 34.3589 41.2783C32.4408 41.4874 31.0648 40.4418 31.0648 40.4418L33.0663 39.0615C33.0663 39.0615 33.65 39.5634 34.4006 39.6889C34.901 39.7726 36.4021 39.6053 36.4021 39.6053C36.9859 40.149 37.4028 40.8182 37.7364 41.3619Z" fill="#876D6C"/>
<path d="M34.9427 20.1562C34.9427 20.1562 35.9017 20.1143 36.1519 20.4908C36.4021 20.8672 36.0685 21.2855 36.0685 21.2855L34.5674 21.5782C34.6091 21.5364 34.6508 20.3653 34.9427 20.1562Z" fill="#EDAA98"/>
<path d="M47.8689 19.7379C47.8689 19.7379 47.5354 19.0268 47.035 17.7721C46.2427 17.5211 44.7416 17.4793 43.5741 17.7721C41.1139 18.3995 38.4036 19.6961 36.9442 20.5326C34.9844 21.6201 34.0253 22.7494 34.0253 22.7494C34.0253 22.7494 40.3217 22.0383 42.0313 21.6201C46.2844 20.6581 47.8689 19.7379 47.8689 19.7379Z" fill="#967E7C"/>
<path d="M50.1623 16.1826C50.1623 16.1826 49.9955 18.1903 49.6202 18.985C49.245 19.7796 48.411 18.985 48.411 18.985C48.411 18.985 48.9531 16.9355 50.1623 16.1826Z" fill="#705959"/>
<path d="M13.9687 27.3922C15.8868 24.0461 17.8049 23.6697 21.6411 24.1716C30.8563 25.4263 32.8578 22.8331 35.3179 22.0803C36.8191 21.6202 41.6977 19.1943 43.4073 18.8179C46.8265 17.9813 49.8704 19.1106 49.8704 19.1106C49.8704 19.1106 53.1646 23.0423 53.79 23.6697C54.4155 24.297 55.4996 25.259 55.7498 25.4682C56 25.6355 56.0834 26.1792 55.7498 26.6811C55.4579 27.1412 54.7491 27.2249 54.7491 27.2249C54.7491 27.2249 54.7908 27.8104 54.4155 27.8941C54.0402 27.9777 53.4981 27.7686 53.373 27.0994C52.6642 27.1412 50.1623 26.4302 49.2867 25.9701C48.1608 25.3427 47.9523 24.5062 47.9523 24.5062L47.452 23.4187C47.452 23.4187 44.6999 23.837 43.2822 26.0537C41.8645 28.2705 39.9881 31.7002 39.9881 31.7002L41.4892 32.3276C41.2807 32.7041 41.1139 33.0387 40.9888 33.206C40.2383 34.0425 39.3626 34.6699 38.4453 35.1718L36.8191 33.8752C36.8191 33.8752 34.067 34.3771 31.3984 34.3353C26.1028 34.2516 24.4765 33.0805 22.9337 33.206C21.0156 33.3733 19.6396 34.7953 19.6396 34.7953C18.8474 34.879 18.6389 34.9208 17.5547 34.9208C17.0544 34.9208 15.7617 34.6699 14.344 33.4987C13.0514 32.2021 12.7178 28.9815 13.9687 27.3922Z" fill="#BCA49F"/>
<path d="M31.5235 34.2515C34.1921 34.2933 36.9442 33.7914 36.9442 33.7914L38.5704 35.088C38.1534 35.339 37.6947 35.5063 37.236 35.6736C34.901 36.2591 33.0663 36.2591 31.5235 36.2591C27.2703 36.2591 24.4349 35.088 22.8086 34.6697C22.0164 34.4606 21.0573 34.5861 19.7647 34.7116C19.7647 34.7116 21.1407 33.2895 23.0588 33.1222C24.5599 32.9967 26.1862 34.1678 31.5235 34.2515Z" fill="#AF9894"/>
<path d="M43.3656 25.97C44.7833 23.7532 47.5354 23.335 47.5354 23.335L48.0357 24.4224C48.0357 24.4224 46.0342 24.9243 44.9501 26.0536C44.3246 26.7229 42.5733 30.3617 41.5726 32.2439L40.0715 31.6165C40.0715 31.6165 41.9896 28.1868 43.3656 25.97Z" fill="#AF9894"/>
<path d="M47.9106 18.5247C47.9106 18.5247 50.1206 18.3992 50.6627 19.5285C51.1631 20.6578 53.9151 23.7947 53.9151 23.7947L52.6642 27.0153C52.6642 27.0153 49.3284 27.0571 47.5771 24.6312C47.5771 24.2548 47.0767 21.5361 47.3686 18.5665L47.9106 18.5247ZM49.9538 22.3726C50.2457 22.8327 50.8295 23.1673 51.3299 22.9582C51.7468 22.7909 51.9136 22.3308 51.7885 21.9126C51.7051 21.4943 50.9963 20.9087 50.4125 21.1179C49.8704 21.327 49.6202 21.8707 49.9538 22.3726ZM48.1608 19.7376C48.3276 20.0722 48.7446 20.3232 49.1199 20.114C49.4118 19.9467 49.4535 19.5703 49.3701 19.2775C49.245 18.9011 48.9114 18.7756 48.5778 18.8593C48.5361 18.8593 48.4944 18.9011 48.4527 18.9429C48.3276 18.9847 48.2442 19.0266 48.1608 19.152C48.0774 19.3612 48.0774 19.5703 48.1608 19.7376Z" fill="#6A97D8"/>
<path d="M49.1616 19.7378C48.9114 19.9051 48.5778 19.9888 48.3693 19.696L48.3276 19.6542C48.0357 19.0268 47.4937 17.1446 49.5369 15.8062C49.5369 15.7643 49.662 18.3157 49.1616 19.7378C49.1616 19.696 49.1616 19.696 49.1616 19.7378Z" fill="#876D6C"/>
<path d="M33.1914 22.54C33.1914 22.54 35.1095 27.7683 32.8578 29.0649C30.9814 30.1524 26.2695 30.8634 24.9352 30.4033C23.0588 29.7759 23.4758 25.2587 23.4758 24.2967C25.936 24.0458 31.6069 23.1256 33.1914 22.54Z" fill="#6A97D8"/>
<path d="M26.478 29.3575C27.6039 29.3575 29.1467 29.1066 30.2725 28.772C32.1906 28.2282 32.4408 27.9773 32.7744 27.0153C33.2331 25.8023 32.3574 23 32.3157 22.8745L32.1072 22.9582C32.1072 23 32.9829 25.8023 32.5659 26.9316C32.2323 27.81 32.1072 28.0191 30.1891 28.5628C28.271 29.1066 25.5607 29.3575 25.1437 28.8556C24.7684 28.3955 24.4765 25.3004 24.3931 24.1711H24.1847C24.2264 24.5894 24.4765 28.3955 24.9769 28.9811C25.2271 29.2739 25.7692 29.3575 26.478 29.3575Z" fill="white"/>
<path d="M29.9806 25.9697C29.9806 25.9697 30.5644 29.6086 30.7729 31.1561C30.9814 32.7037 31.5235 36.2589 31.5235 36.2589C31.5235 36.2589 29.4386 36.2589 27.5205 35.9243C27.5205 35.6733 27.2703 34.9205 27.9792 34.6277C28.688 34.2931 29.6471 33.8748 29.522 32.7037C29.3969 31.5326 28.6463 26.0116 28.6463 26.0116H29.9806V25.9697Z" fill="#3F2B2B"/>
<path d="M24.3098 22.5401C24.685 22.08 25.2271 23.0838 26.6031 22.9583C26.9367 22.9165 27.3537 22.8747 27.729 22.8329C27.9375 23.5857 28.2293 24.5895 28.4378 25.1333C28.7714 25.9698 31.8153 25.5934 31.8153 24.5477C31.8153 23.6276 31.3984 21.9127 31.1899 21.0762C31.4818 20.7416 31.8987 20.867 32.0238 21.0762C32.1906 21.4108 32.3574 22.2055 32.3991 22.5819C32.5659 23.4184 33.1914 25.3006 31.4818 26.0116C30.0223 26.639 28.4795 26.8481 27.9375 26.1789C27.3954 25.5515 27.1452 23.9622 27.1452 23.9622L24.2681 24.2131C24.3098 24.1713 24.0596 22.8747 24.3098 22.5401Z" fill="#633F3F"/>
<path d="M28.4795 25.1334C28.2293 24.5479 27.9792 23.5859 27.7707 22.833C28.5212 22.7494 29.3135 22.5821 29.8555 22.3729C30.5227 22.0802 30.9397 21.5364 31.1482 21.2018C31.1899 21.16 31.1899 21.1182 31.2316 21.1182C31.4401 21.9547 31.857 23.6695 31.857 24.5897C31.857 25.5935 28.8131 25.97 28.4795 25.1334Z" fill="#4F3333"/>
<path d="M51.6634 21.7456C51.6634 21.7456 51.7051 22.4566 51.3716 22.5821C50.8712 22.7913 50.4125 22.0802 50.4125 22.0802L51.6634 21.7456Z" fill="#876D6C"/>
<path d="M54.3321 24.2132C54.3321 24.2132 54.2487 24.3387 53.8734 25.2588C53.7066 25.6771 53.2897 27.0573 53.2897 27.0573L52.6642 26.9737C52.6642 26.9737 52.831 26.2208 53.3314 25.0497C53.4564 24.7151 53.9151 23.7949 53.9151 23.7949L54.3321 24.2132Z" fill="#3F2B2B"/>
<path d="M53.1229 26.7225C53.5398 26.7225 53.8734 26.3879 53.8734 25.9697C53.8734 25.5514 53.5398 25.2168 53.1229 25.2168C52.7059 25.2168 52.3723 25.5514 52.3723 25.9697C52.414 26.3879 52.7476 26.7225 53.1229 26.7225ZM53.1229 25.5096C53.373 25.5096 53.6232 25.7187 53.6232 26.0115C53.6232 26.2624 53.4147 26.5134 53.1229 26.5134C52.8727 26.5134 52.6225 26.3043 52.6225 26.0115C52.6642 25.7187 52.8727 25.5096 53.1229 25.5096Z" fill="#F4B79F"/>
<path d="M52.8727 25.5935C52.8727 25.5935 50.4959 24.3805 49.4118 22.833C48.6195 21.6618 47.9106 18.5249 47.9106 18.5249H47.3269C47.3269 18.5249 47.7022 21.2854 49.1199 23.3767C50.204 24.9243 52.6642 26.0536 52.6642 26.0536L52.8727 25.5935Z" fill="#3F2B2B"/>
<path d="M52.7476 26.2626C52.7476 26.2626 38.6121 24.7987 34.4423 22.1637C34.4423 22.1637 34.2755 21.7454 34.484 21.7036C38.9873 24.3386 52.6642 25.8444 52.6642 25.8444L52.7476 26.2626Z" fill="#3F2B2B"/>
<path d="M41.6977 31.6166L41.5726 32.244C41.5726 32.244 41.0305 33.4987 40.1549 34.2934C39.3209 35.0881 37.8198 35.59 37.8198 35.59L38.2785 33.6242C38.2785 33.6242 39.5294 32.5786 40.0298 31.6584C40.6136 30.6964 41.6977 31.6166 41.6977 31.6166Z" fill="#AF9894"/>
<path d="M49.0365 16.7261C49.0365 16.7261 49.1616 17.1862 49.0365 17.939C48.9114 18.6919 48.7863 19.4866 48.7863 19.4866C48.7863 19.4866 48.411 18.8592 48.411 18.0227C48.4527 17.228 49.0365 16.7261 49.0365 16.7261Z" fill="#705959"/>
<path d="M36.6523 15.9734C35.9017 16.1825 35.0678 17.019 35.0678 17.019L34.1504 15.2623L35.443 14.6768C35.4013 14.6768 36.7357 15.5133 36.6523 15.9734Z" fill="#EDAA98"/>
<path d="M35.4013 14.677C35.5681 15.639 36.3187 16.5173 36.7774 16.6428C37.0275 16.7264 37.5279 16.2245 37.6947 15.8481C37.9032 15.388 38.1117 14.8025 37.8615 14.0078C37.5696 13.0458 37.2777 12.9203 36.5689 13.0039C35.86 13.0876 35.2345 13.715 35.4013 14.677Z" fill="#FFBFA9"/>
<path d="M35.7349 14.5513C35.7766 14.384 35.9017 14.1749 36.0685 14.2167C36.1936 14.2167 36.4021 14.5095 36.4021 14.5095C36.4021 14.5095 36.694 14.3422 36.9859 14.0913C37.2777 13.7985 37.8615 14.0913 37.8615 13.8403C37.9032 13.4639 38.2785 12.8365 36.7357 12.5437C36.0268 12.4182 35.2763 12.6692 35.0678 13.1711C34.6925 14.1331 34.9844 14.5095 34.901 14.9278C35.443 15.0532 35.6932 14.7186 35.7349 14.5513Z" fill="#6B3D3D"/>
<path d="M32.0655 24.3384C32.0655 24.3384 31.7319 28.3955 31.2316 29.232C30.6478 30.194 30.9397 29.232 30.9397 29.232C30.9397 29.232 31.6485 26.8479 31.6069 24.5475C31.6902 24.422 32.0655 24.3384 32.0655 24.3384Z" fill="#8E5151"/>
<path d="M28.8548 28.4795C29.0633 27.8939 29.3552 25.719 29.4803 24.8406C29.4803 24.757 29.522 24.6733 29.522 24.5479C30.3142 24.7988 30.9397 24.8406 31.6903 25.1752C31.6486 25.3007 31.5652 25.468 31.5235 25.5935C31.1899 26.43 30.4393 28.605 30.3976 28.7723C30.2725 29.1905 30.6478 29.6088 31.0231 29.9434C31.3984 30.2362 31.8153 30.4453 32.0238 30.6544C32.2323 30.8636 32.1489 31.24 32.1489 31.24C32.1489 31.24 31.1482 31.3236 30.5227 30.989C29.8972 30.6544 29.3969 30.278 29.3135 30.3616C29.3135 30.4035 28.4795 29.9852 28.4795 29.9852C28.4795 29.9852 28.6463 29.1069 28.8548 28.4795Z" fill="#5B3939"/>
<path d="M30.9397 28.814L31.4818 29.0231C31.4818 29.0231 31.2316 29.6087 31.0231 30.0687C30.8563 30.487 30.7312 31.1144 30.7312 31.1144L29.939 30.7798C29.8973 30.7798 30.0223 29.3577 30.9397 28.814Z" fill="#FFD8CC"/>
<path d="M34.0253 18.9429C34.0253 18.9429 35.1511 19.7794 35.2762 19.9467C35.443 20.1558 35.0261 20.114 34.8593 20.5741C34.6925 21.076 32.3574 20.5323 32.3574 20.5323V19.6957L34.0253 18.9429Z" fill="#3479BF"/>
<path d="M20.8906 28.563C20.8906 28.563 23.726 29.6086 24.0596 31.7836C24.3932 33.9585 23.4758 35.3806 22.8503 35.9243C22.2249 36.4681 20.3902 37.3883 20.3902 37.3883C20.3902 37.3883 24.4766 39.3122 25.1437 40.6925C25.6024 41.7381 25.2271 42.9093 25.2271 42.9093L23.4341 42.3237V40.818C23.4341 40.818 22.9754 40.8598 22.6002 40.5252C22.3083 40.2742 22.6419 40.0233 20.1817 39.3541C17.7215 38.6849 16.7625 38.3084 16.5123 38.0156C16.2621 37.7229 15.8868 36.8863 16.0536 36.5517C16.3872 35.7989 17.8883 35.3388 17.9717 34.5859C18.1385 33.5403 16.4706 31.4908 16.4706 31.4908L20.8906 28.563Z" fill="#BCA49F"/>
<path d="M38.4036 13.882C38.4036 13.882 38.6121 12.2927 37.1944 12.0417C35.9851 11.8326 34.7342 12.2508 34.7342 13.7147C34.7759 15.1786 35.4013 14.6767 35.9851 14.5931C36.4438 14.5094 38.9874 14.4258 38.9874 14.4258C39.0707 13.9239 38.4036 13.882 38.4036 13.882Z" fill="#518ACE"/>
<path d="M37.0276 14.5511L36.4438 16.4333C36.4438 16.4333 36.0685 16.5169 36.2353 15.8477C36.3604 15.1367 36.6106 14.5093 36.6106 14.5093L37.0276 14.5511Z" fill="#4F3333"/>
<path d="M35.1929 12.502L37.0276 14.5514H36.6523C36.6523 14.5514 35.6515 13.5058 34.9844 12.7947C34.9427 12.7111 35.1929 12.502 35.1929 12.502Z" fill="#4F3333"/>
<path d="M35.86 14.5933L36.6106 15.388L36.5272 15.6389L35.5681 14.6769L35.86 14.5933Z" fill="#4F3333"/>
<path d="M34.6508 20.4904C34.6508 20.4904 35.443 20.5741 35.7349 20.6577C35.9851 20.7832 35.7766 20.9087 35.7349 21.076C35.6932 21.2433 35.6932 21.3688 35.5264 21.6616C35.318 21.9543 35.0261 22.038 35.0261 22.038L34.067 21.4943C34.067 21.4943 33.9836 20.4068 34.6508 20.4904Z" fill="#FFBFA9"/>
<path d="M27.1452 18.1064C27.1452 18.1064 26.0611 18.8175 25.6858 20.0723C25.3105 21.2852 26.1028 21.7453 26.5614 22.289C27.0201 22.8328 30.1057 23.5438 30.1057 23.5438C30.1057 23.5438 30.1057 23.7111 29.7722 23.9202C29.4803 24.1294 29.4803 24.464 29.4803 24.6731C29.4803 25.0914 29.2718 25.426 29.0633 25.5933C28.8131 25.8024 28.9799 26.2625 28.9382 26.5553C28.8965 26.8899 28.5629 27.7682 28.5629 27.7682C28.5629 27.7682 29.4386 28.312 29.8973 28.3956C30.6895 28.5629 30.9814 28.5629 30.9814 28.5629C30.9814 28.5629 32.1072 25.426 32.274 25.0914C32.3574 24.8822 32.691 24.0875 32.8995 23.3347C33.0663 22.7491 32.7744 22.0799 32.3574 21.8289C31.6069 21.327 29.8973 20.4905 29.8973 20.4905L27.1452 18.1064Z" fill="#FFD8CC"/>
<path d="M34.7759 14.8022C34.7759 14.8022 34.7759 14.9277 35.1512 15.8479C35.5264 16.7681 35.1512 17.6046 34.9844 17.981C34.8176 18.3574 34.484 19.2776 32.4408 19.905C30.3976 20.5324 30.3559 20.9088 29.9806 21.118C29.6054 21.3271 29.0633 20.616 28.6463 20.2814C28.2293 19.9887 27.1035 19.4867 26.7282 18.9012C26.3529 18.3156 26.2278 17.8555 26.7282 17.9392C27.2286 18.0228 28.5629 16.2662 30.0223 15.5551C31.4818 14.8859 34.7759 14.8022 34.7759 14.8022Z" fill="#6A97D8"/>
<path d="M30.3559 19.1104C30.6478 18.0648 31.6486 16.2663 32.3991 15.6807C33.0246 15.2206 33.4416 15.0952 33.9419 15.5971C34.4006 16.099 34.1921 17.1446 33.9419 17.5629C33.6917 17.9811 32.5242 19.3196 32.5242 19.3196C32.5242 19.3196 34.2755 20.0306 34.5674 20.407C34.1504 20.658 34.1504 21.2436 34.3172 21.7036C33.9002 21.7455 32.8161 21.5363 32.0238 21.4527C31.3567 21.369 30.481 21.1599 30.3142 20.3652C30.2725 20.1561 30.2308 19.4869 30.3559 19.1104Z" fill="#518ACE"/>
<path d="M32.691 15.7642L33.9419 16.6425L32.9412 18.1901L31.6486 17.3117L32.691 15.7642Z" fill="white"/>
<path d="M39.6128 30.5286C41.5309 34.6275 43.4073 36.5097 44.3664 37.5553C45.3254 38.601 44.7416 39.5212 44.408 39.9394C44.3247 40.0649 44.1162 40.2322 43.866 40.4832C43.2822 40.3159 42.49 40.1904 41.6977 40.2322L42.4066 39.4375C42.4066 39.4375 36.7774 35.6732 36.4021 34.7948C36.0268 33.9165 35.2346 31.4488 35.2346 31.4488C35.2346 31.4488 39.1541 29.483 39.6128 30.5286Z" fill="#BCA49F"/>
<path d="M43.866 40.4412C43.1571 41.1104 41.9479 42.1142 41.4058 42.7834C40.2383 44.2892 38.487 44.5401 38.487 44.5401L38.9457 42.1561C38.9457 42.1561 39.6962 42.1142 40.3217 41.6541C40.697 41.3614 41.656 40.1902 41.656 40.1902C42.49 40.1484 43.2822 40.2739 43.866 40.4412Z" fill="#BCA49F"/>
<path d="M33.3582 16.81L33.5249 16.6009C33.5249 16.6009 33.1497 16.3081 32.9829 16.3081C32.5659 16.3081 32.6076 16.5591 32.6076 16.8518C32.6076 17.0191 32.6493 17.3956 32.6493 17.3956L32.1906 17.0191L31.9821 17.3119L32.7744 17.8557L32.9412 17.5629C32.9412 17.5629 32.8995 17.3119 32.8578 17.061C32.8161 16.8518 32.7744 16.7264 32.8578 16.6009C32.9829 16.4754 33.3582 16.81 33.3582 16.81Z" fill="#4F3333"/>
<path d="M26.5614 26.0114V25.5513C26.5614 25.5513 25.7692 25.5094 25.5607 25.7186C25.0603 26.1787 25.3105 26.4296 25.6024 26.8479C25.7692 27.057 26.2695 27.4753 26.2695 27.4753L25.1854 27.6426L25.2688 28.1445L26.8116 27.8935L26.7699 27.4334C26.7699 27.4334 26.4363 27.0988 26.1444 26.806C25.936 26.5969 25.6858 26.3878 25.7275 26.1787C25.7692 25.9277 26.5614 26.0114 26.5614 26.0114Z" fill="#4F3333"/>
</g>
<defs>
<clipPath id="clip0">
<rect width="56" height="32.5405" fill="white" transform="matrix(-1 0 0 1 56 12)"/>
</clipPath>
</defs>
</svg>
