<svg width="56" height="56" viewBox="0 0 56 56" fill="none" xmlns="http://www.w3.org/2000/svg">
<path d="M28.484 0C28.8627 2.11881 29.4308 5.95386 29.4308 5.95386C30.7565 7.39465 32.1873 8.83544 33.4919 10.2974C34.8175 11.7382 36.08 13.2214 37.3846 14.6834L37.8054 15.1707L37.6792 15.9546C37.4267 17.6073 37.2162 19.26 36.9848 20.9338C36.7744 22.5865 36.4798 24.2392 36.08 25.8495C35.6802 27.4598 35.1962 29.0701 34.6702 30.6592C34.1442 32.2483 33.534 33.8374 32.8396 35.3629L31.4929 35.1299C31.4298 33.3713 31.514 31.7186 31.6402 30.0235C31.7665 28.3497 31.9769 26.6758 32.2294 25.0231C32.5029 23.3705 32.8817 21.7602 33.3446 20.1287C33.7444 18.7091 34.1652 17.3107 34.5229 15.8699C34.565 15.6792 32.7344 13.3485 31.6402 11.717C30.5461 10.1067 29.3467 8.47524 28.2525 6.84375L28.1052 6.61069V6.44118C28.0842 4.30118 28.0842 2.14 28.1052 0H28.484Z" fill="#F4B382"/>
<path d="M22.1719 47.8638L22.4244 50.0461L28.0004 51.4657L33.5764 50.0461L33.8289 47.8638H22.1719Z" fill="#302F2F"/>
<path d="M27.895 0.0416956C27.916 2.18169 27.916 4.34288 27.895 6.48288V6.65238L27.7477 6.88545C26.6746 8.51693 25.4752 10.1484 24.381 11.7587C23.4342 13.1571 22.4663 14.5344 21.4983 15.9328C21.351 16.1447 22.2138 18.5389 22.6767 20.1492C23.1396 21.7595 23.5183 23.391 23.7919 25.0437C24.0444 26.6963 24.2548 28.349 24.381 30.044C24.5073 31.7391 24.5915 33.3918 24.5283 35.1504L23.1817 35.3834C22.4873 33.8579 21.8771 32.2476 21.351 30.6797C20.825 29.0906 20.3411 27.4803 19.9413 25.87C19.5415 24.2597 19.2469 22.607 19.0365 20.9543C18.8261 19.3017 18.6156 17.6278 18.3421 15.9751L18.2159 15.1912L18.6367 14.7039C19.9413 13.2419 21.2038 11.7587 22.5294 10.3179C23.834 8.85595 25.2437 7.41516 26.5694 5.97436C26.5694 5.97436 27.1375 2.13932 27.5162 0.0205078L27.895 0.0416956Z" fill="#F4B382"/>
<path d="M24.7595 49.3043C27.6633 50.9357 30.9247 52.7367 31.7664 52.885C35.3014 53.5207 37.8895 55.2793 37.616 55.9997C37.616 55.9997 29.2835 54.792 23.1604 53.5419C20.7827 53.0757 22.5081 48.0542 24.7595 49.3043Z" fill="#F4B382"/>
<path d="M24.7596 49.3046C22.5081 48.0334 20.5092 46.8892 20.0252 46.7197C18.2577 46.0417 14.0915 44.4738 13.1656 47.5884C12.2398 50.6819 15.396 51.2963 17.6475 52.165C18.7417 52.5888 20.7827 53.0761 23.1394 53.5635C23.4971 52.0591 24.0231 50.6395 24.7596 49.3046Z" fill="#3D3C3C"/>
<path d="M31.2407 49.3043C28.337 50.9357 25.0756 52.7367 24.2339 52.885C20.6989 53.5207 18.1108 55.2793 18.3843 55.9997C18.3843 55.9997 26.7168 54.792 32.8399 53.5419C35.2176 53.0757 33.4922 48.0542 31.2407 49.3043Z" fill="#F4B382"/>
<path d="M31.2401 49.3046C33.4916 48.0334 35.4905 46.8892 35.9745 46.7197C37.742 46.0417 41.9082 44.4738 42.834 47.5884C43.7599 50.6819 40.6036 51.2963 38.3522 52.165C37.258 52.5888 35.217 53.0761 32.8603 53.5635C32.5026 52.0591 31.9766 50.6395 31.2401 49.3046Z" fill="#3D3C3C"/>
<path d="M33.5764 33.6038C33.9762 31.1672 31.9983 26.7388 31.9983 26.7388C31.0514 26.6117 30.0625 26.5693 29.326 26.5693H26.6748C25.9173 26.5693 24.9494 26.6117 24.0025 26.7388C24.0025 26.7388 22.0246 31.1883 22.4244 33.6038C22.8031 35.8709 23.4344 39.1974 22.1719 47.8634H28.0004H33.8289C32.5664 39.1974 33.1977 35.8709 33.5764 33.6038Z" fill="#B3233B"/>
<path d="M29.7675 24.1333H26.2115C26.7586 25.8283 26.2536 26.5911 26.2536 26.5911C26.2536 26.5911 26.3588 27.6929 28 27.6929C29.6202 27.6929 29.7254 26.5911 29.7254 26.5911C29.7254 26.5911 29.2204 25.8072 29.7675 24.1333Z" fill="#E2A379"/>
<path d="M31.6404 19.1964C31.6404 14.9375 29.9991 13.9629 28.0002 13.9629C25.9802 13.9629 24.36 14.9375 24.36 19.1964C24.36 20.6371 24.6125 21.7601 24.9912 22.6288C25.8329 24.5358 27.2848 25.2138 28.0002 25.2138C28.7156 25.2138 30.1675 24.5358 31.0091 22.6288C31.3879 21.7601 31.6404 20.6371 31.6404 19.1964Z" fill="#F4B382"/>
<path d="M29.031 23.4763C29.031 23.4763 28.5681 23.7094 28 23.7094C27.4319 23.7094 26.9689 23.4763 26.9689 23.4763C26.9689 23.4128 27.3056 23.0314 27.516 23.0102C27.6423 22.989 28 23.1161 28 23.1161C28 23.1161 28.3366 22.989 28.4839 23.0102C28.6943 23.0314 29.031 23.4763 29.031 23.4763Z" fill="#D6876B"/>
<path d="M29.031 23.4766C29.031 23.4766 28.5681 23.9004 28 23.9004C27.4319 23.9004 26.9689 23.4766 26.9689 23.4766C26.9689 23.4766 27.0741 23.3495 27.6843 23.3071C27.7896 23.3071 27.9158 23.3919 28 23.3919C28.0841 23.3919 28.1893 23.3071 28.2735 23.3071C28.9048 23.3495 29.031 23.4766 29.031 23.4766Z" fill="#CC785E"/>
<path d="M27.9998 15.4882C29.0573 15.4882 29.9146 14.9 29.9146 14.1745C29.9146 13.449 29.0573 12.8608 27.9998 12.8608C26.9423 12.8608 26.085 13.449 26.085 14.1745C26.085 14.9 26.9423 15.4882 27.9998 15.4882Z" fill="#4C230C"/>
<path d="M31.7877 19.3873C31.7877 15.1285 30.6305 13.9844 28.0003 13.9844C25.3701 13.9844 24.2128 15.1497 24.2128 19.3873C24.2128 19.3873 29.8309 18.1584 29.8309 16.6117C29.8309 18.1584 31.7877 19.3873 31.7877 19.3873Z" fill="#602F0F"/>
<path d="M24.0017 20.701C24.1911 21.8663 24.4436 21.9087 24.8013 21.8451L24.4226 19.3237C24.0649 19.3873 23.7913 19.5356 24.0017 20.701Z" fill="#F4B382"/>
<path d="M31.5771 19.3242L31.1983 21.8456C31.556 21.9092 31.7875 21.8456 31.9979 20.7014C32.2083 19.5361 31.9348 19.3878 31.5771 19.3242Z" fill="#F4B382"/>
<path d="M24.6336 19.5577C24.6126 19.4306 24.6126 19.3247 24.6126 19.2187C24.6126 19.0916 24.6336 19.0068 24.6336 19.0068L24.2128 19.1763C24.2128 19.2399 24.2128 19.3035 24.2128 19.367C24.2128 19.367 24.2548 19.3458 24.339 19.3247C24.339 19.3247 24.339 19.3247 24.318 19.3247C24.3811 19.4306 24.4442 19.5789 24.5284 19.812C24.5284 19.8332 24.6967 19.9603 24.6336 19.5577Z" fill="#602F0F"/>
<path d="M31.3667 19.2389C31.3667 19.3237 31.3667 19.4508 31.3456 19.5567C31.2825 19.9381 31.4508 19.811 31.4508 19.811C31.5139 19.5779 31.5981 19.4296 31.6612 19.3237C31.7454 19.3449 31.7875 19.3661 31.7875 19.3661C31.7875 19.3025 31.7875 19.2389 31.7875 19.1754L31.3667 19.0059C31.3456 19.027 31.3667 19.1118 31.3667 19.2389Z" fill="#602F0F"/>
</svg>
