<svg width="56" height="56" viewBox="0 0 56 56" fill="none" xmlns="http://www.w3.org/2000/svg">
<path d="M21.349 40.8193C20.9879 42.3067 18.105 45.716 17.3093 48.9294C16.5136 52.1428 14.1265 54.1627 14.1265 55.0808C14.1265 55.4786 15.3935 56.207 16.483 55.9438C17.5725 55.6806 17.7622 52.8834 18.3192 51.7511C18.8762 50.6187 21.3123 46.781 21.9917 45.5874C22.6711 44.3939 24.5073 41.8109 24.5073 41.8109L21.349 40.8193Z" fill="#FFB884"/>
<path d="M33.6825 38.8306C34.0804 39.4916 36.0758 41.9705 35.7391 43.2069C35.4515 44.2536 34.4783 49.8663 34.7108 50.1969C35.1941 50.8778 35.7618 51.4948 36.4002 52.0331C36.798 52.229 37.5264 52.2963 37.4591 52.8961C37.3917 53.496 36.7368 54.157 35.5739 54.0224C34.4109 53.8877 32.3605 51.0415 32.0911 50.8396C31.8218 50.6376 31.7851 49.9704 32.4217 49.3277C33.2786 48.4647 32.6849 42.8703 32.9542 41.9828C33.2235 41.0953 31.2954 39.9262 31.2954 39.9262L33.6825 38.8306Z" fill="#FFB884"/>
<path d="M22.6835 33.9949C22.6835 33.9949 19.7762 41.6214 20.0455 42.2151C20.3148 42.8088 23.3507 43.9167 24.2137 43.3169C25.0768 42.717 28.0515 37.4287 28.0515 37.4287C28.0515 37.4287 31.5342 43.072 31.8647 43.2006C32.1952 43.3291 36.0697 42.2029 36.4676 41.805C36.8654 41.4072 31.8464 31.6568 31.779 31.3997C31.7117 31.1426 22.6835 33.9949 22.6835 33.9949Z" fill="#505366"/>
<path d="M28.6266 17.5846C27.4514 17.8478 27.3045 17.9152 26.4476 18.1967C25.8743 18.3787 25.3435 18.6743 24.8868 19.0659C23.3811 18.9802 21.7958 19.5984 20.2901 20.3941L19.4944 20.7981L19.8249 23.9992C20.4717 23.8687 21.1299 23.803 21.7897 23.8034C22.4018 24.0421 22.4814 32.5622 22.6833 33.9761C22.7262 34.2821 26.3558 35.4696 28.7552 34.2332C31.1545 32.9968 32.2807 33.009 32.6357 32.5989C32.9907 32.1888 31.1545 23.0505 31.332 21.8141C31.4911 20.7062 32.1583 19.7636 33.407 18.2824L31.5707 16.1401C30.6513 16.7387 29.6627 17.2238 28.6266 17.5846Z" fill="#A3B848"/>
<path d="M37.2142 14.5797C38.4078 13.429 39.2586 12.1314 39.6625 11.807C40.2298 11.4081 40.7622 10.9617 41.2539 10.4727C42.1292 9.07102 42.1476 8.75886 41.5477 7.18582C41.1682 6.18813 40.2379 9.45663 39.6748 9.32198C39.5768 9.32198 39.84 7.84075 39.7605 7.83462C39.534 7.83462 39.5401 7.83462 39.4728 7.91419C39.2524 8.13454 39.0382 10.1422 38.5975 10.7114C38.1568 11.2806 34.313 13.6922 33.7009 14.6287C33.0727 15.227 32.3665 15.7376 31.6015 16.1467L33.4377 18.2889L33.8906 17.7503C35.4025 15.9508 36.0207 15.7304 37.2142 14.5797Z" fill="#FFB884"/>
<path d="M16.8076 22.0414C16.8076 22.0414 16.2934 20.6336 15.8956 19.0422C15.4977 17.4508 15.8956 16.2144 16.2934 15.8594C16.6913 15.5044 16.5566 13.913 16.2506 13.4111C15.9446 12.9092 14.0838 14.5006 14.041 14.8188C14.0305 15.372 14.1522 15.9197 14.396 16.4164C14.6163 16.7285 14.2919 23.5287 14.6898 24.2326C14.953 24.7039 17.8114 24.2755 19.8251 23.9939L19.4946 20.7927C18.1725 21.4599 16.8076 22.0414 16.8076 22.0414Z" fill="#FFB884"/>
<g opacity="0.5">
<path d="M23.626 11.5867L23.6627 11.6234L30.671 5.40466L30.6343 5.36182L23.626 11.5867Z" fill="#505366"/>
</g>
<g opacity="0.5">
<path d="M23.2588 11.1704L23.2955 11.2132L30.3038 4.99451L30.2671 4.95166L23.2588 11.1704Z" fill="#505366"/>
</g>
<g opacity="0.5">
<rect x="22.8761" y="10.7383" width="9.37092" height="0.110174" transform="rotate(-41.59 22.8761 10.7383)" fill="#505366"/>
</g>
<g opacity="0.5">
<rect x="22.5307" y="10.3481" width="9.37092" height="0.0612079" transform="rotate(-41.65 22.5307 10.3481)" fill="#505366"/>
</g>
<g opacity="0.5">
<path d="M22.1632 9.93405L22.1999 9.9769L29.2082 3.75818L29.1715 3.71533L22.1632 9.93405Z" fill="#505366"/>
</g>
<g opacity="0.5">
<rect x="21.7761" y="9.49854" width="9.37092" height="0.110174" transform="rotate(-41.59 21.7761 9.49854)" fill="#505366"/>
</g>
<g opacity="0.5">
<rect x="21.4339" y="9.12256" width="9.37092" height="0.0612079" transform="rotate(-41.7 21.4339 9.12256)" fill="#505366"/>
</g>
<g opacity="0.5">
<path d="M21.0676 8.69723L21.1043 8.74008L28.1065 2.51524L28.0698 2.47852L21.0676 8.69723Z" fill="#505366"/>
</g>
<g opacity="0.5">
<rect x="20.6789" y="8.25537" width="9.37092" height="0.110174" transform="rotate(-41.57 20.6789 8.25537)" fill="#505366"/>
</g>
<g opacity="0.5">
<path d="M20.333 7.87106L20.3698 7.91391L27.3781 1.69519L27.3413 1.65234L20.333 7.87106Z" fill="#505366"/>
</g>
<g opacity="0.5">
<rect x="19.9675" y="7.46436" width="9.37092" height="0.0612079" transform="rotate(-41.65 19.9675 7.46436)" fill="#505366"/>
</g>
<g opacity="0.5">
<path d="M19.2313 6.63473L19.268 6.67758L26.2763 0.45274L26.2396 0.416016L19.2313 6.63473Z" fill="#505366"/>
</g>
<g opacity="0.5">
<path d="M19.4884 5.30674L25.7071 12.315L25.75 12.2783L19.5313 5.27002L19.4884 5.30674Z" fill="#505366"/>
</g>
<g opacity="0.5">
<rect x="19.8761" y="4.94775" width="0.110174" height="9.37092" transform="rotate(-41.6 19.8761 4.94775)" fill="#505366"/>
</g>
<g opacity="0.5">
<path d="M20.3147 4.57237L26.5334 11.5807L26.5763 11.5439L20.3576 4.53564L20.3147 4.57237Z" fill="#505366"/>
</g>
<g opacity="0.5">
<path d="M20.7248 4.21104L26.9496 11.2132L26.9863 11.1765L20.7676 4.17432L20.7248 4.21104Z" fill="#505366"/>
</g>
<g opacity="0.5">
<rect x="21.1096" y="3.84766" width="0.110174" height="9.37092" transform="rotate(-41.6 21.1096 3.84766)" fill="#505366"/>
</g>
<g opacity="0.5">
<path d="M21.5511 3.47667L27.7698 10.485L27.8127 10.4482L21.594 3.43994L21.5511 3.47667Z" fill="#505366"/>
</g>
<g opacity="0.5">
<path d="M21.9612 3.10948L28.186 10.1178L28.2288 10.0811L22.004 3.07275L21.9612 3.10948Z" fill="#505366"/>
</g>
<g opacity="0.5">
<rect x="22.363" y="2.7749" width="0.110174" height="9.37092" transform="rotate(-41.59 22.363 2.7749)" fill="#505366"/>
</g>
<g opacity="0.5">
<path d="M22.7875 2.37462L29.0123 9.38292L29.0491 9.34619L22.8304 2.33789L22.7875 2.37462Z" fill="#505366"/>
</g>
<g opacity="0.5">
<path d="M23.2037 2.01378L29.4224 9.01596L29.4652 8.98535L23.2404 1.97705L23.2037 2.01378Z" fill="#505366"/>
</g>
<g opacity="0.5">
<path d="M23.5955 1.66476L29.8142 8.67306L29.8999 8.59961L23.675 1.59131L23.5955 1.66476Z" fill="#505366"/>
</g>
<g opacity="0.5">
<path d="M24.0238 1.27891L30.2487 8.28721L30.2915 8.25049L24.0667 1.24219L24.0238 1.27891Z" fill="#505366"/>
</g>
<g opacity="0.5">
<path d="M24.4401 0.911725L30.6588 7.92003L30.7016 7.8833L24.4829 0.875L24.4401 0.911725Z" fill="#505366"/>
</g>
<g opacity="0.5">
<rect x="24.8455" y="0.581543" width="0.110174" height="9.37092" transform="rotate(-41.59 24.8455 0.581543)" fill="#505366"/>
</g>
<path fill-rule="evenodd" clip-rule="evenodd" d="M28.7001 3.39112C27.3719 1.89765 24.7644 2.0323 22.8915 3.69716C21.0185 5.36201 20.5533 7.94498 21.8815 9.43845C23.2097 10.9319 25.7927 10.8279 27.6902 9.13241C29.5876 7.43696 30.0283 4.88459 28.7001 3.39112ZM22.108 9.24874C20.8777 7.86544 21.3123 5.46609 23.0751 3.90529C24.8379 2.34449 27.2678 2.19759 28.4981 3.58089C29.7284 4.96419 29.2816 7.37578 27.531 8.92434C25.7805 10.4729 23.3383 10.632 22.108 9.24874Z" fill="#995F36"/>
<path d="M20.0393 11.0482L20.2229 11.2563C21.4042 10.2097 23.4914 10.3749 23.5097 10.3811V10.1056C23.4485 10.0934 21.3124 9.92199 20.0393 11.0482Z" fill="#995F36"/>
<path d="M19.8985 10.8827L20.0821 11.0908C21.3491 9.96456 21.4348 7.82228 21.4348 7.73047H21.1594C21.1594 7.73047 21.0737 9.83602 19.8985 10.8827Z" fill="#995F36"/>
<rect x="14.6671" y="16.5283" width="1.00381" height="8.01823" rx="0.32" transform="rotate(-131.65 14.6671 16.5283)" fill="#404352"/>
<rect x="15.4068" y="15.8652" width="1.00381" height="0.471301" transform="rotate(-131.58 15.4068 15.8652)" fill="#35AFD4"/>
<rect x="15.9893" y="15.3491" width="1.00381" height="0.23259" transform="rotate(-131.6 15.9893 15.3491)" fill="#35AFD4"/>
<g style="mix-blend-mode:multiply" opacity="0.3">
<path d="M20.0576 10.5462L14.4816 15.4979C14.4061 15.5742 14.4061 15.6971 14.4816 15.7734L14.8917 16.2324C14.912 16.2543 14.9372 16.2711 14.9651 16.2814L14.8366 16.3977C14.7603 16.4731 14.6375 16.4731 14.5612 16.3977L14.1511 15.9386C14.0756 15.8623 14.0756 15.7395 14.1511 15.6632L19.8557 10.6013C19.9067 10.5455 19.9853 10.524 20.0576 10.5462Z" fill="#404352"/>
</g>
<path d="M24.7769 17.9951C24.8993 18.6072 24.8564 19.1213 24.8993 19.2805C24.9421 19.4396 26.6988 21.5513 27.9597 21.1718C28.6207 20.9698 27.9597 19.1458 27.9597 19.1458L24.7769 17.9951Z" fill="#FFB884"/>
<g style="mix-blend-mode:multiply" opacity="0.3">
<path d="M24.8441 18.4542C24.8441 18.5521 24.8441 18.6439 24.8441 18.7296C24.8441 18.8153 24.8441 18.7296 24.8441 18.7296C24.8441 18.7296 24.8441 18.7847 24.8441 18.8153C24.8441 18.8459 24.8441 18.9255 24.8441 18.9683C25.5784 20.0256 26.9581 20.4154 28.1371 19.8987C28.0804 19.6311 28.0068 19.3674 27.9167 19.1091L25.0706 18.0747L24.8441 18.4542Z" fill="#FFB884"/>
</g>
<path d="M27.6902 13.8452C27.9718 14.3594 28.5104 14.3777 28.4981 15.3877C28.5592 15.5701 28.6525 15.7401 28.7736 15.8896C28.9756 16.3364 29.2877 18.5276 28.4981 19.1213C27.2039 19.7842 25.6273 19.5123 24.6298 18.4542C24.0606 17.7625 23.4057 17.1443 23.4057 16.6179C23.5045 16.0859 23.8134 15.616 24.2626 15.3142L27.6902 13.8452Z" fill="#FFB884"/>
<path d="M24.4033 18.1848C24.1462 17.5727 23.7912 17.4993 23.8952 17.181C23.9993 16.8627 24.6787 17.0586 25.0827 17.6278C25.3227 17.2271 25.4178 16.756 25.352 16.2935C25.1622 15.7671 26.4599 15.3754 27.023 15.1734C27.5861 14.9714 28.5226 14.7082 27.9656 13.7228C27.213 12.5779 25.7468 12.139 24.489 12.6822C23.4644 13.0979 22.7438 14.0338 22.6038 15.1305C22.4997 15.608 23.2954 17.2789 23.9626 17.9094C24.3128 18.1917 24.6128 18.531 24.8501 18.9132C24.846 18.7317 24.7999 18.5536 24.7154 18.3929C24.6149 18.3184 24.5107 18.2489 24.4033 18.1848Z" fill="#30221B"/>
<path d="M32.1647 15.7852C32.9983 16.9482 33.7372 18.1763 34.3743 19.4576C34.3743 19.4576 31.2404 20.339 31.3139 21.8509C31.3873 23.3627 30.004 17.0277 30.004 17.0277L32.1647 15.7852Z" fill="#A3B848"/>
<path d="M18.8518 21.1229C18.9314 21.0861 19.4639 24.4648 19.4639 24.4648L21.9734 24.2873L23.4791 21.1229L20.2657 20.4067L18.8518 21.1229Z" fill="#A3B848"/>
<path d="M25.3654 17.6109C25.4884 17.5882 25.5697 17.4701 25.547 17.3471C25.5243 17.2241 25.4062 17.1428 25.2832 17.1655C25.1602 17.1882 25.0789 17.3063 25.1016 17.4293C25.1243 17.5523 25.2424 17.6336 25.3654 17.6109Z" fill="#30221B"/>
<path d="M25.4804 17.15C25.6034 17.1273 25.6847 17.0093 25.6621 16.8863C25.6394 16.7632 25.5213 16.6819 25.3983 16.7046C25.2753 16.7272 25.1939 16.8453 25.2166 16.9683C25.2393 17.0913 25.3574 17.1727 25.4804 17.15Z" fill="#30221B"/>
<path d="M26.9312 14.782C26.8719 14.7924 26.8192 14.826 26.7847 14.8754C26.7503 14.9248 26.7369 14.9859 26.7476 15.0451C26.6474 14.9706 26.5155 14.9541 26.4001 15.0018C26.2847 15.0495 26.2028 15.1542 26.1845 15.2777C26.1308 15.182 26.0359 15.1165 25.9274 15.1002C25.7889 15.0833 25.6531 15.1477 25.5785 15.2655C25.4874 15.2084 25.3785 15.1867 25.2725 15.2043C25.0279 15.2507 24.8666 15.4858 24.9113 15.7307C24.9305 15.8285 24.9823 15.917 25.0582 15.9816C24.9703 16.0624 24.9289 16.182 24.9481 16.2999C24.9659 16.4315 25.0546 16.5427 25.179 16.5894C25.3033 16.6361 25.4432 16.6107 25.5433 16.5234C25.6434 16.4361 25.6875 16.3009 25.6581 16.1714C25.6484 16.1205 25.6275 16.0724 25.5969 16.0306C25.6808 15.9755 25.7434 15.8935 25.7744 15.798H25.8356C25.8912 15.6457 26.025 15.5355 26.1852 15.5101C26.3453 15.4847 26.5067 15.548 26.6068 15.6756C26.701 15.6578 26.7842 15.6033 26.8382 15.5241C26.8921 15.4448 26.9124 15.3474 26.8945 15.2533C26.8855 15.2185 26.871 15.1855 26.8516 15.1553C26.8991 15.1721 26.951 15.1721 26.9985 15.1553C27.1026 15.1993 27.2232 15.1598 27.2811 15.0627C27.339 14.9656 27.3165 14.8408 27.2283 14.77C27.1402 14.6993 27.0134 14.7044 26.9312 14.782Z" fill="#30221B"/>
<path d="M28.3024 14.133C28.3355 14.0848 28.3487 14.0255 28.3391 13.9678C28.3258 13.9017 28.2829 13.8453 28.2228 13.8148C28.2264 13.7945 28.2264 13.7738 28.2228 13.7536C28.219 13.725 28.2085 13.6977 28.1922 13.674C28.2895 13.6446 28.3565 13.5553 28.3575 13.4536C28.3618 13.3619 28.3104 13.2766 28.2272 13.2377C28.144 13.1988 28.0456 13.214 27.978 13.2761C28.0565 13.1975 28.0929 13.0861 28.0759 12.9762C28.039 12.7937 27.8694 12.6691 27.6842 12.6885C27.7067 12.617 27.6923 12.5389 27.6457 12.48C27.5991 12.4212 27.5264 12.3893 27.4516 12.3947C27.4082 12.3953 27.3657 12.408 27.3292 12.4315C27.2908 12.2941 27.1657 12.1991 27.0231 12.1989C26.9867 12.1925 26.9494 12.1925 26.913 12.1989C26.9136 12.1866 26.9136 12.1744 26.913 12.1622C26.913 12.01 26.7896 11.8867 26.6375 11.8867C26.5419 11.8882 26.4538 11.9391 26.4049 12.0214C26.2926 11.9635 26.1551 11.9915 26.0744 12.0887C26.0319 12.0806 25.9883 12.0806 25.9459 12.0887C25.8275 12.1108 25.7284 12.1915 25.6827 12.3029C25.6155 12.0897 25.4011 11.959 25.1808 11.9969C25.0011 12.0297 24.8586 12.1673 24.8196 12.3458C24.7576 12.3286 24.692 12.3286 24.6299 12.3458C24.604 12.3549 24.5793 12.3672 24.5565 12.3825C24.5572 12.3723 24.5572 12.3621 24.5565 12.3519C24.5565 12.2302 24.4578 12.1316 24.3361 12.1316C24.2224 12.1314 24.1284 12.22 24.1219 12.3335C23.9972 12.2712 23.8472 12.2905 23.7424 12.3825C23.7078 12.2801 23.6041 12.2179 23.4976 12.2356C23.3846 12.2571 23.3057 12.3597 23.3139 12.4743H23.2711C23.2118 12.4848 23.1591 12.5184 23.1246 12.5678C23.0902 12.6172 23.0768 12.6782 23.0875 12.7375C23.1003 12.8071 23.1459 12.8664 23.2099 12.8966C23.2053 12.9291 23.2053 12.9621 23.2099 12.9946H23.1364C23.1067 13.0593 23.0489 13.1068 22.9797 13.1235C22.9105 13.1402 22.8374 13.1243 22.7814 13.0803C22.5837 13.0532 22.4014 13.1916 22.3744 13.3894C22.3474 13.5871 22.4857 13.7694 22.6835 13.7964C22.5793 13.8775 22.5277 14.0089 22.5488 14.1392C22.5475 14.1575 22.5475 14.1759 22.5488 14.1943C22.5184 14.1901 22.4875 14.1901 22.457 14.1943C22.3628 14.2121 22.2796 14.2666 22.2256 14.3458C22.1717 14.425 22.1514 14.5224 22.1693 14.6166C22.1828 14.6814 22.2147 14.7409 22.2612 14.788C22.1857 14.8683 22.1517 14.9791 22.1693 15.0879C22.1817 15.1469 22.2091 15.2018 22.2489 15.247C22.094 15.2888 21.9863 15.4293 21.9863 15.5898C21.9863 15.7503 22.094 15.8908 22.2489 15.9326C22.1533 16.0299 22.1288 16.1767 22.1877 16.2998C22.066 16.2829 21.9537 16.3679 21.9368 16.4896C21.9199 16.6112 22.0048 16.7236 22.1265 16.7405C22.125 16.7547 22.125 16.7691 22.1265 16.7833C22.1121 16.9065 22.1994 17.0184 22.3224 17.0343C22.3907 17.0417 22.4586 17.0168 22.506 16.967C22.5316 16.9896 22.5605 17.0081 22.5917 17.0221C22.5895 17.0444 22.5895 17.067 22.5917 17.0894C22.5664 17.2871 22.7061 17.4679 22.9038 17.4934C22.9713 17.5004 23.0394 17.4877 23.0997 17.4566C23.1291 17.4893 23.1674 17.5127 23.2099 17.524C23.2077 17.5464 23.2077 17.5689 23.2099 17.5913C23.1918 17.7411 23.2704 17.8859 23.4057 17.9524C23.3805 18.1502 23.5202 18.331 23.7179 18.3564C23.79 18.3641 23.8628 18.3491 23.926 18.3135C23.9802 18.4108 24.0971 18.4542 24.2017 18.4159C24.3062 18.3776 24.3674 18.269 24.3461 18.1597C24.3247 18.0505 24.227 17.9729 24.1158 17.9769C24.1085 17.8524 24.0365 17.7409 23.926 17.6831C23.9513 17.4854 23.8116 17.3046 23.6139 17.2791C23.5794 17.2737 23.5443 17.2737 23.5098 17.2791C23.4994 17.1778 23.421 17.0969 23.3201 17.0833C23.3053 16.9625 23.2288 16.8582 23.1181 16.8078C23.2429 16.8065 23.3554 16.7323 23.4057 16.6181C23.4791 16.7528 23.6197 16.8371 23.773 16.8384C23.9883 16.8126 24.1503 16.6299 24.1503 16.413C24.1503 16.1962 23.9883 16.0135 23.773 15.9876C23.58 15.9908 23.4137 16.1243 23.369 16.312C23.2809 16.182 23.1074 16.1419 22.9712 16.2202C22.9869 16.0851 22.9254 15.9526 22.812 15.8775C23.0053 15.8956 23.1783 15.7577 23.2038 15.5653C23.2163 15.4462 23.168 15.3289 23.0752 15.2532C23.1834 15.1697 23.2467 15.0408 23.2467 14.9043C23.2467 14.7677 23.1834 14.6388 23.0752 14.5554C23.2419 14.5425 23.3771 14.415 23.3996 14.2493C23.4122 14.1505 23.3834 14.0508 23.3201 13.9739V13.9249C23.3987 13.8706 23.4333 13.7717 23.4057 13.6801C23.5174 13.6277 23.5939 13.5211 23.6077 13.3986H23.6812C23.8553 13.3652 23.9781 13.2084 23.9689 13.0313C24.0212 13.0433 24.0756 13.0433 24.128 13.0313C24.1653 12.8704 24.3087 12.7565 24.4738 12.7565C24.639 12.7565 24.7823 12.8704 24.8196 13.0313C24.938 13.0092 25.0371 12.9285 25.0828 12.8171C25.1986 12.8923 25.3429 12.909 25.4727 12.8621C25.6026 12.8152 25.7029 12.7102 25.7439 12.5784C25.7981 12.6942 25.9113 12.7711 26.039 12.7788C26.1667 12.7864 26.2883 12.7236 26.356 12.6151C26.4009 12.6695 26.4692 12.6991 26.5396 12.6947C26.5824 12.7607 26.6515 12.8053 26.7293 12.8171C26.7248 12.8434 26.7248 12.8703 26.7293 12.8966C26.7536 12.9987 26.8448 13.0708 26.9497 13.0708C27.0546 13.0708 27.1458 12.9987 27.17 12.8966C27.1937 13.0013 27.2894 13.0737 27.3965 13.068C27.4144 13.1629 27.4695 13.2467 27.5495 13.3006C27.5103 13.3703 27.5131 13.456 27.5569 13.523C27.6006 13.5899 27.6781 13.6269 27.7576 13.6189C27.7798 13.6642 27.8164 13.7008 27.8617 13.723C27.8646 13.7721 27.8866 13.8182 27.9229 13.8515C27.9046 13.9009 27.9046 13.9551 27.9229 14.0045C27.9291 14.0353 27.9416 14.0645 27.9596 14.0902C27.8304 14.1669 27.7621 14.3156 27.7882 14.4636C27.797 14.5003 27.8114 14.5354 27.8311 14.5676C27.6553 14.4295 27.4035 14.4472 27.2488 14.6086C27.0941 14.77 27.0871 15.0224 27.2326 15.1921C27.3781 15.3618 27.6286 15.3935 27.8117 15.2653C27.9948 15.1372 28.0509 14.891 27.9413 14.6962C28.0612 14.7766 28.2176 14.7778 28.3388 14.6992C28.46 14.6206 28.5227 14.4774 28.4982 14.335C28.4636 14.2436 28.3927 14.1705 28.3024 14.133Z" fill="#30221B"/>
<path d="M16.4831 55.9439C17.4869 55.6991 17.7072 53.3181 18.1724 52.0572C17.4563 52.7183 16.1709 51.7022 16.3362 51.4146C15.3507 53.2508 14.1388 54.4199 14.1388 55.087C14.1266 55.4788 15.3936 56.2071 16.4831 55.9439Z" fill="#505366"/>
<path d="M32.4217 49.3271C31.8097 49.9392 31.8097 50.6431 32.0912 50.839C32.3728 51.0348 34.411 53.8994 35.574 54.0218C36.7369 54.1442 37.4102 53.4893 37.4592 52.8956C37.5081 52.3019 36.7981 52.2345 36.4003 52.0325C35.7618 51.4944 35.1941 50.8774 34.7109 50.1963C32.6849 50.0433 32.4217 49.3271 32.4217 49.3271Z" fill="#505366"/>
<path d="M39.7667 2.95022C40.5814 2.95022 41.2418 2.28979 41.2418 1.47511C41.2418 0.660429 40.5814 0 39.7667 0C38.952 0 38.2916 0.660429 38.2916 1.47511C38.2916 2.28979 38.952 2.95022 39.7667 2.95022Z" fill="#A3B848"/>
<g style="mix-blend-mode:multiply">
<path d="M40.2194 0.917753C39.8447 0.75904 39.5645 0.435895 39.4604 0.0424805L39.3196 0.0914468C39.4294 0.522991 39.732 0.879813 40.1398 1.05853C40.656 1.27988 40.9839 1.7948 40.9661 2.35614C41.0202 2.28315 41.0673 2.20528 41.1069 2.12355C41.0379 1.59581 40.7028 1.14046 40.2194 0.917753Z" fill="#A3B848"/>
<path d="M39.6318 2.93746C39.3259 2.60892 39.1941 2.15458 39.2768 1.71331C39.3761 1.20477 39.188 0.682807 38.7872 0.354492L38.6709 0.464666C39.0366 0.757323 39.2089 1.22936 39.1177 1.68882C39.07 2.09358 39.1582 2.50272 39.3686 2.85177C39.4535 2.88856 39.5416 2.91725 39.6318 2.93746Z" fill="#A3B848"/>
</g>
</svg>
