<svg width="56" height="56" viewBox="0 0 56 56" fill="none" xmlns="http://www.w3.org/2000/svg">
<path d="M31.3147 31.7117C31.3147 31.7117 32.1859 37.4485 31.3147 39.4744C30.4436 41.5004 28.255 40.9246 22.4329 38.2162C16.6109 35.5078 15.5485 35.5931 15.5485 35.5931L14.8048 33.4818L16.9509 32.6927C16.9509 32.6927 23.7503 34.7401 26.4489 35.1239L25.1527 30.1763L31.3147 31.7117Z" fill="#F29A46"/>
<path d="M18.757 33.4819C21.668 34.3136 25.0465 35.3586 24.9615 35.8278C24.919 36.0837 23.9203 36.0624 23.6016 36.0624C20.5843 36.0197 18.162 33.6952 18.3108 33.4392C18.332 33.3966 18.417 33.3753 18.757 33.4819Z" fill="#FFAD61"/>
<path d="M31.3147 31.7115L29.5511 31.2637C29.6574 31.8395 30.1673 32.7778 30.571 34.5905C30.8898 36.062 31.1447 37.2563 30.826 38.6212C30.6773 39.2183 30.401 39.9647 29.9973 40.6258C30.6348 40.4979 31.0385 40.114 31.336 39.4742C32.2072 37.4482 31.3147 31.7115 31.3147 31.7115Z" fill="#D98C41"/>
<path d="M25.8964 39.73C25.3864 39.1755 24.7277 38.5997 23.7928 38.1305C23.0704 37.7893 22.9216 37.8533 21.5192 37.2348C19.9256 36.5097 19.7769 36.2538 18.5445 35.806C17.9283 35.5714 16.9509 35.2728 15.7185 35.2088C15.6122 35.2088 15.506 35.2088 15.421 35.1875L15.5697 35.5927C15.5697 35.5927 16.6321 35.5074 22.4542 38.2158C23.7716 38.8343 24.8977 39.3248 25.8964 39.73Z" fill="#D98C41"/>
<path d="M19.5857 32.6503C19.5857 32.6503 23.0279 38.1311 25.3865 41.1807C27.745 44.2304 26.8738 44.3583 28.4887 46.235C30.1036 48.1117 33.7583 51.0974 33.7583 51.0974L36.3719 51.9077V50.095C36.3719 50.095 33.1421 45.0407 31.3147 42.8655C29.4874 40.6902 26.9801 32.4583 26.9801 32.4583C26.9801 32.4583 24.1753 30.7523 19.5857 32.6503Z" fill="#F29A46"/>
<path d="M26.9801 32.4582C26.9801 32.4582 25.6414 31.6051 23.0704 31.8184C24.9402 34.1003 26.4276 36.041 27.3626 37.6831C28.425 39.5385 28.6162 40.1143 28.8712 40.6687C29.0624 41.0953 29.7849 41.5005 29.6999 42.0763C29.6149 42.8013 28.9987 43.2279 29.0624 43.3345C29.1262 43.4411 29.4661 42.844 30.2098 42.9506C31.1235 43.0786 31.9947 44.9126 33.0784 46.832C34.332 49.0499 35.4794 50.1802 36.3506 50.7986V49.6257C36.3506 49.6257 33.1209 45.0193 31.2935 42.8227C29.4874 40.6901 26.9801 32.4582 26.9801 32.4582Z" fill="#D98C41"/>
<path d="M21.4343 34.7399C22.0292 35.9768 22.5604 36.5526 23.7503 38.2374C25.2377 40.3486 25.7902 41.3723 25.9389 41.351C26.1089 41.3296 25.6414 39.9861 25.1315 38.8771C23.6441 35.6569 21.1155 32.7139 20.7968 32.8845C20.5843 32.9911 21.2643 34.3773 21.4343 34.7399Z" fill="#FFAD61"/>
<path d="M17.6095 25.2714C17.6095 25.2714 17.5671 27.276 18.502 29.0247C19.4369 30.7735 19.3094 32.7568 19.3094 32.7568C19.3094 32.7568 23.4953 30.7522 27.0013 32.4369V29.8778V32.4582L27.1288 32.8634C27.1288 32.8634 28.1912 31.6692 31.336 31.6692C31.336 31.6692 31.2297 29.8565 31.0597 29.1101C30.8685 28.3636 29.6574 24.333 29.6574 24.333L17.6095 25.2714Z" fill="#7E22BC"/>
<path d="M31.0385 29.1525C30.8473 28.4061 29.6361 24.3755 29.6361 24.3755L20.1806 25.0792C20.1169 25.2499 20.0744 25.4205 20.0956 25.6337C20.2656 27.0626 22.5179 26.9986 24.1965 29.0033C25.1527 30.1335 25.2165 31.1359 25.4077 31.9463C25.9389 32.0529 26.4701 32.2235 26.9801 32.4581V32.5007L27.1076 32.9059C27.1076 32.9059 28.17 31.7117 31.3147 31.7117C31.3147 31.7117 31.2297 29.8989 31.0385 29.1525Z" fill="#570096"/>
<path d="M19.9894 32.5009L19.7769 32.5862C19.8194 32.2236 19.9044 30.9227 19.6282 29.9844C19.4582 29.3659 19.2244 29.0247 19.012 28.6835C18.7782 28.2996 18.5232 27.9158 18.3745 27.1693C18.2258 26.4016 18.0983 25.7832 18.1195 25.25L18.332 25.2713C18.2895 25.7832 18.417 26.3803 18.5657 27.148C18.7145 27.8518 18.9482 28.193 19.1819 28.5769C19.4157 28.9394 19.6494 29.302 19.8194 29.9417C20.1169 30.8801 20.0319 32.117 19.9894 32.5009Z" fill="#6A0094"/>
<path d="M26.9801 32.4582L26.7676 32.3729C26.7676 30.7948 25.6839 28.5342 25.6839 28.4916L25.8752 28.4062C25.9389 28.5129 27.0013 30.8374 26.9801 32.4582Z" fill="#3D006B"/>
<path d="M34.5445 47.4517C34.5657 47.4297 34.6082 47.4297 34.6295 47.4077C34.6082 47.4077 34.5657 47.4297 34.5445 47.4517Z" fill="white"/>
<path d="M34.417 47.4941C34.4382 47.4722 34.4807 47.4722 34.502 47.4502C34.4807 47.4722 34.4595 47.4941 34.417 47.4941Z" fill="white"/>
<path d="M34.0345 47.7276C34.077 47.7062 34.1195 47.6849 34.1408 47.6636C34.0983 47.6849 34.077 47.7062 34.0345 47.7276Z" fill="white"/>
<path d="M34.162 47.6421C34.2045 47.6208 34.2257 47.5994 34.2682 47.5781C34.247 47.5994 34.2045 47.6208 34.162 47.6421Z" fill="white"/>
<path d="M34.2895 47.5781C34.332 47.5568 34.3532 47.5355 34.3957 47.5142C34.3745 47.5355 34.332 47.5568 34.2895 47.5781Z" fill="white"/>
<path d="M33.8858 47.8338C33.9283 47.8125 33.9708 47.7699 34.0133 47.7485C33.9708 47.7699 33.9283 47.8125 33.8858 47.8338Z" fill="white"/>
<path d="M33.7583 47.9408C33.8008 47.8981 33.8433 47.8768 33.8858 47.8555C32.9084 48.5379 31.8247 49.6895 31.9947 49.9454C32.0372 50.0094 32.1647 50.0094 32.3134 50.1587C32.4621 50.308 32.4409 50.3933 32.5471 50.5426C32.6959 50.7558 32.9296 50.7558 33.2483 50.8625C33.4396 50.9478 33.7158 51.0757 33.992 51.3316C34.2258 51.4383 35.0119 51.7795 35.5644 51.4383C35.8194 51.289 35.7556 51.1397 36.1169 50.6492C35.4582 50.116 34.6507 49.2843 33.7583 47.9408Z" fill="white"/>
<path d="M36.2231 50.521C36.1806 50.5636 36.1593 50.6063 36.1169 50.649C36.1593 50.6063 36.2018 50.5636 36.2231 50.521Z" fill="#CCCCCC"/>
<path d="M34.5232 47.4515C34.5232 47.4515 34.5459 47.4515 34.5459 47.4287C34.5459 47.4515 34.5232 47.4515 34.5232 47.4515Z" fill="#CCCCCC"/>
<path d="M36.3718 50.3506C36.3293 50.4146 36.2868 50.4572 36.2443 50.4999C36.2868 50.4572 36.3293 50.3932 36.3718 50.3506Z" fill="#CCCCCC"/>
<path d="M34.2682 47.5795C34.2682 47.5795 34.2909 47.5795 34.2909 47.5566C34.2909 47.5795 34.2909 47.5795 34.2682 47.5795Z" fill="#CCCCCC"/>
<path d="M34.3957 47.5155C34.3957 47.5155 34.4184 47.5155 34.4184 47.4927C34.4184 47.5155 34.4184 47.5155 34.3957 47.5155Z" fill="#CCCCCC"/>
<path d="M36.2444 49.071C35.9894 48.8364 36.2444 48.5805 36.0106 48.3886C35.8406 48.218 35.6919 48.3246 35.6069 48.1327C35.5219 47.9834 35.5857 47.8981 35.5007 47.7061C35.5007 47.7061 35.4157 47.4929 35.1819 47.3436C35.0757 47.2796 34.927 47.3009 34.757 47.3436C34.7357 47.3436 34.6932 47.3649 34.672 47.3863H34.6507C34.6295 47.4076 34.587 47.4076 34.5657 47.4289C34.5657 47.4289 34.5445 47.4289 34.5445 47.4502C34.5232 47.4716 34.4807 47.4716 34.4595 47.4929C34.4595 47.4929 34.4382 47.4929 34.4382 47.5142C34.3957 47.5355 34.3745 47.5569 34.332 47.5782C34.332 47.5782 34.3108 47.5782 34.3108 47.5995C34.2683 47.6208 34.247 47.6422 34.2045 47.6635C34.2045 47.6635 34.1833 47.6635 34.1833 47.6848C34.1408 47.7061 34.0983 47.7275 34.077 47.7488C34.077 47.7488 34.077 47.7488 34.0558 47.7488C34.0133 47.7701 33.9708 47.8128 33.9283 47.8341C33.8858 47.8554 33.8433 47.8981 33.8008 47.9194C34.6932 49.2843 35.5007 50.0947 36.1806 50.6278C36.2019 50.5852 36.2444 50.5425 36.2869 50.4999C36.2869 50.4999 36.2869 50.4785 36.3081 50.4785C36.3506 50.4359 36.3931 50.3719 36.4356 50.3293C36.4356 50.3293 36.4356 50.3079 36.4568 50.3079C36.5843 50.1373 36.4568 49.8388 36.4568 49.6468C36.3718 49.4975 36.4993 49.3056 36.2444 49.071Z" fill="#CCCCCC"/>
<path d="M36.3719 50.3296V49.6684C36.3719 49.6684 35.6707 48.6661 34.7357 47.3652C34.4595 47.4505 34.1195 47.6638 33.7583 47.941C34.6507 49.3059 35.4582 50.1163 36.1381 50.6494C36.2019 50.5641 36.2656 50.4575 36.3719 50.3296C36.3719 50.3509 36.3719 50.3296 36.3719 50.3296Z" fill="#CCCCCC"/>
<path d="M33.6096 51.5237C33.6096 51.5237 33.5671 49.8389 35.7131 51.0971C35.7131 51.0971 36.3506 50.3934 36.3718 49.647C36.3718 49.647 36.7543 49.8176 37.0305 50.8199C37.3068 51.8222 36.8606 51.9715 37.2643 53.0378C37.668 54.1041 38.1992 54.7226 36.0531 54.9145C33.907 55.1065 33.6733 54.9785 33.9495 53.9122C34.247 52.8459 33.7158 52.1848 33.6096 51.5237Z" fill="#23201E"/>
<path d="M36.3718 49.6685C36.3506 50.0097 36.2231 50.3509 36.0744 50.6068C36.3718 50.8414 36.6481 51.0333 36.8818 51.1613C36.9668 51.2253 37.0518 51.2679 37.1368 51.3106C37.1155 51.1826 37.0943 51.012 37.0518 50.8414C36.7543 49.8177 36.3718 49.6685 36.3718 49.6685Z" fill="black"/>
<path d="M35.8619 54.3176C36.1169 54.0403 36.1381 53.6351 36.1806 52.9954C36.2231 52.5475 36.2656 51.929 36.0106 51.2893C35.9681 51.1826 35.9256 51.0547 35.8619 50.948C35.7769 51.0547 35.7131 51.14 35.7131 51.14C33.5671 49.8817 33.6096 51.5665 33.6096 51.5665C33.7158 52.2063 34.247 52.8674 33.9495 53.955C33.8645 54.2749 33.822 54.5095 33.8645 54.6801C34.6507 54.8294 35.4794 54.7441 35.8619 54.3176Z" fill="#4D4D4D"/>
<path d="M15.336 35.5933C15.8459 35.5506 16.1009 35.7426 16.2284 35.8492C16.2709 35.8705 16.3772 35.9772 16.5684 36.0625C16.5896 36.0838 16.6746 36.1051 16.8234 36.1478C17.0571 36.2117 17.2483 36.2757 17.3758 36.2331C17.6521 36.1478 17.4821 35.5506 17.8008 34.8682C18.0983 34.1858 18.5445 34.1431 18.587 33.5673C18.587 33.5033 18.6082 33.0981 18.3745 32.9275C18.1833 32.7996 17.992 32.9489 17.6521 32.7996C17.4183 32.6929 17.4183 32.5863 17.2696 32.5437C16.7596 32.3944 16.0372 33.5886 15.9947 33.6526C15.7397 34.0365 15.421 34.6123 15.336 35.5933Z" fill="white"/>
<path d="M17.0784 32.7353C17.0784 32.7353 15.6972 30.752 15.0598 31.0932C14.4223 31.4344 13.6786 33.8229 13.1899 34.3347C12.7012 34.8466 11.5113 37.7682 12.9137 37.7682C14.3161 37.7682 14.2311 36.7659 14.6773 36.446C15.2935 35.9555 15.846 35.6143 15.846 35.6143C15.846 35.6143 14.9535 35.2731 15.846 34.42C16.7384 33.567 17.0784 32.7353 17.0784 32.7353Z" fill="#23201E"/>
<path d="M13.8274 32.6501L13.4874 32.2449L13.6574 31.8823H14.1673L13.8274 32.6501Z" fill="#7E22BC"/>
<path d="M13.5299 33.3963L13.1474 33.0551L13.2749 32.7778L13.7636 32.7992L13.5299 33.3963Z" fill="#7E22BC"/>
<path d="M14.3373 31.4559L14.1248 30.9867L14.3373 30.7734L14.7835 31.008L14.3373 31.4559Z" fill="#7E22BC"/>
<path d="M12.34 35.9771L12 35.5505L12.17 35.188H12.6799L12.34 35.9771Z" fill="#7E22BC"/>
<path d="M13.1899 34.3563C13.6786 33.8445 14.4011 31.456 15.0598 31.1148C15.3147 30.9868 15.676 31.2214 16.0159 31.5626C15.591 31.1148 15.1023 30.7096 14.7835 30.8802C14.1461 31.2427 13.5086 33.6526 13.0199 34.1857C12.6375 34.6123 11.8938 36.5529 12.2762 37.3207C12.0637 36.4889 12.8287 34.7402 13.1899 34.3563Z" fill="#7E22BC"/>
<path d="M15.0598 31.0932C14.4011 31.4344 13.6786 33.8229 13.1899 34.3347C12.7649 34.7826 11.83 37.0218 12.4887 37.619C12.6374 37.1498 12.5312 36.2967 13.2536 34.9959C13.8911 33.8656 14.4011 33.7376 14.8473 32.5007C14.9748 32.1595 15.0385 31.9036 15.251 31.8183C15.761 31.6477 16.3984 32.6713 16.8659 33.1618C17.0359 32.9059 17.0996 32.7353 17.0996 32.7353C17.0996 32.7353 15.7185 30.752 15.0598 31.0932Z" fill="#4D4D4D"/>
<path d="M28.1275 43.9104C28.0638 43.8038 27.8088 43.9104 27.49 43.9317C27.3838 43.9317 27.2563 43.9317 27.1076 43.8891C27.3626 44.4436 27.49 44.8701 27.8938 45.4459C27.7875 45.126 27.7238 44.7848 27.8725 44.4649C27.9788 44.2303 28.1912 44.017 28.1275 43.9104Z" fill="#D98C41"/>
<path d="M32.7384 6.93066L31.2085 11.9423L34.587 12.4541L35.9044 9.5751C35.9256 9.5751 35.2032 8.48747 32.7384 6.93066Z" fill="#23201E"/>
<path d="M35.5857 10.4922C34.8632 9.46859 33.8646 8.46626 32.8659 7.86913C32.4197 7.61322 31.8885 7.3573 31.2935 7.14404L31.2085 11.9424L34.417 12.4329L35.5857 10.4922Z" fill="black"/>
<path d="M41.4077 6.82395C39.7928 6.16284 37.9867 7.52771 37.6467 7.78362C35.0757 9.74563 33.9495 14.0748 35.8831 16.1861C36.9243 17.3164 38.4329 17.3164 38.5604 17.2951C41.2377 17.2524 43.4051 13.9682 43.4475 11.1105C43.4475 10.8972 43.4688 7.65567 41.4077 6.82395Z" fill="#B0743C"/>
<path d="M43.4475 11.1106C43.4475 10.94 43.4475 8.93533 42.4701 7.65576C42.3426 8.18891 42.1301 8.89267 41.7052 9.74572C40.8127 11.5798 38.8366 14.3735 37.1155 14.0536C36.3931 13.9256 35.6919 13.2219 35.3519 12.6674C35.2244 12.4541 35.1182 12.2409 35.0544 12.0489C34.7357 13.6057 34.927 15.1625 35.8831 16.1862C36.9243 17.3165 38.4329 17.3165 38.5604 17.2952C41.2377 17.2312 43.3838 13.947 43.4475 11.1106Z" fill="#804916"/>
<path d="M41.174 12.2837C40.2178 11.9638 39.4316 11.0894 39.3891 11.0467L39.5378 10.8975C39.5378 10.8975 40.324 11.7718 41.2377 12.0704L41.174 12.2837Z" fill="white"/>
<path d="M40.5578 13.1792C39.6016 12.8593 38.8154 11.9849 38.7729 11.9423L38.9216 11.793C38.9216 11.793 39.7078 12.6673 40.6215 12.9659L40.5578 13.1792Z" fill="white"/>
<path d="M39.9203 14.0537C38.9641 13.7338 38.1779 12.8594 38.1355 12.8168L38.2842 12.6675C38.2842 12.6675 39.0704 13.5418 39.9841 13.8404L39.9203 14.0537Z" fill="white"/>
<path d="M22.2842 5.90717C22.2842 5.90717 19.5644 7.14408 18.5233 9.9378L18.0133 12.5396L18.5233 18.2763C18.5233 18.2763 17.8858 23.4799 17.6096 25.2926C17.6096 25.2926 19.4157 27.8944 23.4316 26.9774C27.4476 26.0603 27.0438 25.2926 29.6361 24.3756V18.127L31.2085 11.9425L32.7384 6.93082C32.7384 6.93082 28.68 3.88119 22.2842 5.90717Z" fill="#4D4D4D"/>
<path d="M29.6361 18.127L31.2085 11.9425L32.5046 7.67725C30.1036 6.58962 26.5764 6.12045 24.3878 7.40001C22.4967 8.50897 21.6892 10.343 21.583 10.5776C20.5631 13.0088 21.753 14.5016 21.6042 19.8331C21.5618 21.5392 21.3918 22.4562 21.0518 23.3946C20.5206 24.7808 20.0319 24.9514 20.1169 25.6338C20.2019 26.3802 20.8606 26.7215 21.7105 27.148C22.2417 27.148 22.8154 27.1053 23.4316 26.956C27.4475 26.039 27.0438 25.2713 29.6361 24.3543V18.127Z" fill="#23201E"/>
<path d="M20.5206 17.0608C20.5206 17.0608 25.1315 21.7526 25.8539 22.0298C26.5764 22.3284 34.0558 16.549 35.2032 15.3761L33.7583 12.625C33.7583 12.625 26.7039 16.677 26.1301 16.3784C25.5564 16.0798 25.1315 14.7789 25.1315 14.7789L20.5206 17.0608Z" fill="#D98C41"/>
<path d="M33.7796 12.646C33.7796 12.646 35.2669 11.9209 36.0106 8.97789C36.0106 8.97789 36.7968 8.78596 36.4993 10.3214C36.2231 11.8569 36.6481 11.8356 37.328 11.7716C38.008 11.729 37.7955 15.2904 37.7955 15.2904C37.7955 15.2904 35.9681 15.5037 35.2244 15.397L33.7796 12.646Z" fill="#D98C41"/>
<path d="M36.8606 12.0065C36.8606 12.0065 39.6228 10.7482 39.9416 10.5776C39.9416 10.5776 40.579 10.8975 39.7078 11.388C38.8367 11.8999 37.2218 12.9875 37.2218 12.9875L36.8606 12.0065Z" fill="#D98C41"/>
<path d="M37.7105 12.3902C37.7105 12.3902 40.7278 12.113 41.089 12.0703C41.089 12.0703 41.5777 12.5821 40.6003 12.7527C39.6228 12.9447 37.7317 13.4352 37.7317 13.4352L37.7105 12.3902Z" fill="#D98C41"/>
<path d="M37.498 13.5845C37.498 13.5845 40.5365 13.6485 40.8977 13.6271C40.8977 13.6271 41.344 14.1816 40.3453 14.2669C39.3466 14.3522 37.413 14.6295 37.413 14.6295L37.498 13.5845Z" fill="#D98C41"/>
<path d="M37.5618 14.5015C37.5618 14.5015 39.8991 15.0133 40.1753 15.0559C40.1753 15.0559 40.409 15.5678 39.6228 15.4825C38.8367 15.3972 37.2855 15.3119 37.2855 15.3119L37.5618 14.5015Z" fill="#D98C41"/>
<path d="M20.0531 8.97788L19.8194 8.95655C20.3293 8.27412 21.0093 7.61301 21.6892 7.14383C25.6202 4.39277 30.5285 5.60835 32.7596 6.9519L32.7384 7.01588C30.571 5.69366 25.6627 4.62735 21.8167 7.31444C21.158 7.76229 20.5631 8.31677 20.0531 8.97788Z" fill="#23201E"/>
<path d="M18.1408 25.8473C17.992 25.1648 18.2895 24.5037 18.3958 24.3331C18.4595 24.2265 18.5233 24.0985 18.6082 23.9919C18.7995 23.672 19.012 23.3521 18.9057 23.1175C18.8632 23.0322 18.8207 22.9896 18.757 22.9469C18.672 22.8829 18.5658 22.7976 18.5445 22.627C18.4808 22.3711 18.672 22.1578 18.842 21.9659C18.8845 21.9019 18.9482 21.838 18.9907 21.7953C19.097 21.646 19.2457 21.4328 19.012 19.2575C18.9695 18.831 18.927 18.5537 18.9057 18.3192C18.842 17.8926 18.8207 17.7007 18.842 17.2742C18.842 16.9756 18.8632 16.7837 18.8845 16.5917C18.9057 16.4211 18.927 16.2505 18.927 15.9946C18.927 15.6534 18.8845 14.8857 18.842 14.5444L19.097 14.9283C19.1395 15.2908 19.1607 15.6534 19.1607 16.0159C19.1607 16.2718 19.1395 16.4638 19.1182 16.6131C19.0332 16.7837 19.012 16.9756 19.012 17.2742C19.012 17.6794 19.0332 17.85 19.0757 18.2765C19.097 18.5111 19.1395 18.7883 19.182 19.2148C19.4157 21.3048 19.2882 21.6673 19.1182 21.9019C19.0757 21.9659 19.012 22.0299 18.9695 22.0939C18.8207 22.2645 18.6932 22.4138 18.7357 22.563C18.757 22.6484 18.7995 22.691 18.8845 22.755C18.9695 22.819 19.0545 22.8829 19.097 23.0109C19.2669 23.3521 19.012 23.736 18.7782 24.0985C18.7145 24.2052 18.6295 24.3118 18.587 24.4184C18.3958 24.7596 18.2683 25.4634 18.3958 26.0392L18.1408 25.8473Z" fill="#23201E"/>
<path d="M43.3838 10.0659L43.9787 11.4734C44.0212 11.6014 43.9787 11.7507 43.8725 11.8147L43.4263 12.1985C43.4263 12.1985 42.8313 11.4308 43.405 10.7697L43.3838 10.0659Z" fill="#D98C41"/>
<path d="M43.32 12.2197L43.5325 13.0514C43.66 13.4993 43.4263 13.7126 43.32 13.7552L42.8526 13.9685C42.8526 13.9685 42.5339 13.1794 43.1713 12.7742L43.32 12.2197Z" fill="#D98C41"/>
<path d="M35.0544 15.0989C34.5232 14.907 34.162 15.0563 33.7795 15.3761C31.8035 16.933 29.6786 20.5371 26.6189 20.1105C26.3851 20.0892 26.0664 19.2148 25.1527 19.1082C23.3254 18.895 21.8592 17.658 21.158 16.933C21.1368 16.8903 21.1155 16.8476 21.073 16.805L20.5206 17.0609C20.5206 17.0609 25.1315 21.7527 25.8539 22.0299C26.5764 22.3285 34.0558 16.5491 35.2032 15.3761L35.0544 15.0989Z" fill="#F29A46"/>
<path d="M22.8579 6.4618L23.1979 8.31717C23.1979 8.31717 24.7278 10.5138 26.9376 9.04226C27.0651 8.95695 27.1288 8.829 27.1501 8.67971L27.3201 5.45947L22.8579 6.4618Z" fill="#F29A46"/>
<path d="M27.3201 5.43799L25.3015 5.90716C24.8128 7.12275 24.6003 8.59425 25.0252 8.87149C25.4715 9.17006 26.5339 8.18906 26.5976 8.10375C26.8101 7.91182 27.0226 7.6559 27.2138 7.37866L27.3201 5.43799Z" fill="#D98C41"/>
<path d="M22.4542 1.98291C22.4542 1.98291 21.3493 7.37841 24.7278 9.04185C24.8977 9.12715 25.1102 9.10583 25.259 8.97787C25.6839 8.63665 26.5551 7.80494 27.1501 6.26946C27.1926 6.18415 27.1926 6.09885 27.1713 6.01354L26.4914 1.98291C26.4914 1.98291 24.0691 2.34545 22.4542 1.98291Z" fill="#F29A46"/>
<path d="M26.9376 4.64912C26.9376 4.64912 27.4688 3.19895 27.83 3.79608C28.17 4.37188 27.6388 6.12062 27.1076 5.58747L26.9376 4.64912Z" fill="#F29A46"/>
<path d="M24.2815 6.0352L23.5379 5.56603L24.2391 4.26514L24.2815 6.0352Z" fill="#D98C41"/>
<path d="M24.749 8.57297C24.5365 8.509 24.494 8.35971 23.6016 6.99484C23.2829 6.50434 23.2616 6.50434 23.1979 6.39771C22.2842 4.90489 22.5604 3.02819 22.3267 2.87891C22.178 4.47836 22.1992 7.82656 24.7065 9.0848C24.8765 9.1701 25.089 9.14878 25.2377 9.02082C25.514 8.80756 25.9602 8.38104 26.4064 7.71993C26.0027 7.84789 25.344 8.76491 24.749 8.57297Z" fill="#FFAD61"/>
<path d="M25.9177 2.15384C25.9177 2.15384 24.4515 2.72964 22.4967 2.15384L22.2842 4.37175C22.2842 4.37175 21.4555 1.57803 22.7304 0.661011C24.0053 -0.277337 26.7889 -0.319989 27.4688 1.23682C28.4887 3.54003 26.9376 4.88358 26.9376 4.88358L26.7676 3.66799C26.7676 3.64666 26.0452 3.96656 25.9177 2.15384Z" fill="#23201E"/>
<path d="M25.344 0.0225693C24.3878 -0.0414089 23.3679 0.193178 22.7304 0.662352C21.4555 1.6007 22.2842 4.37309 22.2842 4.37309L22.4967 2.15518C22.9854 2.30446 23.4529 2.36844 23.8778 2.38977C23.9628 2.38977 24.0478 2.38977 24.1328 2.41109C24.409 2.41109 24.664 2.41109 24.8765 2.36844C24.579 2.26181 24.2178 2.0912 23.9416 1.77131C23.8778 1.70733 23.3891 1.15285 23.5379 0.705004C23.7291 0.171852 24.7278 0.107874 25.344 0.0225693Z" fill="#4D4D4D"/>
<path d="M22.9217 10.599C21.753 8.78624 19.8194 8.38104 18.7782 9.55398C17.8858 10.5776 17.8008 12.6889 18.2683 13.5846C19.9044 16.7195 20.7331 17.274 20.7331 17.274L25.3652 15.0135L22.9217 10.599Z" fill="#23201E"/>
<path d="M22.9217 10.599C22.1142 9.34073 20.9243 8.76493 19.9256 8.91421C19.7132 9.02084 19.5219 9.1488 19.3732 9.34073C18.9482 9.87389 18.9907 10.535 18.9907 10.9402C19.0757 12.5396 20.1169 13.0728 20.5206 14.7362C20.5631 14.8855 20.6481 15.2907 20.9031 15.7599C20.9881 15.9092 21.2005 16.3357 21.498 16.6556C21.5618 16.7196 21.6043 16.7622 21.668 16.8049L25.344 15.0135L22.9217 10.599Z" fill="black"/>
</svg>
