<svg width="56" height="56" viewBox="0 0 56 56" fill="none" xmlns="http://www.w3.org/2000/svg">
<g clip-path="url(#clip0)">
<path d="M49.0859 4.23486C49.0859 4.23486 49.1316 6.70416 48.3532 7.71018C47.5748 8.76191 46.8422 7.16144 46.8422 7.16144C46.8422 7.16144 47.3917 5.10369 49.0859 4.23486Z" fill="#4F3333"/>
<path d="M2.38103 45.5271C3.06786 45.207 4.44153 44.1553 4.5789 43.5151C4.71627 42.8749 6.77678 38.3021 7.05151 37.4333C7.32624 36.5645 11.0352 33.4092 10.7604 30.0711C10.7604 30.0254 15.1562 31.946 16.4383 32.3575C16.2093 32.7233 15.4309 34.5067 9.43254 40.2684C8.28782 41.3659 5.35732 46.7618 4.94521 48.2708C4.53311 49.8255 3.66312 50.6029 3.66312 50.6029L2.42682 48.3165L3.38839 47.2648C3.3426 47.2648 1.69419 45.8015 2.38103 45.5271Z" fill="#4F3333"/>
<path d="M39.7449 18.0905C39.7449 18.0905 43.5454 17.7704 44.8275 17.6789C46.1096 17.5875 47.0254 17.3588 47.3459 18.502C47.4375 18.8678 47.6206 19.7824 46.7506 20.8799C46.2011 21.6115 45.4685 23.4406 44.8275 24.4466C44.1864 25.4527 43.9575 26.2758 42.7212 26.8702C41.4391 27.4647 40.4317 27.2818 40.4317 27.2818L40.7523 25.0868H42.2633L44.278 20.8341C44.278 20.8341 42.1259 21.2457 40.8896 22.1602C39.6533 23.0748 36.7686 24.4009 35.7155 23.715C34.6623 23.0291 39.7449 18.0905 39.7449 18.0905Z" fill="#4F3333"/>
<path d="M3.52576 46.1673C4.21259 45.8472 5.58626 44.7955 5.72363 44.1553C5.861 43.5151 7.9215 38.9423 8.19624 38.0735C8.47097 37.2047 10.9436 35.0555 11.0809 33.0892C11.0809 33.0434 11.0809 33.0434 11.0809 32.9977C12.2257 33.6379 16.3009 32.5404 17.583 32.952C17.354 33.3178 16.5756 35.1012 10.5773 40.8629C9.43254 41.9604 6.50204 47.3562 6.08994 48.8653C5.67784 50.42 4.80785 51.1974 4.80785 51.1974L3.57155 48.911L4.53312 47.8592C4.48733 47.905 2.83892 46.4874 3.52576 46.1673Z" fill="#6B3D3D"/>
<path d="M9.29518 25.3609C9.34097 23.8061 9.89043 21.2911 12.592 19.4163C14.4693 18.0902 17.354 16.9927 19.5061 16.2153C24.5887 14.4319 27.1071 11.5968 29.8545 10.7737C31.5029 10.2707 40.3859 7.38986 42.2175 6.93258C45.9722 6.01802 49.269 7.25267 49.269 7.25267C49.269 7.25267 52.8863 11.5511 53.5732 12.237C54.26 12.9229 55.4505 13.9747 55.7253 14.2033C56 14.3862 56.0916 14.9807 55.7253 15.5294C55.4047 16.0324 54.6263 16.1239 54.6263 16.1239C54.6263 16.1239 54.7179 16.7183 54.3058 16.8098C53.8937 16.9012 53.2984 16.6726 53.1611 15.941C52.3827 15.9867 49.6353 15.2093 48.6738 14.7063C47.4375 14.0204 47.2085 13.1058 47.2085 13.1058C47.2085 13.1058 45.0106 13.6546 43.8201 14.8892C42.9959 15.758 41.7596 18.456 41.5307 18.8218C40.7522 20.6509 39.0581 24.1262 37.5928 24.7207C33.9755 26.0925 31.2739 26.0468 29.076 26.0468C26.2829 26.0468 23.4898 26.5498 21.8872 27.5558C19.0025 29.3849 18.0409 32.1743 17.4914 33.0889C16.6672 32.8145 10.3941 36.4727 10.9894 33.1346C11.4473 31.1226 9.24939 29.7965 9.29518 25.3609Z" fill="#6B3D3D"/>
<path d="M47.2543 13.0601V12.1455C47.2543 12.1455 44.5527 12.5113 42.9959 14.249C40.9812 16.4439 39.6533 19.0961 39.6533 19.0961L41.4849 18.959C41.4849 18.959 42.767 16.1696 43.9575 15.0264C45.6975 13.243 47.2543 13.0601 47.2543 13.0601Z" fill="#603535"/>
<path d="M50.9632 8.39602C50.9632 8.39602 49.8185 7.61865 49.4064 7.02419C48.9943 6.42973 47.9411 5.78954 47.4375 5.78954C46.9338 5.78954 46.4759 6.10963 46.4759 6.10963C46.4759 6.10963 46.1096 5.60663 45.6059 5.65235C45.2854 5.69808 44.9191 6.10963 44.9191 6.10963C44.9191 6.10963 44.7817 5.60663 44.1406 5.65235C43.7285 5.69808 43.4996 6.10963 43.4996 6.10963C43.4996 6.10963 43.0875 5.74381 42.6754 5.78954C42.1259 5.88099 41.9886 6.42973 41.9886 6.42973C41.9886 6.42973 41.8054 6.10963 41.4849 6.10963C40.9812 6.10963 40.7523 6.65836 40.7523 6.65836C40.7523 6.65836 40.4317 6.24681 39.8365 6.42973C39.4702 6.61264 39.3786 7.11564 39.3786 7.11564C39.3786 7.11564 39.0123 6.79555 38.5086 6.93273C37.9591 7.11564 37.8218 7.61865 37.8218 7.61865C37.8218 7.61865 37.5928 7.34428 36.9976 7.39001C36.4939 7.43574 36.2191 8.07593 36.2191 8.07593C36.2191 8.07593 35.5781 7.7101 35.1202 7.89301C34.6623 8.07593 34.5249 8.71612 34.5249 8.71612C34.5249 8.71612 33.7923 8.57893 33.5634 8.71612C33.0139 9.03621 33.0139 9.72213 33.0139 9.72213C33.0139 9.72213 33.6092 10.0879 35.166 9.90504C36.7228 9.72213 40.4317 8.25884 41.1186 8.07593C45.0106 7.02419 47.7122 7.02419 47.7122 7.02419C47.7122 7.02419 48.7195 8.21311 49.5895 8.39602C50.4595 8.57893 50.9632 8.39602 50.9632 8.39602Z" fill="#3F2B2B"/>
<path d="M40.2944 19.005C40.2944 19.005 44.0949 18.6849 45.3769 18.5935C46.659 18.502 47.5748 18.2734 47.8953 19.4166C47.9869 19.7824 48.1701 20.697 47.3001 21.7944C46.7506 22.5261 46.018 24.3552 45.3769 25.3612C44.7359 26.3672 44.507 27.1903 43.2707 27.7848C41.9886 28.3792 40.9812 28.1963 40.9812 28.1963L41.3017 26.0014H42.767L44.8275 21.7944C44.8275 21.7944 42.6754 22.206 41.4391 23.1205C40.2028 24.0351 37.3181 25.3612 36.2649 24.6753C35.166 23.9894 40.2944 19.005 40.2944 19.005Z" fill="#6B3D3D"/>
<path d="M10.4399 24.6752C10.4399 24.6752 8.83729 24.8581 7.78415 26.0013C6.77679 27.1902 8.24204 30.3912 7.00573 32.9062C5.76943 35.4212 4.76207 34.5067 4.76207 36.9302C4.76207 39.3538 4.99101 40.6342 4.30418 41.8231C3.34261 43.515 2.06051 42.7834 2.06051 42.7834C2.06051 42.7834 3.75471 41.9146 3.66313 40.6799C3.11366 41.2744 2.01473 41.5487 1.14473 41.2286C0.274742 40.9543 -0.0457802 40.1312 -0.0457802 40.1312C-0.0457802 40.1312 2.24367 40.8628 2.33525 38.9422C2.38104 38.1191 1.51105 36.3358 1.51105 33.5464C1.51105 30.757 4.80786 26.0927 6.731 24.6295C8.65414 23.1662 10.3941 23.0747 10.3941 23.0747V24.6752H10.4399Z" fill="#6B3D3D"/>
<path d="M49.6811 4.55469C49.6811 4.55469 49.7269 7.02399 48.9485 8.03C48.1701 9.03601 47.4375 7.48127 47.4375 7.48127C47.4375 7.48127 47.9869 5.42352 49.6811 4.55469Z" fill="#6B3D3D"/>
<path d="M51.2379 10.0879C51.2379 10.0879 51.2837 10.8653 50.9174 11.0024C50.368 11.2311 49.8643 10.4537 49.8643 10.4537L51.2379 10.0879Z" fill="#4F3333"/>
<path d="M54.2142 12.7859C54.2142 12.7859 54.1227 12.9231 53.7106 13.9291C53.5274 14.3864 53.0695 15.8954 53.0695 15.8954L52.3369 15.8039C52.3369 15.8039 52.52 14.9808 53.0695 13.7004C53.2069 13.3346 53.7106 12.3286 53.7106 12.3286L54.2142 12.7859Z" fill="#3F2B2B"/>
<path d="M50.139 8.25887L48.5822 9.72215L48.2159 9.21915L49.6811 7.75586L50.139 8.25887Z" fill="#3F2B2B"/>
<path d="M52.8864 15.5295C53.3442 15.5295 53.7106 15.1637 53.7106 14.7064C53.7106 14.2491 53.3442 13.8833 52.8864 13.8833C52.4285 13.8833 52.0622 14.2491 52.0622 14.7064C52.0622 15.1637 52.4285 15.5295 52.8864 15.5295ZM52.8864 14.2034C53.1611 14.2034 53.4358 14.432 53.4358 14.7521C53.4358 15.0265 53.2069 15.3009 52.8864 15.3009C52.6116 15.3009 52.3369 15.0722 52.3369 14.7521C52.3369 14.432 52.5658 14.2034 52.8864 14.2034Z" fill="#F4B79F"/>
<path d="M52.5658 14.2949C52.5658 14.2949 50.5511 12.7401 49.3606 11.0482C48.4906 9.76784 47.4375 6.56689 47.4375 6.56689H46.8422C46.8422 6.56689 47.529 9.58493 49.0859 11.8713C50.2764 13.5632 52.3369 14.7979 52.3369 14.7979L52.5658 14.2949Z" fill="#3F2B2B"/>
<path d="M37.1349 24.8124C37.1349 24.8124 36.2191 24.538 35.3034 23.9893C34.5249 24.2636 32.8307 24.7209 30.4497 24.9038C27.2445 25.1782 24.1766 25.041 22.1161 26.1385C19.094 27.7389 18.8193 30.6655 18.8193 30.6655C18.8193 30.6655 20.834 27.8304 23.0319 27.1445C25.2298 26.4586 29.6255 26.3671 31.3197 26.1385C35.5781 25.544 37.1349 24.8124 37.1349 24.8124Z" fill="#603535"/>
<path d="M35.2576 25.4067C35.2576 25.4067 32.3729 21.1083 31.686 20.0565C30.9992 18.9591 30.4497 18.4561 30.4497 18.4561L29.3966 18.9591C29.3966 18.9591 30.6787 20.7424 31.5487 21.9314C32.4186 23.1203 34.1128 25.681 34.1128 25.681L35.2576 25.4067Z" fill="#3F2B2B"/>
<path d="M28.9387 10.5908C28.9387 10.5908 31.7318 13.3345 31.8692 14.8435C32.0065 16.3525 31.5487 18.6846 29.6713 19.4163C27.7939 20.1479 23.7645 20.2394 22.2993 19.4163C20.834 18.5932 19.4603 15.6666 19.4603 15.6666C19.4603 15.6666 22.574 14.2948 24.4971 13.1058C26.3745 11.8712 28.9387 10.5908 28.9387 10.5908Z" fill="#EFB4A8"/>
<path d="M28.0687 11.0024C28.0687 11.0024 30.2208 12.9687 30.7245 14.1119C31.2281 15.2551 30.9534 17.3586 29.6255 18.0902C28.2518 18.8676 25.5503 18.9591 24.085 18.639C21.6124 18.136 20.4677 15.1179 20.4677 15.1179L28.0687 11.0024Z" fill="#D3968C"/>
<path d="M27.565 10.8196C27.565 10.8196 27.6108 11.597 27.9313 12.9231C28.2061 14.1578 27.9313 14.798 26.6492 15.5753C25.3671 16.3984 22.9861 16.5356 21.8414 15.6668C20.9256 15.0266 20.3303 14.295 20.5593 13.792C21.704 13.2889 22.4824 13.5633 23.2608 13.1975C23.7187 12.9689 24.6803 12.0543 25.6877 11.3684C26.3287 11.0026 27.1529 10.6367 27.565 10.8196Z" fill="#4F3333"/>
<path d="M52.4285 15.0263C52.4285 15.0263 45.148 12.1912 42.1717 11.4139C38.0965 10.3621 37.1807 9.85911 36.0818 9.63047V9.26465C36.0818 9.26465 39.9738 10.0877 43.2706 11.2309C44.6443 11.7339 52.3827 14.5691 52.3827 14.5691L52.4285 15.0263Z" fill="#3F2B2B"/>
<path d="M32.785 7.11567C31.9608 7.34431 30.9992 7.84732 30.9992 7.84732L30.4039 6.61267L31.4113 5.74384C31.4571 5.69811 32.9223 6.61267 32.785 7.11567Z" fill="#EDAA98"/>
<path d="M31.6402 5.97237C31.8234 7.02411 32.6934 7.43566 33.1971 7.52712C33.4718 7.61857 33.7465 7.3442 33.9755 6.88693C34.2044 6.38392 34.4334 5.74373 34.1586 4.8749C33.8381 3.82316 33.5176 3.68598 32.7392 3.77744C31.9607 3.96035 31.5029 4.92063 31.6402 5.97237Z" fill="#FFBFA9"/>
<path d="M31.8234 5.56095C31.8692 5.37804 32.0065 5.1494 32.1897 5.19513C32.3271 5.24085 32.556 5.56095 32.556 5.56095C32.556 5.56095 32.9223 5.37804 33.2428 5.05794C33.5634 4.73785 34.2044 5.05794 34.2044 4.78358C34.2502 4.37203 34.6623 3.68611 32.9681 3.36601C32.1897 3.22883 31.3655 3.5032 31.1365 4.05193C30.7244 5.1494 31.045 5.69813 30.9534 6.15541C31.5029 6.29259 31.7776 5.74386 31.8234 5.56095Z" fill="#6B3D3D"/>
<path d="M35.2576 4.82921V5.10357C35.2576 5.10357 34.1586 5.24076 33.1971 5.05784C32.6476 4.96639 32.1897 5.05784 31.5944 5.24076C31.045 5.42367 30.6787 5.33221 30.6787 5.33221C30.6787 5.33221 30.7245 3.86892 31.3197 3.36592C31.915 2.86291 33.2886 3.04582 33.7465 3.32019C34.3418 3.59455 34.5249 4.87493 34.5249 4.87493L35.2576 4.82921Z" fill="#3F2B2B"/>
<path d="M32.9223 4.46338C32.9223 4.46338 33.0597 5.46939 32.9223 6.06385C32.8307 6.65831 31.9607 6.74977 31.5486 6.20104C31.3197 5.88094 30.9992 5.10357 30.9992 5.10357L31.4571 4.92066C31.4571 4.92066 31.5944 5.56085 31.9607 5.92667C32.4186 6.38395 32.6934 5.92667 32.6476 5.33221C32.6476 4.87493 32.6018 4.60056 32.6018 4.60056L32.9223 4.46338Z" fill="#3F2B2B"/>
<path d="M32.7392 6.15527C32.7392 6.15527 32.7392 6.65828 32.7392 6.93265C32.7392 7.20701 32.8307 7.43565 32.8307 7.43565L32.4186 7.20701C32.4186 7.20701 32.1897 6.47537 32.2813 6.29246C32.3271 6.201 32.7392 6.15527 32.7392 6.15527Z" fill="#3F2B2B"/>
<path d="M30.6787 6.15512L30.9076 6.56667C30.9076 6.56667 30.3581 8.76161 30.1292 9.4018C29.9002 10.042 28.9845 10.5907 28.9845 10.5907C28.9845 10.5907 27.6566 10.7279 27.0155 11.0937C26.3745 11.4595 25.2298 12.5113 25.2298 12.5113C25.2298 12.5113 24.6803 11.6425 24.1766 10.9108C23.6729 10.1334 22.7572 8.62442 22.7572 8.62442C22.7572 8.62442 24.5429 8.12142 25.2298 7.89278C25.9166 7.66414 27.1071 7.11541 28.2976 6.52095C29.4881 5.88076 30.6787 6.15512 30.6787 6.15512Z" fill="#4D87DB"/>
<path d="M22.9403 8.71631C22.9403 8.71631 21.7498 9.0364 21.0172 9.76805C20.1014 10.6826 20.3303 11.9173 21.0172 12.969C22.0703 14.5237 24.7261 15.8956 24.7261 15.8956L26.8782 16.8559C26.8782 16.8559 27.9313 15.987 27.5192 15.0267C27.2903 14.478 25.4587 12.6489 24.085 10.8655C23.6271 10.2253 22.9403 8.71631 22.9403 8.71631Z" fill="#FFD8CC"/>
<path d="M30.2208 6.79536C30.2208 6.79536 29.7171 7.16118 29.3508 8.07573C29.0303 8.99029 28.9387 10.5908 28.9387 10.5908L28.1603 10.7279C28.1603 10.7279 28.2061 9.1732 28.2976 8.12146C28.3892 6.97827 29.8087 6.65817 30.2208 6.79536Z" fill="#EFB4A8"/>
<path d="M33.7007 9.90502C33.7007 9.90502 34.7081 9.08192 35.7155 9.35629C36.7686 9.58493 36.2191 9.90502 35.9902 10.1794C35.7612 10.4995 35.807 11.0025 34.937 10.7738C34.6623 10.6824 33.7007 10.6824 33.7007 10.6824V9.90502Z" fill="#4F3333"/>
<path d="M29.3508 7.16146C29.7171 6.52127 30.4039 6.33836 30.9076 6.61272C31.4113 6.88709 31.2281 8.03028 31.045 9.03629C30.9534 9.5393 30.7702 10.7282 30.7702 10.7282L33.6549 9.72221C34.1586 9.99658 34.296 10.4539 34.2502 10.9111C33.9755 11.094 33.1055 11.5971 32.2355 11.9171C31.1823 12.3287 30.4955 12.8774 29.9918 12.7402C29.6255 12.6488 29.2592 12.4202 29.1676 12.3287C28.9845 12.1001 28.8471 11.5056 28.8471 10.2252C28.8929 9.58503 29.1676 7.48155 29.3508 7.16146Z" fill="#FFD8CC"/>
<path d="M26.5119 16.9927C26.5119 16.9927 25.0924 21.2911 24.4056 22.0685C23.5814 22.983 24.085 21.977 24.085 21.977C24.085 21.977 25.4587 19.5534 25.9624 17.267C26.054 17.1299 26.5119 16.9927 26.5119 16.9927Z" fill="#8E5151"/>
<path d="M27.9313 15.8952C27.9313 15.8952 26.5119 17.5414 25.6419 18.6389C25.0008 19.4162 23.9477 21.1082 23.8103 21.2453C23.5814 21.6112 23.7645 22.2056 24.085 22.6629C24.4056 23.1202 24.7261 23.486 24.8635 23.7604C25.0008 24.0805 24.7719 24.4006 24.7719 24.4006C24.7719 24.4006 23.7187 24.1262 23.1693 23.5775C22.6656 23.0287 22.2535 22.4343 22.1619 22.48C22.0703 22.5257 21.3377 21.7941 21.3377 21.7941C21.3377 21.7941 21.8414 20.9252 22.2535 20.3765C22.6656 19.8278 23.7645 17.6786 24.1766 16.8097C24.5887 15.9409 24.6345 15.5294 25.6419 15.2093C26.054 15.0721 26.0082 15.5294 26.6492 15.5294C27.4276 15.6208 27.9313 15.8952 27.9313 15.8952Z" fill="#3F2B2B"/>
<path d="M23.1235 9.12744C23.1235 9.12744 24.5887 10.5907 25.0466 11.048C25.5045 11.4596 25.8708 11.9168 25.8708 11.9168L25.3213 12.3741C25.3213 12.3741 24.1308 10.9108 23.9477 10.5907C23.7187 10.2706 23.1235 9.12744 23.1235 9.12744Z" fill="#EFB4A8"/>
<path d="M31.045 5.88103C31.045 5.88103 30.4039 5.88103 29.7629 5.28657C29.0303 4.60065 28.2518 4.64638 27.6566 5.05793C27.0613 5.42375 26.8324 5.33229 26.8324 5.33229C26.8324 5.33229 26.8782 5.69812 27.4276 5.78957C27.9313 5.92676 28.2518 5.46948 28.8471 5.88103C29.4881 6.29258 30.3123 6.56695 31.045 6.20112C31.2281 6.06394 31.045 5.88103 31.045 5.88103Z" fill="#6B3D3D"/>
<path d="M24.314 21.52L24.8177 21.9316C24.8177 21.9316 24.314 22.4803 23.9935 22.8461C23.6729 23.2119 23.3066 23.8521 23.3066 23.8521L22.574 23.2119C22.5282 23.2119 23.1693 21.7487 24.314 21.52Z" fill="#FFD8CC"/>
<path d="M25.6419 27.4189H26.9697V51.929H25.6419V27.4189Z" fill="#FFD8CC"/>
<path d="M25.6419 27.4189H26.3287V51.929H25.6419V27.4189Z" fill="#EFB4A8"/>
<path d="M26.9697 48.4082L32.0523 51.9292L30.2666 52.0664L26.9697 49.6429V48.4082Z" fill="#EFB4A8"/>
<path d="M25.6419 48.4082L20.6051 51.9292L22.3451 52.0664L25.6419 49.6429V48.4082Z" fill="#D3968C"/>
<path d="M19.6435 51.9292H33.0139V52.6151H19.6435V51.9292Z" fill="#F4B79F"/>
<path d="M33.3802 27.4189H34.7081V51.929H33.3802V27.4189Z" fill="#FFD8CC"/>
<path d="M33.3344 27.4189H34.0213V51.929H33.3344V27.4189Z" fill="#EFB4A8"/>
<path d="M34.7081 48.4082L39.7449 51.9292L38.0049 52.0664L34.7081 49.6429V48.4082Z" fill="#EFB4A8"/>
<path d="M33.3802 48.4082L28.2976 51.9292L30.0834 52.0664L33.3802 49.6429V48.4082Z" fill="#D3968C"/>
<path d="M27.3361 51.9292H40.7065V52.6151H27.3361V51.9292Z" fill="#F4B79F"/>
<path d="M26.3287 30.3457H33.426V31.6718H26.3287V30.3457Z" fill="#FFD8CC"/>
<path d="M28.1145 30.3457H29.2592V31.6718H28.1145V30.3457Z" fill="#E55F58"/>
<path d="M30.9992 30.3457H32.1439V31.6718H30.9992V30.3457Z" fill="#E55F58"/>
<path d="M26.3287 34.644H33.426V35.9701H26.3287V34.644Z" fill="#FFD8CC"/>
<path d="M28.1145 34.644H29.2592V35.9701H28.1145V34.644Z" fill="#E55F58"/>
<path d="M30.9992 34.644H32.1439V35.9701H30.9992V34.644Z" fill="#E55F58"/>
<path d="M26.3287 38.9878H33.426V40.3139H26.3287V38.9878Z" fill="#FFD8CC"/>
<path d="M28.1145 38.9878H29.2592V40.3139H28.1145V38.9878Z" fill="#E55F58"/>
<path d="M30.9992 38.9878H32.1439V40.3139H30.9992V38.9878Z" fill="#E55F58"/>
</g>
<defs>
<clipPath id="clip0">
<rect width="56" height="49.6604" fill="white" transform="matrix(-1 0 0 1 56 3)"/>
</clipPath>
</defs>
</svg>
