<svg width="56" height="56" viewBox="0 0 56 56" fill="none" xmlns="http://www.w3.org/2000/svg">
<mask id="mask0" mask-type="alpha" maskUnits="userSpaceOnUse" x="5" y="12" width="46" height="44">
<path fill-rule="evenodd" clip-rule="evenodd" d="M5 12.6704H51V55.9996H5V12.6704Z" fill="white"/>
</mask>
<g mask="url(#mask0)">
<path fill-rule="evenodd" clip-rule="evenodd" d="M51.0001 34.335C51.0001 46.2998 40.7029 55.9996 28 55.9996C15.2977 55.9996 4.99988 46.2998 4.99988 34.335C4.99988 22.3703 15.2977 12.6704 28 12.6704C40.7029 12.6704 51.0001 22.3703 51.0001 34.335Z" fill="#F6933D"/>
</g>
<mask id="mask1" mask-type="alpha" maskUnits="userSpaceOnUse" x="5" y="12" width="42" height="39">
<path fill-rule="evenodd" clip-rule="evenodd" d="M5 12.6714H46.6014V50.6491H5V12.6714Z" fill="white"/>
</mask>
<g mask="url(#mask1)">
<path fill-rule="evenodd" clip-rule="evenodd" d="M28.0001 12.6714C15.2978 12.6714 4.99997 22.3712 4.99997 34.336C4.99997 38.1063 6.02451 41.6505 7.82229 44.7383C11.941 48.4 17.4909 50.6491 23.602 50.6491C36.3043 50.6491 46.6014 40.9492 46.6014 28.9845C46.6014 25.2141 45.5775 21.6699 43.7791 18.5821C39.6604 14.9204 34.1105 12.6714 28.0001 12.6714Z" fill="#FAAF40"/>
</g>
<path fill-rule="evenodd" clip-rule="evenodd" d="M26.3 17.415C28.0023 19.3563 25.9046 23.6364 21.6138 26.9756C17.3235 30.3143 12.4652 31.4473 10.7622 29.506C9.05987 27.5648 11.1576 23.2846 15.4484 19.946C19.7393 16.6068 24.5976 15.4737 26.3 17.415Z" fill="#FFC740"/>
<path fill-rule="evenodd" clip-rule="evenodd" d="M26.8915 14.1673C26.8915 14.1673 26.6258 9.21874 30.9017 6.3418C30.9017 6.3418 32.7344 6.37645 33.3455 8.08512C33.3455 8.08512 29.1445 8.68893 28.0002 14.1673C28.0002 14.1673 27.5238 14.6278 26.8915 14.1673Z" fill="#37B34A"/>
<mask id="mask2" mask-type="alpha" maskUnits="userSpaceOnUse" x="14" y="0" width="14" height="11">
<path fill-rule="evenodd" clip-rule="evenodd" d="M14.2397 0H28V10.3565H14.2397V0Z" fill="white"/>
</mask>
<g mask="url(#mask2)">
<path fill-rule="evenodd" clip-rule="evenodd" d="M27.9977 9.27988C27.9977 9.27988 28.2952 1.77327 22.0943 1.1953C15.894 0.61674 14.2397 0 14.2397 0C14.2397 0 14.9443 14.3254 27.9977 9.27988Z" fill="#37B34A"/>
</g>
<mask id="mask3" mask-type="alpha" maskUnits="userSpaceOnUse" x="14" y="0" width="14" height="11">
<path fill-rule="evenodd" clip-rule="evenodd" d="M14.2398 0H28V10.3564H14.2398V0Z" fill="white"/>
</mask>
<g mask="url(#mask3)">
<path fill-rule="evenodd" clip-rule="evenodd" d="M21.8606 8.08517C16.4068 7.0232 15.3404 1.46784 15.1702 0.243172C14.4967 0.0945668 14.2398 0 14.2398 0C14.2398 0 14.9445 14.3254 27.9978 9.27988C27.9978 9.27988 28.0945 6.77063 26.9795 4.54156C27.1267 6.68781 25.8845 8.86872 21.8606 8.08517Z" fill="#32A745"/>
</g>
</svg>
