<svg width="56" height="56" viewBox="0 0 56 56" fill="none" xmlns="http://www.w3.org/2000/svg">
<g clip-path="url(#clip0)">
<path fill-rule="evenodd" clip-rule="evenodd" d="M26.6226 37.1066C27.4236 36.5575 28.4094 35.2763 29.2104 34.4832C29.8265 33.9341 33.5849 35.0322 31.7365 37.5336C29.5801 40.2791 27.1772 42.5975 25.1439 45.4649C24.8359 46.075 23.2956 44.8548 22.9875 43.6956C24.1581 38.8149 24.7743 38.4488 26.6226 37.1066Z" fill="#CF0404"/>
<path fill-rule="evenodd" clip-rule="evenodd" d="M20.3998 47.6001L20.0917 47.8441C20.0917 47.9662 20.1533 48.0882 20.3382 48.2712C21.324 49.2474 23.9733 51.5047 25.8217 52.2979C26.5611 52.6639 27.7933 52.3589 27.7317 51.9318L27.6085 50.4676L27.1156 50.2845L27.2388 51.5047C26.6227 53.03 21.324 48.9423 20.3998 47.6001Z" fill="#706F6F"/>
<path fill-rule="evenodd" clip-rule="evenodd" d="M20.2766 47.7225C20.3382 47.8445 20.3998 47.9055 20.523 48.0276C21.6937 49.1257 23.9734 51.0781 25.6369 51.8712C26.3146 52.1762 27.4237 52.2983 27.7317 51.6272L27.6085 50.529L27.1156 50.3459L27.1772 51.5661C26.5611 51.8102 25.5753 51.5661 25.0208 51.0781L25.8834 50.2849L24.2814 49.4308L24.2198 50.468C23.3572 49.9189 22.6795 49.3088 22.0017 48.6987L22.8027 47.7225L21.5705 47.3564L21.324 48.2106L20.4614 47.6005L20.2766 47.7225Z" fill="#B2B2B2"/>
<path fill-rule="evenodd" clip-rule="evenodd" d="M20.3382 47.7227L20.0301 47.9667C20.0301 48.0887 20.1533 48.2718 20.2765 48.4548C21.2623 49.4309 23.9117 51.6883 25.7601 52.4814C26.4994 52.8475 27.7317 52.5425 27.6701 52.1154L27.5469 50.6511L27.054 50.4681L27.1772 51.6883C26.4994 53.1526 21.2007 49.0649 20.3382 47.7227Z" fill="#7F7F7F"/>
<path fill-rule="evenodd" clip-rule="evenodd" d="M20.2149 47.8446C20.2765 47.9666 20.3382 48.0886 20.4614 48.2106C21.632 49.3088 23.9117 51.2611 25.5753 52.0542C26.253 52.3593 27.362 52.4813 27.6701 51.8102L27.5469 50.651L27.054 50.468L27.1156 51.6882C26.4994 51.9322 25.452 51.6272 24.8975 51.1391L25.3904 50.1629L24.1582 49.5528L24.0965 50.59C23.234 50.0409 22.4946 49.3698 21.8169 48.7597L22.3098 47.7225L21.2624 47.4175L21.2007 48.3936L20.3382 47.7225L20.2149 47.8446Z" fill="white"/>
<path fill-rule="evenodd" clip-rule="evenodd" d="M21.324 44.428C21.0159 44.733 20.3382 45.5262 20.2766 46.7464C20.2766 47.2344 20.8311 47.8445 21.8169 48.2106C22.8027 48.5767 23.1108 49.5528 24.4046 50.529C25.0824 51.0171 27.7317 51.6272 28.2246 50.773C28.4095 50.346 28.5327 49.9189 27.7934 49.1258C26.4379 47.7225 25.2056 46.9904 24.9592 45.7092C24.8359 45.2211 26.5611 43.6348 26.9308 43.0858C26.3763 43.5128 25.0824 43.7569 24.2198 42.4757C23.9117 42.0486 24.4663 41.3775 23.9117 40.2793C23.6037 41.3775 22.433 43.2688 21.324 44.428Z" fill="#3C3C3B"/>
<path fill-rule="evenodd" clip-rule="evenodd" d="M24.2814 43.8181C24.5894 43.513 25.2056 42.8419 25.3904 42.4758C25.6985 41.9268 26.9923 42.3538 27.3004 43.0249C26.7459 43.452 25.6369 44.1841 25.0823 44.6112C24.7743 44.3061 24.5894 44.0621 24.2814 43.8181Z" fill="#3C3C3B"/>
<path d="M24.0349 46.3805C23.542 46.3805 23.0491 46.2585 22.8643 46.1975C22.8027 46.1365 22.7411 46.0145 22.8027 45.9535C22.8643 45.8314 22.9875 45.8314 23.0491 45.8924C23.4188 46.0755 24.6511 46.1365 24.8975 45.8924C24.9591 45.8314 25.0824 45.8314 25.144 45.8924C25.2056 45.9534 25.2056 46.0755 25.144 46.1365C24.9591 46.3195 24.4662 46.3805 24.0349 46.3805Z" fill="white"/>
<path d="M23.2339 46.8077C23.1107 46.8077 23.0491 46.8077 22.9259 46.8077C22.8026 46.8077 22.741 46.6857 22.741 46.6247C22.741 46.5027 22.8643 46.4417 22.9259 46.4417C23.3572 46.5027 24.4662 46.3196 24.9591 46.1366C25.0823 46.0756 25.1439 46.1366 25.2055 46.1976C25.2672 46.3196 25.2055 46.3806 25.1439 46.4417C24.7126 46.6857 23.8501 46.8077 23.2339 46.8077Z" fill="white"/>
<path d="M25.6369 49.3085C25.5753 49.3085 25.5137 49.2475 25.4521 49.2475C25.3905 49.1865 25.4521 49.0644 25.5137 49.0034C25.945 48.7594 26.8692 48.4543 27.4853 48.6374C27.6085 48.6374 27.6701 48.7594 27.6085 48.8814C27.6085 49.0034 27.4853 49.0644 27.3621 49.0034C26.9308 48.8814 26.0682 49.1255 25.6985 49.3695C25.6985 49.2475 25.6369 49.3085 25.6369 49.3085Z" fill="white"/>
<path d="M25.2672 48.9425C25.2056 48.9425 25.144 48.8815 25.0823 48.8815C25.0207 48.8205 25.0823 48.6985 25.144 48.6375C25.5752 48.3934 26.4994 48.0884 27.1156 48.2104C27.2388 48.2104 27.3004 48.3324 27.2388 48.4544C27.2388 48.5765 27.1156 48.6375 26.9923 48.5765C26.4994 48.4544 25.6985 48.6985 25.3288 48.9425H25.2672Z" fill="white"/>
<path d="M24.8975 48.6373C24.8359 48.6373 24.7743 48.5763 24.7127 48.5763C24.651 48.5153 24.7127 48.3933 24.7743 48.3323C25.2056 48.0882 26.1298 47.7832 26.7459 47.9052C26.8691 47.9052 26.9307 48.0272 26.8691 48.1493C26.8691 48.2713 26.7459 48.3323 26.6227 48.2713C26.1298 48.1493 25.2672 48.4543 24.8975 48.6983C24.9591 48.6373 24.8975 48.6373 24.8975 48.6373Z" fill="white"/>
<path d="M24.5279 48.3323C24.4663 48.3323 24.4046 48.2713 24.343 48.2713C24.2814 48.2103 24.343 48.0882 24.4046 48.0272C24.8359 47.7832 25.7601 47.4781 26.3762 47.5391C26.4995 47.5391 26.5611 47.6612 26.4995 47.7832C26.4995 47.9052 26.3762 47.9662 26.253 47.9052C25.7601 47.8442 24.8975 48.0882 24.5279 48.3323C24.5279 48.3323 24.5895 48.2713 24.5279 48.3323Z" fill="white"/>
<path d="M24.1582 47.9663C24.0966 47.9663 24.0349 47.9053 23.9733 47.9053C23.9117 47.8443 23.9733 47.7223 24.0349 47.6612C24.4662 47.4172 25.3904 47.0511 26.0066 47.1732C26.1298 47.1732 26.1914 47.2952 26.1914 47.3562C26.1914 47.4782 26.0682 47.5392 26.0066 47.5392C25.5137 47.4782 24.6511 47.7833 24.2814 47.9663C24.2198 47.9663 24.1582 47.9663 24.1582 47.9663Z" fill="white"/>
<path d="M23.7885 47.6617C23.7269 47.6617 23.6653 47.6007 23.6036 47.6007C23.542 47.5397 23.6036 47.4176 23.6653 47.3566C24.0965 47.1126 25.0207 46.7465 25.6369 46.8075C25.7601 46.8075 25.8217 46.9296 25.8217 46.9906C25.8217 47.1126 25.6985 47.1736 25.6369 47.1736C25.144 47.1126 24.2814 47.4176 23.9117 47.6617C23.8501 47.6617 23.7885 47.6617 23.7885 47.6617Z" fill="white"/>
<path d="M23.4188 47.2955C23.3572 47.2955 23.2956 47.2345 23.234 47.2345C23.1723 47.1735 23.234 47.0514 23.2956 46.9904C23.7269 46.7464 24.6511 46.3803 25.2672 46.4413C25.3904 46.4413 25.452 46.5633 25.452 46.6244C25.452 46.7464 25.3904 46.8074 25.2672 46.8074C24.7127 46.7464 23.9117 47.0514 23.4804 47.2955H23.4188Z" fill="white"/>
<path d="M24.4662 46.0138C23.9117 46.0138 23.3572 45.8918 23.1108 45.7087C23.0491 45.6477 22.9875 45.5257 23.0491 45.4647C23.1108 45.4037 23.234 45.3427 23.2956 45.4037C23.6653 45.6477 24.8359 45.8308 25.0824 45.5257C25.144 45.4647 25.2672 45.4647 25.3288 45.5257C25.3904 45.5867 25.3904 45.7087 25.3288 45.7698C25.144 45.9528 24.8359 46.0138 24.4662 46.0138Z" fill="white"/>
<path d="M24.8359 45.6478C24.2814 45.6478 23.6037 45.4037 23.2956 45.1597C23.234 45.0987 23.1724 44.9767 23.234 44.9157C23.2956 44.8547 23.4188 44.7936 23.4804 44.9157C23.9117 45.2207 24.9592 45.4648 25.2672 45.1597C25.3288 45.0987 25.4521 45.0987 25.5137 45.1597C25.5753 45.2207 25.5753 45.3427 25.5137 45.4037C25.3904 45.5868 25.144 45.6478 24.8359 45.6478Z" fill="white"/>
<path d="M25.2056 45.2822C24.6511 45.2822 23.9733 44.9772 23.6036 44.6721C23.542 44.6111 23.542 44.4891 23.6036 44.4281C23.6653 44.3671 23.7885 44.3671 23.8501 44.4281C24.2814 44.8551 25.2672 45.0992 25.6369 44.8551C25.6985 44.7941 25.8217 44.7941 25.8833 44.9162C25.9449 44.9772 25.9449 45.0992 25.8217 45.1602C25.6369 45.2212 25.452 45.2822 25.2056 45.2822Z" fill="white"/>
<path d="M25.452 44.9159C24.8359 44.9159 24.1581 44.5499 23.7268 44.1228C23.6652 44.0618 23.6652 43.9398 23.7268 43.8788C23.7885 43.8178 23.9117 43.8178 23.9733 43.8788C24.4662 44.3668 25.3904 44.7329 25.7601 44.4279C25.8217 44.3668 25.9449 44.3668 26.0065 44.4889C26.0681 44.5499 26.0681 44.6719 25.9449 44.7329C25.8833 44.8549 25.6985 44.9159 25.452 44.9159Z" fill="white"/>
<path d="M25.7601 44.5502C25.144 44.5502 24.4662 44.1231 24.0349 43.635C23.9733 43.574 23.9733 43.452 24.0349 43.391C24.0966 43.33 24.2198 43.33 24.2814 43.391C24.7743 43.9401 25.6369 44.3671 26.0682 44.1231C26.1298 44.0621 26.253 44.1231 26.3146 44.1841C26.3762 44.2451 26.3146 44.3671 26.253 44.4281C26.1298 44.5502 25.945 44.5502 25.7601 44.5502Z" fill="white"/>
<path d="M26.6226 46.8682C26.561 46.8682 26.561 46.8682 26.4994 46.8072L26.4378 46.7462C26.4378 46.6241 26.253 45.709 26.1297 44.9769C25.9449 45.465 25.6985 46.0751 25.3288 46.1971C25.2056 46.2581 25.0207 46.2581 24.8359 46.0141C24.8359 46.0141 24.8359 46.0141 24.8359 45.953C24.7126 45.465 25.2672 44.5498 25.6368 44.1838C25.8217 44.0007 26.0065 43.8787 26.1297 43.9397C26.1914 43.9397 26.253 43.8787 26.3146 43.9397C26.7459 44.0007 27.4236 44.8549 27.4852 45.2209C27.5468 45.526 27.6085 45.953 27.4236 46.1971C27.362 46.2581 27.3004 46.3191 27.1156 46.3191C26.8691 46.3191 26.6843 46.0751 26.4994 45.709C26.6226 46.2581 26.6843 46.7462 26.6226 46.8072C26.6843 46.8682 26.6226 46.8682 26.6226 46.8682ZM26.3146 44.2448L26.3762 44.4278C26.4378 44.5498 26.4378 44.7328 26.4994 44.8549L26.561 45.0379C26.8075 45.77 27.0539 46.1361 27.2388 46.1361C27.3004 46.1361 27.3004 46.1361 27.3004 46.1361C27.362 46.0751 27.362 45.831 27.3004 45.404C27.1772 45.0379 26.561 44.3058 26.3146 44.2448ZM25.1439 45.892C25.2056 45.953 25.2672 45.953 25.3288 45.953C25.6985 45.831 26.0681 44.6718 26.0681 44.4278V44.3668V44.3058C25.9449 44.3668 25.7601 44.5498 25.5752 44.8549C25.2672 45.2819 25.0823 45.709 25.1439 45.892Z" fill="white"/>
<path d="M25.8833 46.7459C25.8217 46.7459 25.8217 46.7459 25.8217 46.6849C25.7601 46.6239 25.7601 46.5629 25.8217 46.5019C26.0066 46.3189 26.0066 45.5257 26.0066 44.9766C26.0066 44.3055 26.0066 44.0615 26.1914 44.0005C26.253 44.0005 26.3146 44.0005 26.3762 44.0615C26.3762 44.1225 26.3762 44.1835 26.3762 44.1835C26.1914 44.3666 26.1914 44.7326 26.1914 45.0377C26.1914 45.8918 26.1298 46.5019 25.9449 46.6849C25.9449 46.7459 25.8833 46.7459 25.8833 46.7459Z" fill="white"/>
<path fill-rule="evenodd" clip-rule="evenodd" d="M29.5185 40.1573C27.7934 40.4013 25.945 39.3641 25.5753 37.8999C25.8834 37.6558 26.1914 37.4118 26.6227 37.1068C26.8075 36.9847 26.9924 36.8627 27.1156 36.6797C27.1156 36.7407 27.1156 36.8017 27.1156 36.9237C27.2388 38.0219 29.9498 38.0219 31.7982 37.4118C31.7366 37.4728 31.7366 37.5338 31.675 37.5948C31.0588 38.449 30.3195 39.3031 29.5185 40.1573Z" fill="#EDEDED"/>
<path fill-rule="evenodd" clip-rule="evenodd" d="M4.75013 7.21195C4.38046 5.93074 8.75497 7.21195 8.44691 8.06609C6.044 10.0184 6.47529 9.77437 4.75013 7.21195Z" fill="#3C3C3B"/>
<path fill-rule="evenodd" clip-rule="evenodd" d="M6.84497 1.84296C5.24303 4.46639 5.48949 8.55406 5.30465 9.53022C5.24303 10.3233 7.33787 10.6284 7.52271 9.65224C7.89239 8.12699 8.01561 6.72376 9.80239 4.10033C10.1721 3.49023 11.1579 1.65993 10.1721 1.11084C9.18626 0.500737 8.01561 -0.0483532 6.84497 1.84296Z" fill="#4D4EAF"/>
<path fill-rule="evenodd" clip-rule="evenodd" d="M7.52272 11.0557C8.57013 13.4351 7.70755 14.4112 7.39949 14.5942C7.27626 14.6553 7.02981 14.4112 6.84497 14.4722C6.59852 14.5942 6.16723 14.7163 5.73594 14.6553C5.5511 14.2892 5.36626 12.7639 6.29046 13.069C6.66014 12.6419 6.4753 11.1167 7.52272 11.0557Z" fill="#3C3C3B"/>
<path fill-rule="evenodd" clip-rule="evenodd" d="M32.0446 35.3981C29.0256 31.1884 22.9259 25.7585 20.2765 25.0874C18.7978 26.1246 17.0727 27.6498 15.6556 28.626C15.902 30.5173 16.3949 33.5678 18.8594 33.2017C22.6178 36.8623 26.8691 36.4963 28.2246 37.9605C30.073 39.5468 33.2769 37.6555 32.0446 35.3981Z" fill="#3C3C3B"/>
<path fill-rule="evenodd" clip-rule="evenodd" d="M16.5182 41.1942C17.4424 40.7672 19.1059 39.4859 20.0301 38.8148C20.7078 38.3268 24.4046 39.791 22.0633 42.1704C20.7694 43.3296 19.6604 44.6108 18.8594 45.4039C17.4424 46.8071 16.3333 47.7223 14.9162 49.5526C14.4849 50.1017 13.1295 49.3696 13.0062 48.2104C14.7314 44.9158 14.4233 42.2314 16.5182 41.1942Z" fill="#CF0404"/>
<path fill-rule="evenodd" clip-rule="evenodd" d="M23.2956 40.4013C23.6037 37.2287 22.6179 32.2259 21.6937 28.9314C22.3098 27.6502 21.4472 24.7827 20.8927 24.7217C19.5988 24.9047 17.3192 26.1859 14.1769 24.9657C13.5608 26.3079 13.0063 28.5043 14.793 30.6397C15.2243 36.8017 18.1201 38.3879 18.0585 40.5233C18.3666 42.1095 22.8027 42.9027 23.2956 40.4013Z" fill="#3C3C3B"/>
<path fill-rule="evenodd" clip-rule="evenodd" d="M23.7269 36.6184C25.6985 36.6184 30.073 33.4459 29.8266 32.3477C28.2247 29.9683 23.5421 26.6738 23.5421 24.4774C21.3856 25.1485 17.8737 24.7215 16.6414 24.1724C15.8405 30.4564 18.1201 34.422 23.7269 36.6184Z" fill="#313294"/>
<path fill-rule="evenodd" clip-rule="evenodd" d="M15.7172 38.0219C17.011 38.693 22.9259 38.3269 23.6036 36.1306C23.0491 34.3003 22.1249 31.2498 21.4472 28.9314C22.0017 28.0772 21.0159 25.2098 19.7836 23.5625C20.0917 24.2336 12.8214 23.6235 12.9446 24.2946C12.3901 26.308 12.4517 28.5043 12.883 30.5176C13.5607 33.9952 15.0394 37.2287 15.7172 38.0219Z" fill="#4D4EAF"/>
<path fill-rule="evenodd" clip-rule="evenodd" d="M26.9923 17.3395C26.9923 18.2546 29.4569 22.4033 30.0114 22.6473C30.2578 23.0744 35.0636 21.3661 34.3243 20.512C33.5849 15.0211 29.7649 6.60169 25.8217 11.7265C24.9591 12.7027 24.1582 14.472 26.9923 17.3395Z" fill="#CAC7C7"/>
<path fill-rule="evenodd" clip-rule="evenodd" d="M15.0394 7.3338C12.6365 10.7504 11.5275 24.1116 11.4659 25.0877C13.7456 30.1515 22.6178 28.5653 24.2814 25.9419C24.4046 25.4538 23.8501 24.7827 24.1581 23.9285C24.5894 22.6473 25.8217 21 26.0681 19.7798C28.7791 18.4376 31.7981 14.2279 31.3668 12.2756C29.8881 10.0792 26.8075 7.3338 21.5088 7.02875C19.3523 6.90673 17.6272 4.03926 15.0394 7.3338Z" fill="#DADADA"/>
<path d="M24.7127 19.7798C24.4046 19.7798 24.2198 19.5968 24.2198 19.2918C24.2198 19.0477 24.2814 18.6817 24.4663 18.2546L24.5895 17.8275C24.5895 17.7665 24.6511 17.7055 24.7127 17.7055C24.8359 17.7055 24.8975 17.7055 25.0208 17.7055H25.144C25.2056 17.7055 25.2672 17.7055 25.2672 17.7665C25.2672 17.7665 25.2672 17.7665 25.2672 17.8275C25.2672 17.7665 25.2672 17.6445 25.2056 17.5835C25.144 17.4615 25.144 17.3394 25.0824 17.2174C25.0208 17.0344 25.0208 16.8514 25.0208 16.6683C25.0208 16.4853 25.0824 16.2413 25.144 15.9972C25.2672 15.6312 25.4521 15.3261 25.6369 15.1431C25.8217 14.9601 26.0682 14.838 26.3146 14.838C26.6227 14.838 26.8075 15.0211 26.8075 15.2651C26.8075 15.5091 26.7459 15.8142 26.5611 16.2413L26.4379 16.5463C26.4379 16.6073 26.3763 16.6073 26.3146 16.6683C26.1298 16.6683 26.0066 16.6683 25.8833 16.6683C25.8217 16.6683 25.8217 16.6683 25.8217 16.6683L25.945 17.0344C26.0066 17.2174 26.0066 17.4615 26.0066 17.6445C26.0066 17.8275 25.945 18.0716 25.8217 18.3766C25.6369 18.8037 25.5137 19.1087 25.3288 19.3528C25.2672 19.5968 25.0208 19.7188 24.7127 19.7798C24.7127 19.7188 24.7127 19.7798 24.7127 19.7798ZM24.8359 18.0716L24.7127 18.3766C24.5895 18.8037 24.4663 19.1087 24.4663 19.2918C24.4663 19.4138 24.5279 19.4748 24.6511 19.4748V19.5968V19.4748C24.8359 19.4748 25.0208 19.3528 25.144 19.2308C25.3288 19.0477 25.4521 18.7427 25.6369 18.3156C25.6985 18.0716 25.7601 17.8885 25.7601 17.7055C25.7601 17.5225 25.7601 17.3394 25.6985 17.1564L25.5753 16.7904C25.5137 16.6683 25.5137 16.5463 25.5137 16.4243C25.5137 16.3023 25.5137 16.1803 25.5753 16.0582C25.6369 15.8752 25.6985 15.7532 25.7601 15.6922C25.8217 15.5702 25.945 15.5091 26.0682 15.5091C26.1914 15.5091 26.253 15.5702 26.253 15.5702C26.3146 15.6312 26.3146 15.6922 26.3146 15.8142C26.3146 15.9362 26.253 16.0582 26.1914 16.3023L26.1298 16.4243C26.1914 16.4243 26.1914 16.4243 26.253 16.4243L26.3146 16.2413C26.4379 15.8752 26.4995 15.5702 26.4995 15.3871C26.4995 15.3261 26.4995 15.2651 26.3146 15.2651C26.1298 15.2651 25.945 15.3261 25.8217 15.5091C25.6985 15.6922 25.5137 15.9362 25.3904 16.3023C25.3288 16.4853 25.2672 16.6683 25.2672 16.8514C25.2672 17.0344 25.2672 17.1564 25.3288 17.2784C25.3288 17.4005 25.3904 17.5225 25.4521 17.6445C25.5137 17.8275 25.5137 17.9495 25.5137 18.1326C25.5137 18.2546 25.4521 18.4376 25.3904 18.6817C25.3288 18.8647 25.2672 19.0477 25.2056 19.1087C25.0824 19.2918 24.9592 19.2918 24.8975 19.2918C24.7743 19.2918 24.7127 19.2308 24.7127 19.2308C24.6511 19.1697 24.6511 19.1087 24.6511 18.9867C24.6511 18.8647 24.7127 18.6817 24.8359 18.4376L24.9592 18.1936C24.9592 18.0716 24.8975 18.0716 24.8359 18.0716ZM25.3288 17.9495L25.144 18.4376C25.0824 18.6817 25.0208 18.8037 25.0208 18.8647C25.0208 18.8647 25.0208 18.8647 25.0208 18.8037C25.0824 18.7427 25.144 18.6207 25.2056 18.4376C25.2672 18.2546 25.3288 18.1326 25.3288 17.9495ZM26.1914 15.8142C26.1298 15.8752 26.0682 15.9972 26.0066 16.1192C25.945 16.2413 25.945 16.3633 25.945 16.4243V16.4853L26.0682 16.1803C26.1298 15.9972 26.1298 15.8752 26.1914 15.8142ZM23.7885 19.6578H23.6037C23.5421 19.6578 23.5421 19.6578 23.4804 19.5968C23.4804 19.5968 23.4804 19.5968 23.4804 19.5358C23.3572 19.5968 23.234 19.6578 23.1108 19.6578C22.9875 19.6578 22.7411 19.5358 22.6795 19.1697C22.6795 18.9257 22.7411 18.5596 22.9259 18.0716L23.6653 16.1192C23.8501 15.6922 24.035 15.3871 24.2198 15.1431C24.4046 14.899 24.7127 14.777 24.9592 14.838C25.144 14.838 25.2672 14.899 25.3288 15.0211C25.4521 15.1431 25.4521 15.3261 25.4521 15.5091C25.4521 15.6922 25.3288 15.9972 25.2056 16.3633L25.0824 16.6683C25.0824 16.7293 25.0208 16.7904 24.9592 16.7904C24.8359 16.7904 24.6511 16.7904 24.5279 16.7904C24.4663 16.7904 24.4663 16.7904 24.4046 16.7293C24.4046 16.6683 24.343 16.6683 24.4046 16.6073L24.5895 16.1192C24.6511 15.9362 24.7127 15.8142 24.7127 15.7532C24.7127 15.7532 24.6511 15.7532 24.6511 15.8142C24.5895 15.8752 24.5279 15.9972 24.4046 16.3023L24.1582 16.9124C24.343 16.9124 24.5895 16.9734 24.7743 16.9734C24.8359 16.9734 24.8359 16.9734 24.8975 17.0344C24.8975 17.0954 24.9592 17.0954 24.8975 17.1564L23.9734 19.5968C23.9117 19.6578 23.8501 19.6578 23.7885 19.6578ZM24.7743 15.1431C24.5895 15.1431 24.4663 15.2041 24.343 15.3871C24.1582 15.5702 24.035 15.8752 23.8501 16.2413L23.1108 18.1326C22.9259 18.6817 22.8643 18.9867 22.8643 19.1087C22.8643 19.3528 22.9875 19.3528 23.0492 19.3528C23.1108 19.3528 23.1724 19.3528 23.234 19.2918C23.2956 19.2308 23.3572 19.1697 23.4188 19.0477C23.3572 19.0477 23.3572 19.0477 23.2956 19.0477C23.1724 19.0477 23.1108 18.9867 23.1108 18.9257C23.1108 18.9257 23.1108 18.8647 23.1108 18.7427C23.1108 18.6207 23.1724 18.3766 23.2956 18.0716L24.035 16.1192C24.1582 15.8752 24.2198 15.6922 24.2814 15.5702C24.4046 15.3871 24.5279 15.3871 24.5895 15.3871C24.7743 15.3871 24.8975 15.5091 24.8975 15.6922C24.8975 15.8142 24.8359 15.9362 24.7743 16.1803L24.6511 16.4853C24.7127 16.4853 24.7127 16.4853 24.7743 16.4853L24.8359 16.2413C24.9592 15.9362 25.0208 15.6312 25.0824 15.4481C25.0824 15.3261 25.0824 15.2041 25.0208 15.1431C25.0208 15.1431 24.9592 15.1431 24.7743 15.1431C24.8359 15.1431 24.7743 15.1431 24.7743 15.1431ZM23.6653 18.9257C23.6653 18.9257 23.7269 18.9257 23.6653 18.9257C23.7269 18.9257 23.7885 18.9867 23.7885 18.9867L24.4663 17.2174C24.343 17.2174 24.2814 17.2174 24.1582 17.2174L24.0966 17.4005C24.1582 17.4005 24.1582 17.4005 24.2198 17.4615C24.2198 17.5225 24.2198 17.5225 24.2198 17.5835L23.9734 18.1936C23.8501 18.4986 23.7885 18.6817 23.6653 18.8647C23.7269 18.8647 23.6653 18.9257 23.6653 18.9257ZM23.7885 17.6445L23.6037 18.1936C23.4804 18.4986 23.4188 18.6817 23.4188 18.8037L23.4804 18.7427C23.5421 18.6207 23.6653 18.4376 23.7269 18.1326L23.9117 17.7055C23.8501 17.7055 23.7885 17.7055 23.7885 17.6445ZM22.125 19.4748H22.0634C22.0017 19.4748 21.8785 19.4138 21.8169 19.4138C21.7553 19.4138 21.6937 19.3528 21.6937 19.2308V19.1087C21.7553 18.6817 21.8169 18.2546 21.8785 17.8275L21.3856 19.1697C21.3856 19.2308 21.2624 19.2918 21.2008 19.2308L21.0775 19.1697C21.0159 19.1697 20.8927 19.1087 20.8311 19.1087C20.7695 19.1087 20.7695 19.0477 20.7695 19.0477C20.7695 18.9867 20.7695 18.9867 20.7695 18.9257L22.433 14.472C22.433 14.411 22.5563 14.35 22.6179 14.411C22.7411 14.472 22.8027 14.472 22.9259 14.533C22.9875 14.533 23.0492 14.594 23.0492 14.716L22.8643 15.9972L23.2956 14.777C23.2956 14.716 23.4188 14.655 23.4804 14.655C23.6037 14.655 23.7269 14.716 23.8501 14.716C23.9117 14.716 23.9117 14.777 23.9734 14.777C23.9734 14.838 23.9734 14.838 23.9734 14.899L22.3098 19.3528C22.2482 19.4748 22.1866 19.4748 22.125 19.4748ZM22.0017 19.1697L23.6037 15.0211H23.5421L22.6179 17.5835C22.6179 17.6445 22.4946 17.7055 22.433 17.7055C22.3714 17.7055 22.3098 17.6445 22.3098 17.5225L22.7411 14.838H22.6795L21.0775 18.9257H21.1392L22.125 16.3023C22.125 16.2413 22.2482 16.1803 22.3098 16.1803C22.3714 16.1803 22.433 16.2413 22.433 16.3633L22.1866 17.8275C22.125 18.3156 22.0634 18.7427 22.0017 19.1697ZM20.4614 19.0477C20.4614 19.0477 20.3998 19.0477 20.4614 19.0477C20.2766 18.9867 20.1534 18.9257 20.0301 18.8647C19.9685 18.8647 19.9069 18.7427 19.9685 18.6817L21.6937 14.2279C21.6937 14.1669 21.7553 14.1669 21.7553 14.1669C21.8169 14.1669 21.8169 14.1669 21.8785 14.1669C22.0017 14.2279 22.125 14.2889 22.2482 14.35C22.3098 14.35 22.3714 14.472 22.3098 14.533L20.5846 18.9257C20.5846 18.9867 20.523 19.0477 20.4614 19.0477ZM20.215 18.6817C20.2766 18.6817 20.2766 18.7427 20.3382 18.7427L21.9401 14.533C21.8785 14.533 21.8785 14.472 21.8169 14.472L20.215 18.6817ZM19.4756 18.6207H19.414C19.2908 18.5596 19.1675 18.4986 19.0443 18.4376C18.9827 18.3766 18.9827 18.3156 18.9827 18.2546C19.1059 17.8275 19.2292 17.4005 19.3524 16.9124L18.7979 18.0716C18.7979 18.1326 18.7363 18.1326 18.6746 18.1326C18.613 18.1326 18.613 18.1326 18.5514 18.1326C18.4282 18.0716 18.305 17.9495 18.1817 17.8885C18.1817 17.8275 18.1201 17.7665 18.1817 17.7055C18.4282 16.9124 18.6746 16.1192 18.9211 15.3261L19.6605 12.9467C19.6605 12.8857 19.7221 12.8857 19.7837 12.8247C19.8453 12.8247 19.9069 12.8247 19.9069 12.8857C20.0301 12.9467 20.0917 13.0687 20.215 13.1298C20.2766 13.1908 20.2766 13.2518 20.2766 13.3128L19.9069 14.594L20.3998 13.4958C20.3998 13.4348 20.4614 13.4348 20.523 13.4348C20.5846 13.4348 20.5846 13.4348 20.6463 13.4348C20.7079 13.4958 20.7695 13.5568 20.8927 13.6178L20.9543 13.6788C21.0159 13.7399 21.0159 13.8009 21.0159 13.8619L20.7079 15.0211L21.1392 14.0449C21.1392 13.9839 21.2008 13.9839 21.2008 13.9839C21.2624 13.9839 21.2624 13.9839 21.324 13.9839C21.4472 14.0449 21.5704 14.1059 21.6321 14.1669C21.6937 14.2279 21.7553 14.2889 21.6937 14.35L19.7221 18.6817C19.5988 18.5596 19.5372 18.6207 19.4756 18.6207ZM19.2908 18.1936C19.3524 18.1936 19.3524 18.2546 19.414 18.2546L21.2624 14.1669C21.2624 14.1669 21.2008 14.1669 21.2008 14.1059L19.9069 17.0954C19.8453 17.1564 19.7837 17.2174 19.7221 17.1564C19.6605 17.1564 19.6604 17.0954 19.5988 17.0344C19.4756 17.4615 19.3524 17.8275 19.2908 18.1936ZM18.4898 17.7055C18.5514 17.7055 18.5514 17.7665 18.613 17.7665L19.1675 16.6683C19.1059 16.7293 19.0443 16.7293 18.9827 16.7293C18.9211 16.7293 18.8595 16.6073 18.9211 16.5463L19.9685 13.3128L19.9069 13.2518L19.2292 15.4481C18.9211 16.1803 18.6746 16.9124 18.4898 17.7055ZM20.523 13.7399L19.2292 16.4243L19.9069 15.0821C19.9685 15.0211 20.0301 14.9601 20.0917 15.0211C20.1534 15.0211 20.1534 15.0821 20.215 15.1431L20.523 13.7399C20.523 13.8009 20.523 13.7399 20.523 13.7399Z" fill="white"/>
<path d="M24.7127 19.7798C24.4046 19.7798 24.2198 19.5968 24.2198 19.2918C24.2198 19.0477 24.2814 18.6817 24.4663 18.2546L24.5895 17.8275C24.5895 17.7665 24.6511 17.7055 24.7127 17.7055C24.8359 17.7055 24.8975 17.7055 25.0208 17.7055H25.144C25.2056 17.7055 25.2672 17.7055 25.2672 17.7665C25.2672 17.7665 25.2672 17.7665 25.2672 17.8275C25.2672 17.7665 25.2672 17.6445 25.2056 17.5835C25.144 17.4615 25.144 17.3394 25.0824 17.2174C25.0208 17.0344 25.0208 16.8514 25.0208 16.6683C25.0208 16.4853 25.0824 16.2413 25.144 15.9972C25.2672 15.6312 25.4521 15.3261 25.6369 15.1431C25.8217 14.9601 26.0682 14.838 26.3146 14.838C26.6227 14.838 26.8075 15.0211 26.8075 15.2651C26.8075 15.5091 26.7459 15.8142 26.5611 16.2413L26.4379 16.5463C26.4379 16.6073 26.3763 16.6073 26.3146 16.6683C26.1298 16.6683 26.0066 16.6683 25.8833 16.6683C25.8217 16.6683 25.8217 16.6683 25.8217 16.6683L25.945 17.0344C26.0066 17.2174 26.0066 17.4615 26.0066 17.6445C26.0066 17.8275 25.945 18.0716 25.8217 18.3766C25.6369 18.8037 25.5137 19.1087 25.3288 19.3528C25.2672 19.5968 25.0208 19.7188 24.7127 19.7798C24.7127 19.7188 24.7127 19.7798 24.7127 19.7798ZM24.8359 18.0716L24.7127 18.3766C24.5895 18.8037 24.4663 19.1087 24.4663 19.2918C24.4663 19.4138 24.5279 19.4748 24.6511 19.4748V19.5968V19.4748C24.8359 19.4748 25.0208 19.3528 25.144 19.2308C25.3288 19.0477 25.4521 18.7427 25.6369 18.3156C25.6985 18.0716 25.7601 17.8885 25.7601 17.7055C25.7601 17.5225 25.7601 17.3394 25.6985 17.1564L25.5753 16.7904C25.5137 16.6683 25.5137 16.5463 25.5137 16.4243C25.5137 16.3023 25.5137 16.1803 25.5753 16.0582C25.6369 15.8752 25.6985 15.7532 25.7601 15.6922C25.8217 15.5702 25.945 15.5091 26.0682 15.5091C26.1914 15.5091 26.253 15.5702 26.253 15.5702C26.3146 15.6312 26.3146 15.6922 26.3146 15.8142C26.3146 15.9362 26.253 16.0582 26.1914 16.3023L26.1298 16.4243C26.1914 16.4243 26.1914 16.4243 26.253 16.4243L26.3146 16.2413C26.4379 15.8752 26.4995 15.5702 26.4995 15.3871C26.4995 15.3261 26.4995 15.2651 26.3146 15.2651C26.1298 15.2651 25.945 15.3261 25.8217 15.5091C25.6985 15.6922 25.5137 15.9362 25.3904 16.3023C25.3288 16.4853 25.2672 16.6683 25.2672 16.8514C25.2672 17.0344 25.2672 17.1564 25.3288 17.2784C25.3288 17.4005 25.3904 17.5225 25.4521 17.6445C25.5137 17.8275 25.5137 17.9495 25.5137 18.1326C25.5137 18.2546 25.4521 18.4376 25.3904 18.6817C25.3288 18.8647 25.2672 19.0477 25.2056 19.1087C25.0824 19.2918 24.9592 19.2918 24.8975 19.2918C24.7743 19.2918 24.7127 19.2308 24.7127 19.2308C24.6511 19.1697 24.6511 19.1087 24.6511 18.9867C24.6511 18.8647 24.7127 18.6817 24.8359 18.4376L24.9592 18.1936C24.9592 18.0716 24.8975 18.0716 24.8359 18.0716ZM25.3288 17.9495L25.144 18.4376C25.0824 18.6817 25.0208 18.8037 25.0208 18.8647C25.0208 18.8647 25.0208 18.8647 25.0208 18.8037C25.0824 18.7427 25.144 18.6207 25.2056 18.4376C25.2672 18.2546 25.3288 18.1326 25.3288 17.9495ZM26.1914 15.8142C26.1298 15.8752 26.0682 15.9972 26.0066 16.1192C25.945 16.2413 25.945 16.3633 25.945 16.4243V16.4853L26.0682 16.1803C26.1298 15.9972 26.1298 15.8752 26.1914 15.8142ZM23.7885 19.6578H23.6037C23.5421 19.6578 23.5421 19.6578 23.4804 19.5968C23.4804 19.5968 23.4804 19.5968 23.4804 19.5358C23.3572 19.5968 23.234 19.6578 23.1108 19.6578C22.9875 19.6578 22.7411 19.5358 22.6795 19.1697C22.6795 18.9257 22.7411 18.5596 22.9259 18.0716L23.6653 16.1192C23.8501 15.6922 24.035 15.3871 24.2198 15.1431C24.4046 14.899 24.7127 14.777 24.9592 14.838C25.144 14.838 25.2672 14.899 25.3288 15.0211C25.4521 15.1431 25.4521 15.3261 25.4521 15.5091C25.4521 15.6922 25.3288 15.9972 25.2056 16.3633L25.0824 16.6683C25.0824 16.7293 25.0208 16.7904 24.9592 16.7904C24.8359 16.7904 24.6511 16.7904 24.5279 16.7904C24.4663 16.7904 24.4663 16.7904 24.4046 16.7293C24.4046 16.6683 24.343 16.6683 24.4046 16.6073L24.5895 16.1192C24.6511 15.9362 24.7127 15.8142 24.7127 15.7532C24.7127 15.7532 24.6511 15.7532 24.6511 15.8142C24.5895 15.8752 24.5279 15.9972 24.4046 16.3023L24.1582 16.9124C24.343 16.9124 24.5895 16.9734 24.7743 16.9734C24.8359 16.9734 24.8359 16.9734 24.8975 17.0344C24.8975 17.0954 24.9592 17.0954 24.8975 17.1564L23.9734 19.5968C23.9117 19.6578 23.8501 19.6578 23.7885 19.6578ZM24.7743 15.1431C24.5895 15.1431 24.4663 15.2041 24.343 15.3871C24.1582 15.5702 24.035 15.8752 23.8501 16.2413L23.1108 18.1326C22.9259 18.6817 22.8643 18.9867 22.8643 19.1087C22.8643 19.3528 22.9875 19.3528 23.0492 19.3528C23.1108 19.3528 23.1724 19.3528 23.234 19.2918C23.2956 19.2308 23.3572 19.1697 23.4188 19.0477C23.3572 19.0477 23.3572 19.0477 23.2956 19.0477C23.1724 19.0477 23.1108 18.9867 23.1108 18.9257C23.1108 18.9257 23.1108 18.8647 23.1108 18.7427C23.1108 18.6207 23.1724 18.3766 23.2956 18.0716L24.035 16.1192C24.1582 15.8752 24.2198 15.6922 24.2814 15.5702C24.4046 15.3871 24.5279 15.3871 24.5895 15.3871C24.7743 15.3871 24.8975 15.5091 24.8975 15.6922C24.8975 15.8142 24.8359 15.9362 24.7743 16.1803L24.6511 16.4853C24.7127 16.4853 24.7127 16.4853 24.7743 16.4853L24.8359 16.2413C24.9592 15.9362 25.0208 15.6312 25.0824 15.4481C25.0824 15.3261 25.0824 15.2041 25.0208 15.1431C25.0208 15.1431 24.9592 15.1431 24.7743 15.1431C24.8359 15.1431 24.7743 15.1431 24.7743 15.1431ZM23.6653 18.9257C23.6653 18.9257 23.7269 18.9257 23.6653 18.9257C23.7269 18.9257 23.7885 18.9867 23.7885 18.9867L24.4663 17.2174C24.343 17.2174 24.2814 17.2174 24.1582 17.2174L24.0966 17.4005C24.1582 17.4005 24.1582 17.4005 24.2198 17.4615C24.2198 17.5225 24.2198 17.5225 24.2198 17.5835L23.9734 18.1936C23.8501 18.4986 23.7885 18.6817 23.6653 18.8647C23.7269 18.8647 23.6653 18.9257 23.6653 18.9257ZM23.7885 17.6445L23.6037 18.1936C23.4804 18.4986 23.4188 18.6817 23.4188 18.8037L23.4804 18.7427C23.5421 18.6207 23.6653 18.4376 23.7269 18.1326L23.9117 17.7055C23.8501 17.7055 23.7885 17.7055 23.7885 17.6445ZM22.125 19.4748H22.0634C22.0017 19.4748 21.8785 19.4138 21.8169 19.4138C21.7553 19.4138 21.6937 19.3528 21.6937 19.2308V19.1087C21.7553 18.6817 21.8169 18.2546 21.8785 17.8275L21.3856 19.1697C21.3856 19.2308 21.2624 19.2918 21.2008 19.2308L21.0775 19.1697C21.0159 19.1697 20.8927 19.1087 20.8311 19.1087C20.7695 19.1087 20.7695 19.0477 20.7695 19.0477C20.7695 18.9867 20.7695 18.9867 20.7695 18.9257L22.433 14.472C22.433 14.411 22.5563 14.35 22.6179 14.411C22.7411 14.472 22.8027 14.472 22.9259 14.533C22.9875 14.533 23.0492 14.594 23.0492 14.716L22.8643 15.9972L23.2956 14.777C23.2956 14.716 23.4188 14.655 23.4804 14.655C23.6037 14.655 23.7269 14.716 23.8501 14.716C23.9117 14.716 23.9117 14.777 23.9734 14.777C23.9734 14.838 23.9734 14.838 23.9734 14.899L22.3098 19.3528C22.2482 19.4748 22.1866 19.4748 22.125 19.4748ZM22.0017 19.1697L23.6037 15.0211H23.5421L22.6179 17.5835C22.6179 17.6445 22.4946 17.7055 22.433 17.7055C22.3714 17.7055 22.3098 17.6445 22.3098 17.5225L22.7411 14.838H22.6795L21.0775 18.9257H21.1392L22.125 16.3023C22.125 16.2413 22.2482 16.1803 22.3098 16.1803C22.3714 16.1803 22.433 16.2413 22.433 16.3633L22.1866 17.8275C22.125 18.3156 22.0634 18.7427 22.0017 19.1697ZM20.4614 19.0477C20.4614 19.0477 20.3998 19.0477 20.4614 19.0477C20.2766 18.9867 20.1534 18.9257 20.0301 18.8647C19.9685 18.8647 19.9069 18.7427 19.9685 18.6817L21.6937 14.2279C21.6937 14.1669 21.7553 14.1669 21.7553 14.1669C21.8169 14.1669 21.8169 14.1669 21.8785 14.1669C22.0017 14.2279 22.125 14.2889 22.2482 14.35C22.3098 14.35 22.3714 14.472 22.3098 14.533L20.5846 18.9257C20.5846 18.9867 20.523 19.0477 20.4614 19.0477ZM20.215 18.6817C20.2766 18.6817 20.2766 18.7427 20.3382 18.7427L21.9401 14.533C21.8785 14.533 21.8785 14.472 21.8169 14.472L20.215 18.6817ZM19.4756 18.6207H19.414C19.2908 18.5596 19.1675 18.4986 19.0443 18.4376C18.9827 18.3766 18.9827 18.3156 18.9827 18.2546C19.1059 17.8275 19.2292 17.4005 19.3524 16.9124L18.7979 18.0716C18.7979 18.1326 18.7363 18.1326 18.6746 18.1326C18.613 18.1326 18.613 18.1326 18.5514 18.1326C18.4282 18.0716 18.305 17.9495 18.1817 17.8885C18.1817 17.8275 18.1201 17.7665 18.1817 17.7055C18.4282 16.9124 18.6746 16.1192 18.9211 15.3261L19.6605 12.9467C19.6605 12.8857 19.7221 12.8857 19.7837 12.8247C19.8453 12.8247 19.9069 12.8247 19.9069 12.8857C20.0301 12.9467 20.0917 13.0687 20.215 13.1298C20.2766 13.1908 20.2766 13.2518 20.2766 13.3128L19.9069 14.594L20.3998 13.4958C20.3998 13.4348 20.4614 13.4348 20.523 13.4348C20.5846 13.4348 20.5846 13.4348 20.6463 13.4348C20.7079 13.4958 20.7695 13.5568 20.8927 13.6178L20.9543 13.6788C21.0159 13.7399 21.0159 13.8009 21.0159 13.8619L20.7079 15.0211L21.1392 14.0449C21.1392 13.9839 21.2008 13.9839 21.2008 13.9839C21.2624 13.9839 21.2624 13.9839 21.324 13.9839C21.4472 14.0449 21.5704 14.1059 21.6321 14.1669C21.6937 14.2279 21.7553 14.2889 21.6937 14.35L19.7221 18.6817C19.5988 18.5596 19.5372 18.6207 19.4756 18.6207ZM19.2908 18.1936C19.3524 18.1936 19.3524 18.2546 19.414 18.2546L21.2624 14.1669C21.2624 14.1669 21.2008 14.1669 21.2008 14.1059L19.9069 17.0954C19.8453 17.1564 19.7837 17.2174 19.7221 17.1564C19.6605 17.1564 19.6604 17.0954 19.5988 17.0344C19.4756 17.4615 19.3524 17.8275 19.2908 18.1936ZM18.4898 17.7055C18.5514 17.7055 18.5514 17.7665 18.613 17.7665L19.1675 16.6683C19.1059 16.7293 19.0443 16.7293 18.9827 16.7293C18.9211 16.7293 18.8595 16.6073 18.9211 16.5463L19.9685 13.3128L19.9069 13.2518L19.2292 15.4481C18.9211 16.1803 18.6746 16.9124 18.4898 17.7055ZM20.523 13.7399L19.2292 16.4243L19.9069 15.0821C19.9685 15.0211 20.0301 14.9601 20.0917 15.0211C20.1534 15.0211 20.1534 15.0821 20.215 15.1431L20.523 13.7399C20.523 13.8009 20.523 13.7399 20.523 13.7399Z" fill="white"/>
<path d="M24.7743 19.5969V17.8886C24.8975 17.8886 25.0208 17.8886 25.144 17.8886C25.0824 18.0106 25.0208 18.1937 24.9592 18.3157C24.8359 18.5597 24.8359 18.7428 24.7743 18.8648C24.7743 18.9868 24.7743 18.9868 24.8975 18.9868C24.9592 18.9868 25.0208 18.9258 25.0824 18.8648C25.144 18.8038 25.2056 18.6207 25.2672 18.4377C25.3288 18.2547 25.3904 18.0716 25.3904 17.9496C25.3904 17.8276 25.3904 17.6446 25.3288 17.5226C25.2672 17.4005 25.2672 17.2785 25.2056 17.1565C25.144 16.9735 25.144 16.8514 25.144 16.6684C25.144 16.4854 25.2056 16.3024 25.2672 16.0583C25.3904 15.6923 25.5753 15.4482 25.6985 15.2652C25.8833 15.0822 26.0682 15.0211 26.3146 15.0211C26.5611 15.0211 26.6843 15.0822 26.6843 15.3262C26.6843 15.5092 26.6227 15.8143 26.4379 16.2413C26.3763 16.3634 26.3763 16.4244 26.3146 16.5464C26.1914 16.5464 26.0066 16.5464 25.8833 16.5464C25.945 16.4244 25.945 16.3634 26.0066 16.2413C26.0682 15.9973 26.1298 15.8753 26.1298 15.7533C26.1298 15.6312 26.1298 15.6312 26.0066 15.6312C25.945 15.6312 25.8833 15.6923 25.8217 15.7533C25.7601 15.8143 25.6985 15.9363 25.6369 16.0583C25.5753 16.1803 25.5753 16.3024 25.5753 16.4244C25.5753 16.4854 25.5753 16.6074 25.6369 16.7294C25.6985 16.8514 25.6985 16.9735 25.7601 17.0955C25.8217 17.2785 25.8217 17.4615 25.8217 17.7056C25.8217 17.8886 25.7601 18.1327 25.6369 18.3767C25.4521 18.8038 25.3288 19.1088 25.144 19.2918C25.2056 19.4749 25.0208 19.5969 24.7743 19.5969ZM24.7743 16.6074H24.8359C24.8975 16.4854 24.8975 16.4244 24.9592 16.3024C25.0824 15.9363 25.144 15.6923 25.2056 15.5092C25.2672 15.2042 25.144 15.0211 24.8359 14.9601H24.7743V16.6074ZM24.7743 14.9601V16.6074C24.6511 16.6074 24.5279 16.6074 24.4046 16.6074C24.4662 16.4244 24.5279 16.3024 24.5895 16.1193C24.6511 15.9363 24.7127 15.7533 24.7127 15.6923C24.7127 15.6312 24.6511 15.5702 24.5895 15.5702C24.5279 15.5702 24.4663 15.6312 24.343 15.6923C24.2814 15.8143 24.2198 15.9363 24.0966 16.2413C23.9733 16.5464 23.8501 16.9125 23.7269 17.2175C23.6037 17.5226 23.4804 17.8886 23.3572 18.1937C23.2956 18.3767 23.234 18.5597 23.1724 18.6817V17.4005L23.234 17.1565C23.3572 16.8514 23.4804 16.4854 23.6037 16.1803C23.7885 15.7533 23.9117 15.4482 24.0966 15.2652C24.4046 15.0822 24.5895 14.9601 24.7743 14.9601ZM24.7743 17.8886C24.6511 18.0106 24.6511 18.1327 24.5895 18.2547C24.4046 18.6817 24.343 18.9868 24.343 19.2308C24.343 19.4749 24.4662 19.5969 24.7127 19.5359H24.7743V17.8886ZM23.2956 19.4749C23.3572 19.4749 23.3572 19.4139 23.4188 19.4139C23.5421 19.3529 23.6037 19.2308 23.7269 19.0478C23.6653 19.1698 23.6653 19.3529 23.6037 19.4749C23.6653 19.4749 23.7269 19.4749 23.7885 19.4749C23.9117 19.0478 24.0966 18.6817 24.2198 18.2547C24.343 17.8276 24.5279 17.4615 24.6511 17.0345C24.4663 17.0345 24.2198 17.0345 24.035 16.9735C23.9733 17.1565 23.9117 17.2785 23.8501 17.4615C23.9117 17.4615 23.9733 17.4615 24.0966 17.4615C24.035 17.6446 23.9733 17.8886 23.8501 18.0716C23.7269 18.3767 23.6653 18.5597 23.5421 18.6817C23.4804 18.8038 23.3572 18.8648 23.2956 18.8648H23.234V19.4749H23.2956ZM23.2956 16.2413L23.7885 14.8381C23.6653 14.8381 23.5421 14.7771 23.4188 14.7771L23.2956 15.1432V16.2413ZM21.1392 13.984C21.2624 14.045 21.324 14.106 21.4472 14.167L21.1392 14.8381V13.984ZM23.2956 15.2042L23.1724 15.5702C23.1108 15.8143 22.9875 16.0583 22.9259 16.3024C22.8643 16.4854 22.8027 16.7294 22.6795 16.9125C22.6179 17.0955 22.5563 17.3395 22.4946 17.5226C22.5563 17.0345 22.6179 16.6074 22.6795 16.1193C22.7411 15.6312 22.8027 15.2042 22.9259 14.7161C22.8027 14.6551 22.7411 14.6551 22.6179 14.5941C22.3098 15.3262 22.0633 16.0583 21.7553 16.8514L21.2008 18.3157V19.1698H21.2624C21.3856 18.9258 21.4472 18.6207 21.5704 18.3767C21.6937 18.1327 21.7553 17.8276 21.8785 17.5836C21.9401 17.4005 22.0017 17.2175 22.0633 16.9735C22.125 16.7904 22.1866 16.6074 22.2482 16.3634C22.1866 16.8514 22.125 17.3395 22.0017 17.8276C21.9401 18.3157 21.8785 18.8038 21.7553 19.2918C21.8785 19.2918 21.9401 19.3529 22.0633 19.3529C22.3714 18.6207 22.6179 17.8886 22.9259 17.1565L23.234 16.3024V15.2042H23.2956ZM23.2956 17.3395V18.6207C23.2956 18.6817 23.2956 18.7428 23.234 18.7428C23.234 18.8038 23.234 18.8648 23.2956 18.9258V19.4749C23.234 19.5359 23.1108 19.5359 23.0492 19.5359C22.8643 19.5359 22.7411 19.4139 22.7411 19.1698C22.7411 18.9258 22.8027 18.5597 22.9875 18.1327L23.2956 17.3395ZM21.1392 17.0345L21.2624 16.6684C21.5704 15.9363 21.8169 15.2042 22.125 14.411C22.0017 14.35 21.8785 14.289 21.7553 14.228L21.1392 15.7533V17.0345ZM20.7695 14.7771L21.1392 13.984H21.2008V14.7771L20.7695 15.6923V14.7771ZM21.1392 15.8143V17.0345L20.7079 18.1327V16.9125L20.8311 16.5464L21.1392 15.8143ZM21.1392 18.2547V19.1088C21.0159 19.1088 20.9543 19.0478 20.8311 19.0478L21.1392 18.2547ZM18.305 17.7666C18.5514 16.9735 18.7979 16.1803 19.0443 15.3872C19.2908 14.5941 19.5372 13.8009 19.7837 13.0078C19.9069 13.0688 19.9685 13.1908 20.0917 13.2519C19.9069 13.8009 19.7221 14.35 19.5372 14.9601C19.3524 15.5092 19.1675 16.0583 18.9827 16.6074C19.2292 16.1193 19.4756 15.5702 19.7221 15.0822C19.9685 14.5941 20.215 14.045 20.4614 13.5569C20.5846 13.6179 20.6463 13.6789 20.7695 13.7399C20.5846 14.289 20.4614 14.8381 20.2766 15.3872C20.0917 15.9363 19.9685 16.4854 19.7837 17.0345C20.0301 16.4854 20.215 15.9973 20.4614 15.5092L20.7695 14.7771V15.6923L20.4614 16.3024C20.1533 17.0345 19.7837 17.7666 19.4756 18.4987C19.3524 18.4377 19.2292 18.3767 19.1059 18.3157C19.2292 17.7666 19.414 17.2785 19.5372 16.7294C19.6604 16.1803 19.8453 15.6923 19.9685 15.1432C19.7221 15.6312 19.5372 16.1193 19.2908 16.5464C19.0443 17.0345 18.8595 17.5226 18.613 17.9496C18.5514 17.8886 18.4282 17.8276 18.305 17.7666ZM20.7695 16.9125L20.0917 18.7428C20.215 18.8038 20.3382 18.8648 20.4614 18.9258L20.7695 18.1327V16.9125Z" fill="#E30613"/>
<path fill-rule="evenodd" clip-rule="evenodd" d="M9.86397 0.683561C9.4943 0.378511 6.47527 2.94093 7.95397 5.01527C11.6507 9.22496 16.8262 15.326 19.722 9.04193C21.2624 5.74739 13.1295 1.90376 9.86397 0.683561Z" fill="#EDEDED"/>
<path fill-rule="evenodd" clip-rule="evenodd" d="M34.0162 22.1593C32.6607 24.9047 29.272 27.5281 28.471 28.1992C27.7933 28.6873 26.253 26.979 26.9307 26.3079C28.0398 25.1487 28.5327 24.2946 29.8265 21.3661C30.9356 18.8037 35.6798 19.0477 34.0162 22.1593Z" fill="#4D4EAF"/>
<path fill-rule="evenodd" clip-rule="evenodd" d="M11.1579 50.9561L10.8498 51.2001C10.8498 51.3221 10.9114 51.4441 11.0963 51.6272C12.0821 52.6033 14.7314 54.8607 16.5798 55.6538C17.3192 56.0199 18.5514 55.7148 18.4898 55.2878L18.3666 53.8235L17.8737 53.7015L17.9969 54.9217C17.3192 56.3859 12.0205 52.2983 11.1579 50.9561Z" fill="#706F6F"/>
<path fill-rule="evenodd" clip-rule="evenodd" d="M11.0347 51.078C11.0963 51.2 11.1579 51.261 11.2811 51.383C12.4518 52.4812 14.7314 54.4335 16.395 55.2267C17.0727 55.5317 18.1818 55.6537 18.4898 54.9826L18.3666 53.8844L17.9353 53.7014L17.9969 54.9216C17.3808 55.1657 16.395 54.9216 15.8405 54.4335L16.7031 53.6404L15.0395 52.7863L14.9779 53.8234C14.1153 53.2743 13.4376 52.6642 12.7598 52.0541L13.5608 51.078L12.3285 50.7119L12.0205 51.5661L11.1579 50.956L11.0347 51.078Z" fill="#B2B2B2"/>
<path fill-rule="evenodd" clip-rule="evenodd" d="M11.0347 51.0781L10.7882 51.3222C10.7882 51.4442 10.9114 51.6272 11.0347 51.8102C12.0205 52.7864 14.6698 55.0438 16.5182 55.8369C17.2576 56.203 18.4898 55.8979 18.4282 55.4709L18.305 54.0066L17.8121 53.8236L17.9353 55.0438C17.2576 56.508 11.8972 52.4203 11.0347 51.0781Z" fill="#7F7F7F"/>
<path fill-rule="evenodd" clip-rule="evenodd" d="M10.9114 51.2C10.973 51.322 11.0346 51.4441 11.1579 51.5661C12.3285 52.6643 14.6082 54.6166 16.2717 55.4097C16.9495 55.7148 18.0585 55.8368 18.3666 55.1657L18.2433 54.0675L17.7504 53.8845L17.812 55.1047C17.1959 55.3487 16.1485 55.0437 15.594 54.5556L16.0869 53.5794L14.8546 52.9693L14.793 54.0065C13.9304 53.4574 13.1911 52.7863 12.5133 52.1762L13.0062 51.139L12.0204 50.7729L11.9588 51.7491L11.0962 51.078L10.9114 51.2Z" fill="white"/>
<path fill-rule="evenodd" clip-rule="evenodd" d="M12.0205 47.7835C11.7124 48.0885 11.0347 48.8816 10.9731 50.1018C10.9731 50.5899 11.5276 51.2 12.5134 51.5661C13.4992 51.9321 13.8072 52.9083 15.1011 53.8845C15.7789 54.3725 18.4282 54.9826 18.9211 54.1285C19.106 53.7014 19.2292 53.2744 18.4898 52.4812C17.1343 51.078 15.9021 50.3459 15.6556 49.0647C15.5324 48.5766 17.2576 46.9903 17.6272 46.4412C17.0727 46.8683 15.7789 47.1123 14.9163 45.8311C14.6082 45.4041 15.1627 44.7329 14.6082 43.6348C14.3618 44.7329 13.1295 46.6243 12.0205 47.7835Z" fill="#3C3C3B"/>
<path fill-rule="evenodd" clip-rule="evenodd" d="M14.9778 47.1735C15.2859 46.8685 15.902 46.1974 16.0869 45.8313C16.3949 45.2822 17.6888 45.7093 17.9969 46.3804C17.4424 46.8075 16.3333 47.5396 15.7788 47.9667C15.4707 47.6616 15.3475 47.4176 14.9778 47.1735Z" fill="#3C3C3B"/>
<path d="M14.7931 49.736C14.3002 49.736 13.8073 49.614 13.6224 49.553C13.5608 49.4919 13.4992 49.3699 13.5608 49.3089C13.6224 49.2479 13.7456 49.1869 13.8073 49.2479C14.1769 49.4309 15.4092 49.4919 15.6556 49.2479C15.7173 49.1869 15.8405 49.1869 15.9021 49.2479C15.9637 49.3089 15.9637 49.4309 15.9021 49.4919C15.6556 49.675 15.2243 49.736 14.7931 49.736Z" fill="white"/>
<path d="M13.992 50.1632C13.8688 50.1632 13.8072 50.1632 13.684 50.1632C13.5607 50.1632 13.4991 50.0412 13.4991 49.9802C13.4991 49.8581 13.6223 49.7971 13.684 49.7971C14.1152 49.8581 15.2243 49.6751 15.7172 49.4921C15.7788 49.4311 15.902 49.4921 15.9636 49.5531C16.0252 49.6751 15.9636 49.7361 15.902 49.7971C15.4707 49.9802 14.5465 50.1632 13.992 50.1632Z" fill="white"/>
<path d="M16.3334 52.6034C16.2718 52.6034 16.2102 52.5424 16.1485 52.5424C16.0869 52.4814 16.1485 52.3594 16.2101 52.2984C16.6414 52.0543 17.6272 51.7493 18.1818 51.9323C18.305 51.9323 18.3666 52.0543 18.305 52.1763C18.305 52.2984 18.1818 52.3594 18.0585 52.2984C17.6272 52.1763 16.7647 52.4204 16.395 52.6644C16.4566 52.6034 16.395 52.6034 16.3334 52.6034Z" fill="white"/>
<path d="M15.9637 52.298C15.9021 52.298 15.8405 52.237 15.7788 52.237C15.7172 52.176 15.7788 52.0539 15.8405 51.9929C16.2718 51.7489 17.1959 51.4438 17.8121 51.5659C17.9353 51.5659 17.9969 51.6879 17.9353 51.8099C17.9353 51.9319 17.8121 51.9929 17.6888 51.9319C17.1959 51.8099 16.395 52.0539 16.0253 52.298C16.0869 52.298 16.0253 52.298 15.9637 52.298Z" fill="white"/>
<path d="M15.594 51.9928C15.5324 51.9928 15.4707 51.9318 15.4091 51.9318C15.3475 51.8708 15.4091 51.7488 15.4707 51.6878C15.902 51.4437 16.8262 51.1387 17.4423 51.2607C17.5656 51.2607 17.6272 51.3827 17.5656 51.5047C17.5656 51.6268 17.4423 51.6878 17.3191 51.6268C16.8262 51.5047 15.9636 51.8098 15.594 52.0538C15.7172 51.9928 15.6556 51.9928 15.594 51.9928Z" fill="white"/>
<path d="M15.2244 51.6267C15.1628 51.6267 15.1011 51.5657 15.0395 51.5657C14.9779 51.5047 15.0395 51.3827 15.1011 51.3217C15.5324 51.0776 16.4566 50.7726 17.0728 50.8336C17.196 50.8336 17.2576 50.9556 17.196 51.0776C17.196 51.1996 17.0728 51.2606 16.9495 51.1996C16.4566 51.1386 15.594 51.3827 15.2244 51.6267C15.286 51.6267 15.3476 51.6267 15.2244 51.6267Z" fill="white"/>
<path d="M14.8546 51.3218C14.793 51.3218 14.7314 51.2607 14.6698 51.2607C14.6082 51.1997 14.6698 51.0777 14.7314 51.0167C15.1627 50.7727 16.0869 50.4066 16.703 50.5286C16.8263 50.5286 16.8879 50.6506 16.8879 50.7117C16.8879 50.8337 16.7646 50.8947 16.703 50.8947C16.2101 50.8337 15.3476 51.1387 14.9779 51.3218C14.9779 51.3218 14.9163 51.3218 14.8546 51.3218Z" fill="white"/>
<path d="M14.485 51.0171C14.4233 51.0171 14.3617 50.9561 14.3001 50.9561C14.2385 50.8951 14.3001 50.7731 14.3617 50.7121C14.793 50.4681 15.7172 50.102 16.3333 50.163C16.4566 50.163 16.5182 50.285 16.5182 50.346C16.5182 50.4681 16.395 50.5291 16.3333 50.5291C15.8404 50.4681 14.9779 50.7731 14.6082 51.0171C14.6082 50.9561 14.5466 51.0171 14.485 51.0171Z" fill="white"/>
<path d="M14.1153 50.6509C14.0537 50.6509 13.992 50.5899 13.9304 50.5899C13.8688 50.5289 13.9304 50.4069 13.992 50.3459C14.4233 50.1018 15.3475 49.7358 15.9637 49.7968C16.0869 49.7968 16.1485 49.9188 16.1485 49.9798C16.1485 50.1018 16.0869 50.1629 15.9637 50.1629C15.4091 50.1018 14.6082 50.4069 14.1769 50.6509C14.2385 50.6509 14.1769 50.6509 14.1153 50.6509Z" fill="white"/>
<path d="M15.2244 49.3693C14.6698 49.3693 14.1153 49.2472 13.8689 49.0642C13.8073 49.0032 13.7456 48.8812 13.8073 48.8202C13.8689 48.7592 13.9921 48.6981 14.0537 48.7592C14.4234 49.0032 15.594 49.1252 15.8405 48.8812C15.9021 48.8202 16.0253 48.8202 16.0869 48.8812C16.1485 48.9422 16.1485 49.0642 16.0869 49.1252C15.9021 49.3083 15.594 49.3693 15.2244 49.3693Z" fill="white"/>
<path d="M15.594 49.0035C15.0395 49.0035 14.3618 48.7594 14.0537 48.5154C13.9921 48.4544 13.9305 48.3323 13.9921 48.2713C14.0537 48.2103 14.1769 48.1493 14.2386 48.2103C14.6698 48.5154 15.7173 48.7594 16.0253 48.4544C16.0869 48.3934 16.2102 48.3934 16.2718 48.4544C16.3334 48.5154 16.3334 48.6374 16.2718 48.6984C16.1486 48.9425 15.9021 49.0035 15.594 49.0035Z" fill="white"/>
<path d="M15.9021 48.6377C15.3476 48.6377 14.6699 48.3326 14.3002 48.0276C14.2386 47.9666 14.2386 47.8446 14.3002 47.7836C14.3618 47.7225 14.485 47.7225 14.5466 47.7836C14.9779 48.2106 15.9637 48.4547 16.3334 48.2106C16.395 48.1496 16.5182 48.1496 16.5799 48.2716C16.6415 48.3326 16.6415 48.4547 16.5182 48.5157C16.395 48.5767 16.1486 48.6377 15.9021 48.6377Z" fill="white"/>
<path d="M16.2101 48.2714C15.594 48.2714 14.9163 47.9053 14.485 47.4783C14.4233 47.4173 14.4233 47.2952 14.485 47.2342C14.5466 47.1732 14.6698 47.1732 14.7314 47.2342C15.2243 47.7223 16.1485 48.0884 16.5182 47.7833C16.5798 47.7223 16.703 47.7223 16.7646 47.8443C16.8262 47.9053 16.8262 48.0274 16.703 48.0884C16.6414 48.2104 16.395 48.2714 16.2101 48.2714Z" fill="white"/>
<path d="M16.5182 47.9056C15.9021 47.9056 15.2244 47.4786 14.7931 46.9905C14.7315 46.9295 14.7315 46.8075 14.7931 46.7464C14.8547 46.6854 14.9779 46.6854 15.0395 46.7464C15.5324 47.2955 16.395 47.7226 16.8263 47.4786C16.8879 47.4176 17.0111 47.4786 17.0727 47.5396C17.1344 47.6006 17.0727 47.7226 17.0111 47.7836C16.8879 47.8446 16.7031 47.9056 16.5182 47.9056Z" fill="white"/>
<path d="M17.3192 50.2237C17.2575 50.2237 17.2575 50.2237 17.1959 50.1627L17.1343 50.1016C17.1343 49.9796 16.9495 49.0645 16.8262 48.3324C16.6414 48.8204 16.395 49.4305 16.0253 49.5526C15.9021 49.6136 15.7172 49.6136 15.5324 49.3695C15.5324 49.3695 15.5324 49.3695 15.5324 49.3085C15.4092 48.8204 15.9637 47.9053 16.3333 47.5392C16.5182 47.3562 16.703 47.2342 16.8262 47.2952C16.8879 47.2952 16.9495 47.2342 17.0111 47.2952C17.4424 47.3562 18.1201 48.2103 18.1817 48.5764C18.2433 48.8814 18.305 49.3085 18.1201 49.5526C18.0585 49.6136 17.9969 49.6746 17.8121 49.6746C17.5656 49.6746 17.3808 49.4305 17.1959 49.0645C17.3192 49.6136 17.3808 50.1016 17.3192 50.1627C17.3808 50.2237 17.3808 50.2237 17.3192 50.2237ZM17.0111 47.6002L17.0727 47.7833C17.1343 47.9053 17.1343 48.0883 17.1959 48.2103C17.1959 48.2713 17.2575 48.3324 17.2575 48.3934C17.504 49.1255 17.7504 49.4915 17.9353 49.4915C17.9969 49.4915 17.9969 49.4915 17.9969 49.4915C18.0585 49.4305 18.0585 49.1865 17.9969 48.7594C17.9353 48.3324 17.3192 47.6002 17.0111 47.6002ZM15.8404 49.2475C15.9021 49.3085 15.9637 49.3085 16.0253 49.3085C16.395 49.1865 16.7646 48.0273 16.7646 47.7833V47.7223V47.6612C16.6414 47.7223 16.4566 47.9053 16.2717 48.2103C15.9637 48.6374 15.8404 49.0645 15.8404 49.2475Z" fill="white"/>
<path d="M16.5798 50.1018C16.5182 50.1018 16.5182 50.1018 16.5182 50.0408C16.4566 49.9798 16.4566 49.9187 16.5182 49.8577C16.7031 49.6747 16.7031 48.8816 16.7031 48.3325C16.7031 47.6614 16.7031 47.4173 16.8879 47.3563C16.9495 47.2953 17.0111 47.3563 17.0727 47.4173C17.0727 47.4783 17.0727 47.5394 17.0727 47.6004C16.9495 47.7224 16.9495 48.0884 16.9495 48.3935C16.9495 49.2476 16.8879 49.8577 16.7031 50.0408C16.6415 50.1018 16.6415 50.1018 16.5798 50.1018Z" fill="white"/>
<path fill-rule="evenodd" clip-rule="evenodd" d="M25.144 27.711C25.8217 27.2229 26.4378 28.199 26.6843 28.9312C26.8691 29.4192 26.1298 30.8835 25.6985 31.6156C25.452 32.1037 25.452 32.3477 25.3904 32.5918C25.3288 33.0188 24.343 32.6528 24.4046 32.1037C24.0965 32.2257 23.7269 31.6766 23.8501 31.3106C23.542 31.3716 23.2956 31.1885 23.2956 30.5784C22.6794 30.5174 22.8027 29.7243 22.9875 29.3582C23.1107 28.7481 23.6036 28.6261 23.9117 28.4431C24.5278 27.894 25.0207 27.833 25.144 27.711Z" fill="#3C3C3B"/>
<path fill-rule="evenodd" clip-rule="evenodd" d="M23.4804 28.6262C24.2198 27.8941 25.0823 27.406 26.0681 27.4671C26.8075 27.5281 27.9781 28.5652 27.6701 29.2974C27.4236 29.9685 27.054 30.7006 26.6227 31.7377C26.3762 31.3107 25.6985 31.7988 25.452 32.0428C25.3904 32.2258 24.7743 32.0428 24.7127 31.4937C24.4046 31.4327 24.2814 31.1887 24.2198 30.5786C23.8501 30.4565 23.8501 30.2735 23.7269 29.8464C23.4188 29.6024 23.2956 28.9923 23.4804 28.6262Z" fill="#575756"/>
<path fill-rule="evenodd" clip-rule="evenodd" d="M27.3005 25.3926C28.4095 25.6366 29.8266 27.3449 29.8882 28.199C29.8266 28.4431 29.7034 28.6871 29.2105 28.7481C29.0872 28.016 27.6085 26.6128 26.7459 26.2467C26.7459 25.8807 26.9308 25.3926 27.3005 25.3926Z" fill="#DADADA"/>
<path fill-rule="evenodd" clip-rule="evenodd" d="M29.2105 28.687C28.7176 29.114 28.163 29.4801 27.6701 29.9072C27.7934 28.931 26.9924 28.1989 25.8834 27.4668L26.7459 26.1855C28.3479 26.7346 28.8408 27.8938 29.2105 28.687Z" fill="#3C3C3B"/>
<path fill-rule="evenodd" clip-rule="evenodd" d="M15.8404 9.34719C20.5846 13.9839 25.3288 14.8381 30.9356 14.35C31.3052 13.5569 31.4285 12.8248 31.3052 12.2757C29.8265 10.0793 26.8691 7.27284 21.5704 6.78476C20.4614 6.66274 21.0159 5.86961 17.3191 4.64941C16.2717 4.83244 15.0394 8.18799 15.8404 9.34719Z" fill="#4D4EAF"/>
<path fill-rule="evenodd" clip-rule="evenodd" d="M27.7933 10.3842C26.8691 12.9466 22.6178 11.4214 23.6037 7.76076C23.9733 6.54056 28.8408 7.63874 27.7933 10.3842Z" fill="#CF0404"/>
<path fill-rule="evenodd" clip-rule="evenodd" d="M29.4569 6.23573C29.4569 6.23573 28.4711 7.33391 27.7934 9.65229C26.9924 12.3367 23.1108 11.0555 24.0966 7.63896C24.6511 6.90684 24.5279 5.99169 25.144 3.97836C25.5753 3.30725 29.4569 6.23573 29.4569 6.23573Z" fill="#DB9669"/>
<path fill-rule="evenodd" clip-rule="evenodd" d="M32.1678 4.16148C31.9213 4.71057 31.9213 5.25966 31.7981 5.86976C31.7981 6.54087 30.9355 6.41885 31.1204 7.51703C30.9355 8.18814 30.381 9.10329 29.9497 9.59137C29.7033 10.0184 29.3336 10.6285 28.471 10.7506C27.1155 10.9946 26.4378 9.53036 25.5136 8.73723C24.5894 7.9441 25.6368 6.78491 25.6368 5.80875C25.6984 3.97845 26.6843 1.8431 28.7175 1.90411C29.6417 1.90411 30.9972 2.27017 31.6749 2.94128C31.8597 3.12431 32.4143 3.61239 32.1678 4.16148Z" fill="#F2B387"/>
<path fill-rule="evenodd" clip-rule="evenodd" d="M11.8972 20.3286C15.902 23.6232 20.2149 23.9892 24.6511 22.769C24.4046 23.1961 24.2198 23.5621 24.0966 23.9892C24.0966 24.0502 24.0349 24.1722 24.0349 24.2333C19.6604 26.6126 14.6698 25.7585 11.5275 23.5621C11.6508 22.708 11.774 21.5488 11.8972 20.3286Z" fill="white"/>
<path fill-rule="evenodd" clip-rule="evenodd" d="M11.8356 21.061C15.7172 24.5386 19.9685 24.7826 24.343 23.4404C24.2814 23.6235 24.2198 23.8065 24.1582 23.9285C24.0966 24.1115 24.0966 24.3556 24.0966 24.5386C19.7837 27.4061 14.6698 26.4909 11.5275 24.1725C11.5891 23.4404 11.6508 22.3422 11.8356 21.061Z" fill="#E30613"/>
<path fill-rule="evenodd" clip-rule="evenodd" d="M3.2098 8.98103L46.7701 49.3086C45.8459 49.4917 45.9075 48.9426 45.7227 49.8577L2.47044 9.83517C2.10077 9.65214 2.84012 8.73699 3.2098 8.98103Z" fill="#EDEDED"/>
<path fill-rule="evenodd" clip-rule="evenodd" d="M52.7465 48.8817C50.6517 48.9428 46.0924 48.4547 44.7369 47.4785C44.9217 48.0276 45.4762 49.3088 45.6611 49.8579C47.4478 51.2001 52.0688 51.6272 54.3485 51.4442C54.4717 51.4442 54.5333 51.3832 54.5949 51.3221C54.6565 51.2611 54.6565 51.1391 54.5949 51.0171C54.4101 50.651 53.9172 49.9799 53.5475 49.3698C53.4243 49.1258 53.1162 48.8817 52.7465 48.8817Z" fill="#EDEDED"/>
<path fill-rule="evenodd" clip-rule="evenodd" d="M2.84011 9.22531L46.4004 49.5529C45.4762 49.736 45.5378 49.1869 45.353 50.102L2.10075 10.0184C1.73108 9.83541 2.47043 8.92026 2.84011 9.22531Z" fill="#9A93C9"/>
<path fill-rule="evenodd" clip-rule="evenodd" d="M52.3769 49.0649C50.282 49.1259 45.7227 48.6378 44.3672 47.6616C44.552 48.2107 45.1065 49.4919 45.2914 50.041C47.0782 51.3832 51.6991 51.8103 53.9788 51.6273C54.102 51.6273 54.1636 51.5663 54.2252 51.5053C54.2869 51.4442 54.2869 51.3222 54.2252 51.2002C54.0404 50.8341 53.5475 50.163 53.1778 49.5529C53.0546 49.3089 52.8081 49.0649 52.3769 49.0649Z" fill="#959799"/>
<path fill-rule="evenodd" clip-rule="evenodd" d="M26.1298 31.0665C26.3146 31.2495 26.3146 31.5545 26.1298 31.7376L25.3904 32.4087C25.2056 32.5917 24.8975 32.5917 24.7127 32.4087C24.5279 32.2257 24.5279 31.9206 24.7127 31.7376L25.452 31.0665C25.6369 30.8834 25.945 30.8834 26.1298 31.0665Z" fill="#878787"/>
<path fill-rule="evenodd" clip-rule="evenodd" d="M27.6084 29.4192C28.2246 31.9817 27.1772 32.7748 26.8075 32.8968C26.3762 33.0798 25.6985 32.7748 25.1439 32.4087C25.0207 31.9817 25.452 31.3106 26.561 31.6766C25.6985 30.5174 26.4378 27.833 27.6084 29.4192Z" fill="#3C3C3B"/>
<path fill-rule="evenodd" clip-rule="evenodd" d="M25.6985 30.8223L24.8359 31.6764C24.4046 32.1035 23.7269 31.4324 24.1582 31.0053L25.0208 30.1512C25.5137 29.6631 26.1914 30.3342 25.6985 30.8223Z" fill="#878787"/>
<path fill-rule="evenodd" clip-rule="evenodd" d="M24.9591 29.419C25.144 29.602 25.144 29.9071 24.9591 30.0901L24.2198 30.7612C24.0349 30.9443 23.7269 30.9443 23.542 30.7612C23.3572 30.5782 23.3572 30.2731 23.542 30.0901L24.2814 29.419C24.4662 29.236 24.7743 29.236 24.9591 29.419Z" fill="#878787"/>
<path fill-rule="evenodd" clip-rule="evenodd" d="M24.343 28.5043C24.5279 28.6873 24.5279 28.9924 24.343 29.1754L23.6037 29.8465C23.4188 30.0296 23.1108 30.0296 22.9259 29.8465C22.7411 29.6635 22.7411 29.3585 22.9259 29.1754L23.6653 28.5043C23.8501 28.2603 24.1582 28.2603 24.343 28.5043Z" fill="#878787"/>
<path fill-rule="evenodd" clip-rule="evenodd" d="M5.48948 12.3366C5.79755 12.5807 6.10561 12.6417 6.22884 12.5196C6.35206 12.3976 6.16722 12.0926 5.85916 11.8485C5.55109 11.6045 5.24303 11.5435 5.1198 11.6655C5.05819 11.7875 5.18142 12.0926 5.48948 12.3366Z" fill="#CF8453"/>
<path fill-rule="evenodd" clip-rule="evenodd" d="M4.81173 9.71293C5.42785 9.10283 6.16721 9.95697 6.53689 10.6281C6.78334 11.1162 6.35205 12.6414 6.1056 13.4345C5.92076 13.9226 5.98237 14.1667 5.98237 14.4717C6.04398 14.8988 4.99656 14.7158 4.93495 14.1667C4.6885 14.3497 4.1956 13.8616 4.1956 13.4956C3.94915 13.6176 3.57947 13.4956 3.51785 12.8855C2.90173 12.9465 2.84011 12.1533 2.96334 11.7263C3.02495 11.1162 3.45624 10.8721 3.70269 10.6281C4.25721 10.018 4.6885 9.83495 4.81173 9.71293Z" fill="#3C3C3B"/>
<path fill-rule="evenodd" clip-rule="evenodd" d="M3.39464 10.9334C4.01076 10.0793 4.75012 9.40816 5.73592 9.28614C6.47528 9.16412 7.76915 10.0183 7.64592 10.7504C7.5227 11.4215 7.58431 11.6655 7.33786 12.7027C6.90657 12.5807 6.29044 13.4348 6.41367 13.8619C6.41367 14.0449 5.36625 13.9229 5.18141 13.3738C4.87334 13.3738 4.68851 13.1908 4.50367 12.5807C4.13399 12.5197 4.07238 12.3976 3.88754 11.9706C3.51786 11.9096 3.2098 11.2995 3.39464 10.9334Z" fill="#706F6F"/>
<path fill-rule="evenodd" clip-rule="evenodd" d="M4.75008 7.08936C5.42782 8.00451 7.52266 8.61461 8.44685 8.12653C8.50847 8.37057 8.50847 8.61461 8.13879 8.91966C7.27621 9.34673 5.24298 8.98067 4.75008 8.12653C4.56524 7.76047 4.44202 7.3334 4.75008 7.08936Z" fill="#DADADA"/>
<path fill-rule="evenodd" clip-rule="evenodd" d="M8.13883 8.92008C7.89238 9.53018 7.70754 10.1403 7.5227 10.8114C6.59851 10.8724 5.6127 10.4453 4.68851 9.6522L4.75012 8.12695C5.1198 8.85907 6.53689 9.22513 7.5227 9.10311C7.76915 9.0421 7.95399 8.98109 8.13883 8.92008Z" fill="#3C3C3B"/>
<path fill-rule="evenodd" clip-rule="evenodd" d="M22.4946 41.56C22.3714 41.743 22.2482 41.926 22.0634 42.1091C21.6321 42.4751 21.2008 42.9022 20.8311 43.3293C18.9211 43.6953 17.1959 42.5971 16.703 41.0719C17.1343 40.8279 17.6272 40.5228 18.1817 40.1567C18.1817 40.2788 18.1817 40.3398 18.1817 40.4618C18.305 41.743 21.0159 42.5361 22.4946 41.56Z" fill="#EDEDED"/>
<path fill-rule="evenodd" clip-rule="evenodd" d="M46.0923 53.397C45.661 53.397 45.4146 53.519 45.1065 53.641H44.552V54.4341C44.552 54.4951 44.552 54.4952 44.552 54.5562V54.6172C44.6752 55.1663 45.5378 55.5323 46.462 55.4713C47.263 55.4103 47.8791 55.0442 47.9407 54.6172C47.9407 54.5562 47.9407 54.4952 47.9407 54.4952V53.702H47.3862C47.0781 53.458 46.5236 53.397 46.0923 53.397Z" fill="#3C3C3B"/>
<path fill-rule="evenodd" clip-rule="evenodd" d="M46.0912 52.7866C45.167 52.8476 44.4893 53.3357 44.6125 53.8848C44.7357 54.4339 45.5983 54.7999 46.5225 54.7389C47.4467 54.6779 48.1244 54.1898 48.0012 53.6407C47.878 53.1527 47.0154 52.7256 46.0912 52.7866Z" fill="#706F6F"/>
<path fill-rule="evenodd" clip-rule="evenodd" d="M31.4901 3.97821C31.2437 4.34427 31.5517 4.22225 31.182 4.28326C30.2579 3.9172 30.0114 3.67316 28.7175 3.73417C27.7317 3.79518 28.4711 4.64932 27.855 5.01538C27.6085 5.1374 26.8075 5.56447 26.7459 5.93053L26.1914 5.68649C25.8217 4.46629 25.0824 5.86952 24.4046 7.15073C24.4046 7.15073 23.9733 5.93053 24.343 4.46629C24.5895 3.3071 24.7127 2.02589 25.5753 1.29377C26.6843 0.256598 27.9782 -0.475522 30.8124 1.65983C31.3053 2.0869 32.1062 3.00205 31.4901 3.97821Z" fill="#704321"/>
<path fill-rule="evenodd" clip-rule="evenodd" d="M26.0682 4.71052C25.5753 4.5885 25.3288 4.95456 25.144 5.50365C24.9592 6.05274 24.9592 6.90688 25.3905 6.84587C26.1298 6.78486 26.3146 6.60183 26.5611 5.93072C26.6227 5.68668 26.6227 4.89355 26.0682 4.71052Z" fill="#F1B287"/>
<path fill-rule="evenodd" clip-rule="evenodd" d="M32.291 6.41857C33.2769 4.46625 33.2152 2.20888 30.381 0.68363C28.2862 -0.41455 26.1914 -0.23152 25.0207 1.53777C24.5278 2.3309 24.343 3.36807 24.1581 4.71029C24.1581 5.01534 24.4662 5.32039 25.0207 5.74746C25.2056 5.07635 25.3904 4.34423 26.0681 4.64928C26.9307 4.95433 26.8075 6.11352 26.561 6.72362C26.7459 6.78463 26.8075 6.90665 27.1156 6.96766C27.4236 6.54059 27.8549 5.9915 28.1014 6.11352C30.4427 7.15069 31.6749 6.96766 32.291 6.41857Z" fill="#EDEDED"/>
<path fill-rule="evenodd" clip-rule="evenodd" d="M25.2672 7.63867C25.2672 8.30978 25.3904 8.85887 25.6369 9.22493C25.8833 9.40796 26.0682 9.59099 26.3146 9.83504C26.0065 9.28594 25.7601 8.67584 25.6985 7.94372C25.5752 7.76069 25.3904 7.69968 25.2672 7.63867Z" fill="#EDEDED"/>
<path fill-rule="evenodd" clip-rule="evenodd" d="M32.6607 5.32029C30.2578 5.74736 27.7317 4.46615 25.6985 3.24595C25.6369 3.18494 25.5136 3.18494 25.452 3.24595C25.3904 3.30696 25.3288 3.36797 25.2672 3.42898C25.2056 3.551 25.2056 3.67302 25.144 3.85605C25.6985 4.1611 26.4994 4.64918 26.8075 5.19827C26.9307 5.32029 26.9923 5.44231 27.054 5.56433C28.9023 6.41847 31.0588 7.02857 32.291 6.41847C32.4759 5.9914 32.5991 5.62534 32.6607 5.32029Z" fill="#DADADA"/>
<path fill-rule="evenodd" clip-rule="evenodd" d="M32.3527 6.23575C32.9072 5.93071 33.0921 4.89354 32.7224 4.95455C30.2579 5.50364 27.6701 4.0394 25.5753 2.8192C25.5137 2.75819 25.3905 2.75819 25.3288 2.8192C25.2672 2.88021 25.2056 2.94122 25.144 3.00223C25.0824 3.18526 25.0824 3.49031 25.0824 3.67334C25.6369 3.97839 26.9924 4.64949 27.054 5.32061C28.964 6.17475 31.1205 6.84586 32.3527 6.23575Z" fill="white"/>
<path fill-rule="evenodd" clip-rule="evenodd" d="M32.3527 6.23551C32.7224 6.05248 32.9688 5.44238 32.9072 5.13733C30.4427 5.68642 27.8549 4.3442 25.7601 3.124C25.6985 3.06299 25.5753 3.06299 25.5137 3.06299C25.452 3.124 25.3904 3.18501 25.3288 3.24602C25.2672 3.36804 25.2672 3.49006 25.2056 3.67309C25.7601 3.97814 26.5611 4.46622 26.8691 5.01531C26.9924 5.13733 27.054 5.25935 27.1156 5.38137C28.964 6.23551 31.1204 6.84561 32.3527 6.23551Z" fill="#EDEDED"/>
<path fill-rule="evenodd" clip-rule="evenodd" d="M27.7933 4.46638C28.1014 4.64941 28.4711 4.77143 28.8408 4.89345C28.964 4.95446 28.9024 5.13749 28.7791 5.13749C28.2862 4.95446 27.9782 4.77143 27.7317 4.64941C27.6085 4.5884 27.6701 4.40537 27.7933 4.46638Z" fill="#706F6F"/>
<path fill-rule="evenodd" clip-rule="evenodd" d="M27.6701 4.89314C27.9782 5.07617 28.3478 5.19819 28.7175 5.32021C28.8408 5.38122 28.7791 5.56425 28.6559 5.56425C28.163 5.38122 27.8549 5.19819 27.6085 5.07617C27.4853 5.01516 27.5469 4.83213 27.6701 4.89314Z" fill="#706F6F"/>
<path fill-rule="evenodd" clip-rule="evenodd" d="M26.6227 3.91711C26.9307 4.10014 27.1772 4.22216 27.4853 4.40519C27.6085 4.4662 27.5469 4.64923 27.4236 4.58822C26.9924 4.40519 26.8075 4.22216 26.5611 4.10014C26.4378 3.97812 26.4995 3.8561 26.6227 3.91711Z" fill="#706F6F"/>
<path fill-rule="evenodd" clip-rule="evenodd" d="M26.7459 4.4053C27.054 4.58833 26.9923 4.58833 27.362 4.71035C27.4852 4.77136 27.4236 4.95439 27.3004 4.89338C26.8691 4.64934 26.9307 4.71035 26.6843 4.52732C26.6227 4.46631 26.6843 4.34429 26.7459 4.4053Z" fill="#706F6F"/>
<path d="M25.0207 5.6864C24.8975 6.2965 24.9591 7.33367 25.6985 7.5167C26.1914 7.63872 26.4994 6.9066 26.6227 6.60155L26.9923 6.72357C26.8075 7.27266 26.3146 8.1268 25.5753 7.88276C24.6511 7.57771 24.5894 6.11347 24.6511 5.38135L25.0207 5.6864Z" fill="#EDEDED"/>
</g>
<defs>
<clipPath id="clip0">
<rect width="56" height="56" fill="white"/>
</clipPath>
</defs>
</svg>
