<svg width="56" height="56" viewBox="0 0 56 56" fill="none" xmlns="http://www.w3.org/2000/svg">
<path d="M34.4513 22.2468C34.4191 22.8035 34.521 23.3598 34.7486 23.8689C34.9439 24.1831 35.6657 24.9135 36.7613 26.2043C37.8568 27.4952 38.2984 28.353 39.411 28.9814C40.5235 29.6099 45.4577 31.75 45.4067 32.0472C45.3644 32.2348 45.2596 32.4025 45.1095 32.5228C45.1095 32.5228 45.8993 32.9389 45.6615 33.3126C45.4237 33.6863 43.1137 32.336 43.1137 32.336C42.9354 32.251 42.4683 32.0387 42.9014 32.4039C43.5355 32.8808 44.1291 33.4091 44.6764 33.9835C44.6292 34.1301 44.5078 34.2406 44.3575 34.2738C44.2072 34.307 44.0505 34.2579 43.946 34.1449C43.4704 33.7712 42.3919 32.82 42.0352 32.871C41.6785 32.922 42.188 33.9241 42.4173 34.3062C42.6466 34.6884 42.4173 34.7818 42.3324 34.8243C41.953 34.4511 41.6298 34.0249 41.3728 33.5589C41.1228 33.088 40.7612 32.6856 40.3197 32.3869C39.8652 32.1691 39.4649 31.8529 39.1477 31.4612C38.2752 30.5812 37.3196 29.7877 36.2942 29.0918C35.2581 28.353 33.118 27.2319 32.0479 25.3041C31.1307 23.6056 28.5235 18.9941 28.5235 18.9941L33.0246 20.888L34.4513 22.2468Z" fill="#FFB884"/>
<g style="mix-blend-mode:multiply" opacity="0.3">
<path d="M31.3349 21.7798C31.3349 21.7798 30.4857 21.4146 29.7808 21.1089C30.63 22.5526 31.6067 24.3615 32.1078 25.3042C33.1438 27.232 35.2755 28.3446 36.354 29.0919C36.6683 29.3127 37.0334 29.5845 37.3901 29.8647C36.388 28.7862 34.5281 27.317 33.6704 26.4677C32.8126 25.6184 32.1587 23.5123 31.3349 21.7798Z" fill="#FFB884"/>
</g>
<path d="M27.7423 17.5676C28.2688 16.1918 30.8846 15.3086 32.8379 15.7077C34.7911 16.1069 34.7317 18.7056 34.6892 19.5294C34.6468 20.3532 34.7742 22.4084 34.7742 22.4084C33.4242 23.0544 31.8692 23.1219 30.4684 22.5952C30.1627 22.4848 27.547 18.0941 27.7423 17.5676Z" fill="#35AFD4"/>
<g style="mix-blend-mode:multiply" opacity="0.3">
<path d="M32.8549 15.7161C30.8846 15.317 28.2774 16.1917 27.7594 17.576C27.5555 18.1025 30.1712 22.4847 30.5025 22.6036C30.9557 22.8023 31.443 22.9118 31.9377 22.9263C30.8063 21.2805 29.9088 19.4856 29.271 17.593C29.1182 16.939 31.3008 15.6397 32.8549 15.7161Z" fill="#35AFD4"/>
</g>
<path d="M31.8187 34.0941C31.8781 34.4592 28.5321 40.6248 27.1308 39.283C25.7295 37.9412 26.7826 35.5038 26.7826 35.5038C26.7826 35.5038 30.1117 33.7119 30.2985 33.6694C30.8165 33.7672 31.325 33.9093 31.8187 34.0941Z" fill="#1C84A3"/>
<path d="M50.0807 34.3714C53.3498 34.3714 56 31.7212 56 28.452C56 25.1829 53.3498 22.5327 50.0807 22.5327C46.8115 22.5327 44.1613 25.1829 44.1613 28.452C44.1613 31.7212 46.8115 34.3714 50.0807 34.3714Z" fill="#F04E2E"/>
<path d="M52.7642 31.875C53.6389 31.9427 54.5119 31.7252 55.2526 31.2551C55.3035 31.1532 55.3545 31.0513 55.4054 30.9409L55.3205 30.8899C54.9299 31.4674 53.673 31.7392 51.9235 31.6203C52.3333 30.7086 52.9891 29.9293 53.8173 29.3697C54.9062 28.5953 55.5065 27.3044 55.3969 25.9727L55.295 25.7519H55.1931C55.3575 27.094 54.7823 28.4199 53.6899 29.2169C52.8122 29.8088 52.1225 30.6399 51.7027 31.6118C51.363 31.6118 51.0148 31.5184 50.6496 31.4504C53.0615 25.8198 52.0764 23.3145 51.8216 22.8135H51.6772L51.5923 22.8644C52.1698 23.7731 52.4925 26.6097 50.4288 31.4419C50.0976 31.374 49.7494 31.2891 49.3927 31.1872C49.7418 30.0421 49.5744 28.8017 48.9341 27.7901C47.8131 26.0152 47.3035 24.7328 47.8046 23.0852H47.7027L47.5838 23.1447C47.1082 24.8432 47.5838 26.1341 48.7558 27.9345C49.3629 28.8988 49.5239 30.0784 49.1974 31.1702L48.467 30.9324C46.5172 30.3631 44.9988 28.8286 44.45 26.8729H44.3481L44.2887 27.0937C44.4378 27.6062 44.6641 28.093 44.9596 28.5375C45.7784 29.7396 46.9733 30.6358 48.3566 31.0852C48.6029 31.1702 48.8322 31.2296 49.07 31.306C49.0222 31.4072 48.9654 31.5039 48.9001 31.5948C48.2887 32.444 47.0742 32.5799 45.3927 32.0874V32.1808L45.5031 32.3167C46.0223 32.468 46.559 32.5508 47.0997 32.5629C47.864 32.6247 48.61 32.3072 49.0955 31.7137C49.1745 31.6045 49.2427 31.4879 49.2993 31.3655C49.656 31.4674 49.9957 31.5523 50.3354 31.6203C49.9702 32.4695 49.5371 33.3188 49.019 34.3124H49.2313C49.7494 33.3528 50.1825 32.461 50.5477 31.6373C50.9214 31.7109 51.278 31.7675 51.6178 31.8071C51.4197 32.5685 51.4886 33.3749 51.8131 34.0916L51.9999 34.0237C51.7106 33.3181 51.6805 32.5328 51.915 31.8071C52.2122 31.8666 52.518 31.875 52.7642 31.875Z" fill="#9E291D"/>
<g style="mix-blend-mode:multiply" opacity="0.2">
<path d="M55.9998 28.4524C55.9917 26.4326 54.9586 24.5551 53.2567 23.4673C54.2473 24.9025 54.5578 26.7002 54.106 28.3845C53.4384 30.943 51.1611 32.7531 48.5179 32.8261C47.4566 32.8557 46.4068 32.6006 45.4775 32.0872C47.0576 33.9961 49.6559 34.7247 51.9981 33.9157C54.3403 33.1066 55.9349 30.9295 55.9998 28.4524Z" fill="#9E291D"/>
</g>
<path d="M17.5512 26.7734C15.8527 27.9454 13.0417 39.5123 12.6171 39.801C12.1924 40.0898 11.8782 39.4953 9.83998 39.801C7.80176 40.1068 6.5024 42.5781 5.89094 42.5187C5.27947 42.4592 4.34529 41.593 3.48754 42.5187C2.62979 43.4444 2.74869 44.4295 1.78903 45.0664C0.829365 45.7034 -0.622864 47.6567 0.370767 49.2023C1.3644 50.748 1.97586 50.2894 2.40898 49.9836C2.8421 49.6779 4.38775 46.9178 6.48542 45.6269C8.58308 44.3361 10.995 44.1407 12.6001 43.835C14.2052 43.5293 14.2052 44.387 16.9228 42.1365C19.6404 39.886 22.0183 36.0898 22.7911 35.4698C23.564 34.8499 27.7253 37.2618 28.9058 38.128C30.0863 38.9942 30.0523 39.0537 29.4833 39.7331C28.9143 40.4125 28.3538 43.3085 28.4132 45.6779C28.4727 48.0473 27.9376 48.7522 27.564 49.3891C27.1574 49.9826 26.8264 50.6245 26.5788 51.3C26.392 51.9794 26.5788 52.9985 28.2773 52.9051C29.9759 52.8117 31.2413 52.5569 32.1669 52.9051C33.0926 53.2533 35.6234 53.2278 35.8103 52.9051C35.9971 52.5824 36.2179 52.3361 34.961 52.0558C32.9313 51.6567 30.5364 49.8987 30.7147 49.4061C30.8931 48.9136 33.2625 40.7013 33.8315 39.4019C34.4005 38.1025 34.7317 36.9815 31.8188 34.2129C28.7784 31.3255 27.1563 29.4316 27.1563 29.4316L17.5512 26.7734Z" fill="#FFB884"/>
<g style="mix-blend-mode:multiply" opacity="0.3">
<path d="M12.3284 39.8522C12.0729 41.2595 12.5161 42.7033 13.5173 43.7248C14.3666 43.7248 14.8337 43.7928 16.9144 42.0773L12.6681 39.8013C12.5646 39.8585 12.4441 39.8766 12.3284 39.8522Z" fill="#FFB884"/>
</g>
<g style="mix-blend-mode:multiply" opacity="0.3">
<path d="M27.5046 32.1577L24.8719 35.7925C26.2563 36.4149 27.581 37.1625 28.8294 38.0261C28.3368 36.6418 30.9016 34.6291 31.6065 34.145L31.2073 33.7543L27.5046 32.1577Z" fill="#FFB884"/>
</g>
<path d="M31.8189 34.0944C29.6618 34.1538 27.131 37.7971 27.131 39.2833C27.131 39.2833 22.7233 36.5742 22.1034 37.2451C16.3369 43.4872 15.1055 43.7589 15.1055 43.7589C15.1055 43.7589 12.5577 41.2111 12.3879 39.7165C12.2605 38.4765 11.5981 38.9946 12.5237 38.1283C13.4494 37.2621 14.2987 34.4596 14.2987 33.0328C14.2987 31.6061 15.6575 27.6655 17.5683 26.7993C19.4792 25.933 27.0375 29.4829 27.0375 29.4829L31.8189 34.0944Z" fill="#35AFD4"/>
<path d="M30.477 13.6696C30.4091 13.9329 29.5089 13.3554 29.4239 13.4488C29.1437 13.78 28.6936 13.4064 27.6065 13.9838C25.0892 15.4722 22.8809 17.4298 21.1012 19.7503C18.7743 22.7482 16.0057 27.3936 16.0057 27.3936C16.7616 28.888 18.0771 30.0234 19.666 30.5528C22.3836 31.4955 23.8443 30.6887 24.5067 30.6802C26.6469 30.6293 26.7573 29.831 27.0545 29.4828C27.3517 29.1346 29.2881 26.8756 30.2307 25.9923C31.6941 24.195 33.0118 22.2837 34.1713 20.2768C34.6792 18.9811 34.7212 17.5492 34.2902 16.2259C33.959 15.8352 33.0163 15.2153 32.5917 14.6208C31.9423 14.1925 31.2283 13.8714 30.477 13.6696Z" fill="#F2F2F2"/>
<path d="M28.9228 24.1748L26.995 22.9604L27.513 22.1111C28.3402 22.103 29.1342 21.7847 29.7381 21.2194C29.8989 21.0572 29.8989 20.7956 29.7381 20.6334C29.4714 20.548 29.1831 20.6758 29.0672 20.9307L28.5916 20.4126C29.1096 19.6483 29.8315 19.3765 30.392 19.7332C30.9525 20.0899 30.9695 20.7863 30.5109 21.5167C30.0439 22.0998 29.4189 22.5362 28.7105 22.7736L29.4578 23.2491L28.9228 24.1748Z" fill="#35AFD4"/>
<path d="M31.2581 22.0854C31.3605 22.1081 31.4582 22.1483 31.5469 22.2043C32.0309 22.5101 32.0564 23.2659 31.6063 23.9793C31.3027 24.6746 30.5032 25.0049 29.7974 24.7266C29.4119 24.4116 29.2487 23.8987 29.3813 23.4188L30.1881 23.2574C30.1238 23.4399 30.1857 23.643 30.3409 23.7585C30.5804 23.8767 30.8705 23.7825 30.9949 23.5462C31.068 23.4527 31.0978 23.3325 31.0767 23.2157C31.0556 23.0989 30.9857 22.9967 30.8845 22.9347C30.7459 22.8314 30.5559 22.8314 30.4174 22.9347L30.1796 22.3572L31.411 20.4209L33.0161 21.44L32.4726 22.2893L31.4874 21.6693L31.2581 22.0854Z" fill="#35AFD4"/>
<path d="M33.6958 19.5802C33.9631 20.0712 34.3447 20.4907 34.8083 20.8031C35.1395 20.973 36.1417 21.2108 37.7468 21.7288C39.3518 22.2469 40.1841 22.7479 41.4665 22.6885C42.7489 22.629 48.0652 21.8392 48.1756 22.1365C48.2391 22.3179 48.2391 22.5155 48.1756 22.697C48.1756 22.697 49.0249 22.6375 49.0249 23.0791C49.0249 23.5208 46.3667 23.5802 46.3667 23.5802C46.1714 23.5802 45.6618 23.6651 46.2223 23.75C47.0106 23.8226 47.7916 23.959 48.5578 24.1577C48.5969 24.3076 48.5529 24.467 48.4425 24.5756C48.3321 24.6843 48.172 24.7257 48.0228 24.6842C47.4283 24.6163 46.0015 24.3785 45.7213 24.6078C45.441 24.8371 46.4092 25.4571 46.7998 25.6269C47.1905 25.7968 47.0546 26.0346 47.0037 26.111C46.4833 25.9943 45.9827 25.8027 45.5175 25.542C45.0572 25.2735 44.5382 25.1219 44.0058 25.1004C43.5045 25.1576 42.9968 25.1025 42.5196 24.939C41.3131 24.6509 40.0816 24.4803 38.8423 24.4295C37.5684 24.3445 35.165 24.5229 33.2712 23.4358C31.5727 22.4677 26.9527 19.9284 26.9527 19.9284L31.768 19.1641L33.6958 19.5802Z" fill="#FFB884"/>
<path d="M37.755 7.52915C37.755 8.18308 37.7975 8.64168 37.755 8.87097C37.7126 9.10027 36.9737 9.94953 37.0671 10.2807C37.1606 10.612 37.8739 11.6905 37.5597 11.9793C37.357 12.0996 37.1472 12.2074 36.9313 12.302C36.8921 12.5837 36.8921 12.8695 36.9313 13.1512C36.9313 13.3041 36.6085 13.4145 36.634 13.5334C36.6437 13.7601 36.4699 13.9528 36.2434 13.9665C35.9122 14.0514 36.1245 14.8752 35.7168 15.2064C35.3092 15.5376 35.0289 15.7669 34.0183 15.3423C33.0077 14.9177 32.4557 14.2638 32.3198 14.3147C31.3331 13.9692 30.3663 13.5695 29.4238 13.1173C29.3058 12.6321 29.1078 12.17 28.8378 11.75C28.4896 11.3168 28.5066 7.5801 28.5066 7.5801L35.9631 5.5249L37.6616 6.65441L37.755 7.52915Z" fill="#FFB884"/>
<path d="M29.2288 12.3957C28.422 11.2746 27.216 10.6037 27.0462 9.143C26.8763 7.68228 27.1056 6.22156 27.4114 5.92432C27.2087 5.6653 27.077 5.35798 27.0292 5.0326C27.1499 5.27854 27.4007 5.43366 27.6746 5.43175C27.7986 4.77757 28.2018 4.21002 28.7787 3.87761C30.0959 2.9848 31.7546 2.75862 33.2627 3.26614C34.9613 3.8861 37.6109 5.43175 37.8912 6.42538C38.1714 7.41901 37.8912 7.59735 37.7468 7.5464C37.6024 7.49544 37.0844 6.26402 36.4984 6.54427C35.8542 6.68752 35.1892 6.71055 34.5366 6.61222C34.0662 6.62421 33.656 6.93529 33.5175 7.38504C33.1693 8.05595 31.9209 9.81391 31.9634 10.2555C31.5391 10.0456 31.2603 9.62405 31.233 9.15149C31.233 8.77782 29.3392 8.99863 29.8487 10.5952C30.2734 11.9455 29.9337 12.608 29.8063 12.5995C29.604 12.5632 29.409 12.4943 29.2288 12.3957Z" fill="#E98E3B"/>
<path d="M31.1904 8.83716C31.1527 8.609 31.0138 8.41014 30.8125 8.2963C30.6112 8.18246 30.3692 8.16587 30.1543 8.25117C29.6265 8.4 29.2989 8.92634 29.3984 9.46561C29.3894 9.96577 29.5512 10.454 29.857 10.8499C30.2222 11.3 30.2562 11.5718 30.7487 11.4953C31.0268 11.4673 31.2593 11.2718 31.3347 11.0028L31.1904 8.83716Z" fill="#FFB884"/>
<path d="M33.4579 15.02C33.1182 14.7992 32.8125 15.1644 33.0333 15.6739C33.2541 16.1835 34.0185 17.3724 32.804 16.8374C31.5896 16.3024 29.1522 14.3576 28.9993 13.8395C28.9314 13.6102 29.424 13.5847 29.4664 13.1176C29.5174 12.4467 30.9441 12.9563 30.9441 12.9563L33.4579 15.02Z" fill="#FFB884"/>
<path d="M34.9185 51.2577C34.0526 51.1108 33.2004 50.892 32.3708 50.6038C31.8273 50.3098 31.3318 49.9347 30.9016 49.4912C30.8166 49.194 30.6553 49.211 30.6553 49.211C30.0268 49.5167 27.6319 49.143 27.4366 49.0921C27.2908 49.0623 27.14 49.111 27.0392 49.2205C26.9384 49.33 26.9023 49.4843 26.944 49.6271C26.9025 50.0795 26.7937 50.5232 26.6213 50.9435C26.5751 51.0543 26.5354 51.1677 26.5024 51.2832C26.3392 51.774 26.4461 52.3145 26.7838 52.7062C27.1216 53.0979 27.6405 53.2832 28.15 53.194C29.9334 53.194 31.0459 52.9477 32.0056 53.194C33.1566 53.4006 34.337 53.3775 35.479 53.1261C35.57 53.0836 35.6533 53.0262 35.7253 52.9562C36.2009 52.5061 35.5215 51.4191 34.9185 51.2577Z" fill="#1C84A3"/>
<path d="M6.76546 45.4148C6.36091 44.8408 5.99219 44.2424 5.66143 43.6229C5.60317 43.1438 5.81174 42.6713 6.20495 42.3915C6.06058 42.1706 5.90771 42.349 5.45761 42.1706C5.0075 41.9923 3.95442 41.3214 2.96079 43.2577V43.3002V43.3766L2.88436 43.538L2.8419 43.6399C2.66139 44.2065 2.30051 44.6986 1.8143 45.0411C0.829158 45.6611 -0.597594 47.6314 0.396037 49.177C1.38967 50.7227 2.00113 50.2641 2.43425 49.9583C3.34474 48.7487 4.31998 47.5892 5.3557 46.4849C5.88224 46.0433 6.07757 45.8904 6.12852 45.8479C6.39183 45.8962 6.6625 45.8175 6.85888 45.6356C6.85348 45.5536 6.82057 45.4758 6.76546 45.4148Z" fill="#1C84A3"/>
<g style="mix-blend-mode:multiply" opacity="0.3">
<path d="M30.8167 20.8203L29.1182 21.0666C30.5704 21.8649 32.3793 22.8755 33.305 23.4021C35.1988 24.4976 37.6022 24.3193 38.8761 24.3957L40.1585 24.5061C38.7402 24.1239 36.3963 23.8607 35.1988 23.5634C34.0014 23.2662 32.4133 21.8649 30.8167 20.8203Z" fill="#FFB884"/>
</g>
<path d="M25.526 19.1389C25.2542 17.6866 27.0037 15.5635 28.923 14.8926C30.8424 14.2217 32.1162 16.4467 32.5069 17.1686C32.8976 17.8905 34.095 19.572 34.095 19.572C33.2897 20.833 32.0043 21.7103 30.5366 22.0009C30.1714 22.0433 25.6364 19.6569 25.526 19.1389Z" fill="#35AFD4"/>
<g style="mix-blend-mode:multiply" opacity="0.3">
<path d="M28.8975 14.8672C27.0121 15.5636 25.2542 17.6867 25.5004 19.1135C25.6024 19.6655 30.1374 22.0179 30.4856 21.9415C30.9766 21.871 31.4495 21.7067 31.8784 21.4574C30.0427 20.6543 28.3277 19.5996 26.7828 18.3237C26.3752 17.8651 27.5387 15.623 28.8975 14.8672Z" fill="#35AFD4"/>
</g>
<path d="M25.8485 29.2112C24.9993 29.2112 19.0545 30.9097 16.4388 26.6634L15.9887 27.3938C16.7446 28.8882 18.0601 30.0236 19.649 30.553C22.3666 31.4957 23.8273 30.6889 24.4897 30.6804C26.6299 30.6295 26.7403 29.8312 27.0375 29.483C27.3348 29.1348 29.2711 26.8757 30.2137 25.9925C30.5443 25.6512 30.8481 25.285 31.1224 24.897C30.2052 25.9585 26.6723 29.2112 25.8485 29.2112Z" fill="#DAE3E6"/>
<g style="mix-blend-mode:multiply" opacity="0.3">
<path d="M21.8061 34.3827C21.6488 33.9262 21.5295 33.4576 21.4494 32.9814C21.3135 35.9708 16.1755 41.9411 15.6235 42.2214C15.0715 42.5016 13.1437 39.0451 12.5068 38.094C11.5811 38.9432 12.2435 38.4337 12.3709 39.6821C12.5237 41.1853 15.0885 43.7245 15.0885 43.7245C15.0885 43.7245 16.2265 43.4528 21.4155 37.9241L22.0864 37.2107C22.1245 37.1743 22.1713 37.148 22.2222 37.1343C23.2414 36.8965 27.08 39.2575 27.08 39.2575C27.1151 38.8008 27.2422 38.3559 27.4537 37.9496C26.0524 37.7967 23.0885 36.7606 21.8061 34.3827Z" fill="#35AFD4"/>
</g>
<path d="M29.7807 49.3215C29.7807 48.7015 29.6873 47.7249 30.7913 47.6654C31.8953 47.606 30.8932 49.4829 30.8932 49.4829L29.7807 49.3215Z" fill="#1C84A3"/>
<path d="M5.78066 44.9816C5.78066 44.9816 7.13947 43.419 7.64054 44.1323C8.1416 44.8457 7.93778 45.3638 6.44308 45.627C4.94839 45.8903 5.78066 44.9816 5.78066 44.9816Z" fill="#1C84A3"/>
<g style="mix-blend-mode:multiply" opacity="0.5">
<path d="M1.755 45.041C0.769862 45.661 -0.65689 47.6312 0.336741 49.1769C1.33037 50.7225 1.94184 50.2639 2.37496 49.9582C1.15203 50.1026 -0.605934 47.0707 1.755 45.041Z" fill="#1C84A3"/>
</g>
<g style="mix-blend-mode:multiply" opacity="0.5">
<path d="M35.7341 52.9559C35.9564 52.6557 35.9564 52.2455 35.7341 51.9453C35.7341 52.888 32.8466 53.2192 31.3604 52.7181C29.8742 52.2171 27.7681 53.1597 26.5961 52.2935C26.8655 52.9175 27.5201 53.2831 28.1927 53.1852C29.9761 53.1852 31.0887 52.9389 32.0483 53.1852C33.1993 53.3919 34.3798 53.3688 35.5218 53.1173C35.6002 53.0743 35.6717 53.02 35.7341 52.9559Z" fill="#1C84A3"/>
</g>
<g style="mix-blend-mode:multiply" opacity="0.3">
<path d="M30.8166 11.9458C30.5397 12.514 30.5397 13.178 30.8166 13.7462C31.2837 14.7229 33.2624 16.1072 33.2624 16.1072C33.186 15.9543 33.1096 15.8099 33.0501 15.674C32.8293 15.1645 33.1265 14.8248 33.4747 15.0201C33.6759 15.1432 33.8859 15.2511 34.1032 15.3428C30.7316 13.6528 30.7231 12.4808 30.8166 11.9458Z" fill="#FFB884"/>
</g>
</svg>
