<svg width="56" height="56" viewBox="0 0 56 56" fill="none" xmlns="http://www.w3.org/2000/svg">
<path d="M25.3643 13.5558H25.4064C26.4953 12.9274 27.8535 13.3625 28.4417 14.5282L33.5687 24.6967C34.1552 25.8634 33.7491 27.3186 32.6611 27.9488H32.619C31.5301 28.5773 30.1719 28.1421 29.5837 26.9764L24.4567 16.7757C23.8904 15.6167 24.2939 14.1852 25.3643 13.5558Z" fill="#F5B36C"/>
<path d="M32.0538 27.801L36.6038 26.6611C37.0306 28.0393 37.5895 30.2417 37.7458 30.525L32.5407 32.2509C32.5407 32.2509 30.978 28.5287 32.0538 27.801Z" fill="#F5B36C"/>
<path d="M33.8572 27.3825C34.2015 25.9322 33.7331 24.3992 32.6551 23.4478C26.5243 23.6667 21.2712 27.2151 14.6776 33.1075L16.4808 37.4286H31.4289L37.9984 35.6448C38.3771 34.6788 33.1179 31.2657 33.8572 27.3825Z" fill="#F5B36C"/>
<path d="M41.7128 31.1622C41.6227 31.1622 41.5325 31.1622 41.4424 31.1622H41.4003C38.9961 31.4005 37.4934 30.602 36.9645 28.4897C36.4476 26.3774 37.4093 24.8898 39.6031 23.8337H39.6332L39.8856 23.7178L40.1501 24.0784L40.2523 24.2265C41.4108 26.0762 41.951 28.2914 41.785 30.5118C41.785 30.5698 41.785 30.6277 41.785 30.6857C41.7609 30.8531 41.7369 31.0012 41.7128 31.1622Z" fill="#FFBE78"/>
<path d="M42.1157 31.1046L41.713 31.169C41.713 31.008 41.7551 30.8534 41.7792 30.6989C41.7792 30.6409 41.7792 30.583 41.7792 30.525C41.9452 28.3046 41.405 26.0893 40.2465 24.2397L40.1443 24.0916L39.8798 23.731L40.2525 23.57C40.8462 23.3221 41.4733 23.1786 42.1097 23.1449C44.1172 23.0548 45.0188 24.5746 45.4035 26.1459C45.7882 27.7237 45.698 29.5075 43.9069 30.4928C43.3447 30.7992 42.7397 31.0058 42.1157 31.1046Z" fill="#3C3C3B"/>
<path d="M35.2396 29.0116C34.9693 28.3411 35.0492 27.5675 35.45 26.9766C35.6931 26.6164 35.9539 26.2703 36.2314 25.9398C36.6332 25.4981 37.1081 25.14 37.6318 24.8837L37.6018 24.8322C37.5854 24.7668 37.5854 24.6979 37.6018 24.6325C37.6018 24.3298 37.9744 24.1431 38.4252 23.9241C38.9782 23.6601 39.5071 23.5377 39.6273 23.8662C39.6984 24.0963 39.6346 24.3497 39.465 24.5102L41.0277 24.0658C41.3561 23.9715 41.7061 24.021 42.0004 24.2034C42.2946 24.3858 42.5091 24.6862 42.5965 25.0382L43.0473 26.8543L43.4861 28.6767C43.5719 29.0295 43.5231 29.4043 43.3506 29.7184C43.178 30.0326 42.8959 30.2602 42.5664 30.3511L40.9977 30.7826C41.208 30.8362 41.3714 31.0137 41.4184 31.2398C41.4485 31.6004 40.9376 31.7743 40.3305 31.8323C39.8377 31.8838 39.453 31.8967 39.2907 31.6455C39.2522 31.589 39.2293 31.5221 39.2246 31.4523C39.2228 31.4309 39.2228 31.4093 39.2246 31.3879C38.6517 31.4388 38.075 31.3755 37.5236 31.2012C37.131 31.0579 36.7458 30.8924 36.3696 30.7053C35.7357 30.4 35.3041 29.753 35.2396 29.0116Z" fill="#FFBE78"/>
<path d="M42.1157 31.1047L41.713 31.1691C41.713 31.0081 41.7551 30.8535 41.7792 30.699C41.7792 30.641 41.7792 30.583 41.7792 30.5251C41.9452 28.3047 41.405 26.0894 40.2465 24.2398L40.1443 24.0917L39.8798 23.731L40.2525 23.57C40.8462 23.3222 41.4733 23.1787 42.1097 23.145L43.4621 26.6934L43.9069 30.4993C43.3443 30.8035 42.7394 31.0079 42.1157 31.1047Z" fill="#3C3C3B"/>
<path d="M39.8679 25.386L39.3269 25.2507L39.5012 24.4457V24.3427L39.5974 23.9112V23.8404L39.8498 23.7245L40.2225 23.5635L40.1143 24.0851L40.0722 24.2783L39.8679 25.386Z" fill="#0074A6"/>
<path d="M42.1155 31.1046L41.7128 31.169C41.6226 31.169 41.5324 31.169 41.4423 31.169L41.3882 31.1046L41.1357 30.802L41.0576 30.7054L40.4926 30.0614L40.9073 29.6621L41.6647 30.5637L41.7789 30.6989L42.1155 31.1046Z" fill="#0074A6"/>
<path d="M39.7413 26.9057L39.9697 26.7383C40.298 27.2236 40.4419 27.8244 40.3724 28.4191L40.0959 28.3804C40.1578 27.8584 40.0309 27.3307 39.7413 26.9057H39.7413Z" fill="#0074A6"/>
<path d="M39.914 27.2738C40.3029 27.1662 40.5038 26.6044 40.3627 26.019C40.2216 25.4335 39.7919 25.0462 39.403 25.1538C39.0141 25.2614 38.8133 25.8232 38.9544 26.4086C39.0955 26.9941 39.5251 27.3814 39.914 27.2738Z" fill="#009FE3"/>
<path d="M40.597 30.1759C40.9858 30.0682 41.1866 29.5064 41.0454 28.921C40.9042 28.3356 40.4745 27.9483 40.0856 28.056C39.6967 28.1637 39.496 28.7255 39.6372 29.3109C39.7784 29.8963 40.2081 30.2836 40.597 30.1759Z" fill="#009FE3"/>
<path d="M14.2448 21.3289V21.2838C14.0524 20.6398 14.8458 19.5193 15.9878 18.959L25.1238 13.234C25.6666 12.9566 26.2907 12.9245 26.8558 13.1449C27.4209 13.3653 27.8797 13.8197 28.1291 14.406V14.4511C28.388 15.0327 28.4179 15.7013 28.2122 16.3068C28.0065 16.9123 27.5824 17.4039 27.0352 17.671L16.8173 21.96C15.6633 22.488 14.7617 22.5331 14.2448 21.3289Z" fill="#F5B36C"/>
<path d="M13.1631 19.9958C13.8783 19.3518 15.5673 19.2617 15.946 19.8863L16.6011 20.9618C16.7573 21.2197 16.8116 21.5335 16.7518 21.8343C16.6921 22.135 16.5233 22.398 16.2825 22.5653L11.5402 25.869C11.3177 26.0226 11.0401 26.0533 10.7931 25.9515C10.546 25.8497 10.3591 25.6276 10.2901 25.3538L9.97751 23.7438C10.043 22.8331 10.5036 22.008 11.2217 21.5156L13.1631 19.9958Z" fill="#F5B36C"/>
<path d="M15.5852 22.1466C15.8677 22.2883 17.0397 21.3352 16.9075 21.6379L14.8098 25.3987C14.6792 25.6997 14.3467 25.8318 14.0645 25.695C13.7836 25.555 13.6603 25.1988 13.788 24.8964L14.8399 22.4428C14.9705 22.1419 15.3029 22.0097 15.5852 22.1466Z" fill="#F5B36C"/>
<path d="M56 31.5876V38.1627C54.8145 38.1889 53.6377 37.9407 52.55 37.435C50.7722 36.6559 48.78 36.6559 47.0023 37.435C44.7918 38.4076 42.3126 38.4076 40.1022 37.435C38.3244 36.6559 36.3322 36.6559 34.5545 37.435C32.344 38.4076 29.8649 38.4076 27.6544 37.435C25.8788 36.6556 23.8883 36.6556 22.1127 37.435C19.9022 38.4076 17.4231 38.4076 15.2126 37.435C13.437 36.6556 11.4465 36.6556 9.67092 37.435C7.46047 38.4076 4.98131 38.4076 2.77085 37.435C1.89941 37.0213 0.952802 36.8211 0 36.849V30.261C1.18285 30.2359 2.35706 30.4818 3.44403 30.9823C5.2201 31.7705 7.21566 31.7705 8.99174 30.9823C11.2017 30.0183 13.6758 30.0183 15.8858 30.9823C17.6617 31.7712 19.6576 31.7712 21.4335 30.9823C23.6435 30.0183 26.1176 30.0183 28.3276 30.9823C30.1036 31.7705 32.0992 31.7705 33.8753 30.9823C36.0874 30.0186 38.5633 30.0186 40.7754 30.9823C42.5513 31.7712 44.5471 31.7712 46.3231 30.9823C48.5352 30.0186 51.011 30.0186 53.2231 30.9823C54.0952 31.403 55.0439 31.6098 56 31.5876Z" fill="#ADF0FF"/>
<path d="M56 31.5878V33.5197C54.8145 33.5461 53.6377 33.2979 52.55 32.792C50.7721 32.0136 48.7801 32.0136 47.0023 32.792C44.7919 33.7653 42.3125 33.7653 40.1022 32.792C38.3243 32.0136 36.3324 32.0136 34.5545 32.792C32.3441 33.7653 29.8647 33.7653 27.6544 32.792C25.8787 32.0133 23.8884 32.0133 22.1127 32.792C19.9024 33.7653 17.423 33.7653 15.2126 32.792C13.4369 32.0133 11.4467 32.0133 9.67092 32.792C7.4606 33.7653 4.98118 33.7653 2.77085 32.792C1.89935 32.3785 0.952785 32.1783 0 32.206V30.2354C1.18288 30.2099 2.35717 30.4558 3.44403 30.9567C5.22023 31.7441 7.21553 31.7441 8.99174 30.9567C11.2016 29.992 13.676 29.992 15.8858 30.9567C17.662 31.7441 19.6573 31.7441 21.4335 30.9567C23.6433 29.992 26.1177 29.992 28.3276 30.9567C30.1038 31.7441 32.0991 31.7441 33.8753 30.9567C36.0871 29.9917 38.5635 29.9917 40.7754 30.9567C42.5516 31.7441 44.5469 31.7441 46.3231 30.9567C48.5349 29.9917 51.0113 29.9917 53.2231 30.9567C54.0934 31.3858 55.0421 31.6014 56 31.5878Z" fill="#52C6FF"/>
<path d="M56 36.1788V38.1494C54.8145 38.1756 53.6377 37.9274 52.55 37.4217C50.7722 36.6426 48.78 36.6426 47.0023 37.4217C44.7918 38.3943 42.3126 38.3943 40.1022 37.4217C38.3244 36.6426 36.3322 36.6426 34.5545 37.4217C32.344 38.3943 29.8649 38.3943 27.6544 37.4217C25.8788 36.6423 23.8883 36.6423 22.1127 37.4217C19.9022 38.3943 17.4231 38.3943 15.2126 37.4217C13.437 36.6423 11.4465 36.6423 9.67092 37.4217C7.46047 38.3943 4.98131 38.3943 2.77085 37.4217C1.89941 37.008 0.952802 36.8078 0 36.8357V34.8651C1.18316 34.8361 2.35812 35.0822 3.44403 35.5863C5.22023 36.3738 7.21553 36.3738 8.99174 35.5863C11.2017 34.6224 13.6758 34.6224 15.8858 35.5863C17.662 36.3738 19.6573 36.3738 21.4335 35.5863C23.6435 34.6224 26.1176 34.6224 28.3276 35.5863C30.1038 36.3738 32.0991 36.3738 33.8753 35.5863C36.0874 34.6227 38.5633 34.6227 40.7754 35.5863C42.5516 36.3738 44.5469 36.3738 46.3231 35.5863C48.5352 34.6227 51.011 34.6227 53.2231 35.5863C54.0963 36.0022 55.0448 36.2046 56 36.1788Z" fill="#52C6FF"/>
<path d="M56 36.1793V42.7479C54.8145 42.7741 53.6377 42.5259 52.55 42.0202C50.7722 41.2411 48.78 41.2411 47.0023 42.0202C44.7918 42.9928 42.3126 42.9928 40.1022 42.0202C38.3244 41.2411 36.3322 41.2411 34.5545 42.0202C32.3439 42.9921 29.865 42.9921 27.6544 42.0202C25.8788 41.2408 23.8883 41.2408 22.1127 42.0202C19.9021 42.9921 17.4232 42.9921 15.2126 42.0202C13.437 41.2408 11.4465 41.2408 9.67092 42.0202C7.46047 42.9928 4.98131 42.9928 2.77085 42.0202C1.89941 41.6065 0.952802 41.4063 0 41.4342V34.8655C1.18314 34.8368 2.35806 35.0829 3.44403 35.5868C5.22023 36.3743 7.21553 36.3743 8.99174 35.5868C11.2017 34.6229 13.6758 34.6229 15.8858 35.5868C17.662 36.3743 19.6573 36.3743 21.4335 35.5868C23.6435 34.6229 26.1176 34.6229 28.3276 35.5868C30.1038 36.3743 32.0991 36.3743 33.8753 35.5868C36.0874 34.6232 38.5633 34.6232 40.7754 35.5868C42.5516 36.3743 44.5469 36.3743 46.3231 35.5868C48.5352 34.6232 51.011 34.6232 53.2231 35.5868C54.0963 36.0026 55.0448 36.205 56 36.1793Z" fill="#ADF0FF"/>
<path d="M56 36.1793V38.1499C54.8145 38.1761 53.6377 37.9278 52.55 37.4222C50.7722 36.643 48.78 36.643 47.0023 37.4222C44.7918 38.3948 42.3126 38.3948 40.1022 37.4222C38.3244 36.643 36.3322 36.643 34.5545 37.4222C32.3439 38.3941 29.865 38.3941 27.6544 37.4222C25.8788 36.6427 23.8883 36.6427 22.1127 37.4222C19.9021 38.3941 17.4232 38.3941 15.2126 37.4222C13.437 36.6427 11.4465 36.6427 9.67092 37.4222C7.46047 38.3948 4.98131 38.3948 2.77085 37.4222C1.89941 37.0084 0.952802 36.8082 0 36.8361V34.8655C1.18314 34.8368 2.35806 35.0829 3.44403 35.5868C5.22023 36.3743 7.21553 36.3743 8.99174 35.5868C11.2017 34.6229 13.6758 34.6229 15.8858 35.5868C17.662 36.3743 19.6573 36.3743 21.4335 35.5868C23.6435 34.6229 26.1176 34.6229 28.3276 35.5868C30.1038 36.3743 32.0991 36.3743 33.8753 35.5868C36.0874 34.6232 38.5633 34.6232 40.7754 35.5868C42.5516 36.3743 44.5469 36.3743 46.3231 35.5868C48.5352 34.6232 51.011 34.6232 53.2231 35.5868C54.0963 36.0026 55.0448 36.205 56 36.1793Z" fill="#52C6FF"/>
<path d="M56 40.7774V42.748C54.8145 42.7742 53.6377 42.526 52.55 42.0203C50.7722 41.2412 48.78 41.2412 47.0023 42.0203C44.7918 42.9929 42.3126 42.9929 40.1022 42.0203C38.3244 41.2412 36.3322 41.2412 34.5545 42.0203C32.344 42.9929 29.8649 42.9929 27.6544 42.0203C25.8788 41.2409 23.8883 41.2409 22.1127 42.0203C19.9022 42.9929 17.4231 42.9929 15.2126 42.0203C13.437 41.2409 11.4465 41.2409 9.67092 42.0203C7.46047 42.9929 4.98131 42.9929 2.77085 42.0203C1.89941 41.6066 0.952802 41.4064 0 41.4343V39.4637C1.18314 39.435 2.35806 39.681 3.44403 40.1849C5.22023 40.9724 7.21553 40.9724 8.99174 40.1849C11.2017 39.221 13.6758 39.221 15.8858 40.1849C17.662 40.9724 19.6573 40.9724 21.4335 40.1849C23.6435 39.221 26.1176 39.221 28.3276 40.1849C30.1038 40.9724 32.0991 40.9724 33.8753 40.1849C36.0874 39.2213 38.5633 39.2213 40.7754 40.1849C42.5516 40.9724 44.5469 40.9724 46.3231 40.1849C48.5352 39.2213 51.011 39.2213 53.2231 40.1849C54.0963 40.6008 55.0448 40.8032 56 40.7774Z" fill="#52C6FF"/>
</svg>
