<svg width="56" height="56" viewBox="0 0 56 56" fill="none" xmlns="http://www.w3.org/2000/svg">
<path d="M22.3598 40.8683C22.3376 40.8796 22.3043 40.8796 22.2821 40.8909C20.0513 41.5133 17.1769 39.1028 16.8772 35.6172C16.3112 29.1777 18.098 22.8968 21.938 17.7588C23.6139 15.5181 26.566 15.0993 28.0643 16.4687C28.0865 16.48 28.0976 16.5027 28.1198 16.514C29.6291 17.8833 29.6402 20.1467 28.5304 21.8217C25.7891 25.8392 24.6904 30.6037 25.323 35.3455C25.6227 37.7674 24.6127 40.2458 22.3598 40.8683Z" fill="#84AC56"/>
<path d="M25.323 35.3458C24.6904 30.6039 25.7891 25.8395 28.5082 21.8219C29.6291 20.147 29.618 17.8836 28.0975 16.5142C28.0753 16.5029 29.0853 18.5965 27.3206 21.1429C24.5461 25.1265 22.6816 29.0422 23.3142 33.7953C23.6138 36.2172 22.5928 38.6956 20.3509 39.3181C20.3287 39.3294 20.2954 39.3294 20.2732 39.3407C19.6295 39.5218 18.9304 39.4425 18.2534 39.1709C19.3632 40.5516 20.928 41.2759 22.2709 40.9025C22.2931 40.8911 22.3264 40.8911 22.3486 40.8798C24.6127 40.2461 25.6226 37.7676 25.323 35.3458Z" fill="#769E4E"/>
<path d="M19.4187 28.318C20.3843 20.7242 27.0432 16.039 27.1098 15.9937L27.0321 15.8692C26.8546 15.8126 26.677 15.7673 26.4883 15.7334C25.2453 16.254 20.6395 18.6645 18.2978 26.892C15.9339 35.1987 19.2412 39.635 20.1734 40.6649C20.2844 40.7101 20.3843 40.7554 20.4953 40.7893L20.5951 40.6762C20.5508 40.6309 15.9228 36.3078 18.5753 26.9712C20.917 18.7664 25.5117 16.4351 26.6326 15.9824C25.2675 17.0462 20.0069 21.5164 19.1413 28.2727C18.1646 35.9343 20.8171 40.7893 20.8837 40.9025C20.8837 40.9025 20.8837 40.9025 20.8948 40.9025L21.139 40.7554C21.0946 40.7101 18.4532 35.923 19.4187 28.318Z" fill="#769E4E"/>
<path d="M21.1279 28.5328C21.7161 21.5954 27.4095 16.1633 27.465 16.1067L27.3873 16.0275C27.3318 15.9935 27.2652 15.9709 27.2097 15.9482C26.6104 16.5367 21.4053 21.8331 20.8393 28.5102C20.2733 35.2778 21.5274 40.5741 21.6384 40.9929C21.6828 40.9929 21.7383 40.9816 21.7827 40.9816L21.9269 40.9476C21.9047 40.8797 20.5397 35.4928 21.1279 28.5328Z" fill="#769E4E"/>
<path d="M22.1711 32.0639C21.8937 28.5783 23.1256 24.0175 25.1011 21.2222C27.121 18.3703 27.8757 16.3672 27.8868 16.3445L27.6204 16.2427C27.6093 16.2653 26.8657 18.2232 24.868 21.0524C22.8592 23.893 21.6051 28.533 21.8937 32.0865L21.9492 32.7543C22.2044 35.957 22.5263 39.9519 22.16 40.8233L22.2932 40.8799C22.3154 40.8686 22.3487 40.8686 22.3709 40.8573C22.4042 40.8459 22.4264 40.8346 22.4597 40.8346C22.8037 39.7369 22.5041 36.0249 22.2377 32.7203L22.1711 32.0639Z" fill="#769E4E"/>
<path d="M26.5549 21.0978C25.2897 23.3273 23.8691 25.8623 23.6805 27.8654C23.5695 29.0197 23.6139 30.4683 23.6694 32.0074C23.7693 35.0517 23.8802 38.5034 22.8037 40.5858L22.9258 40.6537C22.9924 40.6197 23.0701 40.5858 23.1367 40.5518C24.1577 38.3903 24.0578 35.0065 23.9579 31.9961C23.9135 30.4683 23.858 29.0197 23.969 27.888C24.1577 25.9415 25.5672 23.4404 26.8102 21.2336C27.7091 19.6379 28.4971 18.2459 28.7302 17.25C28.6969 17.1934 28.6636 17.1368 28.6192 17.0803L28.4749 17.0576C28.2974 18.0196 27.4539 19.5134 26.5549 21.0978Z" fill="#769E4E"/>
<path d="M23.3919 17.4308C21.6384 19.1057 19.8627 22.3085 19.4076 24.1418C18.9526 25.9752 20.8282 25.3527 21.3165 23.5307C21.8049 21.7086 23.736 18.5286 24.3797 17.7929C24.7681 17.3403 24.1244 16.7405 23.3919 17.4308Z" fill="#ABD16A"/>
<path d="M22.271 40.8798C22.2932 40.8685 22.3265 40.8685 22.3487 40.8571C24.6016 40.246 25.6116 37.7563 25.3119 35.3344C24.8791 32.0525 25.2675 28.7592 26.455 25.7036C26.455 25.7036 24.5017 29.2798 24.3242 32.6183C24.1577 35.9116 24.9235 39.7254 20.7283 40.8685C21.261 41.0156 21.7827 41.0269 22.271 40.8798Z" fill="#6D9148"/>
<path d="M26.7325 17.5329C26.6659 17.646 26.5327 17.68 26.4217 17.6121C26.3107 17.5442 26.2775 17.4084 26.344 17.2952C26.4106 17.182 26.5438 17.1481 26.6548 17.216C26.7547 17.2726 26.788 17.4197 26.7325 17.5329Z" fill="#ABD16A"/>
<path d="M26.7325 20.8937C26.6659 21.0069 26.5327 21.0408 26.4217 20.9729C26.3107 20.905 26.2775 20.7692 26.344 20.6561C26.4106 20.5429 26.5438 20.5089 26.6548 20.5768C26.7658 20.6447 26.7991 20.7805 26.7325 20.8937Z" fill="#ABD16A"/>
<path d="M24.2576 20.7013C24.191 20.8145 24.0578 20.8484 23.9468 20.7805C23.8358 20.7126 23.8025 20.5768 23.8691 20.4637C23.9357 20.3505 24.0689 20.3165 24.1799 20.3844C24.2909 20.441 24.3242 20.5882 24.2576 20.7013Z" fill="#ABD16A"/>
<path d="M25.6449 24.549C25.5783 24.6622 25.4451 24.6961 25.3341 24.6282C25.2231 24.5603 25.1898 24.4245 25.2564 24.3113C25.323 24.1982 25.4562 24.1642 25.5672 24.2321C25.6671 24.3 25.7115 24.4471 25.6449 24.549Z" fill="#ABD16A"/>
<path d="M23.0034 24.5041C22.9369 24.6172 22.8037 24.6512 22.6927 24.5833C22.5817 24.5154 22.5484 24.3796 22.615 24.2664C22.6816 24.1532 22.8148 24.1193 22.9258 24.1872C23.0367 24.2438 23.07 24.3909 23.0034 24.5041Z" fill="#ABD16A"/>
<path d="M18.997 27.3332C18.9304 27.4463 18.7972 27.4803 18.6862 27.4124C18.5752 27.3445 18.5419 27.2087 18.6085 27.0955C18.6751 26.9823 18.8083 26.9484 18.9193 27.0163C19.0192 27.0842 19.0525 27.22 18.997 27.3332Z" fill="#ABD16A"/>
<path d="M21.3387 29.2682C21.2721 29.3814 21.1389 29.4153 21.028 29.3474C20.917 29.2795 20.8837 29.1437 20.9503 29.0306C21.0169 28.9174 21.15 28.8834 21.261 28.9513C21.372 29.0192 21.4053 29.155 21.3387 29.2682Z" fill="#ABD16A"/>
<path d="M23.2255 32.109C23.1589 32.2222 23.0257 32.2562 22.9147 32.1883C22.8037 32.1204 22.7704 31.9846 22.837 31.8714C22.9036 31.7582 23.0368 31.7243 23.1478 31.7922C23.2477 31.8601 23.281 31.9959 23.2255 32.109Z" fill="#ABD16A"/>
<path d="M20.0624 32.2448C19.9958 32.358 19.8626 32.3919 19.7517 32.324C19.6407 32.2561 19.6074 32.1203 19.674 32.0071C19.7406 31.894 19.8737 31.86 19.9847 31.9279C20.0846 31.9845 20.129 32.1316 20.0624 32.2448Z" fill="#ABD16A"/>
<path d="M17.987 34.6779C17.9204 34.7911 17.7872 34.825 17.6762 34.7571C17.5653 34.6892 17.532 34.5534 17.5986 34.4402C17.6651 34.3271 17.7983 34.2931 17.9093 34.361C18.0092 34.4176 18.0536 34.5647 17.987 34.6779Z" fill="#ABD16A"/>
<path d="M19.5963 38.1974C19.5297 38.3106 19.3965 38.3445 19.2855 38.2766C19.1745 38.2087 19.1412 38.0729 19.2078 37.9598C19.2744 37.8466 19.4076 37.8126 19.5186 37.8805C19.6184 37.9484 19.6517 38.0843 19.5963 38.1974Z" fill="#ABD16A"/>
<path d="M21.594 37.0885C21.5274 37.2017 21.3943 37.2357 21.2833 37.1678C21.1723 37.0999 21.139 36.964 21.2056 36.8509C21.2722 36.7377 21.4054 36.7038 21.5163 36.7717C21.6162 36.8282 21.6495 36.9754 21.594 37.0885Z" fill="#ABD16A"/>
<path d="M23.5917 38.005C23.5251 38.1182 23.3919 38.1522 23.281 38.0843C23.17 38.0164 23.1367 37.8805 23.2033 37.7674C23.2699 37.6542 23.403 37.6203 23.514 37.6882C23.625 37.7561 23.6583 37.8919 23.5917 38.005Z" fill="#ABD16A"/>
<path d="M52.1322 26.5388C51.5078 24.2211 50.3177 23.8729 49.2544 24.1216C47.8887 24.4399 46.4158 24.4399 45.0501 24.1216C43.9868 23.8729 42.7967 24.2211 42.1723 26.5388C40.7286 31.8805 42.982 39.8482 46.406 38.4258C46.8742 38.2368 47.4303 38.2368 47.8985 38.4258C51.3225 39.8482 53.5856 31.8805 52.1322 26.5388Z" fill="#B42525"/>
<path d="M48.6496 27.862C48.0253 25.5443 46.8352 25.1962 45.7719 25.4448C44.4062 25.7631 42.9332 25.7631 41.5675 25.4448C40.5042 25.1962 39.3141 25.5443 38.6898 27.862C37.2461 33.2037 39.4995 41.1715 42.9235 39.749C43.3917 39.56 43.9478 39.56 44.416 39.749C47.84 41.1615 50.0934 33.1938 48.6496 27.862Z" fill="#CE3326"/>
<path d="M41.5675 25.4347C41.031 25.3054 40.4652 25.3353 39.958 25.6834C40.8359 26.4096 41.5968 27.3546 41.2359 29.3937C40.8457 31.5722 40.5823 36.9537 42.5528 39.8583C42.6796 39.8284 42.7967 39.7886 42.9235 39.7389C43.3917 39.5499 43.9478 39.5499 44.416 39.7389C44.4745 39.7687 44.5428 39.7886 44.6013 39.8085C44.7769 39.0127 44.894 38.1473 44.9428 37.5803C45.0501 36.2673 45.2159 28.7472 44.3477 25.6536C43.4112 25.7133 42.465 25.6536 41.5675 25.4347Z" fill="#C12925"/>
<path d="M55.5562 27.862C54.9318 25.5443 53.7417 25.1962 52.6785 25.4448C51.3128 25.7631 49.8398 25.7631 48.4741 25.4448C47.4108 25.1962 46.2207 25.5443 45.5963 27.862C44.1526 33.2037 46.406 41.1715 49.83 39.749C50.2982 39.56 50.8543 39.56 51.3225 39.749C54.7465 41.1615 56.9999 33.1938 55.5562 27.862Z" fill="#B42525"/>
<path d="M48.5717 27.5936C47.9278 25.5046 46.7865 25.1963 45.772 25.435C44.4063 25.7533 42.9333 25.7533 41.5676 25.435C41.0798 25.3156 40.5628 25.3355 40.0848 25.6041C40.0848 25.6041 40.9043 25.9224 41.3725 26.3303C41.9188 26.8077 42.0944 27.1658 42.8552 27.3648C43.6161 27.5637 48.5326 27.8223 48.5326 27.8223C48.5326 27.8223 48.5521 27.7428 48.5717 27.5936Z" fill="#B42525"/>
<path d="M45.0305 27.1157C45.0305 27.1157 45.9865 26.3299 46.1621 25.5838C46.328 24.8676 46.3377 22.6394 46.2889 21.9332C46.2402 21.2269 46.5426 21.0877 46.9328 21.2568C47.3327 21.4259 47.8302 21.0877 48.1912 21.1871C48.5521 21.2866 48.6496 21.595 48.357 21.973C48.0643 22.351 47.8985 22.8384 47.8107 23.7038C47.7229 24.5692 48.0936 26.4293 49.0203 27.0759C49.8397 27.6429 45.0305 27.1157 45.0305 27.1157Z" fill="#84AC56"/>
<path d="M49.0203 27.066C48.0936 26.4194 47.7327 24.5593 47.8107 23.6939C47.8985 22.8285 48.0643 22.3311 48.357 21.9631C48.6496 21.5851 48.5618 21.2867 48.1911 21.1772C47.8692 21.0877 47.44 21.3463 47.0693 21.2867C47.0693 21.2867 47.3717 21.4955 47.6351 21.5055C47.8985 21.5154 47.7619 21.8437 47.4985 22.5599C47.2352 23.2761 47.1181 25.2556 47.2644 26.0017C47.3717 26.5289 46.2889 26.5388 45.6354 26.4891C45.3329 26.8472 45.0208 27.1058 45.0208 27.1058C45.0208 27.1058 49.8397 27.643 49.0203 27.066Z" fill="#769E4E"/>
<path d="M52.1322 28.946C51.5078 26.6283 50.3177 26.2801 49.2544 26.5288C47.8887 26.8471 46.4158 26.8471 45.0501 26.5288C43.9868 26.2801 42.7967 26.6283 42.1723 28.946C40.7286 34.2877 42.982 42.2554 46.406 40.833C46.8742 40.644 47.4303 40.644 47.8985 40.833C51.3225 42.2554 53.5856 34.2877 52.1322 28.946Z" fill="#CE3326"/>
<path d="M43.4893 39.5995C44.2697 40.7435 45.2744 41.3005 46.406 40.833C46.8742 40.644 47.4303 40.644 47.8985 40.833C51.3225 42.2554 53.5759 34.2877 52.1322 28.946C51.5078 26.6283 50.3177 26.2801 49.2544 26.5288C48.913 26.6084 48.5618 26.6681 48.2107 26.7079C48.2107 26.7079 50.0543 28.0806 49.8397 33.7306C49.6349 39.3707 44.2306 39.7985 43.4893 39.5995Z" fill="#C12925"/>
<path d="M52.1322 28.9459C51.6152 27.0162 50.6982 26.4492 49.8008 26.4591C49.8105 26.4691 52.6882 29.5129 50.9713 35.5708C50.23 38.177 48.9033 39.7685 47.6254 40.7434C47.7132 40.7633 47.8107 40.7931 47.8888 40.8329C51.3225 42.2554 53.5857 34.2876 52.1322 28.9459Z" fill="#B42525"/>
<path d="M37.7649 36.6548C38.7705 33.1093 38.1821 31.582 38.15 29.4219C38.1179 26.9892 39.9259 21.8618 36.1601 20.4763C32.3943 19.0908 30.5969 24.2291 29.0457 26.0837C27.6763 27.731 26.2748 28.5274 24.8412 31.9202C23.3541 35.4221 24.0602 38.3567 29.2061 40.2331C34.3521 42.1204 36.7271 40.3203 37.7649 36.6548Z" fill="#DFD671"/>
<path d="M37.7649 36.655C38.7705 33.1095 38.1821 31.5822 38.15 29.4221C38.1179 27.2512 39.5515 22.942 37.1979 21.0547C37.6044 23.182 37.1979 26.3675 37.1337 27.9712C37.0374 30.1312 37.0053 31.2003 35.8071 34.6804C34.566 38.2805 32.084 39.9387 27.0665 37.7568C25.9431 37.2659 25.0445 36.7423 24.3491 36.1859C24.8412 37.8114 26.3283 39.1969 29.2061 40.2551C34.3521 42.1206 36.7271 40.3205 37.7649 36.655Z" fill="#CCC069"/>
<path d="M30.5327 26.5421C30.0513 25.5494 31.5277 23.5094 32.6831 21.9821C33.4748 20.9457 34.6516 21.9275 34.1488 22.9748C33.6353 24.033 30.9179 27.3385 30.5327 26.5421Z" fill="#FFFFAB"/>
<path d="M36.4276 20.8475C36.4062 20.9129 36.2243 20.902 36.0103 20.8256C35.8071 20.7493 35.6573 20.6402 35.6787 20.5747C35.7001 20.5093 35.8819 20.5202 36.0959 20.5965C36.2992 20.6729 36.449 20.782 36.4276 20.8475Z" fill="#5C4033"/>
<path d="M36.3955 19.8437C36.3955 19.8437 37.6793 15.4909 41.8624 16.5491C41.8624 16.5491 40.5786 21.4256 36.3955 19.8437Z" fill="#84AC56"/>
<path d="M36.3955 19.8439L41.8624 16.5493C41.8624 16.5493 40.5786 21.4258 36.3955 19.8439Z" fill="#769E4E"/>
<path d="M35.8285 15.12L36.6094 15C36.6094 15 37.262 18.0655 36.2136 20.7274L35.9247 20.6947C35.9247 20.6947 37.016 17.5419 35.8285 15.12Z" fill="#5C4033"/>
<path d="M36.6094 15L36.2671 15.0545C36.2671 15.0545 37.1016 18.1855 36.0638 20.7165L36.2029 20.7383C37.2513 18.0655 36.6094 15 36.6094 15Z" fill="#4B342B"/>
<path d="M8.81611 24.4511C8.81611 24.4511 8.37959 20.2418 4.37503 20.4837C4.37503 20.4837 4.71665 25.1671 8.81611 24.4511Z" fill="#84AC56"/>
<path d="M8.81611 24.4513L4.37503 20.4839C4.37503 20.4839 4.71665 25.1673 8.81611 24.4513Z" fill="#769E4E"/>
<path d="M10.5717 21.5481L9.92638 21.1997C9.92638 21.1997 8.41755 23.6769 8.51244 26.3476L8.77815 26.4057C8.76866 26.396 8.78764 23.2898 10.5717 21.5481Z" fill="#4B342B"/>
<path d="M9.92637 21.1899L10.211 21.3448C10.211 21.3448 8.51243 23.822 8.6358 26.3669L8.50294 26.3379C8.41754 23.6671 9.92637 21.1899 9.92637 21.1899Z" fill="#5C4033"/>
<path d="M16.9011 27.5571C15.5916 24.2381 12.7922 24.5381 10.8469 25.2154C9.52782 25.6799 8.09491 25.6799 6.77588 25.2154C4.83053 24.5381 2.03114 24.2381 0.72159 27.5571C-1.68874 33.6727 2.23991 42.8751 8.04746 40.6592C8.53143 40.4753 9.07233 40.4753 9.55629 40.6592C15.3828 42.8751 19.3115 33.6727 16.9011 27.5571Z" fill="#CE3326"/>
<path d="M16.9012 27.5572C16.3887 26.2509 15.6391 25.5058 14.804 25.1284C14.9463 25.38 15.1646 25.6316 15.2025 25.9606C15.734 29.9377 12.7638 37.3402 7.56352 39.111C5.99776 39.6432 3.95752 40.1948 2.20197 38.6756C3.64437 40.5722 5.69409 41.5689 8.05697 40.6593C8.54094 40.4754 9.08184 40.4754 9.5658 40.6593C15.3828 42.8752 19.3115 33.6728 16.9012 27.5572Z" fill="#BD2E1B"/>
<path d="M16.9011 27.5575C16.8632 27.4607 16.8252 27.3639 16.7778 27.2769C16.7872 27.3736 18.1917 37.6985 9.90738 40.7756C15.5346 42.5174 19.264 33.5569 16.9011 27.5575Z" fill="#B21D1A"/>
<path d="M5.33347 26.5507C6.24446 27.0636 7.93359 26.1153 8.31317 27.2474C8.73071 28.5151 3.91954 29.9665 2.58153 28.786C1.86981 28.157 1.77492 27.0733 2.94213 26.3669C4.09984 25.6798 4.50789 26.0863 5.33347 26.5507Z" fill="#E4877B"/>
</svg>
