<svg width="56" height="56" viewBox="0 0 56 56" fill="none" xmlns="http://www.w3.org/2000/svg">
<path fill-rule="evenodd" clip-rule="evenodd" d="M27.5347 14.4119C27.5347 14.4119 32.9977 4.62601 31.8139 0.0789929C31.8139 0.0789929 33.3491 -0.402903 33.6426 1.01379C33.6426 1.01379 32.4605 8.11125 27.5347 14.4119Z" fill="#6FA032"/>
<path fill-rule="evenodd" clip-rule="evenodd" d="M27.1929 15.1377C27.1929 15.1377 27.4528 14.5318 28.0151 13.5125C28.3008 13.0052 28.6622 12.3948 29.1124 11.7109C29.5648 11.0286 30.0982 10.2673 30.7637 9.48392C31.4314 8.70459 32.2152 7.88877 33.1976 7.14793C34.1788 6.42459 35.3988 5.74173 36.8844 5.56377C37.6208 5.47829 38.3995 5.55627 39.1242 5.77623L39.3925 5.86671C39.5146 5.9087 39.5643 5.93319 39.6536 5.96768C39.8098 6.02617 39.976 6.09716 40.1545 6.18564C40.5026 6.3496 40.8195 6.54106 41.1274 6.77101C41.7321 7.22391 42.2559 7.88927 42.363 8.69509C42.4846 9.48942 42.069 10.3862 41.2395 10.8236C40.8317 11.0416 40.3453 11.1371 39.8879 11.1066C39.4282 11.0761 39.0037 10.9361 38.6366 10.7481C38.2734 10.5657 37.9476 10.2962 37.7 10.0938C37.4222 9.85934 37.1488 9.5959 36.9145 9.32846C36.4448 8.78207 36.066 8.14121 35.9271 7.43137C35.7865 6.72652 35.9121 5.97168 36.2903 5.36132C37.0456 4.12109 38.5161 3.49272 39.8633 3.44473C40.2042 3.43723 40.5411 3.45823 40.8658 3.51872C41.1687 3.5777 41.4833 3.65719 41.7745 3.75666C42.3591 3.95562 42.8835 4.25956 43.3019 4.60748C43.7253 4.94741 44.0416 5.34032 44.3875 5.54328C44.7222 5.75073 45.1523 5.69324 45.5439 5.55927C45.7363 5.49679 45.9277 5.4173 46.1034 5.33082C46.2747 5.24984 46.4348 5.15386 46.5714 5.05188C46.8493 4.84993 47.035 4.59548 47.0584 4.33904C47.0858 4.08309 46.9759 3.84964 46.8437 3.67668C46.7087 3.50122 46.5519 3.37775 46.4169 3.29077C46.1419 3.1163 45.9556 3.09131 45.9556 3.09131C45.9556 3.09131 46.1436 3.09781 46.4459 3.24977C46.5943 3.32626 46.7717 3.43823 46.9374 3.6117C47.0992 3.78316 47.2632 4.0321 47.2554 4.34904C47.2543 4.66647 47.0495 4.9904 46.7583 5.23634C46.6122 5.36282 46.4504 5.47729 46.2663 5.58227C46.0895 5.68575 45.9009 5.78073 45.6867 5.86871C45.4764 5.95469 45.2443 6.03367 44.976 6.06066C44.7105 6.09066 44.4014 6.04517 44.1476 5.9182C43.6416 5.66075 43.3203 5.28983 42.917 5.00389C42.5215 4.71196 42.0651 4.48001 41.5463 4.33104C41.2864 4.25756 41.0242 4.20507 40.7347 4.16308C40.4647 4.13058 40.188 4.12059 39.9085 4.13858C38.7984 4.21506 37.6436 4.81344 37.1231 5.74973C36.8565 6.21063 36.7873 6.74652 36.905 7.2679C37.0211 7.79229 37.3351 8.29368 37.7373 8.74808C37.946 8.98003 38.1613 9.18449 38.4056 9.38894C38.6879 9.61589 38.8977 9.78286 39.1649 9.91683C39.6809 10.1823 40.256 10.2198 40.6817 9.98431C41.1151 9.76286 41.3706 9.28147 41.3048 8.79807C41.2518 8.30918 40.9109 7.83828 40.4485 7.46536C40.2187 7.2794 39.9514 7.10494 39.6803 6.96747L39.4784 6.86149L39.2413 6.75851C39.171 6.72902 39.0661 6.67853 39.0237 6.66653L38.8039 6.58655C38.2132 6.39259 37.5923 6.32361 36.9815 6.3701C35.7514 6.47008 34.6145 7.02746 33.6673 7.67681C32.7106 8.32917 31.9011 9.07701 31.2072 9.80535C29.8109 11.2625 28.8341 12.6297 28.1819 13.595C27.5248 14.5608 27.1929 15.1377 27.1929 15.1377Z" fill="#8BC53F"/>
<path fill-rule="evenodd" clip-rule="evenodd" d="M30.3344 13.976L23.7646 10.6167L5.15137 20.3756L6.12593 48.0541L34.0959 33.3378L32.4486 15.0572L30.3344 13.976Z" fill="#71316F"/>
<path fill-rule="evenodd" clip-rule="evenodd" d="M28.4415 13.0077C26.9677 15.3222 23.6791 16.128 21.0957 14.8073C18.5129 13.4866 17.6136 10.5397 19.0875 8.22471C20.5613 5.91022 23.8504 5.10439 26.4332 6.4251C29.0161 7.74582 29.9153 10.6932 28.4415 13.0077Z" fill="#8C4289"/>
<path fill-rule="evenodd" clip-rule="evenodd" d="M26.4332 6.42559C23.8504 5.10488 20.5613 5.9107 19.0875 8.2252C18.4945 9.157 18.2914 10.1903 18.4225 11.1796C18.8716 12.0909 19.6325 12.8882 20.6723 13.4196C23.2552 14.7403 26.5443 13.9345 28.0181 11.62C28.6111 10.6882 28.8141 9.65489 28.6831 8.66561C28.234 7.7543 27.4731 6.95698 26.4332 6.42559Z" fill="#A04E9D"/>
<path fill-rule="evenodd" clip-rule="evenodd" d="M25.2935 7.58922C25.4061 8.1221 24.5147 8.72097 23.3014 8.92743C22.0886 9.13388 21.0136 8.86944 20.9009 8.33656C20.7877 7.80367 21.6797 7.2048 22.893 6.99835C24.1058 6.79189 25.1808 7.05684 25.2935 7.58922Z" fill="#AF68A9"/>
<path fill-rule="evenodd" clip-rule="evenodd" d="M37.7954 17.7909C36.3216 20.1054 33.0331 20.9112 30.4497 19.5905C27.8668 18.2698 26.9676 15.3229 28.4414 13.0079C29.9152 10.6934 33.2043 9.88759 35.7872 11.2083C38.37 12.529 39.2693 15.4764 37.7954 17.7909Z" fill="#8C4289"/>
<path fill-rule="evenodd" clip-rule="evenodd" d="M35.7871 11.2083C33.2043 9.88759 29.9152 10.6934 28.4413 13.0079C27.8483 13.9397 27.6453 14.973 27.7764 15.9623C28.2255 16.8736 28.9864 17.6709 30.0262 18.2023C32.609 19.523 35.8981 18.7172 37.372 16.4027C37.9649 15.4709 38.168 14.4376 38.0369 13.4483C37.5878 12.537 36.8269 11.7397 35.7871 11.2083Z" fill="#A04E9D"/>
<path fill-rule="evenodd" clip-rule="evenodd" d="M34.6473 12.3725C34.76 12.9054 33.8685 13.5042 32.6552 13.7107C31.4425 13.9171 30.3675 13.6522 30.2548 13.1198C30.1416 12.5869 31.0336 11.9881 32.2469 11.7816C33.4596 11.5752 34.5346 11.8396 34.6473 12.3725Z" fill="#AF68A9"/>
<path fill-rule="evenodd" clip-rule="evenodd" d="M28.6336 22.4427C27.1597 24.7572 23.8712 25.5631 21.2878 24.2423C18.705 22.9216 17.8057 19.9748 19.2796 17.6598C20.7534 15.3453 24.0425 14.5394 26.6253 15.8602C29.2082 17.1809 30.1074 20.1282 28.6336 22.4427Z" fill="#8C4289"/>
<path fill-rule="evenodd" clip-rule="evenodd" d="M26.6253 15.8602C24.0424 14.5394 20.7533 15.3453 19.2795 17.6598C18.6865 18.5916 18.484 19.6248 18.6146 20.6141C19.0636 21.5254 19.8245 22.3223 20.8644 22.8541C23.4472 24.1749 26.7363 23.369 28.2101 21.0545C28.8031 20.1227 29.0062 19.0895 28.8751 18.1002C28.426 17.1889 27.6651 16.3915 26.6253 15.8602Z" fill="#A04E9D"/>
<path fill-rule="evenodd" clip-rule="evenodd" d="M25.4855 17.0243C25.5982 17.5572 24.7067 18.1561 23.4934 18.3625C22.2806 18.569 21.2056 18.3041 21.093 17.7717C20.9797 17.2388 21.8717 16.6399 23.085 16.4335C24.2978 16.227 25.3728 16.4915 25.4855 17.0243Z" fill="#AF68A9"/>
<path fill-rule="evenodd" clip-rule="evenodd" d="M19.2797 17.6595C17.8059 19.974 14.5173 20.7799 11.9339 19.4591C9.35109 18.1384 8.45184 15.1916 9.92567 12.8766C11.3995 10.5621 14.6886 9.75625 17.2714 11.077C19.8543 12.3977 20.7535 15.345 19.2797 17.6595Z" fill="#8C4289"/>
<path fill-rule="evenodd" clip-rule="evenodd" d="M17.2714 11.0779C14.6886 9.75722 11.3995 10.563 9.92565 12.8775C9.33266 13.8093 9.1296 14.8426 9.2607 15.8319C9.70977 16.7432 10.4707 17.5405 11.5105 18.0719C14.0933 19.3926 17.3824 18.5868 18.8563 16.2723C19.4493 15.3405 19.6523 14.3072 19.5212 13.3179C19.0722 12.4066 18.3112 11.6093 17.2714 11.0779Z" fill="#A04E9D"/>
<path fill-rule="evenodd" clip-rule="evenodd" d="M16.1316 12.2411C16.2443 12.774 15.3528 13.3729 14.1395 13.5793C12.9268 13.7858 11.8518 13.5214 11.7391 12.9885C11.6259 12.4556 12.5179 11.8567 13.7312 11.6503C14.9439 11.4438 16.0189 11.7083 16.1316 12.2411Z" fill="#AF68A9"/>
<path fill-rule="evenodd" clip-rule="evenodd" d="M37.9875 27.2254C36.5136 29.5399 33.2246 30.3458 30.6417 29.0251C28.0589 27.7043 27.1596 24.7575 28.6335 22.4425C30.1073 20.128 33.3964 19.3222 35.9792 20.6429C38.5621 21.9636 39.4613 24.911 37.9875 27.2254Z" fill="#8C4289"/>
<path fill-rule="evenodd" clip-rule="evenodd" d="M35.9792 20.6429C33.3963 19.3222 30.1073 20.128 28.6334 22.4425C28.0404 23.3743 27.8374 24.4076 27.9685 25.3968C28.4175 26.3081 29.1784 27.1055 30.2183 27.6369C32.8011 28.9576 36.0902 28.1517 37.564 25.8373C38.157 24.9055 38.3601 23.8722 38.229 22.8829C37.7799 21.9716 37.019 21.1743 35.9792 20.6429Z" fill="#A04E9D"/>
<path fill-rule="evenodd" clip-rule="evenodd" d="M34.8394 21.8071C34.9521 22.3399 34.0606 22.9388 32.8473 23.1453C31.6345 23.3517 30.5596 23.0868 30.4469 22.5544C30.3336 22.0215 31.2256 21.4226 32.439 21.2162C33.6517 21.0097 34.7267 21.2742 34.8394 21.8071Z" fill="#AF68A9"/>
<path fill-rule="evenodd" clip-rule="evenodd" d="M10.1568 31.9867C8.68299 34.3012 5.39447 35.107 2.81107 33.7863C0.228226 32.4656 -0.671028 29.5187 0.80281 27.2037C2.27665 24.8892 5.56573 24.0834 8.14857 25.4041C10.7314 26.7248 11.6307 29.6722 10.1568 31.9867Z" fill="#8C4289"/>
<path fill-rule="evenodd" clip-rule="evenodd" d="M8.14855 25.4041C5.56571 24.0834 2.27663 24.8892 0.802789 27.2037C0.209795 28.1355 0.00673807 29.1688 0.137833 30.1581C0.586901 31.0694 1.34781 31.8662 2.38764 32.3981C4.97048 33.7188 8.25956 32.913 9.7334 30.5985C10.3264 29.6667 10.5295 28.6334 10.3984 27.6441C9.94929 26.7328 9.18838 25.9355 8.14855 25.4041Z" fill="#A04E9D"/>
<path fill-rule="evenodd" clip-rule="evenodd" d="M7.00877 26.5682C7.12145 27.1011 6.23001 27.7 5.01669 27.9064C3.80392 28.1129 2.72895 27.8484 2.61626 27.3156C2.50302 26.7827 3.39502 26.1838 4.60834 25.9774C5.82111 25.7709 6.89608 26.0358 7.00877 26.5682Z" fill="#AF68A9"/>
<path fill-rule="evenodd" clip-rule="evenodd" d="M19.5107 36.7704C18.0369 39.0849 14.7484 39.8907 12.165 38.57C9.58214 37.2493 8.68288 34.3024 10.1567 31.9874C11.6306 29.6729 14.9196 28.8671 17.5025 30.1878C20.0853 31.5085 20.9846 34.4559 19.5107 36.7704Z" fill="#8C4289"/>
<path fill-rule="evenodd" clip-rule="evenodd" d="M17.5024 30.1878C14.9196 28.8671 11.6305 29.6729 10.1567 31.9874C9.56368 32.9192 9.36062 33.9525 9.49171 34.9418C9.94078 35.8531 10.7017 36.6504 11.7415 37.1818C14.3244 38.5025 17.6134 37.6967 19.0873 35.3822C19.6803 34.4504 19.8833 33.4171 19.7522 32.4278C19.3032 31.5165 18.5423 30.7192 17.5024 30.1878Z" fill="#A04E9D"/>
<path fill-rule="evenodd" clip-rule="evenodd" d="M16.3626 31.351C16.4753 31.8839 15.5839 32.4828 14.3705 32.6892C13.1578 32.8957 12.0828 32.6307 11.9701 32.0983C11.8569 31.5655 12.7489 30.9666 13.9622 30.7601C15.175 30.5537 16.2499 30.8181 16.3626 31.351Z" fill="#AF68A9"/>
<path fill-rule="evenodd" clip-rule="evenodd" d="M19.5262 46.1146C18.0524 48.4291 14.7639 49.2349 12.1805 47.9142C9.59761 46.5935 8.69836 43.6466 10.1722 41.3316C11.646 39.0171 14.9351 38.2113 17.518 39.532C20.1008 40.8528 21.0001 43.8001 19.5262 46.1146Z" fill="#8C4289"/>
<path fill-rule="evenodd" clip-rule="evenodd" d="M17.5179 39.532C14.9351 38.2113 11.646 39.0171 10.1722 41.3316C9.57918 42.2634 9.37612 43.2967 9.50722 44.286C9.95629 45.1973 10.7178 45.9946 11.757 46.526C14.3404 47.8467 17.6289 47.0409 19.1028 44.7264C19.6958 43.7946 19.8988 42.7613 19.7677 41.7721C19.3187 40.8607 18.5578 40.0634 17.5179 39.532Z" fill="#A04E9D"/>
<path fill-rule="evenodd" clip-rule="evenodd" d="M16.3782 40.6952C16.4909 41.2281 15.5995 41.827 14.3861 42.0334C13.1734 42.2399 12.0984 41.975 11.9857 41.4426C11.8725 40.9097 12.7645 40.3108 13.9778 40.1044C15.1906 39.8979 16.2655 40.1624 16.3782 40.6952Z" fill="#AF68A9"/>
<path fill-rule="evenodd" clip-rule="evenodd" d="M10.5213 50.8871C9.04749 53.2016 5.75897 54.0074 3.17557 52.6867C0.592728 51.366 -0.306526 48.4191 1.16731 46.1041C2.64115 43.7896 5.93023 42.9838 8.51307 44.3045C11.0959 45.6252 11.9952 48.5726 10.5213 50.8871Z" fill="#8C4289"/>
<path fill-rule="evenodd" clip-rule="evenodd" d="M8.51305 44.305C5.93021 42.9843 2.64113 43.7901 1.16729 46.1046C0.574297 47.0364 0.37124 48.0697 0.502335 49.059C0.951403 49.9703 1.71231 50.7676 2.75214 51.299C5.33498 52.6197 8.62406 51.8139 10.0979 49.4994C10.6909 48.5676 10.894 47.5343 10.7629 46.545C10.3138 45.6337 9.55288 44.8364 8.51305 44.305Z" fill="#A04E9D"/>
<path fill-rule="evenodd" clip-rule="evenodd" d="M7.37327 45.4687C7.48596 46.0016 6.59451 46.6004 5.38119 46.8069C4.16842 47.0133 3.09345 46.7489 2.98076 46.216C2.86752 45.6831 3.75952 45.0843 4.97229 44.8778C6.18561 44.6713 7.26058 44.9358 7.37327 45.4687Z" fill="#AF68A9"/>
<path fill-rule="evenodd" clip-rule="evenodd" d="M10.1723 41.3314C8.69849 43.6459 5.40997 44.4517 2.82657 43.131C0.243729 41.8103 -0.655525 38.8634 0.818313 36.5484C2.29215 34.2339 5.58123 33.4281 8.16407 34.7488C10.7469 36.0695 11.6462 39.0169 10.1723 41.3314Z" fill="#8C4289"/>
<path fill-rule="evenodd" clip-rule="evenodd" d="M8.16408 34.7488C5.58124 33.4281 2.29216 34.2339 0.818323 36.5484C0.225329 37.4802 0.0222715 38.5135 0.153366 39.5028C0.602435 40.4141 1.36334 41.2114 2.40317 41.7428C4.98602 43.0635 8.2751 42.2577 9.74893 39.9432C10.3419 39.0114 10.545 37.9781 10.4139 36.9888C9.96482 36.0775 9.20392 35.2807 8.16408 34.7488Z" fill="#A04E9D"/>
<path fill-rule="evenodd" clip-rule="evenodd" d="M7.02427 35.913C7.13696 36.4459 6.24551 37.0448 5.03219 37.2512C3.81943 37.4577 2.74445 37.1932 2.63176 36.6603C2.51852 36.1275 3.41052 35.5286 4.62384 35.3221C5.83661 35.1157 6.91158 35.3801 7.02427 35.913Z" fill="#AF68A9"/>
<path fill-rule="evenodd" clip-rule="evenodd" d="M28.6881 41.4628C27.2142 43.7773 23.9257 44.5831 21.3423 43.2624C18.7595 41.9417 17.8602 38.9948 19.3341 36.6798C20.8079 34.3653 24.097 33.5595 26.6798 34.8802C29.2627 36.2009 30.1619 39.1483 28.6881 41.4628Z" fill="#8C4289"/>
<path fill-rule="evenodd" clip-rule="evenodd" d="M26.6797 34.8802C24.0969 33.5595 20.8078 34.3653 19.334 36.6798C18.741 37.6116 18.5379 38.6449 18.669 39.6342C19.1181 40.5455 19.879 41.3428 20.9188 41.8742C23.5017 43.1949 26.7908 42.3891 28.2646 40.0746C28.8576 39.1428 29.0606 38.1095 28.9295 37.1202C28.4805 36.2089 27.7196 35.4116 26.6797 34.8802Z" fill="#A04E9D"/>
<path fill-rule="evenodd" clip-rule="evenodd" d="M25.54 36.0434C25.6526 36.5763 24.7612 37.1751 23.5479 37.3816C22.3351 37.588 21.2601 37.3231 21.1475 36.7907C21.0342 36.2578 21.9262 35.659 23.1395 35.4525C24.3523 35.2461 25.4273 35.5105 25.54 36.0434Z" fill="#AF68A9"/>
<path fill-rule="evenodd" clip-rule="evenodd" d="M19.4164 27.182C17.9426 29.4965 14.6541 30.3023 12.0707 28.9816C9.48784 27.6609 8.58859 24.714 10.0624 22.399C11.5363 20.0845 14.8253 19.2787 17.4082 20.5994C19.991 21.9201 20.8903 24.8675 19.4164 27.182Z" fill="#8C4289"/>
<path fill-rule="evenodd" clip-rule="evenodd" d="M17.4082 20.5994C14.8254 19.2787 11.5363 20.0845 10.0624 22.399C9.46944 23.3308 9.26638 24.3641 9.39748 25.3534C9.84655 26.2647 10.6075 27.062 11.6473 27.5934C14.2301 28.9141 17.5192 28.1083 18.993 25.7938C19.586 24.862 19.7891 23.8287 19.658 22.8394C19.2089 21.9281 18.448 21.1308 17.4082 20.5994Z" fill="#A04E9D"/>
<path fill-rule="evenodd" clip-rule="evenodd" d="M16.2684 21.7626C16.3811 22.2955 15.4896 22.8944 14.2763 23.1008C13.0635 23.3073 11.9886 23.0428 11.8759 22.51C11.7626 21.9771 12.6546 21.3782 13.868 21.1717C15.0807 20.9653 16.1557 21.2297 16.2684 21.7626Z" fill="#AF68A9"/>
<path fill-rule="evenodd" clip-rule="evenodd" d="M28.7704 31.9642C27.2965 34.2787 24.008 35.0845 21.4246 33.7638C18.8418 32.4431 17.9425 29.4963 19.4163 27.1813C20.8902 24.8668 24.1793 24.0609 26.7621 25.3816C29.3449 26.7024 30.2442 29.6497 28.7704 31.9642Z" fill="#8C4289"/>
<path fill-rule="evenodd" clip-rule="evenodd" d="M26.762 25.3816C24.1792 24.0609 20.8901 24.8668 19.4163 27.1813C18.8233 28.1131 18.6202 29.1463 18.7513 30.1356C19.2004 31.0469 19.9619 31.8437 21.0011 32.3756C23.5845 33.6963 26.8731 32.8905 28.3469 30.576C28.9399 29.6442 29.1429 28.6109 29.0119 27.6217C28.5628 26.7104 27.8019 25.913 26.762 25.3816Z" fill="#A04E9D"/>
<path fill-rule="evenodd" clip-rule="evenodd" d="M25.6223 26.5458C25.735 27.0782 24.8436 27.6776 23.6302 27.884C22.4175 28.0905 21.3425 27.8255 21.2298 27.2932C21.1166 26.7603 22.0086 26.1614 23.2219 25.955C24.4346 25.7485 25.5096 26.0129 25.6223 26.5458Z" fill="#AF68A9"/>
<path fill-rule="evenodd" clip-rule="evenodd" d="M37.8899 37.1151C36.416 39.4296 33.1275 40.2354 30.5441 38.9147C27.9613 37.594 27.062 34.6471 28.5358 32.3321C30.0097 30.0176 33.2988 29.2118 35.8816 30.5325C38.4644 31.8532 39.3637 34.8006 37.8899 37.1151Z" fill="#8C4289"/>
<path fill-rule="evenodd" clip-rule="evenodd" d="M35.8815 30.5325C33.2987 29.2118 30.0096 30.0176 28.5358 32.3321C27.9428 33.2639 27.7403 34.2972 27.8708 35.2865C28.3199 36.1978 29.0808 36.9951 30.1206 37.5265C32.7035 38.8472 35.9926 38.0414 37.4664 35.7269C38.0594 34.7951 38.2624 33.7618 38.1313 32.7725C37.6823 31.8612 36.9214 31.0639 35.8815 30.5325Z" fill="#A04E9D"/>
<path fill-rule="evenodd" clip-rule="evenodd" d="M34.7418 31.6967C34.8544 32.2296 33.963 32.8285 32.7497 33.0349C31.5369 33.2414 30.4619 32.9769 30.3492 32.444C30.236 31.9112 31.128 31.3123 32.3413 31.1058C33.5541 30.8994 34.6291 31.1638 34.7418 31.6967Z" fill="#AF68A9"/>
<mask id="mask0" mask-type="alpha" maskUnits="userSpaceOnUse" x="0" y="15" width="11" height="10">
<path fill-rule="evenodd" clip-rule="evenodd" d="M0 15.1812H10.7713V24.8335H0V15.1812Z" fill="white"/>
</mask>
<g mask="url(#mask0)">
<path fill-rule="evenodd" clip-rule="evenodd" d="M10.0627 22.3988C8.58881 24.7133 5.30029 25.5191 2.71689 24.1984C0.134048 22.8777 -0.765205 19.9308 0.708633 17.6158C2.18247 15.3013 5.47155 14.4955 8.05439 15.8162C10.6372 17.1369 11.5365 20.0843 10.0627 22.3988Z" fill="#8C4289"/>
</g>
<path fill-rule="evenodd" clip-rule="evenodd" d="M8.05431 15.8162C5.47147 14.4955 2.18239 15.3013 0.708551 17.6158C0.115557 18.5476 -0.0875002 19.5809 0.0435944 20.5702C0.492663 21.4815 1.25357 22.2783 2.2934 22.8102C4.87624 24.1309 8.16532 23.3251 9.63916 21.0106C10.2322 20.0788 10.4352 19.0455 10.3041 18.0562C9.85505 17.1449 9.09414 16.3476 8.05431 15.8162Z" fill="#A04E9D"/>
<path fill-rule="evenodd" clip-rule="evenodd" d="M6.9145 16.9799C7.02718 17.5128 6.13574 18.1117 4.92242 18.3181C3.70965 18.5246 2.63468 18.2596 2.52199 17.7272C2.40875 17.1944 3.30075 16.5955 4.51407 16.389C5.72684 16.1826 6.80181 16.447 6.9145 16.9799Z" fill="#AF68A9"/>
<path fill-rule="evenodd" clip-rule="evenodd" d="M44.5686 19.0351L44.6193 18.5022C44.6193 18.5022 45.1058 19.7169 46.2315 20.5477C46.2315 20.5477 47.0711 19.5544 47.2836 18.4887L47.6897 18.8856C47.6897 18.8856 48.0267 18.0093 47.6529 17.4409L48.2939 17.7039C48.2939 17.7039 48.1784 16.0882 47.4577 15.3309L48.223 15.7838C48.223 15.7838 48.4824 15.0594 48.0696 14.5675C48.0696 14.5675 49.0325 15.6083 49.751 15.7188L49.5864 15.2824C49.5864 15.2824 50.7122 16.1132 51.535 16.1277L51.2661 15.7868C51.2661 15.7868 52.3645 16.2377 53.0763 16.2532L52.7885 15.9502C52.7885 15.9502 53.8796 16.3057 56 15.5153C55.2832 13.5602 54.2696 13.0524 54.2696 13.0524L54.7136 13.0499C54.2355 12.577 53.1371 12.1261 53.1371 12.1261L53.6007 12.0861C53.0507 11.5372 51.6131 11.3162 51.6131 11.3162L52.0895 11.1428C51.5266 10.7274 50.0182 10.7544 50.0182 10.7544C50.7038 10.7129 51.1462 10.064 51.1462 10.064L50.2642 9.84005C51.3743 9.83456 52.8147 8.85727 52.8147 8.85727L52.1737 8.59433C52.8984 8.47635 53.4188 7.67502 53.4188 7.67502L52.818 7.65953C53.5795 6.81871 53.8701 5.59997 53.8701 5.59997C52.4331 5.37952 51.0887 5.84292 51.0887 5.84292L51.506 5.46C50.2196 5.486 49.1764 6.11886 49.1764 6.11886L49.3906 5.69945C48.1996 6.13336 47.7779 7.3181 47.6691 7.70452C47.8487 7.02716 47.2764 6.26183 47.2764 6.26183L46.8524 6.54927C47.0387 5.42601 45.8739 4.34825 45.8739 4.34825L45.5677 4.73016C45.2514 3.72388 44.2506 3.08252 44.2506 3.08252C43.3078 4.49471 44.0291 5.57498 44.0291 5.57498L43.6169 5.40602C43.1745 6.05438 44.0598 7.24812 44.0598 7.24812L43.6475 7.07915C43.1929 7.86098 44.5474 8.78578 44.3599 9.58561C44.1725 10.3849 42.3422 9.6336 42.3422 9.6336L42.225 9.86255L42.1084 10.0915C42.1084 10.0915 43.9387 10.8423 43.3854 11.4922C42.832 12.1416 41.1662 11.8266 40.8025 12.6459L41.2148 12.8154C41.2148 12.8154 39.6282 12.9944 39.3688 13.7182L39.7805 13.8877C39.7805 13.8877 38.3971 14.1036 37.8203 15.6658C37.8203 15.6658 39.0157 15.9262 40.0723 15.4833L39.9496 15.9402C39.9496 15.9402 41.6214 16.0267 42.4487 15.1669L42.4828 15.6418C42.4828 15.6418 43.5036 15.5303 43.9583 14.9659C43.7028 15.2924 42.9776 16.3521 43.3887 17.4439L43.6029 17.0245C43.6029 17.0245 43.7496 18.1458 44.5686 19.0351Z" fill="#8BC53F"/>
<path fill-rule="evenodd" clip-rule="evenodd" d="M43.1694 10.2925C43.1694 10.2925 44.7431 11.3582 54.3421 14.8775C54.3421 14.8775 47.6216 11.8601 43.1694 10.2925Z" fill="#74A634"/>
<path fill-rule="evenodd" clip-rule="evenodd" d="M44.0616 10.6938C44.0616 10.6938 45.9159 13.0573 41.042 14.1061C41.042 14.1061 46.3577 13.4128 44.0616 10.6938Z" fill="#74A634"/>
<path fill-rule="evenodd" clip-rule="evenodd" d="M44.9522 11.0594C44.8658 10.9624 47.3136 12.3351 46.228 17.53C46.228 17.53 47.134 13.5024 44.9522 11.0594Z" fill="#74A634"/>
<path fill-rule="evenodd" clip-rule="evenodd" d="M44.2136 10.7453C44.2136 10.7453 47.4218 10.4594 45.124 6.46777C45.124 6.46777 48.0109 10.5269 44.2136 10.7453Z" fill="#74A634"/>
<path fill-rule="evenodd" clip-rule="evenodd" d="M45.1041 11.1113C44.9658 11.1158 47.7249 11.8801 51.4045 7.75C51.4045 7.75 48.5941 10.9953 45.1041 11.1113Z" fill="#74A634"/>
<path fill-rule="evenodd" clip-rule="evenodd" d="M29.4328 53.1693C27.1579 54.8859 23.7611 54.6245 21.8455 52.5859C19.9298 50.5474 20.2216 47.5035 22.4965 45.7869C24.7714 44.0708 28.1681 44.3317 30.0838 46.3703C31.9989 48.4088 31.7077 51.4527 29.4328 53.1693Z" fill="#8C4289"/>
<path fill-rule="evenodd" clip-rule="evenodd" d="M30.0835 46.3703C28.1678 44.3317 24.7711 44.0708 22.4962 45.7869C21.5807 46.4783 20.9922 47.3851 20.7339 48.3539C20.8042 49.3481 21.2115 50.3319 21.983 51.1523C23.8981 53.1908 27.2954 53.4523 29.5697 51.7356C30.4857 51.0448 31.0742 50.1375 31.3325 49.1687C31.2617 48.1744 30.8544 47.1906 30.0835 46.3703Z" fill="#A04E9D"/>
<path fill-rule="evenodd" clip-rule="evenodd" d="M28.5655 47.11C28.4662 47.6449 27.3985 47.9313 26.1802 47.7499C24.9624 47.5684 24.0559 46.9875 24.1552 46.4527C24.2539 45.9178 25.3222 45.6313 26.54 45.8128C27.7578 45.9943 28.6648 46.5751 28.5655 47.11Z" fill="#AF68A9"/>
<path fill-rule="evenodd" clip-rule="evenodd" d="M47.0733 50.0404C44.7984 51.757 41.4016 51.4956 39.486 49.457C37.5703 47.419 37.8621 44.3746 40.1364 42.658C42.4114 40.9419 45.8087 41.2028 47.7243 43.2414C49.6394 45.2799 49.3482 48.3238 47.0733 50.0404Z" fill="#8C4289"/>
<path fill-rule="evenodd" clip-rule="evenodd" d="M47.724 43.2414C45.8084 41.2028 42.4116 40.9419 40.1367 42.658C39.2213 43.3489 38.6328 44.2562 38.3745 45.225C38.4448 46.2192 38.852 47.203 39.6235 48.0233C41.5386 50.0619 44.9353 50.3233 47.2102 48.6067C48.1262 47.9159 48.7142 47.0086 48.973 46.0398C48.9022 45.0455 48.495 44.0617 47.724 43.2414Z" fill="#A04E9D"/>
<path fill-rule="evenodd" clip-rule="evenodd" d="M46.206 43.9811C46.1067 44.516 45.0389 44.8024 43.8212 44.621C42.6028 44.4395 41.6963 43.8586 41.7956 43.3238C41.8949 42.7889 42.9626 42.5024 44.1804 42.6839C45.3982 42.8654 46.3053 43.4462 46.206 43.9811Z" fill="#AF68A9"/>
<path fill-rule="evenodd" clip-rule="evenodd" d="M41.9476 54.8656C39.6727 56.5822 36.2759 56.3208 34.3603 54.2822C32.4446 52.2437 32.7364 49.1998 35.0113 47.4832C37.2856 45.7671 40.683 46.028 42.5986 48.0666C44.5137 50.1051 44.2225 53.149 41.9476 54.8656Z" fill="#8C4289"/>
<path fill-rule="evenodd" clip-rule="evenodd" d="M42.5983 48.0666C40.6827 46.028 37.2859 45.7671 35.011 47.4832C34.0956 48.1746 33.507 49.0814 33.2488 50.0501C33.3191 51.0444 33.7263 52.0282 34.4972 52.8485C36.4129 54.8871 39.8096 55.1485 42.0845 53.4319C43.0005 52.7411 43.5885 51.8338 43.8473 50.865C43.7765 49.8707 43.3693 48.8869 42.5983 48.0666Z" fill="#A04E9D"/>
<path fill-rule="evenodd" clip-rule="evenodd" d="M41.0803 48.8063C40.981 49.3412 39.9132 49.6276 38.6954 49.4462C37.4771 49.2642 36.5706 48.6838 36.6699 48.149C36.7692 47.6141 37.8369 47.3276 39.0547 47.5091C40.2725 47.6906 41.1796 48.2714 41.0803 48.8063Z" fill="#AF68A9"/>
</svg>
