<svg width="56" height="56" viewBox="0 0 56 56" fill="none" xmlns="http://www.w3.org/2000/svg">
<path d="M23.2543 44.7496C21.2167 44.7505 19.1894 44.4588 17.2348 43.8833L22.9841 38.1353L15.073 30.2261L0.275609 45.0106C-0.0897664 45.3729 -0.0921687 45.9627 0.270258 46.328C0.272005 46.3299 0.273862 46.3316 0.275609 46.3334C6.34743 52.4887 14.6258 55.9662 23.273 55.994C28.2102 55.9897 33.0798 54.8451 37.5019 52.6496L28.8452 43.995C27.0239 44.4964 25.1434 44.7502 23.2543 44.7496ZM7.19514 46.3279C7.19339 46.3298 7.19153 46.3315 7.18979 46.3333C6.82736 46.6986 6.23736 46.701 5.87199 46.3386C5.87013 46.3369 5.86838 46.335 5.86664 46.3333L3.73281 44.2L5.05595 42.8771L7.18968 45.0106C7.55505 45.3728 7.55756 45.9626 7.19514 46.3279ZM9.9906 43.5333C9.98885 43.5351 9.98699 43.5369 9.98524 43.5386C9.62282 43.9039 9.03282 43.9063 8.66745 43.544C8.66559 43.5422 8.66384 43.5403 8.6621 43.5386L6.52827 41.4053L7.85141 40.0825L9.98514 42.2158C10.3505 42.578 10.353 43.1679 9.9906 43.5333ZM12.7861 40.7384C12.7843 40.7402 12.7825 40.742 12.7807 40.7437C12.4183 41.109 11.8283 41.1114 11.4629 40.7491C11.4611 40.7473 11.4593 40.7455 11.4576 40.7437L9.32373 38.6104L10.6469 37.2876L12.7807 39.4209C13.146 39.7832 13.1485 40.3731 12.7861 40.7384ZM15.5815 37.9437C15.5798 37.9456 15.5779 37.9473 15.5762 37.949C15.2137 38.3143 14.6237 38.3167 14.2584 37.9544C14.2565 37.9527 14.2548 37.9508 14.253 37.949L12.1192 35.8157L13.4423 34.4929L15.5762 36.6262C15.9414 36.9885 15.9439 37.5783 15.5815 37.9437Z" fill="#BFBFBF"/>
<path d="M43.8754 17.2404C45.0357 21.0291 45.0811 25.0716 44.0059 28.8854L52.6439 37.5212C58.8435 25.0445 56.292 9.99476 46.326 0.25747C45.9537 -0.0976632 45.3638 -0.0836893 45.0085 0.288693C45.0066 0.290767 45.0047 0.292732 45.0028 0.294807L30.2056 15.0885L38.1168 22.9977L43.8754 17.2404ZM44.1922 3.75094L46.326 5.88436C46.6914 6.2467 46.6938 6.83655 46.3314 7.20184C46.3296 7.20369 46.3278 7.20544 46.326 7.20719C45.9636 7.57247 45.3736 7.57487 45.0082 7.21254C45.0064 7.21079 45.0046 7.20893 45.0029 7.20719L42.869 5.07388L44.1922 3.75094ZM41.3967 6.54572L43.5306 8.67914C43.8959 9.04148 43.8983 9.63133 43.5359 9.99661C43.5342 9.99836 43.5323 10.0002 43.5306 10.002C43.1681 10.3672 42.5781 10.3697 42.2128 10.0073C42.2109 10.0056 42.2092 10.0037 42.2074 10.002L40.0736 7.86865L41.3967 6.54572ZM38.6013 9.3405L40.7351 11.4738C41.1005 11.8361 41.1029 12.426 40.7405 12.7913C40.7387 12.7931 40.7369 12.7949 40.7351 12.7966C40.3727 13.1619 39.7827 13.1643 39.4173 12.802C39.4155 12.8002 39.4137 12.7984 39.412 12.7966L37.2781 10.6633L38.6013 9.3405ZM37.9396 15.5915C37.5772 15.9568 36.9872 15.9592 36.6219 15.5969C36.62 15.5951 36.6182 15.5933 36.6165 15.5915L34.4827 13.4582L35.8058 12.1354L37.9396 14.2687C38.305 14.631 38.3074 15.2209 37.945 15.5862C37.9433 15.5879 37.9415 15.5898 37.9396 15.5915Z" fill="#BFBFBF"/>
<path d="M55.7182 43.2228L51.73 39.2263L45.7384 33.2454L43.3436 30.8419L34.9572 22.4576L33.6247 21.1348L30.2142 17.7251L28.8911 16.4023L18.4453 5.95913C15.032 2.46708 9.43323 2.40267 5.94044 5.81524C2.44753 9.22782 2.38322 14.8252 5.79663 18.3172C5.84402 18.3657 5.89196 18.4136 5.94044 18.461L43.2132 55.7246C43.5756 56.0899 44.1656 56.0923 44.531 55.73C44.5329 55.7282 44.5346 55.7264 44.5363 55.7246L55.7182 44.5455C56.0836 44.1832 56.086 43.5933 55.7235 43.228C55.7218 43.2264 55.72 43.2245 55.7182 43.2228ZM42.5516 32.705L43.8747 34.0279L40.809 37.0928C40.6332 37.2672 40.3951 37.3645 40.1474 37.363C39.9296 37.3635 39.7187 37.2877 39.551 37.1487L39.4858 37.0928C39.1205 36.7305 39.1181 36.1407 39.4805 35.7754C39.4822 35.7735 39.4841 35.7718 39.4858 35.77L42.5142 32.705H42.5516ZM41.0794 31.2332L38.0136 34.2982C37.6512 34.6635 37.0612 34.6659 36.6958 34.3035C36.694 34.3018 36.6922 34.2999 36.6905 34.2982C36.3251 33.9358 36.3227 33.346 36.6851 32.9807C36.6869 32.9788 36.6888 32.9771 36.6905 32.9753L39.7562 29.9104L41.0794 31.2332ZM38.2839 28.4384L35.2182 31.5034C34.8558 31.8687 34.2658 31.8711 33.9004 31.5087C33.8985 31.507 33.8968 31.5051 33.895 31.5034C33.5297 31.1411 33.5273 30.5512 33.8897 30.1859C33.8914 30.1841 33.8933 30.1823 33.895 30.1806L36.9608 27.1156L38.2839 28.4384ZM34.1652 24.3207L35.4883 25.6343L32.4226 28.7085C32.4033 28.7325 32.3814 28.7544 32.3574 28.7737C32.2827 28.8374 32.1977 28.8879 32.1058 28.9227C31.9948 28.9604 31.8783 28.9793 31.7611 28.9786C31.2464 28.9815 30.8269 28.5669 30.8239 28.0524C30.8224 27.8021 30.9217 27.5618 31.0995 27.3856L32.3015 26.1838L33.6247 24.861L34.1652 24.3207ZM31.3697 21.5259L32.6929 22.8488L29.6272 25.9137C29.4513 26.0881 29.2133 26.1854 28.9655 26.1839C28.8514 26.1836 28.7382 26.1647 28.6301 26.128C28.5089 26.0777 28.3982 26.0051 28.3039 25.9137C27.9385 25.5514 27.9361 24.9615 28.2985 24.5963C28.3003 24.5944 28.3022 24.5927 28.3039 24.5909L28.6766 24.2183L31.3697 21.5259ZM29.8975 20.0541L26.8318 23.1191C26.4694 23.4844 25.8794 23.4868 25.514 23.1244C25.5121 23.1227 25.5104 23.1208 25.5087 23.1191C25.1433 22.7567 25.1409 22.1669 25.5033 21.8016C25.5051 21.7997 25.5069 21.798 25.5087 21.7962L28.5744 18.7313L29.8975 20.0541ZM27.1021 17.2593L24.0363 20.3243C23.6739 20.6896 23.0839 20.692 22.7185 20.3296C22.7167 20.3279 22.7149 20.326 22.7132 20.3243C22.3478 19.962 22.3454 19.3721 22.7078 19.0068C22.7096 19.005 22.7115 19.0032 22.7132 19.0015L25.7789 15.9365L27.1021 17.2593ZM19.9177 16.2066L22.9835 13.1416L24.3066 14.4644L21.2409 17.5294C20.8785 17.8947 20.2885 17.8971 19.9231 17.5348C19.9212 17.533 19.9195 17.5311 19.9177 17.5294C19.5635 17.1674 19.5738 16.5786 19.9177 16.2066ZM12.6588 16.868C10.343 16.868 8.46563 14.9912 8.46563 12.6759C8.46563 10.3606 10.343 8.48371 12.6588 8.48371C14.9747 8.48371 16.852 10.3606 16.852 12.6759C16.8469 14.989 14.9725 16.8629 12.6588 16.868ZM18.1752 28.0472L17.7092 27.5813L16.8519 26.7242L18.054 25.5225C18.4164 25.1572 19.0064 25.1548 19.3717 25.5171C19.3736 25.5189 19.3754 25.5207 19.3771 25.5225C19.4432 25.5888 19.4996 25.6641 19.5448 25.746C19.7378 26.1094 19.6696 26.5561 19.3771 26.8453L18.1752 28.0472ZM22.1727 29.6402L20.9706 30.8419L19.6475 29.5191L20.8495 28.3174C21.2034 27.9439 21.7932 27.9279 22.1669 28.2818C22.447 28.5472 22.5345 28.9576 22.387 29.3141C22.3394 29.4367 22.2664 29.5478 22.1727 29.6402ZM23.7661 33.6367L22.4429 32.3139L23.645 31.1121C24.0104 30.7468 24.6028 30.7468 24.9681 31.1121C25.3335 31.4774 25.3335 32.0697 24.9681 32.435L23.7661 33.6367ZM27.7636 35.2297L26.5615 36.4315L25.6298 35.4999L25.2384 35.1087L26.4404 33.9069C26.6972 33.6514 27.0788 33.5678 27.4188 33.6926C27.5481 33.7378 27.6659 33.8109 27.7636 33.9069C28.129 34.2692 28.1314 34.8591 27.7689 35.2244C27.7672 35.2261 27.7654 35.2279 27.7636 35.2297ZM30.559 38.0245L29.357 39.2263L28.0339 37.9034L29.2359 36.7017C29.5833 36.3184 30.1757 36.2891 30.559 36.6365C30.9424 36.9838 30.9717 37.576 30.6242 37.9593C30.6003 37.9785 30.5784 38.0005 30.559 38.0245ZM32.1525 42.021L30.8293 40.6982L32.0314 39.4965C32.3967 39.1312 32.9891 39.1312 33.3545 39.4965C33.7199 39.8617 33.7199 40.454 33.3545 40.8193L32.1525 42.021ZM34.9479 44.8158L33.6248 43.493L34.8268 42.2912C35.1922 41.926 35.7846 41.926 36.15 42.2912C36.5153 42.6565 36.5153 43.2488 36.15 43.6141L34.9479 44.8158ZM37.7434 47.6106L36.4202 46.2878L36.9607 45.7475L37.6223 45.086C37.9877 44.7207 38.5801 44.7207 38.9454 45.086C39.3108 45.4513 39.3108 46.0436 38.9454 46.4088L37.7434 47.6106ZM41.7409 49.2036L40.5388 50.4054L39.2157 49.0826L40.4177 47.8808C40.7831 47.5155 41.3755 47.5155 41.7409 47.8808C42.1063 48.246 42.1063 48.8383 41.7409 49.2036ZM43.6046 39.8876C43.2421 40.2529 42.6521 40.2553 42.2868 39.893C42.2849 39.8912 42.2832 39.8894 42.2814 39.8876C41.916 39.5253 41.9136 38.9354 42.2761 38.5701C42.2778 38.5683 42.2797 38.5665 42.2814 38.5648L45.3471 35.4998L46.6703 36.8226L43.6046 39.8876ZM45.7384 42.9526C45.4907 42.954 45.2527 42.8569 45.0768 42.6824C44.7114 42.3201 44.709 41.7302 45.0714 41.3649C45.0732 41.3631 45.075 41.3613 45.0768 41.3596L45.7384 40.6981L48.1425 38.2946L49.4656 39.6174L46.3999 42.6824C46.2242 42.8569 45.9862 42.954 45.7384 42.9526ZM49.1955 45.4772C48.8331 45.8425 48.2431 45.8449 47.8777 45.4825C47.8758 45.4808 47.8741 45.4789 47.8723 45.4772C47.507 45.1148 47.5046 44.525 47.867 44.1597C47.8687 44.1578 47.8706 44.1561 47.8723 44.1544L49.736 42.2911L50.9381 41.0894L52.2612 42.4122L49.1955 45.4772Z" fill="#BFBFBF"/>
</svg>
