<svg width="56" height="56" viewBox="0 0 56 56" fill="none" xmlns="http://www.w3.org/2000/svg">
<path fill-rule="evenodd" clip-rule="evenodd" d="M28 56C43.464 56 56 43.464 56 28C56 12.536 43.464 0 28 0C12.536 0 0 12.536 0 28C0 43.464 12.536 56 28 56Z" fill="#1D1C1D"/>
<path fill-rule="evenodd" clip-rule="evenodd" d="M25.4546 0H31.0546V7.5434H25.4546V0ZM14.662 10.9674L10.0802 6.39023L6.49106 9.99572L11.0475 14.5729L14.662 10.9674ZM7.63644 25.442H0V31.042H7.63644V25.442ZM49.5094 9.99572L45.9203 6.39023L41.3639 10.9674L44.953 14.5729L49.5094 9.99572ZM45.8951 49.6317L41.3388 45.029L44.9024 41.449L49.4842 46.0262L45.8951 49.6317ZM48.3636 25.442V31.042H55.9999V25.442H48.3636ZM12.7273 28C12.7273 19.536 19.5746 12.6574 28.0001 12.6574C36.4256 12.6574 43.2729 19.536 43.2729 28C43.2729 36.4639 36.4256 43.3425 28.0001 43.3425C19.5746 43.3425 12.7273 36.4639 12.7273 28ZM25.4546 55.9993H31.0546V48.4559H25.4546V55.9993ZM10.0802 49.6053L6.49106 45.9998L11.0474 41.3971L14.6365 45.0026L10.0802 49.6053Z" fill="#347CFF"/>
</svg>
