<svg width="56" height="56" viewBox="0 0 56 56" fill="none" xmlns="http://www.w3.org/2000/svg">
<path fill-rule="evenodd" clip-rule="evenodd" d="M28 56C43.464 56 56 43.464 56 28C56 12.536 43.464 0 28 0C12.536 0 0 12.536 0 28C0 43.464 12.536 56 28 56Z" fill="#1D1C1D"/>
<path d="M17.4462 0C14.28 0 11.2646 0.448 8.4 1.288C20.6425 4.844 29.5077 15.456 29.5077 28C29.5077 40.544 20.6425 51.156 8.4 54.712C11.2646 55.552 14.28 56 17.4462 56C34.0911 56 47.6 43.456 47.6 28C47.6 12.544 34.0911 0 17.4462 0Z" fill="#347CFF"/>
</svg>
