<svg width="56" height="56" viewBox="0 0 56 56" fill="none" xmlns="http://www.w3.org/2000/svg">
<path d="M48.7293 20.3309L51.0586 19.0607L52.3749 16.918H53.974L53.7066 20.5639L51.0997 24.2098L48.7293 23.2595L48.2357 22.7341L48.7293 20.3309Z" fill="#347CFF"/>
<path d="M31.5299 10.5264L35.2783 11.2163H38.0343L46.4464 13.423L49.9223 13.3088L51.8968 14.0763L55.8303 14.4327L56 14.748L55.3675 14.917L50.8684 15.0906L49.5829 15.945L46.5081 14.7936L38.8313 14.3139L37.2116 13.7017L31.0671 13.2128L31.5299 10.5264Z" fill="#FFBF8A"/>
<path d="M27.0925 9.21045H27.7044L31.5299 10.5263L31.1752 13.2173L27.4936 13.0665L27.0925 9.21045Z" fill="#347CFF"/>
<path d="M26.7377 34.9424L26.1206 38.5792L26.4292 40.2239L25.3751 41.5032L24.069 45.9075L23.7914 50.5951L21.2667 50.7413L20.9582 43.2394L22.5573 39.8264L22.0483 34.9424H26.7377Z" fill="#FFBF8A"/>
<path d="M21.2668 30.2043V35.1889L28.1929 35.0381L28.6453 29.9302L21.2668 30.2043Z" fill="#C2C2C2"/>
<path d="M29.1185 23.2368L34.2243 23.447L35.7669 22.8256L37.6179 23.1363L43.5362 22.3368L48.7295 20.3311V21.7794L48.3336 22.8256L47.6086 22.8759L39.9472 26.7777H35.7103L29.4835 28.7834L28.6454 26.339L29.1185 23.2368Z" fill="#FFBF8A"/>
<path d="M20.115 20.5093L19.9453 21.752L24.5061 23.0495L26.7068 22.6246L26.7377 21.3225L20.115 20.5093Z" fill="#FFBF8A"/>
<path d="M19.6368 22.8759L19.8322 21.752L24.5061 22.6749L26.8611 22.588L27.0925 23.648L21.7707 23.8993L19.6368 22.8759Z" fill="#C2C2C2"/>
<path d="M16.8087 12.0527L12.541 15.7398L10.9676 16.416L5.02359 23.0453L3.19823 23.292L0.113121 26.3851L0 28.2812L0.925533 28.6512L3.39362 27.0841H4.74079L6.00568 25.2383L6.20107 24.5165L13.4974 18.906L13.7596 18.0287L18.6958 14.9082L16.8087 12.0527Z" fill="#FFBF8A"/>
<path d="M30.553 4.00232L30.2445 5.7476L28.6453 8.71276L26.82 8.58941L24.4342 6.69335L24.2131 5.3227L25.0512 2.53116L26.9023 1.53516H29.6223L30.553 2.33013V4.00232Z" fill="#FFBF8A"/>
<path d="M29.8639 2.71388L28.8818 4.03883L26.8199 5.15819V4.22615L25.447 5.82067L23.961 6.13135V5.19931L22.3568 2.43061L25.0099 0L29.7662 0.973158L31.9103 1.45745L32.2034 3.40377L30.5631 4.71045L29.8639 2.71388Z" fill="#333333"/>
<path d="M19.5287 9.65787L22.835 8.88574L25.5858 11.9514L26.4857 12.0519L26.9896 11.6042L25.9766 9.53451L26.2286 8.88574L27.4935 9.33349L27.8585 12.3124L29.4834 14.6424L27.4935 17.0868L27.2055 21.5459L19.6367 20.751L19.8887 13.8703L19.5287 9.65787Z" fill="#347CFF"/>
<path d="M24.4341 6.69336L22.8658 9.21078L24.213 11.3307L25.4728 12.313L26.7377 12.4318L27.0924 11.5729L26.3777 9.72248L25.9767 9.53516L26.496 8.32899L24.4341 6.69336Z" fill="#FFBF8A"/>
<path d="M24.434 6.69336L24.0021 7.38782L26.3314 8.71278L26.4959 8.329L24.434 6.69336Z" fill="#DBA477"/>
<path d="M22.3569 2.43066V5.49634L20.8709 7.26447H20.2538L22.3569 9.21079L24.7992 8.61684L25.4471 5.82072L24.7427 3.72821L22.3569 2.43066Z" fill="#333333"/>
<path d="M19.6369 22.876L21.7965 23.5978L29.1185 23.2369L30.1572 30.1313L21.6577 30.6795L19.3284 29.2815L17.5648 26.7777L18.516 24.37L19.6369 22.876Z" fill="white"/>
<path d="M16.6956 12.1531L19.5287 9.53516H21.2667L22.3567 11.0063L21.9094 12.8475L18.4027 15.0908L16.6956 12.1531Z" fill="#347CFF"/>
<path d="M49.079 20.9572L47.5004 20.6191L47.0582 19.7602L47.9426 19.4541L48.9761 20.1714L49.079 20.9572Z" fill="#825F7F"/>
<path d="M50.1074 21.8573L50.6113 23.1777L51.5369 21.5923L50.1074 21.8573Z" fill="white"/>
<path d="M21.2667 50.7414L23.7913 50.5952L24.3981 54.1041L26.3983 54.5335L27.0975 56.0001L22.9892 55.991L19.2665 52.8065L20.8142 50.979L21.2667 50.7414Z" fill="#347CFF"/>
<path d="M23.0407 51.1659L24.1771 50.0557L25.4008 50.4806L24.7632 51.3578L23.6166 51.7324L23.0407 51.1659Z" fill="#825F7F"/>
</svg>
