<svg width="58" height="56" viewBox="0 0 58 56" fill="none" xmlns="http://www.w3.org/2000/svg">
<mask id="mask0" mask-type="alpha" maskUnits="userSpaceOnUse" x="0" y="10" width="50" height="47">
<path fill-rule="evenodd" clip-rule="evenodd" d="M0.997009 10.7129H49.0968V56.0002H0.997009V10.7129Z" fill="white"/>
</mask>
<g mask="url(#mask0)">
<path fill-rule="evenodd" clip-rule="evenodd" d="M48.8054 31.1192C45.9514 49.8293 39.1766 56.0004 24.4325 56.0004C10.628 56.0004 3.29808 46.6951 1.21194 30.9625C-0.58187 17.4376 9.00028 10.7129 24.4325 10.7129C39.3984 10.7129 51.1144 15.9781 48.8054 31.1192Z" fill="#D1160A"/>
</g>
<path fill-rule="evenodd" clip-rule="evenodd" d="M18.0384 13.8626C18.0384 13.8626 20.6034 12.5529 25.4422 12.7496C30.2811 12.9498 33.0531 13.6967 32.9815 14.8257C32.9098 15.9559 28.1108 16.8938 23.8634 16.2796C19.6149 15.6653 16.8065 15.4834 18.0384 13.8626Z" fill="#960D0E"/>
<mask id="mask1" mask-type="alpha" maskUnits="userSpaceOnUse" x="24" y="0" width="14" height="17">
<path fill-rule="evenodd" clip-rule="evenodd" d="M24.4121 0H37.8971V16.4738H24.4121V0Z" fill="white"/>
</mask>
<g mask="url(#mask1)">
<path fill-rule="evenodd" clip-rule="evenodd" d="M33.4399 2.85756C32.5026 2.69055 31.43 2.61048 30.421 2.75461C31.0239 2.04885 31.4368 1.65537 31.2923 1.65537C30.9545 1.65537 29.0412 -2.42133 26.6764 2.22043C24.3127 6.86333 24.4322 14.6027 24.4322 14.6027C24.4322 14.6027 24.3309 16.3356 24.5834 16.3665C25.1533 16.4317 26.8152 16.474 26.8152 16.474C26.8152 16.474 26.251 11.9215 27.8241 7.12642C28.2427 5.84874 28.9047 4.74492 29.5395 3.86987C30.4642 3.36886 31.7064 3.18241 33.3705 3.71888C36.0174 4.39947 36.5202 5.0263 37.1549 5.82357C37.5644 6.54649 37.8556 5.42322 37.8965 5.16128C37.9375 4.89705 35.5374 3.22817 33.4399 2.85756Z" fill="#6F5A03"/>
</g>
<path fill-rule="evenodd" clip-rule="evenodd" d="M36.3347 4.45046C35.849 4.26858 35.3542 4.10387 34.8719 3.90941C33.8118 3.48161 32.7164 3.34892 31.6471 2.98175C31.5027 2.93142 30.7144 2.71409 30.4209 2.75526C31.0238 2.04836 31.4367 1.65602 31.2922 1.65602C31.2046 1.65602 31.0113 1.38035 30.7314 1.05664C28.5043 2.60771 27.0312 5.53369 26.3863 8.03873C25.7891 10.3585 26.0689 12.7857 24.9303 14.9396C24.8165 15.1558 24.6118 15.2301 24.4139 15.2084C24.4093 15.7117 24.4309 16.3477 24.5834 16.366C25.1532 16.4323 26.8151 16.4746 26.8151 16.4746C26.8151 16.4746 26.2509 11.921 27.824 7.12593C28.2426 5.84939 28.9047 4.74557 29.5394 3.86938C30.4641 3.36951 31.7063 3.18307 33.3704 3.71839C36.0173 4.39898 36.5201 5.02696 37.1548 5.82308C37.3834 6.22686 37.5723 6.05071 37.7054 5.77504C37.3857 5.1951 37.0229 4.70897 36.3347 4.45046Z" fill="#4D3D06"/>
<mask id="mask2" mask-type="alpha" maskUnits="userSpaceOnUse" x="35" y="0" width="23" height="15">
<path fill-rule="evenodd" clip-rule="evenodd" d="M35.0161 0.155762H57.0018V14.6601H35.0161V0.155762Z" fill="white"/>
</mask>
<g mask="url(#mask2)">
<path fill-rule="evenodd" clip-rule="evenodd" d="M35.0161 3.91742C35.0161 3.91742 35.7123 12.287 45.2819 13.9753C54.8504 15.6625 56.9843 13.7008 56.9843 13.7008C56.9843 13.7008 57.6554 7.76077 50.7077 3.6692C43.7577 -0.422363 37.2843 -1.66573 35.0161 3.91742Z" fill="#AE9C19"/>
</g>
<path fill-rule="evenodd" clip-rule="evenodd" d="M51.5874 12.0468C49.251 10.9956 46.6917 10.4889 44.4804 9.14139C43.5011 8.54544 42.5513 7.87057 41.6481 7.13278C39.4027 6.21198 37.2779 4.96632 35.3499 3.23682C35.2338 3.45644 35.1155 3.67262 35.0166 3.91855C35.0166 3.91855 35.7127 12.2881 45.2812 13.9765C53.2368 15.3788 56.0464 14.2624 56.7698 13.8438C54.9771 13.5555 53.3664 12.8452 51.5874 12.0468Z" fill="#978715"/>
<mask id="mask3" mask-type="alpha" maskUnits="userSpaceOnUse" x="11" y="18" width="39" height="38">
<path fill-rule="evenodd" clip-rule="evenodd" d="M11.9944 18.4893H49.096V55.9995H11.9944V18.4893Z" fill="white"/>
</mask>
<g mask="url(#mask3)">
<path fill-rule="evenodd" clip-rule="evenodd" d="M27.0254 51.9916C19.8934 52.7225 9.64014 49.6261 12.4793 52.0785C13.3188 52.8049 13.3062 53.1057 16.3774 54.722C18.7684 55.5627 21.4495 55.9997 24.4331 55.9997C39.176 55.9997 45.9509 49.8286 48.8059 31.1186C49.6283 25.7207 48.6626 21.5834 46.4093 18.4893C46.4081 18.5362 45.5982 25.8339 44.1286 30.9447C42.3678 37.0654 35.213 51.1532 27.0254 51.9916Z" fill="#960D0E"/>
</g>
<path fill-rule="evenodd" clip-rule="evenodd" d="M8.30368 41.7303C8.30368 41.7303 4.47947 33.8297 4.27131 28.1654C4.06201 22.5021 7.05245 17.8169 9.20798 17.1878C11.3635 16.5587 10.3295 17.8867 11.9937 18.1658C13.659 18.446 17.2739 19.9159 18.2476 19.5659C19.2201 19.2147 20.75 18.0274 21.4462 19.3554C22.1412 20.6845 21.0287 23.6906 19.9162 24.1802C18.8027 24.6686 16.9269 25.8593 15.7451 25.2291C14.5621 24.5988 11.0848 25.507 10.0429 24.7384C8.99982 23.9708 4.27017 27.8851 8.30368 41.7303Z" fill="#FF1D0C"/>
</svg>
