<svg width="56" height="56" viewBox="0 0 56 56" fill="none" xmlns="http://www.w3.org/2000/svg">
<g clip-path="url(#clip0)">
<path d="M18.4242 9.63879C18.0172 9.64517 17.6577 9.90609 17.5255 10.2911L9.79279 32.8318H0.98008C-0.326866 32.8132 -0.326866 34.7831 0.98008 34.7645H10.4828C10.8956 34.7645 11.2627 34.5023 11.3968 34.1118L18.516 13.3598L31.6858 45.7588C32.0022 46.5369 33.0923 46.5688 33.4535 45.8106L38.7155 34.7647H44.532V39.5967C44.532 40.095 44.936 40.4987 45.434 40.4987C45.5975 40.4987 45.758 40.4543 45.8981 40.3702L55.562 34.5718C55.9891 34.3156 56.1277 33.7614 55.8714 33.3343C55.7953 33.2073 55.689 33.1012 55.562 33.0249L45.8981 27.2265C45.7684 27.1488 45.6213 27.1049 45.4704 27.0989C44.9727 27.0788 44.5527 27.4662 44.5326 27.9639C44.532 27.9759 44.5318 27.988 44.5318 28V32.832H38.1053C37.7327 32.832 37.3933 33.0463 37.2329 33.3828L32.6508 43.0011L19.3347 10.241C19.1846 9.87169 18.8229 9.6326 18.4242 9.63879ZM46.3359 29.593L53.3445 33.7984L46.3359 38.0037V29.593ZM47.3477 31.3789C47.081 31.3864 46.8707 31.6087 46.8782 31.8756C46.8828 32.0395 46.9704 32.1901 47.1105 32.2751L50.203 34.2079C50.4254 34.3554 50.7254 34.2945 50.8727 34.072C51.0202 33.8496 50.9593 33.5496 50.7368 33.4023C50.7297 33.3977 50.7225 33.393 50.7152 33.3888L47.6227 31.456C47.541 31.4031 47.4451 31.3762 47.3477 31.3789Z" fill="white"/>
</g>
<defs>
<clipPath id="clip0">
<rect width="56" height="56" fill="white"/>
</clipPath>
</defs>
</svg>
