<svg width="56" height="56" viewBox="0 0 56 56" fill="none" xmlns="http://www.w3.org/2000/svg">
<path d="M32 3C25.6348 3 19.5303 5.63392 15.0294 10.3223C10.5286 15.0107 8 21.3696 8 28H0L10.3733 38.8055L10.56 39.1944L21.3333 28H13.3333C13.3333 17.25 21.68 8.55555 32 8.55555C42.32 8.55555 50.6667 17.25 50.6667 28C50.6667 38.75 42.32 47.4444 32 47.4444C26.8533 47.4444 22.1867 45.25 18.8267 41.7222L15.04 45.6667C17.2624 47.9945 19.9053 49.8409 22.8162 51.0996C25.727 52.3582 28.8483 53.0041 32 53C38.3652 53 44.4697 50.3661 48.9706 45.6777C53.4714 40.9892 56 34.6304 56 28C56 21.3696 53.4714 15.0107 48.9706 10.3223C44.4697 5.63392 38.3652 3 32 3ZM29.3333 16.8889V30.7778L40.6667 37.7778L42.72 34.1944L33.3333 28.3889V16.8889H29.3333Z" fill="white"/>
</svg>
