<svg width="56" height="56" viewBox="0 0 56 56" fill="none" xmlns="http://www.w3.org/2000/svg">
<g clip-path="url(#clip0)">
<path d="M51.9166 18.6668H49V16.9168C49 14.6652 47.1683 12.8335 44.9166 12.8335H39.0833C36.8316 12.8335 35 14.6652 35 16.9168V18.6668H32.0833C30.9353 18.6668 29.9016 19.1452 29.1596 19.9105L42 26.6095L54.8403 19.9105C54.0983 19.1452 53.0646 18.6668 51.9166 18.6668ZM38.5 18.6668V16.9168C38.5 16.5948 38.7613 16.3335 39.0833 16.3335H44.9166C45.2386 16.3335 45.5 16.5948 45.5 16.9168V18.6668H38.5Z" fill="white"/>
<path d="M42.8097 30.1348C42.3033 30.3985 41.6967 30.3985 41.1927 30.1348L28 23.2515V33.2498C28 35.5015 29.8317 37.3331 32.0833 37.3331H51.9167C54.1683 37.3331 56 35.5015 56 33.2498V23.2515L42.8097 30.1348Z" fill="white"/>
<path d="M32.8067 41.5707C31.934 40.6187 30.4593 40.5533 29.5097 41.419C29.092 41.7993 28.5693 42 28 42H7C5.712 42 4.66667 40.9523 4.66667 39.6667V16.3333C4.66667 15.0477 5.712 14 7 14H28C28.266 14 28.532 14.0513 28.833 14.161C30.0417 14.6043 31.3833 13.979 31.8243 12.768C32.2653 11.557 31.6423 10.2177 30.4313 9.77667C30.2727 9.71833 30.1187 9.695 29.9623 9.64833L29.365 3.67733C29.1597 1.582 27.412 0 25.305 0H9.695C7.588 0 5.84033 1.582 5.63267 3.67733L5.03533 9.65067C2.135 10.5047 0 13.16 0 16.3333V39.6667C0 42.84 2.135 45.4953 5.03533 46.3517L5.63267 52.3227C5.84033 54.418 7.588 56 9.695 56H25.3027C27.4097 56 29.1573 54.418 29.365 52.3227L29.9623 46.3517C30.9517 46.0577 31.8757 45.5723 32.6503 44.8653C33.6047 43.9997 33.6747 42.5227 32.8067 41.5707Z" fill="white"/>
</g>
<defs>
<clipPath id="clip0">
<rect width="56" height="56" fill="white"/>
</clipPath>
</defs>
</svg>
