<svg width="56" height="56" viewBox="0 0 56 56" fill="none" xmlns="http://www.w3.org/2000/svg">
<g clip-path="url(#clip0)">
<path d="M16.4138 47.3102H7.72422V20.2756L7.92799 19.8682C8.98619 17.7508 11.15 16.4136 13.5174 16.4136H16.414V47.3102H16.4138Z" fill="#337AB5"/>
<path d="M24.1379 43.4484V47.3105H11.5862V24.312C11.5862 17.6962 15.3237 11.6482 21.2414 8.68994V43.4486H24.1379V43.4484Z" fill="#D4D4D4"/>
<path d="M27.0345 43.4484H15.4483V23.752C15.5071 18.1983 17.5637 12.8513 21.2415 8.68994C24.9191 12.8513 26.9757 18.1983 27.0346 23.752V43.4484H27.0345Z" fill="#EBEBEB"/>
<path d="M22.2069 16.4136H20.2759V18.3446H22.2069V16.4136Z" fill="#D4D4D4"/>
<path d="M20.2754 20.2754H18.3444V22.2064H20.2754V20.2754Z" fill="#D4D4D4"/>
<path d="M24.1373 20.2754H22.2063V22.2064H24.1373V20.2754Z" fill="#D4D4D4"/>
<path d="M20.2754 24.1377H18.3444V26.0687H20.2754V24.1377Z" fill="#D4D4D4"/>
<path d="M24.1373 24.1377H22.2063V26.0687H24.1373V24.1377Z" fill="#D4D4D4"/>
<path d="M20.2754 28H18.3444V29.931H20.2754V28Z" fill="#D4D4D4"/>
<path d="M24.1373 28H22.2063V29.931H24.1373V28Z" fill="#D4D4D4"/>
<path d="M20.2754 31.8618H18.3444V33.7928H20.2754V31.8618Z" fill="#D4D4D4"/>
<path d="M24.1373 31.8618H22.2063V33.7928H24.1373V31.8618Z" fill="#D4D4D4"/>
<path d="M20.2754 35.7236H18.3444V37.6546H20.2754V35.7236Z" fill="#D4D4D4"/>
<path d="M24.1373 35.7236H22.2063V37.6546H24.1373V35.7236Z" fill="#D4D4D4"/>
<path d="M55.0344 16.4136H32.8275C31.7607 16.4136 30.8965 17.2777 30.8965 18.3446V22.2066C30.8965 23.2735 31.7607 24.1376 32.8275 24.1376H55.0344C55.5674 24.1376 56 23.7051 56 23.1721V17.3789C56 16.846 55.5674 16.4136 55.0344 16.4136Z" fill="#337AB5"/>
<path d="M4.82753 17.3799H2.89651V21.2419H4.82753V17.3799Z" fill="#266599"/>
<path d="M55.9998 21.2417H34.7584C34.2255 21.2417 33.7929 20.8091 33.7929 20.2761C33.7929 19.7431 34.2255 19.3105 34.7584 19.3105H55.9998V21.2417Z" fill="#266599"/>
<path d="M55.0344 24.1382H32.8275C31.7607 24.1382 30.8965 25.0024 30.8965 26.0692V29.9312C30.8965 30.9981 31.7607 31.8622 32.8275 31.8622H55.0344C55.5674 31.8622 56 31.4297 56 30.8967V25.1035C56 24.5705 55.5674 24.1382 55.0344 24.1382Z" fill="#E8594A"/>
<path d="M56.0001 28.9658H34.7587C34.2257 28.9658 33.7931 28.5332 33.7931 28.0002C33.7931 27.4672 34.2257 27.0347 34.7587 27.0347H56.0001V28.9658Z" fill="#CF4F42"/>
<path d="M55.0344 31.8618H32.8275C31.7607 31.8618 30.8965 32.726 30.8965 33.7928V37.6549C30.8965 38.7217 31.7607 39.5859 32.8275 39.5859H55.0344C55.5674 39.5859 56 39.1533 56 38.6203V32.8272C56 32.2944 55.5674 31.8618 55.0344 31.8618Z" fill="#F9B44D"/>
<path d="M56.0001 36.6894H34.7587C34.2257 36.6894 33.7931 36.2568 33.7931 35.7239C33.7931 35.1909 34.2257 34.7583 34.7587 34.7583H56.0001V36.6894Z" fill="#F5A338"/>
<path d="M55.0344 39.5864H32.8275C31.7607 39.5864 30.8965 40.4506 30.8965 41.5174V45.3795C30.8965 46.4463 31.7607 47.3105 32.8275 47.3105H55.0344C55.5674 47.3105 56 46.8779 56 46.3449V40.5518C56 40.0189 55.5674 39.5864 55.0344 39.5864Z" fill="#F77219"/>
<path d="M56.0001 44.414H34.7587C34.2257 44.414 33.7931 43.9815 33.7931 43.4485C33.7931 42.9155 34.2257 42.4829 34.7587 42.4829H56.0001V44.414Z" fill="#E8650E"/>
<path d="M7.72417 24.1379V20.2759H3.86203C1.72922 20.2759 0 22.0051 0 24.1379V43.4483C0 45.5811 1.72922 47.3103 3.86203 47.3103H7.72406V43.4483H3.86203V24.1379H7.72417Z" fill="#337AB5"/>
</g>
<defs>
<clipPath id="clip0">
<rect width="56" height="56" fill="white"/>
</clipPath>
</defs>
</svg>
