<svg width="56" height="56" viewBox="0 0 56 56" fill="none" xmlns="http://www.w3.org/2000/svg">
<g clip-path="url(#clip0)">
<path d="M21.875 9.625H25.375C25.6071 9.625 25.8296 9.53281 25.9937 9.36872C26.1578 9.20462 26.25 8.98206 26.25 8.75C26.25 8.51794 26.1578 8.29538 25.9937 8.13128C25.8296 7.96719 25.6071 7.875 25.375 7.875H21.875C21.643 7.875 21.4204 7.96719 21.2563 8.13128C21.0922 8.29538 21 8.51794 21 8.75C21 8.98206 21.0922 9.20462 21.2563 9.36872C21.4204 9.53281 21.643 9.625 21.875 9.625Z" fill="white"/>
<path d="M21.875 12.25H25.375C25.6071 12.25 25.8296 12.1578 25.9937 11.9937C26.1578 11.8296 26.25 11.6071 26.25 11.375C26.25 11.1429 26.1578 10.9204 25.9937 10.7563C25.8296 10.5922 25.6071 10.5 25.375 10.5H21.875C21.643 10.5 21.4204 10.5922 21.2563 10.7563C21.0922 10.9204 21 11.1429 21 11.375C21 11.6071 21.0922 11.8296 21.2563 11.9937C21.4204 12.1578 21.643 12.25 21.875 12.25Z" fill="white"/>
<path d="M21.875 14.875H25.375C25.6071 14.875 25.8296 14.7828 25.9937 14.6187C26.1578 14.4546 26.25 14.2321 26.25 14C26.25 13.7679 26.1578 13.5454 25.9937 13.3813C25.8296 13.2172 25.6071 13.125 25.375 13.125H21.875C21.643 13.125 21.4204 13.2172 21.2563 13.3813C21.0922 13.5454 21 13.7679 21 14C21 14.2321 21.0922 14.4546 21.2563 14.6187C21.4204 14.7828 21.643 14.875 21.875 14.875Z" fill="white"/>
<path d="M11.7785 52.5979C9.13676 50.0193 14.6475 37.4837 18.5 30.5L20.0338 23.5C21.6849 24.0372 23.8791 25.1998 25.2 25.1998C26.8511 25.1998 29.3489 23.5 31 23.5C32.3208 23.5 34.3489 23.9628 36 24.5L36.5446 28.4235L38.1957 31.6467C40.9475 38.0932 45.8403 47.2609 44.8 50.9863C43.4 55.9998 31.5914 55.8211 26.6382 55.8211C21.685 55.8211 15.0806 55.8211 11.7785 52.5979Z" fill="#D70010" stroke="#D70010"/>
<path d="M45.9935 45.2956L37.6252 26.8676V6.29435C38.3214 6.29435 38.9891 6.00887 39.4813 5.50071C39.9736 4.99255 40.2502 4.30333 40.2502 3.58468C40.2502 2.86603 39.9736 2.17681 39.4813 1.66865C38.9891 1.16048 38.3214 0.875 37.6252 0.875H18.3752C17.679 0.875 17.0113 1.16048 16.519 1.66865C16.0268 2.17681 15.7502 2.86603 15.7502 3.58468C15.7502 4.30333 16.0268 4.99255 16.519 5.50071C17.0113 6.00887 17.679 6.29435 18.3752 6.29435V26.8676L10.0069 45.2956C9.44433 46.5345 9.19377 47.8999 9.27845 49.2653C9.36312 50.6307 9.7803 51.952 10.4913 53.1067C11.2023 54.2613 12.1842 55.2121 13.3459 55.8708C14.5076 56.5296 15.8116 56.8749 17.1371 56.875H38.8633C40.1888 56.8749 41.4928 56.5296 42.6545 55.8708C43.8162 55.2121 44.7981 54.2613 45.5091 53.1067C46.2201 51.952 46.6373 50.6307 46.7219 49.2653C46.8066 47.8999 46.5561 46.5345 45.9935 45.2956ZM17.5002 3.58468C17.5005 3.34523 17.5928 3.11568 17.7568 2.94636C17.9209 2.77705 18.1432 2.68178 18.3752 2.68145H37.6252C37.8573 2.68145 38.0798 2.77661 38.2439 2.946C38.408 3.11539 38.5002 3.34513 38.5002 3.58468C38.5002 3.82423 38.408 4.05397 38.2439 4.22335C38.0798 4.39274 37.8573 4.4879 37.6252 4.4879H18.3752C18.1432 4.48757 17.9209 4.39231 17.7568 4.22299C17.5928 4.05368 17.5005 3.82413 17.5002 3.58468ZM35.8752 6.29435V22.9702C35.2661 22.9159 34.6652 22.7886 34.0847 22.5908C33.0625 22.2456 31.9914 22.08 30.9161 22.1008C29.8412 22.08 28.7705 22.2456 27.7486 22.5908C26.8895 22.8845 25.988 23.0243 25.0832 23.004C24.1783 23.0243 23.2768 22.8845 22.4177 22.5908C21.675 22.3397 20.9049 22.1853 20.1252 22.1313V6.29435H35.8752ZM44.0324 52.1376C43.4815 53.0377 42.7182 53.7788 41.8142 54.2915C40.9101 54.8041 39.8948 55.0715 38.8633 55.0685H17.1371C16.1062 55.0685 15.092 54.7998 14.1885 54.2874C13.2849 53.775 12.5213 53.0355 11.9683 52.1374C11.4154 51.2393 11.0909 50.2117 11.0251 49.1497C10.9593 48.0877 11.1542 47.0258 11.5918 46.0623L20.0421 27.4524C20.0967 27.3323 20.125 27.2012 20.1252 27.0685V23.9411C20.7343 23.9954 21.3351 24.1227 21.9157 24.3205C22.9375 24.6658 24.0082 24.8314 25.0832 24.8105C26.1581 24.8314 27.2289 24.6658 28.2507 24.3205C29.1098 24.0268 30.0113 23.887 30.9161 23.9073C31.821 23.887 32.7225 24.0268 33.5816 24.3205C34.3246 24.5716 35.0951 24.726 35.8752 24.78V27.0685C35.8754 27.2012 35.9037 27.3323 35.9583 27.4524L44.4086 46.0623C44.849 47.0251 45.0455 48.0875 44.9797 49.15C44.9139 50.2126 44.588 51.2405 44.0324 52.1376Z" fill="white"/>
</g>
<defs>
<clipPath id="clip0">
<rect width="56" height="56" fill="white"/>
</clipPath>
</defs>
</svg>
