<svg width="56" height="56" viewBox="0 0 56 56" fill="none" xmlns="http://www.w3.org/2000/svg">
<g clip-path="url(#clip0)">
<path d="M55.9064 0.786546C55.7104 0.310585 55.2446 0 54.7304 0C5.34859 0 0.00312805 20.4706 0.00312805 29.2727C0.00312805 40.6916 8.69845 48.3636 21.6395 48.3636C37.9838 48.3636 41.4075 32.8109 43.2453 24.4542C45.0322 15.9472 49.3492 8.18106 55.6289 2.17123C55.993 1.80731 56.1024 1.26251 55.9064 0.786546Z" fill="#4CAF50"/>
<path d="M1.27277 55.9999C0.570222 55.9999 0 55.4297 0 54.7272C0 47.1595 13.1218 22.8784 33.8087 12.8544C34.4425 12.549 35.2037 12.8111 35.5091 13.445C35.8146 14.0788 35.5524 14.8399 34.9186 15.1454C14.0281 25.2687 2.54554 48.7785 2.54554 54.7273C2.54554 55.4298 1.97531 55.9999 1.27277 55.9999Z" fill="#388E3C"/>
<path d="M21.6395 48.3636C8.69833 48.3636 0.00312805 40.6916 0.00312805 29.2727C0.00312805 20.4706 5.33582 0 54.7304 0C55.2496 0 55.718 0.318222 55.9115 0.799313C56.1049 1.28291 55.9854 1.83535 55.6112 2.19426C49.3035 8.21172 45.0297 15.9067 43.2504 24.4415C41.41 32.811 37.9889 48.3636 21.6395 48.3636ZM51.6733 2.57859C34.7639 2.9375 2.54854 6.60796 2.54854 29.2727C2.54854 39.1694 10.2206 45.8182 21.6395 45.8182C34.8376 45.8182 38.4293 34.5088 40.7609 23.9095C42.4308 15.8989 46.1828 8.58077 51.6733 2.57859Z" fill="#346C25"/>
<path d="M1.27277 56C0.570222 56 0 55.4298 0 54.7272C0 47.1596 13.1218 22.8784 33.8087 12.8545C34.4425 12.549 35.201 12.8112 35.5091 13.4425C35.8146 14.0763 35.5524 14.8375 34.9186 15.1429C14.0281 25.2687 2.54554 48.7786 2.54554 54.7273C2.54554 55.4299 1.97531 56 1.27277 56Z" fill="#346C25"/>
</g>
<defs>
<clipPath id="clip0">
<rect width="56" height="56" fill="white"/>
</clipPath>
</defs>
</svg>
