<svg width="68" height="68" viewBox="0 0 68 68" fill="none" xmlns="http://www.w3.org/2000/svg">
<g filter="url(#filter0_dd)">
<path fill-rule="evenodd" clip-rule="evenodd" d="M34 59C49.464 59 62 46.464 62 31C62 15.536 49.464 3 34 3C18.536 3 6 15.536 6 31C6 46.464 18.536 59 34 59Z" fill="#347CFF"/>
<path d="M61.75 31C61.75 46.3259 49.3259 58.75 34 58.75C18.6741 58.75 6.25 46.3259 6.25 31C6.25 15.6741 18.6741 3.25 34 3.25C49.3259 3.25 61.75 15.6741 61.75 31Z" stroke="url(#paint0_linear)" stroke-width="0.5"/>
<path d="M61.75 31C61.75 46.3259 49.3259 58.75 34 58.75C18.6741 58.75 6.25 46.3259 6.25 31C6.25 15.6741 18.6741 3.25 34 3.25C49.3259 3.25 61.75 15.6741 61.75 31Z" stroke="url(#paint1_linear)" stroke-width="0.5"/>
</g>
<path fill-rule="evenodd" clip-rule="evenodd" d="M34 41.35L32.55 40.03C27.4 35.36 24 32.28 24 28.5C24 25.42 26.42 23 29.5 23C31.24 23 32.91 23.81 34 25.09C35.09 23.81 36.76 23 38.5 23C41.58 23 44 25.42 44 28.5C44 32.28 40.6 35.36 35.45 40.04L34 41.35Z" fill="white"/>
<defs>
<filter id="filter0_dd" x="0" y="0" width="68" height="68" filterUnits="userSpaceOnUse" color-interpolation-filters="sRGB">
<feFlood flood-opacity="0" result="BackgroundImageFix"/>
<feColorMatrix in="SourceAlpha" type="matrix" values="0 0 0 0 0 0 0 0 0 0 0 0 0 0 0 0 0 0 127 0"/>
<feOffset dy="3"/>
<feGaussianBlur stdDeviation="3"/>
<feColorMatrix type="matrix" values="0 0 0 0 0 0 0 0 0 0 0 0 0 0 0 0 0 0 0.16 0"/>
<feBlend mode="normal" in2="BackgroundImageFix" result="effect1_dropShadow"/>
<feColorMatrix in="SourceAlpha" type="matrix" values="0 0 0 0 0 0 0 0 0 0 0 0 0 0 0 0 0 0 127 0"/>
<feOffset dy="3"/>
<feGaussianBlur stdDeviation="3"/>
<feColorMatrix type="matrix" values="0 0 0 0 0 0 0 0 0 0 0 0 0 0 0 0 0 0 0.23 0"/>
<feBlend mode="normal" in2="effect1_dropShadow" result="effect2_dropShadow"/>
<feBlend mode="normal" in="SourceGraphic" in2="effect2_dropShadow" result="shape"/>
</filter>
<linearGradient id="paint0_linear" x1="6.27399" y1="3" x2="6.27399" y2="58.452" gradientUnits="userSpaceOnUse">
<stop stop-opacity="0.01"/>
<stop offset="0.8" stop-opacity="0.02"/>
<stop offset="1" stop-opacity="0.04"/>
</linearGradient>
<linearGradient id="paint1_linear" x1="6" y1="3" x2="6" y2="59" gradientUnits="userSpaceOnUse">
<stop stop-color="white" stop-opacity="0.12"/>
<stop offset="0.2" stop-color="white" stop-opacity="0.06"/>
<stop offset="1" stop-color="white" stop-opacity="0.01"/>
</linearGradient>
</defs>
</svg>
