<svg width="64" height="64" viewBox="0 0 64 64" fill="none" xmlns="http://www.w3.org/2000/svg">
<path fill-rule="evenodd" clip-rule="evenodd" d="M53.3333 0C59.2244 0 64 4.77563 64 10.6667V53.3333C64 59.2244 59.2244 64 53.3333 64H10.6667C4.77563 64 0 59.2244 0 53.3333V10.6667C0 4.77563 4.77563 0 10.6667 0H53.3333ZM53.3333 4.62174H10.6666C7.50408 4.62174 4.90881 7.05056 4.64438 10.1446L4.6222 10.6662V53.3328C4.6222 56.4954 7.05102 59.0907 10.1451 59.3551L10.6666 59.3773H53.3333C56.4959 59.3773 59.0911 56.9485 59.3556 53.8544L59.3777 53.3328V10.6662C59.3777 7.50363 56.9489 4.90835 53.8548 4.64393L53.3333 4.62174ZM12.5783 15.9359C12.2469 15.9359 11.9783 16.2045 11.9783 16.5359V19.6026C11.9783 19.9339 12.2469 20.2026 12.5783 20.2026H50.4894C50.8208 20.2026 51.0894 19.9339 51.0894 19.6026V16.5359C51.0894 16.2045 50.8208 15.9359 50.4894 15.9359H12.5783ZM11.9783 30.7581C11.9783 30.4267 12.2469 30.1581 12.5783 30.1581H50.4894C50.8208 30.1581 51.0894 30.4267 51.0894 30.7581V33.8248C51.0894 34.1562 50.8208 34.4248 50.4894 34.4248H12.5783C12.2469 34.4248 11.9783 34.1562 11.9783 33.8248V30.7581ZM12.5783 44.3804C12.2469 44.3804 11.9783 44.649 11.9783 44.9804V48.0471C11.9783 48.3784 12.2469 48.6471 12.5783 48.6471H50.4894C50.8208 48.6471 51.0894 48.3784 51.0894 48.0471V44.9804C51.0894 44.649 50.8208 44.3804 50.4894 44.3804H12.5783Z" fill="white"/>
</svg>
