<svg width="56" height="56" viewBox="0 0 56 56" fill="none" xmlns="http://www.w3.org/2000/svg">
<g clip-path="url(#clip0)">
<path d="M1.35249 25.9464C1.27971 26.1666 1.23848 26.3902 1.22696 26.6163C1.23764 22.8439 1.24833 19.0719 1.25901 15.2996C1.27053 15.0735 1.31176 14.8497 1.38454 14.6297C2.43472 11.4614 9.60933 9.6447 21.0634 9.64453C33.0788 9.64453 42.1197 11.1646 47.9313 14.1659C48.2396 14.325 48.5349 14.4864 48.8164 14.649C49.528 15.0598 50.1555 15.4798 50.7086 15.9027C50.6979 19.675 50.6872 23.447 50.6765 27.2194C50.1233 26.7967 49.496 26.3766 48.7843 25.9657C48.5029 25.8031 48.2076 25.6419 47.8992 25.4826C42.0876 22.4813 33.0469 20.9612 21.0314 20.9612C9.57728 20.9612 2.40267 22.778 1.35249 25.9464Z" fill="#E56353"/>
<path d="M28.8691 22.5366C28.8548 22.5787 28.8481 22.6206 28.8481 22.6623L28.8802 11.3456C28.8803 11.304 28.887 11.2621 28.9012 11.2199C29.0214 10.8692 29.6616 10.5787 30.275 10.6208L30.243 21.9375C29.6295 21.8954 28.9893 22.1859 28.8691 22.5366Z" fill="#D5D6DB"/>
<path d="M13.4175 22.317C11.8181 22.3632 10.2309 22.5625 8.74287 22.9059C8.75406 19.1336 8.76474 15.3615 8.77543 11.5892C10.2635 11.246 11.8505 11.0467 13.4497 11.0004C14.3356 10.9749 15.2222 11.0517 16.1029 11.0199C16.6328 10.9997 17.2802 10.9806 17.6661 11.2034C17.7703 11.2635 17.8554 11.3413 17.9138 11.4415C17.9559 11.5146 17.9751 11.5899 17.9749 11.6653L17.9429 22.982C17.9431 22.9066 17.9239 22.8313 17.8818 22.7582C17.8232 22.658 17.7382 22.5802 17.6341 22.5201C17.2481 22.2973 16.6007 22.3166 16.0709 22.3367C15.19 22.3682 14.3036 22.2914 13.4175 22.317Z" fill="#D5D6DB"/>
<path d="M27.3167 22.2223C26.7302 21.8837 25.8527 21.7036 25.0322 21.7889L25.0642 10.4722C25.8847 10.3869 26.7623 10.5669 27.3487 10.9056C27.631 11.0685 27.8459 11.2683 27.9544 11.4927C28.015 11.6172 28.043 11.7439 28.0427 11.8701L28.0106 23.1868C28.011 23.0606 27.9829 22.9339 27.9223 22.8094C27.8138 22.5848 27.599 22.3852 27.3167 22.2223Z" fill="#D5D6DB"/>
<path d="M22.7801 23.2909C22.7764 23.3248 22.7744 23.3589 22.7744 23.3929L22.8065 12.0762C22.8066 12.0422 22.8085 12.0083 22.8121 11.9742C22.8913 11.2608 23.8489 10.5985 25.0644 10.4722L25.0323 21.7889C23.8171 21.9152 22.8592 22.5776 22.7801 23.2909Z" fill="#D5D6DB"/>
<path d="M29.7925 12.7808L29.7605 24.0975C29.7611 23.8727 29.57 23.6381 29.3655 23.4353C29.1231 23.1939 28.8475 22.9334 28.8481 22.6624L28.8802 11.3457C28.8793 11.6166 29.1551 11.8772 29.3975 12.1186C29.6022 12.3214 29.7932 12.556 29.7925 12.7808Z" fill="#E56353"/>
<path d="M29.7602 24.097C29.76 24.1438 29.7517 24.19 29.7335 24.2354C29.7442 20.463 29.7548 16.691 29.7655 12.9187C29.7837 12.8733 29.7921 12.827 29.7922 12.7803C29.7827 16.1754 29.7697 20.7021 29.7602 24.097Z" fill="#D5D6DB"/>
<path d="M28.9608 24.9301C28.9418 24.9682 28.9329 25.0062 28.9327 25.0438L28.9648 13.7271C28.965 13.6895 28.9738 13.6514 28.9928 13.6134C29.1085 13.383 29.5235 13.2476 29.699 13.0309C29.7287 12.9944 29.7505 12.9572 29.7657 12.9194C29.7551 16.6918 29.7444 20.4638 29.7337 24.2362C29.7185 24.2739 29.6966 24.3113 29.6669 24.3477C29.4915 24.5643 29.0765 24.6999 28.9608 24.9301Z" fill="#D5D6DB"/>
<path d="M28.0426 11.8696L28.0105 23.1863C28.007 24.4061 25.3423 25.5915 23.6354 24.6059C23.573 24.5699 23.5115 24.5308 23.4518 24.4887C23.0146 24.1839 22.773 23.7883 22.774 23.3927L22.8061 12.076C22.8049 12.4716 23.0466 12.8671 23.4838 13.1719C23.5436 13.2139 23.6048 13.253 23.6673 13.2891C25.3743 14.2748 28.0391 13.0894 28.0426 11.8696Z" fill="#E56353"/>
<path d="M27.3489 10.9057C27.6312 11.0686 27.846 11.2684 27.9546 11.4928C28.6009 12.8214 25.5511 14.377 23.6679 13.2896C23.6054 13.2536 23.544 13.2145 23.4844 13.1724C23.0097 12.8412 22.7654 12.4034 22.8125 11.9744C22.8916 11.2609 23.8493 10.5987 25.0648 10.4721C25.8851 10.387 26.7625 10.5671 27.3489 10.9057Z" fill="#E56353"/>
<path d="M45.2263 25.5262C44.1442 24.9015 38.4511 22.4972 30.243 21.9378L30.2751 10.6211C38.4832 11.1805 44.1765 13.5848 45.2584 14.2095C45.3523 14.2637 45.4116 14.3046 45.4348 14.3297C45.4795 14.3781 45.5002 14.4252 45.5001 14.4709L45.468 25.7876C45.4682 25.7419 45.4473 25.6948 45.4028 25.6464C45.3797 25.6215 45.3205 25.5806 45.2263 25.5262Z" fill="#D5D6DB"/>
<path d="M21.8811 24.9539C21.8904 21.6231 21.8999 18.2926 21.9093 14.9616C21.9093 14.9611 21.9093 14.9605 21.9094 14.96C21.8999 18.2914 21.8904 21.6224 21.8811 24.9539Z" fill="#D5D6DB"/>
<path d="M2.92704 25.9458C2.62105 26.385 2.46464 26.8642 2.4633 27.3417L2.49535 16.0249C2.49669 15.5475 2.65311 15.0683 2.95909 14.6291C3.85619 13.3347 5.83335 12.373 8.01282 11.7798C8.26372 11.7119 8.51813 11.6483 8.77537 11.5889C8.76469 15.3612 8.754 19.1332 8.74282 22.9056C8.48574 22.9648 8.2315 23.0285 7.98077 23.0964C5.80129 23.6895 3.82414 24.6514 2.92704 25.9458Z" fill="#D5D6DB"/>
<path d="M17.9748 11.665L17.9428 22.9818C17.9421 23.2312 17.7291 23.4831 17.4269 23.6655C17.0333 23.9064 16.5015 24.0523 15.9878 24.1939C15.391 24.3595 14.7917 24.5236 14.1925 24.6875C13.4037 24.9042 12.6149 25.121 11.8237 25.3392C10.2567 25.7697 8.66614 26.2077 7.37859 26.8805C6.13093 27.5324 5.18742 28.4441 5.18459 29.416L5.21664 18.0993C5.21947 17.1274 6.16298 16.2156 7.41064 15.5638C8.69819 14.891 10.2887 14.453 11.8557 14.0225C12.647 13.8043 13.4357 13.5874 14.2245 13.3708C14.8238 13.2067 15.4231 13.0426 16.0199 12.8771C16.5335 12.7356 17.0655 12.5897 17.459 12.3488C17.7611 12.1662 17.9742 11.9144 17.9748 11.665Z" fill="#E56353"/>
<path d="M14.0939 25.7012C12.471 26.3544 10.8454 27.0061 9.21977 27.6578C9.23046 23.8854 9.24114 20.1134 9.25182 16.3411C10.8774 15.6894 12.503 15.0377 14.1259 14.3844C14.1261 14.3844 14.1261 14.3843 14.1263 14.3843C14.1156 18.1566 14.1049 21.9286 14.0942 25.701C14.094 25.701 14.0939 25.7012 14.0939 25.7012Z" fill="#D5D6DB"/>
<path d="M9.2197 27.6575C8.47801 27.956 7.66788 28.3091 7.66638 28.8733L7.69843 17.5566C7.7001 16.9924 8.51006 16.6395 9.25191 16.3408C9.24106 20.1133 9.23021 23.8852 9.2197 27.6575Z" fill="#D5D6DB"/>
<path d="M5.18679 29.5092C5.18495 29.4778 5.18395 29.4466 5.18412 29.4154L5.21617 18.0986C5.216 18.1298 5.217 18.1611 5.21884 18.1925C5.20832 21.9648 5.19747 25.7368 5.18679 29.5092Z" fill="#D5D6DB"/>
<path d="M5.19112 29.6001C5.19129 29.5692 5.18929 29.5385 5.18695 29.5091C5.19764 25.7368 5.20832 21.9647 5.21901 18.1924C5.22134 18.2218 5.22318 18.2525 5.22318 18.2834C5.21366 21.6784 5.20081 26.205 5.19112 29.6001Z" fill="#D5D6DB"/>
<path d="M5.22313 18.284L5.19108 29.6007C5.19075 29.7219 5.15903 29.8464 4.99177 29.91C4.76624 29.9958 4.46426 29.8995 4.25576 29.7972C4.16945 29.7541 4.08666 29.7095 4.0067 29.6635C2.9652 29.0622 2.4609 28.2051 2.4634 27.3416L2.49545 16.0249C2.49295 16.8884 2.99725 17.7455 4.03875 18.3468C4.11871 18.393 4.20167 18.4374 4.28781 18.4805C4.49631 18.5828 4.79829 18.6791 5.02382 18.5933C5.19108 18.5299 5.2228 18.4052 5.22313 18.284Z" fill="#E56353"/>
<path d="M18.9507 24.8511C16.9821 24.5516 15.5044 25.1355 14.094 25.7014C14.1047 21.9291 14.1154 18.1571 14.1261 14.3847C15.5363 13.8188 17.0142 13.2349 18.9828 13.5344C18.9723 17.3059 18.9616 21.0769 18.9509 24.8484C18.9593 21.9249 18.9676 19.0017 18.9758 16.0782C18.9781 15.2302 18.983 14.3824 18.983 13.5344C19.7629 13.6535 20.4703 13.8842 21.0252 14.2046H21.0254C21.0214 14.6456 21.0229 15.0868 21.0215 15.5279C21.0124 18.8582 21.0027 22.1882 20.9933 25.5185C21.004 21.747 21.0147 17.9759 21.0254 14.2046C21.3958 14.4184 21.6983 14.6723 21.9088 14.9596C21.9088 14.9596 21.9088 14.9596 21.909 14.9598V14.9608V14.9611C21.9068 15.7499 21.9044 16.5385 21.9023 17.3272C21.8999 18.1768 21.8974 19.0263 21.8951 19.8758C21.8891 22.0091 21.8831 24.1423 21.8771 26.2755C21.8878 22.5035 21.8984 18.7318 21.9091 14.9598C22.1794 15.3277 22.2896 15.7122 22.2886 16.1031L22.2565 27.4199C22.2577 27.0289 22.1473 26.6445 21.8771 26.2764C21.6664 25.9891 21.3639 25.7352 20.9935 25.5213C20.4383 25.2008 19.7307 24.9701 18.9507 24.8511Z" fill="#D5D6DB"/>
<path d="M22.2885 16.1035L22.2565 27.4202C22.2561 27.5442 22.2446 27.6689 22.2234 27.7941C22.1808 28.0495 22.1595 28.3056 22.1588 28.5615L22.1908 17.2448C22.1915 16.9889 22.2129 16.7327 22.2555 16.4774C22.2767 16.3524 22.2882 16.2275 22.2885 16.1035Z" fill="#E56353"/>
<path d="M22.5978 30.6295C22.3072 29.9528 22.1566 29.2575 22.1586 28.5614L22.1907 17.2446C22.1887 17.9407 22.3392 18.636 22.6299 19.3128V19.3129C22.6193 23.0853 22.6085 26.8573 22.5978 30.6295C22.5978 30.6297 22.5978 30.6297 22.5978 30.6295Z" fill="#D5D6DB"/>
<path d="M22.8122 31.336C22.7718 31.0968 22.6979 30.8619 22.5977 30.6302C22.6084 26.8578 22.6191 23.0858 22.6298 19.3135C22.7298 19.5452 22.8039 19.7801 22.8443 20.0193C22.8621 20.1296 22.8711 20.2413 22.8708 20.353L22.8388 31.6697C22.8391 31.558 22.8301 31.4465 22.8122 31.336Z" fill="#D5D6DB"/>
<path d="M22.8711 20.3527L22.839 31.6695C22.8372 32.3319 22.506 33.0016 21.7304 33.4807C20.433 34.28 18.1988 34.3431 16.4398 33.9278C14.8227 33.5467 13.5123 32.8415 12.2688 32.1236C12.1616 32.0618 12.0551 31.9999 11.9488 31.9379C10.8304 31.2922 9.71458 30.645 8.5988 29.9978C8.29648 29.8232 8.0354 29.6216 7.8678 29.3927C7.72691 29.2017 7.66581 29.0301 7.66631 28.8744L7.69836 17.5576C7.69786 17.7132 7.75896 17.8848 7.89985 18.0758C8.06745 18.3045 8.32836 18.5063 8.63085 18.6809C9.74663 19.3281 10.8624 19.9753 11.9809 20.621C12.087 20.6828 12.1937 20.7447 12.3009 20.8066C13.5444 21.5246 14.8549 22.2297 16.4719 22.6109C18.2308 23.0262 20.4651 22.9631 21.7625 22.1638C22.538 21.6849 22.8691 21.0151 22.8711 20.3527Z" fill="#E56353"/>
<path d="M1.22328 26.7401L1.25533 15.4233C1.25099 16.9703 2.619 18.6109 4.84172 19.8943C6.13611 20.6417 7.72048 21.2678 9.68745 21.7423L9.6554 33.059C7.68842 32.5846 6.10406 31.9583 4.80967 31.2111C2.58695 29.9277 1.21894 28.2872 1.22328 26.7401Z" fill="#D5D6DB"/>
<path d="M1.22696 26.6156C1.22479 26.657 1.22378 26.6984 1.22362 26.7399L1.25567 15.4232C1.25584 15.3816 1.25684 15.3402 1.25901 15.2988C1.24832 19.0714 1.23764 22.8432 1.22696 26.6156Z" fill="#E56353"/>
<path d="M45.5002 14.4702L45.4681 25.787C45.4665 26.3908 41.7983 26.7567 41.0933 26.8154C39.8622 26.9178 38.5706 26.8742 37.4462 26.564C36.8033 26.3879 36.2354 26.129 35.6081 25.9319C34.3846 25.5466 32.9365 25.4065 31.5653 25.5391C31.0069 25.5918 30.441 25.6911 29.8846 25.6249C29.6442 25.5955 29.4088 25.5199 29.2324 25.418C29.0514 25.3135 28.9322 25.1815 28.9327 25.0433L28.9648 13.7266C28.9644 13.8648 29.0836 13.9968 29.2644 14.1013C29.4409 14.2032 29.6761 14.2788 29.9166 14.3082C30.473 14.3744 31.0389 14.2751 31.5973 14.2224C32.9685 14.09 34.4167 14.2299 35.6401 14.6151C36.2674 14.8123 36.8354 15.0712 37.4782 15.2473C38.6025 15.5573 39.8942 15.6011 41.1254 15.4987C41.8303 15.44 45.4984 15.074 45.5002 14.4702Z" fill="#E56353"/>
<path d="M45.2586 14.2092C45.3525 14.2634 45.4118 14.3043 45.435 14.3294C46.0703 15.0171 41.8838 15.4356 41.1255 15.4989C39.8943 15.6012 38.6028 15.5576 37.4783 15.2475C36.8354 15.0714 36.2675 14.8125 35.6402 14.6153C34.4168 14.23 32.9686 14.09 31.5974 14.2225C31.039 14.2753 30.4731 14.3746 29.9167 14.3083C29.6764 14.2789 29.441 14.2033 29.2645 14.1015C29.0345 13.9686 28.9041 13.791 28.9929 13.613C29.1086 13.3827 29.5236 13.2473 29.6991 13.0306C29.9364 12.7386 29.6799 12.3984 29.3978 12.1185C29.1181 11.84 28.7941 11.5361 28.9016 11.2199C29.0218 10.8692 29.662 10.5787 30.2755 10.6208C38.4832 11.1802 44.1765 13.5845 45.2586 14.2092Z" fill="#E56353"/>
<path d="M25.4239 28.5491C25.1842 28.9261 25.0708 29.322 25.0698 29.7193L25.1019 18.4026C25.1031 18.0055 25.2162 17.6095 25.456 17.2324C25.4464 20.6275 26.3772 25.2906 25.4239 28.5491Z" fill="#D5D6DB"/>
<path d="M53.424 30.0801C52.8184 29.1662 51.9417 28.1856 50.6763 27.2186C50.687 23.4462 50.6977 19.6742 50.7084 15.9019C51.9739 16.8689 52.8504 17.8495 53.4561 18.7634C53.4456 22.5358 53.4347 26.3078 53.424 30.0801Z" fill="#E56353"/>
<path d="M33.7032 26.3563C30.5345 25.6701 26.588 26.7161 25.4238 28.5493L25.4559 17.2326C26.6201 15.3994 30.5665 14.3532 33.7352 15.0396C35.3378 15.3858 36.6958 16.1008 38.3728 16.295C40.9366 16.5899 43.6335 15.5995 46.1228 16.0646C46.836 16.197 47.4663 16.442 47.9995 16.7498C48.3881 16.9742 48.7252 17.232 49.0049 17.5036C49.4219 17.9077 49.7303 18.3432 49.996 18.7886C49.9853 22.561 49.9746 26.333 49.964 30.1053C49.6982 29.6599 49.3901 29.2246 48.9729 28.8203C48.6931 28.5487 48.3562 28.2909 47.9674 28.0666C47.4343 27.7587 46.8039 27.5137 46.0908 27.3813C43.6015 26.9162 40.9047 27.9066 38.3408 27.6117C36.6637 27.4174 35.3059 26.7024 33.7032 26.3563Z" fill="#D5D6DB"/>
<path d="M17.6657 11.2034C17.7698 11.2635 17.855 11.3413 17.9134 11.4415C18.0945 11.756 17.8521 12.1112 17.4585 12.3491C17.0649 12.59 16.533 12.7359 16.0194 12.8774C15.4226 13.043 14.8233 13.2071 14.224 13.371C13.4353 13.5877 12.6465 13.8046 11.8552 14.0228C10.2882 14.4533 8.69771 14.8913 7.41015 15.5641C6.12243 16.2368 5.15856 17.1866 5.21882 18.1936C5.23001 18.3382 5.23368 18.5141 5.02351 18.5939C4.79799 18.6797 4.49601 18.5834 4.28751 18.4811C4.2012 18.438 4.1184 18.3934 4.03844 18.3473C2.4212 17.4137 2.09918 15.8629 2.95889 14.6294C3.85598 13.335 5.83314 12.3733 8.01262 11.7802C9.71466 11.3196 11.5736 11.0547 13.4495 11.0004C14.3354 10.9749 15.2219 11.0515 16.1025 11.02C16.6324 10.9999 17.2797 10.9807 17.6657 11.2034Z" fill="#E56353"/>
<path d="M49.9637 30.1061C49.9116 29.9163 49.965 29.6467 49.9655 29.4499C49.9675 28.7324 49.9695 28.0149 49.9717 27.2975C49.9744 26.3615 49.977 25.4255 49.9797 24.4895C49.9851 22.5894 49.9906 20.6896 49.9959 18.7896C50.1547 19.0556 50.2982 19.3252 50.4406 19.5937C50.4827 19.6723 50.5248 19.7511 50.5664 19.8304C50.5557 23.6027 50.545 27.3747 50.5343 31.1471C50.4927 31.068 50.4507 30.989 50.4086 30.9104C50.266 30.6416 50.1225 30.372 49.9637 30.1061Z" fill="#D5D6DB"/>
<path d="M50.5339 31.1468C50.5178 31.0805 50.5344 30.9877 50.5346 30.9196C50.5363 30.3355 50.538 29.7514 50.5396 29.1671C50.5415 28.5073 50.5433 27.8474 50.5453 27.1875C50.5521 24.7349 50.5592 22.2827 50.5662 19.8301C50.8576 20.3848 51.1262 20.9532 51.2052 21.5238C51.1945 25.2961 51.1838 29.0681 51.1731 32.8405C51.094 32.2699 50.8254 31.7015 50.5339 31.1468Z" fill="#D5D6DB"/>
<path d="M51.1731 32.84C51.1677 32.7612 51.1736 32.6555 51.1737 32.5765C51.1741 32.4355 51.1746 32.2944 51.1749 32.1535C51.1751 32.0657 51.1754 31.9485 51.1757 31.8606C51.1759 31.8162 51.1761 31.7571 51.1762 31.7128C51.1772 31.3374 51.1784 30.9618 51.1794 30.5864C51.1879 27.5652 51.1966 24.5446 51.2051 21.5234C51.2206 21.6351 51.2288 21.7468 51.2285 21.8586L51.1964 33.1753C51.1967 33.0633 51.1886 32.9516 51.1731 32.84Z" fill="#D5D6DB"/>
<path d="M54.4618 32.2447C54.267 31.607 53.9463 30.8684 53.4242 30.0804C53.4348 26.3081 53.4455 22.536 53.4562 18.7637C53.9784 19.5516 54.2991 20.2903 54.4939 20.928C54.5909 21.245 54.6677 21.6081 54.7181 22.007C54.7074 25.7794 54.6967 29.5514 54.686 33.3238C54.6356 32.9248 54.5588 32.5617 54.4618 32.2447Z" fill="#E56353"/>
<path d="M21.0257 14.2046C21.3961 14.4185 21.6986 14.6724 21.9093 14.9597C22.2654 15.4443 22.3436 15.9576 22.2557 16.4769C22.0974 17.4266 22.2326 18.387 22.6303 19.3126C22.7303 19.5445 22.8044 19.7792 22.8448 20.0186C22.9686 20.7831 22.6692 21.6035 21.7629 22.1633C20.4655 22.9626 18.2313 23.0257 16.4723 22.6104C14.8552 22.2293 13.5448 21.5242 12.3013 20.8062C12.1941 20.7444 12.0876 20.6825 11.9813 20.6206C10.8628 19.9749 9.74705 19.3277 8.63127 18.6805C8.32896 18.5058 8.06787 18.3042 7.90027 18.0753C7.24823 17.1917 8.30575 16.7222 9.2521 16.3414C10.8777 15.6897 12.5033 15.038 14.1262 14.3848C15.5366 13.8189 17.0145 13.2348 18.9833 13.5344C19.7632 13.6536 20.4707 13.8843 21.0257 14.2046Z" fill="#E56353"/>
<path d="M54.686 33.3235C54.6793 33.2142 54.6867 33.105 54.687 32.9957C54.6874 32.8867 54.6877 32.7775 54.688 32.6685C54.698 29.1145 54.7082 25.5608 54.7182 22.0068C54.763 22.3612 54.787 22.7438 54.7859 23.1477L54.7538 34.4644C54.7548 34.0605 54.7308 33.6779 54.686 33.3235Z" fill="#E56353"/>
<path d="M16.5736 25.9285L16.5415 37.2452C15.3755 36.159 14.129 35.3195 13.0069 34.6714C11.2241 33.6421 9.75439 33.0964 9.6554 33.0594L9.68745 21.7427C9.78661 21.7797 11.2563 22.3254 13.039 23.3547C14.1611 24.0028 15.4076 24.8424 16.5736 25.9285Z" fill="#D5D6DB"/>
<path d="M51.2284 21.8585L51.1964 33.1753C51.1959 33.3429 51.1763 33.5105 51.1333 33.6777C50.9782 34.2814 50.4308 34.8953 49.5728 35.2581C48.576 35.6819 48.1145 35.605 47.5185 35.2609C47.3736 35.1773 47.2209 35.078 47.0506 34.9661C46.9119 34.8748 46.7682 34.7862 46.6196 34.7004C45.0292 33.7822 42.8891 33.1886 40.6452 33.0923C36.822 32.9282 32.8633 34.1143 29.2576 33.3467C28.4409 33.1728 27.7131 32.8918 27.1026 32.5394C25.8296 31.8044 25.0667 30.7582 25.0696 29.7201L25.1016 18.4033C25.0986 19.4415 25.8617 20.4877 27.1347 21.2227C27.745 21.5751 28.4728 21.856 29.2896 22.0299C32.8954 22.7975 36.854 21.6114 40.6773 21.7755C42.9212 21.8719 45.0613 22.4655 46.6516 23.3836C46.8002 23.4694 46.9441 23.5581 47.0827 23.6494C47.2531 23.7612 47.4058 23.8605 47.5506 23.9442C48.1463 24.2882 48.6079 24.3652 49.6048 23.9413C50.4629 23.5786 51.0102 22.9644 51.1653 22.361C51.2084 22.1937 51.2279 22.0261 51.2284 21.8585Z" fill="#E56353"/>
<path d="M47.9996 16.7497C48.3882 16.974 48.7252 17.2318 49.005 17.5034C49.6712 18.1491 50.0599 18.8746 50.4408 19.5926C50.9214 20.4912 51.4048 21.4303 51.1658 22.3605C51.0107 22.9641 50.4633 23.5781 49.6053 23.9408C48.6085 24.3647 48.147 24.2877 47.551 23.9437C47.4061 23.8601 47.2534 23.7607 47.0831 23.6489C46.9445 23.5576 46.8006 23.4689 46.6521 23.3831C45.0617 22.465 42.9216 21.8714 40.6777 21.775C36.8545 21.611 32.8958 22.797 29.2901 22.0295C28.4734 21.8555 27.7456 21.5746 27.1351 21.2222C25.3751 20.206 24.5899 18.595 25.4561 17.2326C26.6203 15.3994 30.5668 14.3532 33.7355 15.0396C35.338 15.3858 36.696 16.1006 38.373 16.295C40.9368 16.5899 43.6336 15.5995 46.1231 16.0646C46.836 16.1966 47.4664 16.4419 47.9996 16.7497Z" fill="#E56353"/>
<path d="M48.979 37.162C48.9651 37.149 48.9509 37.1359 48.9366 37.1229C48.9473 33.3506 48.9579 29.5785 48.9686 25.8062C48.9831 25.819 48.9973 25.832 49.011 25.845C49.0005 29.6176 48.9896 33.3896 48.979 37.162Z" fill="#D5D6DB"/>
<path d="M24.856 33.8685C22.1694 33.9136 20.1673 35.5392 20.1942 37.094L20.2263 25.7773C20.1994 24.2224 22.2014 22.5968 24.888 22.5518C27.9514 22.502 30.1522 24.3338 33.1298 24.7628C35.1687 25.0548 37.0602 24.5747 38.5291 23.7844C39.6223 23.1973 40.5989 22.6479 42.1841 23.1492L42.152 34.4659C40.5668 33.9648 39.5903 34.5142 38.497 35.1011C37.0282 35.8912 35.1365 36.3715 33.0978 36.0795C30.1202 35.6505 27.9193 33.8187 24.856 33.8685Z" fill="#D5D6DB"/>
<path d="M48.9789 37.1609C48.9895 33.3886 49.0002 29.6166 49.0109 25.8442C49.1493 25.9751 49.254 26.115 49.3295 26.2614C49.3188 30.0337 49.3081 33.8057 49.2974 37.5781C49.2221 37.4317 49.1173 37.2918 48.9789 37.1609Z" fill="#D5D6DB"/>
<path d="M49.3164 37.6172C49.3104 37.6043 49.3041 37.5916 49.2976 37.579C49.3083 33.8066 49.3189 30.0346 49.3296 26.2622C49.3361 26.2749 49.3425 26.2876 49.3485 26.3004C49.3378 30.073 49.327 33.8448 49.3164 37.6172Z" fill="#D5D6DB"/>
<path d="M46.1273 36.6432C44.9462 36.8502 44.2034 37.3746 43.7553 37.9924C43.766 34.22 43.7767 30.448 43.7874 26.6757C44.2354 26.0578 44.9783 25.5335 46.1593 25.3265C47.0656 25.1669 48.0291 25.2232 48.6808 25.5994C48.7852 25.6597 48.8815 25.728 48.9683 25.8051C48.9684 25.8053 48.9684 25.8053 48.9686 25.8054C48.9579 29.5778 48.9472 33.3498 48.9366 37.1222C48.9364 37.122 48.9364 37.122 48.9362 37.1218C48.8494 37.0449 48.7531 36.9764 48.6488 36.9162C47.9971 36.5401 47.0335 36.4836 46.1273 36.6432Z" fill="#D5D6DB"/>
<path d="M43.7352 38.0211C43.7459 34.2487 43.7566 30.4767 43.7672 26.7043C43.7739 26.695 43.7806 26.6856 43.7873 26.6763C43.7766 30.4486 43.7659 34.2207 43.7552 37.993C43.7484 38.0024 43.7417 38.0117 43.7352 38.0211Z" fill="#D5D6DB"/>
<path d="M49.3163 37.6165C49.3095 37.586 49.3165 37.5436 49.3166 37.5124C49.3168 37.4793 49.3168 37.4351 49.317 37.402C49.3172 37.3251 49.3175 37.2481 49.3177 37.1711C49.3182 37.0229 49.3185 36.8747 49.319 36.7263C49.3288 33.2507 49.3387 29.7755 49.3485 26.2998C49.4198 26.4494 49.4614 26.6056 49.4772 26.7659C49.4666 30.5382 49.4559 34.3102 49.4452 38.0826C49.429 37.9223 49.3876 37.7661 49.3163 37.6165Z" fill="#D5D6DB"/>
<path d="M49.4515 38.1805C49.4504 38.1478 49.4482 38.1153 49.445 38.0829C49.4557 34.3105 49.4664 30.5385 49.4771 26.7661C49.4802 26.7985 49.4824 26.8311 49.4836 26.8638C49.4729 30.6361 49.462 34.4082 49.4515 38.1805Z" fill="#D5D6DB"/>
<path d="M49.4516 38.1807C49.446 37.829 49.4536 37.4774 49.4546 37.1257C49.4556 36.7739 49.4566 36.4224 49.4576 36.0706C49.4663 33.0016 49.475 29.9328 49.4837 26.8638C49.4843 26.8843 49.4847 26.905 49.4847 26.9255L49.4526 38.2423C49.4526 38.2217 49.4523 38.2012 49.4516 38.1807Z" fill="#D5D6DB"/>
<path d="M43.7354 38.0207C43.6023 38.2086 43.4961 38.4049 43.4127 38.6034C43.4234 34.8311 43.4342 31.0589 43.4449 27.2865C43.5282 27.0882 43.6344 26.8921 43.7674 26.7041C43.7576 30.1918 43.7476 33.6791 43.7377 37.1666C43.7374 37.3089 43.7369 37.4511 43.7366 37.5933C43.7366 37.6102 43.7364 37.6325 43.7364 37.6492C43.7364 37.6659 43.7362 37.6883 43.7362 37.705C43.7361 37.7938 43.7357 37.8826 43.7354 37.9716C43.7354 37.9863 43.7397 38.0066 43.7354 38.0207Z" fill="#D5D6DB"/>
<path d="M43.2365 39.1579C43.1697 39.4586 43.1362 39.7616 43.1353 40.0647L43.1674 28.7479C43.1682 28.4448 43.2018 28.1416 43.2686 27.8412C43.3096 27.658 43.3674 27.4717 43.445 27.2871C43.4343 31.0595 43.4237 34.8317 43.4128 38.604C43.3353 38.7887 43.2776 38.975 43.2365 39.1579Z" fill="#D5D6DB"/>
<path d="M39.2814 40.9969L39.3135 29.6802C39.3163 28.6844 39.8266 27.6905 40.3334 26.7286C40.9531 25.5501 41.7543 24.3535 42.1842 23.1494L42.1521 34.4661C41.7224 35.6702 40.921 36.8668 40.3014 38.0453C39.7946 39.0072 39.2842 40.0013 39.2814 40.9969Z" fill="#E56353"/>
<path d="M39.3603 41.6606C39.3053 41.4396 39.2807 41.2183 39.2814 40.9969L39.3135 29.6802C39.3128 29.9014 39.3373 30.1227 39.3924 30.3439V30.3441C39.3817 34.1164 39.371 37.8884 39.3603 41.6608C39.3603 41.6608 39.3603 41.6608 39.3603 41.6606Z" fill="#D5D6DB"/>
<path d="M39.8809 43.5582C39.8827 42.9502 39.5141 42.2786 39.3604 41.6605C39.3711 37.8881 39.3818 34.1161 39.3924 30.3438C39.546 30.9619 39.9146 31.6335 39.9129 32.2414C39.9034 35.6365 39.8906 40.1631 39.8809 43.5582Z" fill="#D5D6DB"/>
<path d="M39.913 32.2418L39.881 43.5585C39.88 43.9291 39.7412 44.2762 39.3326 44.5732C38.3881 45.2609 36.574 45.2098 35.0943 45.0097C30.953 44.4495 27.0931 43.2061 24.0817 41.4675C23.9297 41.3797 23.7794 41.2904 23.6317 41.2001C21.7779 40.0698 20.2186 38.6504 20.1942 37.0941L20.2263 25.7773C20.2506 27.3337 21.81 28.7529 23.6637 29.8834C23.8115 29.9737 23.9617 30.063 24.1138 30.1508C27.1249 31.8893 30.9849 33.1327 35.1264 33.693C36.6061 33.8931 38.4201 33.9444 39.3646 33.2564C39.7735 32.9595 39.912 32.6124 39.913 32.2418Z" fill="#E56353"/>
<path d="M49.4847 26.9258L49.4526 38.2425C49.4498 39.2483 48.524 40.3808 47.6878 41.0645C47.0534 41.5819 45.0452 43.116 44.0164 42.522C43.8538 42.4282 43.7156 42.2812 43.6113 42.0685C43.2938 41.4171 43.1333 40.7405 43.1352 40.0646L43.1672 28.7479C43.1652 29.4238 43.3258 30.1002 43.6433 30.7517C43.7476 30.9644 43.8859 31.1113 44.0485 31.2053C45.0773 31.7992 47.0857 30.2651 47.7198 29.7478C48.5559 29.064 49.4818 27.9316 49.4847 26.9258Z" fill="#E56353"/>
<path d="M50.5576 31.641L50.5255 42.9577C48.0289 44.8888 44.5064 46.0118 40.0568 46.2932C39.3919 46.3353 38.7215 46.3565 38.0641 46.355C31.7489 46.355 26.6628 44.3965 23.024 42.2957C18.8531 39.8877 16.5835 37.2927 16.5416 37.2444L16.5737 25.9277C16.6156 25.976 18.8852 28.571 23.056 30.979C26.6948 33.0798 31.7809 35.0383 38.0962 35.0383C38.7536 35.0398 39.424 35.0187 40.0889 34.9765C44.5385 34.6951 48.0609 33.5723 50.5576 31.641Z" fill="#D5D6DB"/>
<path d="M54.7856 23.1475L54.7535 34.4642C54.7462 37.0444 53.7132 40.4914 50.5256 42.958L50.5577 31.6413C53.7452 29.1747 54.7782 25.7277 54.7856 23.1475Z" fill="#D5D6DB"/>
<path d="M48.681 25.601C48.7853 25.6612 48.8816 25.7295 48.9684 25.8066C50.2454 26.9429 48.8943 28.7882 47.7199 29.7486C47.0856 30.2659 45.0774 31.8 44.0486 31.206C43.886 31.1122 43.7478 30.9652 43.6435 30.7525C43.1834 29.8088 43.053 28.8124 43.2685 27.8415C43.5017 26.803 44.2696 25.659 46.1595 25.3279C47.0656 25.1684 48.0291 25.2247 48.681 25.601Z" fill="#E56353"/>
<path d="M42.1844 23.1494C41.7547 24.3535 40.9532 25.5501 40.3336 26.7286C39.7139 27.9041 39.0894 29.1278 39.3926 30.3439C39.6398 31.3388 40.4439 32.4721 39.3647 33.2563C38.4202 33.9441 36.6062 33.893 35.1265 33.6929C30.9852 33.1326 27.1252 31.8893 24.1139 30.1507C23.9618 30.0629 23.8116 29.9736 23.6639 29.8833C21.8101 28.753 20.2508 27.3336 20.2264 25.7772C20.1993 24.2224 22.2015 22.5968 24.8882 22.5518C27.9515 22.502 30.1524 24.3338 33.13 24.7628C35.1689 25.0548 37.0604 24.5747 38.5292 23.7844C39.6226 23.1976 40.5992 22.6483 42.1844 23.1494Z" fill="#E56353"/>
<path d="M50.5577 31.642C48.0611 33.573 44.5386 34.696 40.0891 34.9774C39.4242 35.0195 38.7538 35.0407 38.0964 35.0392C31.7811 35.0392 26.695 33.0808 23.0562 30.9799C18.8854 28.5719 16.6158 25.9769 16.5739 25.9287C15.4078 24.8424 14.1614 24.0029 13.0392 23.3549C11.2564 22.3256 9.78671 21.7799 9.68772 21.7428C7.72075 21.2682 6.13639 20.6421 4.84199 19.8949C2.23366 18.389 0.802212 16.3911 1.38447 14.6297C2.43465 11.4613 9.60926 9.64453 21.0632 9.64453C33.0785 9.64453 42.1195 11.1646 47.9311 14.1659C48.2394 14.325 48.5347 14.4864 48.8163 14.649C52.5593 16.8098 53.9745 19.2277 54.494 20.9285C55.2272 23.3262 54.806 28.3547 50.5577 31.642ZM25.4559 17.2335C24.5895 18.5958 25.3747 20.2069 27.1347 21.223C27.745 21.5754 28.4729 21.8563 29.2897 22.0303C32.8954 22.7978 36.8541 21.6118 40.6773 21.7759C42.9212 21.8722 45.0613 22.4658 46.6517 23.3839C46.8003 23.4698 46.9442 23.5584 47.0827 23.6497C47.2531 23.7616 47.4059 23.8609 47.5506 23.9445C48.1466 24.2886 48.608 24.3655 49.6049 23.9417C50.4629 23.5789 51.0103 22.9648 51.1654 22.3613C51.4044 21.4312 50.921 20.492 50.4404 19.5934C50.0596 18.8754 49.6708 18.1499 49.0046 17.5042C48.7248 17.2326 48.388 16.9749 47.9992 16.7505C47.466 16.4427 46.8356 16.1977 46.1225 16.0653C43.6332 15.6002 40.9364 16.5906 38.3725 16.2956C36.6955 16.1015 35.3376 15.3865 33.7349 15.0403C30.5665 14.3542 26.6201 15.4002 25.4559 17.2335ZM35.1266 33.6936C36.6063 33.8937 38.4204 33.945 39.3649 33.257C40.4441 32.4728 39.6398 31.3395 39.3926 30.3446C39.0895 29.1284 39.7141 27.9047 40.3336 26.7291C40.9533 25.5506 41.7545 24.354 42.1844 23.1499C40.5992 22.6488 39.6226 23.1982 38.5294 23.7851C37.0606 24.5752 35.1689 25.0555 33.1301 24.7635C30.1525 24.3345 27.9517 22.5027 24.8883 22.5525C22.2017 22.5975 20.1997 24.2231 20.2265 25.7779C20.2509 27.3343 21.8102 28.7535 23.664 29.884C23.8118 29.9743 23.9618 30.0636 24.1141 30.1514C27.1252 31.89 30.9852 33.1333 35.1266 33.6936ZM16.472 22.6114C18.2308 23.0267 20.4652 22.9636 21.7626 22.1643C22.6689 21.6044 22.9684 20.7841 22.8445 20.0196C22.8041 19.7802 22.7302 19.5455 22.63 19.3136C22.2326 18.388 22.0972 17.4276 22.2554 16.4779C22.3436 15.9586 22.2653 15.4455 21.909 14.9608C21.6984 14.6736 21.3959 14.4196 21.0255 14.2058C20.4704 13.8853 19.763 13.6546 18.9829 13.5356C17.0141 13.2361 15.5362 13.82 14.1258 14.3859C12.5029 15.0391 10.8773 15.6908 9.25169 16.3425C8.30535 16.7233 7.24783 17.1929 7.89987 18.0765C8.06747 18.3052 8.32838 18.507 8.63087 18.6816C9.74665 19.3288 10.8624 19.976 11.9809 20.6217C12.087 20.6835 12.1937 20.7454 12.3007 20.8073C13.5445 21.5252 14.8551 22.2303 16.472 22.6114ZM30.2752 10.6214C29.6617 10.5794 29.0216 10.8698 28.9014 11.2205C28.794 11.5365 29.118 11.8407 29.3975 12.1191C29.6798 12.3991 29.9364 12.7393 29.6988 13.0313C29.5234 13.2479 29.1084 13.3835 28.9927 13.6137C28.9039 13.7916 29.0342 13.9693 29.2643 14.1021C29.4407 14.204 29.6759 14.2796 29.9165 14.309C30.4729 14.3752 31.0388 14.2759 31.5972 14.2232C32.9684 14.0908 34.4165 14.2307 35.64 14.616C36.2673 14.8131 36.8352 15.072 37.4781 15.2481C38.6023 15.5581 39.8941 15.6019 41.1252 15.4995C41.8836 15.4363 46.0699 15.0178 45.4347 14.33C45.4117 14.305 45.3524 14.2641 45.2583 14.2098C44.1766 13.5852 38.4833 11.1808 30.2752 10.6214ZM5.02395 18.5943C5.23395 18.5145 5.23044 18.3384 5.21926 18.194C5.159 17.1871 6.12287 16.2374 7.41059 15.5645C8.69814 14.8917 10.2887 14.4537 11.8557 14.0232C12.6469 13.8048 13.4357 13.5882 14.2245 13.3715C14.8237 13.2074 15.423 13.0433 16.0198 12.8777C16.5335 12.7361 17.0655 12.5902 17.4589 12.3493C17.8526 12.1115 18.0948 11.7562 17.9138 11.4417C17.8552 11.3416 17.7703 11.2638 17.6661 11.2037C17.2802 10.9808 16.6328 11.0002 16.103 11.0202C15.2222 11.0518 14.3358 10.9752 13.4497 11.0007C11.5739 11.0549 9.71476 11.3199 8.01288 11.7804C5.83357 12.3736 3.85625 13.3353 2.95932 14.6297C2.09962 15.8631 2.42163 17.4138 4.03888 18.3476C4.11884 18.3938 4.2018 18.4382 4.28794 18.4813C4.49644 18.5836 4.79842 18.6799 5.02395 18.5943ZM44.0485 31.2061C45.0773 31.8 47.0855 30.2659 47.7199 29.7486C48.8943 28.7882 50.2454 26.943 48.9684 25.8066C48.8816 25.7297 48.7853 25.6613 48.6809 25.601C48.0292 25.2247 47.0657 25.1685 46.1594 25.3281C44.2696 25.6592 43.5017 26.8031 43.2685 27.8416C43.0531 28.8124 43.1833 29.8087 43.6434 30.7525C43.7477 30.9652 43.8859 31.1121 44.0485 31.2061ZM25.0644 10.4724C23.8491 10.5987 22.8913 11.2611 22.8122 11.9744C22.7652 12.4034 23.0093 12.8413 23.4841 13.1725C23.5438 13.2146 23.6051 13.2536 23.6677 13.2897C25.551 14.3771 28.6007 12.8214 27.9544 11.4928C27.8459 11.2683 27.631 11.0686 27.3487 10.9057C26.7625 10.5672 25.8851 10.387 25.0644 10.4724Z" fill="white"/>
<path d="M40.2424 35.2804C32.507 35.7698 26.4142 33.5164 22.2094 31.0888C17.8266 28.5585 15.6123 25.9747 15.4957 25.8386C14.4474 24.8684 13.2625 24.0715 12.197 23.4565C10.4672 22.4579 9.12357 21.9648 9.05279 21.9389C7.16294 21.495 5.43618 20.8156 4.01108 19.9926C1.59222 18.5961 0.0272222 17.1895 0.0320632 15.4233L1.21112e-05 26.7399C-0.00499588 28.506 1.54347 30.3148 3.96233 31.7113C5.38761 32.5341 7.11436 33.2137 9.00404 33.6576C9.07482 33.6835 10.4185 34.1766 12.1482 35.1752C13.2136 35.7903 14.3985 36.5873 15.447 37.5573C15.5635 37.6934 17.7779 40.2772 22.1607 42.8075C26.3654 45.2351 32.4583 47.4883 40.1936 46.999C53.1894 46.1744 55.9556 38.8649 55.9681 34.4662L56.0002 23.1495C55.9875 27.5482 53.2381 34.4557 40.2424 35.2804Z" fill="#D15241"/>
<path d="M55.6988 20.8044C56.7047 24.0946 56.0238 34.6802 40.2255 35.6828C32.4903 36.1723 26.3972 33.9188 22.1927 31.4914C17.8099 28.9611 15.5955 26.3773 15.479 26.2412C14.4305 25.271 13.2458 24.4741 12.1802 23.8591C10.4505 22.8605 9.10682 22.3674 9.03604 22.3415C7.14619 21.8976 5.41943 21.218 3.99416 20.3952C-2.97112 16.3738 -2.71871 8.93493 21.059 8.93359C36.3261 8.93359 44.8719 11.371 49.6779 14.1461C53.8894 16.5778 55.2291 19.2691 55.6988 20.8044ZM40.0889 34.9768C44.5385 34.6954 48.061 33.5724 50.5576 31.6414C54.8059 28.3541 55.2271 23.3254 54.4937 20.9277C53.9742 19.2269 52.559 16.8092 48.816 14.6482C48.5345 14.4856 48.2392 14.3244 47.9309 14.1651C42.1193 11.1638 33.0786 9.64373 21.0631 9.64373C9.60895 9.64373 2.43434 11.4605 1.38416 14.6289C0.801902 16.3903 2.23335 18.3882 4.84168 19.8941C6.13608 20.6415 7.72044 21.2676 9.4921 21.6835C9.7864 21.7791 11.2561 22.3248 13.0389 23.3541C14.161 24.002 15.4075 24.8417 16.5135 25.8661C16.6155 25.9761 18.8853 28.5711 23.0559 30.9791C26.6947 33.08 31.7808 35.0384 38.0961 35.0384C38.7538 35.0401 39.424 35.0191 40.0889 34.9768Z" fill="#E56353"/>
</g>
<defs>
<clipPath id="clip0">
<rect width="56" height="56" fill="white"/>
</clipPath>
</defs>
</svg>
