<svg width="56" height="56" viewBox="0 0 56 56" fill="none" xmlns="http://www.w3.org/2000/svg">
<g clip-path="url(#clip0)">
<path d="M21.5 44.4444L19.3333 53.1111L16.4444 56H39.5556L36.6667 53.1111L34.5 44.4444H21.5ZM2 32.8889H54H2ZM7.77778 44.4444H48.2222C49.7546 44.4444 51.2242 43.8357 52.3077 42.7522C53.3913 41.6686 54 40.199 54 38.6667V9.77778C54 8.24542 53.3913 6.77582 52.3077 5.69227C51.2242 4.60873 49.7546 4 48.2222 4H7.77778C6.24542 4 4.77582 4.60873 3.69227 5.69227C2.60873 6.77582 2 8.24542 2 9.77778V38.6667C2 40.199 2.60873 41.6686 3.69227 42.7522C4.77582 43.8357 6.24542 44.4444 7.77778 44.4444Z" stroke="white" stroke-width="4" stroke-linecap="round" stroke-linejoin="round"/>
</g>
<defs>
<clipPath id="clip0">
<rect width="56" height="56" fill="white"/>
</clipPath>
</defs>
</svg>
