<svg width="56" height="56" viewBox="0 0 56 56" fill="none" xmlns="http://www.w3.org/2000/svg">
<g clip-path="url(#clip0)">
<path d="M20.4068 54.861C20.4068 54.1965 20.2169 53.6271 19.9322 53.0576C19.6475 52.4881 19.4576 51.8237 19.4576 51.2542V36.3525C19.4576 31.3221 15.661 26.861 10.6305 26.5763C5.0305 26.1966 0.474594 30.6576 0.474594 36.0678V51.2542C0.474594 53.3424 2.18303 55.0509 4.84073 55.0509H20.4069L20.4068 54.861Z" fill="#97D3E6"/>
<path d="M11.8643 56C9.20672 56 7.11853 53.9118 7.11853 51.2542V41.7626C7.11853 41.1931 7.49817 40.8135 8.06769 40.8135C8.6372 40.8135 9.01684 41.1931 9.01684 41.7626V51.2542C9.01684 52.8678 10.2507 54.1017 11.8643 54.1017C12.4338 54.1017 12.8135 54.4813 12.8135 55.0508C12.8135 55.6203 12.4337 56 11.8643 56Z" fill="#7DBDD1"/>
<path d="M8.06776 56C5.41016 56 3.32198 53.9119 3.32198 51.2543V37.017C3.32198 36.4475 3.70162 36.0679 4.27113 36.0679C4.84065 36.0679 5.22029 36.4475 5.22029 37.017V51.2543C5.22029 52.8679 6.45415 54.1017 8.06776 54.1017C8.63727 54.1017 9.01691 54.4814 9.01691 55.0509C9.01691 55.6204 8.63716 56 8.06776 56Z" fill="#7DBDD1"/>
<path d="M15.661 56C13.0034 56 10.9152 53.9118 10.9152 51.2542V41.7626C10.9152 41.1931 11.2948 40.8135 11.8643 40.8135C12.4338 40.8135 12.8135 41.1931 12.8135 41.7626V51.2542C12.8135 52.8678 14.0473 54.1017 15.661 54.1017C16.2305 54.1017 16.6101 54.4813 16.6101 55.0508C16.6101 55.6203 16.2305 56 15.661 56Z" fill="#7DBDD1"/>
<path d="M19.4575 56C16.7999 56 14.7117 53.9119 14.7117 51.2543V37.017C14.7117 36.4475 15.0914 36.0679 15.6609 36.0679C16.2304 36.0679 16.61 36.4475 16.61 37.017V51.2543C16.61 52.8679 17.8439 54.1017 19.4575 54.1017C20.027 54.1017 20.4067 54.4814 20.4067 55.0509C20.4067 55.6204 20.027 56 19.4575 56Z" fill="#7DBDD1"/>
<path d="M9.9662 42.7115C13.6356 42.7115 16.6103 39.7369 16.6103 36.0674C16.6103 32.398 13.6356 29.4233 9.9662 29.4233C6.29677 29.4233 3.32211 32.398 3.32211 36.0674C3.32211 39.7369 6.29677 42.7115 9.9662 42.7115Z" fill="#4398D1"/>
<path d="M11.3899 37.4916L46.0338 2.84747L43.1864 0L8.54239 34.6441C7.78311 35.4034 7.78311 36.7323 8.54239 37.4916C9.30167 38.2508 10.6305 38.2508 11.3899 37.4916Z" fill="#337AB5"/>
<path d="M43.276 0.0125648L38.5112 4.77734L41.33 7.59612L46.0948 2.83134L43.276 0.0125648Z" fill="#4398D1"/>
<path d="M25.1524 35.1182L26.4812 48.786C26.8609 52.2978 29.8033 55.0504 33.3151 55.0504H35.2134C36.0676 55.0504 36.9218 54.8606 37.7762 54.5759L38.7253 54.1962C40.3389 53.5318 42.2371 53.5318 43.8507 54.1962L44.7999 54.5759C45.6541 54.8606 46.5083 55.0504 47.3627 55.0504C50.8745 55.0504 53.9118 52.3929 54.1965 48.786L55.5253 35.1182H25.1524Z" fill="#4398D1"/>
<path d="M41.2882 46.5083C41.8578 46.5083 42.2374 46.8879 42.2374 47.4575V53.1524C42.2374 53.7219 41.8578 54.1016 41.2882 54.1016C40.7187 54.1016 40.3391 53.7219 40.3391 53.1524V47.4575C40.3391 46.8881 40.7187 46.5083 41.2882 46.5083Z" fill="#266599"/>
<path d="M46.9831 27.5254C45.939 27.5254 44.8949 27.7153 43.9457 28C41.5728 28.7592 39.105 28.7592 36.7321 28C35.783 27.7153 34.7389 27.5254 33.6949 27.5254C28.9491 27.5254 25.1525 30.9424 25.1525 35.1186C25.1525 39.2949 28.9491 42.7119 33.6949 42.7119C34.739 42.7119 35.7831 42.522 36.7321 42.2373C39.105 41.478 41.5728 41.478 43.9457 42.2373C44.8949 42.522 45.939 42.7119 46.9831 42.7119C51.7289 42.7119 55.5255 39.2949 55.5255 35.1186C55.5255 30.9424 51.7289 27.5254 46.9831 27.5254Z" fill="#266599"/>
<path d="M33.6949 42.7115C34.739 42.7115 35.7831 42.5216 36.7322 42.2369C39.1051 41.4776 41.5729 41.4776 43.9458 42.2369C44.8949 42.5216 45.939 42.7115 46.9831 42.7115C49.9255 42.8064 52.6781 41.3827 54.3865 38.9149C52.6781 36.447 49.9255 35.0233 46.9831 35.1182C45.939 35.1182 44.8949 35.3081 43.9458 35.5928C41.5729 36.3521 39.1051 36.3521 36.7322 35.5928C35.783 35.3081 34.7389 35.1182 33.6949 35.1182C30.7525 35.0233 28 36.447 26.2916 38.9149C28 41.3827 30.7525 42.8064 33.6949 42.7115Z" fill="#97D3E6"/>
<path d="M33.6952 42.9013C38.4129 42.9013 42.2374 39.4593 42.2374 35.2134C42.2374 30.9674 38.4129 27.5254 33.6952 27.5254C28.9775 27.5254 25.153 30.9674 25.153 35.2134C25.153 39.4593 28.9775 42.9013 33.6952 42.9013Z" fill="#398CC4"/>
<path d="M34.6441 35.3081V30.3726H32.7458V35.3081C33.0305 35.3081 33.4102 35.2132 33.6949 35.2132C33.9796 35.2133 34.3593 35.2133 34.6441 35.3081Z" fill="#266599"/>
<path d="M30.8475 31.3218H28.9492V36.5421C29.5187 36.1625 30.1831 35.8777 30.8475 35.6879V31.3218Z" fill="#266599"/>
<path d="M38.4408 31.3218H36.5425V35.6879C37.207 35.8778 37.8713 36.1625 38.4408 36.5421V31.3218Z" fill="#266599"/>
</g>
<defs>
<clipPath id="clip0">
<rect width="56" height="56" fill="white"/>
</clipPath>
</defs>
</svg>
