<svg width="56" height="56" viewBox="0 0 56 56" fill="none" xmlns="http://www.w3.org/2000/svg">
<path d="M55.6503 18.178C52.9485 21.9203 50.7709 25.8579 49.1514 29.9292C47.849 33.7915 48.1876 40.5506 48.1876 40.5506C48.1876 47.0683 45.9866 49.7816 44.8926 50.7376C44.4857 51.0928 44.268 51.5461 44.2805 52.0121V55.0344C44.2805 55.5677 43.6974 56 42.9781 56H20.8375C20.1182 56 19.5351 55.5677 19.5351 55.0344V52.2342C19.543 51.6056 19.1279 51.0153 18.4281 50.6603C10.3533 46.5952 9.03785 38.6194 9.03785 38.6194L0.65048 29.2339C-0.464388 27.9848 -0.114643 26.3119 1.45796 25.3716C2.42515 24.7954 3.66688 24.5358 4.89761 24.6523C6.12834 24.7689 7.24215 25.2516 7.98292 25.9896L16.9303 34.7571C16.9303 34.7571 16.9303 34.0329 16.8782 32.768C16.735 28.1525 16.1228 16.382 13.6613 7.31513C13.2892 5.98054 14.4043 4.66611 16.188 4.3368C17.9717 4.00749 19.788 4.78072 20.3035 6.08884C22.5292 11.6701 23.9353 17.4132 24.4972 23.2183C24.4972 23.2503 24.5322 23.2763 24.5753 23.2763C24.6185 23.2763 24.6535 23.2503 24.6535 23.2183L25.7345 2.43892C25.8063 1.09528 27.2784 0.0260772 29.0918 0.000468664C30.9052 -0.0251399 32.4312 1.00173 32.572 2.34236L34.6949 22.9769C34.7081 23.0997 34.843 23.1958 35.0089 23.2007C35.1749 23.2056 35.3197 23.1178 35.3461 22.9963C36.1536 19.076 37.9378 10.6754 39.1751 6.36886C39.57 4.99071 41.3591 4.08774 43.2333 4.32062C45.1075 4.5535 46.4017 5.83958 46.1689 7.23789C45.4917 11.4382 44.046 20.0898 43.0432 24.5605C43.0185 24.6773 43.1107 24.7904 43.2617 24.8285C43.4126 24.8666 43.5787 24.8187 43.6553 24.715L49.9719 15.9571C50.8134 14.8157 52.735 14.3865 54.2869 14.9934C55.8388 15.6004 56.4459 17.0186 55.6503 18.178Z" fill="#F4CEA4"/>
<rect x="16.9303" y="23.3413" width="29.9535" height="31.4919" rx="14.9767" fill="#2F80ED" fill-opacity="0.3"/>
<path d="M16.9303 36.1699H46.8838V39.8551C46.8838 48.1265 40.1785 54.8318 31.9071 54.8318C23.6356 54.8318 16.9303 48.1265 16.9303 39.8551V36.1699Z" fill="#2F80ED"/>
</svg>
