<svg width="56" height="56" viewBox="0 0 56 56" fill="none" xmlns="http://www.w3.org/2000/svg">
<path fill-rule="evenodd" clip-rule="evenodd" d="M33.6439 3.9246C27.7771 0.212134 27.3401 0.084761 21.2734 3.9246C16.3652 7.03206 9.16201 12.4004 4.76546 16.2281C-0.489751 20.8026 -0.743398 21.1902 0.94319 28.2945C2.30695 34.0427 5.05864 42.7293 7.24923 48.2019C9.86695 54.743 10.1481 55.1086 17.2557 55.6598C23.0061 56.1056 31.9112 56.1056 37.6616 55.6598C44.5353 55.1262 44.9614 54.9648 47.6691 48.2008C49.8586 42.7282 52.6103 34.0427 53.9741 28.2945C55.6047 21.4241 55.586 20.9596 50.1518 16.227C45.7542 12.3993 38.5521 7.03096 33.6439 3.9246ZM45.5159 18.691C41.9956 15.6286 36.2276 11.3342 32.2977 8.84931C27.6003 5.87911 27.2511 5.777 22.3934 8.84931C18.4624 11.3342 12.6955 15.6297 9.17299 18.6921C4.96641 22.3519 4.76327 22.6615 6.11386 28.345C7.20641 32.9436 9.40797 39.8931 11.1626 44.271C13.2599 49.5031 13.4839 49.7952 19.1761 50.2377C23.7802 50.5935 30.9109 50.5935 35.515 50.2377C41.0194 49.8095 41.3609 49.6821 43.5284 44.271C45.282 39.892 47.4847 32.9436 48.5772 28.345C49.8828 22.8482 49.8685 22.4771 45.5159 18.691ZM40.0477 43.4024C41.855 38.8917 44.1521 31.6457 45.2787 26.9077C45.9815 23.9495 45.7619 23.6575 43.6712 21.8369C40.0433 18.6812 34.0282 14.2033 29.9786 11.6427C27.451 10.044 27.1117 10.1659 24.7772 11.6427C20.7277 14.2033 14.7137 18.6812 11.0847 21.8369C8.82052 23.8068 8.82931 24.1757 9.47715 26.9066C10.6026 31.6457 12.8997 38.8917 14.7071 43.4013C15.8359 46.2178 16.1807 46.3232 18.9159 46.5351C23.6605 46.903 31.0953 46.903 35.84 46.5351C38.8014 46.3056 39.0067 46.0026 40.0488 43.4024H40.0477ZM19.3474 19.99H23.5397V40.1687H19.3474V19.99ZM32.6886 19.99L24.6839 30.1293L32.6886 40.1676H37.52L29.5142 30.1293L37.5189 19.9889H32.6875L32.6886 19.99Z" fill="#C32420"/>
</svg>
