<svg width="56" height="56" viewBox="0 0 56 56" fill="none" xmlns="http://www.w3.org/2000/svg">
<g clip-path="url(#clip0)">
<path d="M53.6667 24.4999C53.6667 37.9749 42.1167 48.9999 28 48.9999C25.9834 48.9999 24.15 48.8249 22.3166 48.3L10.3999 56L12.2333 43.925C6.18334 39.375 2.33334 32.375 2.33334 24.5C2.33334 11.025 13.8833 0 28 0C42.1167 0 53.6667 11.0249 53.6667 24.4999Z" fill="#FAFAFA"/>
<g opacity="0.1">
<path opacity="0.1" d="M50.511 20.2101C46.4032 16.5952 41.1451 14.4591 35.2298 14.4591C22.5777 14.4591 12.2259 24.8109 12.2259 37.463C12.2259 39.1062 12.3902 40.585 12.7189 42.0638C7.95375 37.7917 4.99615 31.7121 4.99615 24.9752C4.99615 12.323 15.3479 1.97127 28.0001 1.97127C39.1733 1.80694 48.3749 9.6941 50.511 20.2101Z" fill="#FAFAFA"/>
</g>
<path d="M27.5 31C26.5 31 25.8333 30.3171 25.8333 29.2926V23.6585C25.8333 22.6342 26.4999 21.9512 27.5 21.9512C29.8333 21.9512 31.6666 20.0732 31.6666 17.683C31.6666 15.2927 29.8333 13.4147 27.5 13.4147C25.1667 13.4147 23.3334 15.2927 23.3334 17.683C23.3334 18.7073 22.6668 19.3903 21.6667 19.3903C20.6667 19.3903 20 18.7074 20 17.683C20 13.4147 23.3333 10 27.5 10C31.6667 10 35 13.4146 35 17.683C35 21.2683 32.5 24.3414 29.1667 25.1952V29.2928C29.1667 30.1463 28.5 31 27.5 31Z" fill="#1D1C1D"/>
<path d="M26.45 37.5018C25.85 36.9132 25.85 35.883 26.45 35.4415C27.0499 34.8528 27.9501 34.8528 28.55 35.4415C29.15 36.0301 29.15 36.9132 28.55 37.5018C27.9501 38.2376 27.05 38.0904 26.45 37.5018Z" fill="#1D1C1D"/>
</g>
<defs>
<clipPath id="clip0">
<rect width="56" height="56" fill="white"/>
</clipPath>
</defs>
</svg>
