<svg width="56" height="56" viewBox="0 0 56 56" fill="none" xmlns="http://www.w3.org/2000/svg">
<path opacity="0.2" fill-rule="evenodd" clip-rule="evenodd" d="M46.6665 39.5823C44.3021 39.5823 42.1865 40.4257 40.5688 41.747L18.3865 30.0803C18.5421 29.4337 18.6665 28.7871 18.6665 28.1124C18.6665 27.4378 18.5421 26.7912 18.3865 26.1446L40.3199 14.5904C41.9999 15.996 44.2088 16.8675 46.6665 16.8675C51.831 16.8675 55.9999 13.1004 55.9999 8.43373C55.9999 3.76707 51.831 0 46.6665 0C41.5021 0 37.3332 3.76707 37.3332 8.43373C37.3332 9.10843 37.4577 9.75502 37.6132 10.4016L15.6799 21.9558C13.9999 20.5502 11.791 19.6787 9.33321 19.6787C4.16877 19.6787 -0.00012207 23.4458 -0.00012207 28.1124C-0.00012207 32.7791 4.16877 36.5462 9.33321 36.5462C11.791 36.5462 13.9999 35.6747 15.6799 34.2691L37.831 45.9639C37.6754 46.5542 37.5821 47.1727 37.5821 47.7912C37.5821 52.3173 41.6577 56 46.6665 56C51.6754 56 55.751 52.3173 55.751 47.7912C55.751 43.2651 51.6754 39.5823 46.6665 39.5823Z" fill="white"/>
</svg>
