<svg width="56" height="56" viewBox="0 0 56 56" fill="none" xmlns="http://www.w3.org/2000/svg">
<path d="M13.2344 7.49219H4.92188C4.01505 7.49219 3.28125 8.22598 3.28125 9.13281C3.28125 10.0396 4.01505 10.7734 4.92188 10.7734H13.2344C14.1412 10.7734 14.875 10.0396 14.875 9.13281C14.875 8.22598 14.1412 7.49219 13.2344 7.49219Z" fill="white"/>
<path d="M13.2344 20.6172H4.92188C4.01505 20.6172 3.28125 21.351 3.28125 22.2578C3.28125 23.1646 4.01505 23.8984 4.92188 23.8984H13.2344C14.1412 23.8984 14.875 23.1646 14.875 22.2578C14.875 21.351 14.1412 20.6172 13.2344 20.6172Z" fill="white"/>
<path d="M9.95312 14.0547H1.64062C0.733797 14.0547 0 14.7885 0 15.6953C0 16.6021 0.733797 17.3359 1.64062 17.3359H9.95312C10.86 17.3359 11.5938 16.6021 11.5938 15.6953C11.5938 14.7885 10.86 14.0547 9.95312 14.0547Z" fill="white"/>
<path d="M52.7181 22.2589H42.765V15.6964C42.765 12.8148 39.2399 11.2975 37.1628 13.3774L24.0388 26.5014C22.757 27.7832 22.757 29.8596 24.0388 31.1413L31.5626 38.6651L22.3982 47.8296C21.1164 49.1113 21.1164 51.1877 22.3982 52.4695C23.6798 53.7511 25.7563 53.7512 27.0381 52.4695L38.5224 40.9851C39.8042 39.7033 39.8042 37.6269 38.5224 36.3452L30.9986 28.8214L36.2025 23.6175V25.5401C36.2025 27.3521 37.6717 28.8214 39.4837 28.8214H52.7181C54.5301 28.8214 55.9994 27.3521 55.9994 25.5401C55.9994 23.7281 54.5301 22.2589 52.7181 22.2589Z" fill="white"/>
<path d="M30.6396 5.58181C29.3354 4.71501 27.6051 4.88651 26.4995 5.99196L17.4761 15.0154C16.1943 16.2972 16.1943 18.3735 17.4761 19.6553C18.7579 20.9371 20.8343 20.937 22.1161 19.6552L29.2377 12.5336L31.6368 14.2617L34.8421 11.0564C35.3783 10.5202 36.0107 10.104 36.7022 9.77907L30.6396 5.58181Z" fill="white"/>
<path d="M21.7188 33.46C20.8874 32.6287 20.3325 31.6055 20.0399 30.499L2.71062 47.8283C1.42886 49.1101 1.42886 51.1864 2.71062 52.4682C3.99228 53.7498 6.06876 53.75 7.35053 52.4682L24.0387 35.78L21.7188 33.46Z" fill="white"/>
<path d="M44.4062 12.4141C47.1245 12.4141 49.3281 10.2105 49.3281 7.49219C49.3281 4.77391 47.1245 2.57031 44.4062 2.57031C41.688 2.57031 39.4844 4.77391 39.4844 7.49219C39.4844 10.2105 41.688 12.4141 44.4062 12.4141Z" fill="white"/>
</svg>
