<svg width="56" height="56" viewBox="0 0 56 56" fill="none" xmlns="http://www.w3.org/2000/svg">
<g clip-path="url(#clip0)">
<path d="M55.2184 30.4131C55.1362 28.7506 54.5184 27.1581 53.5034 25.8368C51.2143 22.8565 50.7681 20.4904 50.7681 20.4904C48.9708 15.7811 47.373 12.6432 46.1987 10.6517C44.9632 8.56036 42.8264 7.15166 40.4166 6.84192C35.5708 6.21545 20.4259 6.21545 15.5801 6.84192C13.172 7.15346 11.0352 8.56216 9.79964 10.6517C8.62533 12.6432 7.02939 15.7811 5.2303 20.4904C5.2303 20.4904 4.78408 22.8565 2.49501 25.8368C1.48177 27.1581 0.862185 28.7506 0.781762 30.4131C0.608508 34.02 1.65333 34.8127 2.58784 42.9749C2.66138 43.6172 3.20382 44.1002 3.85138 44.1002H52.1507C52.7983 44.1002 53.3407 43.6154 53.4143 42.9749C53.6767 40.6858 54.4556 36.043 54.4556 36.043C55.1379 33.7347 55.2867 31.8534 55.2184 30.4131Z" fill="#E95353"/>
<path d="M49.7511 20.3011C48.3336 16.7538 46.888 13.6562 45.4495 11.1869C44.3592 9.31952 42.4359 8.01583 40.3079 7.73057C35.4515 7.08651 20.5151 7.09181 15.6936 7.73057C13.5656 8.01583 11.6422 9.31964 10.5519 11.1869C9.09418 13.6876 7.62942 16.8272 6.23289 20.3011C20.7162 21.4403 35.266 21.4403 49.7511 20.3011Z" fill="#168DE2"/>
<path d="M47.6948 24.4034C47.1418 24.5766 46.6273 24.8199 46.1968 25.0614C45.4127 25.499 44.6077 25.9067 43.7677 26.2253C42.3747 26.7538 42.1384 27.5431 42.1384 27.5431C42.0964 27.5973 42.0562 27.6516 42.0176 27.7075C40.9606 29.2773 42.3483 31.3669 44.2226 31.1009C46.9335 30.7176 49.1665 29.9319 50.3005 29.4768C50.9498 29.2161 51.4572 28.6736 51.6235 27.9928C51.6393 27.928 51.6533 27.8633 51.6654 27.8002C52.0821 25.5532 49.8771 23.7227 47.6948 24.4034Z" fill="white"/>
<path d="M50.5913 36.981H47.5759C47.1227 36.981 46.8952 37.5287 47.2154 37.8507L50.2308 40.8661C50.551 41.1863 51.1006 40.9588 51.1006 40.5056V37.4902C51.1004 37.2085 50.8729 36.981 50.5913 36.981Z" fill="#FFE21F"/>
<path d="M53.414 42.9715C53.3405 43.6155 52.7962 44.1002 52.1488 44.1002H46.3474V47.4673C46.3474 48.6591 47.3133 49.6268 48.5069 49.6268H52.1506C53.3424 49.6268 54.3102 48.6609 54.3102 47.4673V36.9268C54.0704 38.3863 53.6048 41.3037 53.414 42.9715Z" fill="#454545"/>
<path d="M55.9586 17.9439C55.7835 17.1599 55.0469 16.6279 54.2436 16.6279H52.7875C51.8547 16.6279 51.0988 17.384 51.0988 18.3167V19.3544H50.327L50.7697 20.4062H52.4673C53.3458 20.4062 54.2156 20.2172 55.0136 19.8515C55.7328 19.5225 56.1353 18.7349 55.9586 17.9439Z" fill="#ED6262"/>
<path d="M48.6504 29.2456C49.8228 29.2456 50.7732 28.2952 50.7732 27.1228C50.7732 25.9504 49.8228 25 48.6504 25C47.478 25 46.5276 25.9504 46.5276 27.1228C46.5276 28.2952 47.478 29.2456 48.6504 29.2456Z" fill="#FFBD49"/>
<path d="M44.3802 30.3569C45.2414 30.3569 45.9395 29.6588 45.9395 28.7976C45.9395 27.9364 45.2414 27.2383 44.3802 27.2383C43.519 27.2383 42.8209 27.9364 42.8209 28.7976C42.8209 29.6588 43.519 30.3569 44.3802 30.3569Z" fill="#FFDB6F"/>
<path d="M40.3395 28.7993L37.9016 33.0448H18.0983L15.6604 28.7993H40.3395Z" fill="#6F6F6F"/>
<path d="M13.9804 27.7071C13.9437 27.6512 13.9034 27.5969 13.8596 27.5427C13.8596 27.5427 13.6233 26.7534 12.2303 26.2249C11.3903 25.9063 10.587 25.4986 9.80125 25.061C9.36901 24.8195 8.85625 24.5762 8.30321 24.403C6.12265 23.7205 3.91591 25.5527 4.33066 27.7998C4.34296 27.8646 4.35694 27.9276 4.37093 27.9924C4.53719 28.6731 5.04466 29.2157 5.69391 29.4764C6.82796 29.9315 9.06097 30.7172 11.7736 31.1005C13.6496 31.3665 15.0374 29.2769 13.9804 27.7071Z" fill="white"/>
<path d="M8.42395 36.981H5.40859C5.12683 36.981 4.89932 37.2085 4.89932 37.4902V40.5056C4.89932 40.9588 5.44886 41.1863 5.76909 40.8661L8.78445 37.8507C9.10467 37.5305 8.87717 36.981 8.42395 36.981Z" fill="#FFE21F"/>
<path d="M48.0763 42.2429C44.9368 36.8108 41.3264 36.9806 41.3264 36.9806H14.6716C14.6716 36.9806 11.0631 36.8108 7.9217 42.2429H2.49489L2.56144 42.9429C2.62269 43.601 3.17222 44.0997 3.83016 44.0997H52.1698C52.8278 44.0997 53.3772 43.601 53.4386 42.943L53.5052 42.243L48.0763 42.2429Z" fill="#777777"/>
<path d="M3.85107 44.1021C3.20351 44.1021 2.65927 43.6156 2.58584 42.9733C2.39511 41.3055 1.92779 38.3865 1.6898 36.9287V47.4692C1.6898 48.661 2.65578 49.6288 3.84938 49.6288H7.4929C8.68469 49.6288 9.65248 48.6628 9.65248 47.4692V44.1022H3.85107V44.1021Z" fill="#454545"/>
<path d="M4.89941 19.3544V18.3167C4.89941 17.3839 4.14335 16.6279 3.21233 16.6279H1.75637C0.953154 16.6279 0.216374 17.16 0.0413154 17.9439C-0.135435 18.7331 0.268824 19.5225 0.986316 19.8497C1.78604 20.2155 2.65411 20.4044 3.53267 20.4044H5.23024L5.67297 19.3526H4.89941V19.3544Z" fill="#ED6262"/>
<path d="M7.34769 29.2456C8.52008 29.2456 9.4705 28.2952 9.4705 27.1228C9.4705 25.9504 8.52008 25 7.34769 25C6.17529 25 5.22488 25.9504 5.22488 27.1228C5.22488 28.2952 6.17529 29.2456 7.34769 29.2456Z" fill="#FFBD49"/>
<path d="M11.6212 30.3569C12.4824 30.3569 13.1805 29.6588 13.1805 28.7976C13.1805 27.9364 12.4824 27.2383 11.6212 27.2383C10.7601 27.2383 10.0619 27.9364 10.0619 28.7976C10.0619 29.6588 10.7601 30.3569 11.6212 30.3569Z" fill="#FFDB6F"/>
<path d="M39.286 38.4663H16.7139C16.3604 38.4663 16.0752 38.7533 16.0752 39.1051C16.0752 39.4586 16.3604 39.7438 16.7139 39.7438H39.2842C39.6377 39.7438 39.9229 39.4569 39.9229 39.1051C39.9248 38.7516 39.6377 38.4663 39.286 38.4663Z" fill="#6F6F6F"/>
<path d="M39.286 41.0166H16.7139C16.3604 41.0166 16.0752 41.3036 16.0752 41.6554C16.0752 42.0089 16.3604 42.2941 16.7139 42.2941H39.2842C39.6377 42.2941 39.9229 42.0072 39.9229 41.6554C39.9248 41.3019 39.6377 41.0166 39.286 41.0166Z" fill="#6F6F6F"/>
<path d="M47.3852 14.8901V15.1088C47.3852 15.989 46.6624 16.6943 45.7646 16.6576C44.9368 16.6051 44.3034 15.8649 44.3034 15.0196V11.88C44.3034 11.1397 43.6874 10.5762 42.9471 10.5955C42.9296 10.5955 42.9296 10.5955 42.9121 10.5955C42.9121 10.5955 42.9121 10.5955 42.8947 10.5955C42.1544 10.578 41.5384 11.1415 41.5384 11.88V14.7203C41.5384 15.6006 40.7806 16.3059 39.9004 16.2516C39.0726 16.2167 38.4391 15.4589 38.4391 14.6311V12.1618C38.4391 11.4215 37.8231 10.8055 37.0654 10.8055H36.9604C36.2551 10.8055 35.6741 11.3865 35.6741 12.0918V15.3031C35.6741 16.1834 34.9338 16.8869 34.036 16.8519C33.2082 16.7995 32.5923 16.0592 32.5923 15.2139V10.9087C32.5923 10.2227 31.9938 9.64169 31.2885 9.69414H31.1834C30.4606 9.69414 29.8814 10.2752 29.8814 10.9805V15.3819C29.8814 16.2271 29.1954 16.9307 28.3327 16.9307C27.5048 16.9307 26.8188 16.2621 26.8013 15.4344V11.7401C26.8013 10.8949 26.1679 10.1564 25.3401 10.1021C24.4423 10.0672 23.7195 10.7707 23.7195 11.6509L23.7021 15.0636C23.7021 15.9438 22.9811 16.6473 22.0815 16.6123C21.2695 16.5616 20.6535 15.8476 20.6289 15.0391V11.0347C20.6289 10.2034 20.0042 9.45964 19.1729 9.41069C18.2821 9.37223 17.547 10.0739 17.547 10.956V15.1509C17.5226 16.0101 16.8016 16.6944 15.9177 16.6594C15.0899 16.6069 14.4739 15.8667 14.4739 15.0214V11.88C14.4739 11.1397 13.8405 10.5762 13.1002 10.5955C13.0827 10.5955 13.0827 10.5955 13.0827 10.5955C13.0652 10.5955 13.0652 10.5955 13.0652 10.5955C12.3075 10.578 11.6915 11.1415 11.6915 11.88V14.7203C11.6915 15.6006 10.9512 16.3059 10.071 16.2516C9.3044 16.2218 8.73388 15.5814 8.63597 14.8393C7.82215 16.5246 7.01544 18.3498 6.2314 20.2994C20.7147 21.4404 35.2663 21.4404 49.7496 20.2994C48.9689 18.3447 48.1779 16.5421 47.3852 14.8901Z" fill="#3AA2EB"/>
</g>
<defs>
<clipPath id="clip0">
<rect width="56" height="56" fill="white"/>
</clipPath>
</defs>
</svg>
