<svg width="56" height="42" viewBox="0 0 56 42" fill="none" xmlns="http://www.w3.org/2000/svg">
<path d="M4.22531 1.19275C2.27787 1.6687 0.654432 3.32269 0.184715 5.32771C-0.0615717 6.41494 -0.0615717 35.5968 0.184715 36.684C0.665861 38.7347 2.25558 40.343 4.28131 40.83C4.90817 40.9774 7.87447 41 27.9997 41C48.125 41 51.0918 40.9774 51.7187 40.83C53.7221 40.343 55.3341 38.7116 55.8153 36.684C56.0616 35.5968 56.0616 6.41494 55.8153 5.32771C55.3341 3.277 53.7444 1.6687 51.7187 1.18176C50.6775 0.931923 5.25503 0.943493 4.22531 1.19275ZM51.5393 12.8158C50.7221 15.8745 50.0284 18.4006 50.0055 18.4347C49.9833 18.4572 49.3341 17.9813 48.5838 17.3925C47.5204 16.5771 47.1621 16.3504 47.073 16.4522C47.0055 16.5314 45.2261 18.7632 43.1329 21.4251L39.3158 26.2622L39.5512 26.8058C39.9095 27.5987 39.8872 28.7316 39.5066 29.5696C38.9021 30.8951 37.8278 31.5972 36.3723 31.5972C35.6226 31.5972 35.4323 31.552 34.8163 31.2236C34.3237 30.9743 33.9769 30.6799 33.6855 30.2948C33.2152 29.6604 32.8575 28.5274 32.958 27.9272L33.014 27.542L28.6374 24.4607L24.2608 21.3685L23.5894 21.7421C23.0408 22.059 22.7608 22.1272 22.0557 22.1723C21.2608 22.2174 21.1265 22.1949 20.4105 21.8554L19.6271 21.4928L15.4294 24.4156L11.2316 27.3494V28.1539C11.2316 29.1734 10.9293 29.9096 10.2242 30.6123C9.50762 31.3259 8.8139 31.6203 7.84018 31.6203C6.49675 31.6203 5.33274 30.8951 4.75102 29.6945C4.49388 29.1619 4.43788 28.9016 4.43788 28.199C4.44931 27.1568 4.74017 26.3975 5.42303 25.7296C6.12817 25.0385 6.83332 24.7441 7.86304 24.7441C8.6019 24.7441 8.79219 24.7892 9.44133 25.1293L10.1911 25.5034L14.3214 22.6032L18.4631 19.7145L18.5077 18.7175C18.586 17.211 19.1568 16.259 20.366 15.6588C21.2391 15.2285 22.5265 15.2054 23.3431 15.6136C24.5294 16.2029 25.2123 17.2792 25.2906 18.6724L25.3466 19.5335L29.6563 22.5806L33.9769 25.6168L34.2677 25.4242C35.2192 24.8014 36.3609 24.5747 37.3569 24.8349C37.6929 24.9257 37.7038 24.9141 41.5992 19.9753L45.4947 15.0249L45.1701 14.7531C44.9912 14.6056 44.4312 14.1638 43.9278 13.7902C43.4129 13.4051 43.0209 13.0766 43.0324 13.054C43.1221 12.9748 52.905 7.24251 52.9718 7.24251C53.0056 7.24193 52.3678 9.74547 51.5393 12.8158Z" fill="#F2F2F2"/>
<path d="M21.117 17.0301C20.4342 17.336 20.0536 17.993 20.0536 18.8425C20.0536 19.4203 20.3782 19.9639 20.949 20.3606C21.2736 20.5873 21.4416 20.6214 21.9902 20.5873C23.0199 20.5081 23.6468 19.8962 23.7142 18.8882C23.7479 18.4123 23.7028 18.1971 23.5016 17.8345C23.0313 17.0191 21.9565 16.6565 21.117 17.0301Z" fill="#F2F2F2"/>
<path d="M7.1251 26.433C6.64396 26.6372 6.08395 27.3283 5.99481 27.8152C5.8491 28.6081 6.36396 29.6051 7.0691 29.8995C7.25939 29.9787 7.66225 30.0238 7.99825 29.9903C9.05025 29.8995 9.6434 29.2309 9.6434 28.1096C9.6434 27.3959 9.3074 26.8749 8.63597 26.5238C8.07653 26.2405 7.61768 26.2179 7.1251 26.433Z" fill="#F2F2F2"/>
<path d="M35.6674 26.4334C34.8503 26.8076 34.3692 27.7815 34.5932 28.62C34.8394 29.5488 35.444 30.0132 36.4177 30.0132C38.0297 30.0132 38.8246 28.2117 37.772 26.9435C37.2457 26.3201 36.384 26.1049 35.6674 26.4334Z" fill="#F2F2F2"/>
</svg>
