<svg width="68" height="68" viewBox="0 0 68 68" fill="none" xmlns="http://www.w3.org/2000/svg">
<g filter="url(#filter0_dd)">
<path fill-rule="evenodd" clip-rule="evenodd" d="M34 59C49.464 59 62 46.464 62 31C62 15.536 49.464 3 34 3C18.536 3 6 15.536 6 31C6 46.464 18.536 59 34 59Z" fill="#347CFF"/>
<path d="M61.75 31C61.75 46.3259 49.3259 58.75 34 58.75C18.6741 58.75 6.25 46.3259 6.25 31C6.25 15.6741 18.6741 3.25 34 3.25C49.3259 3.25 61.75 15.6741 61.75 31Z" stroke="url(#paint0_linear)" stroke-width="0.5"/>
<path d="M61.75 31C61.75 46.3259 49.3259 58.75 34 58.75C18.6741 58.75 6.25 46.3259 6.25 31C6.25 15.6741 18.6741 3.25 34 3.25C49.3259 3.25 61.75 15.6741 61.75 31Z" stroke="url(#paint1_linear)" stroke-width="0.5"/>
</g>
<path fill-rule="evenodd" clip-rule="evenodd" d="M32.7063 24.5314V19.3564H34C40.4298 19.3564 45.6436 24.5702 45.6436 31C45.6436 37.4298 40.4298 42.6436 34 42.6436C27.5572 42.6436 22.3564 37.4298 22.3564 31C22.3564 27.1835 24.1935 23.8198 27.0268 21.6981V21.6722L35.8242 30.4696L34 32.2937L26.988 25.2817C25.7072 26.8342 24.9439 28.8265 24.9439 31C24.9439 36.0067 28.9933 40.0561 34 40.0561C39.0067 40.0561 43.0561 36.0067 43.0561 31C43.0561 26.4331 39.6795 22.6813 35.2937 22.0474V24.5314H32.7063ZM34 38.7622C33.2885 38.7622 32.7063 38.18 32.7063 37.4685C32.7063 36.7569 33.2885 36.1747 34 36.1747C34.7116 36.1747 35.2937 36.7569 35.2937 37.4685C35.2937 38.18 34.7116 38.7622 34 38.7622ZM41.7624 30.9998C41.7624 30.2882 41.1802 29.706 40.4687 29.706C39.7571 29.706 39.1749 30.2882 39.1749 30.9998C39.1749 31.7113 39.7571 32.2935 40.4687 32.2935C41.1802 32.2935 41.7624 31.7113 41.7624 30.9998ZM27.5314 32.2935C26.8198 32.2935 26.2376 31.7113 26.2376 30.9998C26.2376 30.2882 26.8198 29.706 27.5314 29.706C28.2429 29.706 28.8251 30.2882 28.8251 30.9998C28.8251 31.7113 28.2429 32.2935 27.5314 32.2935Z" fill="white"/>
<defs>
<filter id="filter0_dd" x="0" y="0" width="68" height="68" filterUnits="userSpaceOnUse" color-interpolation-filters="sRGB">
<feFlood flood-opacity="0" result="BackgroundImageFix"/>
<feColorMatrix in="SourceAlpha" type="matrix" values="0 0 0 0 0 0 0 0 0 0 0 0 0 0 0 0 0 0 127 0"/>
<feOffset dy="3"/>
<feGaussianBlur stdDeviation="3"/>
<feColorMatrix type="matrix" values="0 0 0 0 0 0 0 0 0 0 0 0 0 0 0 0 0 0 0.16 0"/>
<feBlend mode="normal" in2="BackgroundImageFix" result="effect1_dropShadow"/>
<feColorMatrix in="SourceAlpha" type="matrix" values="0 0 0 0 0 0 0 0 0 0 0 0 0 0 0 0 0 0 127 0"/>
<feOffset dy="3"/>
<feGaussianBlur stdDeviation="3"/>
<feColorMatrix type="matrix" values="0 0 0 0 0 0 0 0 0 0 0 0 0 0 0 0 0 0 0.23 0"/>
<feBlend mode="normal" in2="effect1_dropShadow" result="effect2_dropShadow"/>
<feBlend mode="normal" in="SourceGraphic" in2="effect2_dropShadow" result="shape"/>
</filter>
<linearGradient id="paint0_linear" x1="6.27399" y1="3" x2="6.27399" y2="58.452" gradientUnits="userSpaceOnUse">
<stop stop-opacity="0.01"/>
<stop offset="0.8" stop-opacity="0.02"/>
<stop offset="1" stop-opacity="0.04"/>
</linearGradient>
<linearGradient id="paint1_linear" x1="6" y1="3" x2="6" y2="59" gradientUnits="userSpaceOnUse">
<stop stop-color="white" stop-opacity="0.12"/>
<stop offset="0.2" stop-color="white" stop-opacity="0.06"/>
<stop offset="1" stop-color="white" stop-opacity="0.01"/>
</linearGradient>
</defs>
</svg>
