<svg width="56" height="56" viewBox="0 0 56 56" fill="none" xmlns="http://www.w3.org/2000/svg">
<g clip-path="url(#clip0)">
<path d="M25.1034 56.0001H5.79316C2.59339 56.0001 0 53.4067 0 50.207V38.8921C0 36.3093 1.29084 33.8985 3.43919 32.4657L9.64075 28.3323C10.9094 27.4865 12.4002 27.0347 13.9247 27.0347H22.207C24.3398 27.0347 26.069 28.7639 26.069 30.8967V55.0347L25.1034 56.0001Z" fill="#4398D1"/>
<path d="M23.0324 27.1313L15.0254 32.4697C12.878 33.9016 11.5872 36.3115 11.5862 38.8923V50.2072C11.5862 53.4069 14.1796 56.0003 17.3793 56.0003H25.1035L26.0691 55.0348V30.8968C26.0651 29.0846 24.8022 27.5185 23.0324 27.1313Z" fill="#398CC4"/>
<path d="M15.0254 32.4657L22.207 27.6787V27.0347H13.9247C12.4002 27.0347 10.9094 27.4855 9.64075 28.3323L3.43919 32.4657C1.29084 33.8985 0 36.3093 0 38.8921V48.2759H11.5862V38.8921C11.5862 36.3093 12.8772 33.8985 15.0254 32.4657Z" fill="#97D3E6"/>
<path d="M25.1038 56.0004C27.7701 56.0004 29.9316 53.8389 29.9316 51.1725C29.9316 48.5062 27.7701 46.3447 25.1038 46.3447C22.4374 46.3447 20.2759 48.5062 20.2759 51.1725C20.2759 53.8389 22.4374 56.0004 25.1038 56.0004Z" fill="#266599"/>
<path d="M49.2414 50.2069L48.2758 45.3794H44.4138L43.4482 50.2069H36.6896V56H56V50.2069H49.2414Z" fill="#266599"/>
<path d="M48.2758 14.4824H44.4138V45.3787H48.2758V14.4824Z" fill="#4398D1"/>
<path d="M22.2065 23.1719H18.3444V27.0339H22.2065V23.1719Z" fill="#398CC4"/>
<path d="M18.3448 23.1724V19.3104C18.3448 17.1776 16.6155 15.4483 14.4827 15.4483H8.68958C4.42396 15.4483 0.965408 11.9899 0.965408 7.72417C0.965518 3.45844 4.42396 0 8.68958 0H40.5516C44.8172 0 48.2758 3.45844 48.2758 7.72417V14.4828H44.4138V7.72417C44.4138 5.59136 42.6845 3.86214 40.5517 3.86214H8.68958C6.55677 3.86214 4.82755 5.59136 4.82755 7.72417C4.82755 9.85698 6.55677 11.5862 8.68958 11.5862H14.4827C18.7484 11.5862 22.2069 15.0446 22.2069 19.3104V23.1724H18.3448Z" fill="#97D3E6"/>
<path d="M4.82753 39.5864H2.89651V41.5174H4.82753V39.5864Z" fill="#EBEBEB"/>
<path d="M8.68967 39.5864H6.75865V41.5174H8.68967V39.5864Z" fill="#EBEBEB"/>
<path d="M16.5325 47.3458L20.8552 43.6412C21.7135 42.9074 22.2069 41.8347 22.2069 40.706V27.6782L15.0254 32.4652C12.8771 33.8981 11.5862 36.309 11.5862 38.8917V48.2755H14.0193C14.9414 48.2756 15.8325 47.9454 16.5325 47.3458Z" fill="#7DBDD1"/>
<path d="M11.5861 43.4482H0V45.3793H11.5861V43.4482Z" fill="#EBEBEB"/>
</g>
<defs>
<clipPath id="clip0">
<rect width="56" height="56" fill="white"/>
</clipPath>
</defs>
</svg>
