<svg width="68" height="70" viewBox="0 0 68 70" fill="none" xmlns="http://www.w3.org/2000/svg">
<g filter="url(#filter0_dd)">
<path fill-rule="evenodd" clip-rule="evenodd" d="M34 66C51.6731 66 66 51.6731 66 34C66 16.3269 51.6731 2 34 2C16.3269 2 2 16.3269 2 34C2 51.6731 16.3269 66 34 66Z" fill="#1D1C1D"/>
</g>
<path opacity="0.3" d="M46.4097 27.9255C46.6078 28.479 45.9597 29.7495 44.4667 31.7347C44.2597 32.012 43.9772 32.3802 43.6244 32.8365C43.278 33.2775 43.0402 33.5881 42.9111 33.7696C42.7807 33.9511 42.6491 34.1659 42.5161 34.4113C42.3832 34.658 42.3295 34.8395 42.3602 34.9558C42.3896 35.0721 42.4471 35.2204 42.5276 35.4019C42.6107 35.5834 42.7513 35.7701 42.9495 35.9592C43.1476 36.1497 43.3956 36.3798 43.6883 36.6469C43.7228 36.6635 43.7445 36.6814 43.7522 36.6981C44.9716 37.8306 45.7961 38.7854 46.2281 39.5626C46.255 39.6061 46.2831 39.6597 46.3138 39.7236C46.3432 39.7888 46.3739 39.9039 46.4045 40.0675C46.4339 40.2311 46.4301 40.3794 46.3969 40.5085C46.3624 40.6376 46.255 40.7565 46.0735 40.8651C45.892 40.9725 45.6363 41.0262 45.3078 41.0262L41.9921 41.0786C41.7837 41.122 41.5421 41.1003 41.266 41.0134C40.9874 40.9265 40.7649 40.8319 40.5911 40.7283L40.3316 40.5724C40.0734 40.3909 39.7705 40.1148 39.4254 39.7441C39.0789 39.3721 38.785 39.0372 38.537 38.7394C38.2916 38.4416 38.0282 38.191 37.747 37.9878C37.4671 37.7858 37.2217 37.7181 37.0159 37.7871C36.989 37.7961 36.9558 37.8114 36.9123 37.8331C36.8689 37.8549 36.7947 37.9162 36.6912 38.021C36.5864 38.1233 36.4943 38.2511 36.4125 38.4019C36.3295 38.5541 36.2579 38.7778 36.1914 39.0756C36.1275 39.3747 36.0994 39.7096 36.1083 40.0803C36.1083 40.2094 36.093 40.3283 36.0636 40.4369C36.0329 40.5456 35.9984 40.6248 35.9652 40.6759L35.914 40.7424C35.7594 40.906 35.528 41.0006 35.2263 41.0262H33.7372C33.1223 41.0607 32.4935 40.9904 31.8454 40.8127C31.1973 40.6363 30.6285 40.4075 30.1402 40.1263C29.6532 39.8451 29.2071 39.5613 28.807 39.2712C28.4044 38.981 28.1001 38.733 27.8918 38.5259L27.5684 38.214C27.4815 38.1284 27.3626 37.9993 27.2118 37.8255C27.0609 37.6529 26.7529 37.2605 26.2863 36.6469C25.8185 36.0334 25.3622 35.3815 24.9122 34.6899C24.4623 33.9997 23.9331 33.087 23.3246 31.9558C22.7162 30.8245 22.1525 29.6486 21.6335 28.4304C21.5824 28.2936 21.5556 28.1773 21.5556 28.0814C21.5556 27.9856 21.5683 27.9165 21.5952 27.8731L21.6463 27.7964C21.7767 27.6328 22.0221 27.551 22.3851 27.551L25.9361 27.5241C26.0396 27.542 26.138 27.5689 26.2352 27.6085C26.3298 27.6468 26.3975 27.6839 26.441 27.7184L26.5075 27.7568C26.6442 27.8526 26.7465 27.9907 26.8168 28.1722C26.9906 28.6042 27.1888 29.0503 27.4137 29.5131C27.6374 29.9758 27.8151 30.3273 27.9455 30.5689L28.1513 30.9447C28.4018 31.4637 28.6447 31.9123 28.876 32.2932C29.1112 32.6729 29.3209 32.9694 29.5062 33.1803C29.6916 33.3925 29.8705 33.5587 30.0443 33.6789C30.2169 33.8003 30.3639 33.8604 30.4853 33.8604C30.6055 33.8604 30.7205 33.8399 30.8343 33.7965C30.8509 33.7875 30.8726 33.7658 30.8982 33.7313C30.9251 33.6967 30.9762 33.6009 31.0542 33.4462C31.1334 33.2903 31.1897 33.087 31.2293 32.8365C31.2689 32.586 31.3085 32.237 31.352 31.7871C31.3954 31.3384 31.3954 30.7977 31.352 30.1675C31.3354 29.8224 31.2957 29.5067 31.2344 29.2216C31.1743 28.9366 31.1142 28.7385 31.0542 28.626L30.9762 28.47C30.7602 28.1773 30.3946 27.9907 29.8743 27.9127C29.7631 27.8948 29.7836 27.7926 29.9408 27.6008C30.0789 27.4385 30.2425 27.3081 30.4317 27.2135C30.8905 26.9885 31.9234 26.885 33.5288 26.9016C34.2383 26.9106 34.8199 26.9668 35.2787 27.0704C35.4513 27.1138 35.597 27.1726 35.7133 27.2455C35.8284 27.3183 35.9179 27.4231 35.9779 27.5561C36.0393 27.6903 36.084 27.8283 36.1147 27.9702C36.1441 28.1134 36.1594 28.3102 36.1594 28.5608C36.1594 28.8113 36.1556 29.0491 36.1467 29.274C36.139 29.4977 36.1275 29.8032 36.1147 30.1867C36.1006 30.5715 36.0955 30.9281 36.0955 31.2566C36.0955 31.3512 36.0891 31.5327 36.0828 31.7998C36.0725 32.0683 36.0712 32.2753 36.0764 32.4223C36.0802 32.5693 36.0955 32.7445 36.1224 32.9477C36.1467 33.1509 36.1978 33.3184 36.2694 33.4526C36.3435 33.5868 36.4407 33.6916 36.5621 33.7696C36.6298 33.7875 36.704 33.8041 36.7819 33.822C36.8586 33.8399 36.9724 33.7913 37.1194 33.6789C37.2651 33.5676 37.43 33.4181 37.6115 33.2315C37.7918 33.0461 38.0167 32.7572 38.2852 32.3635C38.5523 31.9711 38.8463 31.5071 39.1659 30.9703C39.6836 30.0717 40.1476 29.1015 40.5528 28.0546C40.5873 27.969 40.6307 27.8935 40.6819 27.8283C40.7343 27.7644 40.7816 27.7184 40.825 27.6916L40.8762 27.6532C40.894 27.6443 40.9158 27.6341 40.9413 27.6213C40.9669 27.6085 41.0244 27.5957 41.1113 27.5829C41.1957 27.5689 41.2826 27.5676 41.3696 27.5753L45.102 27.551C45.4382 27.5075 45.7143 27.5177 45.929 27.5829C46.1476 27.6468 46.2806 27.7184 46.3317 27.7964L46.4097 27.9255Z" fill="white"/>
<defs>
<filter id="filter0_dd" x="0" y="0" width="68" height="70" filterUnits="userSpaceOnUse" color-interpolation-filters="sRGB">
<feFlood flood-opacity="0" result="BackgroundImageFix"/>
<feColorMatrix in="SourceAlpha" type="matrix" values="0 0 0 0 0 0 0 0 0 0 0 0 0 0 0 0 0 0 127 0"/>
<feOffset dy="2"/>
<feGaussianBlur stdDeviation="1"/>
<feColorMatrix type="matrix" values="0 0 0 0 0 0 0 0 0 0 0 0 0 0 0 0 0 0 0.24 0"/>
<feBlend mode="normal" in2="BackgroundImageFix" result="effect1_dropShadow"/>
<feColorMatrix in="SourceAlpha" type="matrix" values="0 0 0 0 0 0 0 0 0 0 0 0 0 0 0 0 0 0 127 0"/>
<feOffset/>
<feGaussianBlur stdDeviation="1"/>
<feColorMatrix type="matrix" values="0 0 0 0 0 0 0 0 0 0 0 0 0 0 0 0 0 0 0.12 0"/>
<feBlend mode="normal" in2="effect1_dropShadow" result="effect2_dropShadow"/>
<feBlend mode="normal" in="SourceGraphic" in2="effect2_dropShadow" result="shape"/>
</filter>
</defs>
</svg>
