<svg width="56" height="56" viewBox="0 0 56 56" fill="none" xmlns="http://www.w3.org/2000/svg">
<g clip-path="url(#clip0)">
<path d="M35.7241 54.0687H8.68963L4.82761 24.1377H39.5861L35.7241 54.0687Z" fill="#4398D1"/>
<path d="M42.4829 20.2759H1.9311V24.1379H42.4829V20.2759Z" fill="#4398D1"/>
<path d="M4.82764 24.1382L5.32584 28.0002H39.088L39.5862 24.1382H4.82764Z" fill="#398CC4"/>
<path d="M20.276 20.276H6.7588V11.5864L10.6208 6.75879H16.414L20.276 11.5864V20.276Z" fill="#726891"/>
<path d="M16.4136 0H10.6205V6.7586H16.4136V0Z" fill="#E8594A"/>
<path d="M20.2764 11.5864H6.7588V20.2763H20.2764V11.5864Z" fill="#7A709C"/>
<path d="M35.5423 3.26022L33.8148 4.12256L37.7556 12.0175L39.4832 11.1552L35.5423 3.26022Z" fill="#E66712"/>
<path d="M41.5177 0H37.6557V3.86202H41.5177V0Z" fill="#F77219"/>
<path d="M32.8275 7.72416H24.1379C24.1379 3.45843 27.5964 0 31.862 0H37.6551V3.86202L32.8275 7.72416Z" fill="#F77219"/>
<path d="M32.8274 7.72363H27.0343V11.5857H32.8274V7.72363Z" fill="#D4D4D4"/>
<path d="M27.0344 11.5864H32.8275L37.6551 16.414V20.276H24.1379V14.483L27.0344 11.5864Z" fill="#EBEBEB"/>
<path d="M49.2413 40.5518H47.7293C46.8189 40.5518 45.9209 40.7642 45.106 41.1706C43.455 41.997 41.5104 41.997 39.8594 41.1706C39.0445 40.7642 38.1466 40.5518 37.236 40.5518H35.724C33.0582 40.5518 30.8965 42.7136 30.8965 45.3794V51.1725C30.8965 53.8383 33.0582 56.0001 35.724 56.0001H37.236C38.1465 56.0001 39.0444 55.7877 39.8594 55.3813C41.5104 54.5548 43.455 54.5548 45.106 55.3813C45.9208 55.7877 46.8188 56.0001 47.7292 56.0001H49.2412C51.907 56.0001 54.0688 53.8383 54.0688 51.1725V45.3794C54.0689 42.7136 51.9071 40.5518 49.2413 40.5518Z" fill="#F5A338"/>
<path d="M49.2413 50.2069H47.7293C46.8189 50.2069 45.9209 49.9945 45.106 49.5881C43.455 48.7616 41.5104 48.7616 39.8594 49.5881C39.0445 49.9945 38.1466 50.2069 37.236 50.2069H35.724C33.0582 50.2069 30.8965 48.0451 30.8965 45.3793C30.8965 42.7136 33.0582 40.5518 35.724 40.5518H37.236C38.1465 40.5518 39.0444 40.7642 39.8594 41.1706C41.5104 41.997 43.455 41.997 45.106 41.1706C45.9208 40.7642 46.8188 40.5518 47.7292 40.5518H49.2412C51.907 40.5518 54.0688 42.7136 54.0688 45.3793C54.0689 48.0452 51.9071 50.2069 49.2413 50.2069Z" fill="#F9B44D"/>
<path d="M50.2068 43.4482H48.2758V45.3792H50.2068V43.4482Z" fill="#F5A338"/>
<path d="M40.5513 43.4482H38.6202V45.3792H40.5513V43.4482Z" fill="#F5A338"/>
<path d="M36.6893 44.4136H34.7583V46.3446H36.6893V44.4136Z" fill="#F5A338"/>
<path d="M46.3449 44.4136H44.4139V46.3446H46.3449V44.4136Z" fill="#F5A338"/>
<path d="M27.0345 27.9995V20.2754H11.5863V42.4822C11.5863 44.082 12.8829 45.3788 14.4829 45.3788H24.138C25.7378 45.3788 27.0346 44.0821 27.0346 42.4822V32.827L30.9546 34.787C31.9886 35.3046 33.2458 34.8855 33.7632 33.8524C33.7632 33.8514 33.7642 33.8514 33.7642 33.8504L33.7884 33.8022C34.329 32.7411 33.9062 31.4424 32.846 30.9028C32.8422 30.9008 32.8374 30.898 32.8324 30.896L27.0345 27.9995Z" fill="#97D3E6"/>
<path d="M32.8325 30.8961L27.0345 27.9995V20.2754H26.3027C22.7979 31.7988 16.6475 38.8413 11.6269 42.908C11.8345 44.3264 13.0501 45.3778 14.4829 45.3788H24.1381C25.7379 45.3788 27.0346 44.0821 27.0346 42.4822V32.827L30.9546 34.787C31.9887 35.3046 33.2458 34.8855 33.7633 33.8524C33.7633 33.8514 33.7643 33.8514 33.7643 33.8504L33.7884 33.8022C34.3291 32.7411 33.9062 31.4424 32.8461 30.9028C32.8412 30.9009 32.8373 30.898 32.8325 30.8961Z" fill="#8AC9DE"/>
<path d="M16.4134 35.7236H14.4824V45.3792H16.4134V35.7236Z" fill="#7DBDD1"/>
<path d="M20.2755 35.7236H18.3445V45.3792H20.2755V35.7236Z" fill="#7DBDD1"/>
<path d="M24.1375 35.7236H22.2065V45.3792H24.1375V35.7236Z" fill="#7DBDD1"/>
</g>
<defs>
<clipPath id="clip0">
<rect width="56" height="56" fill="white"/>
</clipPath>
</defs>
</svg>
