<svg width="56" height="56" viewBox="0 0 56 56" fill="none" xmlns="http://www.w3.org/2000/svg">
<g clip-path="url(#clip0)">
<path d="M19.1332 49.9389C29.7954 49.9389 38.4389 41.2955 38.4389 30.6333C38.4389 19.9711 29.7954 11.3276 19.1332 11.3276C8.47105 11.3276 -0.172371 19.9711 -0.172371 30.6333C-0.172371 41.2955 8.47105 49.9389 19.1332 49.9389Z" fill="#E9F1F2"/>
<path d="M36.5083 33.5295C36.0101 33.5298 35.5314 33.7236 35.1733 34.0701C34.9817 33.717 34.7183 33.4079 34.4001 33.1627C34.0818 32.9175 33.7158 32.7416 33.3255 32.6463C32.9352 32.551 32.5293 32.5385 32.1338 32.6094C31.7384 32.6804 31.3622 32.8334 31.0294 33.0585C30.679 32.7416 30.2238 32.5655 29.7514 32.5642C29.6891 32.5695 29.6273 32.5782 29.566 32.5903C29.7536 32.0989 29.8 31.5648 29.6998 31.0485C29.5997 30.5321 29.3571 30.0541 28.9994 29.6684C29.4359 29.1956 29.7011 28.5901 29.7528 27.9487C29.8044 27.3073 29.6395 26.6671 29.2843 26.1306C28.9291 25.594 28.4043 25.1921 27.7937 24.9891C27.1831 24.7861 26.522 24.7938 25.9163 25.0109C26.4048 24.5746 26.7257 23.9816 26.8239 23.334C26.922 22.6865 26.7912 22.025 26.454 21.4635C26.6659 21.1156 26.7979 20.725 26.8405 20.3198C26.883 19.9147 26.8351 19.5051 26.7001 19.1208C27.1921 19.6389 27.8588 19.9562 28.5712 20.0112C29.2836 20.0663 29.9911 19.8553 30.5569 19.4189C31.1227 18.9825 31.5066 18.3519 31.6343 17.6489C31.7621 16.9459 31.6246 16.2204 31.2485 15.6129C30.6476 15.1324 30.0188 14.6879 29.3652 14.2818C29.1746 14.2431 28.9806 14.2237 28.7861 14.2239C28.7812 14.1198 28.7709 14.0161 28.7552 13.9131C27.2856 13.0669 25.7099 12.42 24.0697 11.9893C23.7351 12.2579 23.4648 12.598 23.2787 12.9847C23.0926 13.3713 22.9955 13.7948 22.9944 14.2239C22.9991 14.3186 23.0088 14.413 23.0234 14.5067C22.6372 14.269 22.1788 14.1773 21.7309 14.2481C21.283 14.3189 20.8752 14.5476 20.5812 14.8928C20.3879 14.6694 20.1458 14.4934 19.8736 14.3786C19.6013 14.2638 19.3063 14.2132 19.0114 14.2307C18.7165 14.2482 18.4296 14.3334 18.1729 14.4796C17.9161 14.6258 17.6965 14.8292 17.531 15.074C17.3656 15.3187 17.2586 15.5982 17.2185 15.891C17.1785 16.1837 17.2063 16.4817 17.2999 16.7619C17.3935 17.0421 17.5504 17.297 17.7583 17.5069C17.9663 17.7167 18.2197 17.8759 18.4991 17.9721C18.2521 18.3374 18.1382 18.7765 18.1763 19.2158C18.2145 19.6551 18.4024 20.068 18.7085 20.3853C18.1447 20.6927 17.6994 21.1795 17.4432 21.7684C17.187 22.3574 17.1345 23.0149 17.294 23.6371C17.4535 24.2593 17.8158 24.8105 18.3238 25.2035C18.8318 25.5966 19.4563 25.809 20.0986 25.8073C20.1005 26.5219 20.3686 27.2101 20.8505 27.7378C20.511 28.1097 20.2751 28.5641 20.1663 29.0557C20.0575 29.5473 20.0796 30.0589 20.2305 30.5393C20.3813 31.0197 20.6557 31.452 21.026 31.7931C21.3964 32.1343 21.8498 32.3722 22.3409 32.4832C22.1922 32.7082 22.0924 32.962 22.0478 33.228C22.0032 33.494 22.0149 33.7664 22.082 34.0277C22.1492 34.2889 22.2703 34.5332 22.4376 34.7447C22.6049 34.9563 22.8147 35.1304 23.0535 35.256C23.2923 35.3815 23.5547 35.4556 23.8238 35.4734C24.0929 35.4913 24.3628 35.4526 24.6161 35.3598C24.8694 35.267 25.1004 35.1221 25.2942 34.9346C25.4881 34.747 25.6405 34.5209 25.7416 34.2709C25.7792 34.2873 25.8207 34.2931 25.8584 34.3075C25.5684 34.5734 25.3358 34.8958 25.1749 35.2548C25.014 35.6139 24.9282 36.0021 24.9228 36.3955C24.9174 36.7889 24.9925 37.1792 25.1435 37.5426C25.2945 37.9059 25.5182 38.2345 25.8008 38.5083C26.0834 38.782 26.419 38.995 26.787 39.1343C27.155 39.2736 27.5475 39.3362 27.9406 39.3182C28.3336 39.3002 28.7188 39.2021 29.0726 39.0298C29.4263 38.8575 29.741 38.6147 29.9975 38.3164C30.1651 38.6263 30.415 38.884 30.7196 39.0612C31.0242 39.2383 31.3718 39.328 31.7241 39.3205C32.0764 39.3129 32.4198 39.2083 32.7165 39.0182C33.0132 38.8281 33.2518 38.5599 33.4059 38.243C33.7788 38.1409 34.1277 37.9657 34.4323 37.7276C34.7368 37.4894 34.9911 37.1931 35.1801 36.8559C35.4504 37.1154 35.7907 37.2902 36.1591 37.3588C36.5275 37.4274 36.9079 37.3868 37.2535 37.242C37.6037 36.298 37.8784 35.3278 38.075 34.3404C37.8971 34.0905 37.6621 33.8865 37.3897 33.7455C37.1172 33.6045 36.8151 33.5305 36.5083 33.5295Z" fill="#D0D8DA"/>
<path d="M25.8903 42.2167C22.6202 42.2222 19.4026 41.3955 16.5401 39.8143C13.6777 38.2332 11.2646 35.9497 9.52814 33.1788C7.79163 30.4079 6.78877 27.2407 6.61394 23.9753C6.43911 20.7099 7.09806 17.4537 8.52878 14.5132C6.04165 16.1443 3.96521 18.3283 2.4616 20.8945C0.957996 23.4608 0.0679198 26.3398 -0.139123 29.3069C-0.346166 32.274 0.135429 35.2488 1.26805 37.999C2.40068 40.7492 4.15368 43.2004 6.39017 45.1611C8.62666 47.1219 11.2861 48.5391 14.1609 49.3022C17.0356 50.0653 20.0478 50.1536 22.9623 49.5601C25.8768 48.9667 28.6147 47.7076 30.9622 45.8812C33.3096 44.0548 35.2032 41.7105 36.4949 39.0313C33.3493 41.111 29.6612 42.2188 25.8903 42.2167Z" fill="#D0D8DA"/>
<path d="M19.1332 44.1475C26.5968 44.1475 32.6472 38.0971 32.6472 30.6336C32.6472 23.17 26.5968 17.1196 19.1332 17.1196C11.6697 17.1196 5.61932 23.17 5.61932 30.6336C5.61932 38.0971 11.6697 44.1475 19.1332 44.1475Z" fill="#D0D8DA"/>
<path d="M27.8209 38.3563C28.2347 38.3552 28.6433 38.2649 29.019 38.0915C29.3946 37.9181 29.7284 37.6657 29.9976 37.3514C30.0357 37.4091 30.0766 37.4648 30.1202 37.5184C31.3732 35.768 32.1867 33.7418 32.4919 31.6109C31.9697 31.6361 31.4641 31.8029 31.0295 32.0935C30.6791 31.7767 30.2239 31.6006 29.7515 31.5993C29.6893 31.6045 29.6274 31.6132 29.5661 31.6254C29.7537 31.134 29.8001 30.5999 29.6999 30.0835C29.5998 29.5672 29.3572 29.0891 28.9995 28.7035C29.436 28.2307 29.7013 27.6251 29.7529 26.9838C29.8046 26.3424 29.6396 25.7022 29.2844 25.1657C28.9292 24.6291 28.4044 24.2272 27.7938 24.0242C27.1832 23.8212 26.5221 23.8289 25.9164 24.046C26.4049 23.6097 26.7258 23.0166 26.824 22.3691C26.9221 21.7215 26.7913 21.06 26.4541 20.4986C26.7144 20.0602 26.853 19.5604 26.8556 19.0506C26.8541 18.8813 26.8357 18.7125 26.8006 18.5468C24.5485 16.9865 21.8732 16.1519 19.1334 16.1548C18.6003 16.1576 18.0678 16.1917 17.5387 16.2571C17.7712 16.604 18.1099 16.8661 18.504 17.0042C18.2571 17.3696 18.1431 17.8086 18.1813 18.2479C18.2194 18.6873 18.4073 19.1001 18.7135 19.4174C18.1485 19.724 17.7019 20.2103 17.4445 20.7994C17.1872 21.3885 17.1338 22.0466 17.2929 22.6695C17.4519 23.2923 17.8143 23.8443 18.3225 24.2379C18.8308 24.6315 19.4558 24.8442 20.0987 24.8423C20.1006 25.557 20.3687 26.2452 20.8506 26.7729C20.5111 27.1447 20.2752 27.5992 20.1664 28.0908C20.0576 28.5824 20.0797 29.094 20.2306 29.5743C20.3815 30.0547 20.6558 30.4871 21.0261 30.8282C21.3965 31.1693 21.8499 31.4073 22.341 31.5182C22.1924 31.7433 22.0925 31.997 22.0479 32.263C22.0033 32.5291 22.015 32.8015 22.0821 33.0627C22.1493 33.324 22.2704 33.5682 22.4377 33.7798C22.6051 33.9914 22.8149 34.1655 23.0536 34.291C23.2924 34.4165 23.5548 34.4906 23.8239 34.5085C24.093 34.5264 24.3629 34.4877 24.6162 34.3949C24.8695 34.3021 25.1005 34.1572 25.2943 33.9696C25.4882 33.7821 25.6406 33.556 25.7417 33.3059C25.7793 33.3223 25.8208 33.3281 25.8585 33.3426C25.4301 33.7367 25.1308 34.251 24.9998 34.8182C24.8688 35.3853 24.9122 35.9788 25.1244 36.5209C25.3365 37.0629 25.7075 37.5282 26.1887 37.8557C26.6699 38.1832 27.2388 38.3577 27.8209 38.3563Z" fill="#93999A"/>
<path d="M25.8904 42.2172C21.1773 42.2155 16.6278 40.4891 13.0999 37.3637C9.57215 34.2383 7.31 29.93 6.74022 25.2515C5.59528 27.8764 5.31486 30.7975 5.9395 33.5924C6.56415 36.3872 8.06149 38.911 10.215 40.7988C12.3686 42.6865 15.0667 43.8405 17.9193 44.0937C20.7718 44.347 23.6311 43.6864 26.0835 42.2076C26.0188 42.2086 25.9561 42.2172 25.8904 42.2172Z" fill="#93999A"/>
<path d="M37.4736 11.3279C37.4109 11.3279 37.353 11.3443 37.2902 11.3463C37.4085 11.0317 37.4706 10.6987 37.4736 10.3626C37.4736 9.59461 37.1685 8.85804 36.6254 8.31497C36.0824 7.77189 35.3458 7.4668 34.5778 7.4668C33.8097 7.4668 33.0732 7.77189 32.5301 8.31497C31.987 8.85804 31.6819 9.59461 31.6819 10.3626C30.4019 10.3626 29.1743 10.8711 28.2691 11.7763C27.364 12.6814 26.8555 13.909 26.8555 15.189C26.8555 16.4691 27.364 17.6967 28.2691 18.6018C29.1743 19.5069 30.4019 20.0154 31.6819 20.0154C32.4735 20.0102 33.2514 19.8082 33.9455 19.4276C34.4901 20.0144 35.1723 20.4564 35.9304 20.7136C36.6886 20.9708 37.4989 21.0351 38.2881 20.9008C39.0774 20.7664 39.8207 20.4376 40.4511 19.944C41.0814 19.4504 41.5789 18.8076 41.8986 18.0736C42.2183 17.3396 42.3502 16.5376 42.2823 15.7398C42.2145 14.9421 41.949 14.1739 41.5099 13.5044C41.0707 12.835 40.4718 12.2855 39.7671 11.9055C39.0624 11.5255 38.2742 11.327 37.4736 11.3279Z" fill="#4891D3"/>
<path d="M20.0985 42.2169C19.9593 41.2422 19.5077 40.339 18.8115 39.6428C18.1153 38.9466 17.2121 38.495 16.2374 38.3558C17.2121 38.2165 18.1153 37.7649 18.8115 37.0687C19.5077 36.3725 19.9593 35.4693 20.0985 34.4946C20.2378 35.4693 20.6894 36.3725 21.3856 37.0687C22.0818 37.7649 22.985 38.2165 23.9597 38.3558C22.985 38.495 22.0818 38.9466 21.3856 39.6428C20.6894 40.339 20.2378 41.2422 20.0985 42.2169Z" fill="#84D2F4"/>
<path d="M19.7008 36.4812L20.0985 34.4946C19.9593 35.4693 19.5077 36.3725 18.8115 37.0687C18.1153 37.7649 17.2121 38.2165 16.2374 38.3558C17.2121 38.495 18.1153 38.9466 18.8115 39.6428C19.5077 40.339 19.9593 41.2422 20.0985 42.2169C20.2378 41.2422 20.6894 40.339 21.3856 39.6428C22.0818 38.9466 22.985 38.495 23.9597 38.3558L21.9731 38.7534C21.6614 38.8159 21.339 38.8004 21.0347 38.7084C20.7303 38.6163 20.4535 38.4505 20.2286 38.2256C20.0038 38.0008 19.838 37.7239 19.7459 37.4196C19.6538 37.1153 19.6384 36.7929 19.7008 36.4812Z" fill="#57B7EB"/>
<path d="M5.61932 48.0089C5.48009 47.0342 5.02849 46.131 4.33229 45.4348C3.6361 44.7386 2.73287 44.287 1.7582 44.1477C2.73287 44.0085 3.6361 43.5569 4.33229 42.8607C5.02849 42.1645 5.48009 41.2613 5.61932 40.2866C5.75856 41.2613 6.21016 42.1645 6.90636 42.8607C7.60255 43.5569 8.50577 44.0085 9.48045 44.1477C8.50577 44.287 7.60255 44.7386 6.90636 45.4348C6.21016 46.131 5.75856 47.0342 5.61932 48.0089Z" fill="#84D2F4"/>
<path d="M5.22163 42.2732L5.61932 40.2866C5.48009 41.2613 5.02849 42.1645 4.33229 42.8607C3.6361 43.5569 2.73287 44.0085 1.7582 44.1477C2.73287 44.287 3.6361 44.7386 4.33229 45.4348C5.02849 46.131 5.48009 47.0342 5.61932 48.0089C5.75856 47.0342 6.21016 46.131 6.90636 45.4348C7.60255 44.7386 8.50577 44.287 9.48045 44.1477L7.4939 44.5454C7.18215 44.6079 6.85979 44.5924 6.55546 44.5003C6.25114 44.4083 5.97427 44.2425 5.74944 44.0176C5.52461 43.7928 5.3588 43.5159 5.26672 43.2116C5.17464 42.9073 5.15915 42.5849 5.22163 42.2732Z" fill="#57B7EB"/>
<path d="M5.61932 20.0152C5.48009 19.0405 5.02849 18.1373 4.33229 17.4411C3.6361 16.7449 2.73287 16.2933 1.7582 16.1541C2.73287 16.0149 3.6361 15.5633 4.33229 14.8671C5.02849 14.1709 5.48009 13.2676 5.61932 12.293C5.75856 13.2676 6.21016 14.1709 6.90636 14.8671C7.60255 15.5633 8.50577 16.0149 9.48045 16.1541C8.50577 16.2933 7.60255 16.7449 6.90636 17.4411C6.21016 18.1373 5.75856 19.0405 5.61932 20.0152Z" fill="#84D2F4"/>
<path d="M5.22163 14.2795L5.61932 12.293C5.48009 13.2676 5.02849 14.1709 4.33229 14.8671C3.6361 15.5633 2.73287 16.0149 1.7582 16.1541C2.73287 16.2933 3.6361 16.7449 4.33229 17.4411C5.02849 18.1373 5.48009 19.0405 5.61932 20.0152C5.75856 19.0405 6.21016 18.1373 6.90636 17.4411C7.60255 16.7449 8.50577 16.2933 9.48045 16.1541L7.4939 16.5518C7.18215 16.6143 6.85979 16.5988 6.55546 16.5067C6.25114 16.4146 5.97427 16.2488 5.74944 16.024C5.52461 15.7992 5.3588 15.5223 5.26672 15.218C5.17464 14.9136 5.15915 14.5913 5.22163 14.2795Z" fill="#57B7EB"/>
<path d="M32.6472 15.1891C32.6472 14.4211 32.3421 13.6846 31.799 13.1415C31.2559 12.5984 30.5194 12.2933 29.7514 12.2933C29.7514 11.5253 29.4463 10.7887 28.9032 10.2456C28.3601 9.70256 27.6235 9.39746 26.8555 9.39746C26.0875 9.39746 25.3509 9.70256 24.8078 10.2456C24.2648 10.7887 23.9597 11.5253 23.9597 12.2933C23.9644 12.388 23.9741 12.4824 23.9886 12.5761C23.6025 12.3384 23.144 12.2467 22.6961 12.3175C22.2483 12.3883 21.8405 12.617 21.5465 12.9622C21.3532 12.7388 21.1111 12.5629 20.8388 12.448C20.5666 12.3332 20.2716 12.2826 19.9767 12.3001C19.6818 12.3176 19.3949 12.4028 19.1381 12.549C18.8814 12.6953 18.6618 12.8986 18.4963 13.1434C18.3308 13.3881 18.2239 13.6677 18.1838 13.9604C18.1437 14.2531 18.1716 14.5511 18.2652 14.8313C18.3588 15.1115 18.5156 15.3664 18.7236 15.5763C18.9315 15.7862 19.185 15.9453 19.4644 16.0415C19.2174 16.4068 19.1035 16.8459 19.1416 17.2852C19.1797 17.7245 19.3676 18.1374 19.6738 18.4547C19.1099 18.7622 18.6647 19.2489 18.4085 19.8378C18.1522 20.4268 18.0997 21.0844 18.2592 21.7065C18.4187 22.3287 18.7811 22.8799 19.2891 23.2729C19.797 23.666 20.4216 23.8784 21.0638 23.8767C21.0658 24.5913 21.3339 25.2796 21.8158 25.8072C21.4763 26.1791 21.2404 26.6335 21.1315 27.1251C21.0227 27.6167 21.0449 28.1283 21.1958 28.6087C21.3466 29.0891 21.6209 29.5214 21.9913 29.8625C22.3616 30.2037 22.815 30.4416 23.3062 30.5526C23.1575 30.7776 23.0577 31.0314 23.0131 31.2974C22.9685 31.5634 22.9802 31.8358 23.0473 32.0971C23.1144 32.3583 23.2356 32.6026 23.4029 32.8141C23.5702 33.0257 23.78 33.1998 24.0188 33.3254C24.2575 33.4509 24.5199 33.525 24.7891 33.5428C25.0582 33.5607 25.3281 33.522 25.5814 33.4292C25.8346 33.3364 26.0656 33.1915 26.2595 33.004C26.4533 32.8164 26.6057 32.5903 26.7069 32.3403C27.3129 32.5957 27.988 32.6366 28.6205 32.4561C29.2529 32.2756 29.8048 31.8847 30.1848 31.3478C30.5648 30.811 30.7501 30.1606 30.71 29.5041C30.67 28.8476 30.4071 28.2245 29.9647 27.7378C30.4011 27.265 30.6664 26.6595 30.7181 26.0181C30.7697 25.3767 30.6048 24.7366 30.2496 24.2C29.8944 23.6635 29.3695 23.2615 28.7589 23.0585C28.1483 22.8556 27.4873 22.8632 26.8816 23.0803C27.37 22.644 27.691 22.051 27.7892 21.4034C27.8873 20.7559 27.7565 20.0944 27.4192 19.5329C27.6312 19.185 27.7632 18.7944 27.8057 18.3892C27.8483 17.9841 27.8004 17.5745 27.6654 17.1902C28.0645 17.6081 28.5796 17.8968 29.1444 18.0191C29.7091 18.1414 30.2975 18.0916 30.8337 17.8762C31.3699 17.6609 31.8293 17.2898 32.1525 16.8108C32.4758 16.3318 32.6481 15.767 32.6472 15.1891Z" fill="#84D2F4"/>
<path d="M31.9157 17.0966C31.8365 17.1015 31.7622 17.1198 31.6821 17.1198C30.9365 17.1186 30.2073 16.9015 29.5824 16.4949C28.9576 16.0882 28.4638 15.5094 28.1607 14.8282C27.6167 14.5777 27.1372 14.2059 26.7591 13.7413C26.1982 14.054 25.5673 14.22 24.9251 14.224C24.8131 14.224 24.7079 14.2008 24.5988 14.1911C24.1596 14.5916 23.633 14.8841 23.0609 15.0455C22.4889 15.2069 21.887 15.2328 21.3032 15.121C20.7194 15.0092 20.1697 14.7629 19.6977 14.4016C19.2258 14.0403 18.8445 13.5739 18.5842 13.0396C18.3932 13.2793 18.2627 13.5615 18.2038 13.8623C18.1448 14.1631 18.1591 14.4736 18.2455 14.7677C18.3318 15.0619 18.4876 15.3309 18.6998 15.5521C18.912 15.7733 19.1743 15.9402 19.4645 16.0387C19.2176 16.404 19.1036 16.8431 19.1418 17.2824C19.1799 17.7217 19.3678 18.1346 19.674 18.4519C19.1086 18.7586 18.6618 19.2454 18.4045 19.835C18.1473 20.4245 18.0943 21.0831 18.2539 21.7063C18.4136 22.3294 18.7768 22.8813 19.2859 23.2746C19.7949 23.6678 20.4207 23.8797 21.064 23.8768C21.066 24.5914 21.334 25.2797 21.8159 25.8073C21.4764 26.1792 21.2405 26.6336 21.1317 27.1252C21.0229 27.6169 21.045 28.1284 21.1959 28.6088C21.3468 29.0892 21.6211 29.5215 21.9915 29.8626C22.3618 30.2038 22.8152 30.4417 23.3063 30.5527C23.1577 30.7777 23.0578 31.0315 23.0132 31.2975C22.9687 31.5635 22.9803 31.8359 23.0474 32.0972C23.1146 32.3584 23.2357 32.6027 23.4031 32.8142C23.5704 33.0258 23.7802 33.2 24.0189 33.3255C24.2577 33.451 24.5201 33.5251 24.7892 33.5429C25.0584 33.5608 25.3283 33.5221 25.5815 33.4293C25.8348 33.3365 26.0658 33.1916 26.2597 33.0041C26.4535 32.8165 26.6059 32.5904 26.707 32.3404C27.3131 32.5958 27.9882 32.6367 28.6206 32.4562C29.2531 32.2757 29.8049 31.8848 30.1849 31.3479C30.5649 30.8111 30.7502 30.1607 30.7102 29.5042C30.6702 28.8477 30.4072 28.2246 29.9648 27.7379C30.4013 27.2651 30.6666 26.6596 30.7182 26.0182C30.7699 25.3768 30.6049 24.7367 30.2497 24.2001C29.8946 23.6636 29.3697 23.2616 28.7591 23.0586C28.1485 22.8556 27.4875 22.8633 26.8817 23.0804C27.3702 22.6441 27.6912 22.0511 27.7893 21.4035C27.8875 20.756 27.7566 20.0945 27.4194 19.533C27.6313 19.1851 27.7633 18.7945 27.8059 18.3893C27.8485 17.9842 27.8005 17.5746 27.6655 17.1903C27.9413 17.48 28.2745 17.709 28.6439 17.8625C29.0133 18.0159 29.4106 18.0905 29.8105 18.0814C30.2104 18.0723 30.604 17.9798 30.966 17.8097C31.328 17.6396 31.6505 17.3957 31.9128 17.0937L31.9157 17.0966Z" fill="#57B7EB"/>
<path d="M45.0299 16.1544C44.3544 14.6398 43.348 13.2958 42.0848 12.2212C40.8217 11.1467 39.3338 10.3688 37.7305 9.9447C37.2456 9.80691 36.7281 9.83966 36.2645 10.0375C35.8009 10.2353 35.4191 10.5862 35.1831 11.0316C35.0528 11.2945 34.9784 11.5815 34.9645 11.8746C34.9506 12.1676 34.9977 12.4604 35.1026 12.7344C35.2075 13.0084 35.3681 13.2576 35.5742 13.4665C35.7803 13.6753 36.0274 13.8392 36.2999 13.9477L38.0297 14.6389C38.7254 14.9222 39.2831 15.466 39.5838 16.1544H27.9242C27.4542 16.1439 26.9956 16.2991 26.6285 16.5928C26.2615 16.8864 26.0094 17.2998 25.9164 17.7606C25.8692 18.0377 25.883 18.3217 25.957 18.5929C26.031 18.8641 26.1633 19.1159 26.3446 19.3306C26.526 19.5454 26.7521 19.7179 27.0071 19.8362C27.2621 19.9545 27.5398 20.0157 27.8209 20.0155H25.0283C24.5584 20.0051 24.0998 20.1603 23.7327 20.4539C23.3656 20.7475 23.1136 21.1609 23.0206 21.6217C22.9733 21.8988 22.9872 22.1829 23.0612 22.4541C23.1351 22.7252 23.2674 22.977 23.4488 23.1917C23.6302 23.4065 23.8563 23.579 24.1112 23.6973C24.3662 23.8156 24.644 23.8768 24.9251 23.8766H27.8209C27.5398 23.8764 27.2621 23.9376 27.0071 24.0559C26.7521 24.1742 26.526 24.3467 26.3446 24.5615C26.1633 24.7762 26.031 25.028 25.957 25.2992C25.883 25.5703 25.8692 25.8544 25.9164 26.1315C26.0094 26.5923 26.2615 27.0057 26.6285 27.2993C26.9956 27.593 27.4542 27.7481 27.9242 27.7377H30.7167C30.4357 27.7375 30.1579 27.7987 29.9029 27.917C29.6479 28.0353 29.4219 28.2078 29.2405 28.4226C29.0591 28.6373 28.9268 28.8891 28.8528 29.1603C28.7789 29.4315 28.765 29.7155 28.8122 29.9926C28.9052 30.4534 29.1573 30.8668 29.5244 31.1604C29.8914 31.4541 30.3501 31.6093 30.82 31.5988H40.8522C42.4186 31.5988 43.9428 31.0908 45.196 30.1509C46.4491 29.2111 47.9733 28.703 49.5397 28.703H55.814V16.1544H45.0299Z" fill="#F9E109"/>
<path d="M45.196 23.8765C42.8026 23.8746 40.4687 23.1311 38.5154 21.7482C36.562 20.3653 35.0853 18.411 34.2883 16.1543H27.9271C27.4571 16.1439 26.9985 16.2991 26.6314 16.5927C26.2644 16.8864 26.0123 17.2998 25.9193 17.7605C25.8721 18.0374 25.8859 18.3212 25.9597 18.5922C26.0335 18.8631 26.1655 19.1148 26.3466 19.3295C26.5277 19.5441 26.7534 19.7168 27.008 19.8352C27.2626 19.9537 27.5401 20.0152 27.8209 20.0154H25.0283C24.5584 20.005 24.0998 20.1602 23.7327 20.4538C23.3656 20.7475 23.1136 21.1609 23.0206 21.6216C22.9733 21.8987 22.9872 22.1828 23.0612 22.454C23.1351 22.7252 23.2674 22.9769 23.4488 23.1917C23.6302 23.4064 23.8562 23.579 24.1112 23.6973C24.3662 23.8156 24.644 23.8767 24.9251 23.8765H27.8209C27.5398 23.8763 27.2621 23.9375 27.0071 24.0558C26.7521 24.1741 26.526 24.3466 26.3446 24.5614C26.1633 24.7761 26.031 25.0279 25.957 25.2991C25.883 25.5703 25.8692 25.8543 25.9164 26.1314C26.0094 26.5922 26.2615 27.0056 26.6285 27.2992C26.9956 27.5929 27.4542 27.7481 27.9242 27.7376H30.7167C30.4357 27.7374 30.1579 27.7986 29.9029 27.9169C29.6479 28.0352 29.4219 28.2078 29.2405 28.4225C29.0591 28.6373 28.9268 28.889 28.8528 29.1602C28.7789 29.4314 28.765 29.7154 28.8122 29.9925C28.9052 30.4533 29.1573 30.8667 29.5244 31.1603C29.8914 31.454 30.3501 31.6092 30.82 31.5988H40.8522C42.4186 31.5988 43.9428 31.0907 45.196 30.1508C46.4491 29.211 47.9733 28.7029 49.5397 28.7029H55.814V23.8765H45.196Z" fill="#FCBC04"/>
<path d="M33.6124 21.9457H25.8902C25.4234 21.9449 24.9728 21.7744 24.6224 21.4659C24.272 21.1574 24.0457 20.732 23.9857 20.269C23.6119 20.4758 23.3175 20.8011 23.149 21.1937C22.9805 21.5863 22.9475 22.0238 23.0551 22.4372C23.1627 22.8507 23.4049 23.2165 23.7435 23.4771C24.0821 23.7376 24.4977 23.8781 24.9249 23.8763H35.543C35.543 23.3643 35.3396 22.8732 34.9776 22.5112C34.6155 22.1491 34.1245 21.9457 33.6124 21.9457Z" fill="#E59730"/>
<path d="M33.6124 18.0849H28.786C28.3192 18.0841 27.8686 17.9135 27.5182 17.605C27.1678 17.2966 26.9415 16.8712 26.8816 16.4082C26.5077 16.615 26.2133 16.9403 26.0448 17.3329C25.8763 17.7255 25.8433 18.163 25.9509 18.5764C26.0586 18.9898 26.3008 19.3557 26.6393 19.6162C26.9779 19.8768 27.3936 20.0173 27.8208 20.0155H35.543C35.543 19.5034 35.3396 19.0124 34.9775 18.6503C34.6155 18.2883 34.1245 18.0849 33.6124 18.0849Z" fill="#E59730"/>
<path d="M34.5777 25.8071H28.786C28.3192 25.8062 27.8686 25.6357 27.5182 25.3272C27.1678 25.0187 26.9415 24.5933 26.8816 24.1304C26.5077 24.3371 26.2133 24.6625 26.0448 25.055C25.8763 25.4476 25.8433 25.8851 25.9509 26.2986C26.0586 26.712 26.3008 27.0778 26.6393 27.3384C26.9779 27.599 27.3936 27.7394 27.8208 27.7376H36.5083C36.5083 27.2256 36.3049 26.7345 35.9428 26.3725C35.5808 26.0104 35.0897 25.8071 34.5777 25.8071Z" fill="#E59730"/>
<path d="M34.5777 29.6684H31.6819C31.215 29.6676 30.7644 29.497 30.414 29.1885C30.0636 28.88 29.8373 28.4547 29.7774 27.9917C29.4035 28.1985 29.1091 28.5238 28.9406 28.9164C28.7721 29.309 28.7391 29.7465 28.8467 30.1599C28.9544 30.5733 29.1966 30.9392 29.5351 31.1997C29.8737 31.4603 30.2894 31.6007 30.7166 31.5989H36.5082C36.5082 31.0869 36.3049 30.5959 35.9428 30.2338C35.5808 29.8718 35.0897 29.6684 34.5777 29.6684Z" fill="#E59730"/>
<path d="M37.4738 31.5987C36.9755 31.5989 36.4968 31.7927 36.1388 32.1392C35.9471 31.7861 35.6837 31.477 35.3655 31.2318C35.0472 30.9866 34.6812 30.8107 34.2909 30.7154C33.9006 30.6202 33.4947 30.6076 33.0993 30.6786C32.7038 30.7496 32.3276 30.9025 31.9948 31.1276C31.7811 30.934 31.5263 30.7914 31.2496 30.7104C30.9728 30.6294 30.6813 30.6122 30.397 30.66C30.1126 30.7079 29.8428 30.8195 29.6078 30.9866C29.3728 31.1537 29.1787 31.3719 29.0401 31.6248C28.9552 31.617 28.8731 31.5987 28.7862 31.5987C28.3003 31.5959 27.8214 31.7155 27.3938 31.9464C26.9662 32.1773 26.6036 32.5121 26.3394 32.92C26.0752 33.3279 25.9178 33.7957 25.8819 34.2803C25.8459 34.7649 25.9325 35.2508 26.1337 35.6932C26.3349 36.1356 26.6441 36.5202 27.033 36.8117C27.4218 37.1031 27.8778 37.292 28.3589 37.361C28.8399 37.43 29.3306 37.3768 29.7857 37.2063C30.2407 37.0358 30.6456 36.7536 30.9629 36.3855C31.1306 36.6955 31.3805 36.9532 31.6851 37.1303C31.9897 37.3075 32.3373 37.3972 32.6896 37.3896C33.0419 37.382 33.3852 37.2774 33.682 37.0874C33.9787 36.8973 34.2172 36.629 34.3714 36.3121C34.7442 36.21 35.0931 36.0348 35.3977 35.7967C35.7023 35.5586 35.9565 35.2623 36.1455 34.925C36.3739 35.1432 36.6523 35.3021 36.9564 35.3876C37.2604 35.4732 37.5808 35.4828 37.8895 35.4157C38.1981 35.3486 38.4856 35.2068 38.7267 35.0027C38.9677 34.7986 39.155 34.5385 39.2722 34.2452C39.3893 33.9518 39.4327 33.6342 39.3985 33.3202C39.3643 33.0062 39.2536 32.7054 39.076 32.4442C38.8985 32.1829 38.6596 31.9692 38.3802 31.8218C38.1009 31.6744 37.7896 31.5978 37.4738 31.5987Z" fill="#84D2F4"/>
<path d="M36.6589 33.3463C35.9351 33.5908 35.151 33.5908 34.4272 33.3463C33.9569 33.8244 33.3697 34.1712 32.724 34.3521C32.0782 34.5331 31.3963 34.5419 30.7461 34.3778C30.0958 34.2136 29.4998 33.8822 29.0173 33.4164C28.5348 32.9506 28.1826 32.3667 27.9956 31.7227C27.5617 31.8442 27.1622 32.0656 26.8292 32.3692C26.4963 32.6728 26.2389 33.0501 26.0779 33.4709C25.9168 33.8917 25.8565 34.3444 25.9018 34.7928C25.947 35.2411 26.0966 35.6726 26.3385 36.0528C26.5804 36.4329 26.9079 36.7512 27.2949 36.9821C27.6818 37.213 28.1174 37.3501 28.5669 37.3825C29.0163 37.4149 29.4671 37.3416 29.8831 37.1686C30.2992 36.9955 30.6689 36.7275 30.9628 36.386C31.1305 36.6959 31.3803 36.9536 31.6849 37.1308C31.9896 37.3079 32.3371 37.3976 32.6894 37.3901C33.0417 37.3825 33.3851 37.2779 33.6818 37.0878C33.9785 36.8977 34.2171 36.6295 34.3712 36.3126C34.7441 36.2105 35.093 36.0353 35.3976 35.7972C35.7022 35.559 35.9564 35.2627 36.1454 34.9255C36.3572 35.1291 36.6131 35.2813 36.8931 35.3703C37.1732 35.4592 37.47 35.4825 37.7605 35.4384C38.051 35.3943 38.3275 35.2838 38.5685 35.1157C38.8095 34.9476 39.0086 34.7263 39.1503 34.4689C38.2105 34.4121 37.3241 34.0127 36.6589 33.3463Z" fill="#57B7EB"/>
<path d="M48.3195 35.8839C48.877 35.4982 49.2806 34.9283 49.4595 34.2744C49.6383 33.6206 49.5809 32.9246 49.2973 32.3088C49.0137 31.6931 48.5221 31.1971 47.9089 30.908C47.2958 30.6189 46.6003 30.5553 45.9449 30.7283C45.7996 30.4404 45.5844 30.1935 45.3189 30.0104C45.0535 29.8273 44.7463 29.7138 44.4255 29.6803C44.1048 29.6468 43.7808 29.6944 43.4832 29.8187C43.1856 29.9431 42.9241 30.1401 42.7225 30.3918C42.5209 30.6435 42.3857 30.9418 42.3294 31.2594C42.2731 31.5769 42.2974 31.9035 42.4002 32.2092C42.5029 32.5149 42.6808 32.7898 42.9174 33.0089C43.1541 33.228 43.442 33.3841 43.7547 33.4629C43.7547 33.4861 43.7479 33.5073 43.7479 33.5295C43.7486 34.1127 43.9257 34.6821 44.256 35.1627C44.5862 35.6434 45.0542 36.0129 45.5983 36.2227C45.3655 36.5244 45.2273 36.8883 45.2009 37.2685C45.1746 37.6487 45.2613 38.0282 45.4503 38.3592C45.6392 38.6901 45.9219 38.9578 46.2627 39.1284C46.6035 39.2989 46.9872 39.3648 47.3654 39.3178C47.7436 39.2707 48.0994 39.1127 48.3879 38.8637C48.6765 38.6148 48.8849 38.286 48.9869 37.9188C49.089 37.5516 49.08 37.1624 48.9612 36.8003C48.8425 36.4382 48.6192 36.1193 48.3195 35.8839Z" fill="#84D2F4"/>
<path d="M43.2653 42.2171C43.2653 42.7291 43.0619 43.2202 42.6998 43.5822C42.3378 43.9443 41.8467 44.1477 41.3347 44.1477C40.8227 44.1477 40.3317 43.9443 39.9696 43.5822C39.6076 43.2202 39.4042 42.7291 39.4042 42.2171C39.4042 41.1553 40.2729 39.3213 41.3347 39.3213C42.3965 39.3213 43.2653 41.1553 43.2653 42.2171Z" fill="#84D2F4"/>
<path d="M36.3 13.9476L38.0298 14.6388C38.7255 14.9221 39.2831 15.4659 39.5839 16.1543H39.6167C40.1164 16.1471 40.5937 15.9457 40.9476 15.5927C41.3014 15.2398 41.504 14.763 41.5125 14.2633V14.2237C41.2117 13.5353 40.6541 12.9916 39.9584 12.7082L38.2286 12.0171C37.8103 11.8482 37.4566 11.5505 37.2188 11.1671C36.981 10.7837 36.8715 10.3346 36.9062 9.88477C36.4293 9.91938 35.9784 10.1153 35.6276 10.4403C35.2769 10.7653 35.0473 11.2 34.9765 11.6729C34.9057 12.1458 34.998 12.6287 35.2382 13.0421C35.4784 13.4555 35.8522 13.7749 36.2981 13.9476H36.3Z" fill="#FCBC04"/>
<path d="M47.1264 36.4249C47.1278 36.0018 47.2693 35.5911 47.529 35.257C46.9848 35.0472 46.5168 34.6777 46.1866 34.197C45.8563 33.7163 45.6792 33.147 45.6785 32.5638C45.6785 32.5416 45.6843 32.5204 45.6853 32.4972C45.3988 32.4272 45.1325 32.2918 44.9072 32.1015C44.682 31.9112 44.5039 31.6713 44.387 31.4006C44.27 31.1299 44.2175 30.8358 44.2334 30.5414C44.2493 30.2469 44.3332 29.9602 44.4787 29.7037C44.3969 29.6858 44.314 29.6739 44.2306 29.668C43.7647 29.6743 43.3169 29.8489 42.9696 30.1595C42.6224 30.4701 42.3992 30.8958 42.3412 31.3581C42.2832 31.8204 42.3944 32.2881 42.6542 32.6748C42.9139 33.0616 43.3048 33.3413 43.7547 33.4625C43.7547 33.4857 43.7479 33.5069 43.7479 33.5291C43.7486 34.1123 43.9258 34.6816 44.256 35.1623C44.5863 35.6429 45.0542 36.0125 45.5984 36.2222C45.4375 36.4319 45.3215 36.6725 45.2577 36.929C45.1939 37.1856 45.1837 37.4525 45.2277 37.7131C45.2717 37.9737 45.369 38.2225 45.5135 38.4438C45.6579 38.6652 45.8465 38.8544 46.0673 38.9996C46.2882 39.1448 46.5366 39.243 46.7971 39.2879C47.0576 39.3328 47.3245 39.3235 47.5812 39.2606C47.838 39.1977 48.079 39.0826 48.2892 38.9223C48.4995 38.7621 48.6744 38.5603 48.8031 38.3294C48.3402 38.2695 47.9148 38.0432 47.6063 37.6928C47.2978 37.3424 47.1273 36.8918 47.1264 36.4249Z" fill="#57B7EB"/>
<path d="M42.3 42.2172C41.788 42.2172 41.2969 42.0138 40.9349 41.6517C40.5728 41.2897 40.3694 40.7986 40.3694 40.2866C40.3725 40.1175 40.3916 39.9492 40.4264 39.7837C39.8155 40.4529 39.4544 41.3125 39.4042 42.2172C39.4042 42.7292 39.6076 43.2202 39.9696 43.5823C40.3317 43.9443 40.8227 44.1477 41.3347 44.1477C41.8467 44.1477 42.3378 43.9443 42.6998 43.5823C43.0619 43.2202 43.2653 42.7292 43.2653 42.2172C43.2653 42.138 43.2508 42.0482 43.2421 41.9623C42.9554 42.1272 42.6308 42.215 42.3 42.2172Z" fill="#57B7EB"/>
</g>
<defs>
<clipPath id="clip0">
<rect width="56" height="56" fill="white"/>
</clipPath>
</defs>
</svg>
