<svg width="56" height="56" viewBox="0 0 56 56" fill="none" xmlns="http://www.w3.org/2000/svg">
<path d="M49.7241 38.6206V56H1.44815V0H49.7241V25.1034" fill="#4398D1"/>
<path d="M45.8619 40.5516V52.1378H5.31021V3.86182H45.8619V24.1378" fill="#97D3E6"/>
<path d="M32.3447 12.5519L13.9999 30.8967L11.1033 27.9721L29.4481 9.65527L32.3447 12.5519Z" fill="#4398D1"/>
<path d="M41.9999 37.6549L39.1033 40.5515L23.6551 25.1031L20.7585 24.1377L25.5861 19.3101L26.5517 22.2065L41.9999 37.6549Z" fill="#EBEBEB"/>
<path d="M16.2119 8.00587L9.4541 14.7637L10.8195 16.1291L17.5773 9.37129L16.2119 8.00587Z" fill="#B6E2F0"/>
<path d="M22.0078 8.00643L9.45657 20.5576L10.822 21.923L23.3732 9.37185L22.0078 8.00643Z" fill="#B6E2F0"/>
<path d="M18.8275 49.2412C17.2277 49.2412 15.9309 47.9446 15.9309 46.3447V42.4826C15.9309 41.9497 15.4984 41.5171 14.9654 41.5171C14.4324 41.5171 13.9998 41.9497 13.9998 42.4826V43.4482C13.9998 45.048 12.7032 46.3448 11.1032 46.3448C9.50331 46.3448 8.20667 45.0481 8.20667 43.4482V38.6206H10.1379V43.4482C10.1379 43.9812 10.5705 44.4138 11.1035 44.4138C11.6364 44.4138 12.069 43.9812 12.069 43.4482V42.4826C12.069 40.8828 13.3657 39.5861 14.9656 39.5861C16.5655 39.5861 17.8622 40.8827 17.8622 42.4826V46.3447C17.8622 46.8777 18.2948 47.3102 18.8277 47.3102C19.3607 47.3102 19.7933 46.8777 19.7933 46.3447V43.4481H21.7243V46.3447C21.7241 47.9445 20.4273 49.2412 18.8275 49.2412Z" fill="#EBEBEB"/>
<path d="M34.2756 28.0002L32.3446 24.1382H29.448V28.0002H24.6204V35.7244L45.8619 37.6554V27.0347L34.2756 28.0002Z" fill="#F5A338"/>
<path d="M54.5518 28H45.862V35.7241H54.5518V28Z" fill="#FBCCAD"/>
<path d="M34.9593 13.8011L33.5939 15.1665L41.3177 22.8903L42.6831 21.5249L34.9593 13.8011Z" fill="#B6E2F0"/>
<path d="M16.6125 32.1434L15.247 33.5088L22.9708 41.2325L24.3362 39.8671L16.6125 32.1434Z" fill="#B6E2F0"/>
</svg>
