<svg width="56" height="56" viewBox="0 0 56 56" fill="none" xmlns="http://www.w3.org/2000/svg">
<g clip-path="url(#clip0)">
<path d="M20.5406 49.9888C19.5924 51.0595 19.0457 52.3887 18.9833 53.7747C18.9833 54.0193 14.9205 54.0966 14.9205 54.0966C15.5206 53.322 16.0684 52.5135 16.5608 51.6757C17.0799 50.7099 20.5406 49.9888 20.5406 49.9888Z" fill="#E5C3B7"/>
<path d="M13.6055 53.3891C13.7642 52.9214 14.0503 52.5 14.4361 52.1657C14.9205 51.9919 15.2182 52.1657 15.1697 52.6293C14.9655 53.1636 14.6737 53.6653 14.3046 54.1166L13.6055 53.3891Z" fill="#2C4D75"/>
<path d="M19.1356 53.0605C19.3502 53.8525 19.6893 54.5994 19.2048 55.4106C18.3466 55.9064 11.3077 55.5136 11.3077 55.5136C11.1125 55.4949 10.9374 55.3935 10.8333 55.2387C10.7292 55.084 10.7076 54.8932 10.7747 54.7217C10.9062 54.2324 12.4497 54.1229 13.7232 53.2601C14.5745 54.0521 14.9483 52.9382 15.6196 53.3245C17.2738 54.2517 19.1356 53.0605 19.1356 53.0605Z" fill="#2C4D75"/>
<path d="M17.17 55.0819C17.8959 55.026 18.6265 55.0585 19.3433 55.1785C19.3433 55.3716 19.3779 55.8223 19.1703 55.8867C18.9626 55.9511 13.3356 56.2666 11.3769 55.8867C10.9995 55.7409 10.748 55.4039 10.7332 55.0239C10.7925 55.2543 11.0187 55.4134 11.2731 55.4038C14.4084 55.8481 15.5989 55.1463 17.17 55.0819Z" fill="#232121"/>
<path d="M13.7162 53.9999L12.4704 53.9355C12.4483 53.9339 12.4279 53.9241 12.4136 53.9084C12.3993 53.8927 12.3923 53.8723 12.3942 53.8518C12.396 53.8313 12.4065 53.8123 12.4234 53.799C12.4403 53.7857 12.4622 53.7792 12.4842 53.781L13.5086 53.8325L13.2732 53.6072C13.2525 53.5802 13.2525 53.544 13.2732 53.517C13.2893 53.4883 13.3216 53.4708 13.3563 53.472L14.1799 53.5557L13.7231 53.3239C13.6949 53.2945 13.6949 53.2502 13.7231 53.2208C13.7547 53.1946 13.8023 53.1946 13.8339 53.2208L14.5883 53.6072C14.6235 53.6241 14.6409 53.6619 14.6298 53.6973C14.6169 53.7323 14.5792 53.7539 14.5398 53.7488L13.5293 53.6072L13.7785 53.839C13.7962 53.8644 13.7962 53.8972 13.7785 53.9227C13.7649 53.9503 13.7351 53.968 13.7024 53.9677L13.7162 53.9999Z" fill="white"/>
<path d="M51.0219 54.7472C51.4371 55.7645 51.0772 56.2152 50.4474 56.4534C49.5356 56.7857 48.5046 56.6619 47.7135 56.125C47.0214 55.6614 46.3292 54.921 45.9486 54.7085C45.2564 54.3222 45.4848 53.1504 45.4848 53.1504L48.7517 55.4232L51.0219 54.7472Z" fill="#232121"/>
<path d="M46.8415 47.8965C47.9212 50.7939 48.6964 51.9657 49.6515 53.0474C51.6795 55.3137 50.3437 55.0498 49.61 55.3846C48.4126 55.9447 46.0179 54.451 45.6718 52.6224C45.1527 49.9246 43.9415 49.3194 43.9415 49.3194L46.8415 47.8965Z" fill="#D3A197"/>
<path d="M49.4508 53.2345C49.0217 52.7838 49.2847 50.7427 48.2811 51.0904C47.2775 51.4381 45.9209 51.6699 46.3777 52.4297L47.4644 54.2518L49.4508 53.2345Z" fill="#2C4D75"/>
<path d="M45.8932 54.2512C47.0075 55.0753 47.5405 55.8093 48.9247 56.2342C50.8142 56.8202 51.6932 54.9465 50.5997 53.955C49.9698 53.3626 49.9075 53.1823 49.0147 52.429C49.0147 52.429 48.9455 52.2359 49.0147 52.429C49.0839 52.6222 49.4507 52.9441 48.5094 53.3111C47.3786 53.7236 46.0957 53.273 45.5402 52.2681C45.1999 52.9326 45.3408 53.7241 45.8932 54.2512Z" fill="#2C4D75"/>
<path d="M48.3782 54.4898C48.3489 54.4711 48.333 54.4389 48.3367 54.4061C48.458 53.9021 48.8912 53.5143 49.4371 53.421H49.3887C49.0288 53.421 48.2951 53.9296 47.8245 53.9811C47.8002 53.9908 47.7727 53.9908 47.7483 53.9811C47.7391 53.9605 47.7391 53.9373 47.7483 53.9167C47.7483 52.9187 48.8627 53.0282 49.3333 52.9059C49.3581 52.898 49.3854 52.9006 49.408 52.9129C49.4307 52.9253 49.4463 52.9462 49.451 52.9703C49.4641 53.0182 49.4332 53.0671 49.3818 53.0797C48.8281 53.2085 47.9975 53.1183 47.9421 53.8073C48.4114 53.5835 48.9028 53.4024 49.4095 53.2664C49.5381 53.2604 49.661 53.3163 49.7348 53.4145C49.7472 53.439 49.7472 53.4673 49.7348 53.4918C49.7266 53.5179 49.7063 53.5392 49.6794 53.5497C49.2239 53.6358 48.8248 53.8887 48.572 54.2515C48.8928 53.9749 49.2758 53.7682 49.6932 53.6463C49.8103 53.643 49.9175 53.7069 49.9632 53.8073C49.9839 53.8501 49.9658 53.9005 49.9216 53.9232C49.8756 53.9424 49.8214 53.9256 49.797 53.8845C49.7819 53.8475 49.7426 53.824 49.7001 53.8266C49.2608 54.0074 48.8489 54.2412 48.4751 54.522H48.4266H48.3713L48.3782 54.4898Z" fill="white"/>
<path d="M11.4669 18.659C11.4669 17.7383 11.3423 13.2377 11.3562 12.4458C11.3562 10.4755 11.7022 5.84619 11.2593 5.46631C10.869 5.17224 10.6201 4.74619 10.5671 4.28161C10.4771 3.76009 10.3941 2.80073 10.311 2.53675C10.228 2.27277 10.6779 2.22126 11.0032 3.39309C11.0585 2.99389 11.0655 1.31342 11.0516 0.98505C11.0378 0.656682 12.1313 0.225296 12.3874 1.46795C12.6599 2.45292 12.8314 3.45969 12.8996 4.47477C12.8938 4.79083 12.833 5.10393 12.7196 5.40193C12.7196 5.40193 13.2595 8.55684 13.4879 10.849C13.7163 13.1411 14.2631 18.3113 14.1385 18.8393C14.0139 19.3672 11.4669 18.659 11.4669 18.659Z" fill="#E5C3B7"/>
<path d="M27.8081 23.0947C28.7494 23.1849 31.8778 23.3201 34.0373 25.4899C35.2347 26.681 38.28 30.9241 40.9586 36.223C41.8791 38.0451 44.1908 40.6206 48.3228 50.1948C48.3228 50.1948 46.2464 51.2056 45.2844 51.0318C44.3223 50.8579 33.4351 33.0037 33.4351 33.0037L26.2855 28.1233L27.8081 23.0947Z" fill="#232121"/>
<path d="M32.9438 27.4796C31.2776 26.106 29.2777 25.1294 27.1161 24.6338L25.0397 29.9456C23.8907 31.6519 21.5237 38.5283 20.3678 41.2132C19.565 43.0868 15.2392 51.9463 15.2392 51.9463C15.2392 51.9463 19.0528 52.8606 19.9595 52.2167C20.7485 51.6566 27.6905 37.6204 30.3414 32.3665C31.5664 33.8925 35.0755 37.0732 37.6641 40.6594C39.5743 43.3057 42.1421 47.1689 44.7653 51.1157C44.9729 51.4248 46.3849 50.8002 47.2777 50.5556C40.5849 37.3629 35.8922 30.3448 32.9438 27.4796Z" fill="white"/>
<path d="M4.54557 34.7812C5.2377 36.8158 5.09235 38.0392 4.27564 38.5993C4.63238 38.7006 5.01883 38.6521 5.33398 38.4665C5.64913 38.281 5.86165 37.9768 5.91598 37.6335C6.18591 36.6613 4.54557 34.7812 4.54557 34.7812Z" fill="#300901"/>
<path d="M4.62173 34.376C5.59071 37.3764 5.67376 38.8057 4.46254 39.6363C5.43152 39.7844 6.24131 40.0098 6.64275 38.5868C7.04418 37.1639 4.62173 34.376 4.62173 34.376Z" fill="#300901"/>
<path d="M1.59026 23.5647C3.18907 22.7084 8.78838 21.7812 9.39053 25.5736C9.72275 27.679 9.27287 28.5096 9.27287 28.5096L1.6041 27.1446L1.59026 23.5647Z" fill="#5E1C17"/>
<path d="M16.4432 27.8022L11.6468 29.032C11.6468 29.032 8.40073 28.5942 7.97162 28.5877L7.90932 26.9845L8.02699 25.3877C8.35229 25.3877 9.99955 25.1366 10.9616 25.0336C11.2454 25.0336 11.7714 22.6191 11.7714 22.6191L15.059 26.0509L16.4432 27.8022Z" fill="#E5C3B7"/>
<path d="M10.6917 28.9349C9.72967 28.8061 8.25544 28.6258 7.97858 28.6194L8.36618 26.9067L15.066 27.4798L11.3769 30.6991C11.3769 30.6991 11.197 28.9993 10.6917 28.9349Z" fill="#D3A197"/>
<path d="M7.83327 27.0103L7.95094 25.4136C8.22374 25.4542 8.50176 25.4542 8.77457 25.4136C9.41133 25.8256 13.1142 27.886 13.1004 28.6329C13.1004 29.2767 14.3185 29.9206 11.1693 29.4377C10.9617 28.929 10.5257 28.884 9.87505 28.7938C9.05142 28.6779 7.99246 28.5878 7.90249 28.5814L7.83327 27.0103Z" fill="#E5C3B7"/>
<path d="M1.74252 30.429C3.54898 31.266 4.73252 35.0261 5.48001 37.6467C5.80531 38.7734 6.13061 39.7907 4.78789 40.3895C4.16497 40.6664 7.23802 41.3295 8.45616 37.7561C9.61202 34.363 9.37669 28.0982 9.37669 28.0982L1.59026 26.9521L1.74252 30.429Z" fill="#300901"/>
<path d="M4.91257 23.6359C7.45268 23.8999 9.64672 25.78 9.66748 26.9196C9.66748 28.2073 8.33168 29.8363 5.09945 30.3771C2.4486 30.8214 -0.209162 30.2355 -0.264532 27.1578C-0.319902 24.2218 2.24789 23.3462 4.91257 23.6359Z" fill="#E5C3B7"/>
<path d="M5.83295 30.0811C9.06519 29.5467 9.6881 28.1882 9.66734 26.9198C9.66734 26.9198 9.66734 26.8811 9.66734 26.8618C8.4838 30.0038 1.56253 28.8513 0.84272 27.5057L1.11957 29.4373C2.137 30.0811 4.33104 30.3322 5.83295 30.0811Z" fill="#D3A197"/>
<path d="M1.60421 27.0488C2.47629 27.7635 1.74264 29.4311 3.45911 29.7595C4.66477 30.0239 5.92157 30.0106 7.12046 29.7208C9.00305 29.2186 7.90949 30.5643 7.90949 30.5643L4.71878 31.1438C4.71878 31.1438 1.4381 31.0021 0.109219 29.3217C-0.721334 28.2722 -0.721334 27.1068 -0.499853 27.0939C-0.278372 27.081 1.60421 27.0488 1.60421 27.0488Z" fill="#300901"/>
<path d="M1.61716 27.029C2.57922 26.0825 1.7279 24.563 3.43746 24.1702C4.81841 23.8683 6.2591 23.8971 7.62483 24.2539C8.57997 24.4471 8.31696 24.0865 8.31696 24.0865L4.58639 22.8696C4.58639 22.8696 1.03578 23.1272 -0.0785506 24.769C-0.770678 25.8249 -0.625332 27.1255 -0.466142 27.177C-0.306953 27.2286 1.61716 27.029 1.61716 27.029Z" fill="#5E1C17"/>
<path d="M29.4829 23.2947C27.5242 21.4725 20.4022 21.3631 16.201 22.2387C15.4466 21.7494 14.7268 17.4355 14.7268 17.4355C14.7268 17.4355 14.2907 17.7317 11.2661 17.6673C10.9962 17.5643 10.8924 20.0754 10.8924 21.5949L10.8509 24.312C10.8509 24.312 13.737 25.0653 14.1938 27.2608C14.353 28.0142 27.0951 29.1473 27.3443 28.7353C28.1402 27.6214 29.6144 23.417 29.4829 23.2947Z" fill="#347CFF"/>
<path d="M12.6504 37.4534C12.7266 38.3741 13.1695 42.8554 13.2733 43.6409C13.5294 45.5725 14.4015 50.1696 14.007 50.5882C13.6598 50.9232 13.4683 51.3719 13.4741 51.8372C13.4741 52.3652 13.4741 53.331 13.4256 53.595C13.3772 53.859 13.827 53.8718 14.0139 52.6743C14.1177 53.0606 14.3254 54.7346 14.3531 55.063C14.3807 55.3913 15.5158 55.7068 15.6266 54.4191C15.7812 53.4129 15.8322 52.3953 15.7788 51.3801C15.7375 51.0673 15.6416 50.7628 15.4951 50.4787C15.4951 50.4787 15.6612 47.2594 15.6127 44.9866C15.5643 42.7138 15.4881 37.5114 15.3013 37.0027C15.1144 36.4941 12.6504 37.4534 12.6504 37.4534Z" fill="#D3A197"/>
<path d="M14.2699 27.2484C13.8808 28.0702 13.1561 28.7143 12.2558 29.0383L10.9546 29.386L11.6882 34.0798C11.8267 35.4447 12.2973 38.5868 12.588 38.458C15.5572 38.0846 16.0486 38.3357 16.0486 38.3357C16.0486 38.3357 16.2286 33.7321 16.81 32.5409C18.1181 31.8971 20.4575 30.4548 21.1565 30.3518C22.2986 30.1844 23.752 31.8456 24.3611 31.6395C26.5551 30.8862 28.0847 27.5381 28.0847 27.5381C28.0847 27.5381 23.7105 24.9885 14.2699 27.2484Z" fill="#005AFF"/>
</g>
<defs>
<clipPath id="clip0">
<rect width="56" height="56" fill="white" transform="matrix(-1 0 0 1 56 0)"/>
</clipPath>
</defs>
</svg>
