<svg width="56" height="56" viewBox="0 0 56 56" fill="none" xmlns="http://www.w3.org/2000/svg">
<path d="M30.045 54.7669L29.5687 54.9835H29.537C29.537 54.9835 24.5202 48.072 23.9486 46.3855C23.3771 44.6991 24.335 42.9252 24.335 42.5842C24.335 42.2432 22.9273 39.6722 22.1176 37.8153C21.308 35.9584 18.7731 29.9822 18.6937 29.7887C18.6937 29.7887 18.8472 37.6217 18.8154 40.2804C18.7837 42.939 17.6459 55.0249 17.6459 55.0249L17.2966 55.1447H17.2384H17.1696L17.0426 55.1908C17.0426 55.1908 14.2749 48.7493 14.0738 46.8141C13.8727 44.8788 14.7671 43.8329 14.9153 43.6762C15.0349 43.4526 15.1083 43.2124 15.1322 42.9666C15.1322 42.9666 13.497 37.7369 12.8038 35.5667C12.1105 33.3965 10.7611 29.6551 10.8987 27.1853C11.0362 24.7156 13.3965 22.6053 13.9945 22.292C14.3206 22.413 14.6386 22.5499 14.947 22.7021L15.0634 22.7574L15.3968 22.9417C15.6841 23.098 15.9353 23.2996 16.1377 23.5361C16.6669 24.1904 19.5986 27.3789 23.0649 25.4206C24.1921 27.3005 26.7111 34.7051 27.2191 38.6032C27.7271 42.5013 30.045 54.7669 30.045 54.7669Z" fill="white"/>
<path d="M17.249 55.1401H17.1802L17.0532 55.1862C17.0532 55.1862 14.2749 48.7493 14.0738 46.8141C13.8727 44.8788 14.7671 43.8329 14.9153 43.6762C15.0349 43.4526 15.1083 43.2124 15.1322 42.9667C15.1322 42.9667 13.497 37.7369 12.8038 35.5667C12.1105 33.3965 10.7611 29.6551 10.8987 27.1853C11.0362 24.7156 13.3965 22.6053 13.9945 22.292C14.3206 22.413 14.6386 22.5499 14.947 22.7021L15.0634 22.7574L15.3968 22.9417C14.6877 23.96 13.0737 25.992 12.9678 28.7934C12.8567 31.8483 15.6456 41.2342 15.9313 43.2708C15.9313 43.2708 15.1375 44.8051 15.582 47.6849C15.926 49.9104 16.8362 53.592 17.249 55.1401Z" fill="#C2C2C2"/>
<path d="M29.5683 54.9834H29.5366C29.5366 54.9834 24.5198 48.0719 23.9483 46.3854C23.3767 44.699 24.3346 42.9251 24.3346 42.5841C24.3346 42.2431 22.9269 39.6721 22.1172 37.8152C21.3076 35.9583 18.7727 29.9821 18.6933 29.7886L25.3083 42.0911C25.4353 44.3304 26.0333 48.0811 26.7742 49.7444C27.3034 50.9424 28.801 53.6149 29.5683 54.9834Z" fill="#C2C2C2"/>
<path d="M27.3713 18.8266C26.6639 18.9419 26.0003 19.2078 25.4397 19.6007C25.1633 19.7828 24.9096 19.9898 24.683 20.2181C24.6786 20.1775 24.6697 20.1374 24.6565 20.0983C24.5824 19.7481 24.3178 18.8036 24.2596 18.5824C24.2371 18.2729 24.1911 17.9651 24.122 17.6608C24.3905 17.5976 24.6511 17.5111 24.8999 17.4028C25.3577 17.2445 25.7414 16.9574 25.9901 16.5873C26.3817 15.804 26.0483 14.3387 25.8101 13.3619C25.572 12.3851 25.281 11.058 25.281 10.7217L26.1594 11.5188C26.1594 11.5188 26.7733 13.3342 27.0696 14.7442C27.2753 16.0975 27.3761 17.4614 27.3713 18.8266Z" fill="#4D87DB"/>
<path d="M25.4397 19.6012C25.1633 19.7833 24.9096 19.9903 24.683 20.2186C24.6786 20.178 24.6697 20.1379 24.6565 20.0988C24.5824 19.7486 24.3178 18.8041 24.2596 18.5829C24.2371 18.2734 24.1911 17.9656 24.122 17.6614C24.3905 17.5981 24.6511 17.5117 24.8999 17.4033C25.1926 18.1115 25.3741 18.8508 25.4397 19.6012Z" fill="#3357BC"/>
<path d="M19.2588 11.2937C18.5834 12.4918 17.7771 13.6306 16.851 14.6942C16.5017 15.095 16.0148 15.6157 16.0148 15.6157C15.1358 15.8717 14.2163 16.0069 13.2895 16.0166C12.7603 16.0166 12.3793 16.0166 12.3793 16.0166C12.1729 15.3669 12.321 14.7356 12.9825 13.6344C13.4004 12.9473 13.8706 12.2854 14.3902 11.6531C14.9454 10.9717 15.5462 10.3193 16.1895 9.69943C17.6342 8.31713 18.1422 8.39085 19.3646 8.31713C19.3646 8.29409 19.8621 9.99432 19.2588 11.2937Z" fill="#4D87DB"/>
<path d="M13.4959 14.1183C13.291 14.7422 13.221 15.3937 13.2895 16.0397C12.7603 16.0397 12.3793 16.0397 12.3793 16.0397C12.1729 15.3901 12.321 14.7588 12.9825 13.6576C13.4004 12.9705 13.8706 12.3086 14.3902 11.6763C14.0727 12.5333 13.6599 13.6345 13.4959 14.1183Z" fill="#3357BC"/>
<path d="M25.9903 16.5883C25.6365 17.0805 25.0861 17.4415 24.4451 17.6019C24.2493 17.6618 24.1223 17.6895 24.1223 17.6895C24.1914 17.9937 24.2374 18.3015 24.2599 18.611C24.5192 21.5922 23.0692 25.4212 23.0692 25.4212C19.5976 27.3794 16.65 24.1909 16.1367 23.5366C15.9458 23.3161 15.711 23.1273 15.4434 22.9791C14.9887 22.7163 14.5068 22.4911 14.004 22.3064C15.4765 21.2533 16.4829 19.7874 16.8511 18.1595C17.0687 17.0169 17.0687 15.8509 16.8511 14.7083C17.7754 13.6503 18.5783 12.516 19.2484 11.3217C19.8622 9.99467 19.3648 8.29443 19.3648 8.29443L21.6456 8.81971L23.0692 10.2896L24.5298 9.45096L25.2759 10.695C25.3024 11.036 25.5723 12.34 25.8051 13.3352C25.8845 13.6808 25.985 14.0817 26.0538 14.4918C26.2338 15.1843 26.212 15.905 25.9903 16.5883Z" fill="#4D87DB"/>
<path d="M17.6396 15.8735C17.9808 16.9185 17.9024 18.0335 17.4173 19.0344C16.8881 20.2554 15.9832 21.9695 15.4434 22.9785C14.9887 22.7158 14.5068 22.4906 14.004 22.3058C15.4765 21.2527 16.4829 19.7868 16.8511 18.1589C17.0687 17.0163 17.0687 15.8503 16.8511 14.7078C16.9781 14.5695 17.9836 13.4499 18.1371 13.1826C18.1371 13.3162 17.6608 16.044 19.1954 16.5785C18.8947 16.5593 18.6016 16.4868 18.3341 16.3656C18.0666 16.2444 17.8303 16.077 17.6396 15.8735Z" fill="#001EB2"/>
<path d="M30.8109 3.81976C30.4814 3.98123 30.1096 4.06606 29.7314 4.06606C29.3532 4.06606 28.9814 3.98123 28.6518 3.81976C28.5255 3.77827 28.4141 3.70831 28.329 3.61702C28.3099 3.59832 28.2955 3.57635 28.2867 3.55251C28.2867 3.55251 28.2867 3.98564 26.6991 3.72761C26.1971 3.66441 25.7169 3.50721 25.2914 3.26684C25.126 3.18356 24.996 3.05585 24.921 2.90283L23.9155 4.23445C23.9155 4.23445 24.1272 3.39125 23.5345 3.27145C22.9418 3.15165 22.4073 3.87966 22.5872 4.65375C22.622 4.86016 22.7036 5.0585 22.8271 5.23726C22.9507 5.41602 23.1138 5.57164 23.3069 5.69509V5.83332C23.3076 6.17981 23.3466 6.52545 23.4233 6.86544V6.91151C23.5314 7.47069 23.8409 7.98545 24.3071 8.38136C24.4491 8.48987 24.6034 8.58558 24.7675 8.66704L24.8839 8.72233C25.3381 8.92219 25.8347 9.03843 26.3428 9.0638C26.8508 9.08916 27.3594 9.02312 27.8368 8.86978C27.9725 8.8279 28.1036 8.77547 28.2285 8.71312C29.2604 8.20627 30.1653 6.65809 30.5252 5.65362C30.6164 5.39738 30.6854 5.13554 30.7316 4.87031C30.7795 4.52161 30.806 4.17093 30.8109 3.81976Z" fill="#F3B6AB"/>
<path d="M25.2759 3.28094C24.1752 4.26237 23.6883 5.75065 23.4396 6.90257V6.8565C23.3628 6.51651 23.3238 6.17087 23.3232 5.82438V5.68615C23.13 5.56269 22.9669 5.40708 22.8434 5.22832C22.7198 5.04956 22.6383 4.85122 22.6035 4.64481C22.4235 3.87994 22.9422 3.15192 23.5507 3.26251C24.1593 3.37309 23.9318 4.22551 23.9318 4.22551L24.9214 2.90771C24.9903 3.06211 25.1147 3.193 25.2759 3.28094Z" fill="#F4948E"/>
<path d="M24.9003 8.7134C24.8051 8.83781 24.641 9.03594 24.4505 9.2525C24.0219 9.75013 23.4451 10.3445 23.1963 10.3353C22.7677 10.3123 22.3655 9.10045 22.4078 8.82399C22.5365 8.50643 22.694 8.19829 22.8788 7.90245C23.0907 7.57145 23.2678 7.22446 23.408 6.86572C23.5168 7.44098 23.8317 7.97157 24.3076 8.38165C24.4891 8.51265 24.6881 8.62404 24.9003 8.7134Z" fill="#F3B6AB"/>
<path d="M24.8998 8.71334C24.8046 8.83775 24.6405 9.03588 24.45 9.25244C23.7667 8.9598 23.21 8.48313 22.8624 7.89317C23.0743 7.56217 23.2514 7.21519 23.3916 6.85645C23.5004 7.43171 23.8153 7.9623 24.2913 8.37237C24.4771 8.50755 24.6815 8.62209 24.8998 8.71334Z" fill="#F4948E"/>
<path d="M16.4493 16.8873C16.0969 17.7551 15.6869 18.6043 15.2216 19.4307C15.1422 19.5644 15.0628 19.6888 14.9887 19.804C12.5438 16.8781 12.3798 16.0303 12.3798 16.0303C12.6761 16.0303 12.9619 16.0303 13.2424 16.0303C14.1828 16.0025 15.1151 15.8678 16.0154 15.6294C15.9887 15.7874 16.0202 15.9487 16.1053 16.0902C16.2165 16.339 16.3752 16.703 16.4493 16.8873Z" fill="#F3B6AB"/>
<path d="M15.2216 19.4312C15.1422 19.5649 15.0628 19.6893 14.9887 19.8045C12.5438 16.8786 12.3798 16.0308 12.3798 16.0308C12.6761 16.0308 12.9619 16.0308 13.2424 16.0308C13.544 17.0214 14.6395 18.6249 15.2216 19.4312Z" fill="#F4948E"/>
<path d="M27.3719 22.228C26.7462 22.2903 26.1375 22.4462 25.5727 22.6887C25.2234 22.8316 24.9958 22.9514 24.9958 22.9514C24.8847 21.3986 24.6942 20.2973 24.6624 20.1361C24.6648 20.1698 24.6648 20.2037 24.6624 20.2374C24.902 19.9985 25.1698 19.7823 25.4615 19.5924C26.0099 19.2093 26.6592 18.9512 27.3508 18.8413C27.5385 19.9639 27.5456 21.1037 27.3719 22.228Z" fill="#F3B6AB"/>
<path d="M25.5727 22.6745C25.2234 22.8173 24.9958 22.9371 24.9958 22.9371C24.8847 21.3843 24.6942 20.2831 24.6624 20.1218C24.6648 20.1556 24.6648 20.1894 24.6624 20.2232C24.902 19.9843 25.1698 19.7681 25.4615 19.5781C25.5595 20.6079 25.5966 21.6414 25.5727 22.6745Z" fill="#F4948E"/>
<path d="M42.364 53.481C41.992 53.3962 41.5999 53.4067 41.2347 53.5114C40.8695 53.616 40.5468 53.8103 40.3054 54.0708C39.8503 54.5823 39.8079 55.4992 40.1996 55.7572C40.3595 55.8684 40.5478 55.9445 40.7486 55.979C40.9494 56.0135 41.1568 56.0054 41.3532 55.9554C41.5966 55.8694 41.8643 55.8501 42.1205 55.9001C42.2071 55.925 42.2985 55.9346 42.3894 55.9283C42.4803 55.9219 42.5688 55.8998 42.6497 55.8632C42.8614 55.7987 42.9778 55.9554 43.3536 55.9277C43.7293 55.9001 44.2585 55.6927 44.3008 55.7572C44.3453 55.816 44.4124 55.8589 44.49 55.8784C44.5676 55.8978 44.6507 55.8924 44.7242 55.8632C44.8168 55.8144 44.9229 55.7886 45.0311 55.7886C45.1393 55.7886 45.2455 55.8144 45.338 55.8632C45.5438 55.9032 45.7569 55.9053 45.9638 55.8696C46.1706 55.8339 46.3666 55.7611 46.5393 55.6559C46.8092 55.4439 46.5711 55.1582 46.5393 55.0661C46.4678 54.8563 46.3069 54.6783 46.0895 54.5685C45.5552 54.2435 44.9709 53.986 44.3537 53.8036C43.7981 53.6285 42.8879 53.6377 42.364 53.481Z" fill="#D586FF"/>
<path d="M22.4979 8.59814L21.6618 8.83774L21.8152 11.2936L23.0694 10.2892C22.6509 9.80395 22.448 9.20338 22.4979 8.59814Z" fill="#4D87DB"/>
<path d="M23.4239 10.2472L24.3394 11.4268L24.8157 10.3348L24.4505 9.25195C24.1492 9.61404 23.8051 9.94762 23.4239 10.2472Z" fill="#4D87DB"/>
<path d="M17.0368 55.209C17.2009 55.1537 18.0952 54.6054 18.7197 54.7483C19.194 54.9344 19.5925 55.2412 19.8627 55.6283H17.0368V55.209Z" fill="#081EC7"/>
<path d="M29.5365 55.0018C29.9252 54.7034 30.426 54.5394 30.9442 54.541C31.8174 54.541 32.2672 55.5363 32.2672 55.5363H29.7747L29.5365 55.0018Z" fill="#081EC7"/>
<path d="M17.2488 18.2741C17.1394 18.5849 16.9885 18.8833 16.799 19.1634C16.5979 19.4813 16.3545 19.8177 16.1375 20.0849C15.9205 20.3522 15.73 20.601 15.6083 20.7346C15.4866 20.8682 15.5078 20.859 15.5078 20.859C15.2104 20.6153 14.9806 20.316 14.8357 19.9836L14.9892 19.8131C15.0685 19.6887 15.1532 19.555 15.2326 19.4168C15.6921 18.5972 16.0985 17.7557 16.4497 16.8964L16.5873 16.5601L17.2806 18.1313C17.2788 18.1801 17.268 18.2283 17.2488 18.2741Z" fill="#A2E7F4"/>
<path d="M27.102 25.5082C26.8321 26.7523 26.3664 28.6506 26.3664 28.6506C26.5652 29.1902 26.6407 29.7584 26.5887 30.3232C26.4828 31.1756 25.9907 31.3323 25.8213 31.2448C25.652 31.1572 25.8531 30.6319 25.8213 30.1343C25.7925 29.803 25.6919 29.4793 25.525 29.1805C25.525 29.1805 25.1016 29.8486 24.8582 29.7288C24.6571 29.5814 25.0963 28.9317 25.0963 28.9317C25.0963 28.9317 25.0963 28.0102 25.0963 27.2591C25.0963 26.5081 24.9534 24.1351 24.964 24.1213C25.1499 24.04 25.327 23.9444 25.4932 23.8356C25.84 23.5838 26.2224 23.3716 26.631 23.2044C26.9288 23.1104 27.235 23.0379 27.5465 22.9878C27.483 23.1537 27.3507 24.3701 27.102 25.5082Z" fill="#A2E7F4"/>
<path d="M27.8318 22.0713L27.7418 22.9375C27.7418 22.9375 27.6625 22.9375 27.5143 22.9652C27.2028 23.0153 26.8966 23.0877 26.5988 23.1817C26.1901 23.349 25.8078 23.5612 25.461 23.813C25.2948 23.9218 25.1177 24.0174 24.9318 24.0987C24.7995 24.154 24.6884 24.1678 24.6249 24.0987C24.4296 23.8544 24.35 23.5541 24.4026 23.2601C24.7592 23.0205 25.1421 22.8121 25.5457 22.638C26.2618 22.3297 27.0365 22.1377 27.8318 22.0713Z" fill="#A2E7F4"/>
<path d="M30.8117 3.81982C30.8117 4.16767 30.7905 4.51527 30.7482 4.86116C30.8151 4.51731 30.8364 4.16791 30.8117 3.81982Z" fill="#F3B6AB"/>
<path d="M42.9517 53.9101C42.8924 53.9098 42.834 53.8971 42.7816 53.873C42.7291 53.849 42.684 53.8143 42.6501 53.7719L20.1698 23.9833C20.1437 23.9488 20.1257 23.9102 20.1168 23.8696C20.1079 23.8291 20.1082 23.7874 20.1178 23.7469C20.1274 23.7065 20.146 23.6681 20.1727 23.634C20.1993 23.5998 20.2334 23.5705 20.273 23.5478C20.353 23.502 20.4506 23.4857 20.5444 23.5026C20.5909 23.5109 20.635 23.5272 20.6742 23.5503C20.7134 23.5735 20.747 23.6032 20.7731 23.6377L43.2534 53.4171C43.3057 53.4862 43.3246 53.5706 43.3057 53.6517C43.2869 53.7329 43.2319 53.8043 43.1528 53.8502C43.0944 53.8876 43.0242 53.9086 42.9517 53.9101Z" fill="#CEC6C6"/>
<path d="M20.9106 24.2555C20.6884 24.3983 20.7201 23.9145 20.7201 23.9145C20.7201 23.9145 20.6725 24.4674 20.4714 24.4905C20.2703 24.5135 20.2227 23.9007 20.1486 23.8776C20.0745 23.8546 20.3867 24.4997 20.1486 24.4905C20.0004 24.4905 19.8946 24.32 19.8311 24.1863C19.8787 24.3292 19.8999 24.5181 19.6776 24.4905C19.584 24.4731 19.4945 24.4419 19.413 24.3983C18.688 24.0573 18.3916 22.7257 18.3916 22.7257C17.3302 22.2318 16.3886 21.5636 15.6187 20.7582C15.5922 20.7214 15.5763 20.7029 15.5816 20.6937L16.0261 20.0533L17.2486 18.2793L19.6935 21.7166C20.1429 22.0296 20.5511 22.3851 20.9106 22.7764C21.0715 22.9976 21.1569 23.2541 21.1569 23.5159C21.1569 23.7778 21.0715 24.0342 20.9106 24.2555Z" fill="#A2E7F4"/>
<path d="M20.6937 16.9061C19.4025 16.8047 18.4658 16.4453 17.9102 15.7956C17.4649 15.2647 17.2751 14.6034 17.381 13.9525C17.3782 13.9419 17.3782 13.9309 17.381 13.9203C17.9493 13.4342 18.3404 12.813 18.5051 12.1344C18.6698 11.4557 18.6009 10.7498 18.3071 10.1051C18.301 10.098 18.2967 10.0898 18.2947 10.0812C18.2927 10.0725 18.2929 10.0635 18.2953 10.0549C18.2977 10.0463 18.3023 10.0383 18.3087 10.0314C18.3151 10.0245 18.3232 10.019 18.3324 10.0151C18.3416 10.0113 18.3516 10.0093 18.3618 10.0093C18.372 10.0092 18.3821 10.0112 18.3913 10.0149C18.4005 10.0187 18.4086 10.0242 18.4151 10.031C18.4216 10.0378 18.4263 10.0458 18.4288 10.0544C18.7382 10.7185 18.8159 11.4473 18.6521 12.1497C18.4883 12.852 18.0903 13.4968 17.508 14.0032C17.4274 14.6153 17.6165 15.2311 18.0372 15.7265C18.5664 16.3347 19.4713 16.6895 20.7202 16.7863C20.7292 16.7868 20.7381 16.789 20.7462 16.7925C20.7543 16.7961 20.7615 16.801 20.7674 16.807C20.7733 16.813 20.7777 16.82 20.7805 16.8275C20.7834 16.835 20.7844 16.8429 20.7837 16.8508C20.7834 16.8601 20.7806 16.8692 20.7756 16.8774C20.7705 16.8856 20.7633 16.8926 20.7546 16.898C20.7459 16.9034 20.7358 16.9069 20.7253 16.9083C20.7147 16.9097 20.7039 16.9089 20.6937 16.9061Z" fill="#A2E7F4"/>
<path d="M25.8106 23.6377C25.8031 23.6406 25.7949 23.6421 25.7867 23.6421C25.7785 23.6421 25.7704 23.6406 25.7629 23.6377C25.7506 23.6265 25.7438 23.6116 25.7438 23.5962C25.7438 23.5807 25.7506 23.5659 25.7629 23.5547C26.3276 23.1732 27.0083 22.9441 27.721 22.8958C27.7297 22.8945 27.7387 22.8948 27.7473 22.8967C27.7559 22.8986 27.7639 22.9021 27.7709 22.9068C27.7779 22.9116 27.7837 22.9176 27.7878 22.9244C27.792 22.9313 27.7944 22.9388 27.795 22.9465C27.7952 22.9621 27.7889 22.9773 27.7772 22.9891C27.7655 23.001 27.7493 23.0088 27.7315 23.011C27.0493 23.0622 26.3978 23.2811 25.8529 23.6423L25.8106 23.6377Z" fill="#083184"/>
<path d="M17.2911 55.1216L17.1641 55.1631C16.7566 53.7347 15.3013 48.6432 15.1108 47.2195C15.0359 46.0808 15.1104 44.9384 15.3331 43.8144C15.446 43.2048 15.5062 42.5887 15.513 41.9713C15.4654 41.2018 14.7986 38.9994 14.2112 37.0595C14.0154 36.4052 13.8249 35.7786 13.682 35.2165C12.6765 31.7607 12.3696 29.1942 12.7294 27.3834C13.1242 25.7183 13.8804 24.1341 14.9573 22.7158L15.0738 22.7711C13.9992 24.1794 13.2463 25.7547 12.8564 27.411C12.486 29.2173 12.8035 31.7929 13.7984 35.2118C13.9572 35.7556 14.1477 36.3822 14.3276 37.0549C14.915 39.004 15.5818 41.2018 15.6347 41.9944C15.6245 42.6118 15.5626 43.2278 15.4495 43.8374C15.2297 44.9508 15.1551 46.0823 15.2272 47.2102C15.4336 48.6202 16.873 53.6748 17.2911 55.1216Z" fill="#FC9835"/>
<path d="M23.2385 5.00466C23.2283 4.99988 23.2202 4.99234 23.2154 4.98319C23.2107 4.97404 23.2095 4.96378 23.212 4.95397C23.3546 4.52035 23.3546 4.06058 23.212 3.62696C23.2152 3.61883 23.2213 3.61178 23.2294 3.60679C23.2374 3.6018 23.2471 3.59912 23.257 3.59912C23.2669 3.59912 23.2765 3.6018 23.2846 3.60679C23.2926 3.61178 23.2987 3.61883 23.302 3.62696C23.4522 4.07844 23.4522 4.55778 23.302 5.00927C23.2976 5.01292 23.2924 5.01572 23.2868 5.01749C23.2811 5.01926 23.275 5.01994 23.269 5.01951C23.263 5.01907 23.2572 5.01752 23.2519 5.01496C23.2466 5.0124 23.242 5.00889 23.2385 5.00466Z" fill="#993022"/>
<path d="M23.2756 4.63133C23.2165 4.6327 23.1586 4.61645 23.1116 4.58525C23.0752 4.55369 23.0476 4.51522 23.0311 4.47286C23.0146 4.4305 23.0095 4.38539 23.0163 4.34104C23.014 4.29564 23.0238 4.25039 23.045 4.20883C23.0661 4.16726 23.0979 4.13051 23.1381 4.10144C23.173 4.08402 23.2117 4.07299 23.2518 4.06903C23.2918 4.06507 23.3323 4.06826 23.3709 4.0784C23.3811 4.08318 23.3891 4.09072 23.3939 4.09987C23.3987 4.10902 23.3999 4.11928 23.3974 4.12909C23.389 4.13469 23.3788 4.13773 23.3683 4.13773C23.3577 4.13773 23.3475 4.13469 23.3392 4.12909C23.2917 4.11219 23.2385 4.11219 23.191 4.12909C23.1381 4.15674 23.1116 4.21663 23.1063 4.30879C23.0994 4.34098 23.1016 4.37414 23.1127 4.40543C23.1237 4.43673 23.1433 4.46523 23.1698 4.48849C23.2208 4.50595 23.2775 4.50595 23.3286 4.48849C23.3341 4.48711 23.34 4.48675 23.3457 4.48741C23.3514 4.48807 23.3569 4.48975 23.3619 4.49234C23.3669 4.49493 23.3712 4.49838 23.3745 4.50247C23.3779 4.50656 23.3803 4.51121 23.3815 4.51613C23.3831 4.52098 23.3835 4.52605 23.3827 4.53104C23.382 4.53603 23.38 4.54084 23.3771 4.54515C23.3741 4.54947 23.3701 4.55321 23.3654 4.55614C23.3607 4.55908 23.3554 4.56114 23.3497 4.56221C23.3309 4.58954 23.3057 4.6131 23.2756 4.63133Z" fill="#993022"/>
<path d="M27.0274 8.12801C26.7266 8.10749 26.4348 8.02905 26.173 7.89837C25.9113 7.76769 25.6861 7.58802 25.5139 7.37235C25.5079 7.36721 25.5032 7.36111 25.5 7.35439C25.4968 7.34767 25.4952 7.34046 25.4952 7.33318C25.4952 7.32591 25.4968 7.3187 25.5 7.31198C25.5032 7.30526 25.5079 7.29916 25.5139 7.29402C25.5267 7.28332 25.5437 7.27734 25.5615 7.27734C25.5792 7.27734 25.5963 7.28332 25.6091 7.29402C25.7823 7.50741 26.0113 7.68182 26.2772 7.80281C26.5432 7.9238 26.8384 7.98789 27.1385 7.98978C27.1472 7.98847 27.1562 7.98878 27.1648 7.99067C27.1734 7.99257 27.1815 7.99602 27.1885 8.0008C27.1954 8.00557 27.2012 8.01157 27.2053 8.0184C27.2095 8.02523 27.212 8.03275 27.2126 8.04046C27.2133 8.04833 27.2122 8.05625 27.2094 8.06376C27.2066 8.07127 27.2021 8.07822 27.1962 8.08421C27.1903 8.09021 27.1831 8.09513 27.175 8.09869C27.1669 8.10225 27.1581 8.10439 27.1491 8.10497L27.0274 8.12801Z" fill="#CD3900"/>
<path d="M28.1068 7.68071C27.7793 7.61621 27.4699 7.4956 27.1965 7.32592C27.1887 7.31831 27.1844 7.30847 27.1844 7.29827C27.1844 7.28807 27.1887 7.27823 27.1965 7.27062C27.2005 7.2667 27.2054 7.26356 27.2109 7.26141C27.2164 7.25926 27.2223 7.25814 27.2283 7.25814C27.2343 7.25814 27.2402 7.25926 27.2457 7.26141C27.2512 7.26356 27.2561 7.2667 27.26 7.27062C27.7892 7.53787 28.0856 7.63463 28.1491 7.60698C28.3303 7.00138 28.4629 6.38554 28.546 5.76391C28.546 5.75907 28.5471 5.75428 28.5492 5.74981C28.5513 5.74533 28.5545 5.74127 28.5584 5.73785C28.5623 5.73442 28.567 5.73171 28.5721 5.72986C28.5773 5.728 28.5828 5.72705 28.5883 5.72705C28.5939 5.72705 28.5994 5.728 28.6045 5.72986C28.6097 5.73171 28.6143 5.73442 28.6183 5.73785C28.6222 5.74127 28.6253 5.74533 28.6274 5.74981C28.6296 5.75428 28.6307 5.75907 28.6307 5.76391C28.5195 6.45506 28.3131 7.60698 28.1861 7.6761C28.1612 7.68611 28.133 7.68775 28.1068 7.68071Z" fill="#993022"/>
<path d="M25.5674 4.50677C25.7117 4.36636 25.8915 4.25707 26.0926 4.1875C26.2938 4.11793 26.5107 4.09 26.7263 4.1059C26.9283 4.14148 27.1145 4.22616 27.2634 4.35012C27.4123 4.47407 27.5178 4.63223 27.5677 4.80627C27.5677 4.80627 27.3931 4.53442 26.5676 4.45148C25.742 4.36854 25.5674 4.50677 25.5674 4.50677Z" fill="#601717"/>
<path d="M28.737 5.38611C28.737 5.38611 29.2662 5.0175 29.7319 5.16033C30.1976 5.30317 30.1341 5.9206 30.1341 5.9206C29.9605 5.74782 29.7453 5.61037 29.5039 5.51801C29.2625 5.42565 29.0007 5.38062 28.737 5.38611Z" fill="#601717"/>
<path d="M26.9853 5.75952C26.8001 5.99912 26.5619 6.14195 26.4561 6.07745C26.3502 6.01294 26.4137 5.77334 26.6043 5.53374C26.7948 5.29414 27.0223 5.15591 27.1335 5.22042C27.2446 5.28493 27.1705 5.52913 26.9853 5.75952Z" fill="#1E1724"/>
<path d="M29.3352 6.62137C29.1605 6.84715 28.933 6.97616 28.806 6.91165C28.679 6.84715 28.7636 6.62137 28.9383 6.39559C29.1129 6.16982 29.3352 6.04541 29.441 6.10531C29.5469 6.16521 29.5098 6.4002 29.3352 6.62137Z" fill="#1E1724"/>
<path d="M16.4493 19.7439C16.4355 19.7477 16.4207 19.7477 16.407 19.7439C16.3958 19.7322 16.3896 19.7176 16.3896 19.7024C16.3896 19.6872 16.3958 19.6725 16.407 19.6609C17.2431 18.6887 17.2219 18.145 17.2219 18.1404C17.2217 18.1248 17.2281 18.1096 17.2398 18.0977C17.2514 18.0859 17.2677 18.0781 17.2854 18.0759C17.2942 18.0752 17.303 18.0762 17.3114 18.0787C17.3197 18.0812 17.3273 18.0851 17.3338 18.0903C17.3403 18.0955 17.3454 18.1019 17.3489 18.1089C17.3524 18.1159 17.3542 18.1235 17.3542 18.1312C17.3542 18.1312 17.386 18.721 16.5128 19.7346C16.5041 19.741 16.4936 19.7452 16.4825 19.7468C16.4713 19.7484 16.4599 19.7474 16.4493 19.7439Z" fill="#083184"/>
<path d="M31.8485 5.09625C31.4622 6.27121 30.4038 5.99014 30.4038 5.99014C30.5694 5.62706 30.6849 5.2481 30.7477 4.86126C30.8113 4.5171 30.8326 4.16802 30.8113 3.81993C30.4817 3.9814 30.1099 4.06622 29.7317 4.06622C29.3535 4.06622 28.9817 3.9814 28.6521 3.81993C28.5368 3.76226 28.4286 3.69432 28.3293 3.61719C28.3102 3.59849 28.2958 3.57652 28.287 3.55268C28.287 3.55268 28.287 3.9858 26.6994 3.72777C25.1118 3.46974 24.9213 2.92143 24.9213 2.92143L23.9158 4.23462C23.9799 3.99479 23.9652 3.74412 23.8735 3.51121C23.8438 3.45023 23.7974 3.3965 23.7384 3.35473C23.6793 3.31296 23.6094 3.28443 23.5348 3.27161C22.9262 3.15181 22.4076 3.87983 22.5875 4.65392C22.6425 4.91138 22.7617 5.15519 22.9368 5.36811C23.0351 5.4968 23.1609 5.60785 23.3072 5.69525V5.83348C23.249 6.13759 23.4872 6.75502 23.4237 7.13285C23.3309 7.88541 22.9743 8.59487 22.4023 9.16483C22.0225 9.42414 21.5566 9.5696 21.074 9.57953C20.1321 9.65325 19.0843 9.45051 18.9572 8.92984C18.7985 8.10507 19.3171 6.77345 21.3863 4.38206C23.4554 1.99068 25.5193 0.640627 27.3715 0.152213C29.2237 -0.336201 29.6153 0.507004 29.6153 0.507004C30.1445 0.133782 30.8748 0.741996 31.2399 1.39168C31.4536 1.81453 31.6202 2.25428 31.7373 2.70487C31.9885 3.48348 32.0266 4.30252 31.8485 5.09625Z" fill="#722724"/>
<path d="M23.4244 7.12412C23.3316 7.87668 22.975 8.58614 22.4031 9.1561C22.0232 9.4154 21.5573 9.56086 21.0748 9.57079C21.4871 9.31217 21.8312 8.97981 22.084 8.59599C22.3368 8.21218 22.4925 7.78575 22.5406 7.34528C22.6062 6.67516 22.7354 6.01091 22.927 5.35938C23.0252 5.48806 23.151 5.59912 23.2974 5.68652V5.82475C23.2498 6.12886 23.4879 6.74629 23.4244 7.12412Z" fill="#591818"/>
<path d="M31.8491 5.09646C31.4628 6.27142 30.4044 5.99035 30.4044 5.99035C30.5701 5.62727 30.6855 5.24831 30.7484 4.86147C30.812 4.51731 30.8333 4.16823 30.8119 3.82014C30.4823 3.98161 30.1105 4.06643 29.7323 4.06643C29.3541 4.06643 28.9823 3.98161 28.6528 3.82014C28.5374 3.76247 28.4292 3.69453 28.33 3.6174C28.3108 3.5987 28.2964 3.57673 28.2876 3.55289C28.2876 3.55289 28.2876 3.98601 26.7 3.72798C25.1124 3.46995 24.9219 2.92164 24.9219 2.92164L23.9165 4.23483C23.9805 3.99501 23.9658 3.74433 23.8741 3.51142C24.127 3.20977 24.4474 2.95584 24.8161 2.76498C24.8161 2.76498 25.1865 3.25339 26.5677 3.27182C27.9489 3.29025 28.33 3.05526 28.33 3.05526C28.3961 3.20346 28.4959 3.33854 28.6233 3.45244C28.7507 3.56634 28.9032 3.65673 29.0716 3.71822C29.24 3.77971 29.4209 3.81104 29.6035 3.81034C29.7861 3.80965 29.9667 3.77694 30.1345 3.71416C30.7708 3.52885 31.3255 3.1763 31.7221 2.70508C31.9785 3.4826 32.022 4.30165 31.8491 5.09646Z" fill="#591818"/>
<path d="M27.3714 12.178C26.5247 12.5604 25.4927 11.3855 25.0376 10.8878C25.0265 10.8705 25.0122 10.855 24.9953 10.8418C24.6122 10.3692 24.4256 9.79715 24.4661 9.21985L24.7677 8.65771L24.8842 8.71301C25.3383 8.91287 25.8349 9.0291 26.343 9.05447C26.851 9.07984 27.3597 9.01379 27.8371 8.86045C27.8371 8.86045 27.8371 8.95261 27.8636 9.10466C27.9535 9.80963 28.0911 11.8554 27.3714 12.178Z" fill="#722724"/>
<path d="M27.8794 9.10466C27.0909 9.22446 25.2334 9.63915 25.0376 10.8878C25.0265 10.8705 25.0122 10.855 24.9953 10.8418C24.6122 10.3692 24.4256 9.79715 24.4661 9.21985L24.7677 8.65771L24.8842 8.71301C25.3383 8.91287 25.8349 9.0291 26.343 9.05447C26.851 9.07984 27.3596 9.01379 27.8371 8.86045C27.8371 8.86045 27.8688 8.95261 27.8794 9.10466Z" fill="#591818"/>
<path d="M25.9908 16.5878C25.637 17.0801 25.0866 17.4411 24.4456 17.6015C26.0332 16.8412 26.0332 14.436 26.0332 14.436L26.0702 14.4913C26.245 15.185 26.2177 15.9057 25.9908 16.5878Z" fill="#001EB2"/>
<path d="M24.1274 17.7488C24.1119 17.7484 24.0968 17.7437 24.0845 17.7354C24.0721 17.7272 24.0631 17.7157 24.0586 17.7027C24.0555 17.6875 24.0592 17.6717 24.0691 17.6589C24.079 17.646 24.0942 17.6369 24.1116 17.6336C24.1116 17.6336 25.461 17.3848 25.932 16.5508C26.403 15.7168 25.8315 13.7032 25.8262 13.6802C25.8238 13.6729 25.8232 13.6653 25.8243 13.6578C25.8255 13.6503 25.8283 13.6431 25.8328 13.6367C25.8373 13.6302 25.8432 13.6246 25.8503 13.6202C25.8573 13.6158 25.8653 13.6127 25.8738 13.6111C25.8913 13.6068 25.9101 13.6088 25.926 13.6166C25.9418 13.6244 25.9535 13.6373 25.9585 13.6526C25.9849 13.7355 26.5565 15.726 26.0537 16.6061C25.551 17.4861 24.1909 17.7396 24.1274 17.7488Z" fill="#A2E7F4"/>
<path d="M18.693 22.8036C18.9028 23.4124 19.2362 23.9836 19.6773 24.4901C19.5837 24.4727 19.4942 24.4415 19.4127 24.3979C18.6877 24.0569 18.3914 22.7253 18.3914 22.7253C17.3299 22.2314 16.3883 21.5632 15.6184 20.7578C15.5601 20.8362 15.5178 20.8822 15.5178 20.8822C15.2205 20.6385 14.9906 20.3392 14.8457 20.0068L14.9886 19.8133C15.068 19.6888 15.1527 19.5552 15.232 19.417C15.4549 19.668 15.7229 19.8858 16.0258 20.0621L16.137 20.1174C16.2377 20.1624 16.342 20.2009 16.4492 20.2326C16.4492 20.2326 17.8833 22.412 18.693 22.8036Z" fill="#67C7CE"/>
<path d="M25.4504 23.8126C25.4504 23.8817 25.4504 23.9278 25.4504 23.9278C25.4504 23.9278 25.4504 28.7566 25.1647 29.2358C25.0853 29.3695 24.9689 29.5353 24.8472 29.6966C24.6461 29.5492 25.0853 28.8995 25.0853 28.8995C25.0853 28.8995 25.0853 27.9779 25.0853 27.2269C25.0853 26.4758 24.9424 24.1029 24.953 24.0891C24.8207 24.1443 24.7096 24.1582 24.6461 24.0891C24.4508 23.8448 24.3712 23.5445 24.4238 23.2505C24.7804 23.0109 25.1633 22.8025 25.5669 22.6284C25.5245 23.0385 25.4716 23.5776 25.4504 23.8126Z" fill="#67C7CE"/>
<path d="M41.4754 53.9102C40.9462 54.4032 41.2478 54.864 42.3486 54.8778C43.4493 54.8916 45.021 54.9331 44.9311 54.3802C44.8411 53.8273 44.0526 53.5692 42.9519 53.583C41.8511 53.5969 41.6236 53.7674 41.4754 53.9102Z" fill="#002064"/>
</svg>
