<svg width="56" height="56" viewBox="0 0 56 56" fill="none" xmlns="http://www.w3.org/2000/svg">
<g clip-path="url(#clip0)">
<path d="M26.6807 53.7257L26.731 54.9996C26.7403 55.2315 26.6367 55.4569 26.443 55.6262C26.2494 55.7956 25.9815 55.895 25.6983 55.9028L21.5836 55.9967C21.512 55.9984 21.441 55.9859 21.3765 55.9603C21.3121 55.9348 21.2562 55.8968 21.2135 55.8497C21.1708 55.8026 21.1426 55.7478 21.1314 55.6899C21.1201 55.632 21.1261 55.5727 21.1488 55.5171C21.1778 55.4499 21.2302 55.3911 21.2997 55.348C21.3691 55.305 21.4524 55.2795 21.5393 55.2749L22.4351 55.2617C22.9736 55.2406 23.487 55.0691 23.8899 54.7759C24.2928 54.4826 24.5609 54.0852 24.6495 53.6499L26.6807 53.7257Z" fill="#347CFF"/>
<path d="M26.7885 50.3674C26.8287 48.8528 26.867 47.1175 26.867 45.8221C26.867 45.7067 27.1508 39.23 27.1508 39.23L22.6677 39.5299L22.9838 45.008C23.0103 45.473 23.0701 45.9363 23.1629 46.3956L23.9682 50.3674H26.7885Z" fill="#FFC0A9"/>
<path d="M23.9109 50.0757L24.6376 53.6503L26.6809 53.7294C26.6809 53.7294 26.7433 52.0484 26.7956 50.0757H23.9109Z" fill="white"/>
<path d="M26.7616 51.2421C26.7616 51.052 26.7676 50.8576 26.7797 50.6587H24.0299L24.1486 51.2421H26.7616Z" fill="#FFD01F"/>
<path d="M26.7312 52.2325C26.7312 52.0842 26.7413 51.9293 26.7453 51.7661H24.2552L24.3498 52.2325H26.7312Z" fill="#FFD01F"/>
<path d="M29.7546 53.7261L29.7043 55C29.695 55.2319 29.7986 55.4572 29.9923 55.6266C30.1859 55.7959 30.4538 55.8954 30.737 55.9031L34.8517 55.9971C34.9234 55.9992 34.9947 55.987 35.0594 55.9615C35.1241 55.936 35.1802 55.898 35.223 55.8508C35.2658 55.8037 35.294 55.7487 35.305 55.6906C35.3161 55.6325 35.3097 55.5731 35.2865 55.5175C35.2588 55.4497 35.207 55.3901 35.1378 55.3464C35.0687 55.3026 34.9852 55.2767 34.898 55.2719L34.0022 55.2588C33.4638 55.2374 32.9506 55.0658 32.5478 54.7726C32.1449 54.4794 31.8768 54.0822 31.7878 53.647L29.7546 53.7261Z" fill="#347CFF"/>
<path d="M29.6499 50.3674C29.6076 48.8528 29.5694 47.1175 29.5694 45.8221C29.5694 45.7067 29.2855 39.23 29.2855 39.23L33.7706 39.5217L33.4546 45.008C33.4264 45.473 33.3659 45.9363 33.2734 46.3956L32.4682 50.3674H29.6499Z" fill="#FFC0A9"/>
<path d="M32.5252 50.0751L31.8065 53.6496L29.7552 53.7255C29.7552 53.7255 29.6948 52.0445 29.6425 50.0718L32.5252 50.0751Z" fill="white"/>
<path d="M29.6746 51.2421C29.6746 51.0526 29.6625 50.8581 29.6584 50.6587H32.4103L32.2915 51.2421H29.6746Z" fill="#FFD01F"/>
<path d="M29.7046 52.2325C29.7046 52.0842 29.6945 51.9293 29.6905 51.7661H32.1806L32.086 52.2325H29.7046Z" fill="#FFD01F"/>
<path d="M22.1433 40.1709H27.9812C28.1201 38.452 27.8927 36.5107 28.3194 34.266C28.5409 33.1025 28.8408 30.9387 28.875 29.8543L22.7915 28.2969C22.7915 28.2969 22.0346 37.4105 22.1433 40.1709Z" fill="white"/>
<path d="M28.4728 40.1708H33.9544C33.9766 37.44 33.2398 28.9395 33.3505 28.2885L27.3777 27.687L27.9817 34.5049C27.9817 34.5049 28.2715 38.508 28.4728 40.1708Z" fill="white"/>
<path d="M37.7994 10.0369C37.7833 10.1802 37.7652 10.2791 37.747 10.4011C37.7088 10.6219 37.6685 10.8312 37.6263 11.0306C37.4491 11.8283 35.7058 14.9546 35.7058 14.9546L33.4169 13.1846C33.4169 13.1846 33.6404 12.644 33.7773 12.326L34.1799 11.408C34.3228 11.0784 34.4698 10.7488 34.6087 10.4011C34.6832 10.228 34.7516 10.0583 34.81 9.89348C34.8361 9.81932 34.8623 9.74681 34.8905 9.67265L34.9187 9.59519V9.5853C34.9187 9.70396 34.9187 9.61497 34.9187 9.63969V9.60178V9.56388V9.54245C34.9187 9.54245 34.9187 9.54245 34.9187 9.51279V9.39578C34.9187 9.31008 34.9187 9.23098 34.9026 9.12715C34.8865 8.93433 34.8684 8.74151 34.8522 8.54869C34.812 8.14822 34.7717 7.74775 34.7315 7.35222C34.6912 6.95669 34.6409 6.55952 34.5966 6.17883C34.5523 5.79813 34.508 5.42897 34.4496 5.07959C34.3913 4.73021 34.3409 4.40225 34.2826 4.09901C34.2544 3.94739 34.2342 3.80072 34.196 3.66558C34.1561 3.53666 34.1022 3.41091 34.0349 3.28983C33.9181 3.09598 33.8328 2.89042 33.7813 2.67841C33.7306 2.48451 33.7445 2.283 33.8216 2.09501V2.08677C33.8546 2.0224 33.9001 1.96284 33.9564 1.91043C34.0256 1.84317 34.1105 1.78792 34.2062 1.74793C34.3018 1.70793 34.4062 1.68401 34.5134 1.67756C34.6205 1.67111 34.7281 1.68226 34.8298 1.71037C34.9316 1.73847 35.0255 1.78296 35.1059 1.84121C35.2785 1.98254 35.4021 2.15884 35.4642 2.3521C35.5325 2.56236 35.5677 2.77891 35.5689 2.99648C35.574 3.13002 35.5936 3.26293 35.6273 3.39366C35.6655 3.53044 35.7259 3.67052 35.7803 3.81885C35.891 4.11384 36.0098 4.43356 36.1467 4.76976C36.2835 5.10596 36.4285 5.46193 36.5774 5.83109C36.7264 6.20025 36.8794 6.58259 37.0344 6.97153C37.1894 7.36046 37.3424 7.76258 37.4713 8.17294C37.5377 8.38059 37.6061 8.5866 37.6605 8.80414C37.6887 8.91126 37.7168 9.02662 37.743 9.13374L37.7813 9.31997C37.7929 9.36009 37.801 9.40085 37.8054 9.44192L37.8356 9.58365L37.7994 10.0369Z" fill="#FFC0A9"/>
<path d="M17.8091 10.0369C17.8252 10.1802 17.8433 10.2791 17.8614 10.4011C17.8997 10.6219 17.9399 10.8312 17.9822 11.0306C18.1593 11.8283 19.9027 14.9546 19.9027 14.9546L22.1955 13.1846C22.1955 13.1846 21.9721 12.644 21.8352 12.326L21.4326 11.408C21.2897 11.0784 21.1427 10.7488 21.0038 10.4011C20.9293 10.228 20.8609 10.0583 20.8025 9.89348C20.7763 9.81932 20.7502 9.74681 20.722 9.67265L20.6938 9.59519V9.5853C20.6938 9.70396 20.6938 9.61497 20.6938 9.63969V9.60178V9.56388V9.54245C20.6938 9.54245 20.6938 9.54245 20.6938 9.51279V9.39578C20.6938 9.31008 20.6938 9.23098 20.7099 9.12715C20.726 8.93433 20.7441 8.74151 20.7602 8.54869C20.8005 8.14822 20.8407 7.74775 20.881 7.35222C20.9213 6.95669 20.9716 6.55952 21.0159 6.17883C21.0602 5.79813 21.1045 5.42897 21.1628 5.07959C21.2212 4.73021 21.2715 4.40225 21.3299 4.09901C21.3581 3.94739 21.3782 3.80072 21.4165 3.66558C21.4555 3.53644 21.5094 3.41062 21.5775 3.28983C21.6944 3.09598 21.7796 2.89042 21.8312 2.67841C21.8819 2.48451 21.868 2.283 21.7909 2.09501V2.08677C21.7579 2.0224 21.7124 1.96284 21.656 1.91043C21.5869 1.84317 21.502 1.78792 21.4063 1.74793C21.3107 1.70793 21.2062 1.68401 21.0991 1.67756C20.992 1.67111 20.8844 1.68226 20.7826 1.71037C20.6809 1.73847 20.587 1.78296 20.5066 1.84121C20.3298 1.97713 20.2 2.1488 20.1301 2.33892C20.0618 2.54918 20.0267 2.76573 20.0255 2.9833C20.0203 3.11684 20.0008 3.24975 19.9671 3.38047C19.9288 3.51726 19.8684 3.65734 19.8141 3.80566C19.7034 4.10066 19.5846 4.42038 19.4477 4.75658C19.3108 5.09277 19.1659 5.44875 19.0169 5.81791C18.8679 6.18707 18.721 6.56941 18.5559 6.95834C18.3908 7.34728 18.2479 7.7461 18.1171 8.15976C18.0486 8.36741 17.9822 8.57341 17.9278 8.79095C17.8997 8.89807 17.8715 9.01344 17.8453 9.12056L17.8071 9.30678C17.7955 9.347 17.7868 9.38771 17.7809 9.42874L17.7527 9.57047L17.8091 10.0369Z" fill="#FFC0A9"/>
<path d="M31.7321 15.8773C29.3043 15.8164 29.5177 14.1271 29.5177 14.1271L27.8932 14.0859L26.2686 14.1271C26.2686 14.1271 26.488 15.8164 24.0542 15.8773C23.2651 15.8971 21.6828 17.9951 21.6828 17.9951H32.8272C32.8272 17.9951 32.0964 15.8856 31.7321 15.8773Z" fill="#FFC0A9"/>
<path d="M26.1975 14.6521C26.1452 14.8252 26.0639 14.9916 25.956 15.1465C26.7149 16.4979 28.8226 16.6693 29.7808 15.0542C29.7005 14.9259 29.6454 14.7879 29.6177 14.6455L26.1975 14.6521Z" fill="#FFAF96"/>
<path d="M24.1245 9.93416C24.358 7.9796 26.0973 6.85729 27.8165 6.87872C29.5356 6.90014 31.2487 8.07519 31.4158 10.0297C31.5125 11.1834 31.2145 12.4161 30.9871 13.128C30.8639 13.5407 30.6185 13.9222 30.2724 14.2388C29.4934 14.9359 28.4828 15.4913 27.6876 15.4814C26.8925 15.4715 25.9 14.8881 25.1431 14.1729C24.8065 13.8472 24.5722 13.4591 24.4607 13.0423C24.2614 12.3254 23.9936 11.0795 24.1245 9.93416Z" fill="#FFC0A9"/>
<path d="M36.5109 14.28L33.1893 12.8545L30.8421 15.6561C30.8421 15.6561 30.2905 17.1394 27.909 17.174C25.3283 17.1229 24.9076 15.6561 24.9076 15.6561L22.3027 12.9105L19.1482 14.4185L22.5281 19.3115L22.7717 29.3743C22.7717 29.3743 23.742 29.9462 27.909 30.0022C31.8768 29.9462 33.29 29.3331 33.29 29.3331L33.1792 19.6411L36.5109 14.28Z" fill="#4D87DB"/>
<path d="M26.105 11.5361C26.105 11.582 26.0884 11.627 26.0572 11.6652C26.026 11.7034 25.9816 11.7332 25.9298 11.7508C25.8779 11.7684 25.8208 11.773 25.7658 11.764C25.7107 11.755 25.6602 11.7329 25.6205 11.7004C25.5808 11.6679 25.5537 11.6265 25.5428 11.5814C25.5318 11.5363 25.5374 11.4896 25.5589 11.4472C25.5804 11.4047 25.6168 11.3684 25.6635 11.3429C25.7101 11.3173 25.765 11.3037 25.8212 11.3037C25.8964 11.3037 25.9686 11.3282 26.0219 11.3718C26.0751 11.4153 26.105 11.4745 26.105 11.5361Z" fill="#193441"/>
<path d="M29.4195 11.5361C29.4195 11.582 29.4361 11.627 29.4673 11.6652C29.4985 11.7034 29.5428 11.7332 29.5947 11.7508C29.6466 11.7684 29.7036 11.773 29.7587 11.764C29.8137 11.755 29.8643 11.7329 29.904 11.7004C29.9437 11.6679 29.9707 11.6265 29.9817 11.5814C29.9926 11.5363 29.987 11.4896 29.9655 11.4472C29.9441 11.4047 29.9077 11.3684 29.861 11.3429C29.8143 11.3173 29.7594 11.3037 29.7033 11.3037C29.628 11.3037 29.5558 11.3282 29.5026 11.3718C29.4494 11.4153 29.4195 11.4745 29.4195 11.5361Z" fill="#193441"/>
<path d="M26.8305 13.3248C26.7974 13.324 26.7648 13.3307 26.736 13.344C26.7073 13.3573 26.6835 13.3769 26.6674 13.4004C26.6512 13.424 26.6432 13.4508 26.6443 13.4778C26.6454 13.5049 26.6554 13.5312 26.6734 13.5538C26.7942 13.6968 26.9553 13.8139 27.1429 13.8953C27.3306 13.9767 27.5394 14.0199 27.7518 14.0213C27.9641 14.0228 28.1738 13.9824 28.3631 13.9037C28.5524 13.8249 28.7158 13.71 28.8395 13.5687C28.8604 13.5463 28.8734 13.5197 28.8768 13.4916C28.8803 13.4636 28.8742 13.4354 28.8591 13.41C28.8441 13.3847 28.8207 13.3633 28.7916 13.3483C28.7626 13.3332 28.729 13.3251 28.6946 13.3248H26.8305Z" fill="white"/>
<path d="M26.4502 12.5116C26.4502 12.7209 26.1825 12.8906 25.8463 12.8906C25.5101 12.8906 25.2424 12.7258 25.2424 12.5116C25.2424 12.2973 25.5101 12.1309 25.8463 12.1309C26.1825 12.1309 26.4502 12.3006 26.4502 12.5116Z" fill="#FFAF8A"/>
<path d="M29.0729 12.5116C29.0729 12.7209 29.3406 12.8906 29.6768 12.8906C30.013 12.8906 30.2807 12.7258 30.2807 12.5116C30.2807 12.2973 30.013 12.1309 29.6768 12.1309C29.3406 12.1309 29.0729 12.3006 29.0729 12.5116Z" fill="#FFAF8A"/>
<path d="M31.5205 7.11785C30.8018 6.84263 30.0952 6.25428 29.3061 6.12903C28.7565 6.04663 28.2734 6.22132 27.742 6.29384C27.1119 6.37294 26.3932 6.33504 25.7732 6.48171C24.7928 6.71738 24.044 7.43098 24.364 8.16435C24.1318 8.53471 23.9883 8.93804 23.9413 9.35258C23.7742 10.7419 24.1426 11.617 24.2634 11.5741C24.4647 11.5049 24.6982 11.1819 24.6982 10.554C24.6982 9.68713 25.1008 9.23557 25.5175 9.07077C26.9267 9.8404 28.6257 9.5833 30.1576 9.13998C30.518 9.34104 30.824 9.78766 30.824 10.549C30.824 11.3104 31.0535 11.5 31.2588 11.5692C31.3836 11.612 31.746 10.7452 31.5809 9.34764C31.5548 9.12411 31.5015 8.90328 31.4218 8.68842C32.2895 8.27477 32.7766 7.60072 31.5205 7.11785Z" fill="#AB661F"/>
<path d="M18.0717 2.53027L24.4531 2.53027V1.26459L18.0717 1.26459V2.53027Z" fill="#32393F"/>
<path d="M24.4986 3.09521H25.479V0.756663H24.4986V3.09521Z" fill="#FF3B43"/>
<path d="M18.0915 0.754883H17.1111V3.09344H18.0915V0.754883Z" fill="#FF3B43"/>
<path d="M23.3096 3.8501H24.9221V0.000303268H23.3096V3.8501Z" fill="#32393F"/>
<path d="M19.2818 0H17.6694V3.84979H19.2818V0Z" fill="#32393F"/>
<path d="M37.9283 1.26611H31.5469V2.5318H37.9283V1.26611Z" fill="#32393F"/>
<path d="M31.5 0.754883H30.5197V3.09344H31.5V0.754883Z" fill="#FF3B43"/>
<path d="M37.9085 3.09521H38.8889V0.756663H37.9085V3.09521Z" fill="#FF3B43"/>
<path d="M32.6904 0H31.0779V3.84979H32.6904V0Z" fill="#32393F"/>
<path d="M36.7182 3.8501H38.3306V0.000303268H36.7182V3.8501Z" fill="#32393F"/>
</g>
<defs>
<clipPath id="clip0">
<rect width="56" height="56" fill="white"/>
</clipPath>
</defs>
</svg>
