<svg width="56" height="56" viewBox="0 0 56 56" fill="none" xmlns="http://www.w3.org/2000/svg">
<g clip-path="url(#clip0)">
<path d="M26.8109 26.2334C26.3383 27.4007 26.2556 28.6584 26.572 29.864C26.8885 31.0696 27.5915 32.1749 28.6013 33.0546C32.2874 36.272 37.3751 39.2421 37.3751 39.2421L43.5403 52.3484L46.1084 52.2265L41.3934 37.4524C41.3373 37.2191 41.2101 37.0028 41.0248 36.8256L33.3042 28.6708L33.3406 27.184L26.8109 26.2334Z" fill="#FFC9A6"/>
<path d="M37.266 37.7515C37.266 37.7515 34.714 40.4883 40.6928 46.1849L37.266 37.7515Z" fill="#FFC9A6"/>
<path d="M46.0764 51.9165L44.0916 45.8892L41.0779 47.1044L43.7473 52.8462L46.0764 51.9165Z" fill="#FCE0D3"/>
<path d="M42.973 51.9268C42.9804 51.8932 42.997 51.8616 43.0212 51.8345C43.0454 51.8073 43.0767 51.7855 43.1125 51.7706C43.1483 51.7557 43.1877 51.7482 43.2274 51.7487C43.2672 51.7492 43.3063 51.7578 43.3416 51.7736C43.6413 51.9094 43.8844 52.2854 44.5568 52.1218C44.8077 52.076 45.0394 51.9724 45.227 51.8222C45.4147 51.6719 45.5513 51.4806 45.6221 51.2687C45.6278 51.2384 45.6407 51.2095 45.66 51.1838C45.6793 51.158 45.7046 51.136 45.7342 51.119C45.7639 51.102 45.7973 51.0904 45.8323 51.085C45.8674 51.0796 45.9034 51.0805 45.9381 51.0876L50.8354 52.0695C51.1212 52.1317 51.3671 52.288 51.5199 52.5048C51.5488 52.5524 51.5644 52.6051 51.5656 52.6588C51.5668 52.7125 51.5536 52.7657 51.5269 52.8142C51.5002 52.8628 51.4609 52.9054 51.4119 52.9387C51.3629 52.972 51.3056 52.9951 51.2445 53.0062L43.6818 53.9707C43.6113 53.98 43.5393 53.9767 43.4702 53.9612C43.4012 53.9456 43.3366 53.9181 43.2804 53.8802C43.2243 53.8424 43.1777 53.795 43.1436 53.7411C43.1096 53.6872 43.0887 53.6279 43.0823 53.5668L42.9203 52.174C42.9162 52.1532 42.9162 52.1321 42.9203 52.1113L42.973 51.9268Z" fill="#347CFF"/>
<path d="M28.9255 20.314L23.8986 34.0191L5.16004 32.7168L4.41876 35.1542L24.7695 38.3786C25.3729 38.4738 25.9953 38.4234 26.5674 38.2328C27.1395 38.0422 27.6389 37.719 28.0101 37.2991C30.084 34.9383 33.9849 29.8999 34.9692 24.2486L28.9255 20.314Z" fill="#FFC9A6"/>
<path d="M25.2038 34.4472C25.2038 34.4472 18.9454 32.0342 12.0349 33.3817L25.2038 34.4472Z" fill="#FFC9A6"/>
<path d="M4.97776 32.6538L12.7268 33.2736L12.6133 36.4492L4.41876 35.1539L4.97776 32.6538Z" fill="#FCE0D3"/>
<path d="M5.73538 32.2256C5.78053 32.2492 5.81848 32.2817 5.84608 32.3204C5.87369 32.3591 5.89016 32.4029 5.89412 32.4482C5.89808 32.4935 5.88942 32.5389 5.86886 32.5807C5.84829 32.6226 5.81642 32.6596 5.77589 32.6887C5.43158 32.9185 4.75916 32.9568 4.64169 33.7333C4.58996 34.0226 4.62788 34.3184 4.75163 34.5911C4.87537 34.8638 5.08056 35.1035 5.34651 35.2863C5.38696 35.3074 5.42189 35.3355 5.44913 35.3688C5.47638 35.4021 5.49534 35.4398 5.50485 35.4797C5.51435 35.5196 5.51419 35.5607 5.50437 35.6005C5.49455 35.6403 5.47529 35.678 5.44778 35.7111L1.57126 40.1785C1.45438 40.307 1.30827 40.4138 1.14182 40.4922C0.975373 40.5706 0.792087 40.6191 0.603139 40.6346C0.516986 40.6453 0.429092 40.638 0.346982 40.6131C0.264872 40.5882 0.190992 40.5467 0.131665 40.4919C0.072339 40.4371 0.0293338 40.3708 0.00633117 40.2987C-0.0166715 40.2265 -0.0189864 40.1506 -0.00041546 40.0775L2.4057 31.8043C2.43006 31.7264 2.47321 31.6538 2.53235 31.5912C2.5915 31.5286 2.66531 31.4774 2.74899 31.441C2.83266 31.4045 2.92433 31.3836 3.01802 31.3796C3.11172 31.3756 3.20534 31.3886 3.29281 31.4178L5.39512 32.0271C5.42599 32.0378 5.45579 32.0506 5.48424 32.0654L5.73538 32.2256Z" fill="#347CFF"/>
<path d="M32.8095 24.8403C33.2146 26.5082 36.4551 30.7388 36.4551 30.7388L30.452 34.2417L32.8095 24.8403Z" fill="#C2C2C2"/>
<path d="M25.8304 22.2744C25.8304 22.2744 22.0592 24.6073 24.8056 28.6708L23.8982 31.923L30.6629 34.9593C30.6629 34.9593 34.9364 28.9111 35.1794 23.5557C35.1794 23.5557 31.1895 20.1991 25.8304 22.2744Z" fill="white"/>
<path d="M29.1284 7.39875L23.741 6.03728C23.741 6.03728 19.512 3.08455 14.2097 1.85889L14.8092 3.80881L22.7971 8.43986L30.0884 11.3334L29.1284 7.39875Z" fill="#FFC9A6"/>
<path d="M34.0934 7.72285L28.6209 6.86279L27.7541 11.1143L30.545 11.8525L34.0934 7.72285Z" fill="#4D87DB"/>
<path d="M35.3287 10.3098L35.1221 10.1009C34.7963 9.76699 34.6361 9.33635 34.6763 8.90187C34.7165 8.46739 34.9537 8.06389 35.3368 7.77841L39.7926 4.48096L42.701 7.40932L37.9252 10.7625C37.265 11.2604 35.8999 10.8844 35.3287 10.3098Z" fill="#FFC9A6"/>
<path d="M38.647 7.35059C38.647 7.35059 37.124 8.58321 38.3716 10.4565L39.4167 9.71835L38.647 7.35059Z" fill="#FFBE99"/>
<path d="M44.8862 6.88683C44.3939 7.4565 43.7163 7.88799 42.9389 8.12678C42.1615 8.36557 41.3192 8.40095 40.5184 8.22846C39.7177 8.05597 38.9943 7.68334 38.4398 7.15764C37.8853 6.63195 37.5244 5.97677 37.4028 5.27488C37.2813 4.57298 37.4044 3.85586 37.7567 3.2141C38.109 2.57234 38.6747 2.03473 39.3823 1.66918C40.0899 1.30364 40.9076 1.12656 41.7322 1.16031C42.5568 1.19407 43.3513 1.43714 44.0153 1.85883C44.4575 2.13914 44.831 2.49179 45.1143 2.89652C45.3976 3.30125 45.5851 3.7501 45.666 4.21729C45.7469 4.68448 45.7197 5.16081 45.5859 5.61893C45.452 6.07705 45.2142 6.50793 44.8862 6.88683Z" fill="#FFC9A6"/>
<path d="M39.1787 9.58243C38.9697 9.44883 38.7934 9.2811 38.6599 9.08885C38.5264 8.89661 38.4383 8.68361 38.4007 8.46206C38.3631 8.24052 38.3766 8.01477 38.4406 7.79773C38.5046 7.5807 38.6178 7.37665 38.7737 7.19726L41.1514 4.43604L44.9307 6.8421L42.9945 9.09495C42.7817 9.34286 42.514 9.5522 42.2068 9.71095C41.8996 9.8697 41.5589 9.97473 41.2044 10.02C40.8499 10.0653 40.4884 10.05 40.1408 9.97488C39.7932 9.89979 39.4662 9.76642 39.1787 9.58243Z" fill="#FFC9A6"/>
<path d="M44.2336 7.46875L44.1648 8.86155C44.1573 8.91159 44.1343 8.95898 44.0982 8.99877C44.0621 9.03857 44.0143 9.06932 43.9596 9.08781C43.905 9.10631 43.8456 9.11187 43.7877 9.10392C43.7297 9.09597 43.6753 9.0748 43.6301 9.04261L42.662 8.6387L44.2336 7.46875Z" fill="#FFC9A6"/>
<path d="M40.7764 6.21842C41.3822 6.10863 41.9397 5.85445 42.3853 5.48498C42.8309 5.1155 43.1465 4.64566 43.2959 4.12922C43.2959 4.12922 45.4995 5.89807 46.6337 5.52202C46.6337 5.52202 47.6545 0.699451 42.425 0.0622457C37.1956 -0.57496 35.7495 4.17448 35.7495 4.17448L38.1799 6.89741L40.7764 6.21842Z" fill="#82635A"/>
<path d="M40.968 6.33021C40.8316 6.48476 40.6451 6.60124 40.4319 6.66504C40.2187 6.72884 39.9884 6.73713 39.7698 6.68886C39.5512 6.64059 39.354 6.53791 39.203 6.39371C39.0519 6.2495 38.9538 6.07017 38.9209 5.87822C38.8879 5.68627 38.9217 5.49023 39.0178 5.31468C39.114 5.13914 39.2683 4.9919 39.4614 4.89142C39.6545 4.79095 39.8778 4.74172 40.1033 4.7499C40.3288 4.75808 40.5465 4.82331 40.7291 4.93741C40.8524 5.01451 40.9567 5.112 41.0356 5.22417C41.1146 5.33634 41.1668 5.46093 41.189 5.59064C41.2113 5.72035 41.2032 5.85258 41.1653 5.97957C41.1273 6.10656 41.0603 6.22577 40.968 6.33021Z" fill="#FFC9A6"/>
<path d="M37.9551 5.1084L36.8615 6.53253C36.8615 6.53253 38.3035 7.9706 39.4822 6.60217L38.3156 6.11121L37.9551 5.1084Z" fill="#82635A"/>
<path d="M42.7903 28.5317C42.8496 28.9133 42.776 29.3014 42.5787 29.647C42.3814 29.9927 42.0693 30.2802 41.6819 30.4734C41.2945 30.6665 40.8491 30.7566 40.4021 30.7322C39.9552 30.7077 39.5267 30.5699 39.1708 30.3361C38.815 30.1023 38.5478 29.783 38.403 29.4187C38.2583 29.0544 38.2425 28.6613 38.3576 28.2893C38.4728 27.9172 38.7137 27.5829 39.0499 27.3285C39.3861 27.0742 39.8025 26.9112 40.2464 26.8603C40.5412 26.826 40.8409 26.8421 41.1284 26.9076C41.416 26.9731 41.6856 27.0868 41.922 27.242C42.1583 27.3973 42.3566 27.5912 42.5056 27.8125C42.6546 28.0338 42.7514 28.2782 42.7903 28.5317Z" fill="#FFC9A6"/>
<path d="M14.9872 2.87249C15.0459 3.25332 14.9722 3.64056 14.7754 3.98544C14.5785 4.33033 14.2674 4.61743 13.8811 4.81059C13.4948 5.00375 13.0506 5.09433 12.6045 5.07093C12.1585 5.04752 11.7304 4.91118 11.3743 4.67906C11.0182 4.44694 10.75 4.12944 10.6034 3.76654C10.4568 3.40363 10.4385 3.01156 10.5506 2.63969C10.6627 2.26783 10.9004 1.9328 11.2336 1.67681C11.5668 1.42082 11.9807 1.25531 12.4231 1.20113C12.7193 1.16533 13.0208 1.18022 13.3102 1.24496C13.5996 1.30969 13.8713 1.42298 14.1096 1.57832C14.3479 1.73366 14.5482 1.92797 14.6988 2.15007C14.8494 2.37218 14.9474 2.61769 14.9872 2.87249Z" fill="#FFC9A6"/>
<path d="M35.3378 7.77854C35.3378 7.77854 33.4866 6.69912 31.5423 8.27299C29.598 9.84685 26.7341 14.2377 25.8308 22.2741C25.8308 22.2741 31.4613 22.2741 35.1798 23.5555L36.7718 17.6674C36.7718 17.6674 40.5065 12.6742 37.8047 9.36634C37.8047 9.36634 36.7029 8.12674 35.3378 7.77854Z" fill="#4D87DB"/>
<path d="M33.8992 15.7525L34.6851 20.199C34.71 20.3447 34.7693 20.4845 34.8592 20.6099L40.4209 28.3016L42.3247 27.7619L37.9742 19.8334L37.7433 14.4224L33.8992 15.7525Z" fill="#FFC9A6"/>
<path d="M35.0499 10.1153C35.0499 10.1153 31.5137 11.3306 33.3041 16.9087L38.8617 16.4073C38.8617 16.4073 39.291 9.84026 35.0499 10.1153Z" fill="#4D87DB"/>
<path d="M55.9685 51.7669C55.8515 52.6996 55.4153 53.5816 54.7151 54.3012C54.0149 55.0208 53.0822 55.5458 52.0349 55.8096C50.9875 56.0735 49.8727 56.0644 48.8314 55.7835C47.7901 55.5027 46.8691 54.9626 46.1849 54.2317C45.5007 53.5008 45.0841 52.6119 44.9877 51.6774C44.8913 50.7429 45.1195 49.8048 45.6435 48.9819C46.1674 48.1589 46.9635 47.488 47.9311 47.054C48.8987 46.6201 49.9943 46.4425 51.0793 46.5439C52.5331 46.6797 53.8647 47.3061 54.7815 48.2855C55.6983 49.2649 56.1252 50.5171 55.9685 51.7669Z" fill="#DCDBE9"/>
<path d="M38.5616 13.43C38.5616 13.43 38.3388 11.9572 37.6704 11.2608C37.6704 11.2608 35.722 8.98353 33.5792 11.3408C31.6065 13.5101 33.3159 16.912 33.3159 16.912L34.126 16.8424" stroke="#4D87DB" stroke-width="0.76" stroke-linecap="round" stroke-linejoin="round"/>
</g>
<defs>
<clipPath id="clip0">
<rect width="56" height="56" fill="white"/>
</clipPath>
</defs>
</svg>
