<svg width="328" height="298" viewBox="0 0 328 298" fill="none" xmlns="http://www.w3.org/2000/svg">
<rect opacity="0.1" x="45.7403" y="114.033" width="253.517" height="141.405" fill="#0091FF"/>
<path d="M54.8968 126.081L71.5881 119.808C66.7571 113.946 60.336 107.958 53.5591 102.356L30.5318 106.255L49.5421 99.1095C32.7775 85.8515 15.3641 75.4934 15.3641 75.4934C15.3641 75.4934 -3.66975 128.792 1.92506 152.469C5.17015 166.202 13.9149 177.041 24.8769 182.735L25.3229 152.141L31.2774 185.387C37.6386 187.417 44.4316 187.682 50.9313 186.152C72.4019 181.079 85.2718 157.772 79.677 134.096C78.8389 130.549 76.8047 126.75 73.9585 122.854L54.8968 126.081Z" fill="#2F2E41"/>
<path opacity="0.1" d="M57.5046 178.965C63.0663 175.754 66.6868 171.613 65.5913 169.716C64.4958 167.818 59.099 168.883 53.5373 172.094C47.9755 175.305 44.355 179.446 45.4505 181.344C46.546 183.241 51.9428 182.177 57.5046 178.965Z" fill="black"/>
<path d="M121.98 255.438H99.1742C95.9041 252.369 92.8528 249.075 90.0425 245.58L74.1443 218.789L54.2246 185.209L52.0077 181.477L50.185 178.403L60.0364 172.931L62.1303 175.723L62.539 176.266L64.9403 179.463L81.1133 201.006L82.8818 184.833H89.4494L84.0572 204.927L121.98 255.438Z" fill="#3F3D56"/>
<path d="M265.73 127.492L246.843 125.607C250.208 118.255 255.174 110.337 260.612 102.719L285.368 100.427L263.856 98.2803C277.473 80.0529 292.551 64.6311 292.551 64.6311C292.551 64.6311 326.72 114.25 327.445 140.138C327.866 155.153 321.837 168.697 312.119 177.555L303.286 146.205L306.261 182.035C300.273 185.865 293.357 187.996 286.252 188.202C262.776 188.86 243.158 168.407 242.432 142.519C242.324 138.642 243.376 134.176 245.238 129.389L265.73 127.492Z" fill="#2F2E41"/>
<path opacity="0.1" d="M290.574 181.755C291.182 179.503 286.324 176.234 279.723 174.453C273.123 172.672 267.28 173.054 266.672 175.306C266.065 177.558 270.923 180.827 277.523 182.608C284.123 184.389 289.967 184.007 290.574 181.755Z" fill="black"/>
<path d="M284.9 180.023L284.788 180.425L283.865 183.69L282.607 188.135V188.139L271.305 228.126L263.682 255.095C263.552 255.21 263.421 255.323 263.288 255.438H241.617L257.313 216.583L246.268 197.39L253.024 195.592L259.27 211.74L270.011 185.159L270.014 185.155L271.605 181.21L271.877 180.537L273.265 177.09L284.538 179.937L284.9 180.023Z" fill="#3F3D56"/>
<path d="M140.862 264.589L131.833 297.969H162.751L166.307 294.686L167.675 297.969H200.782C200.782 297.969 204.339 276.354 199.961 274.712C195.583 273.071 140.862 264.589 140.862 264.589Z" fill="#2F2E41"/>
<path d="M175.61 132.984C186.037 132.984 194.489 124.531 194.489 114.105C194.489 103.678 186.037 95.2261 175.61 95.2261C165.184 95.2261 156.731 103.678 156.731 114.105C156.731 124.531 165.184 132.984 175.61 132.984Z" fill="#FFB8B8"/>
<path d="M161.519 123.544C161.519 123.544 165.076 150.358 159.604 153.368C154.132 156.377 192.163 156.651 192.163 156.651C192.163 156.651 183.681 133.394 187.512 126.28L161.519 123.544Z" fill="#FFB8B8"/>
<path d="M174.242 148.853C174.242 148.853 164.663 147.422 162.613 142.666L133.748 155.42C133.748 155.42 138.947 193.451 141.956 200.291L138.126 268.966C138.126 268.966 164.939 286.751 201.055 277.175L210.085 201.659L219.934 156.788L188.398 144.122C188.398 144.122 182.177 148.306 174.242 148.853Z" fill="#0091FF"/>
<path d="M194.215 235.313C194.215 235.313 159.467 234.218 161.93 244.615C164.392 255.013 196.404 244.068 196.404 244.068L194.215 235.313Z" fill="#FFB8B8"/>
<path d="M159.905 96.2473L156.375 94.8341C156.375 94.8341 163.755 86.7084 174.024 87.415L171.136 84.2354C171.136 84.2354 178.196 81.4091 184.614 88.8282C187.988 92.7282 191.891 97.3125 194.325 102.477H198.105L196.527 105.951L202.049 109.425L196.381 108.801C196.719 110.703 196.771 112.645 196.535 114.563C196.292 116.481 195.313 118.23 193.805 119.44C193.805 119.44 189.427 110.379 189.427 108.966V112.499C189.427 112.499 185.897 109.319 185.897 107.199L183.972 109.672L183.009 105.786L171.136 109.672L173.061 106.493L165.681 107.553L168.569 103.666C168.569 103.666 160.226 108.259 159.905 112.145C159.584 116.032 157.142 119.714 157.142 119.714C157.142 119.714 150.599 101.547 159.905 96.2473Z" fill="#2F2E41"/>
<path d="M182.861 224.216V228.873C182.86 228.962 182.788 229.035 182.698 229.035H182.583V253.295C182.583 254.693 181.449 255.827 180.051 255.827H164.892C163.495 255.826 162.362 254.693 162.362 253.296V229.886H162.278C162.215 229.886 162.164 229.835 162.163 229.772V227.121C162.163 227.058 162.215 227.006 162.278 227.006H162.362V226.008H162.277C162.211 226.008 162.157 225.954 162.158 225.887V223.273C162.158 223.207 162.211 223.154 162.277 223.153H162.362V221.791H162.276C162.248 221.791 162.221 221.779 162.201 221.76C162.181 221.74 162.17 221.713 162.17 221.684V220.258C162.17 220.199 162.217 220.151 162.276 220.151H162.362V217.262C162.362 215.864 163.495 214.731 164.892 214.731H180.051C181.449 214.731 182.582 215.864 182.583 217.262V224.053H182.698C182.788 224.053 182.86 224.126 182.861 224.216Z" fill="#3F3D56"/>
<path d="M172.497 228.02C173.868 228.02 174.979 226.909 174.979 225.538C174.979 224.168 173.868 223.057 172.497 223.057C171.127 223.057 170.016 224.168 170.016 225.538C170.016 226.909 171.127 228.02 172.497 228.02Z" fill="#F2F2F2"/>
<path d="M211.453 156.788H219.934C219.934 156.788 247.021 215.887 240.455 223.001C233.888 230.114 194.215 249.54 194.215 249.54C194.215 249.54 191.206 234.492 188.47 234.492L215.83 217.528L202.424 185.516L211.453 156.788Z" fill="#0091FF"/>
<path d="M150.712 232.85C150.712 232.85 181.629 249.267 175.884 256.381C170.138 263.494 142.504 243.795 142.504 243.795L150.712 232.85Z" fill="#FFB8B8"/>
<path d="M137.579 155.693H133.748C133.748 155.693 128.276 160.892 126.634 172.657L110.739 208.077C109.766 210.246 109.807 212.734 110.85 214.869C114.378 222.094 123.663 238.398 137.579 243.247L144.693 248.72C144.693 248.72 143.872 235.313 155.09 235.313L135.937 214.519L143.324 190.441L137.579 155.693Z" fill="#0091FF"/>
<rect x="172.68" width="94.2176" height="72.6821" fill="#0091FF"/>
<path fill-rule="evenodd" clip-rule="evenodd" d="M232.447 54.1582C236.812 50.0963 240.995 43 240.995 32.1754C240.995 26.3732 236.514 21.1482 230.714 21.0034C227.66 20.9271 224.896 22.1515 222.926 24.1599C221.866 25.2403 220.136 25.2431 219.077 24.1623C217.095 22.1404 214.308 20.9124 211.231 21.0049C205.58 21.1746 201.002 26.2939 201.002 31.9474C201.002 41.5 205.209 50.859 209.65 54.566C212.005 56.5314 215.27 57.0208 218.164 56.0049C219.118 55.6703 220.166 55.3897 221 55.3897C221.754 55.3897 222.683 55.6188 223.558 55.9099C226.633 56.9325 230.075 56.3658 232.447 54.1582Z" stroke="white" stroke-width="2" stroke-linecap="round" stroke-linejoin="round"/>
<path d="M221 24C221 24 221 16.6252 228 14" stroke="white" stroke-width="2" stroke-linecap="round" stroke-linejoin="round"/>
<path d="M207 31C205.533 37.9333 207.733 45.2667 213 51" stroke="white" stroke-width="2" stroke-linecap="round" stroke-linejoin="round"/>
<rect x="55.678" y="13.9785" width="94.2176" height="72.6821" fill="#0091FF"/>
<path fill-rule="evenodd" clip-rule="evenodd" d="M111.196 54.7156C110.911 52.7401 110.806 51.0155 110.806 49.5016C110.804 46.8542 111.124 44.8787 111.383 43.2825C111.553 42.2337 111.696 41.3486 111.704 40.5444V40.4955V40.4945C111.688 39.177 111.385 37.3476 110.582 35.7336C110.061 34.6681 109.24 33.6559 108.109 33.1029L110.925 28.2531C111.156 27.8553 111.021 27.3453 110.623 27.114C110.225 26.8831 109.715 27.0186 109.484 27.4161L106.484 32.5831C106.47 32.6071 106.46 32.6319 106.449 32.6569L106.441 32.6778C106.42 32.6767 106.399 32.6755 106.378 32.6743L106.378 32.6743C106.32 32.6711 106.263 32.6678 106.204 32.6679C105.255 32.6366 100.413 32.7964 97.6247 38.4637C96.0639 41.6202 93.0609 49.763 92.2197 54.0073C92.177 54.2272 92.1262 54.4748 92.0705 54.7467L92.0705 54.7467C91.7218 56.4492 91.1785 59.1009 91.1772 61.8229C91.1807 64.2304 91.5942 66.7435 93.0701 68.7277C94.5464 70.7205 97.0955 72.0116 100.87 72.0011H100.871H100.892C105.223 72.0161 108.067 70.5695 109.698 68.3587C111.327 66.1574 111.748 63.3755 111.751 60.7579C111.751 58.5721 111.448 56.4713 111.217 54.8657L111.196 54.7156ZM106.204 34.3349C107.533 34.3392 108.413 35.1687 109.092 36.4811C109.537 37.3592 109.812 38.4129 109.944 39.333C109.676 38.9367 109.404 38.5797 109.228 38.3486L109.228 38.3485L109.228 38.3485C109.111 38.194 109.036 38.0958 109.034 38.0796C108.92 37.9322 108.721 37.8786 108.548 37.9481C108.375 38.0177 108.27 38.1947 108.29 38.3799L108.29 38.3809V38.3809C108.291 38.3902 108.299 38.4659 108.299 38.6131C108.3 38.9384 108.253 39.553 107.988 40.1705C107.888 40.4037 107.689 40.8032 107.512 41.1489C107.155 40.566 106.598 39.6854 106.041 38.9222C105.294 37.9109 104.878 36.2959 104.794 35.9696C104.784 35.9315 104.778 35.911 104.778 35.9111C104.741 35.7466 104.608 35.6192 104.442 35.5909C104.276 35.5622 104.107 35.6369 104.018 35.7801C104.02 35.8007 102.981 37.3119 102.274 37.4292C101.942 37.5089 101.712 37.5504 101.555 37.5722L101.329 36.2169C103.325 34.4223 105.401 34.3595 106.107 34.3381C106.143 34.337 106.176 34.336 106.204 34.3349ZM100.872 70.3343H100.892C108.749 70.239 109.953 65.6987 110.084 60.7581C110.085 58.6819 109.787 56.6201 109.553 55.0044L109.546 54.9539C109.25 52.8999 109.139 51.0931 109.139 49.502C109.141 46.6463 109.499 44.4588 109.762 42.8476C109.85 42.306 109.928 41.8295 109.978 41.4147C109.965 41.3887 109.958 41.367 109.958 41.3565C109.942 41.2976 109.941 41.2692 109.941 41.2485C109.941 41.2437 109.941 41.2393 109.94 41.235C109.945 41.1519 109.95 41.1322 109.957 41.1093C109.958 41.1038 109.96 41.0982 109.961 41.0915C109.942 40.9677 109.578 40.256 109.196 39.727C109.146 39.6539 109.096 39.5817 109.047 39.5115C108.992 39.8145 108.902 40.151 108.754 40.499C108.537 41.0038 107.997 42.023 107.915 42.1773C107.909 42.1897 107.905 42.1966 107.905 42.197C107.834 42.3309 107.697 42.4152 107.545 42.4182C107.394 42.4212 107.253 42.3419 107.177 42.2109C107.177 42.2107 107.173 42.2035 107.165 42.1897C107.052 41.9982 106.196 40.547 105.367 39.4142C104.797 38.6261 104.419 37.6364 104.2 36.9429C103.798 37.4377 103.191 38.0399 102.467 38.2402C101.823 38.3927 101.501 38.4272 101.309 38.4282C101.194 38.4267 101.122 38.4176 101.041 38.3851C100.911 38.3299 100.817 38.2104 100.793 38.0697L100.607 36.9504C100.082 37.5519 99.5765 38.2926 99.1174 39.2059C97.655 42.132 94.6199 50.3865 93.8556 54.3284C93.8148 54.5349 93.7683 54.7617 93.7182 55.0062C93.3688 56.7102 92.8428 59.2764 92.8441 61.8229C92.9699 66.317 94.1409 70.239 100.872 70.3343Z" fill="white"/>
<path d="M108.59 63.0965C108.501 63.0702 108.408 63.1202 108.382 63.2084C108.275 63.563 108.144 63.9064 107.99 64.2375C107.951 64.3212 107.987 64.42 108.07 64.4589C108.154 64.498 108.253 64.4617 108.292 64.3787C108.453 64.0334 108.59 63.6744 108.701 63.3045C108.728 63.216 108.677 63.123 108.59 63.0965Z" fill="white"/>
<path d="M107.78 64.9952C107.701 64.9469 107.599 64.9709 107.55 65.0484C106.196 67.2218 103.786 68.668 101.038 68.668C100.945 68.668 100.871 68.7423 100.871 68.8345C100.871 68.9267 100.945 69.001 101.038 69.001C103.905 69.001 106.421 67.492 107.833 65.225C107.882 65.1469 107.858 65.0442 107.78 64.9952Z" fill="white"/>
</svg>
