<svg width="19" height="18" viewBox="0 0 19 18" fill="none" xmlns="http://www.w3.org/2000/svg">
<path fill-rule="evenodd" clip-rule="evenodd" d="M11.7661 0.396067C12.2612 -0.0990108 13.0424 -0.129964 13.5732 0.303238L13.6759 0.396067L17.6126 4.33273C18.1427 4.8629 18.1384 5.71655 17.6126 6.24279C17.3331 6.52202 16.9611 6.65329 16.5946 6.63627L17.0996 7.13941C17.6304 7.67013 17.6239 8.52469 17.1019 9.04711C16.6178 9.53122 15.8167 9.56159 15.2928 9.1379L15.1919 9.04711L13.0532 6.90923L6.9083 13.0542L9.04701 15.1923C9.54074 15.6862 9.5716 16.4694 9.13948 16.9996L9.04688 17.1021C8.56392 17.5849 7.76307 17.6138 7.23999 17.1906L7.13925 17.1L6.63333 16.594C6.65308 16.9612 6.52183 17.3334 6.24222 17.6131C5.75781 18.0968 4.95688 18.127 4.43339 17.7036L4.33257 17.6129L0.395764 13.6761C-0.134409 13.1455 -0.129472 12.2921 0.395899 11.7663C0.674929 11.4873 1.04657 11.3558 1.41281 11.3725L0.908686 10.8694C0.377283 10.3375 0.385697 9.48243 0.906736 8.96183C1.40184 8.46673 2.18299 8.43578 2.71385 8.869L2.81652 8.96183L4.95414 11.1L11.0991 4.95415L8.96166 2.81669C8.46656 2.32159 8.43562 1.54043 8.86883 1.00958L8.96166 0.906904C9.48814 0.380424 10.342 0.381667 10.8694 0.908988L11.3738 1.41341C11.3558 1.0469 11.487 0.675288 11.7661 0.396067ZM1.65297 12.419C1.48627 12.2523 1.2149 12.2527 1.04875 12.4189C0.902806 12.5649 0.88337 12.7894 0.993482 12.956L1.04861 13.0235L4.98528 16.9602C5.14101 17.1159 5.43379 17.1159 5.58971 16.9602C5.73525 16.8146 5.75345 16.5884 5.64433 16.4227L5.58978 16.3558L1.65297 12.419ZM2.1638 9.61454C1.99618 9.44692 1.72707 9.44692 1.55931 9.61468C1.41646 9.75741 1.39656 9.98252 1.50647 10.1493L1.56154 10.2168L7.79196 16.4472C7.94762 16.6029 8.24011 16.6034 8.39417 16.4494C8.53971 16.3038 8.5579 16.0776 8.44879 15.9119L8.39423 15.845L2.1638 9.61454ZM11.3492 6.01015L6.01014 11.3502L6.65907 11.9991L11.9981 6.65908L11.3492 6.01015ZM10.2166 1.5617C10.0494 1.39444 9.77994 1.39405 9.61437 1.55962C9.4677 1.70629 9.44937 1.93066 9.55937 2.09676L9.61438 2.16398L15.8447 8.3944C16.0006 8.55038 16.2932 8.55034 16.449 8.39454C16.5924 8.25101 16.6119 8.02609 16.502 7.85953L16.4469 7.79213L10.2166 1.5617ZM13.0232 1.04878C12.8556 0.881174 12.5864 0.881178 12.4189 1.04872C12.2734 1.19432 12.2552 1.42052 12.3643 1.58623L12.4188 1.65314L16.3559 5.59025C16.5224 5.75641 16.7937 5.75611 16.9599 5.59007C17.1059 5.44396 17.1252 5.21943 17.015 5.05288L16.9599 4.98545L13.0232 1.04878Z" fill="white"/>
</svg>
