<?xml version="1.0" encoding="UTF-8" standalone="no"?><svg xmlns="http://www.w3.org/2000/svg" xmlns:xlink="http://www.w3.org/1999/xlink" contentScriptType="application/ecmascript" contentStyleType="text/css" height="670px" preserveAspectRatio="none" style="width:2333px;height:670px;background:#000000;" version="1.1" viewBox="0 0 2333 670" width="2333px" zoomAndPan="magnify"><defs><filter height="300%" id="f179w7xkloivlu" width="300%" x="-1" y="-1"><feGaussianBlur result="blurOut" stdDeviation="2.0"/><feColorMatrix in="blurOut" result="blurOut2" type="matrix" values="0 0 0 0 0 0 0 0 0 0 0 0 0 0 0 0 0 0 .4 0"/><feOffset dx="4.0" dy="4.0" in="blurOut2" result="blurOut3"/><feBlend in="SourceGraphic" in2="blurOut3" mode="normal"/></filter></defs><g><!--entity catalog--><path d="M1252,18 C1252,8 1328,8 1328,8 C1328,8 1404,8 1404,18 L1404,44.6094 C1404,54.6094 1328,54.6094 1328,54.6094 C1328,54.6094 1252,54.6094 1252,44.6094 L1252,18 " fill="#070707" filter="url(#f179w7xkloivlu)" style="stroke: #FFFFFF; stroke-width: 1.5;"/><path d="M1252,18 C1252,28 1328,28 1328,28 C1328,28 1404,28 1404,18 " fill="none" style="stroke: #FFFFFF; stroke-width: 1.5;"/><text fill="#FFFFFF" font-family="sans-serif" font-size="14" lengthAdjust="spacingAndGlyphs" textLength="132" x="1262" y="46.5332">Каталог тренировок</text><!--entity walk--><rect fill="#070707" filter="url(#f179w7xkloivlu)" height="159.2656" style="stroke: #FFFFFF; stroke-width: 1.5;" width="196" x="850" y="133"/><text fill="#FFFFFF" font-family="sans-serif" font-size="14" lengthAdjust="spacingAndGlyphs" textLength="48" x="860" y="150.5332">Ходьба</text><line style="stroke: #FFFFFF; stroke-width: 1.0;" x1="860" x2="870" y1="158.6094" y2="158.6094"/><text fill="#FFFFFF" font-family="sans-serif" font-size="14" lengthAdjust="spacingAndGlyphs" textLength="76" x="860" y="178.1426">Параметры</text><line style="stroke: #FFFFFF; stroke-width: 1.0;" x1="860" x2="870" y1="186.2188" y2="186.2188"/><line style="stroke: #FFFFFF; stroke-width: 1.0;" x1="860" x2="870" y1="188.2188" y2="188.2188"/><text fill="#FFFFFF" font-family="sans-serif" font-size="14" lengthAdjust="spacingAndGlyphs" textLength="137" x="860" y="205.752">— Количество шагов</text><text fill="#FFFFFF" font-family="sans-serif" font-size="14" lengthAdjust="spacingAndGlyphs" textLength="176" x="860" y="223.3613">— Количество километров</text><text fill="#FFFFFF" font-family="sans-serif" font-size="14" lengthAdjust="spacingAndGlyphs" textLength="138" x="860" y="240.9707">— Количество минут</text><text fill="#FFFFFF" font-family="sans-serif" font-size="14" lengthAdjust="spacingAndGlyphs" textLength="118" x="860" y="258.5801">— Средний пульс</text><line style="stroke: #FFFFFF; stroke-width: 1.0; stroke-dasharray: 1.0,2.0;" x1="860" x2="870" y1="266.6563" y2="266.6563"/><text fill="#FFFFFF" font-family="sans-serif" font-size="14" lengthAdjust="spacingAndGlyphs" textLength="71" x="860" y="286.1895">Сохранить</text><!--entity run--><ellipse cx="1108" cy="212.5" fill="#070707" filter="url(#f179w7xkloivlu)" rx="8" ry="8" style="stroke: #C7C7C7; stroke-width: 2.0;"/><text fill="#FFFFFF" font-family="sans-serif" font-size="14" lengthAdjust="spacingAndGlyphs" textLength="22" x="1097" y="244.0332">Бег</text><!--entity charging--><ellipse cx="1205" cy="212.5" fill="#070707" filter="url(#f179w7xkloivlu)" rx="8" ry="8" style="stroke: #C7C7C7; stroke-width: 2.0;"/><text fill="#FFFFFF" font-family="sans-serif" font-size="14" lengthAdjust="spacingAndGlyphs" textLength="54" x="1178" y="244.0332">Зарядка</text><!--entity aero--><polygon fill="#070707" filter="url(#f179w7xkloivlu)" points="1275,198.5,1285,188.5,1381,188.5,1381,226.1094,1371,236.1094,1275,236.1094,1275,198.5" style="stroke: #FFFFFF; stroke-width: 1.5;"/><line style="stroke: #FFFFFF; stroke-width: 1.5;" x1="1371" x2="1380" y1="198.5" y2="189.5"/><line style="stroke: #FFFFFF; stroke-width: 1.5;" x1="1275" x2="1371" y1="198.5" y2="198.5"/><line style="stroke: #FFFFFF; stroke-width: 1.5;" x1="1371" x2="1371" y1="198.5" y2="236.1094"/><text fill="#FFFFFF" font-family="sans-serif" font-size="14" lengthAdjust="spacingAndGlyphs" textLength="66" x="1290" y="223.0332">Аэробные</text><!--entity updown--><polygon fill="#070707" filter="url(#f179w7xkloivlu)" points="36.5,369,46.5,359,153.5,359,153.5,396.6094,143.5,406.6094,36.5,406.6094,36.5,369" style="stroke: #FFFFFF; stroke-width: 1.5;"/><line style="stroke: #FFFFFF; stroke-width: 1.5;" x1="143.5" x2="152.5" y1="369" y2="360"/><line style="stroke: #FFFFFF; stroke-width: 1.5;" x1="36.5" x2="143.5" y1="369" y2="369"/><line style="stroke: #FFFFFF; stroke-width: 1.5;" x1="143.5" x2="143.5" y1="369" y2="406.6094"/><text fill="#FFFFFF" font-family="sans-serif" font-size="14" lengthAdjust="spacingAndGlyphs" textLength="77" x="51.5" y="393.5332">сверху-вниз</text><!--entity updown_train1--><ellipse cx="65" cy="504" fill="#070707" filter="url(#f179w7xkloivlu)" rx="8" ry="8" style="stroke: #C7C7C7; stroke-width: 2.0;"/><text fill="#FFFFFF" font-family="sans-serif" font-size="14" lengthAdjust="spacingAndGlyphs" textLength="103" x="13.5" y="535.5332">Тренировка 1-4</text><!--entity problem--><polygon fill="#070707" filter="url(#f179w7xkloivlu)" points="377,369,387,359,537,359,537,396.6094,527,406.6094,377,406.6094,377,369" style="stroke: #FFFFFF; stroke-width: 1.5;"/><line style="stroke: #FFFFFF; stroke-width: 1.5;" x1="527" x2="536" y1="369" y2="360"/><line style="stroke: #FFFFFF; stroke-width: 1.5;" x1="377" x2="527" y1="369" y2="369"/><line style="stroke: #FFFFFF; stroke-width: 1.5;" x1="527" x2="527" y1="369" y2="406.6094"/><text fill="#FFFFFF" font-family="sans-serif" font-size="14" lengthAdjust="spacingAndGlyphs" textLength="120" x="392" y="393.5332">проблемные зоны</text><!--entity train1--><ellipse cx="218" cy="504" fill="#070707" filter="url(#f179w7xkloivlu)" rx="8" ry="8" style="stroke: #C7C7C7; stroke-width: 2.0;"/><text fill="#FFFFFF" font-family="sans-serif" font-size="14" lengthAdjust="spacingAndGlyphs" textLength="103" x="166.5" y="535.5332">Тренировка 1-7</text><!--entity strong--><polygon fill="#070707" filter="url(#f179w7xkloivlu)" points="1416.5,198.5,1426.5,188.5,1515.5,188.5,1515.5,226.1094,1505.5,236.1094,1416.5,236.1094,1416.5,198.5" style="stroke: #FFFFFF; stroke-width: 1.5;"/><line style="stroke: #FFFFFF; stroke-width: 1.5;" x1="1505.5" x2="1514.5" y1="198.5" y2="189.5"/><line style="stroke: #FFFFFF; stroke-width: 1.5;" x1="1416.5" x2="1505.5" y1="198.5" y2="198.5"/><line style="stroke: #FFFFFF; stroke-width: 1.5;" x1="1505.5" x2="1505.5" y1="198.5" y2="236.1094"/><text fill="#FFFFFF" font-family="sans-serif" font-size="14" lengthAdjust="spacingAndGlyphs" textLength="59" x="1431.5" y="223.0332">Силовые</text><!--entity strong_woman--><polygon fill="#070707" filter="url(#f179w7xkloivlu)" points="666.5,369,676.5,359,787.5,359,787.5,396.6094,777.5,406.6094,666.5,406.6094,666.5,369" style="stroke: #FFFFFF; stroke-width: 1.5;"/><line style="stroke: #FFFFFF; stroke-width: 1.5;" x1="777.5" x2="786.5" y1="369" y2="360"/><line style="stroke: #FFFFFF; stroke-width: 1.5;" x1="666.5" x2="777.5" y1="369" y2="369"/><line style="stroke: #FFFFFF; stroke-width: 1.5;" x1="777.5" x2="777.5" y1="369" y2="406.6094"/><text fill="#FFFFFF" font-family="sans-serif" font-size="14" lengthAdjust="spacingAndGlyphs" textLength="81" x="681.5" y="393.5332">Для женщин</text><!--entity strong_man--><polygon fill="#070707" filter="url(#f179w7xkloivlu)" points="1477,369,1487,359,1595,359,1595,396.6094,1585,406.6094,1477,406.6094,1477,369" style="stroke: #FFFFFF; stroke-width: 1.5;"/><line style="stroke: #FFFFFF; stroke-width: 1.5;" x1="1585" x2="1594" y1="369" y2="360"/><line style="stroke: #FFFFFF; stroke-width: 1.5;" x1="1477" x2="1585" y1="369" y2="369"/><line style="stroke: #FFFFFF; stroke-width: 1.5;" x1="1585" x2="1585" y1="369" y2="406.6094"/><text fill="#FFFFFF" font-family="sans-serif" font-size="14" lengthAdjust="spacingAndGlyphs" textLength="78" x="1492" y="393.5332">Для мужчин</text><!--entity strong_hand--><polygon fill="#070707" filter="url(#f179w7xkloivlu)" points="312.5,490,322.5,480,381.5,480,381.5,517.6094,371.5,527.6094,312.5,527.6094,312.5,490" style="stroke: #FFFFFF; stroke-width: 1.5;"/><line style="stroke: #FFFFFF; stroke-width: 1.5;" x1="371.5" x2="380.5" y1="490" y2="481"/><line style="stroke: #FFFFFF; stroke-width: 1.5;" x1="312.5" x2="371.5" y1="490" y2="490"/><line style="stroke: #FFFFFF; stroke-width: 1.5;" x1="371.5" x2="371.5" y1="490" y2="527.6094"/><text fill="#FFFFFF" font-family="sans-serif" font-size="14" lengthAdjust="spacingAndGlyphs" textLength="29" x="327.5" y="514.5332">руки</text><!--entity strong_hand_trains--><ellipse cx="119" cy="625" fill="#070707" filter="url(#f179w7xkloivlu)" rx="8" ry="8" style="stroke: #C7C7C7; stroke-width: 2.0;"/><text fill="#FFFFFF" font-family="sans-serif" font-size="14" lengthAdjust="spacingAndGlyphs" textLength="115" x="61.5" y="656.5332">Упражнение 1-21</text><!--entity strong_shoulders--><polygon fill="#070707" filter="url(#f179w7xkloivlu)" points="416.5,490,426.5,480,495.5,480,495.5,517.6094,485.5,527.6094,416.5,527.6094,416.5,490" style="stroke: #FFFFFF; stroke-width: 1.5;"/><line style="stroke: #FFFFFF; stroke-width: 1.5;" x1="485.5" x2="494.5" y1="490" y2="481"/><line style="stroke: #FFFFFF; stroke-width: 1.5;" x1="416.5" x2="485.5" y1="490" y2="490"/><line style="stroke: #FFFFFF; stroke-width: 1.5;" x1="485.5" x2="485.5" y1="490" y2="527.6094"/><text fill="#FFFFFF" font-family="sans-serif" font-size="14" lengthAdjust="spacingAndGlyphs" textLength="39" x="431.5" y="514.5332">плечи</text><!--entity strong_shoulders_trains--><ellipse cx="284" cy="625" fill="#070707" filter="url(#f179w7xkloivlu)" rx="8" ry="8" style="stroke: #C7C7C7; stroke-width: 2.0;"/><text fill="#FFFFFF" font-family="sans-serif" font-size="14" lengthAdjust="spacingAndGlyphs" textLength="115" x="226.5" y="656.5332">Упражнение 1-17</text><!--entity strong_cheast--><polygon fill="#070707" filter="url(#f179w7xkloivlu)" points="531,490,541,480,607,480,607,517.6094,597,527.6094,531,527.6094,531,490" style="stroke: #FFFFFF; stroke-width: 1.5;"/><line style="stroke: #FFFFFF; stroke-width: 1.5;" x1="597" x2="606" y1="490" y2="481"/><line style="stroke: #FFFFFF; stroke-width: 1.5;" x1="531" x2="597" y1="490" y2="490"/><line style="stroke: #FFFFFF; stroke-width: 1.5;" x1="597" x2="597" y1="490" y2="527.6094"/><text fill="#FFFFFF" font-family="sans-serif" font-size="14" lengthAdjust="spacingAndGlyphs" textLength="36" x="546" y="514.5332">грудь</text><!--entity strong_cheast_trains--><ellipse cx="449" cy="625" fill="#070707" filter="url(#f179w7xkloivlu)" rx="8" ry="8" style="stroke: #C7C7C7; stroke-width: 2.0;"/><text fill="#FFFFFF" font-family="sans-serif" font-size="14" lengthAdjust="spacingAndGlyphs" textLength="115" x="391.5" y="656.5332">Упражнение 1-14</text><!--entity strong_back--><polygon fill="#070707" filter="url(#f179w7xkloivlu)" points="642.5,490,652.5,480,721.5,480,721.5,517.6094,711.5,527.6094,642.5,527.6094,642.5,490" style="stroke: #FFFFFF; stroke-width: 1.5;"/><line style="stroke: #FFFFFF; stroke-width: 1.5;" x1="711.5" x2="720.5" y1="490" y2="481"/><line style="stroke: #FFFFFF; stroke-width: 1.5;" x1="642.5" x2="711.5" y1="490" y2="490"/><line style="stroke: #FFFFFF; stroke-width: 1.5;" x1="711.5" x2="711.5" y1="490" y2="527.6094"/><text fill="#FFFFFF" font-family="sans-serif" font-size="14" lengthAdjust="spacingAndGlyphs" textLength="39" x="657.5" y="514.5332">спина</text><!--entity strong_back_trains--><ellipse cx="614" cy="625" fill="#070707" filter="url(#f179w7xkloivlu)" rx="8" ry="8" style="stroke: #C7C7C7; stroke-width: 2.0;"/><text fill="#FFFFFF" font-family="sans-serif" font-size="14" lengthAdjust="spacingAndGlyphs" textLength="115" x="556.5" y="656.5332">Упражнение 1-20</text><!--entity strong_legs--><polygon fill="#070707" filter="url(#f179w7xkloivlu)" points="756.5,490,766.5,480,825.5,480,825.5,517.6094,815.5,527.6094,756.5,527.6094,756.5,490" style="stroke: #FFFFFF; stroke-width: 1.5;"/><line style="stroke: #FFFFFF; stroke-width: 1.5;" x1="815.5" x2="824.5" y1="490" y2="481"/><line style="stroke: #FFFFFF; stroke-width: 1.5;" x1="756.5" x2="815.5" y1="490" y2="490"/><line style="stroke: #FFFFFF; stroke-width: 1.5;" x1="815.5" x2="815.5" y1="490" y2="527.6094"/><text fill="#FFFFFF" font-family="sans-serif" font-size="14" lengthAdjust="spacingAndGlyphs" textLength="29" x="771.5" y="514.5332">ноги</text><!--entity strong_legs_trains--><ellipse cx="779" cy="625" fill="#070707" filter="url(#f179w7xkloivlu)" rx="8" ry="8" style="stroke: #C7C7C7; stroke-width: 2.0;"/><text fill="#FFFFFF" font-family="sans-serif" font-size="14" lengthAdjust="spacingAndGlyphs" textLength="115" x="721.5" y="656.5332">Упражнение 1-18</text><!--entity strong_pop--><polygon fill="#070707" filter="url(#f179w7xkloivlu)" points="884,490,894,480,980,480,980,517.6094,970,527.6094,884,527.6094,884,490" style="stroke: #FFFFFF; stroke-width: 1.5;"/><line style="stroke: #FFFFFF; stroke-width: 1.5;" x1="970" x2="979" y1="490" y2="481"/><line style="stroke: #FFFFFF; stroke-width: 1.5;" x1="884" x2="970" y1="490" y2="490"/><line style="stroke: #FFFFFF; stroke-width: 1.5;" x1="970" x2="970" y1="490" y2="527.6094"/><text fill="#FFFFFF" font-family="sans-serif" font-size="14" lengthAdjust="spacingAndGlyphs" textLength="56" x="899" y="514.5332">ягодицы</text><!--entity strong_pop_trains--><ellipse cx="944" cy="625" fill="#070707" filter="url(#f179w7xkloivlu)" rx="8" ry="8" style="stroke: #C7C7C7; stroke-width: 2.0;"/><text fill="#FFFFFF" font-family="sans-serif" font-size="14" lengthAdjust="spacingAndGlyphs" textLength="115" x="886.5" y="656.5332">Упражнение 1-10</text><!--entity strong_core--><polygon fill="#070707" filter="url(#f179w7xkloivlu)" points="1042.5,490,1052.5,480,1121.5,480,1121.5,517.6094,1111.5,527.6094,1042.5,527.6094,1042.5,490" style="stroke: #FFFFFF; stroke-width: 1.5;"/><line style="stroke: #FFFFFF; stroke-width: 1.5;" x1="1111.5" x2="1120.5" y1="490" y2="481"/><line style="stroke: #FFFFFF; stroke-width: 1.5;" x1="1042.5" x2="1111.5" y1="490" y2="490"/><line style="stroke: #FFFFFF; stroke-width: 1.5;" x1="1111.5" x2="1111.5" y1="490" y2="527.6094"/><text fill="#FFFFFF" font-family="sans-serif" font-size="14" lengthAdjust="spacingAndGlyphs" textLength="39" x="1057.5" y="514.5332">живот</text><!--entity strong_core_trains--><ellipse cx="1109" cy="625" fill="#070707" filter="url(#f179w7xkloivlu)" rx="8" ry="8" style="stroke: #C7C7C7; stroke-width: 2.0;"/><text fill="#FFFFFF" font-family="sans-serif" font-size="14" lengthAdjust="spacingAndGlyphs" textLength="115" x="1051.5" y="656.5332">Упражнение 1-15</text><!--entity strong_hand_man--><polygon fill="#070707" filter="url(#f179w7xkloivlu)" points="1267.5,490,1277.5,480,1336.5,480,1336.5,517.6094,1326.5,527.6094,1267.5,527.6094,1267.5,490" style="stroke: #FFFFFF; stroke-width: 1.5;"/><line style="stroke: #FFFFFF; stroke-width: 1.5;" x1="1326.5" x2="1335.5" y1="490" y2="481"/><line style="stroke: #FFFFFF; stroke-width: 1.5;" x1="1267.5" x2="1326.5" y1="490" y2="490"/><line style="stroke: #FFFFFF; stroke-width: 1.5;" x1="1326.5" x2="1326.5" y1="490" y2="527.6094"/><text fill="#FFFFFF" font-family="sans-serif" font-size="14" lengthAdjust="spacingAndGlyphs" textLength="29" x="1282.5" y="514.5332">руки</text><!--entity strong_hand_trains_man--><ellipse cx="1274" cy="625" fill="#070707" filter="url(#f179w7xkloivlu)" rx="8" ry="8" style="stroke: #C7C7C7; stroke-width: 2.0;"/><text fill="#FFFFFF" font-family="sans-serif" font-size="14" lengthAdjust="spacingAndGlyphs" textLength="115" x="1216.5" y="656.5332">Упражнение 1-21</text><!--entity strong_shoulders_man--><polygon fill="#070707" filter="url(#f179w7xkloivlu)" points="1414.5,490,1424.5,480,1493.5,480,1493.5,517.6094,1483.5,527.6094,1414.5,527.6094,1414.5,490" style="stroke: #FFFFFF; stroke-width: 1.5;"/><line style="stroke: #FFFFFF; stroke-width: 1.5;" x1="1483.5" x2="1492.5" y1="490" y2="481"/><line style="stroke: #FFFFFF; stroke-width: 1.5;" x1="1414.5" x2="1483.5" y1="490" y2="490"/><line style="stroke: #FFFFFF; stroke-width: 1.5;" x1="1483.5" x2="1483.5" y1="490" y2="527.6094"/><text fill="#FFFFFF" font-family="sans-serif" font-size="14" lengthAdjust="spacingAndGlyphs" textLength="39" x="1429.5" y="514.5332">плечи</text><!--entity strong_shoulders_trains_man--><ellipse cx="1439" cy="625" fill="#070707" filter="url(#f179w7xkloivlu)" rx="8" ry="8" style="stroke: #C7C7C7; stroke-width: 2.0;"/><text fill="#FFFFFF" font-family="sans-serif" font-size="14" lengthAdjust="spacingAndGlyphs" textLength="115" x="1381.5" y="656.5332">Упражнение 1-17</text><!--entity strong_cheast_man--><polygon fill="#070707" filter="url(#f179w7xkloivlu)" points="1558,490,1568,480,1634,480,1634,517.6094,1624,527.6094,1558,527.6094,1558,490" style="stroke: #FFFFFF; stroke-width: 1.5;"/><line style="stroke: #FFFFFF; stroke-width: 1.5;" x1="1624" x2="1633" y1="490" y2="481"/><line style="stroke: #FFFFFF; stroke-width: 1.5;" x1="1558" x2="1624" y1="490" y2="490"/><line style="stroke: #FFFFFF; stroke-width: 1.5;" x1="1624" x2="1624" y1="490" y2="527.6094"/><text fill="#FFFFFF" font-family="sans-serif" font-size="14" lengthAdjust="spacingAndGlyphs" textLength="36" x="1573" y="514.5332">грудь</text><!--entity strong_cheast_trains_man--><ellipse cx="1604" cy="625" fill="#070707" filter="url(#f179w7xkloivlu)" rx="8" ry="8" style="stroke: #C7C7C7; stroke-width: 2.0;"/><text fill="#FFFFFF" font-family="sans-serif" font-size="14" lengthAdjust="spacingAndGlyphs" textLength="115" x="1546.5" y="656.5332">Упражнение 1-14</text><!--entity strong_back_man--><polygon fill="#070707" filter="url(#f179w7xkloivlu)" points="1703.5,490,1713.5,480,1782.5,480,1782.5,517.6094,1772.5,527.6094,1703.5,527.6094,1703.5,490" style="stroke: #FFFFFF; stroke-width: 1.5;"/><line style="stroke: #FFFFFF; stroke-width: 1.5;" x1="1772.5" x2="1781.5" y1="490" y2="481"/><line style="stroke: #FFFFFF; stroke-width: 1.5;" x1="1703.5" x2="1772.5" y1="490" y2="490"/><line style="stroke: #FFFFFF; stroke-width: 1.5;" x1="1772.5" x2="1772.5" y1="490" y2="527.6094"/><text fill="#FFFFFF" font-family="sans-serif" font-size="14" lengthAdjust="spacingAndGlyphs" textLength="39" x="1718.5" y="514.5332">спина</text><!--entity strong_back_trains_man--><ellipse cx="1769" cy="625" fill="#070707" filter="url(#f179w7xkloivlu)" rx="8" ry="8" style="stroke: #C7C7C7; stroke-width: 2.0;"/><text fill="#FFFFFF" font-family="sans-serif" font-size="14" lengthAdjust="spacingAndGlyphs" textLength="115" x="1711.5" y="656.5332">Упражнение 1-20</text><!--entity strong_legs_man--><polygon fill="#070707" filter="url(#f179w7xkloivlu)" points="1868.5,490,1878.5,480,1937.5,480,1937.5,517.6094,1927.5,527.6094,1868.5,527.6094,1868.5,490" style="stroke: #FFFFFF; stroke-width: 1.5;"/><line style="stroke: #FFFFFF; stroke-width: 1.5;" x1="1927.5" x2="1936.5" y1="490" y2="481"/><line style="stroke: #FFFFFF; stroke-width: 1.5;" x1="1868.5" x2="1927.5" y1="490" y2="490"/><line style="stroke: #FFFFFF; stroke-width: 1.5;" x1="1927.5" x2="1927.5" y1="490" y2="527.6094"/><text fill="#FFFFFF" font-family="sans-serif" font-size="14" lengthAdjust="spacingAndGlyphs" textLength="29" x="1883.5" y="514.5332">ноги</text><!--entity strong_legs_trains_man--><ellipse cx="1934" cy="625" fill="#070707" filter="url(#f179w7xkloivlu)" rx="8" ry="8" style="stroke: #C7C7C7; stroke-width: 2.0;"/><text fill="#FFFFFF" font-family="sans-serif" font-size="14" lengthAdjust="spacingAndGlyphs" textLength="115" x="1876.5" y="656.5332">Упражнение 1-18</text><!--entity strong_pop_man--><polygon fill="#070707" filter="url(#f179w7xkloivlu)" points="2028,490,2038,480,2124,480,2124,517.6094,2114,527.6094,2028,527.6094,2028,490" style="stroke: #FFFFFF; stroke-width: 1.5;"/><line style="stroke: #FFFFFF; stroke-width: 1.5;" x1="2114" x2="2123" y1="490" y2="481"/><line style="stroke: #FFFFFF; stroke-width: 1.5;" x1="2028" x2="2114" y1="490" y2="490"/><line style="stroke: #FFFFFF; stroke-width: 1.5;" x1="2114" x2="2114" y1="490" y2="527.6094"/><text fill="#FFFFFF" font-family="sans-serif" font-size="14" lengthAdjust="spacingAndGlyphs" textLength="56" x="2043" y="514.5332">ягодицы</text><!--entity strong_pop_trains_man--><ellipse cx="2099" cy="625" fill="#070707" filter="url(#f179w7xkloivlu)" rx="8" ry="8" style="stroke: #C7C7C7; stroke-width: 2.0;"/><text fill="#FFFFFF" font-family="sans-serif" font-size="14" lengthAdjust="spacingAndGlyphs" textLength="115" x="2041.5" y="656.5332">Упражнение 1-10</text><!--entity strong_core_man--><polygon fill="#070707" filter="url(#f179w7xkloivlu)" points="2192.5,490,2202.5,480,2271.5,480,2271.5,517.6094,2261.5,527.6094,2192.5,527.6094,2192.5,490" style="stroke: #FFFFFF; stroke-width: 1.5;"/><line style="stroke: #FFFFFF; stroke-width: 1.5;" x1="2261.5" x2="2270.5" y1="490" y2="481"/><line style="stroke: #FFFFFF; stroke-width: 1.5;" x1="2192.5" x2="2261.5" y1="490" y2="490"/><line style="stroke: #FFFFFF; stroke-width: 1.5;" x1="2261.5" x2="2261.5" y1="490" y2="527.6094"/><text fill="#FFFFFF" font-family="sans-serif" font-size="14" lengthAdjust="spacingAndGlyphs" textLength="39" x="2207.5" y="514.5332">живот</text><!--entity strong_core_trains_man--><ellipse cx="2264" cy="625" fill="#070707" filter="url(#f179w7xkloivlu)" rx="8" ry="8" style="stroke: #C7C7C7; stroke-width: 2.0;"/><text fill="#FFFFFF" font-family="sans-serif" font-size="14" lengthAdjust="spacingAndGlyphs" textLength="115" x="2206.5" y="656.5332">Упражнение 1-15</text><!--entity sport--><polygon fill="#070707" filter="url(#f179w7xkloivlu)" points="1604.5,198.5,1614.5,188.5,1765.5,188.5,1765.5,226.1094,1755.5,236.1094,1604.5,236.1094,1604.5,198.5" style="stroke: #FFFFFF; stroke-width: 1.5;"/><line style="stroke: #FFFFFF; stroke-width: 1.5;" x1="1755.5" x2="1764.5" y1="198.5" y2="189.5"/><line style="stroke: #FFFFFF; stroke-width: 1.5;" x1="1604.5" x2="1755.5" y1="198.5" y2="198.5"/><line style="stroke: #FFFFFF; stroke-width: 1.5;" x1="1755.5" x2="1755.5" y1="198.5" y2="236.1094"/><text fill="#FFFFFF" font-family="sans-serif" font-size="14" lengthAdjust="spacingAndGlyphs" textLength="121" x="1619.5" y="223.0332">Спортивный досуг</text><!--entity item1--><ellipse cx="1661" cy="383" fill="#070707" filter="url(#f179w7xkloivlu)" rx="8" ry="8" style="stroke: #C7C7C7; stroke-width: 2.0;"/><text fill="#FFFFFF" font-family="sans-serif" font-size="14" lengthAdjust="spacingAndGlyphs" textLength="47" x="1637.5" y="414.5332">Айкидо</text><!--entity item2--><ellipse cx="1810" cy="383" fill="#070707" filter="url(#f179w7xkloivlu)" rx="8" ry="8" style="stroke: #C7C7C7; stroke-width: 2.0;"/><text fill="#FFFFFF" font-family="sans-serif" font-size="14" lengthAdjust="spacingAndGlyphs" textLength="150" x="1735" y="414.5332">Академическая гребля</text><!--entity item3--><ellipse cx="2009" cy="383" fill="#070707" filter="url(#f179w7xkloivlu)" rx="8" ry="8" style="stroke: #C7C7C7; stroke-width: 2.0;"/><text fill="#FFFFFF" font-family="sans-serif" font-size="14" lengthAdjust="spacingAndGlyphs" textLength="147" x="1935.5" y="414.5332">Американский футбол</text><!--entity item4--><path d="M2134.7861,369.1469 C2137.9118,363.7643 2141.7887,361.6019 2146.6182,367.333 C2149.6303,361.4878 2153.1901,361.1579 2157.8503,365.5193 C2160.4655,360.5333 2165.8131,360.256 2168.9453,364.9253 C2171.5434,358.1458 2176.655,358.7342 2180.7582,363.3675 C2184.9576,358.9324 2188.1912,358.9621 2191.2841,364.5316 C2195.1361,358.8885 2199.3028,359.0756 2203.0489,364.6427 C2207.3854,359.5625 2212.3116,360.4713 2215.235,366.2313 C2219.8226,362.8838 2223.4512,362.6417 2225.5692,368.8907 C2233.793,370.1524 2238.0266,376.9065 2231.7729,384.0808 C2237.3593,391.3929 2235.7763,397.8512 2226.7514,400.766 C2223.5555,407.2275 2218.76,406.5785 2214.6531,401.7413 C2211.9272,408.048 2208.1168,407.9097 2203.7755,403.3599 C2202.2138,410.663 2195.8286,412.6116 2190.5281,407.2799 C2187.9853,413.6449 2184.3851,414.9629 2179.3542,409.6634 C2174.683,413.9483 2170.5352,412.4955 2168.7072,406.6695 C2164.2106,412.3516 2159.1699,410.2763 2156.6587,404.5691 C2151.753,408.6999 2147.9991,409.1939 2144.8355,402.6412 C2140.4699,407.1367 2135.8266,406.8555 2133.4507,400.5449 C2124.1471,398.5838 2121.4205,392.928 2126.1024,384.5441 C2120.9944,375.3216 2125.2208,370.094 2134.7861,369.1469 " fill="#070707" style="stroke: #FFFFFF; stroke-width: 1.5;"/><text fill="#FFFFFF" font-family="sans-serif" font-size="14" lengthAdjust="spacingAndGlyphs" textLength="78" x="2140" y="388.5332">и др. 69 шт.</text><!--entity home--><ellipse cx="1899" cy="212.5" fill="#070707" filter="url(#f179w7xkloivlu)" rx="8" ry="8" style="stroke: #C7C7C7; stroke-width: 2.0;"/><text fill="#FFFFFF" font-family="sans-serif" font-size="14" lengthAdjust="spacingAndGlyphs" textLength="181" x="1808.5" y="244.0332">Активная бытовая нагрузка</text><!--link catalog to walk--><path d="M1251.74,39.944 C1178.64,48.217 1074.48,63.329 1040,85 C1020.92,96.995 1004.538,114.509 991.114,132.703 " fill="none" id="catalog-walk" style="stroke: #C7C7C7; stroke-width: 1.0;"/><text fill="#FFFFFF" font-family="sans-serif" font-size="13" lengthAdjust="spacingAndGlyphs" textLength="108" x="1041" y="99.4951">шаги/мин + пульс</text><!--link catalog to run--><path d="M1251.84,45.87 C1224.59,53.664 1195.17,65.895 1173,85 C1134.1,118.53 1115.5,181.084 1109.9,203.362 " fill="none" id="catalog-run" style="stroke: #C7C7C7; stroke-width: 1.0;"/><text fill="#FFFFFF" font-family="sans-serif" font-size="13" lengthAdjust="spacingAndGlyphs" textLength="93" x="1174" y="99.4951">км/мин + пульс</text><!--link catalog to charging--><path d="M1309.59,55.168 C1302.37,64.299 1294.11,75.016 1287,85 C1256.02,128.483 1222.34,182.994 1209.94,203.345 " fill="none" id="catalog-charging" style="stroke: #C7C7C7; stroke-width: 1.0;"/><text fill="#FFFFFF" font-family="sans-serif" font-size="13" lengthAdjust="spacingAndGlyphs" textLength="31" x="1288" y="99.4951">в шт.</text><!--link catalog to aero--><path d="M1328,55.17 C1328,89.414 1328,153.981 1328,188.448 " fill="none" id="catalog-aero" style="stroke: #C7C7C7; stroke-width: 2.0;"/><!--link aero to updown--><path d="M1314.32,236.543 C1301.91,255.086 1281.8,279.969 1257,292 C1167.02,335.651 458.615,344.149 359,353 C288.271,359.284 207.102,368.502 153.649,374.85 " fill="none" id="aero-updown" style="stroke: #C7C7C7; stroke-width: 2.0;"/><!--link updown to updown_train1--><path d="M89.1445,407.227 C82.3578,434.147 71.5327,477.087 67.0486,494.874 " fill="none" id="updown-updown_train1" style="stroke: #C7C7C7; stroke-width: 1.0;"/><!--link aero to problem--><path d="M1313.97,236.707 C1301.48,255.087 1281.44,279.655 1257,292 C1135.8,353.226 783.731,336.077 649,353 C612.207,357.621 571.583,363.626 537.215,368.971 " fill="none" id="aero-problem" style="stroke: #C7C7C7; stroke-width: 2.0;"/><!--link problem to train1--><path d="M410.635,407.085 C352.535,436.014 256.959,483.602 227.162,498.438 " fill="none" id="problem-train1" style="stroke: #C7C7C7; stroke-width: 1.0;"/><!--link catalog to strong--><path d="M1345.48,55.17 C1371.88,89.414 1421.66,153.981 1448.23,188.448 " fill="none" id="catalog-strong" style="stroke: #C7C7C7; stroke-width: 2.0;"/><!--link strong to strong_woman--><path d="M1452.44,236.855 C1440.54,255.065 1421.48,279.32 1398,292 C1292.96,348.721 932.167,372.092 787.607,379.327 " fill="none" id="strong-strong_woman" style="stroke: #C7C7C7; stroke-width: 2.0;"/><!--link strong_hand to strong_hand_trains--><path d="M312.288,524.159 C306.207,527.468 299.93,530.854 294,534 C230.926,567.4681 154.199,606.2758 128.152,619.3974 " fill="none" id="strong_hand-strong_hand_trains" style="stroke: #C7C7C7; stroke-width: 1.0;"/><!--link strong_shoulders to strong_shoulders_trains--><path d="M422.428,528.227 C382.15,556.0942 317.059,601.1277 293.17,617.6559 " fill="none" id="strong_shoulders-strong_shoulders_trains" style="stroke: #C7C7C7; stroke-width: 1.0;"/><!--link strong_cheast to strong_cheast_trains--><path d="M545.578,528.227 C518.431,555.1472 475.131,598.087 457.194,615.8741 " fill="none" id="strong_cheast-strong_cheast_trains" style="stroke: #C7C7C7; stroke-width: 1.0;"/><!--link strong_back to strong_back_trains--><path d="M668.727,528.227 C653.344,555.1472 628.807,598.087 618.643,615.8741 " fill="none" id="strong_back-strong_back_trains" style="stroke: #C7C7C7; stroke-width: 1.0;"/><!--link strong_legs to strong_legs_trains--><path d="M788.658,528.227 C785.943,555.1472 781.613,598.087 779.819,615.8741 " fill="none" id="strong_legs-strong_legs_trains" style="stroke: #C7C7C7; stroke-width: 1.0;"/><!--link strong_pop to strong_pop_trains--><path d="M934.342,528.227 C937.057,555.1472 941.387,598.087 943.181,615.8741 " fill="none" id="strong_pop-strong_pop_trains" style="stroke: #C7C7C7; stroke-width: 1.0;"/><!--link strong_core to strong_core_trains--><path d="M1087.27,528.227 C1093.38,555.1472 1103.12,598.087 1107.16,615.8741 " fill="none" id="strong_core-strong_core_trains" style="stroke: #C7C7C7; stroke-width: 1.0;"/><!--link strong_woman to strong_hand--><path d="M666.313,396.049 C599.37,410.389 489.179,437.114 399,474 C393.26,476.348 387.354,479.188 381.675,482.161 " fill="none" id="strong_woman-strong_hand" style="stroke: #C7C7C7; stroke-width: 2.0;"/><!--link strong_woman to strong_shoulders--><path d="M668.828,407.133 C625.506,424.681 565.101,449.829 513,474 C507.36,476.617 501.46,479.476 495.683,482.347 " fill="none" id="strong_woman-strong_shoulders" style="stroke: #C7C7C7; stroke-width: 2.0;"/><!--link strong_woman to strong_cheast--><path d="M696.161,407.227 C668.321,428.195 627.577,458.882 599.761,479.832 " fill="none" id="strong_woman-strong_cheast" style="stroke: #C7C7C7; stroke-width: 2.0;"/><!--link strong_woman to strong_back--><path d="M718.217,407.227 C710.288,428.195 698.683,458.882 690.761,479.832 " fill="none" id="strong_woman-strong_back" style="stroke: #C7C7C7; stroke-width: 2.0;"/><!--link strong_woman to strong_legs--><path d="M739.492,407.227 C750.769,428.195 767.273,458.882 778.54,479.832 " fill="none" id="strong_woman-strong_legs" style="stroke: #C7C7C7; stroke-width: 2.0;"/><!--link strong_woman to strong_pop--><path d="M767.013,407.227 C803.134,428.195 855.998,458.882 892.088,479.832 " fill="none" id="strong_woman-strong_pop" style="stroke: #C7C7C7; stroke-width: 2.0;"/><!--link strong_woman to strong_core--><path d="M787.628,404.074 C842.376,422.233 925.132,449.762 997,474 C1011.77,478.983 1027.98,484.498 1042.24,489.369 " fill="none" id="strong_woman-strong_core" style="stroke: #C7C7C7; stroke-width: 2.0;"/><!--link strong to strong_man--><path d="M1475.59,236.576 C1488.95,268.753 1513.05,326.76 1526.42,358.933 " fill="none" id="strong-strong_man" style="stroke: #C7C7C7; stroke-width: 2.0;"/><!--link strong_hand_man to strong_hand_trains_man--><path d="M1296.53,528.227 C1290.2,555.1472 1280.1,598.087 1275.91,615.8741 " fill="none" id="strong_hand_man-strong_hand_trains_man" style="stroke: #C7C7C7; stroke-width: 1.0;"/><!--link strong_shoulders_man to strong_shoulders_trains_man--><path d="M1451.07,528.227 C1447.68,555.1472 1442.27,598.087 1440.02,615.8741 " fill="none" id="strong_shoulders_man-strong_shoulders_trains_man" style="stroke: #C7C7C7; stroke-width: 1.0;"/><!--link strong_cheast_man to strong_cheast_trains_man--><path d="M1597.56,528.227 C1599.37,555.1472 1602.26,598.087 1603.45,615.8741 " fill="none" id="strong_cheast_man-strong_cheast_trains_man" style="stroke: #C7C7C7; stroke-width: 1.0;"/><!--link strong_back_man to strong_back_trains_man--><path d="M1748.07,528.227 C1753.96,555.1472 1763.34,598.087 1767.22,615.8741 " fill="none" id="strong_back_man-strong_back_trains_man" style="stroke: #C7C7C7; stroke-width: 1.0;"/><!--link strong_legs_man to strong_legs_trains_man--><path d="M1909.05,528.227 C1916.06,555.1472 1927.25,598.087 1931.88,615.8741 " fill="none" id="strong_legs_man-strong_legs_trains_man" style="stroke: #C7C7C7; stroke-width: 1.0;"/><!--link strong_pop_man to strong_pop_trains_man--><path d="M2080.49,528.227 C2085.69,555.1472 2093.99,598.087 2097.43,615.8741 " fill="none" id="strong_pop_man-strong_pop_trains_man" style="stroke: #C7C7C7; stroke-width: 1.0;"/><!--link strong_core_man to strong_core_trains_man--><path d="M2238.25,528.227 C2245.48,555.1472 2257.03,598.087 2261.81,615.8741 " fill="none" id="strong_core_man-strong_core_trains_man" style="stroke: #C7C7C7; stroke-width: 1.0;"/><!--link strong_man to strong_hand_man--><path d="M1490.6,407.085 C1445.55,429.998 1377.47,464.617 1336.62,485.396 " fill="none" id="strong_man-strong_hand_man" style="stroke: #C7C7C7; stroke-width: 2.0;"/><!--link strong_man to strong_shoulders_man--><path d="M1519.99,407.227 C1505.55,428.195 1484.4,458.882 1469.96,479.832 " fill="none" id="strong_man-strong_shoulders_man" style="stroke: #C7C7C7; stroke-width: 2.0;"/><!--link strong_man to strong_cheast_man--><path d="M1547.71,407.227 C1558.28,428.195 1573.76,458.882 1584.32,479.832 " fill="none" id="strong_man-strong_cheast_man" style="stroke: #C7C7C7; stroke-width: 2.0;"/><!--link strong_man to strong_back_man--><path d="M1576.4,407.227 C1613.11,428.33 1666.95,459.278 1703.4,480.236 " fill="none" id="strong_man-strong_back_man" style="stroke: #C7C7C7; stroke-width: 2.0;"/><!--link strong_man to strong_legs_man--><path d="M1595.19,407.011 C1600.86,409.084 1606.53,411.111 1612,413 C1703.73,444.65 1813.47,477.168 1868.27,493.049 " fill="none" id="strong_man-strong_legs_man" style="stroke: #C7C7C7; stroke-width: 2.0;"/><!--link strong_man to strong_pop_man--><path d="M1592.88,407.026 C1599.28,409.218 1605.74,411.266 1612,413 C1761.22,454.339 1803.43,442.387 1955,474 C1979.11,479.028 2005.74,485.329 2027.87,490.772 " fill="none" id="strong_man-strong_pop_man" style="stroke: #C7C7C7; stroke-width: 2.0;"/><!--link strong_man to strong_core_man--><path d="M1591.94,407.138 C1598.63,409.367 1605.41,411.392 1612,413 C1842.34,469.26 1910.26,423.841 2142,474 C2158.69,477.612 2176.67,483.075 2192.14,488.289 " fill="none" id="strong_man-strong_core_man" style="stroke: #C7C7C7; stroke-width: 2.0;"/><!--link catalog to sport--><path d="M1374.95,55.174 C1416.59,75.364 1479.01,105.826 1533,133 C1569.48,151.359 1610.62,172.642 1640.89,188.413 " fill="none" id="catalog-sport" style="stroke: #C7C7C7; stroke-width: 2.0;"/><!--link sport to item1--><path d="M1681.71,236.576 C1676.27,274.792 1665.64,349.443 1662.14,373.976 " fill="none" id="sport-item1" style="stroke: #C7C7C7; stroke-width: 1.0;"/><!--link sport to item2--><path d="M1702.12,236.576 C1730.47,274.792 1785.85,349.443 1804.05,373.976 " fill="none" id="sport-item2" style="stroke: #C7C7C7; stroke-width: 1.0;"/><!--link sport to item3--><path d="M1709.68,236.715 C1728.64,253.661 1756.06,276.317 1783,292 C1861.84,337.893 1968.53,370.414 1999.95,379.456 " fill="none" id="sport-item3" style="stroke: #C7C7C7; stroke-width: 1.0;"/><!--link sport to item4--><path d="M1707.33,236.803 C1725.89,254.73 1753.88,278.628 1783,292 C1916.56,353.326 1967.03,311.446 2108,353 C2113.87,354.732 2119.93,356.778 2125.91,358.969 " fill="none" id="sport-item4" style="stroke: #C7C7C7; stroke-width: 1.0; stroke-dasharray: 1.0,3.0;"/><!--link catalog to home--><path d="M1404.36,40.458 C1497,52.098 1656.48,78.586 1783,133 C1826.56,151.734 1871.06,187.475 1889.8,203.444 " fill="none" id="catalog-home" style="stroke: #C7C7C7; stroke-width: 2.0;"/><!--
@startuml activity

skinparam monochrome reverse

database catalog as "Каталог тренировок"
card walk [
Ходьба
- - - -
Параметры
====
— Количество шагов
— Количество километров
— Количество минут
— Средний пульс
....
Сохранить
] 

interface run as "Бег"
interface charging as "Зарядка"

catalog - - walk : шаги/мин + пульс
catalog - - run : км/мин + пульс
catalog - - charging :  в шт.

node aero as "Аэробные"
    catalog == aero

        node updown as "сверху-вниз"
            interface updown_train1 as "Тренировка 1-4"
            aero == updown
                updown - - updown_train1

        node problem as "проблемные зоны"

            interface train1 as "Тренировка 1-7"
            aero == problem
                problem - - train1

node strong as "Силовые"

    catalog == strong
    node strong_woman as "Для женщин"
    node strong_man as "Для мужчин"

    strong == strong_woman

        node strong_hand as "руки"
            interface strong_hand_trains as "Упражнение 1-21"
                strong_hand - - strong_hand_trains

        node strong_shoulders as "плечи"
            interface strong_shoulders_trains as "Упражнение 1-17"
                strong_shoulders - - strong_shoulders_trains

        node strong_cheast as "грудь"
            interface strong_cheast_trains as "Упражнение 1-14"
                strong_cheast - - strong_cheast_trains
        node strong_back as "спина"
            interface strong_back_trains as "Упражнение 1-20"
                strong_back - - strong_back_trains
        node strong_legs as "ноги"
            interface strong_legs_trains as "Упражнение 1-18"
                strong_legs - - strong_legs_trains
        node strong_pop as "ягодицы"
            interface strong_pop_trains as "Упражнение 1-10"
                strong_pop - - strong_pop_trains
        node strong_core as "живот"
            interface strong_core_trains as "Упражнение 1-15"
                strong_core - - strong_core_trains
        strong_woman == strong_hand
        strong_woman == strong_shoulders
        strong_woman == strong_cheast
        strong_woman == strong_back
        strong_woman == strong_legs
        strong_woman == strong_pop
        strong_woman == strong_core

        strong == strong_man

            node strong_hand_man as "руки"
                interface strong_hand_trains_man as "Упражнение 1-21"
                    strong_hand_man - - strong_hand_trains_man
            node strong_shoulders_man as "плечи"
                interface strong_shoulders_trains_man as "Упражнение 1-17"
                    strong_shoulders_man - - strong_shoulders_trains_man
            node strong_cheast_man as "грудь"
                interface strong_cheast_trains_man as "Упражнение 1-14"
                    strong_cheast_man - - strong_cheast_trains_man
            node strong_back_man as "спина"
                interface strong_back_trains_man as "Упражнение 1-20"
                    strong_back_man - - strong_back_trains_man
            node strong_legs_man as "ноги"
                interface strong_legs_trains_man as "Упражнение 1-18"
                    strong_legs_man - - strong_legs_trains_man
            node strong_pop_man as "ягодицы"
                interface strong_pop_trains_man as "Упражнение 1-10"
                    strong_pop_man - - strong_pop_trains_man
            node strong_core_man as "живот"
                interface strong_core_trains_man as "Упражнение 1-15"
                    strong_core_man - - strong_core_trains_man
            strong_man == strong_hand_man
            strong_man == strong_shoulders_man
            strong_man == strong_cheast_man
            strong_man == strong_back_man
            strong_man == strong_legs_man
            strong_man == strong_pop_man
            strong_man == strong_core_man

node sport as "Спортивный досуг"
    interface item1 as "Айкидо"
    interface item2 as "Академическая гребля"
    interface item3 as "Американский футбол"
    cloud item4 as "и др. 69 шт."

catalog == sport         

    sport - - item1
    sport - - item2
    sport - - item3
    sport ~~ item4


interface home as "Активная бытовая нагрузка"

catalog == home

@enduml

PlantUML version 1.2019.09(Mon Aug 26 19:19:51 MSK 2019)
(GPL source distribution)
Java Runtime: Java(TM) SE Runtime Environment
JVM: Java HotSpot(TM) 64-Bit Server VM
Java Version: 1.8.0_211-b12
Operating System: Windows 10
OS Version: 10.0
Default Encoding: Cp1252
Language: en
Country: US
--></g></svg>