<svg width="327" height="235" viewBox="0 0 327 235" fill="none" xmlns="http://www.w3.org/2000/svg">
<path d="M326.912 234.769C310.097 232.306 293.927 230.183 278.4 228.4L284.54 218.465C282.47 217.853 273.376 223.517 273.376 223.517L281.435 194.633C271.026 195.636 265.729 225.142 265.729 225.142L254.1 215.104L259.729 226.355C212.208 221.45 171.168 219.523 136.648 219.301L141.902 210.797C139.833 210.186 130.738 215.849 130.738 215.849L138.798 186.965C128.388 187.968 123.091 217.474 123.091 217.474L111.462 207.436L117.424 219.353C88.4846 219.704 64.8846 221.248 46.6688 223.049C51.9846 209.789 70.0377 197.238 70.0377 197.238C56.2515 200.607 49.0194 206.325 45.24 211.67C44.9511 195.266 46.8946 164.864 61.3335 131.262C61.3335 131.262 32.8315 183.042 36.4622 217.905L36.8962 224.094C12.7389 226.878 0.593506 229.835 0.593506 229.835L326.912 234.769Z" fill="#3F3D56"/>
<path d="M174.108 9.40323V218.644C174.103 223.834 169.895 228.039 164.705 228.04H79.7597C77.2656 228.045 74.8723 227.056 73.1081 225.293C71.3438 223.53 70.3538 221.138 70.3565 218.644V9.40323C70.3562 6.90927 71.3469 4.5174 73.1104 2.7539C74.8738 0.99041 77.2657 -0.000215335 79.7597 4.41765e-07H92.4716V1.63015C92.4711 5.90602 95.9366 9.37293 100.212 9.37418H143.416C145.069 9.3777 146.679 8.84789 148.007 7.86346C148.275 7.66824 148.529 7.45468 148.768 7.22431C150.297 5.76506 151.16 3.74319 151.157 1.63015V4.41765e-07H164.705C167.199 -0.000763644 169.591 0.989685 171.355 2.7533C173.119 4.51691 174.109 6.9091 174.108 9.40323Z" fill="#3F3D56"/>
<path d="M94.0211 37.1223C95.269 37.1223 96.2807 36.1106 96.2807 34.8626C96.2807 33.6147 95.269 32.603 94.0211 32.603C92.7731 32.603 91.7615 33.6147 91.7615 34.8626C91.7615 36.1106 92.7731 37.1223 94.0211 37.1223Z" fill="#F2F2F2"/>
<path d="M148.768 7.22437C148.529 7.45473 148.275 7.66829 148.006 7.86351C153.602 17.7099 163.07 24.7581 174.108 27.293V26.2858C163.369 23.7524 154.18 16.8402 148.768 7.22437Z" fill="#347CFF"/>
<path d="M129.461 9.37415H128.403C136.052 28.8099 153.461 42.7101 174.108 45.8669V44.8662C154.005 41.7443 137.037 28.2553 129.461 9.37415Z" fill="#347CFF"/>
<path d="M109.958 9.37415H108.938C117.469 38.988 143.213 61.0322 174.108 64.6121V63.6275C143.749 60.0638 118.447 38.4392 109.958 9.37415Z" fill="#347CFF"/>
<path d="M86.5964 51.5909H86.0082V51.0027H85.8936V51.5909H85.3052V51.7058H85.8936V52.294H86.0082V51.7058H86.5964V51.5909Z" fill="#F2F2F2"/>
<path d="M126.301 22.2158H125.713V21.6277H125.598V22.2158H125.01V22.3307H125.598V22.9189H125.713V22.3307H126.301V22.2158Z" fill="#F2F2F2"/>
<path d="M92.4069 74.8327H91.8188V74.2445H91.7042V74.8327H91.1157V74.9476H91.7042V75.5357H91.8188V74.9476H92.4069V74.8327Z" fill="#F2F2F2"/>
<path d="M119.522 57.7241H118.934V57.136H118.819V57.7241H118.231V57.839H118.819V58.4272H118.934V57.839H119.522V57.7241Z" fill="#F2F2F2"/>
<path d="M158.258 68.3766H157.67V67.7885H157.556V68.3766H156.967V68.4915H157.556V69.0797H157.67V68.4915H158.258V68.3766Z" fill="#F2F2F2"/>
<path d="M151.48 41.6415C152.193 41.6415 152.771 41.0634 152.771 40.3503C152.771 39.6372 152.193 39.0591 151.48 39.0591C150.767 39.0591 150.188 39.6372 150.188 40.3503C150.188 41.0634 150.767 41.6415 151.48 41.6415Z" fill="#FF6584"/>
<path d="M105.222 70.6292L104.49 70.7421C104.719 72.2077 104.899 73.7055 105.032 75.1871L105.771 75.1226C105.639 73.6215 105.455 72.1108 105.222 70.6292Z" fill="#E6E6E6"/>
<path d="M103.218 61.8037L102.508 62.02C102.937 63.4403 103.321 64.8962 103.647 66.3456L104.373 66.1809C104.041 64.7154 103.65 63.2434 103.218 61.8037Z" fill="#E6E6E6"/>
<path d="M100.019 53.3398L99.344 53.6497C99.9638 55.0023 100.545 56.3903 101.071 57.7784L101.765 57.5169C101.232 56.1127 100.648 54.7053 100.019 53.3398Z" fill="#E6E6E6"/>
<path d="M95.6931 45.4053L95.0669 45.8024C95.8642 47.0548 96.6293 48.3525 97.3394 49.6534L97.9915 49.2983C97.2749 47.9813 96.5001 46.6707 95.6931 45.4053Z" fill="#E6E6E6"/>
<path d="M90.3151 38.1326L89.7502 38.6136C90.7122 39.7434 91.6483 40.9249 92.5328 42.1192L93.1268 41.677C92.2358 40.4697 91.29 39.2753 90.3151 38.1326Z" fill="#E6E6E6"/>
<path d="M83.9949 31.6572L83.501 32.2092C84.6114 33.2002 85.6993 34.2429 86.7355 35.3049L87.2681 34.7852C86.219 33.7102 85.1182 32.6579 83.9949 31.6572Z" fill="#E6E6E6"/>
<path d="M76.8544 26.0985L76.438 26.7118C77.6711 27.5414 78.8913 28.4259 80.0631 29.3394L80.5214 28.7552C79.3335 27.832 78.1004 26.9378 76.8544 26.0985Z" fill="#E6E6E6"/>
<path d="M70.3564 22.2379V23.0772C71.1279 23.4807 71.893 23.9036 72.6419 24.3361L73.0131 23.6938C72.1415 23.1902 71.256 22.7049 70.3564 22.2379Z" fill="#E6E6E6"/>
<path d="M105.054 140.355C105.175 139.634 105.285 138.897 105.382 138.165L106.118 138.263C106.02 139.002 105.908 139.747 105.787 140.477L105.054 140.355Z" fill="#E6E6E6"/>
<path d="M102.986 149.064L103.695 149.285C104.14 147.851 104.543 146.381 104.892 144.917L104.169 144.746C103.823 146.195 103.427 147.646 102.986 149.064Z" fill="#E6E6E6"/>
<path d="M99.7441 157.403L100.418 157.719C101.058 156.36 101.657 154.961 102.201 153.56L101.508 153.289C100.971 154.675 100.378 156.06 99.7441 157.403Z" fill="#E6E6E6"/>
<path d="M95.3828 165.225L96.0052 165.63C96.8262 164.371 97.6138 163.066 98.347 161.753L97.6997 161.39C96.976 162.688 96.1948 163.978 95.3828 165.225Z" fill="#E6E6E6"/>
<path d="M89.9866 172.372L90.5491 172.859C91.5367 171.72 92.4941 170.536 93.4015 169.337L92.8071 168.893C91.9124 170.077 90.9646 171.247 89.9866 172.372Z" fill="#E6E6E6"/>
<path d="M83.6677 178.713L84.1565 179.271C85.2916 178.281 86.4015 177.236 87.4622 176.175L86.9371 175.649C85.8886 176.7 84.7882 177.73 83.6677 178.713Z" fill="#E6E6E6"/>
<path d="M76.5491 184.133L76.9591 184.754C78.2124 183.927 79.4572 183.045 80.6513 182.136L80.2026 181.543C79.0198 182.444 77.7903 183.316 76.5491 184.133Z" fill="#E6E6E6"/>
<path d="M73.097 187.112C72.1996 187.619 71.2829 188.11 70.3564 188.575V187.742C71.157 187.335 71.9511 186.906 72.729 186.47L73.097 187.112Z" fill="#E6E6E6"/>
<path d="M105.272 79.7663L106.014 79.7528C106.028 80.5021 106.029 81.2553 106.017 81.9918L105.275 81.9802C105.287 81.2521 105.286 80.5072 105.272 79.7663Z" fill="#E6E6E6"/>
<path d="M73.6167 97.3674H149.543C161.309 97.3674 170.848 106.906 170.848 118.672V121.492H94.9216C83.1552 121.492 73.6167 111.954 73.6167 100.188V97.3674H73.6167Z" fill="#2F2E41"/>
<path d="M124.006 227.744C123.932 227.623 122.185 224.706 121.58 218.65C121.024 213.094 121.381 203.728 126.238 190.664C135.44 165.914 124.118 145.945 124.002 145.746L124.561 145.422C124.59 145.472 127.512 150.564 129.238 158.671C131.518 169.419 130.688 180.595 126.844 190.889C117.658 215.596 124.487 227.292 124.557 227.408L124.006 227.744Z" fill="#F2F2F2"/>
<path d="M120.408 144.293C122.725 144.293 124.604 142.414 124.604 140.096C124.604 137.779 122.725 135.9 120.408 135.9C118.09 135.9 116.211 137.779 116.211 140.096C116.211 142.414 118.09 144.293 120.408 144.293Z" fill="#347CFF"/>
<path d="M133.643 159.787C135.96 159.787 137.839 157.908 137.839 155.591C137.839 153.273 135.96 151.394 133.643 151.394C131.325 151.394 129.446 153.273 129.446 155.591C129.446 157.908 131.325 159.787 133.643 159.787Z" fill="#F2F2F2"/>
<path d="M124.604 170.117C126.922 170.117 128.801 168.238 128.801 165.92C128.801 163.603 126.922 161.724 124.604 161.724C122.287 161.724 120.408 163.603 120.408 165.92C120.408 168.238 122.287 170.117 124.604 170.117Z" fill="#347CFF"/>
<path d="M135.58 178.832C137.897 178.832 139.776 176.954 139.776 174.636C139.776 172.318 137.897 170.44 135.58 170.44C133.262 170.44 131.383 172.318 131.383 174.636C131.383 176.954 133.262 178.832 135.58 178.832Z" fill="#347CFF"/>
<path d="M121.376 192.39C123.694 192.39 125.573 190.511 125.573 188.194C125.573 185.876 123.694 183.997 121.376 183.997C119.059 183.997 117.18 185.876 117.18 188.194C117.18 190.511 119.059 192.39 121.376 192.39Z" fill="#F2F2F2"/>
<path d="M126.541 227.898C126.541 227.898 122.345 217.569 134.934 209.821L126.541 227.898Z" fill="#F2F2F2"/>
<path d="M121.38 227.711C121.38 227.711 119.47 216.726 104.688 216.82L121.38 227.711Z" fill="#F2F2F2"/>
<path opacity="0.2" d="M104.674 135.254C118.936 135.254 130.498 123.692 130.498 109.43C130.498 95.1677 118.936 83.6058 104.674 83.6058C90.4112 83.6058 78.8494 95.1677 78.8494 109.43C78.8494 123.692 90.4112 135.254 104.674 135.254Z" fill="#347CFF"/>
<path opacity="0.2" d="M104.674 127.616C114.717 127.616 122.86 119.474 122.86 109.43C122.86 99.3861 114.717 91.2439 104.674 91.2439C94.6297 91.2439 86.4875 99.3861 86.4875 109.43C86.4875 119.474 94.6297 127.616 104.674 127.616Z" fill="#347CFF"/>
<path d="M104.673 121.433C111.302 121.433 116.676 116.059 116.676 109.43C116.676 102.801 111.302 97.4272 104.673 97.4272C98.0445 97.4272 92.6707 102.801 92.6707 109.43C92.6707 116.059 98.0445 121.433 104.673 121.433Z" fill="#347CFF"/>
<path d="M106.856 106.841C106.856 105.826 106.156 104.944 105.167 104.715C104.178 104.485 103.161 104.968 102.714 105.88C102.267 106.791 102.508 107.891 103.295 108.532L102.491 114.158H106.856L106.052 108.532C106.561 108.118 106.856 107.497 106.856 106.841Z" fill="white"/>
<path d="M225.298 17.2054C225.298 17.2054 218.099 10.751 208.418 22.915C198.736 35.0791 183.593 41.037 180.118 45.7536C180.118 45.7536 194.516 39.7957 199.481 37.3133C204.446 34.8308 204.198 35.3273 204.198 35.3273C204.198 35.3273 197.495 40.044 196.254 44.7607C195.012 49.4773 196.005 53.4492 193.771 58.1659C191.537 62.8826 236.469 61.3931 236.469 61.3931C236.469 61.3931 240.938 53.6975 239.697 45.7537C238.455 37.8098 239.2 18.1984 225.298 17.2054Z" fill="#2F2E41"/>
<path d="M211.682 37.5103C211.682 37.5103 213.247 48.4684 206.538 50.9284C199.829 53.3884 202.289 56.7429 202.289 56.7429L212.353 61.6628L223.087 58.3083L226.665 52.9411C226.665 52.9411 220.851 51.5993 222.416 47.5739C223.982 43.5484 224.429 42.2066 224.429 42.2066L211.682 37.5103Z" fill="#FFB9B9"/>
<path opacity="0.1" d="M211.682 37.5103C211.682 37.5103 213.247 48.4684 206.538 50.9284C199.829 53.3884 202.289 56.7429 202.289 56.7429L212.353 61.6628L223.087 58.3083L226.665 52.9411C226.665 52.9411 220.851 51.5993 222.416 47.5739C223.982 43.5484 224.429 42.2066 224.429 42.2066L211.682 37.5103Z" fill="black"/>
<path d="M239.86 68.8191C239.86 68.8191 238.294 89.3935 238.742 90.288C239.189 91.1825 238.742 122.268 238.742 122.268C238.742 122.268 241.872 139.04 237.847 139.935C233.822 140.829 234.716 121.15 234.716 121.15L230.691 95.208L231.138 69.49L239.86 68.8191Z" fill="#FFB9B9"/>
<path opacity="0.1" d="M239.86 68.8191C239.86 68.8191 238.294 89.3935 238.742 90.288C239.189 91.1825 238.742 122.268 238.742 122.268C238.742 122.268 241.872 139.04 237.847 139.935C233.822 140.829 234.716 121.15 234.716 121.15L230.691 95.208L231.138 69.49L239.86 68.8191Z" fill="black"/>
<path d="M196.251 130.766C196.251 130.766 188.871 158.72 189.095 172.362C189.318 186.004 192.226 205.013 192.226 205.013C192.226 205.013 192.673 213.287 192.002 214.182C191.331 215.076 195.357 218.878 195.357 218.878L199.606 216.418L201.171 214.629V213.063C201.171 213.063 198.711 205.46 200.724 199.422C202.737 193.384 203.855 178.176 201.842 173.48L215.707 132.331L196.251 130.766Z" fill="#FFB9B9"/>
<path d="M195.804 215.3C195.804 215.3 193.12 211.945 191.331 213.063C189.542 214.182 186.635 221.785 186.635 221.785C186.635 221.785 176.571 231.401 183.728 231.849C190.884 232.296 194.015 229.836 194.909 228.047C195.804 226.258 204.078 221.561 204.078 221.561C204.078 221.561 203.184 213.063 201.842 212.84C200.5 212.616 198.488 216.194 198.488 216.194L195.804 215.3Z" fill="#2F2E41"/>
<path d="M220.627 132.555V160.286C220.653 163.65 220.877 167.011 221.298 170.349C221.969 175.269 217.496 211.945 217.496 211.945L217.944 218.431L223.534 217.983L224.205 212.392L232.256 187.793C232.256 187.793 234.94 172.809 233.598 167.218C232.256 161.627 240.531 125.846 240.531 125.846L220.627 132.555Z" fill="#FFB9B9"/>
<path d="M216.155 216.865L217.811 216.505C217.811 216.505 219.062 213.734 220.627 214.405C221.729 214.913 222.773 215.539 223.74 216.27L224.429 217.536C224.429 217.536 225.995 220.891 228.007 223.127C230.02 225.363 232.256 230.283 228.902 230.73C225.547 231.178 221.075 231.401 219.733 230.283C218.391 229.165 219.286 227.376 217.944 226.929C216.602 226.481 215.484 225.14 215.707 224.692C215.931 224.245 216.155 216.865 216.155 216.865Z" fill="#2F2E41"/>
<path d="M220.627 45.2131C226.116 45.2131 230.566 40.7632 230.566 35.274C230.566 29.7847 226.116 25.3348 220.627 25.3348C215.138 25.3348 210.688 29.7847 210.688 35.274C210.688 40.7632 215.138 45.2131 220.627 45.2131Z" fill="#FFB9B9"/>
<path d="M201.842 52.7175L204.796 51.6862C204.796 51.6862 203.631 53.612 209.893 54.7302C216.154 55.8484 222.639 56.2442 225.547 52.58C225.547 52.58 226.665 52.0466 228.231 53.612C229.796 55.1775 230.691 54.7302 230.691 54.7302L229.572 60.5447L227.336 71.2792L224.429 79.33L216.154 77.5409L207.209 71.0555L203.855 62.3337V54.2829L201.842 52.7175Z" fill="#347CFF"/>
<path d="M229.125 55.8483L231.362 54.2829C231.362 54.2829 238.965 55.6247 239.412 59.2028L233.598 70.3846C234.784 73.4959 234.704 76.948 233.374 80.0008C231.138 85.1444 231.362 86.2626 231.362 86.2626L229.796 92.9716L201.395 95.208C201.395 95.208 200.276 92.5244 199.829 92.0771C199.382 91.6298 199.382 90.0644 199.829 90.0644C200.276 90.0644 199.829 89.3935 199.382 88.7226C198.935 88.0517 198.711 87.828 199.382 86.9335C200.053 86.039 198.264 77.9881 198.264 77.9881V69.2664L190.66 59.2028C190.66 59.2028 193.344 55.1774 194.686 54.7301C196.027 54.2829 202.41 52.519 202.41 52.519L203.855 54.6456L205.867 70.8318L208.775 80.6717L221.016 78.5919L225.771 70.6082L228.902 61.2155L229.125 55.8483Z" fill="#347CFF"/>
<path d="M237.624 57.861L239.413 59.2028C239.413 59.2028 240.978 71.7264 240.531 72.6209C240.084 73.5154 232.256 74.41 232.033 73.9627C231.809 73.5154 237.624 57.861 237.624 57.861Z" fill="#347CFF"/>
<path d="M200.724 51.5993L202.96 66.3591C202.96 66.3591 200.947 88.2753 201.395 92.748L201.842 94.0898C201.842 94.0898 200.947 93.6425 200.724 94.5371C200.5 95.4316 200.724 98.3389 200.724 98.3389C200.724 98.3389 199.382 99.6807 198.935 107.061C198.487 114.441 193.12 132.108 195.133 132.779C197.145 133.449 209.222 136.804 215.707 136.133C222.192 135.462 245.45 127.635 245.227 125.622C245.003 123.61 233.821 95.208 233.821 95.208C233.821 95.208 231.809 91.8535 231.809 91.4062C231.809 90.9589 234.492 89.1699 233.822 87.3808C233.151 85.5917 229.572 66.8064 229.572 66.8064L232.032 53.3883L228.678 52.4938L226.218 65.4646C226.218 65.4646 216.602 70.1609 206.538 65.9119L204.302 50.7047L200.724 51.5993Z" fill="#2F2E41"/>
<path d="M211.483 28.1409C211.483 28.1409 228.032 39.5463 232.505 34.4027C236.978 29.2591 224.678 24.7864 224.678 24.7864L214.391 23.6682L211.483 28.1409Z" fill="#2F2E41"/>
<path fill-rule="evenodd" clip-rule="evenodd" d="M197.266 148.523C194.22 151.688 189.295 152.094 185.771 149.471L152.45 177.546L149.06 173.523L152.389 170.718L149.584 167.389L150.971 166.22L149.452 164.416L148.342 165.351L146.939 163.687L149.991 161.115L150.926 162.225L153.007 160.472L152.072 159.362L154.014 157.725L155.534 159.529L154.285 160.581L155.805 162.384L157.17 161.471L160.209 165.078L183.034 146.074C181.22 142.072 182.665 137.346 186.406 135.043C190.147 132.74 195.018 133.578 197.774 136.999C200.53 140.42 200.313 145.357 197.266 148.523ZM196.479 140.727C195.773 138.502 193.796 136.922 191.469 136.723C188.293 136.451 185.498 138.806 185.227 141.983C185.028 144.309 186.25 146.526 188.323 147.599C190.396 148.673 192.912 148.393 194.697 146.888C196.483 145.384 197.186 142.952 196.479 140.727Z" fill="#347CFF"/>
<path d="M189.095 71.5027C189.095 71.5027 190.66 92.0771 190.213 92.9717C189.766 93.8662 190.213 124.951 190.213 124.951C190.213 124.951 187.082 141.724 191.108 142.618C195.133 143.513 194.238 123.833 194.238 123.833L198.264 97.8916L197.817 72.1736L189.095 71.5027Z" fill="#FFB9B9"/>
<path d="M192.449 58.5319L190.66 59.2028C190.66 59.2028 187.306 73.2918 188.2 73.2918C189.095 73.2918 199.829 74.6336 199.829 74.1863C199.829 73.7391 197.817 62.781 197.817 62.781L192.449 58.5319Z" fill="#347CFF"/>
</svg>
