<svg width="333" height="278" viewBox="0 0 333 278" fill="none" xmlns="http://www.w3.org/2000/svg">
<path fill-rule="evenodd" clip-rule="evenodd" d="M90.7758 166.425C89.8979 166.425 89.0112 166.411 88.1408 166.384L88.1605 165.752C89.4104 165.791 90.6858 165.801 91.9415 165.784L91.9502 166.417C91.5593 166.422 91.1679 166.425 90.7758 166.425ZM95.7575 166.278L95.7204 165.647C96.9721 165.573 98.2398 165.469 99.4884 165.338L99.5546 165.967C98.2964 166.099 97.019 166.204 95.7575 166.278ZM84.3369 166.18C83.0747 166.083 81.7992 165.956 80.5457 165.802L80.6229 165.175C81.8669 165.327 83.1325 165.453 84.3851 165.549L84.3369 166.18ZM103.333 165.484L103.238 164.858C104.482 164.67 105.735 164.451 106.962 164.207L107.085 164.827C105.849 165.073 104.586 165.294 103.333 165.484ZM76.7763 165.252C75.5294 165.041 74.2707 164.798 73.0354 164.53L73.1697 163.911C74.3956 164.178 75.6445 164.419 76.8819 164.628L76.7763 165.252ZM110.804 163.999L110.652 163.385C111.873 163.083 113.101 162.749 114.301 162.393L114.481 163C113.271 163.359 112.034 163.695 110.804 163.999ZM69.3321 163.636C68.109 163.311 66.8782 162.953 65.6738 162.572L65.8644 161.969C67.0597 162.347 68.2811 162.702 69.4946 163.024L69.3321 163.636ZM118.107 161.832L117.9 161.235C119.084 160.823 120.276 160.378 121.442 159.911L121.676 160.499C120.502 160.969 119.301 161.417 118.107 161.832H118.107ZM62.059 161.337C60.8711 160.9 59.6758 160.429 58.5066 159.936L58.7523 159.353C59.9125 159.842 61.0985 160.309 62.2774 160.743L62.059 161.337ZM125.172 159.005L124.91 158.429C126.048 157.913 127.191 157.361 128.309 156.789L128.597 157.353C127.471 157.929 126.319 158.484 125.172 159.005H125.172ZM131.943 155.544L131.629 154.995C132.72 154.373 133.809 153.718 134.866 153.05L135.204 153.584C134.139 154.258 133.042 154.918 131.943 155.544H131.943ZM138.373 151.476L138.011 150.958C139.038 150.24 140.063 149.488 141.058 148.724L141.443 149.226C140.441 149.996 139.408 150.753 138.373 151.476ZM41.9268 150.585C40.9055 149.843 39.8852 149.066 38.8942 148.275L39.289 147.781C40.2725 148.566 41.285 149.337 42.2985 150.073L41.9268 150.585ZM144.409 146.837L144.001 146.354C144.958 145.546 145.911 144.704 146.834 143.851L147.263 144.315C146.334 145.175 145.374 146.023 144.409 146.837H144.409ZM35.9706 145.829C35.0194 144.996 34.0744 144.13 33.162 143.254L33.6001 142.797C34.5057 143.667 35.4435 144.527 36.3874 145.354L35.9706 145.829ZM150 141.665L149.55 141.221C150.433 140.327 151.306 139.401 152.145 138.47L152.615 138.893C151.77 139.832 150.89 140.764 150 141.665ZM30.4741 140.554C29.6014 139.637 28.7395 138.688 27.9123 137.735L28.3903 137.32C29.2111 138.266 30.0664 139.207 30.9326 140.118L30.4741 140.554ZM155.101 136.004L154.612 135.603C155.409 134.632 156.195 133.631 156.946 132.626L157.453 133.005C156.696 134.017 155.904 135.027 155.101 136.004H155.101ZM25.482 134.803C24.6983 133.813 23.9266 132.79 23.1883 131.764L23.7018 131.395C24.4346 132.413 25.2004 133.428 25.9782 134.411L25.482 134.803ZM159.666 129.9L159.143 129.545C159.848 128.506 160.539 127.436 161.197 126.366L161.736 126.697C161.073 127.775 160.377 128.853 159.666 129.9L159.666 129.9ZM21.0363 128.625C20.3468 127.568 19.672 126.48 19.0304 125.392L19.5754 125.07C20.2122 126.151 20.8819 127.23 21.5662 128.279L21.0363 128.625ZM163.657 123.401L163.104 123.095C163.711 121.996 164.301 120.867 164.858 119.739L165.426 120.02C164.865 121.156 164.27 122.293 163.657 123.401H163.657ZM167.037 116.56L166.457 116.306C166.961 115.155 167.446 113.975 167.896 112.801L168.487 113.028C168.033 114.211 167.545 115.4 167.037 116.56ZM13.9314 115.195C13.4463 114.031 12.9817 112.84 12.5507 111.654L13.1455 111.438C13.5731 112.614 14.0341 113.796 14.5154 114.951L13.9314 115.195ZM169.773 109.431L169.172 109.232C169.567 108.043 169.94 106.826 170.28 105.617L170.889 105.789C170.546 107.007 170.171 108.233 169.773 109.431ZM11.3318 108.045C10.9553 106.839 10.6015 105.607 10.2803 104.383L10.8924 104.222C11.2111 105.437 11.5623 106.66 11.9358 107.856L11.3318 108.045ZM171.836 102.098L171.219 101.955C171.502 100.735 171.761 99.4896 171.989 98.2534L172.611 98.3677C172.382 99.6138 172.121 100.869 171.836 102.098V102.098ZM9.39911 100.676C9.13524 99.4402 8.8964 98.1811 8.68938 96.9331L9.31352 96.8293C9.51915 98.068 9.75614 99.3175 10.018 100.544L9.39911 100.676ZM173.215 94.6065L172.587 94.5206C172.758 93.2812 172.901 92.0175 173.015 90.7643L173.645 90.8211C173.531 92.0843 173.386 93.3576 173.215 94.6065L173.215 94.6065ZM8.15206 93.1617C8.00282 91.9091 7.88031 90.6333 7.78777 89.3699L8.41902 89.3235C8.51063 90.5777 8.63237 91.8436 8.78053 93.0869L8.15206 93.1617ZM173.903 87.0207L173.27 86.9923C173.327 85.7384 173.355 84.4666 173.355 83.2125H173.988C173.988 84.4762 173.959 85.7576 173.903 87.0207ZM7.59605 85.5648C7.57442 84.7889 7.56346 83.9973 7.56329 83.2125C7.56329 82.7255 7.56746 82.2395 7.57581 81.7544L8.2086 81.7655C8.20026 82.2469 8.19609 82.7292 8.19609 83.2125C8.19624 83.9914 8.20721 84.7772 8.22853 85.5475L7.59605 85.5648ZM8.35877 77.9878L7.72721 77.9482C7.80615 76.6839 7.91523 75.4068 8.05102 74.1525L8.68011 74.2207C8.54524 75.4655 8.43724 76.7328 8.35876 77.9878H8.35877ZM172.947 74.1272C172.82 72.8797 172.647 72.2714 172.463 71.0293L173.089 70.937C173.274 72.1885 173.432 73.1439 173.56 74.4008L172.947 74.1272ZM9.17277 70.4724L8.54739 70.3757C8.74128 69.1238 8.96652 67.8621 9.21695 66.6251L9.83709 66.7506C9.58866 67.9781 9.36511 69.2303 9.17277 70.4724ZM171.824 67.3035C171.583 66.0691 171.311 64.8265 171.015 63.6104L171.63 63.4608C171.928 64.6862 172.202 65.9384 172.445 67.1821L171.824 67.3035ZM10.6716 63.0633L10.0578 62.9095C10.3651 61.6839 10.7055 60.4481 11.0695 59.2363L11.6754 59.4183C11.3143 60.6208 10.9766 61.8472 10.6716 63.0633ZM170.036 59.9584C169.683 58.7535 169.298 57.5415 168.89 56.3556L169.488 56.1499C169.899 57.3448 170.288 58.5664 170.643 59.7804L170.036 59.9584ZM12.85 55.8135L12.253 55.6037C12.6735 54.4075 13.1276 53.2056 13.6025 52.0313L14.1892 52.2686C13.7179 53.4338 13.2672 54.6266 12.85 55.8135ZM167.579 52.8095C167.117 51.6449 166.623 50.4762 166.109 49.3356L166.686 49.0757C167.204 50.2251 167.702 51.4028 168.167 52.5762L167.579 52.8095ZM15.6901 48.7904L15.1151 48.5262C15.6436 47.3752 16.2061 46.221 16.787 45.0957L17.3494 45.3859C16.7728 46.5027 16.2146 47.6481 15.6901 48.7904ZM164.482 45.9315C163.915 44.8144 163.315 43.695 162.698 42.6047L163.249 42.293C163.871 43.3917 164.475 44.5196 165.046 45.6454L164.482 45.9315ZM19.1632 42.0621L18.6148 41.7464C19.246 40.6503 19.9117 39.5531 20.5935 38.4855L21.1268 38.826C20.4503 39.8855 19.7895 40.9744 19.1632 42.0621ZM160.764 39.3617C160.095 38.2972 159.395 37.2368 158.683 36.2097L159.203 35.8491C159.921 36.8841 160.626 37.9525 161.3 39.0252L160.764 39.3617ZM23.2362 35.684L22.719 35.3194C23.4485 34.2848 24.2112 33.2535 24.9865 32.2543L25.4864 32.6421C24.7172 33.6339 23.96 34.6573 23.2362 35.684ZM156.46 33.1553C155.697 32.1565 154.903 31.1636 154.099 30.2042L154.584 29.7977C155.394 30.7645 156.194 31.7649 156.963 32.7712L156.46 33.1553ZM27.8725 29.7069L27.3908 29.2966C28.2094 28.335 29.0627 27.3779 29.9268 26.4519L30.3893 26.8836C29.5319 27.8026 28.6851 28.7526 27.8725 29.7069ZM151.606 27.363C150.756 26.4377 149.874 25.5207 148.985 24.6376L149.432 24.1887C150.327 25.0787 151.215 26.0025 152.072 26.9347L151.606 27.363ZM33.0313 24.1788L32.5888 23.7264C33.4936 22.8412 34.43 21.966 35.3716 21.1252L35.7931 21.5974C34.8586 22.4316 33.9293 23.3002 33.0313 24.1788ZM146.244 22.0336C145.312 21.1887 144.35 20.3554 143.385 19.5569L143.789 19.0693C144.761 19.8739 145.73 20.7135 146.669 21.5649L146.244 22.0336ZM38.6689 19.1444L38.2694 18.6537C39.2481 17.8567 40.2596 17.0706 41.2758 16.3173L41.6528 16.8256C40.6441 17.5733 39.6402 18.3534 38.6689 19.1444ZM44.7381 14.6461L44.3849 14.1211C45.4324 13.4163 46.5107 12.7262 47.5902 12.0695L47.9189 12.6102C46.8478 13.2618 45.7777 13.9468 44.7381 14.6461ZM51.1887 10.7223L50.885 10.1671C51.9931 9.56068 53.1294 8.97238 54.2621 8.41822L54.5402 8.98674C53.4162 9.53659 52.2885 10.1204 51.1887 10.7223ZM127.558 9.25618C126.432 8.69521 125.278 8.15327 124.129 7.64546L124.385 7.06673C125.543 7.57841 126.705 8.12453 127.84 8.68981L127.558 9.25618ZM57.9665 7.40708L57.715 6.82649C58.8731 6.32455 60.0577 5.84315 61.2359 5.39559L61.4605 5.98729C60.2913 6.43131 59.1158 6.909 57.9665 7.40708ZM120.63 6.19385C119.458 5.7395 118.259 5.30599 117.065 4.90555L117.267 4.30551C118.469 4.70919 119.678 5.14594 120.858 5.604L120.63 6.19385ZM65.0249 4.72682L64.8278 4.12554C66.0304 3.73127 67.2573 3.36003 68.4744 3.02247L68.6436 3.63209C67.4357 3.96718 66.2182 4.33549 65.0249 4.72682ZM113.454 3.78596C112.247 3.44191 111.016 3.1215 109.795 2.83368L109.94 2.21788C111.171 2.50786 112.411 2.83074 113.627 3.17727L113.454 3.78596ZM72.309 2.7053L72.1681 2.08842C73.4009 1.80678 74.6568 1.55017 75.9006 1.32585L76.0131 1.94845C74.7785 2.17123 73.5324 2.42583 72.309 2.7053ZM106.096 2.05134C104.864 1.82007 103.609 1.61429 102.366 1.43971L102.453 0.813099C103.706 0.989063 104.971 1.19639 106.213 1.42936L106.096 2.05134ZM79.7482 1.36278L79.6645 0.73555C80.9171 0.568391 82.191 0.427803 83.4507 0.318117L83.5057 0.948438C82.2556 1.0575 80.9915 1.19685 79.7482 1.36278ZM98.6106 0.999729C97.3642 0.882317 96.0955 0.791786 94.8395 0.73107L94.8704 0.0989078C96.1357 0.160241 97.4139 0.251392 98.6699 0.369744L98.6106 0.999729ZM87.279 0.705732L87.2524 0.0735707C88.4154 0.0250607 89.6007 0.000340587 90.7757 3.05176e-05L91.0622 0.000495621L91.0603 0.63329L90.7757 0.632825C89.6097 0.633116 88.4331 0.657681 87.279 0.705726V0.705732Z" fill="white" fill-opacity="0.3"/>
<g filter="url(#filter0_dd)">
<path fill-rule="evenodd" clip-rule="evenodd" d="M192.586 29.8066V234.895C192.58 239.982 188.456 244.104 183.369 244.106H100.109C97.6643 244.11 95.3185 243.141 93.5893 241.413C91.8601 239.685 90.8897 237.34 90.8923 234.895V29.8066C90.8921 27.3621 91.863 25.0177 93.5915 23.2892C95.32 21.5607 97.6645 20.5897 100.109 20.5899H112.569V22.1877C112.568 26.3787 115.965 29.7769 120.156 29.7781H162.502C164.122 29.7815 165.7 29.2622 167.002 28.2973C167.265 28.106 167.514 27.8967 167.748 27.6709C169.246 26.2406 170.092 24.2588 170.09 22.1877V20.5899H183.369C185.813 20.5892 188.158 21.56 189.887 23.2886C191.615 25.0172 192.586 27.3619 192.586 29.8066Z" fill="#1D1C1D"/>
</g>
<rect x="103.065" y="94.5225" width="77.3479" height="58.8499" fill="#0091FF"/>
<path d="M27.7118 61.0991C33.9336 64.055 41.068 62.0505 41.068 62.0505C41.068 62.0505 38.1149 55.2538 31.8931 52.2979C25.6713 49.3421 18.5369 51.3465 18.5369 51.3465C18.5369 51.3465 21.49 58.1432 27.7118 61.0991Z" fill="#0091FF"/>
<g filter="url(#filter1_dd)">
<path fill-rule="evenodd" clip-rule="evenodd" d="M28.3443 58.1617C35.2039 57.5348 41.2081 61.8784 41.2081 61.8784C41.2081 61.8784 36.0907 67.2383 29.2311 67.8652C22.3714 68.4921 16.3672 64.1486 16.3672 64.1486C16.3672 64.1486 21.4846 58.7886 28.3443 58.1617Z" fill="#2F2E41"/>
</g>
<g filter="url(#filter2_dd)">
<path fill-rule="evenodd" clip-rule="evenodd" d="M53.4896 59.3494C52.8321 66.2061 57.1488 72.2297 57.1488 72.2297C57.1488 72.2297 62.5315 67.1362 63.189 60.2794C63.8465 53.4227 59.5298 47.3991 59.5298 47.3991C59.5298 47.3991 54.1471 52.4926 53.4896 59.3494Z" fill="#2F2E41"/>
</g>
<path d="M85.7951 101.402C82.1972 107.276 83.435 114.582 83.435 114.582C83.435 114.582 90.5063 112.365 94.1042 106.491C97.7021 100.617 96.4642 93.3109 96.4642 93.3109C96.4642 93.3109 89.393 95.5279 85.7951 101.402Z" fill="#3F3D56"/>
<g filter="url(#filter3_dd)">
<path fill-rule="evenodd" clip-rule="evenodd" d="M75.3571 165.266L75.8814 164.912C74.0333 162.23 73.0241 159.059 72.9823 155.802C72.9969 151.038 75.337 146.631 77.6001 142.37C78.0202 141.579 78.4389 140.79 78.8416 140.002C80.5322 136.789 81.8795 133.407 82.8612 129.911C86.3715 116.866 82.9154 101.476 73.6163 88.7412C66.2393 78.6391 55.2425 69.8053 39.9978 61.735L39.7018 62.2942C54.8597 70.3185 65.7861 79.0916 73.1052 89.1145C82.2925 101.696 85.7111 116.885 82.25 129.747C81.2798 133.2 79.9486 136.541 78.2784 139.714C77.8769 140.499 77.4597 141.285 77.0412 142.073C74.7421 146.402 72.3646 150.879 72.3495 155.8C72.3913 159.184 73.4382 162.479 75.3571 165.266Z" fill="#2F2E41"/>
</g>
<path d="M61.3343 84.6068C68.221 84.7545 73.6992 89.7451 73.6992 89.7451C73.6992 89.7451 68.012 94.4962 61.1254 94.3485C54.2387 94.2007 48.7605 89.2102 48.7605 89.2102C48.7605 89.2102 54.4477 84.4591 61.3343 84.6068Z" fill="#0091FF"/>
<g filter="url(#filter4_dd)">
<path fill-rule="evenodd" clip-rule="evenodd" d="M9.94813 62.5665C13.2682 62.5665 15.9597 59.875 15.9597 56.5549C15.9597 53.2348 13.2682 50.5434 9.94813 50.5434C6.62805 50.5434 3.93658 53.2348 3.93658 56.5549C3.93658 59.875 6.62805 62.5665 9.94813 62.5665Z" fill="#2F2E41"/>
</g>
<path d="M59.8359 150.992V95.645L97.5723 93.7583V154.136L59.8359 150.992Z" fill="#0091FF"/>
<path d="M188.905 154.136L226.642 150.992V95.645L188.905 93.7583V154.136Z" fill="#0091FF"/>
<path fill-rule="evenodd" clip-rule="evenodd" d="M130.13 111.316H153.348C154.533 111.316 155.489 112.272 155.489 113.457V136.675C155.489 137.86 154.533 138.816 153.348 138.816H130.13C128.945 138.816 127.989 137.86 127.989 136.675V113.457C127.989 112.272 128.945 111.316 130.13 111.316ZM153.348 137.846C153.994 137.846 154.519 137.321 154.519 136.675V113.457C154.519 112.811 153.994 112.286 153.348 112.286H130.13C129.484 112.286 128.959 112.811 128.959 113.457V136.675C128.959 137.321 129.484 137.846 130.13 137.846H153.348ZM133.726 120.459L139.463 123.745L141.228 124.756C141.308 124.796 141.389 124.823 141.47 124.823C141.551 124.823 141.645 124.796 141.712 124.756L143.45 123.745L149.187 120.406C149.294 120.338 149.375 120.231 149.416 120.109C149.442 119.988 149.429 119.853 149.362 119.746C148.527 118.305 147.449 117.241 146.008 116.419C144.635 115.625 143.059 115.207 141.483 115.207C138.211 115.207 135.181 116.971 133.551 119.8C133.484 119.907 133.47 120.042 133.511 120.163C133.524 120.298 133.605 120.392 133.726 120.459ZM141.456 123.772L140.406 123.166L140.514 123.059L140.527 123.045C140.547 123.032 140.568 123.015 140.588 122.998L140.588 122.998C140.608 122.981 140.628 122.964 140.648 122.951C140.655 122.944 140.662 122.941 140.669 122.937C140.675 122.934 140.682 122.931 140.689 122.924L140.689 122.924C140.729 122.897 140.77 122.87 140.823 122.857C140.837 122.857 140.85 122.843 140.85 122.843C140.877 122.83 140.904 122.82 140.931 122.81C140.958 122.799 140.985 122.789 141.012 122.776C141.019 122.776 141.026 122.772 141.032 122.769C141.039 122.766 141.046 122.762 141.052 122.762C141.093 122.749 141.147 122.735 141.187 122.735C141.201 122.735 141.228 122.735 141.241 122.722C141.308 122.709 141.362 122.709 141.429 122.709C141.497 122.709 141.551 122.709 141.618 122.722C141.632 122.722 141.658 122.722 141.672 122.735C141.697 122.742 141.719 122.745 141.739 122.748C141.763 122.752 141.785 122.755 141.807 122.762C141.813 122.762 141.82 122.766 141.827 122.769C141.834 122.772 141.84 122.776 141.847 122.776C141.885 122.785 141.923 122.801 141.965 122.819L141.965 122.819L141.965 122.819L141.965 122.819C141.983 122.827 142.002 122.835 142.022 122.843C142.029 122.843 142.032 122.847 142.036 122.85C142.039 122.853 142.042 122.857 142.049 122.857C142.069 122.87 142.093 122.88 142.116 122.89C142.14 122.9 142.163 122.911 142.184 122.924C142.19 122.931 142.197 122.934 142.204 122.937C142.211 122.941 142.217 122.944 142.224 122.951C142.264 122.978 142.305 123.005 142.345 123.045L142.359 123.059C142.399 123.086 142.44 123.126 142.466 123.166L141.456 123.772ZM145.51 117.254C144.285 116.554 142.884 116.177 141.47 116.177C138.709 116.177 136.137 117.577 134.642 119.867L139.531 122.709L139.531 122.708C139.585 122.641 139.639 122.574 139.692 122.52L139.719 122.493L139.719 122.493C139.773 122.439 139.827 122.385 139.894 122.331C139.894 122.323 139.899 122.32 139.906 122.316C139.911 122.313 139.916 122.31 139.921 122.304C139.989 122.251 140.042 122.21 140.11 122.17C140.123 122.17 140.137 122.156 140.137 122.156C140.17 122.136 140.207 122.116 140.244 122.096C140.281 122.076 140.318 122.055 140.352 122.035C140.359 122.028 140.366 122.025 140.372 122.022C140.379 122.018 140.386 122.015 140.393 122.008C140.46 121.968 140.527 121.941 140.608 121.914C140.616 121.906 140.619 121.903 140.623 121.902C140.626 121.9 140.629 121.9 140.635 121.9C140.702 121.874 140.783 121.847 140.85 121.833C140.857 121.833 140.864 121.83 140.871 121.826C140.877 121.823 140.884 121.82 140.891 121.82L141.133 121.779H141.187C141.268 121.766 141.362 121.766 141.443 121.766C141.537 121.766 141.618 121.766 141.699 121.779H141.753C141.773 121.779 141.79 121.783 141.807 121.786L141.807 121.786C141.823 121.789 141.84 121.793 141.86 121.793L143.301 118.305C143.396 118.049 143.692 117.928 143.934 118.035C144.19 118.13 144.311 118.426 144.204 118.668L142.763 122.129C142.79 122.15 142.82 122.173 142.851 122.197C142.881 122.221 142.911 122.244 142.938 122.264C142.945 122.271 142.951 122.274 142.958 122.278C142.965 122.281 142.972 122.284 142.978 122.291C143.046 122.345 143.099 122.399 143.153 122.453L143.153 122.453L143.194 122.493C143.248 122.547 143.301 122.601 143.355 122.668L148.257 119.813C147.544 118.722 146.682 117.928 145.51 117.254ZM151.451 135.463H132.88C132.611 135.463 132.395 135.692 132.409 135.948C132.409 136.217 132.624 136.433 132.893 136.433H151.451C152.327 136.433 153.04 135.719 153.04 134.844V125.174C153.04 124.905 152.825 124.689 152.555 124.689C152.286 124.689 152.071 124.905 152.071 125.174V134.844C152.071 135.18 151.788 135.463 151.451 135.463ZM131.083 122.052C131.352 122.052 131.568 122.268 131.568 122.537V134.695C131.568 134.964 131.352 135.18 131.083 135.18C130.813 135.18 130.598 134.964 130.598 134.695V122.537C130.585 122.268 130.813 122.052 131.083 122.052ZM152.07 122.595C152.07 122.864 152.286 123.079 152.555 123.079C152.824 123.079 153.053 122.864 153.04 122.595V118.77C153.04 118.501 152.824 118.285 152.555 118.285C152.286 118.285 152.07 118.501 152.07 118.77V122.595Z" fill="white"/>
<path fill-rule="evenodd" clip-rule="evenodd" d="M197.44 119.297C197.368 119.297 197.296 119.269 197.241 119.214C197.131 119.104 197.131 118.926 197.241 118.816L198.928 117.128L197.241 115.44C197.131 115.33 197.131 115.152 197.241 115.042C197.351 114.932 197.529 114.932 197.639 115.042L199.326 116.729L201.014 115.042C201.124 114.932 201.302 114.932 201.412 115.042C201.522 115.152 201.522 115.33 201.412 115.44L199.724 117.128L201.412 118.816C201.522 118.926 201.522 119.104 201.412 119.214C201.357 119.27 201.285 119.297 201.213 119.297C201.141 119.297 201.069 119.269 201.014 119.214L199.326 117.526L197.639 119.214C197.584 119.269 197.512 119.297 197.44 119.297ZM198.854 126.164L201.373 122.622C201.463 122.495 201.639 122.466 201.765 122.556C201.892 122.646 201.921 122.822 201.831 122.949L199.095 126.795C199.092 126.8 199.088 126.803 199.083 126.806C199.08 126.809 199.076 126.811 199.073 126.815C199.069 126.819 199.066 126.824 199.063 126.829C199.056 126.837 199.05 126.846 199.041 126.853C199.035 126.858 199.028 126.861 199.021 126.865L199.021 126.865C199.016 126.867 199.012 126.869 199.007 126.872L199.002 126.875C198.994 126.879 198.987 126.884 198.979 126.887C198.942 126.904 198.905 126.914 198.866 126.914C198.83 126.914 198.795 126.905 198.76 126.89C198.75 126.887 198.742 126.882 198.733 126.877C198.729 126.875 198.725 126.873 198.721 126.872C198.715 126.869 198.709 126.866 198.703 126.862C198.694 126.856 198.688 126.849 198.682 126.841C198.678 126.836 198.674 126.832 198.67 126.827C198.667 126.824 198.663 126.822 198.659 126.819C198.654 126.816 198.65 126.813 198.646 126.808L196.832 124.525C196.735 124.403 196.755 124.226 196.877 124.129C196.999 124.033 197.176 124.053 197.273 124.174L198.854 126.164ZM201.413 130.204C201.303 130.094 201.124 130.094 201.014 130.204L199.327 131.891L197.639 130.204C197.529 130.094 197.351 130.094 197.241 130.204C197.131 130.314 197.131 130.492 197.241 130.602L198.928 132.29L197.241 133.978C197.131 134.088 197.131 134.266 197.241 134.376C197.296 134.431 197.368 134.459 197.44 134.459C197.512 134.459 197.584 134.432 197.639 134.376L199.326 132.689L201.014 134.376C201.069 134.431 201.141 134.459 201.213 134.459C201.285 134.459 201.357 134.432 201.412 134.376C201.522 134.266 201.522 134.088 201.412 133.978L199.724 132.29L201.412 130.602C201.523 130.492 201.523 130.314 201.413 130.204ZM219.531 117.41H205.948C205.793 117.41 205.667 117.283 205.667 117.128C205.667 116.972 205.793 116.846 205.948 116.846H219.531C219.687 116.846 219.813 116.972 219.813 117.128C219.813 117.283 219.687 117.41 219.531 117.41ZM219.531 124.428H205.948C205.793 124.428 205.667 124.554 205.667 124.709C205.667 124.865 205.793 124.991 205.948 124.991H219.531C219.687 124.991 219.813 124.865 219.813 124.709C219.813 124.554 219.687 124.428 219.531 124.428ZM205.948 132.009H219.531C219.687 132.009 219.813 132.135 219.813 132.29C219.813 132.446 219.687 132.572 219.531 132.572H205.948C205.793 132.572 205.667 132.446 205.667 132.29C205.667 132.135 205.793 132.009 205.948 132.009Z" fill="white"/>
<path d="M197.241 119.214L197.205 119.249L197.205 119.249L197.241 119.214ZM197.241 118.816L197.276 118.851L197.241 118.816ZM198.928 117.128L198.964 117.164L198.999 117.128L198.964 117.093L198.928 117.128ZM197.241 115.44L197.276 115.405L197.276 115.405L197.241 115.44ZM197.241 115.042L197.276 115.077L197.241 115.042ZM197.639 115.042L197.675 115.007L197.675 115.007L197.639 115.042ZM199.326 116.729L199.291 116.765L199.326 116.8L199.361 116.765L199.326 116.729ZM201.014 115.042L200.978 115.006L200.978 115.006L201.014 115.042ZM201.412 115.042L201.447 115.006L201.447 115.006L201.412 115.042ZM201.412 115.44L201.447 115.475V115.475L201.412 115.44ZM199.724 117.128L199.689 117.093L199.653 117.128L199.689 117.163L199.724 117.128ZM201.412 118.816L201.447 118.781L201.412 118.816ZM201.412 119.214L201.377 119.179L201.377 119.179L201.412 119.214ZM201.014 119.214L200.979 119.25L200.979 119.25L201.014 119.214ZM199.326 117.526L199.362 117.491L199.326 117.456L199.291 117.491L199.326 117.526ZM197.639 119.214L197.603 119.179L197.603 119.179L197.639 119.214ZM201.373 122.622L201.413 122.651L201.413 122.651L201.373 122.622ZM198.854 126.164L198.815 126.195L198.856 126.247L198.895 126.193L198.854 126.164ZM201.765 122.556L201.736 122.596L201.736 122.596L201.765 122.556ZM201.831 122.949L201.79 122.92L201.79 122.92L201.831 122.949ZM199.095 126.795L199.055 126.766L199.054 126.767L199.095 126.795ZM199.083 126.806L199.112 126.847L199.112 126.847L199.083 126.806ZM199.073 126.815L199.036 126.781L199.035 126.782L199.073 126.815ZM199.063 126.829L199.103 126.858L199.103 126.858L199.063 126.829ZM199.041 126.853L199.011 126.813L199.01 126.814L199.041 126.853ZM199.021 126.865L198.999 126.82L198.998 126.82L199.021 126.865ZM199.021 126.865L199.042 126.91L199.043 126.91L199.021 126.865ZM199.007 126.872L199.033 126.915L199.033 126.915L199.007 126.872ZM199.002 126.875L198.977 126.832L198.976 126.832L199.002 126.875ZM198.979 126.887L198.958 126.842L198.958 126.842L198.979 126.887ZM198.76 126.89L198.779 126.844L198.778 126.844L198.76 126.89ZM198.733 126.877L198.758 126.834L198.756 126.833L198.733 126.877ZM198.721 126.872L198.702 126.918L198.702 126.918L198.721 126.872ZM198.703 126.862L198.674 126.903L198.674 126.903L198.703 126.862ZM198.682 126.841L198.721 126.809L198.721 126.809L198.682 126.841ZM198.67 126.827L198.706 126.792L198.706 126.792L198.67 126.827ZM198.659 126.819L198.687 126.777L198.687 126.777L198.659 126.819ZM198.646 126.808L198.685 126.777L198.685 126.777L198.646 126.808ZM196.832 124.525L196.792 124.556L196.793 124.556L196.832 124.525ZM196.877 124.129L196.846 124.09L196.846 124.09L196.877 124.129ZM197.273 124.174L197.312 124.143L197.312 124.143L197.273 124.174ZM201.014 130.204L201.05 130.239L201.014 130.204ZM201.413 130.204L201.448 130.169L201.413 130.204ZM199.327 131.891L199.291 131.927L199.327 131.962L199.362 131.927L199.327 131.891ZM197.639 130.204L197.604 130.239H197.604L197.639 130.204ZM197.241 130.602L197.205 130.638L197.241 130.602ZM198.928 132.29L198.964 132.325L198.999 132.29L198.964 132.255L198.928 132.29ZM197.241 133.978L197.276 134.013L197.276 134.013L197.241 133.978ZM197.241 134.376L197.205 134.412H197.205L197.241 134.376ZM197.639 134.376L197.603 134.341L197.603 134.341L197.639 134.376ZM199.326 132.689L199.362 132.653L199.326 132.618L199.291 132.653L199.326 132.689ZM201.014 134.376L200.979 134.412H200.979L201.014 134.376ZM201.412 134.376L201.377 134.341L201.377 134.341L201.412 134.376ZM201.412 133.978L201.377 134.013L201.377 134.013L201.412 133.978ZM199.724 132.29L199.689 132.255L199.654 132.29L199.689 132.325L199.724 132.29ZM201.412 130.602L201.377 130.567L201.377 130.567L201.412 130.602ZM197.205 119.249C197.27 119.314 197.355 119.347 197.44 119.347V119.247C197.38 119.247 197.321 119.224 197.276 119.179L197.205 119.249ZM197.205 118.781C197.076 118.91 197.076 119.12 197.205 119.249L197.276 119.179C197.186 119.088 197.186 118.942 197.276 118.851L197.205 118.781ZM198.893 117.093L197.205 118.781L197.276 118.851L198.964 117.164L198.893 117.093ZM197.205 115.476L198.893 117.164L198.964 117.093L197.276 115.405L197.205 115.476ZM197.205 115.007C197.076 115.136 197.076 115.346 197.205 115.476L197.276 115.405C197.186 115.315 197.186 115.168 197.276 115.077L197.205 115.007ZM197.675 115.007C197.545 114.877 197.335 114.877 197.205 115.007L197.276 115.077C197.367 114.987 197.513 114.987 197.604 115.077L197.675 115.007ZM199.361 116.694L197.675 115.007L197.604 115.077L199.291 116.765L199.361 116.694ZM200.978 115.006L199.291 116.694L199.361 116.765L201.049 115.077L200.978 115.006ZM201.447 115.006C201.318 114.877 201.108 114.877 200.978 115.006L201.049 115.077C201.139 114.986 201.286 114.986 201.377 115.077L201.447 115.006ZM201.447 115.475C201.577 115.346 201.577 115.136 201.447 115.006L201.377 115.077C201.467 115.167 201.467 115.314 201.377 115.405L201.447 115.475ZM199.759 117.163L201.447 115.475L201.377 115.405L199.689 117.093L199.759 117.163ZM201.447 118.781L199.759 117.093L199.689 117.163L201.377 118.851L201.447 118.781ZM201.447 119.25C201.577 119.12 201.577 118.91 201.447 118.781L201.377 118.851C201.467 118.942 201.467 119.089 201.377 119.179L201.447 119.25ZM201.213 119.347C201.298 119.347 201.383 119.315 201.447 119.25L201.377 119.179C201.332 119.224 201.272 119.247 201.213 119.247V119.347ZM200.979 119.25C201.043 119.314 201.128 119.347 201.213 119.347V119.247C201.154 119.247 201.094 119.224 201.049 119.179L200.979 119.25ZM199.291 117.562L200.979 119.25L201.049 119.179L199.362 117.491L199.291 117.562ZM197.674 119.249L199.362 117.562L199.291 117.491L197.603 119.179L197.674 119.249ZM197.44 119.347C197.525 119.347 197.61 119.314 197.674 119.249L197.603 119.179C197.558 119.224 197.499 119.247 197.44 119.247V119.347ZM201.332 122.593L198.813 126.135L198.895 126.193L201.413 122.651L201.332 122.593ZM201.794 122.515C201.645 122.409 201.438 122.444 201.332 122.593L201.413 122.651C201.487 122.547 201.632 122.523 201.736 122.596L201.794 122.515ZM201.872 122.978C201.978 122.828 201.943 122.621 201.794 122.515L201.736 122.596C201.84 122.671 201.865 122.816 201.79 122.92L201.872 122.978ZM199.136 126.824L201.872 122.978L201.79 122.92L199.055 126.766L199.136 126.824ZM199.112 126.847C199.115 126.845 199.127 126.837 199.136 126.824L199.054 126.767C199.057 126.763 199.06 126.762 199.055 126.765L199.112 126.847ZM199.11 126.848C199.109 126.85 199.108 126.85 199.112 126.847L199.055 126.765C199.052 126.767 199.043 126.773 199.036 126.781L199.11 126.848ZM199.103 126.858C199.107 126.853 199.109 126.85 199.111 126.847L199.035 126.782C199.03 126.788 199.025 126.795 199.022 126.799L199.103 126.858ZM199.072 126.892C199.087 126.88 199.098 126.866 199.103 126.858L199.022 126.799C199.015 126.809 199.013 126.812 199.011 126.813L199.072 126.892ZM199.042 126.91C199.048 126.907 199.061 126.901 199.073 126.891L199.01 126.814C199.009 126.815 199.007 126.816 198.999 126.82L199.042 126.91ZM199.043 126.91L199.043 126.91L198.998 126.82L198.998 126.82L199.043 126.91ZM199.033 126.915C199.035 126.913 199.037 126.912 199.042 126.91L198.999 126.82C198.995 126.822 198.989 126.825 198.982 126.829L199.033 126.915ZM199.027 126.918L199.033 126.915L198.982 126.828L198.977 126.832L199.027 126.918ZM198.999 126.933C199.01 126.928 199.02 126.922 199.027 126.918L198.976 126.832C198.968 126.837 198.963 126.839 198.958 126.842L198.999 126.933ZM198.866 126.964C198.914 126.964 198.959 126.951 198.999 126.933L198.958 126.842C198.926 126.856 198.896 126.864 198.866 126.864V126.964ZM198.741 126.937C198.779 126.952 198.822 126.964 198.866 126.964V126.864C198.839 126.864 198.81 126.857 198.779 126.844L198.741 126.937ZM198.708 126.92C198.717 126.926 198.728 126.932 198.742 126.937L198.778 126.844C198.772 126.841 198.766 126.839 198.758 126.834L198.708 126.92ZM198.702 126.918C198.706 126.92 198.708 126.92 198.71 126.921L198.756 126.833C198.75 126.829 198.744 126.827 198.741 126.826L198.702 126.918ZM198.674 126.903C198.685 126.911 198.697 126.916 198.702 126.918L198.741 126.826C198.733 126.823 198.732 126.822 198.732 126.822L198.674 126.903ZM198.643 126.872C198.649 126.879 198.659 126.892 198.674 126.903L198.732 126.822C198.73 126.82 198.728 126.818 198.721 126.809L198.643 126.872ZM198.635 126.863C198.637 126.865 198.639 126.868 198.643 126.872L198.721 126.809C198.717 126.805 198.712 126.798 198.706 126.792L198.635 126.863ZM198.632 126.861C198.636 126.864 198.636 126.864 198.635 126.863L198.706 126.792C198.698 126.784 198.69 126.779 198.687 126.777L198.632 126.861ZM198.606 126.839C198.616 126.851 198.628 126.858 198.632 126.861L198.687 126.777C198.684 126.775 198.683 126.775 198.683 126.775C198.683 126.775 198.684 126.775 198.685 126.777L198.606 126.839ZM196.793 124.556L198.607 126.839L198.685 126.777L196.871 124.494L196.793 124.556ZM196.846 124.09C196.702 124.204 196.678 124.413 196.792 124.556L196.871 124.494C196.791 124.394 196.808 124.248 196.908 124.169L196.846 124.09ZM197.312 124.143C197.198 124 196.99 123.977 196.846 124.09L196.908 124.169C197.009 124.089 197.154 124.106 197.233 124.206L197.312 124.143ZM198.893 126.133L197.312 124.143L197.233 124.206L198.815 126.195L198.893 126.133ZM201.05 130.239C201.14 130.149 201.287 130.149 201.377 130.239L201.448 130.169C201.319 130.039 201.108 130.039 200.979 130.169L201.05 130.239ZM199.362 131.927L201.05 130.239L200.979 130.169L199.291 131.856L199.362 131.927ZM197.604 130.239L199.291 131.927L199.362 131.856L197.675 130.169L197.604 130.239ZM197.276 130.239C197.367 130.149 197.513 130.149 197.604 130.239L197.675 130.169C197.545 130.039 197.335 130.039 197.205 130.169L197.276 130.239ZM197.276 130.567C197.186 130.477 197.186 130.33 197.276 130.239L197.205 130.169C197.076 130.298 197.076 130.508 197.205 130.638L197.276 130.567ZM198.964 132.255L197.276 130.567L197.205 130.638L198.893 132.325L198.964 132.255ZM197.276 134.013L198.964 132.325L198.893 132.255L197.205 133.943L197.276 134.013ZM197.276 134.341C197.186 134.251 197.186 134.104 197.276 134.013L197.205 133.943C197.076 134.072 197.076 134.282 197.205 134.412L197.276 134.341ZM197.44 134.409C197.38 134.409 197.321 134.386 197.276 134.341L197.205 134.412C197.27 134.476 197.355 134.509 197.44 134.509V134.409ZM197.603 134.341C197.558 134.386 197.499 134.409 197.44 134.409V134.509C197.525 134.509 197.61 134.477 197.674 134.412L197.603 134.341ZM199.291 132.653L197.603 134.341L197.674 134.412L199.362 132.724L199.291 132.653ZM201.049 134.341L199.362 132.653L199.291 132.724L200.979 134.412L201.049 134.341ZM201.213 134.409C201.154 134.409 201.094 134.386 201.049 134.341L200.979 134.412C201.043 134.476 201.128 134.509 201.213 134.509V134.409ZM201.377 134.341C201.332 134.386 201.272 134.409 201.213 134.409V134.509C201.298 134.509 201.383 134.477 201.447 134.412L201.377 134.341ZM201.377 134.013C201.467 134.104 201.467 134.251 201.377 134.341L201.447 134.412C201.577 134.282 201.577 134.072 201.447 133.943L201.377 134.013ZM199.689 132.325L201.377 134.013L201.447 133.943L199.76 132.255L199.689 132.325ZM201.377 130.567L199.689 132.255L199.76 132.325L201.447 130.638L201.377 130.567ZM201.377 130.239C201.468 130.33 201.468 130.476 201.377 130.567L201.447 130.638C201.578 130.508 201.578 130.298 201.448 130.169L201.377 130.239ZM205.948 117.46H219.531V117.36H205.948V117.46ZM205.617 117.128C205.617 117.311 205.765 117.46 205.948 117.46V117.36C205.821 117.36 205.717 117.256 205.717 117.128H205.617ZM205.948 116.796C205.765 116.796 205.617 116.945 205.617 117.128H205.717C205.717 117 205.821 116.896 205.948 116.896V116.796ZM219.531 116.796H205.948V116.896H219.531V116.796ZM219.863 117.128C219.863 116.945 219.715 116.796 219.531 116.796V116.896C219.659 116.896 219.763 117 219.763 117.128H219.863ZM219.531 117.46C219.715 117.46 219.863 117.311 219.863 117.128H219.763C219.763 117.256 219.659 117.36 219.531 117.36V117.46ZM205.948 124.478H219.531V124.378H205.948V124.478ZM205.717 124.709C205.717 124.581 205.821 124.478 205.948 124.478V124.378C205.765 124.378 205.617 124.526 205.617 124.709H205.717ZM205.948 124.941C205.821 124.941 205.717 124.837 205.717 124.709H205.617C205.617 124.892 205.765 125.041 205.948 125.041V124.941ZM219.531 124.941H205.948V125.041H219.531V124.941ZM219.763 124.709C219.763 124.837 219.659 124.941 219.531 124.941V125.041C219.715 125.041 219.863 124.892 219.863 124.709H219.763ZM219.531 124.478C219.659 124.478 219.763 124.581 219.763 124.709H219.863C219.863 124.526 219.715 124.378 219.531 124.378V124.478ZM219.531 131.959H205.948V132.059H219.531V131.959ZM219.863 132.29C219.863 132.107 219.715 131.959 219.531 131.959V132.059C219.659 132.059 219.763 132.162 219.763 132.29H219.863ZM219.531 132.622C219.715 132.622 219.863 132.473 219.863 132.29H219.763C219.763 132.418 219.659 132.522 219.531 132.522V132.622ZM205.948 132.622H219.531V132.522H205.948V132.622ZM205.617 132.29C205.617 132.473 205.765 132.622 205.948 132.622V132.522C205.821 132.522 205.717 132.418 205.717 132.29H205.617ZM205.948 131.959C205.765 131.959 205.617 132.107 205.617 132.29H205.717C205.717 132.162 205.821 132.059 205.948 132.059V131.959Z" fill="white"/>
<path fill-rule="evenodd" clip-rule="evenodd" d="M67.7473 123.638H67.7316C67.59 123.638 67.475 123.523 67.475 123.382V116.323C67.475 116.181 67.59 116.066 67.7316 116.066H90.074C90.2157 116.066 90.3307 116.181 90.3307 116.323V123.382C90.3307 123.523 90.2157 123.638 90.074 123.638H78.4561L79.9827 125.165L83.4538 128.637C83.5541 128.737 83.5541 128.899 83.4538 129L78.4625 133.991C78.4145 134.039 78.3491 134.066 78.2811 134.066C78.2131 134.066 78.1479 134.039 78.0996 133.991L67.7473 123.638ZM70.3439 123.638H68.4731L69.4084 124.574L70.3439 123.638ZM78.2813 133.446L75.1727 130.338L79.801 125.709L82.9094 128.818L78.2813 133.446ZM74.8098 129.975L79.4381 125.347L77.7303 123.638H71.07L69.7716 124.937L71.1814 126.346L73.0819 124.446C73.1823 124.346 73.3445 124.346 73.4449 124.446C73.5452 124.546 73.5452 124.708 73.4449 124.809L71.5443 126.709L72.9541 128.119L76.2732 124.8C76.3736 124.7 76.5358 124.7 76.6362 124.8C76.7365 124.901 76.7365 125.063 76.6362 125.163L73.317 128.482L74.8098 129.975ZM67.9883 116.579H69.8714V121.106C69.8714 121.247 69.9864 121.362 70.1281 121.362C70.2697 121.362 70.3847 121.247 70.3847 121.106V116.579H72.3784V119.1C72.3784 119.241 72.4934 119.356 72.6351 119.356C72.7768 119.356 72.8918 119.241 72.8918 119.1V116.579H74.8855V121.106C74.8855 121.247 75.0005 121.362 75.1421 121.362C75.2838 121.362 75.3988 121.247 75.3988 121.106V116.579H77.3925V119.1C77.3925 119.241 77.5075 119.356 77.6492 119.356C77.7909 119.356 77.9058 119.241 77.9058 119.1V116.579H79.8996V121.106C79.8996 121.247 80.0146 121.362 80.1562 121.362C80.2979 121.362 80.4129 121.247 80.4129 121.106V116.579H82.4066V119.852C82.4066 119.994 82.5216 120.109 82.6633 120.109C82.805 120.109 82.9199 119.994 82.9199 119.852V116.579H84.9137V121.106C84.9137 121.247 85.0286 121.362 85.1703 121.362C85.312 121.362 85.427 121.247 85.427 121.106V116.579H87.4207V119.852C87.4207 119.994 87.5357 120.109 87.6774 120.109C87.819 120.109 87.934 119.994 87.934 119.852V116.579H89.8171V123.125H67.9883V116.579ZM79.0767 128.213C78.7025 128.213 78.3509 128.358 78.0863 128.623C77.5404 129.169 77.5404 130.058 78.0863 130.604C78.3509 130.869 78.7025 131.014 79.0767 131.014C79.4509 131.014 79.8026 130.869 80.0672 130.604C80.3318 130.339 80.4776 129.988 80.4776 129.613C80.4776 129.239 80.3318 128.888 80.0672 128.623C79.8026 128.358 79.4509 128.213 79.0767 128.213ZM78.4492 130.241C78.1032 129.895 78.1032 129.332 78.4492 128.986C78.6168 128.818 78.8396 128.726 79.0767 128.726C79.3139 128.726 79.5367 128.818 79.7043 128.986C79.8719 129.154 79.9643 129.376 79.9643 129.613C79.9643 129.851 79.8719 130.073 79.7043 130.241C79.3688 130.576 78.7846 130.576 78.4492 130.241Z" fill="white"/>
<path d="M141.739 180.266C146.806 180.266 150.914 176.158 150.914 171.091C150.914 166.023 146.806 161.915 141.739 161.915C136.671 161.915 132.563 166.023 132.563 171.091C132.563 176.158 136.671 180.266 141.739 180.266Z" fill="#0091FF"/>
<path d="M147.516 170.184H142.645V165.313H140.833V170.184H135.962V171.997H140.833V176.868H142.645V171.997H147.516V170.184Z" fill="white"/>
<path d="M170.678 171.407L165.932 169.192V170.458H154.858V172.356H165.932V173.622L170.678 171.407Z" fill="white"/>
<path d="M112.8 171.407L117.546 169.192V170.458H128.62V172.356H117.546V173.622L112.8 171.407Z" fill="white"/>
<g filter="url(#filter5_dd)">
<rect x="25.7794" y="244.178" width="231.919" height="0.632794" fill="#1D1C1D"/>
</g>
<rect x="111.365" y="50.5432" width="60.7481" height="0.632794" fill="white"/>
<rect x="111.512" y="223.296" width="60.7483" height="0.632794" fill="white"/>
<path d="M269.869 160.808L268.287 166.819C268.287 166.819 262.591 179.475 268.287 180.108C273.982 180.741 274.298 163.655 274.298 163.655L269.869 160.808Z" fill="#FFB8B8"/>
<path d="M279.677 117.461L268.287 162.39C268.287 162.39 272.716 163.655 274.931 165.237L279.677 117.461Z" fill="#0091FF"/>
<path fill-rule="evenodd" clip-rule="evenodd" d="M315.43 151.632L318.594 200.674C318.594 200.674 326.187 219.974 325.871 238.325C325.871 238.325 323.023 245.602 325.238 246.868C327.453 248.133 328.718 249.083 327.453 250.032C326.187 250.981 325.238 253.196 326.187 253.828C327.137 254.461 327.453 255.41 327.137 255.41H317.645C317.645 255.41 319.543 250.665 316.695 249.399C313.848 248.133 315.43 244.969 315.43 244.969L294.231 182.955L277.462 239.907C277.462 239.907 280.31 241.805 278.095 242.755C275.88 243.704 274.931 241.805 275.88 243.704C276.829 245.602 275.564 246.551 275.564 246.868C275.564 247.184 266.072 245.919 266.072 245.919C266.072 245.919 270.818 241.805 268.603 240.856C266.388 239.907 265.439 238.958 266.072 238.325C266.705 237.692 269.236 231.681 269.236 231.681C269.236 231.681 270.501 208.9 270.818 207.951C271.134 207.002 270.818 202.572 270.818 200.357C270.818 198.143 270.501 189.283 271.451 187.069C272.4 184.854 273.349 157.644 278.411 154.48C283.474 151.316 315.43 151.632 315.43 151.632Z" fill="#4D4F79"/>
<g filter="url(#filter6_dd)">
<path fill-rule="evenodd" clip-rule="evenodd" d="M275.247 245.286C275.247 245.286 281.575 258.258 277.146 259.84C272.716 261.422 267.021 260.156 265.755 262.055C264.49 263.953 250.568 266.168 250.252 261.422C249.936 256.676 265.439 247.817 265.439 247.817L267.459 244.565L275.247 245.286Z" fill="#0091FF"/>
</g>
<g filter="url(#filter7_dd)">
<path fill-rule="evenodd" clip-rule="evenodd" d="M326.504 254.778C326.504 254.778 332.832 267.75 328.402 269.332C323.973 270.914 318.277 269.648 317.012 271.547C315.746 273.445 301.825 275.66 301.508 270.914C301.192 266.168 316.695 257.309 316.695 257.309L318.715 254.057L326.504 254.778Z" fill="#0091FF"/>
</g>
<path d="M297.237 91.9913C303.003 91.9913 307.678 87.3166 307.678 81.5502C307.678 75.7837 303.003 71.1091 297.237 71.1091C291.471 71.1091 286.796 75.7837 286.796 81.5502C286.796 87.3166 291.471 91.9913 297.237 91.9913Z" fill="#FFB8B8"/>
<path d="M304.356 87.0871L303.09 96.2626L293.598 103.54L291.067 100.059V88.0363L304.356 87.0871Z" fill="#FFB8B8"/>
<path d="M289.485 98.7938C289.485 98.7938 299.294 99.743 304.356 96.2627L314.481 156.062C314.481 156.062 278.728 158.909 277.146 157.011V138.343L283.474 107.969L289.485 98.7938Z" fill="white"/>
<path d="M303.485 93.4036L306.887 96.2626C306.887 96.2626 320.809 98.4774 319.859 102.274L316.063 147.203L317.328 162.39C317.328 162.39 306.571 159.542 298.344 162.39C290.118 165.237 296.654 101.197 296.654 101.197C296.654 101.197 304.195 94.3413 303.485 93.4036Z" fill="#0091FF"/>
<path d="M291.067 96.8668C291.067 96.8668 280.942 104.173 279.677 108.919C278.411 113.664 274.298 163.655 274.298 163.655C274.298 163.655 276.196 162.706 277.146 164.288C278.095 165.87 292.649 99.3693 291.067 96.8668Z" fill="#0091FF"/>
<path d="M318.91 163.022L316.642 170.423C316.642 170.423 316.063 184.221 308.469 182.323C300.876 180.424 310.684 164.288 310.684 164.288L312.899 160.808L318.91 163.022Z" fill="#FFB8B8"/>
<path fill-rule="evenodd" clip-rule="evenodd" d="M286.801 81.0953C286.801 81.0953 285.671 79.3998 286.105 77.5739C286.365 76.5372 286.468 75.4674 286.41 74.4003C286.41 74.4003 287.323 71.4441 288.235 69.7921C289.148 68.1401 288.714 67.4445 291.583 66.9229C294.452 66.4012 293.278 62.6624 300.843 66.7055C301.365 67.4341 302.274 67.7772 303.147 67.575C304.712 67.2706 305.277 69.4443 305.277 69.4443C305.277 69.4443 306.321 68.8357 306.712 69.7052C307.103 70.5746 309.893 69.1833 309.893 75.0523C309.893 80.9212 306.718 86.1637 306.718 86.1637C306.718 86.1637 306.951 76.2914 301.778 75.2915C296.604 74.2916 291.04 71.3789 289.692 75.1176C288.964 77.216 287.994 79.2222 286.801 81.0953Z" fill="#663D5B"/>
<path d="M306.831 83.4425C307.395 83.4425 307.852 82.8334 307.852 82.0819C307.852 81.3305 307.395 80.7214 306.831 80.7214C306.268 80.7214 305.811 81.3305 305.811 82.0819C305.811 82.8334 306.268 83.4425 306.831 83.4425Z" fill="#A0616A"/>
<path d="M317.328 100.059C317.328 100.059 322.391 98.7938 323.973 107.337C325.555 115.879 327.453 140.242 327.453 140.242L319.859 165.87C319.859 165.87 312.266 161.757 310.684 162.39L316.659 140.14L311.633 117.461C311.633 117.461 316.063 100.059 317.328 100.059Z" fill="#0091FF"/>
<path opacity="0.15" d="M309.968 117.894L316.612 140.042L309.968 162.506L313.764 140.042L309.968 117.894Z" fill="black"/>
<defs>
<filter id="filter0_dd" x="87.8923" y="18.5899" width="107.693" height="229.516" filterUnits="userSpaceOnUse" color-interpolation-filters="sRGB">
<feFlood flood-opacity="0" result="BackgroundImageFix"/>
<feColorMatrix in="SourceAlpha" type="matrix" values="0 0 0 0 0 0 0 0 0 0 0 0 0 0 0 0 0 0 127 0"/>
<feOffset dy="1"/>
<feGaussianBlur stdDeviation="1.5"/>
<feColorMatrix type="matrix" values="0 0 0 0 0 0 0 0 0 0 0 0 0 0 0 0 0 0 0.1 0"/>
<feBlend mode="normal" in2="BackgroundImageFix" result="effect1_dropShadow"/>
<feColorMatrix in="SourceAlpha" type="matrix" values="0 0 0 0 0 0 0 0 0 0 0 0 0 0 0 0 0 0 127 0"/>
<feOffset dy="1"/>
<feGaussianBlur stdDeviation="1"/>
<feColorMatrix type="matrix" values="0 0 0 0 0 0 0 0 0 0 0 0 0 0 0 0 0 0 0.2 0"/>
<feBlend mode="normal" in2="effect1_dropShadow" result="effect2_dropShadow"/>
<feBlend mode="normal" in="SourceGraphic" in2="effect2_dropShadow" result="shape"/>
</filter>
<filter id="filter1_dd" x="13.3672" y="56.0999" width="30.8409" height="15.8272" filterUnits="userSpaceOnUse" color-interpolation-filters="sRGB">
<feFlood flood-opacity="0" result="BackgroundImageFix"/>
<feColorMatrix in="SourceAlpha" type="matrix" values="0 0 0 0 0 0 0 0 0 0 0 0 0 0 0 0 0 0 127 0"/>
<feOffset dy="1"/>
<feGaussianBlur stdDeviation="1.5"/>
<feColorMatrix type="matrix" values="0 0 0 0 0 0 0 0 0 0 0 0 0 0 0 0 0 0 0.1 0"/>
<feBlend mode="normal" in2="BackgroundImageFix" result="effect1_dropShadow"/>
<feColorMatrix in="SourceAlpha" type="matrix" values="0 0 0 0 0 0 0 0 0 0 0 0 0 0 0 0 0 0 127 0"/>
<feOffset dy="1"/>
<feGaussianBlur stdDeviation="1"/>
<feColorMatrix type="matrix" values="0 0 0 0 0 0 0 0 0 0 0 0 0 0 0 0 0 0 0.2 0"/>
<feBlend mode="normal" in2="effect1_dropShadow" result="effect2_dropShadow"/>
<feBlend mode="normal" in="SourceGraphic" in2="effect2_dropShadow" result="shape"/>
</filter>
<filter id="filter2_dd" x="50.4214" y="45.3991" width="15.8357" height="30.8306" filterUnits="userSpaceOnUse" color-interpolation-filters="sRGB">
<feFlood flood-opacity="0" result="BackgroundImageFix"/>
<feColorMatrix in="SourceAlpha" type="matrix" values="0 0 0 0 0 0 0 0 0 0 0 0 0 0 0 0 0 0 127 0"/>
<feOffset dy="1"/>
<feGaussianBlur stdDeviation="1.5"/>
<feColorMatrix type="matrix" values="0 0 0 0 0 0 0 0 0 0 0 0 0 0 0 0 0 0 0.1 0"/>
<feBlend mode="normal" in2="BackgroundImageFix" result="effect1_dropShadow"/>
<feColorMatrix in="SourceAlpha" type="matrix" values="0 0 0 0 0 0 0 0 0 0 0 0 0 0 0 0 0 0 127 0"/>
<feOffset dy="1"/>
<feGaussianBlur stdDeviation="1"/>
<feColorMatrix type="matrix" values="0 0 0 0 0 0 0 0 0 0 0 0 0 0 0 0 0 0 0.2 0"/>
<feBlend mode="normal" in2="effect1_dropShadow" result="effect2_dropShadow"/>
<feBlend mode="normal" in="SourceGraphic" in2="effect2_dropShadow" result="shape"/>
</filter>
<filter id="filter3_dd" x="36.7018" y="59.735" width="50.5045" height="109.531" filterUnits="userSpaceOnUse" color-interpolation-filters="sRGB">
<feFlood flood-opacity="0" result="BackgroundImageFix"/>
<feColorMatrix in="SourceAlpha" type="matrix" values="0 0 0 0 0 0 0 0 0 0 0 0 0 0 0 0 0 0 127 0"/>
<feOffset dy="1"/>
<feGaussianBlur stdDeviation="1.5"/>
<feColorMatrix type="matrix" values="0 0 0 0 0 0 0 0 0 0 0 0 0 0 0 0 0 0 0.1 0"/>
<feBlend mode="normal" in2="BackgroundImageFix" result="effect1_dropShadow"/>
<feColorMatrix in="SourceAlpha" type="matrix" values="0 0 0 0 0 0 0 0 0 0 0 0 0 0 0 0 0 0 127 0"/>
<feOffset dy="1"/>
<feGaussianBlur stdDeviation="1"/>
<feColorMatrix type="matrix" values="0 0 0 0 0 0 0 0 0 0 0 0 0 0 0 0 0 0 0.2 0"/>
<feBlend mode="normal" in2="effect1_dropShadow" result="effect2_dropShadow"/>
<feBlend mode="normal" in="SourceGraphic" in2="effect2_dropShadow" result="shape"/>
</filter>
<filter id="filter4_dd" x="0.936584" y="48.5434" width="18.0231" height="18.0231" filterUnits="userSpaceOnUse" color-interpolation-filters="sRGB">
<feFlood flood-opacity="0" result="BackgroundImageFix"/>
<feColorMatrix in="SourceAlpha" type="matrix" values="0 0 0 0 0 0 0 0 0 0 0 0 0 0 0 0 0 0 127 0"/>
<feOffset dy="1"/>
<feGaussianBlur stdDeviation="1.5"/>
<feColorMatrix type="matrix" values="0 0 0 0 0 0 0 0 0 0 0 0 0 0 0 0 0 0 0.1 0"/>
<feBlend mode="normal" in2="BackgroundImageFix" result="effect1_dropShadow"/>
<feColorMatrix in="SourceAlpha" type="matrix" values="0 0 0 0 0 0 0 0 0 0 0 0 0 0 0 0 0 0 127 0"/>
<feOffset dy="1"/>
<feGaussianBlur stdDeviation="1"/>
<feColorMatrix type="matrix" values="0 0 0 0 0 0 0 0 0 0 0 0 0 0 0 0 0 0 0.2 0"/>
<feBlend mode="normal" in2="effect1_dropShadow" result="effect2_dropShadow"/>
<feBlend mode="normal" in="SourceGraphic" in2="effect2_dropShadow" result="shape"/>
</filter>
<filter id="filter5_dd" x="22.7794" y="242.178" width="237.919" height="6.63279" filterUnits="userSpaceOnUse" color-interpolation-filters="sRGB">
<feFlood flood-opacity="0" result="BackgroundImageFix"/>
<feColorMatrix in="SourceAlpha" type="matrix" values="0 0 0 0 0 0 0 0 0 0 0 0 0 0 0 0 0 0 127 0"/>
<feOffset dy="1"/>
<feGaussianBlur stdDeviation="1.5"/>
<feColorMatrix type="matrix" values="0 0 0 0 0 0 0 0 0 0 0 0 0 0 0 0 0 0 0.1 0"/>
<feBlend mode="normal" in2="BackgroundImageFix" result="effect1_dropShadow"/>
<feColorMatrix in="SourceAlpha" type="matrix" values="0 0 0 0 0 0 0 0 0 0 0 0 0 0 0 0 0 0 127 0"/>
<feOffset dy="1"/>
<feGaussianBlur stdDeviation="1"/>
<feColorMatrix type="matrix" values="0 0 0 0 0 0 0 0 0 0 0 0 0 0 0 0 0 0 0.2 0"/>
<feBlend mode="normal" in2="effect1_dropShadow" result="effect2_dropShadow"/>
<feBlend mode="normal" in="SourceGraphic" in2="effect2_dropShadow" result="shape"/>
</filter>
<filter id="filter6_dd" x="247.247" y="242.565" width="34.4723" height="25.6989" filterUnits="userSpaceOnUse" color-interpolation-filters="sRGB">
<feFlood flood-opacity="0" result="BackgroundImageFix"/>
<feColorMatrix in="SourceAlpha" type="matrix" values="0 0 0 0 0 0 0 0 0 0 0 0 0 0 0 0 0 0 127 0"/>
<feOffset dy="1"/>
<feGaussianBlur stdDeviation="1.5"/>
<feColorMatrix type="matrix" values="0 0 0 0 0 0 0 0 0 0 0 0 0 0 0 0 0 0 0.1 0"/>
<feBlend mode="normal" in2="BackgroundImageFix" result="effect1_dropShadow"/>
<feColorMatrix in="SourceAlpha" type="matrix" values="0 0 0 0 0 0 0 0 0 0 0 0 0 0 0 0 0 0 127 0"/>
<feOffset dy="1"/>
<feGaussianBlur stdDeviation="1"/>
<feColorMatrix type="matrix" values="0 0 0 0 0 0 0 0 0 0 0 0 0 0 0 0 0 0 0.2 0"/>
<feBlend mode="normal" in2="effect1_dropShadow" result="effect2_dropShadow"/>
<feBlend mode="normal" in="SourceGraphic" in2="effect2_dropShadow" result="shape"/>
</filter>
<filter id="filter7_dd" x="298.504" y="252.057" width="34.4723" height="25.6989" filterUnits="userSpaceOnUse" color-interpolation-filters="sRGB">
<feFlood flood-opacity="0" result="BackgroundImageFix"/>
<feColorMatrix in="SourceAlpha" type="matrix" values="0 0 0 0 0 0 0 0 0 0 0 0 0 0 0 0 0 0 127 0"/>
<feOffset dy="1"/>
<feGaussianBlur stdDeviation="1.5"/>
<feColorMatrix type="matrix" values="0 0 0 0 0 0 0 0 0 0 0 0 0 0 0 0 0 0 0.1 0"/>
<feBlend mode="normal" in2="BackgroundImageFix" result="effect1_dropShadow"/>
<feColorMatrix in="SourceAlpha" type="matrix" values="0 0 0 0 0 0 0 0 0 0 0 0 0 0 0 0 0 0 127 0"/>
<feOffset dy="1"/>
<feGaussianBlur stdDeviation="1"/>
<feColorMatrix type="matrix" values="0 0 0 0 0 0 0 0 0 0 0 0 0 0 0 0 0 0 0.2 0"/>
<feBlend mode="normal" in2="effect1_dropShadow" result="effect2_dropShadow"/>
<feBlend mode="normal" in="SourceGraphic" in2="effect2_dropShadow" result="shape"/>
</filter>
</defs>
</svg>
