<svg width="329" height="255" viewBox="0 0 329 255" fill="none" xmlns="http://www.w3.org/2000/svg">
<path opacity="0.1" d="M321.748 67.7253C318.507 60.204 314.128 53.2263 308.764 47.0374L128.627 45.2627L276.941 24.4315C267.36 20.616 257.159 18.5921 246.847 18.4607C217.712 -4.82764 176.74 -6.21406 146.097 15.0515C134.172 8.92115 120.953 5.73537 107.545 5.76058C67.5198 5.76058 34.167 33.4803 26.6859 70.2423L321.748 67.7253Z" fill="#0091FF"/>
<path opacity="0.1" d="M328.082 98.5547C328.09 88.586 326.184 78.7085 322.468 69.4586L10.2675 102.228C7.04806 108.051 4.58541 114.261 2.93928 120.708L99.6173 135.122L0.731262 145.637C3.70715 187.251 39.3827 220.114 82.9632 220.114C104.9 220.114 124.836 211.785 139.604 198.205C154.423 212.043 174.547 220.55 196.719 220.55C229.62 220.55 258.015 201.819 271.237 174.733C297.769 166.315 318.377 145.172 325.431 118.723L203.184 99.7463H328.082C328.075 99.348 328.082 98.953 328.082 98.5547Z" fill="#0091FF"/>
<path d="M92.0884 254.54C132.033 254.54 164.414 249.232 164.414 242.684C164.414 236.137 132.033 230.829 92.0884 230.829C52.1438 230.829 19.7623 236.137 19.7623 242.684C19.7623 249.232 52.1438 254.54 92.0884 254.54Z" fill="#0091FF"/>
<path d="M75.3864 66.8172C76.0237 65.0202 78.5153 64.7175 80.3282 65.3261C81.0738 65.5746 81.8098 65.9282 82.5967 65.9633C84.107 66.0079 85.3974 64.8481 86.8885 64.6028C89.0328 64.2459 90.9987 65.8135 92.4293 67.448C93.8599 69.0826 95.2172 70.9847 97.2754 71.6825C101.491 73.1035 105.677 68.7193 110.113 69.0602C112.547 69.2482 114.65 70.8509 116.291 72.6574C117.931 74.464 119.282 76.5414 121.098 78.1727C122.692 79.6065 124.603 80.6484 126.531 81.6138C127.656 82.1777 128.857 82.7353 130.112 82.6525C131.533 82.5601 133.094 81.6966 134.254 82.5059C134.619 82.7921 134.904 83.1673 135.083 83.5956C136.51 86.5651 135.36 90.5191 132.565 92.2651C132.078 92.5678 131.485 92.9024 131.457 93.4854C131.466 93.7578 131.547 94.0228 131.692 94.2533C132.202 95.241 132.776 96.2256 132.967 97.3184C133.158 98.4113 132.9 99.6698 132.011 100.333C131.431 100.719 130.741 100.907 130.045 100.871C126.821 100.855 124.055 98.3221 120.837 98.1277C120.425 98.0806 120.008 98.1444 119.63 98.3125C118.948 98.6662 118.674 99.485 118.397 100.199C116.905 103.923 113.203 106.514 109.252 107.224C105.301 107.935 101.175 106.934 97.6387 105.035C97.3801 104.912 97.1425 104.748 96.9345 104.551C96.6393 104.192 96.431 103.77 96.326 103.318C95.2427 99.8928 93.777 96.3084 90.7756 94.3298C88.8289 93.0553 86.1876 92.3384 85.305 90.1878C84.7506 88.8273 85.0979 87.282 84.9577 85.8163C84.6761 83.2521 82.9513 81.0754 80.5194 80.215C79.9968 80.0398 79.4233 79.9155 79.041 79.5173C78.7305 79.1262 78.5323 78.6582 78.4675 78.1631C77.9927 76.0061 77.6773 73.728 77.0146 71.6219C76.508 69.9715 74.7078 68.7066 75.3864 66.8172Z" fill="#663D5B"/>
<g opacity="0.1">
<path d="M132.384 99.3416C131.802 99.7224 131.113 99.9066 130.418 99.8674C127.197 99.8674 124.431 97.3184 121.213 97.1273C120.802 97.079 120.385 97.1417 120.006 97.3089C119.321 97.6625 119.05 98.4814 118.773 99.1951C117.281 102.923 113.576 105.513 109.625 106.224C105.674 106.934 101.548 105.934 98.0147 104.035C97.7563 103.911 97.5188 103.747 97.3105 103.551C97.0159 103.192 96.8076 102.77 96.702 102.318C95.6187 98.8892 94.153 95.308 91.1517 93.3262C89.2017 92.0358 86.5604 91.338 85.681 89.1841C85.1234 87.8204 85.4707 86.2752 85.3337 84.8127C85.053 82.247 83.3263 80.0695 80.8922 79.2114C80.3696 79.0362 79.7961 78.9087 79.4138 78.5136C79.103 78.122 78.9057 77.6524 78.8435 77.1563C78.3655 75.0025 78.0533 72.7212 77.3906 70.6183C76.9445 69.21 75.5394 68.0694 75.6095 66.5655C75.5683 66.6449 75.5321 66.7268 75.5012 66.8108C74.8193 68.7002 76.6227 69.9651 77.1357 71.5901C77.7984 73.693 78.1107 75.9743 78.5886 78.1281C78.6508 78.6242 78.8481 79.0937 79.1589 79.4854C79.5412 79.8805 80.1148 80.008 80.6373 80.1832C83.0724 81.0418 84.7993 83.2208 85.0788 85.7877C85.2158 87.2501 84.8685 88.7954 85.4261 90.1591C86.3055 92.3225 88.9468 93.0267 90.8968 94.3011C93.8918 96.2861 95.3574 99.8642 96.4471 103.292C96.5528 103.745 96.761 104.167 97.0556 104.526C97.2639 104.722 97.5014 104.886 97.7598 105.01C101.293 106.922 105.407 107.906 109.37 107.199C113.334 106.491 117.017 103.898 118.518 100.17C118.804 99.4563 119.069 98.6375 119.751 98.2838C120.13 98.1167 120.547 98.054 120.958 98.1022C124.176 98.2966 126.942 100.83 130.163 100.842C130.859 100.879 131.548 100.691 132.129 100.307C132.711 99.8352 133.071 99.1429 133.123 98.3954C132.962 98.7691 132.708 99.095 132.384 99.3416Z" fill="black"/>
<path d="M132.938 91.2647C132.451 91.5833 131.855 91.9019 131.826 92.485C131.824 92.602 131.842 92.7186 131.88 92.8291C132.123 92.6 132.392 92.402 132.683 92.2397C134.277 91.1962 135.365 89.5379 135.688 87.6611C135.217 89.1448 134.245 90.4186 132.938 91.2647Z" fill="black"/>
</g>
<path d="M83.7247 224.128C82.2495 227.595 83.7661 230.857 84.4416 233.011C85.117 235.165 82.8102 236.634 80.7392 237.153C78.6682 237.673 73.411 243.325 73.411 243.325C73.411 243.325 67.0387 247.266 64.8466 246.83C62.6545 246.393 67.2745 241.811 67.2745 241.811L72.812 231.813C72.8917 230.781 74.6027 226.397 74.6027 226.397L77.7697 210.402L78.1903 208.277L89.4184 207.598C89.4184 207.598 88.8289 209.421 88.0165 211.884C86.6496 216.026 84.6487 221.965 83.7247 224.128Z" fill="#FFB8B8"/>
<path d="M173.336 168.22C172.938 168.979 168.359 169.893 168.359 169.893L165.291 170.489C165.291 170.489 160.272 172.961 156.608 172.961L136.873 176.017L134.226 176.428V165.232C134.226 165.232 135.557 165.372 137.444 165.55C141.659 165.92 148.633 166.411 149.599 165.722C150.994 164.728 151.909 160.905 154.257 161.345C156.605 161.784 159.396 165.009 159.396 165.009C159.396 165.009 162.662 166.56 165.848 165.764C169.034 164.967 173.734 167.462 173.336 168.22Z" fill="#FFB8B8"/>
<path opacity="0.1" d="M137.571 175.15C137.571 175.15 137.287 175.469 136.873 176.014L134.226 176.425V165.232C134.226 165.232 135.557 165.372 137.444 165.55C140.611 168.051 137.571 175.15 137.571 175.15Z" fill="black"/>
<path d="M99.458 172.563L110.058 181.408C111.714 182.788 113.769 183.6 115.921 183.724C119.215 183.919 124.358 184.393 128.092 185.547L129.647 179.053C129.647 179.053 134.108 179.213 135.063 177.699C135.625 176.806 136.25 175.954 136.934 175.15C136.934 175.15 140.161 167.625 136.497 165.315C136.497 165.315 132.435 164.078 131.597 162.963C130.759 161.848 125.107 159.818 123.354 159.936C121.602 160.054 116.424 160.335 116.424 160.335C116.424 160.335 114.392 158.025 113.477 158.264C112.563 158.503 109.373 158.264 109.373 158.264C109.373 158.264 108.497 156.011 107.621 152.783C106.745 149.556 101.529 148.402 101.529 148.402L99.458 172.563Z" fill="#565987"/>
<path opacity="0.1" d="M99.458 172.563L110.058 181.408C111.714 182.788 113.769 183.6 115.921 183.724C119.215 183.919 124.358 184.393 128.092 185.547L129.647 179.053C129.647 179.053 134.108 179.213 135.063 177.699C135.625 176.806 136.25 175.954 136.934 175.15C136.934 175.15 140.161 167.625 136.497 165.315C136.497 165.315 132.435 164.078 131.597 162.963C130.759 161.848 125.107 159.818 123.354 159.936C121.602 160.054 116.424 160.335 116.424 160.335C116.424 160.335 114.392 158.025 113.477 158.264C112.563 158.503 109.373 158.264 109.373 158.264C109.373 158.264 108.497 156.011 107.621 152.783C106.745 149.556 101.529 148.402 101.529 148.402L99.458 172.563Z" fill="black"/>
<path d="M94.7169 93.2656L93.5444 93.4854H93.4712L93.2991 93.5173L91.2918 93.8901L90.6737 94.6229L90.6482 94.6484L88.6632 96.9998L86.9905 98.6407L86.9745 98.6598L85.5599 100.036L83.1671 102.416L82.7656 103.407L81.8926 105.602L81.6664 106.16L79.2768 108.709L77.7506 111.975L74.1821 114.046L70.3427 112.054L68.5903 109.506L68.9886 105.854L69.0683 105.125L70.2376 103.248L71.2986 101.54L73.3696 98.5929L77.3523 95.8846L78.066 95.6967L78.8657 95.4864C78.9269 95.3992 78.9832 95.3088 79.0346 95.2155C79.1021 95.1035 79.1627 94.9876 79.2162 94.8682C80.1115 92.9374 79.7961 90.0667 79.1907 87.5209C78.7267 85.6165 78.112 83.752 77.3523 81.9451L87.8667 80.4317C87.8667 80.4317 87.7647 82.4709 87.7647 85.6507C87.7647 86.4472 87.7647 87.3106 87.787 88.2346C87.838 91.1022 90.5016 92.3448 92.5121 92.8737C93.0298 93.0117 93.5555 93.1181 94.0861 93.1923C94.4748 93.2529 94.7169 93.2656 94.7169 93.2656Z" fill="#FFB8B8"/>
<path fill-rule="evenodd" clip-rule="evenodd" d="M116.167 57.7142C114.669 58.7949 112.721 59.3353 110.323 59.3353C108.19 59.3353 106.346 58.8281 104.791 57.8137C103.236 56.7994 102.483 55.3205 102.53 53.3771L102.559 53.2918H107.237C107.237 53.9648 107.526 54.5242 108.104 54.9697C108.683 55.4153 109.422 55.6381 110.323 55.6381C111.328 55.6381 112.126 55.4011 112.719 54.9271C113.311 54.4531 113.608 53.8558 113.608 53.1353C113.608 52.121 113.354 51.3863 112.847 50.9312C112.34 50.4762 111.574 50.2487 110.55 50.2487H107.92V46.6795H110.55C111.479 46.6795 112.169 46.4519 112.619 45.9969C113.07 45.5419 113.295 44.8925 113.295 44.0488C113.295 43.3946 113.039 42.8448 112.527 42.3992C112.015 41.9537 111.28 41.7309 110.323 41.7309C109.507 41.7309 108.837 41.9323 108.311 42.3352C107.784 42.7381 107.521 43.2809 107.521 43.9634H102.857L102.829 43.8781C102.772 42.1338 103.473 40.7236 104.933 39.6477C106.393 38.5717 108.19 38.0337 110.323 38.0337C112.721 38.0337 114.615 38.5456 116.004 39.5695C117.392 40.5933 118.087 42.0532 118.087 43.9492C118.087 44.8972 117.807 45.7623 117.248 46.5444C116.689 47.3265 115.921 47.945 114.944 48.4001C116.063 48.8077 116.921 49.4192 117.518 50.2345C118.115 51.0497 118.414 52.0499 118.414 53.2349C118.414 55.1404 117.665 56.6335 116.167 57.7142ZM136.068 56.8539C134.452 58.5081 132.34 59.3353 129.733 59.3353C127.107 59.3353 124.979 58.5081 123.348 56.8539C121.718 55.1996 120.902 53.0974 120.902 50.5473V46.8217C120.902 44.281 121.715 42.1812 123.341 40.5222C124.967 38.8632 127.088 38.0337 129.705 38.0337C132.302 38.0337 134.416 38.8632 136.047 40.5222C137.677 42.1812 138.493 44.281 138.493 46.8217V50.5473C138.493 53.0974 137.684 55.1996 136.068 56.8539ZM129.733 55.6381C128.434 55.6381 127.437 55.1641 126.74 54.2161C126.043 53.2681 125.695 52.0451 125.695 50.5473V46.7932C125.695 45.3049 126.038 44.089 126.726 43.1458C127.413 42.2025 128.406 41.7309 129.705 41.7309C130.975 41.7309 131.958 42.2049 132.655 43.1529C133.352 44.1009 133.7 45.3143 133.7 46.7932V50.5473C133.7 52.0451 133.354 53.2681 132.662 54.2161C131.97 55.1641 130.994 55.6381 129.733 55.6381ZM152.485 50.8175H149.94L145.83 59.0366H139.843L146.143 47.7602L140.057 38.3323H146.1L150.423 46.523H152.485V38.3323H157.291V46.523H159.311L163.477 38.3323H169.506L163.577 47.7317L169.748 59.0366H163.747L159.78 50.8175H157.291V59.0366H152.485V50.8175Z" fill="#0091FF"/>
<path d="M192.396 53.4202V50.8132H179.219V53.4202H192.396Z" fill="#0091FF"/>
<path d="M205.071 59.3254C206.757 59.3254 208.088 58.7856 209.066 57.7059C210.043 56.6262 210.532 55.201 210.532 53.43V50.428C210.532 48.6637 210.043 47.2401 209.066 46.1571C208.088 45.0741 206.757 44.5327 205.071 44.5327C203.32 44.5327 201.972 44.9573 201.028 45.8065C200.083 46.6558 199.627 47.8967 199.66 49.5294L199.68 49.5887H202.929C202.929 48.6999 203.095 48.063 203.427 47.6778C203.76 47.2927 204.308 47.1002 205.071 47.1002C205.802 47.1002 206.337 47.3964 206.676 47.9889C207.015 48.5814 207.185 49.3944 207.185 50.428V50.6453H203.067V53.2227H207.185V53.4498C207.185 54.4899 207.015 55.3013 206.676 55.884C206.337 56.4666 205.802 56.7579 205.071 56.7579C204.301 56.7579 203.748 56.5686 203.412 56.1901C203.077 55.8116 202.909 55.1779 202.909 54.2892H199.66L199.64 54.3484C199.607 55.9745 200.066 57.2105 201.018 58.0565C201.969 58.9024 203.32 59.3254 205.071 59.3254Z" fill="#0091FF"/>
<path d="M218.808 59.1279V47.3174H222.6V44.7499H211.698V47.3174H215.46V59.1279H218.808Z" fill="#0091FF"/>
<path fill-rule="evenodd" clip-rule="evenodd" d="M234.158 57.6121C233.036 58.7609 231.569 59.3353 229.759 59.3353C227.935 59.3353 226.457 58.7609 225.325 57.6121C224.193 56.4633 223.627 55.0035 223.627 53.2325V50.6453C223.627 48.881 224.191 47.4228 225.32 46.2707C226.449 45.1186 227.922 44.5425 229.739 44.5425C231.543 44.5425 233.011 45.1186 234.143 46.2707C235.276 47.4228 235.842 48.881 235.842 50.6453V53.2325C235.842 55.0035 235.281 56.4633 234.158 57.6121ZM227.68 55.7803C228.164 56.4386 228.857 56.7678 229.759 56.7678C230.635 56.7678 231.313 56.4386 231.793 55.7803C232.274 55.122 232.514 54.2727 232.514 53.2325V50.6255C232.514 49.5985 232.272 48.7559 231.788 48.0975C231.304 47.4392 230.621 47.11 229.739 47.11C228.837 47.11 228.148 47.4376 227.67 48.0926C227.193 48.7476 226.954 49.592 226.954 50.6255V53.2325C226.954 54.2727 227.196 55.122 227.68 55.7803Z" fill="#0091FF"/>
<path d="M246.161 59.1279V47.3174H251.474V59.1279H254.812V44.7499H242.814V59.1279H246.161Z" fill="#0091FF"/>
<path fill-rule="evenodd" clip-rule="evenodd" d="M260.411 54.2003V59.1279H257.063V44.7499H262.899C264.605 44.7499 265.957 45.186 266.958 46.0583C267.959 46.9306 268.459 48.0712 268.459 49.48C268.459 50.8954 267.959 52.036 266.958 52.9017C265.957 53.7674 264.605 54.2003 262.899 54.2003H260.411ZM260.411 51.6328H262.899C263.624 51.6328 264.175 51.4336 264.553 51.0353C264.932 50.637 265.121 50.1252 265.121 49.4998C265.121 48.8612 264.932 48.3378 264.553 47.9296C264.175 47.5215 263.624 47.3174 262.899 47.3174H260.411V51.6328Z" fill="#0091FF"/>
<path fill-rule="evenodd" clip-rule="evenodd" d="M280.541 57.6121C279.419 58.7609 277.952 59.3353 276.142 59.3353C274.318 59.3353 272.84 58.7609 271.708 57.6121C270.576 56.4633 270.009 55.0035 270.009 53.2325V50.6453C270.009 48.881 270.574 47.4228 271.703 46.2707C272.832 45.1186 274.305 44.5425 276.122 44.5425C277.926 44.5425 279.394 45.1186 280.526 46.2707C281.659 47.4228 282.225 48.881 282.225 50.6453V53.2325C282.225 55.0035 281.664 56.4633 280.541 57.6121ZM274.063 55.7803C274.547 56.4386 275.24 56.7678 276.142 56.7678C277.017 56.7678 277.696 56.4386 278.176 55.7803C278.657 55.122 278.897 54.2727 278.897 53.2325V50.6255C278.897 49.5985 278.655 48.7559 278.171 48.0975C277.687 47.4392 277.004 47.11 276.122 47.11C275.22 47.11 274.531 47.4376 274.053 48.0926C273.576 48.7476 273.337 49.592 273.337 50.6255V53.2325C273.337 54.2727 273.579 55.122 274.063 55.7803Z" fill="#0091FF"/>
<path d="M289.829 59.3353C291.6 59.3353 292.951 58.8909 293.882 58.0022C294.814 57.1134 295.313 55.8264 295.378 54.141L295.359 54.0818H292.11C292.064 55.0166 291.873 55.698 291.537 56.1259C291.201 56.5538 290.632 56.7678 289.829 56.7678C288.999 56.7678 288.347 56.4617 287.873 55.8494C287.399 55.2372 287.162 54.434 287.162 53.4399V50.4182C287.162 49.4307 287.38 48.6324 287.814 48.0235C288.249 47.4145 288.844 47.11 289.601 47.11C290.497 47.11 291.13 47.3372 291.502 47.7914C291.874 48.2457 292.083 48.9402 292.129 49.875H295.378L295.398 49.8158C295.273 48.1305 294.73 46.8303 293.769 45.9152C292.808 45.0001 291.418 44.5425 289.601 44.5425C287.89 44.5425 286.499 45.0906 285.429 46.1867C284.359 47.2829 283.825 48.6999 283.825 50.4379V53.4399C283.825 55.1845 284.381 56.6032 285.493 57.696C286.606 58.7889 288.051 59.3353 289.829 59.3353Z" fill="#0091FF"/>
<path d="M303.397 59.1279V47.3174H307.189V44.7499H296.287V47.3174H300.049V59.1279H303.397Z" fill="#0091FF"/>
<path fill-rule="evenodd" clip-rule="evenodd" d="M318.748 57.6121C317.625 58.7609 316.159 59.3353 314.348 59.3353C312.525 59.3353 311.047 58.7609 309.914 57.6121C308.782 56.4633 308.216 55.0035 308.216 53.2325V50.6453C308.216 48.881 308.78 47.4228 309.909 46.2707C311.038 45.1186 312.511 44.5425 314.328 44.5425C316.132 44.5425 317.6 45.1186 318.733 46.2707C319.865 47.4228 320.431 48.881 320.431 50.6453V53.2325C320.431 55.0035 319.87 56.4633 318.748 57.6121ZM312.27 55.7803C312.753 56.4386 313.446 56.7678 314.348 56.7678C315.224 56.7678 315.902 56.4386 316.382 55.7803C316.863 55.122 317.103 54.2727 317.103 53.2325V50.6255C317.103 49.5985 316.861 48.7559 316.378 48.0975C315.894 47.4392 315.211 47.11 314.328 47.11C313.427 47.11 312.737 47.4376 312.26 48.0926C311.782 48.7476 311.544 49.592 311.544 50.6255V53.2325C311.544 54.2727 311.786 55.122 312.27 55.7803Z" fill="#0091FF"/>
<path d="M78.1489 94.7695C78.1489 94.7695 78.6268 92.8578 74.8034 87.9989C70.98 83.14 70.2631 75.0949 70.2631 75.0949C70.2631 75.0949 69.3072 70.9529 70.2631 69.7581C71.2189 68.5632 72.812 55.4203 72.812 55.4203L75.4406 48.0124C75.4406 48.0124 88.265 34.9491 82.9281 33.356C79.3022 32.2727 74.9627 37.8517 72.5762 41.5349C71.3975 43.3449 70.6357 45.3941 70.3459 47.5345L63.0942 67.3684C63.0942 67.3684 62.3773 69.7581 63.0942 73.9001C63.8111 78.0421 65.4042 85.3703 65.4042 85.3703L69.4665 95.6553C69.4665 95.6553 71.6045 102.059 70.4957 102.84L72.9713 99.1792L78.1489 94.7695Z" fill="#FFB8B8"/>
<path d="M141.633 113.1C141.633 113.1 140.2 116.923 137.252 116.604C134.305 116.286 120.127 112.223 120.127 112.223C120.127 112.223 114.232 109.276 111.922 109.356C109.612 109.435 99.0183 104.497 99.0183 104.497C99.0183 104.497 98.2727 105.478 97.4411 106.511C96.5362 107.642 95.5294 108.836 95.2745 108.878C94.7966 108.958 87.3887 109.993 87.3887 109.993L82.3705 107.683L81.8926 105.602L81.6664 104.647L82.7784 103.407L84.2408 101.779L86.9841 98.6503L87 98.6311L90.6609 94.6516L90.6864 94.6261L93.0315 93.6703L93.4839 93.4855H93.5572C93.8376 93.4377 94.9145 93.3389 96.3578 94.1546C97.363 94.7238 98.4791 95.0693 99.63 95.1678C101.921 95.3312 104.09 96.2604 105.789 97.8059L117.578 104.009L136.137 110.7C136.137 110.7 137.73 101.54 140.439 103.531C143.147 105.523 141.633 113.1 141.633 113.1Z" fill="#FFB8B8"/>
<path opacity="0.1" d="M97.4411 106.511C96.5363 107.642 95.5294 108.836 95.2745 108.878C94.7966 108.958 87.3888 109.993 87.3888 109.993L82.3705 107.683L81.8926 105.602L81.6664 106.16L79.2768 108.709L77.7506 111.975L74.1821 114.046L70.3427 112.054L68.5903 109.506L68.9886 105.854C69.1893 105.421 69.7374 104.242 70.2376 103.248C70.4739 102.7 70.771 102.181 71.1233 101.699C71.442 101.489 71.7765 99.2301 71.7765 99.2301C73.223 95.0594 78.0692 94.419 78.0692 94.419L78.8434 95.1455L79.1812 95.4959C79.0442 95.4736 79.2067 95.1773 79.0314 95.2251C78.751 95.3048 78.6268 95.7285 78.2667 95.9611C76.3072 97.2356 73.2453 100.208 72.0346 101.62C71.7415 101.961 71.4388 102.295 71.1297 102.62C69.3805 104.471 69.7023 106.925 69.7023 106.925C69.2658 108.836 73.1274 110.27 73.1274 110.27C74.2044 108.48 81.4911 103.541 81.4911 103.541L86.3979 98.0449C87.9017 95.4259 90.8585 93.6958 92.5089 92.8865C93.2386 92.5296 93.7165 92.3512 93.7165 92.3512L95.5517 93.135C95.0672 93.0052 94.5544 93.0274 94.0829 93.1987C93.812 93.2825 93.5488 93.3891 93.2959 93.5173C93.2003 93.5651 93.1047 93.6161 93.0155 93.6703C92.5137 93.9617 92.0419 94.3021 91.6072 94.6867L87.4843 99.1887C84.3332 102.627 86.7069 108.186 91.3683 108.266H91.4097C94.2581 108.922 96.3005 107.603 97.4411 106.511Z" fill="black"/>
<path opacity="0.1" d="M89.4184 207.608C89.4184 207.608 88.8289 209.43 88.0164 211.893C84.9004 212.126 79.7547 210.921 77.7697 210.412L78.1903 208.286L89.4184 207.608Z" fill="black"/>
<path d="M79.1844 95.4959L78.1648 94.4509C78.1648 94.4509 74.4848 94.9543 72.2003 98.886C72.2003 98.886 71.1329 101.833 70.8047 102.044C70.4766 102.254 68.5904 106.374 68.5904 106.374C68.5904 106.374 66.3345 113.036 68.2176 117.127C70.1006 121.218 70.1834 123.101 70.1834 123.101L71.5917 129.155L72.1748 134.463L77.2344 146.969L81.8926 153.605C81.8926 153.605 81.4561 158.503 80.5003 159.181C79.5444 159.86 79.9809 163.361 79.9809 163.361L79.3851 172.563C79.3851 172.563 77.5116 175.31 77.3937 179.77C77.2759 184.231 76.5972 185.505 76.5972 185.505C76.5972 185.505 76.2786 189.249 77.1548 190.963C78.031 192.677 75.7592 194.468 75.7592 194.468L77.7124 201.118L76.9541 209.561C76.9541 209.561 85.955 212.072 89.3005 211.036C92.646 210.001 94.3983 210.717 94.3983 210.717L100.372 186.531L102.443 167.535C102.443 167.535 102.565 154.074 104.355 149.97C105.891 146.465 103.877 133.979 96.96 131.621C95.5167 131.13 94.7839 129.492 93.5508 128.594C92.4484 127.794 90.6482 125.905 91.5308 122.489C92.767 117.71 95.8735 110.184 95.8735 110.184L98.174 105.602C98.174 105.602 95.6728 109.649 91.0943 108.613H91.0529C86.3915 108.531 84.0178 102.971 87.1689 99.536L91.2918 95.0308C91.2918 95.0308 93.5636 92.9374 95.2363 93.4664L93.4043 92.6826C93.4043 92.6826 88.2458 94.5943 86.0761 98.3762L81.1694 103.872C81.1694 103.872 73.889 108.789 72.812 110.592C72.812 110.592 68.9504 109.158 69.3869 107.247C69.3869 107.247 69.0683 104.79 70.8143 102.939C71.1329 102.62 71.426 102.282 71.7192 101.942C73.29 100.106 77.6327 95.2379 79.1844 95.4959Z" fill="#565987"/>
<path opacity="0.1" d="M79.7834 128.314C79.7834 128.314 78.6268 136.719 79.503 138.43L79.7834 128.314Z" fill="black"/>
<path opacity="0.1" d="M80.5385 131.579L81.7747 136.4C81.7747 136.4 82.2113 133.453 80.5385 131.579Z" fill="black"/>
<path opacity="0.1" d="M73.2103 130.455C73.2103 130.455 75.6796 142.721 78.3879 146.427L73.2103 130.455Z" fill="black"/>
<path opacity="0.1" d="M90.6164 145.242C90.6164 145.242 86.3947 149.224 84.7602 148.934C84.7602 148.934 91.2536 149.215 93.2832 145.79C93.2832 145.799 91.9705 144.843 90.6164 145.242Z" fill="black"/>
<path opacity="0.1" d="M96.4694 144.923C96.4694 144.923 91.0529 148.864 89.9791 149.224C89.9791 149.224 95.8321 147.552 96.4694 144.923Z" fill="black"/>
<path opacity="0.1" d="M78.1489 115.648C78.1489 115.648 75.4406 119.115 74.0865 118.717C74.0865 118.717 77.3937 118.835 78.1489 115.648Z" fill="black"/>
<path opacity="0.1" d="M81.2172 120.109C81.2172 120.109 87.1116 112.105 89.8995 112.424C89.8995 112.424 83.2085 118.239 81.2172 120.109Z" fill="black"/>
<path opacity="0.1" d="M89.3802 117.197C89.3802 117.197 85.6364 119.074 86.0347 119.622C86.4329 120.17 89.3802 117.197 89.3802 117.197Z" fill="black"/>
<path opacity="0.1" d="M92.0884 178.655C92.0884 178.655 79.5827 185.945 78.4293 186.302C78.4293 186.302 80.5799 187.936 82.6095 187.14C84.6391 186.343 92.0884 178.655 92.0884 178.655Z" fill="black"/>
<path opacity="0.1" d="M81.6154 193.831C81.6154 193.831 76.5972 193.311 76.7947 194.946C76.9923 196.58 81.6154 193.831 81.6154 193.831Z" fill="black"/>
<path opacity="0.1" d="M87.8667 80.4317C87.8667 80.4317 87.7648 82.4709 87.7648 85.6507C85.3715 87.6119 82.1828 88.3063 79.1908 87.5177C78.7268 85.6133 78.112 83.7489 77.3524 81.9419L87.8667 80.4317Z" fill="black"/>
<path d="M81.6537 87.2151C86.9767 87.2151 91.2918 82.8999 91.2918 77.5769C91.2918 72.2539 86.9767 67.9387 81.6537 67.9387C76.3307 67.9387 72.0155 72.2539 72.0155 77.5769C72.0155 82.8999 76.3307 87.2151 81.6537 87.2151Z" fill="#FFB8B8"/>
<path opacity="0.1" d="M84.1803 83.4586C84.4511 87.3999 85.2795 91.9083 88.7015 93.8901C91.174 95.3207 94.29 94.9447 97.027 94.129C99.7639 93.3134 102.443 92.0963 105.292 91.9593C107.481 91.8541 109.644 92.3926 111.827 92.5296C114.009 92.6666 116.399 92.3257 117.957 90.7899C120.187 88.6042 119.779 84.6311 117.667 82.3338C115.555 80.0366 112.25 79.2018 109.122 79.2879C105.298 79.393 101.029 80.5623 98.0051 78.2428C95.9755 76.6816 95.2076 73.9733 93.4999 72.0648C90.6482 68.8786 78.0374 64.2778 75.3674 69.4713C74.1152 71.9023 79.8057 73.6388 81.1248 75.3975C83.2085 78.1727 83.9318 79.8199 84.1803 83.4586Z" fill="black"/>
<path d="M84.4766 83.1177C84.7506 87.0621 85.5759 91.5706 88.9978 93.5492C91.4703 94.9798 94.5864 94.6038 97.3233 93.7913C100.06 92.9789 102.74 91.7586 105.591 91.6216C107.777 91.5164 109.941 92.0517 112.126 92.1919C114.312 92.3321 116.695 91.988 118.253 90.4522C120.484 88.2633 120.076 84.2934 117.963 81.9961C115.851 79.6989 112.547 78.8641 109.421 78.9502C105.598 79.0521 101.325 80.2246 98.3014 77.9019C96.2718 76.3407 95.504 73.6356 93.7962 71.7239C90.9446 68.5377 78.3337 63.9401 75.6637 69.1336C74.4115 71.5614 80.102 73.2979 81.4243 75.0598C83.5048 77.8318 84.2281 79.4759 84.4766 83.1177Z" fill="#663D5B"/>
<path opacity="0.1" d="M72.8853 110.267C73.1845 107.723 74.5649 105.431 76.6737 103.978L72.8853 110.267Z" fill="black"/>
<path opacity="0.1" d="M109.023 160.175C108.993 160.488 108.917 160.794 108.797 161.083C108.379 162.334 107.877 163.555 107.293 164.738C108.143 164.665 108.844 163.995 109.204 163.224C109.519 162.431 109.693 161.589 109.717 160.736C109.749 160.47 109.756 160.201 109.74 159.933C109.717 159.685 109.558 158.735 109.147 158.904C108.816 159.044 109.029 159.924 109.023 160.175Z" fill="black"/>
<path opacity="0.1" d="M118.827 89.4549C117.266 90.9907 114.882 91.3348 112.697 91.1946C110.511 91.0544 108.338 90.5191 106.162 90.6275C103.294 90.7645 100.637 91.9816 97.8968 92.7972C95.1567 93.6129 92.0438 93.9889 89.5681 92.5583C86.1494 90.5765 85.321 86.068 85.0501 82.1267C84.8016 78.4881 84.0752 76.8409 81.9946 74.0657C80.7361 72.3866 75.5107 70.7298 76.1097 68.474C75.9366 68.6774 75.7869 68.8997 75.6637 69.1367C74.4115 71.5646 80.102 73.3011 81.4243 75.063C83.5048 77.835 84.2281 79.4854 84.4766 83.1208C84.7506 87.0653 85.5759 91.5737 88.9978 93.5524C91.4703 94.983 94.5864 94.607 97.3233 93.7945C100.06 92.982 102.74 91.7617 105.591 91.6247C107.777 91.5196 109.941 92.0549 112.126 92.1951C114.312 92.3352 116.695 91.9911 118.253 90.4554C118.696 90.0163 119.048 89.4945 119.289 88.9197C119.149 89.1097 118.994 89.2887 118.827 89.4549Z" fill="black"/>
<path d="M72.1939 118.427L71.0246 120.976L74.7429 120.233L72.1939 118.427Z" fill="#CC818C"/>
<path opacity="0.1" d="M72.1939 118.427L71.2317 120.976H71.0246L72.1939 118.427Z" fill="black"/>
<path opacity="0.1" d="M164.204 234.12C171.419 234.12 177.267 233.317 177.267 232.326C177.267 231.335 171.419 230.532 164.204 230.532C156.99 230.532 151.141 231.335 151.141 232.326C151.141 233.317 156.99 234.12 164.204 234.12Z" fill="#0091FF"/>
<path opacity="0.1" d="M214.243 239.192C221.458 239.192 227.306 238.389 227.306 237.398C227.306 236.408 221.458 235.605 214.243 235.605C207.028 235.605 201.18 236.408 201.18 237.398C201.18 238.389 207.028 239.192 214.243 239.192Z" fill="#0091FF"/>
<path opacity="0.1" d="M273.184 232.326C280.399 232.326 286.247 231.523 286.247 230.532C286.247 229.542 280.399 228.739 273.184 228.739C265.969 228.739 260.121 229.542 260.121 230.532C260.121 231.523 265.969 232.326 273.184 232.326Z" fill="#0091FF"/>
<path opacity="0.1" d="M194.215 253.119C199.342 253.119 203.499 252.548 203.499 251.845C203.499 251.141 199.342 250.57 194.215 250.57C189.087 250.57 184.93 251.141 184.93 251.845C184.93 252.548 189.087 253.119 194.215 253.119Z" fill="#0091FF"/>
<path opacity="0.1" d="M246.149 251.845C251.277 251.845 255.434 251.274 255.434 250.57C255.434 249.866 251.277 249.296 246.149 249.296C241.022 249.296 236.865 249.866 236.865 250.57C236.865 251.274 241.022 251.845 246.149 251.845Z" fill="#0091FF"/>
<path d="M214.527 236.997C214.527 236.997 196.206 176.938 217.394 152.882C233.242 134.887 251.235 137.04 259.292 139.264C263.512 140.388 267.026 143.309 268.902 147.252C271.718 153.331 271.212 163.183 251.327 174.707C218.031 193.984 215.96 220.429 215.96 220.429L214.527 236.997Z" fill="#0091FF"/>
<path d="M256.425 147.784C256.425 147.784 202.419 164.671 214.527 236.997" stroke="#565987"/>
<path d="M224.882 153.838C224.882 153.838 232.315 158.85 229.954 166.379" stroke="#565987"/>
<path d="M251.008 158.299C251.008 158.299 246.462 153.672 240.927 156.224" stroke="#565987"/>
<path d="M229.661 181.558C229.661 181.558 221.676 177.505 219.612 182.58" stroke="#565987"/>
<path d="M209.907 190.001C209.907 190.001 215.9 189.523 216.008 192.391" stroke="#565987"/>
<path d="M213.8 237.475C213.8 237.475 235.256 193.824 241.15 194.78C243.951 195.233 245.241 197.989 245.824 200.754C246.544 204.334 246.13 208.05 244.639 211.383C241.596 218.364 233.417 231.628 213.8 237.475Z" fill="#0091FF"/>
<path d="M240.975 203.064C240.975 203.064 218.455 235.723 214.103 237.156" stroke="#565987"/>
<path d="M243.046 208.162H237.789" stroke="#565987"/>
<path d="M236.75 220.11L228.511 220.464" stroke="#565987"/>
<path d="M231.735 210.552L232.63 214.844" stroke="#565987"/>
<path d="M222.973 223.615L223.132 227.515" stroke="#565987"/>
<path d="M214.437 237.475C214.437 237.475 192.982 193.824 187.087 194.78C184.287 195.233 182.996 197.989 182.413 200.754C181.683 204.331 182.086 208.046 183.567 211.383C186.609 218.364 194.788 231.628 214.437 237.475Z" fill="#0091FF"/>
<path d="M187.231 203.064C187.231 203.064 209.751 235.723 214.103 237.156" stroke="#565987"/>
<path d="M185.156 208.162H190.414" stroke="#565987"/>
<path d="M191.456 220.11L199.695 220.464" stroke="#565987"/>
<path d="M196.467 210.552L195.575 214.844" stroke="#565987"/>
<path d="M205.229 223.615L205.07 227.515" stroke="#565987"/>
<path d="M251.263 247.668C251.849 247.192 252.276 246.55 252.487 245.826C252.643 245.093 252.331 244.217 251.633 243.949C250.849 243.65 250.011 244.191 249.377 244.739C248.743 245.287 248.013 245.915 247.182 245.797C248.051 245.009 248.441 243.822 248.211 242.672C248.177 242.437 248.077 242.216 247.924 242.034C247.491 241.569 246.701 241.77 246.178 242.136C244.521 243.302 244.059 245.552 244.053 247.578C243.884 246.846 244.024 246.084 244.021 245.348C244.018 244.612 243.811 243.755 243.18 243.366C242.79 243.15 242.351 243.041 241.905 243.048C241.16 243.022 240.331 243.095 239.822 243.64C239.184 244.316 239.353 245.453 239.904 246.189C240.456 246.925 241.29 247.4 242.058 247.916C242.678 248.282 243.205 248.784 243.6 249.385C243.647 249.468 243.686 249.555 243.715 249.646H248.383C249.428 249.119 250.397 248.454 251.263 247.668Z" fill="#0091FF"/>
<path d="M169.512 230.089C170.097 229.613 170.523 228.969 170.733 228.245C170.892 227.512 170.58 226.652 169.879 226.368C169.095 226.068 168.26 226.61 167.623 227.161C166.986 227.713 166.259 228.334 165.431 228.219C166.299 227.426 166.687 226.236 166.454 225.084C166.418 224.849 166.319 224.629 166.167 224.447C165.73 223.982 164.943 224.179 164.421 224.545C162.764 225.712 162.302 227.961 162.292 229.987C162.127 229.258 162.267 228.496 162.264 227.757C162.261 227.018 162.054 226.164 161.419 225.772C161.028 225.562 160.589 225.458 160.145 225.473C159.403 225.444 158.571 225.517 158.064 226.062C157.427 226.741 157.596 227.875 158.144 228.611C158.692 229.347 159.53 229.822 160.301 230.338C160.918 230.706 161.444 231.208 161.84 231.807C161.888 231.89 161.926 231.979 161.955 232.071H166.626C167.672 231.543 168.643 230.876 169.512 230.089Z" fill="#0091FF"/>
<path d="M196.751 247.668C197.337 247.192 197.764 246.55 197.974 245.826C198.131 245.093 197.818 244.217 197.121 243.949C196.337 243.65 195.499 244.191 194.865 244.739C194.231 245.287 193.501 245.915 192.669 245.797C193.539 245.01 193.931 243.823 193.702 242.672C193.667 242.437 193.568 242.216 193.415 242.034C192.982 241.569 192.192 241.77 191.669 242.136C190.012 243.302 189.55 245.552 189.544 247.578C189.375 246.846 189.515 246.084 189.512 245.348C189.509 244.612 189.302 243.755 188.671 243.366C188.281 243.15 187.842 243.041 187.396 243.048C186.651 243.022 185.822 243.095 185.313 243.64C184.675 244.316 184.844 245.453 185.395 246.189C185.947 246.925 186.781 247.4 187.549 247.916C188.168 248.282 188.696 248.784 189.091 249.385C189.138 249.468 189.177 249.555 189.206 249.646H193.874C194.918 249.119 195.885 248.454 196.751 247.668Z" fill="#0091FF"/>
<path d="M274.019 212.132C274.019 212.132 275.771 214.42 273.213 217.867C270.654 221.315 268.545 224.24 269.389 226.393C269.389 226.393 273.251 219.976 276.399 219.887C279.547 219.798 277.489 215.991 274.019 212.132Z" fill="#0091FF"/>
<path opacity="0.1" d="M274.019 212.132C274.172 212.352 274.292 212.594 274.376 212.849C277.444 216.449 279.075 219.811 276.128 219.897C273.385 219.973 270.094 224.883 269.303 226.123C269.329 226.218 269.36 226.311 269.396 226.403C269.396 226.403 273.257 219.986 276.405 219.897C279.553 219.808 277.489 215.991 274.019 212.132Z" fill="black"/>
<path d="M277.285 215.048C277.285 215.854 277.195 216.507 277.084 216.507C276.972 216.507 276.886 215.844 276.886 215.048C276.886 214.251 276.998 214.624 277.109 214.624C277.221 214.624 277.285 214.251 277.285 215.048Z" fill="#FFD037"/>
<path d="M278.403 216.01C277.696 216.395 277.078 216.628 277.027 216.532C276.976 216.437 277.501 216.042 278.209 215.656C278.916 215.271 278.639 215.551 278.69 215.656C278.741 215.761 279.117 215.624 278.403 216.01Z" fill="#FFD037"/>
<path d="M264.779 212.132C264.779 212.132 263.027 214.42 265.585 217.867C268.144 221.315 270.253 224.24 269.408 226.393C269.408 226.393 265.55 219.976 262.399 219.887C259.248 219.798 261.332 215.991 264.779 212.132Z" fill="#0091FF"/>
<path opacity="0.1" d="M264.779 212.132C264.625 212.353 264.504 212.594 264.419 212.849C261.354 216.449 259.723 219.811 262.667 219.897C265.413 219.973 268.72 224.883 269.494 226.123C269.469 226.218 269.437 226.312 269.399 226.403C269.399 226.403 265.54 219.986 262.389 219.897C259.238 219.808 261.332 215.991 264.779 212.132Z" fill="black"/>
<path d="M261.532 215.048C261.532 215.854 261.625 216.507 261.736 216.507C261.848 216.507 261.937 215.854 261.937 215.048C261.937 214.241 261.825 214.624 261.714 214.624C261.602 214.624 261.532 214.251 261.532 215.048Z" fill="#FFD037"/>
<path d="M260.417 216.01C261.124 216.395 261.739 216.628 261.794 216.532C261.848 216.437 261.319 216.042 260.611 215.656C259.904 215.271 260.181 215.551 260.127 215.656C260.073 215.761 259.71 215.624 260.417 216.01Z" fill="#FFD037"/>
<path d="M262.09 226.104C262.09 226.104 266.984 225.954 268.462 224.902C269.941 223.851 275.991 222.599 276.358 224.284C276.724 225.97 283.711 232.661 278.186 232.705C272.662 232.75 265.349 231.845 263.877 230.947C262.405 230.048 262.09 226.104 262.09 226.104Z" fill="#A8A8A8"/>
<path opacity="0.2" d="M278.282 232.119C272.757 232.164 265.442 231.259 263.97 230.36C262.851 229.678 262.402 227.228 262.256 226.097H262.09C262.09 226.097 262.408 230.045 263.874 230.94C265.34 231.835 272.658 232.744 278.183 232.699C279.776 232.699 280.327 232.119 280.299 231.278C280.073 231.791 279.467 232.109 278.282 232.119Z" fill="black"/>
</svg>
