<svg xmlns="http://www.w3.org/2000/svg" xmlns:xlink="http://www.w3.org/1999/xlink" width="230" height="371" viewBox="0 0 230 371"><defs><clipPath id="a"><rect width="194" height="269" transform="translate(18 47)" fill="#fff" stroke="#cfcfcf" stroke-miterlimit="10" stroke-width="1"/></clipPath></defs><g fill="#fafafa" stroke="#e3e5e6" stroke-miterlimit="10" stroke-width="1"><rect width="230" height="371" rx="20" stroke="none"/><rect x="0.5" y="0.5" width="229" height="370" rx="19.5" fill="none"/></g><g transform="translate(18 47)" fill="#fff" stroke="#cfcfcf" stroke-miterlimit="10" stroke-width="1"><rect width="194" height="269" stroke="none"/><rect x="0.5" y="0.5" width="193" height="268" fill="none"/></g><circle cx="13.5" cy="13.5" r="13.5" transform="translate(101 330)" fill="none" stroke="#e3e5e6" stroke-miterlimit="10" stroke-width="3"/><g transform="translate(33 120)"><g transform="translate(0 21)"><g fill="#fff" stroke="#e3e5e6" stroke-miterlimit="10" stroke-width="1"><rect width="164" height="30" rx="2" stroke="none"/><rect x="0.5" y="0.5" width="163" height="29" rx="1.5" fill="none"/></g></g><text transform="translate(78 40)" fill="#b1b2b2" font-size="14" font-family="ArialMT, Arial"><tspan x="-71.032" y="0" xml:space="preserve">+7  ( ____ )_________</tspan></text><g transform="translate(0 61)"><g fill="#fff" stroke="#e3e5e6" stroke-miterlimit="10" stroke-width="1"><rect width="164" height="30" rx="2" stroke="none"/><rect x="0.5" y="0.5" width="163" height="29" rx="1.5" fill="none"/></g></g><g transform="translate(22)"><rect width="120" height="6" rx="2" fill="#e3e5e6"/></g><g transform="translate(0 105)"><rect width="76" height="26" rx="2" fill="#e3e5e6"/></g><g transform="translate(88 105)"><rect width="76" height="26" rx="2" fill="#cacccc"/></g></g><text transform="translate(114.5 29)" fill="#b1b2b2" font-size="14" font-family="ArialMT, Arial"><tspan x="-62.108" y="0">Вход пользователя</tspan></text><text transform="translate(100.5 199)" fill="#b1b2b2" font-size="14" font-family="ArialMT, Arial"><tspan x="-57.764" y="0">код из SMS: * * * *</tspan></text></svg>