<svg xmlns="http://www.w3.org/2000/svg" xmlns:xlink="http://www.w3.org/1999/xlink" width="230" height="371" viewBox="0 0 230 371"><defs><clipPath id="a"><rect width="194" height="269" transform="translate(18 47)" fill="#fff" stroke="#cfcfcf" stroke-miterlimit="10" stroke-width="1"/></clipPath><clipPath id="b"><rect width="192" height="267" fill="#4c4c4d"/></clipPath><clipPath id="c"><rect width="20" height="20" rx="2" fill="#656666"/></clipPath></defs><g fill="#fafafa" stroke="#e3e5e6" stroke-miterlimit="10" stroke-width="1"><rect width="230" height="371" rx="20" stroke="none"/><rect x="0.5" y="0.5" width="229" height="370" rx="19.5" fill="none"/></g><g transform="translate(18 47)" fill="#fff" stroke="#cfcfcf" stroke-miterlimit="10" stroke-width="1"><rect width="194" height="269" stroke="none"/><rect x="0.5" y="0.5" width="193" height="268" fill="none"/></g><circle cx="13.5" cy="13.5" r="13.5" transform="translate(101 330)" fill="none" stroke="#e3e5e6" stroke-miterlimit="10" stroke-width="3"/><g transform="translate(19 48)"><rect width="192" height="267" fill="#4c4c4d"/><g clip-path="url(#b)"><g transform="translate(10 4)"><g transform="translate(0 2)"><circle cx="2.5" cy="2.5" r="2.5" fill="#979999"/><circle cx="2.5" cy="2.5" r="2.5" transform="translate(6)" fill="#979999"/><g transform="translate(18)" fill="#4c4c4d" stroke="#979797" stroke-miterlimit="10" stroke-width="1"><circle cx="2.5" cy="2.5" r="2.5" stroke="none"/><circle cx="2.5" cy="2.5" r="2" fill="none"/></g><circle cx="2.5" cy="2.5" r="2.5" transform="translate(12)" fill="#979999"/></g><rect width="23" height="3" rx="1.5" transform="translate(75 3)" fill="#e3e5e6"/><g transform="translate(155)"><g fill="#4c4c4d" stroke="#979797" stroke-miterlimit="10" stroke-width="1"><rect width="14" height="8" stroke="none"/><rect x="0.5" y="0.5" width="13" height="7" fill="none"/></g><rect width="7" height="4" transform="translate(2 2)" fill="#979999"/><rect width="2" height="4" transform="translate(14 2)" fill="#979999"/></g></g><text transform="translate(52 73)" fill="#f0f2f2" font-size="48" font-family="HelveticaNeue-UltraLight, Helvetica Neue" font-weight="100"><tspan x="0" y="0">5</tspan><tspan y="0" font-size="18" font-family="Helvetica" font-weight="400">: </tspan><tspan y="0">00</tspan></text><text transform="translate(60 88)" fill="#f0f2f2" font-size="11" font-family="HelveticaNeue-Light, Helvetica Neue" font-weight="300" letter-spacing="0.045em"><tspan x="0" y="0">Пятница, 5 фев</tspan></text><g transform="translate(65 230)"><rect width="80" height="8" rx="2" fill="#656666"/></g><g transform="translate(26 119)"><rect width="20" height="20" rx="2" fill="#656666"/><g clip-path="url(#c)"><path d="M5,0l5,7H0Z" transform="translate(1 13)" fill="#979999"/><path d="M7.5,0,15,10H0Z" transform="translate(5 10)" fill="#979999"/><circle cx="1.5" cy="1.5" r="1.5" transform="translate(5 4)" fill="#979999"/></g><rect width="112" height="3" rx="1.5" transform="translate(30 13)" fill="#656666"/><rect width="112" height="3" rx="1.5" transform="translate(30 23)" fill="#656666"/><rect width="94" height="6" rx="2" transform="translate(30)" fill="#656666"/></g><g transform="translate(26 161)"><rect width="20" height="20" rx="2" fill="#656666"/><g clip-path="url(#c)"><path d="M5,0l5,7H0Z" transform="translate(1 13)" fill="#979999"/><path d="M7.5,0,15,10H0Z" transform="translate(5 10)" fill="#979999"/><circle cx="1.5" cy="1.5" r="1.5" transform="translate(5 4)" fill="#979999"/></g><rect width="112" height="3" rx="1.5" transform="translate(30 13)" fill="#656666"/><rect width="112" height="3" rx="1.5" transform="translate(30 23)" fill="#656666"/><rect width="94" height="6" rx="2" transform="translate(30)" fill="#656666"/></g></g></g><text transform="translate(115 25)" fill="#b1b2b2" font-size="14" font-family="Helvetica"><tspan x="-85.709" y="0"></tspan></text></svg>