<svg xmlns="http://www.w3.org/2000/svg" xmlns:xlink="http://www.w3.org/1999/xlink" width="230" height="371" viewBox="0 0 230 371"><defs><clipPath id="a"><rect width="194" height="269" transform="translate(18 47)" fill="#fff" stroke="#cfcfcf" stroke-miterlimit="10" stroke-width="1"/></clipPath><clipPath id="b"><rect width="89" height="86" rx="2" fill="#cacccc"/></clipPath></defs><g fill="#fafafa" stroke="#e3e5e6" stroke-miterlimit="10" stroke-width="1"><rect width="230" height="371" rx="20" stroke="none"/><rect x="0.5" y="0.5" width="229" height="370" rx="19.5" fill="none"/></g><g transform="translate(18 47)" fill="#fff" stroke="#cfcfcf" stroke-miterlimit="10" stroke-width="1"><rect width="194" height="269" stroke="none"/><rect x="0.5" y="0.5" width="193" height="268" fill="none"/></g><circle cx="13.5" cy="13.5" r="13.5" transform="translate(101 330)" fill="none" stroke="#e3e5e6" stroke-miterlimit="10" stroke-width="3"/><g transform="translate(33 67)"><g transform="translate(22 124)"><rect width="120" height="3" rx="1.5" fill="#f0f2f2"/><rect width="120" height="3" rx="1.5" transform="translate(0 10)" fill="#f0f2f2"/><rect width="120" height="3" rx="1.5" transform="translate(0 20)" fill="#f0f2f2"/></g><g transform="translate(38)"><rect width="89" height="86" rx="2" fill="#cacccc"/><g clip-path="url(#b)"><path d="M21.5,0,43,30H0Z" transform="translate(0 57)" fill="#f0f2f2"/><path d="M32,0,64,45H0Z" transform="translate(21 42)" fill="#e3e5e6"/><circle cx="7" cy="7" r="7" transform="translate(21 23)" fill="#e3e5e6"/></g></g><g transform="translate(22 109)"><rect width="120" height="6" rx="2" fill="#e3e5e6"/></g><g transform="translate(0 164)"><rect width="76" height="26" rx="2" fill="#e3e5e6"/></g><g transform="translate(57 222)"><circle cx="6" cy="6" r="6" fill="#979999"/><circle cx="6" cy="6" r="6" transform="translate(19)" fill="#e3e5e6"/><circle cx="6" cy="6" r="6" transform="translate(38)" fill="#e3e5e6"/></g><g transform="translate(87 164)"><rect width="76" height="26" rx="2" fill="#cacccc"/></g></g><text transform="translate(114.5 26)" fill="#b1b2b2" font-size="14" font-family="ArialMT, Arial"><tspan x="-41.491" y="0">Приветствие</tspan></text></svg>