<svg id="svg" version="1.1" xmlns="http://www.w3.org/2000/svg" xmlns:xlink="http://www.w3.org/1999/xlink" width="400" height="400" viewBox="0, 0, 400,400"><g id="svgg"><path id="path0" d="M100.326 25.007 C 100.212 25.121,98.967 25.275,97.560 25.350 C 92.726 25.607,88.372 26.121,88.163 26.460 C 88.047 26.647,87.164 26.800,86.200 26.800 C 85.236 26.800,84.336 26.980,84.200 27.200 C 84.064 27.420,83.254 27.600,82.400 27.600 C 81.546 27.600,80.736 27.780,80.600 28.000 C 80.464 28.220,79.834 28.400,79.200 28.400 C 78.566 28.400,77.936 28.580,77.800 28.800 C 77.664 29.020,77.113 29.200,76.576 29.200 C 76.039 29.200,75.600 29.380,75.600 29.600 C 75.600 29.820,75.060 30.000,74.400 30.000 C 73.740 30.000,73.200 30.180,73.200 30.400 C 73.200 30.620,72.761 30.800,72.224 30.800 C 71.687 30.800,71.136 30.980,71.000 31.200 C 70.864 31.420,70.403 31.600,69.976 31.600 C 69.549 31.600,69.200 31.780,69.200 32.000 C 69.200 32.220,68.840 32.400,68.400 32.400 C 67.960 32.400,67.600 32.580,67.600 32.800 C 67.600 33.020,67.240 33.200,66.800 33.200 C 66.360 33.200,66.000 33.380,66.000 33.600 C 66.000 33.820,65.640 34.000,65.200 34.000 C 64.760 34.000,64.400 34.180,64.400 34.400 C 64.400 34.620,64.040 34.800,63.600 34.800 C 63.160 34.800,62.800 34.980,62.800 35.200 C 62.800 35.420,62.530 35.600,62.200 35.600 C 61.870 35.600,61.600 35.780,61.600 36.000 C 61.600 36.220,61.330 36.400,61.000 36.400 C 60.670 36.400,60.400 36.580,60.400 36.800 C 60.400 37.020,60.170 37.200,59.888 37.200 C 59.607 37.200,59.117 37.560,58.800 38.000 C 58.483 38.440,57.975 38.800,57.672 38.800 C 57.369 38.800,56.644 39.295,56.060 39.900 C 55.477 40.505,54.471 41.270,53.825 41.600 C 52.297 42.380,42.380 52.297,41.600 53.825 C 41.270 54.471,40.505 55.477,39.900 56.060 C 39.295 56.644,38.800 57.369,38.800 57.672 C 38.800 57.975,38.440 58.483,38.000 58.800 C 37.560 59.117,37.200 59.592,37.200 59.855 C 37.200 60.118,37.065 60.393,36.900 60.467 C 36.524 60.634,35.225 62.764,34.929 63.700 C 34.807 64.085,34.548 64.400,34.353 64.400 C 34.159 64.400,34.000 64.760,34.000 65.200 C 34.000 65.640,33.820 66.000,33.600 66.000 C 33.380 66.000,33.200 66.360,33.200 66.800 C 33.200 67.240,33.020 67.600,32.800 67.600 C 32.580 67.600,32.400 67.960,32.400 68.400 C 32.400 68.840,32.220 69.200,32.000 69.200 C 31.780 69.200,31.600 69.549,31.600 69.976 C 31.600 70.403,31.420 70.864,31.200 71.000 C 30.980 71.136,30.800 71.687,30.800 72.224 C 30.800 72.761,30.620 73.200,30.400 73.200 C 30.180 73.200,30.000 73.639,30.000 74.176 C 30.000 74.713,29.820 75.264,29.600 75.400 C 29.380 75.536,29.200 76.076,29.200 76.600 C 29.200 77.124,29.020 77.664,28.800 77.800 C 28.580 77.936,28.400 78.566,28.400 79.200 C 28.400 79.834,28.239 80.452,28.042 80.574 C 27.845 80.695,27.585 81.471,27.463 82.297 C 27.341 83.124,27.044 84.790,26.803 86.000 C 26.562 87.210,26.284 89.010,26.184 90.000 C 26.085 90.990,25.814 92.790,25.583 94.000 C 25.352 95.210,25.053 99.845,24.920 104.300 C 24.786 108.755,24.524 112.400,24.338 112.400 C 24.152 112.400,24.000 113.030,24.000 113.800 C 24.000 114.570,24.178 115.200,24.396 115.200 C 24.655 115.200,24.842 147.254,24.939 208.300 C 25.104 312.757,25.033 302.532,25.621 306.078 C 25.865 307.551,26.142 309.441,26.237 310.278 C 26.710 314.468,26.875 315.464,27.214 316.200 C 27.416 316.640,27.649 317.450,27.730 318.000 C 27.811 318.550,27.973 319.270,28.091 319.600 C 28.209 319.930,28.527 321.010,28.798 322.000 C 29.069 322.990,29.446 324.160,29.634 324.600 C 29.823 325.040,30.027 325.670,30.089 326.000 C 30.150 326.330,30.344 326.706,30.520 326.836 C 30.696 326.966,30.869 327.461,30.905 327.936 C 30.941 328.411,31.112 328.800,31.285 328.800 C 31.458 328.800,31.600 329.065,31.600 329.388 C 31.600 329.711,31.960 330.617,32.400 331.400 C 32.840 332.183,33.200 333.089,33.200 333.412 C 33.200 333.735,33.335 334.001,33.500 334.003 C 33.859 334.007,34.800 335.944,34.800 336.680 C 34.800 336.966,34.980 337.200,35.200 337.200 C 35.420 337.200,35.600 337.470,35.600 337.800 C 35.600 338.130,35.780 338.400,36.000 338.400 C 36.220 338.400,36.400 338.670,36.400 339.000 C 36.400 339.330,36.580 339.600,36.800 339.600 C 37.020 339.600,37.200 339.830,37.200 340.112 C 37.200 340.393,37.560 340.883,38.000 341.200 C 38.440 341.517,38.800 342.025,38.800 342.328 C 38.800 342.631,39.340 343.383,40.000 344.000 C 40.660 344.617,41.200 345.309,41.200 345.538 C 41.200 345.767,41.559 346.206,41.997 346.513 C 42.436 346.820,42.697 347.169,42.578 347.289 C 42.459 347.408,44.440 349.590,46.981 352.138 C 49.521 354.686,51.600 356.647,51.600 356.496 C 51.600 356.345,51.882 356.625,52.227 357.118 C 52.572 357.610,53.022 357.910,53.227 357.783 C 53.432 357.656,53.600 357.749,53.600 357.989 C 53.600 358.229,53.915 358.543,54.300 358.688 C 54.685 358.833,55.477 359.457,56.060 360.075 C 56.644 360.694,57.326 361.200,57.577 361.200 C 58.031 361.200,58.557 361.565,60.029 362.900 C 60.453 363.285,60.987 363.600,61.216 363.600 C 61.690 363.600,64.131 365.245,64.333 365.700 C 64.407 365.865,64.812 366.000,65.233 366.000 C 65.655 366.000,66.000 366.180,66.000 366.400 C 66.000 366.620,66.360 366.800,66.800 366.800 C 67.240 366.800,67.600 366.980,67.600 367.200 C 67.600 367.420,67.960 367.600,68.400 367.600 C 68.840 367.600,69.200 367.780,69.200 368.000 C 69.200 368.220,69.549 368.400,69.976 368.400 C 70.403 368.400,70.864 368.580,71.000 368.800 C 71.136 369.020,71.676 369.200,72.200 369.200 C 72.724 369.200,73.264 369.380,73.400 369.600 C 73.536 369.820,73.999 370.000,74.429 370.000 C 74.859 370.000,75.568 370.180,76.005 370.400 C 76.442 370.620,77.158 370.980,77.595 371.200 C 78.032 371.420,78.921 371.600,79.571 371.600 C 80.221 371.600,80.864 371.780,81.000 372.000 C 81.136 372.220,81.856 372.400,82.600 372.400 C 83.344 372.400,84.064 372.580,84.200 372.800 C 84.336 373.020,85.236 373.200,86.200 373.200 C 87.164 373.200,88.046 373.351,88.160 373.536 C 88.275 373.721,89.230 373.906,90.284 373.948 C 92.549 374.038,93.261 374.141,93.800 374.456 C 94.656 374.956,103.337 374.999,200.000 374.981 C 302.012 374.962,305.163 374.944,306.674 374.371 C 307.155 374.189,308.415 374.002,309.474 373.957 C 310.533 373.912,311.604 373.718,311.854 373.527 C 312.103 373.336,313.003 373.159,313.854 373.134 C 314.704 373.109,315.589 372.942,315.819 372.762 C 316.050 372.583,316.918 372.390,317.747 372.334 C 318.577 372.278,319.344 372.090,319.452 371.916 C 319.559 371.742,320.166 371.600,320.800 371.600 C 321.434 371.600,322.064 371.420,322.200 371.200 C 322.336 370.980,322.876 370.800,323.400 370.800 C 323.924 370.800,324.464 370.620,324.600 370.400 C 324.736 370.180,325.287 370.000,325.824 370.000 C 326.361 370.000,326.800 369.820,326.800 369.600 C 326.800 369.380,327.250 369.200,327.800 369.200 C 328.350 369.200,328.800 369.020,328.800 368.800 C 328.800 368.580,329.250 368.400,329.800 368.400 C 330.350 368.400,330.800 368.220,330.800 368.000 C 330.800 367.780,331.160 367.600,331.600 367.600 C 332.040 367.600,332.401 367.465,332.403 367.300 C 332.406 366.989,334.303 366.000,334.896 366.000 C 335.082 366.000,335.620 365.640,336.092 365.200 C 336.564 364.760,337.277 364.400,337.675 364.400 C 338.074 364.400,338.400 364.220,338.400 364.000 C 338.400 363.780,338.681 363.600,339.024 363.600 C 339.367 363.600,339.536 363.420,339.400 363.200 C 339.264 362.980,339.433 362.800,339.776 362.800 C 340.119 362.800,340.400 362.620,340.400 362.400 C 340.400 362.180,340.670 362.000,341.000 362.000 C 341.330 362.000,341.600 361.820,341.600 361.600 C 341.600 361.380,341.888 361.200,342.240 361.200 C 342.591 361.200,343.356 360.705,343.940 360.100 C 344.523 359.495,345.522 358.730,346.160 358.400 C 347.209 357.858,357.127 348.400,356.647 348.400 C 356.536 348.400,356.975 347.820,357.623 347.111 C 358.270 346.402,358.800 345.664,358.800 345.471 C 358.800 345.279,359.340 344.617,360.000 344.000 C 360.660 343.383,361.200 342.591,361.200 342.240 C 361.200 341.888,361.380 341.600,361.600 341.600 C 361.820 341.600,362.001 341.375,362.002 341.100 C 362.003 340.825,362.543 340.025,363.202 339.322 C 363.861 338.619,364.400 337.854,364.400 337.622 C 364.400 337.390,364.580 337.200,364.800 337.200 C 365.020 337.200,365.200 336.840,365.200 336.400 C 365.200 335.960,365.380 335.600,365.600 335.600 C 365.820 335.600,366.000 335.240,366.000 334.800 C 366.000 334.360,366.180 334.000,366.400 334.000 C 366.620 334.000,366.800 333.640,366.800 333.200 C 366.800 332.760,366.980 332.400,367.200 332.400 C 367.420 332.400,367.600 332.040,367.600 331.600 C 367.600 331.160,367.780 330.800,368.000 330.800 C 368.220 330.800,368.400 330.451,368.400 330.024 C 368.400 329.597,368.580 329.136,368.800 329.000 C 369.020 328.864,369.200 328.324,369.200 327.800 C 369.200 327.276,369.380 326.736,369.600 326.600 C 369.820 326.464,370.000 325.913,370.000 325.376 C 370.000 324.839,370.180 324.400,370.400 324.400 C 370.620 324.400,370.800 323.961,370.800 323.424 C 370.800 322.887,370.980 322.336,371.200 322.200 C 371.420 322.064,371.600 321.434,371.600 320.800 C 371.600 320.166,371.761 319.548,371.958 319.426 C 372.155 319.305,372.415 318.529,372.537 317.703 C 372.659 316.876,372.956 315.210,373.197 314.000 C 373.841 310.767,374.460 306.555,374.725 303.600 C 374.853 302.170,375.014 260.237,375.083 210.416 C 375.165 151.385,375.346 119.694,375.604 119.436 C 376.085 118.955,376.138 111.732,375.663 111.439 C 375.478 111.324,375.202 107.330,375.049 102.563 C 374.897 97.796,374.619 93.604,374.431 93.248 C 374.243 92.892,373.978 91.610,373.841 90.400 C 373.216 84.878,373.101 84.177,372.761 83.820 C 372.563 83.611,372.400 82.994,372.400 82.448 C 372.400 81.426,371.768 79.127,371.151 77.905 C 370.958 77.523,370.800 76.859,370.800 76.429 C 370.800 75.999,370.620 75.536,370.400 75.400 C 370.180 75.264,370.000 74.713,370.000 74.176 C 370.000 73.639,369.820 73.200,369.600 73.200 C 369.380 73.200,369.200 72.761,369.200 72.224 C 369.200 71.687,369.020 71.136,368.800 71.000 C 368.580 70.864,368.400 70.403,368.400 69.976 C 368.400 69.549,368.220 69.200,368.000 69.200 C 367.780 69.200,367.600 68.840,367.600 68.400 C 367.600 67.960,367.420 67.600,367.200 67.600 C 366.980 67.600,366.800 67.240,366.800 66.800 C 366.800 66.360,366.620 66.000,366.400 66.000 C 366.180 66.000,366.000 65.640,366.000 65.200 C 366.000 64.760,365.820 64.400,365.600 64.400 C 365.380 64.400,365.200 64.040,365.200 63.600 C 365.200 63.160,365.020 62.800,364.800 62.800 C 364.580 62.800,364.400 62.530,364.400 62.200 C 364.400 61.870,364.220 61.600,364.000 61.600 C 363.780 61.600,363.600 61.330,363.600 61.000 C 363.600 60.670,363.420 60.400,363.200 60.400 C 362.980 60.400,362.800 60.170,362.800 59.888 C 362.800 59.607,362.440 59.117,362.000 58.800 C 361.560 58.483,361.200 57.975,361.200 57.672 C 361.200 57.369,360.705 56.644,360.100 56.060 C 359.495 55.477,358.730 54.475,358.400 53.834 C 357.472 52.030,347.289 42.000,346.386 42.000 C 346.139 42.000,345.246 41.280,344.400 40.400 C 343.554 39.520,342.618 38.800,342.320 38.800 C 342.021 38.800,341.517 38.440,341.200 38.000 C 340.883 37.560,340.393 37.200,340.112 37.200 C 339.830 37.200,339.600 37.020,339.600 36.800 C 339.600 36.580,339.322 36.400,338.983 36.400 C 338.644 36.400,337.980 36.040,337.508 35.600 C 337.036 35.160,336.413 34.800,336.125 34.800 C 335.836 34.800,335.600 34.620,335.600 34.400 C 335.600 34.180,335.240 34.000,334.800 34.000 C 334.360 34.000,334.000 33.820,334.000 33.600 C 334.000 33.380,333.640 33.200,333.200 33.200 C 332.760 33.200,332.400 33.020,332.400 32.800 C 332.400 32.580,332.040 32.400,331.600 32.400 C 331.160 32.400,330.800 32.220,330.800 32.000 C 330.800 31.780,330.451 31.600,330.024 31.600 C 329.597 31.600,329.136 31.420,329.000 31.200 C 328.864 30.980,328.313 30.800,327.776 30.800 C 327.239 30.800,326.800 30.620,326.800 30.400 C 326.800 30.180,326.361 30.000,325.824 30.000 C 325.287 30.000,324.736 29.820,324.600 29.600 C 324.464 29.380,323.924 29.200,323.400 29.200 C 322.876 29.200,322.336 29.020,322.200 28.800 C 322.064 28.580,321.344 28.400,320.600 28.400 C 319.856 28.400,319.136 28.220,319.000 28.000 C 318.864 27.780,318.144 27.600,317.400 27.600 C 316.656 27.600,315.936 27.420,315.800 27.200 C 315.664 26.980,314.764 26.800,313.800 26.800 C 312.836 26.800,311.952 26.646,311.836 26.459 C 311.720 26.271,310.315 25.997,308.713 25.849 C 307.111 25.702,304.180 25.418,302.200 25.219 C 298.466 24.843,100.698 24.636,100.326 25.007 M211.600 83.014 C 221.836 85.370,230.331 89.784,236.297 95.846 C 238.885 98.475,238.303 98.543,241.888 95.195 C 260.938 77.404,289.834 78.220,307.619 97.050 C 317.839 107.871,322.891 125.721,319.492 139.000 C 319.154 140.320,318.649 142.480,318.370 143.800 C 317.249 149.102,313.891 157.434,310.570 163.154 C 309.414 165.145,305.590 170.897,305.221 171.200 C 305.087 171.310,303.790 172.930,302.338 174.800 C 298.931 179.188,290.329 187.815,284.654 192.535 C 278.008 198.062,277.121 198.747,270.600 203.379 C 267.300 205.724,264.297 207.890,263.927 208.194 C 263.557 208.497,261.397 210.005,259.127 211.545 C 250.948 217.092,242.420 223.155,241.600 224.005 C 241.490 224.120,240.808 224.700,240.084 225.294 L 238.768 226.376 234.884 223.336 C 232.748 221.664,228.488 218.565,225.417 216.448 C 222.346 214.332,219.442 212.330,218.964 212.000 C 218.486 211.670,216.679 210.425,214.947 209.232 C 213.216 208.040,211.710 206.953,211.600 206.817 C 211.490 206.680,209.870 205.510,208.000 204.216 C 204.739 201.960,196.416 195.726,196.000 195.228 C 195.890 195.097,194.810 194.183,193.600 193.199 C 177.150 179.814,164.833 163.235,160.317 148.400 C 157.869 140.357,156.708 133.162,156.960 127.600 C 157.236 121.486,158.278 117.246,161.236 110.200 C 164.311 102.875,169.267 96.675,176.173 91.514 C 181.694 87.388,187.251 85.049,197.200 82.661 C 200.476 81.875,207.389 82.044,211.600 83.014 " stroke="none" fill="#f3f2f2" fill-rule="evenodd"></path><path id="path1" d="M158.800 136.776 C 158.800 137.423,158.980 138.064,159.200 138.200 C 159.420 138.336,159.600 139.506,159.600 140.800 C 159.600 142.094,159.780 143.264,160.000 143.400 C 160.220 143.536,160.400 144.346,160.400 145.200 C 160.400 146.054,160.580 146.864,160.800 147.000 C 161.020 147.136,161.200 147.599,161.200 148.029 C 161.200 148.459,161.366 149.123,161.568 149.505 C 161.770 149.887,162.338 151.280,162.830 152.600 C 167.906 166.223,177.574 178.549,194.832 193.397 C 198.629 196.664,209.384 204.590,219.000 211.208 C 228.508 217.752,231.677 220.009,235.118 222.688 C 236.943 224.109,238.653 225.186,238.918 225.081 C 239.183 224.976,241.654 223.205,244.409 221.145 C 247.163 219.085,251.803 215.780,254.720 213.800 C 262.949 208.214,274.240 200.110,278.370 196.827 C 302.431 177.697,314.585 160.238,317.960 139.954 C 318.202 138.499,318.400 137.104,318.400 136.854 C 318.400 136.261,313.916 136.244,313.325 136.835 C 313.012 137.148,312.815 137.148,312.622 136.835 C 312.253 136.238,310.520 136.286,310.233 136.900 C 310.062 137.268,309.942 137.277,309.779 136.936 C 309.614 136.590,301.072 136.452,276.279 136.395 C 224.342 136.275,218.635 136.223,218.082 135.866 C 217.780 135.670,217.323 135.732,216.982 136.015 C 216.531 136.389,216.271 136.391,215.826 136.021 C 215.407 135.674,215.034 135.661,214.452 135.972 C 213.538 136.461,210.984 136.494,209.800 136.031 C 209.358 135.859,208.710 135.900,208.352 136.123 C 207.915 136.396,206.876 136.391,205.152 136.109 C 203.547 135.846,202.426 135.831,202.131 136.069 C 201.830 136.311,201.371 136.264,200.847 135.936 C 200.219 135.544,199.651 135.528,198.388 135.865 C 197.437 136.119,196.167 136.173,195.371 135.993 C 194.599 135.819,193.897 135.843,193.770 136.048 C 193.646 136.249,193.380 136.311,193.179 136.187 C 192.384 135.696,186.277 135.604,185.709 136.075 C 185.269 136.441,185.070 136.437,184.835 136.056 C 184.600 135.677,183.923 135.661,181.881 135.987 C 180.295 136.240,178.542 136.276,177.516 136.075 C 175.468 135.674,162.381 135.717,161.719 136.127 C 161.464 136.284,161.142 136.230,161.004 136.007 C 160.389 135.012,158.800 135.567,158.800 136.776 " stroke="none" fill="#fc3546" fill-rule="evenodd"></path><path id="path2" d="M200.200 83.226 C 172.430 86.201,154.102 109.837,158.387 137.148 C 159.243 142.607,159.600 143.591,159.600 140.490 C 159.600 139.367,159.420 138.336,159.200 138.200 C 158.295 137.641,158.747 135.600,159.776 135.600 C 160.313 135.600,160.866 135.783,161.004 136.007 C 161.142 136.230,161.464 136.284,161.719 136.127 C 162.381 135.717,175.468 135.674,177.516 136.075 C 178.542 136.276,180.295 136.240,181.881 135.987 C 183.923 135.661,184.600 135.677,184.835 136.056 C 185.070 136.437,185.269 136.441,185.709 136.075 C 186.277 135.604,192.384 135.696,193.179 136.187 C 193.380 136.311,193.646 136.249,193.770 136.048 C 193.897 135.843,194.599 135.819,195.371 135.993 C 196.167 136.173,197.437 136.119,198.388 135.865 C 199.651 135.528,200.219 135.544,200.847 135.936 C 201.371 136.264,201.830 136.311,202.131 136.069 C 202.426 135.831,203.547 135.846,205.152 136.109 C 206.876 136.391,207.915 136.396,208.352 136.123 C 208.710 135.900,209.358 135.859,209.800 136.031 C 210.984 136.494,213.538 136.461,214.452 135.972 C 215.034 135.661,215.407 135.674,215.826 136.021 C 216.271 136.391,216.531 136.389,216.982 136.015 C 217.323 135.732,217.780 135.670,218.082 135.866 C 218.635 136.223,224.342 136.275,276.279 136.395 C 301.072 136.452,309.614 136.590,309.779 136.936 C 309.942 137.277,310.062 137.268,310.233 136.900 C 310.520 136.285,312.083 136.243,312.675 136.835 C 312.988 137.148,313.185 137.148,313.378 136.835 C 313.745 136.243,318.400 136.260,318.400 136.854 C 318.400 138.785,316.718 146.551,315.589 149.832 C 314.750 152.270,314.611 152.979,315.162 152.000 C 318.745 145.641,320.665 129.411,318.866 120.684 C 317.548 114.288,313.249 103.965,311.251 102.400 C 311.110 102.290,310.458 101.480,309.802 100.600 C 293.916 79.300,260.350 77.386,241.326 96.695 C 238.715 99.345,238.848 99.362,235.214 95.900 C 231.624 92.478,230.812 91.817,228.864 90.726 C 228.059 90.275,226.950 89.599,226.400 89.223 C 220.849 85.431,207.704 82.422,200.200 83.226 M159.606 143.876 C 159.609 144.274,159.787 144.870,160.000 145.200 C 160.303 145.669,160.389 145.566,160.394 144.724 C 160.397 144.132,160.220 143.536,160.000 143.400 C 159.780 143.264,159.603 143.478,159.606 143.876 M162.251 152.000 C 162.598 153.361,164.880 158.454,165.061 158.272 C 165.190 158.144,163.844 154.886,162.472 152.000 L 161.996 151.000 162.251 152.000 M313.867 154.467 C 313.505 155.388,313.274 156.207,313.354 156.288 C 313.434 156.368,313.800 155.683,314.167 154.767 C 314.533 153.850,314.764 153.031,314.679 152.946 C 314.594 152.861,314.229 153.545,313.867 154.467 M166.325 161.000 C 166.991 162.320,167.825 163.760,168.178 164.200 C 168.532 164.640,168.158 163.740,167.347 162.200 C 165.511 158.712,164.680 157.736,166.325 161.000 M303.600 172.000 C 302.903 172.880,302.423 173.600,302.533 173.600 C 302.643 173.600,303.303 172.880,304.000 172.000 C 304.697 171.120,305.177 170.400,305.067 170.400 C 304.957 170.400,304.297 171.120,303.600 172.000 M180.600 180.400 C 181.683 181.500,182.660 182.400,182.770 182.400 C 182.880 182.400,182.083 181.500,181.000 180.400 C 179.917 179.300,178.940 178.400,178.830 178.400 C 178.720 178.400,179.517 179.300,180.600 180.400 M293.789 183.300 L 291.000 186.200 293.900 183.411 C 295.495 181.877,296.800 180.572,296.800 180.511 C 296.800 180.217,296.380 180.606,293.789 183.300 M186.600 186.400 C 187.683 187.500,188.660 188.400,188.770 188.400 C 188.880 188.400,188.083 187.500,187.000 186.400 C 185.917 185.300,184.940 184.400,184.830 184.400 C 184.720 184.400,185.517 185.300,186.600 186.400 " stroke="none" fill="#fc548f" fill-rule="evenodd"></path><path id="path3" d="M235.800 96.400 C 237.106 97.720,238.265 98.800,238.375 98.800 C 238.485 98.800,237.506 97.720,236.200 96.400 C 234.894 95.080,233.735 94.000,233.625 94.000 C 233.515 94.000,234.494 95.080,235.800 96.400 M157.457 124.700 C 157.133 126.661,157.171 132.179,157.523 134.158 C 157.680 135.043,157.800 133.010,157.800 129.458 C 157.800 122.524,157.805 122.593,157.457 124.700 M319.701 125.400 C 319.705 126.280,319.787 126.593,319.883 126.095 C 319.979 125.598,319.975 124.878,319.875 124.495 C 319.775 124.113,319.696 124.520,319.701 125.400 M319.714 132.600 C 319.717 133.700,319.795 134.103,319.887 133.495 C 319.979 132.886,319.977 131.986,319.882 131.495 C 319.787 131.003,319.711 131.500,319.714 132.600 M319.293 136.000 C 319.293 136.770,319.375 137.085,319.476 136.700 C 319.576 136.315,319.576 135.685,319.476 135.300 C 319.375 134.915,319.293 135.230,319.293 136.000 M158.868 141.600 C 158.888 142.639,159.518 144.346,159.532 143.400 C 159.538 142.960,159.389 142.240,159.200 141.800 C 158.989 141.310,158.861 141.232,158.868 141.600 M317.429 145.029 C 317.281 145.615,317.238 146.172,317.332 146.266 C 317.427 146.360,317.624 145.958,317.771 145.371 C 317.919 144.785,317.962 144.228,317.868 144.134 C 317.773 144.040,317.576 144.442,317.429 145.029 M315.467 151.267 C 315.105 152.188,314.874 153.007,314.954 153.088 C 315.034 153.168,315.400 152.483,315.767 151.567 C 316.133 150.650,316.364 149.831,316.279 149.746 C 316.194 149.661,315.829 150.345,315.467 151.267 M313.665 155.817 C 312.995 157.288,313.123 157.602,313.847 156.265 C 314.186 155.640,314.388 155.054,314.296 154.963 C 314.205 154.871,313.921 155.256,313.665 155.817 M164.000 156.953 C 164.000 157.382,165.190 159.600,165.421 159.600 C 165.531 159.600,165.323 159.015,164.959 158.300 C 164.217 156.840,164.000 156.536,164.000 156.953 M169.467 166.806 C 169.859 167.470,170.598 168.505,171.110 169.106 C 171.621 169.708,171.375 169.165,170.563 167.900 C 169.024 165.503,168.228 164.707,169.467 166.806 M306.400 168.600 C 305.719 169.590,305.252 170.400,305.362 170.400 C 305.472 170.400,306.119 169.590,306.800 168.600 C 307.481 167.610,307.948 166.800,307.838 166.800 C 307.728 166.800,307.081 167.610,306.400 168.600 M173.200 172.000 C 173.897 172.880,174.557 173.600,174.667 173.600 C 174.777 173.600,174.297 172.880,173.600 172.000 C 172.903 171.120,172.243 170.400,172.133 170.400 C 172.023 170.400,172.503 171.120,173.200 172.000 M302.959 173.300 C 301.207 175.321,300.687 176.000,300.890 176.000 C 301.007 176.000,301.767 175.190,302.579 174.200 C 304.081 172.366,304.379 171.663,302.959 173.300 M177.201 177.000 C 177.751 177.660,178.245 178.275,178.300 178.367 C 178.355 178.458,178.488 178.445,178.596 178.338 C 178.704 178.230,178.209 177.615,177.497 176.971 L 176.203 175.800 177.201 177.000 M298.585 178.500 L 296.600 180.600 298.700 178.615 C 300.651 176.771,300.983 176.400,300.685 176.400 C 300.622 176.400,299.677 177.345,298.585 178.500 M183.800 184.000 C 186.212 186.420,188.276 188.400,188.386 188.400 C 188.496 188.400,186.612 186.420,184.200 184.000 C 181.788 181.580,179.724 179.600,179.614 179.600 C 179.504 179.600,181.388 181.580,183.800 184.000 M293.785 183.700 L 291.800 185.800 293.900 183.815 C 295.851 181.971,296.183 181.600,295.885 181.600 C 295.822 181.600,294.877 182.545,293.785 183.700 M289.362 187.656 C 288.943 188.126,286.923 189.926,284.873 191.656 C 282.823 193.385,281.262 194.800,281.405 194.800 C 281.547 194.800,283.225 193.471,285.132 191.846 C 288.523 188.958,290.747 186.800,290.332 186.800 C 290.217 186.800,289.781 187.185,289.362 187.656 M189.717 189.464 C 190.061 190.023,194.000 193.354,194.000 193.086 C 194.000 192.982,192.972 192.020,191.716 190.949 C 190.460 189.877,189.561 189.209,189.717 189.464 M194.963 193.940 C 195.103 194.167,196.860 195.648,198.866 197.230 C 200.872 198.813,202.401 199.926,202.263 199.703 C 202.126 199.480,200.369 197.999,198.360 196.412 C 196.351 194.825,194.822 193.713,194.963 193.940 M278.300 197.035 C 277.035 198.042,276.000 198.952,276.000 199.059 C 276.000 199.166,277.080 198.405,278.400 197.368 C 280.515 195.706,281.061 195.192,280.700 195.203 C 280.645 195.205,279.565 196.029,278.300 197.035 M273.985 200.432 L 272.600 201.663 273.888 200.813 C 275.030 200.059,275.893 199.200,275.508 199.200 C 275.432 199.200,274.747 199.754,273.985 200.432 M204.400 201.272 C 205.329 202.192,209.396 205.041,209.103 204.567 C 208.960 204.336,207.708 203.366,206.322 202.412 C 204.935 201.458,204.070 200.945,204.400 201.272 M267.000 205.435 L 265.800 206.466 267.200 205.563 C 268.996 204.404,269.001 204.400,268.567 204.402 C 268.365 204.403,267.660 204.868,267.000 205.435 M210.897 205.833 C 211.040 206.064,212.292 207.034,213.678 207.988 C 215.065 208.942,215.930 209.455,215.600 209.128 C 214.671 208.208,210.604 205.359,210.897 205.833 M261.400 209.435 L 260.200 210.466 261.500 209.606 C 262.215 209.133,262.800 208.668,262.800 208.573 C 262.800 208.273,262.631 208.378,261.400 209.435 M216.400 209.746 C 216.400 209.856,216.940 210.330,217.600 210.800 C 218.260 211.270,218.800 211.564,218.800 211.454 C 218.800 211.344,218.260 210.870,217.600 210.400 C 216.940 209.930,216.400 209.636,216.400 209.746 M255.100 213.632 C 253.835 214.529,252.800 215.351,252.800 215.457 C 252.800 215.564,253.880 214.894,255.200 213.968 C 257.300 212.494,257.878 212.000,257.500 212.000 C 257.445 212.000,256.365 212.734,255.100 213.632 M224.400 215.272 C 225.329 216.192,229.396 219.041,229.103 218.567 C 228.960 218.336,227.708 217.366,226.322 216.412 C 224.935 215.458,224.070 214.945,224.400 215.272 M248.200 218.432 C 245.827 220.226,245.508 220.732,247.733 219.172 C 249.414 217.994,250.329 217.175,249.924 217.211 C 249.856 217.217,249.080 217.767,248.200 218.432 M230.800 219.725 C 230.800 219.824,231.461 220.409,232.268 221.025 C 233.076 221.641,233.611 221.941,233.456 221.691 C 233.140 221.179,230.800 219.447,230.800 219.725 M243.985 221.629 L 242.600 222.858 244.100 221.781 C 245.426 220.830,245.857 220.400,245.485 220.400 C 245.422 220.400,244.747 220.953,243.985 221.629 M234.000 222.133 C 234.000 222.243,234.720 222.903,235.600 223.600 C 236.480 224.297,237.200 224.777,237.200 224.667 C 237.200 224.557,236.480 223.897,235.600 223.200 C 234.720 222.503,234.000 222.023,234.000 222.133 M239.433 225.006 C 238.833 225.459,238.527 225.483,238.033 225.115 C 237.587 224.783,237.608 224.871,238.102 225.409 C 238.791 226.161,238.818 226.159,239.690 225.287 C 240.698 224.280,240.573 224.143,239.433 225.006 " stroke="none" fill="#fb999d" fill-rule="evenodd"></path><path id="path4" d="M197.200 82.661 C 177.001 87.508,166.235 96.537,159.592 114.200 C 159.248 115.114,158.680 117.140,157.796 120.600 C 156.593 125.308,156.624 134.347,157.858 138.530 C 158.374 140.282,158.340 138.671,157.795 135.573 C 154.975 119.553,163.817 100.009,178.054 90.794 C 196.738 78.700,219.703 80.905,236.083 96.367 L 238.802 98.933 241.701 96.160 C 257.113 81.415,279.326 78.889,297.800 89.782 C 298.900 90.431,299.890 91.072,300.000 91.207 C 300.110 91.342,301.022 92.012,302.027 92.696 C 308.067 96.804,314.516 105.880,317.449 114.400 C 318.169 116.490,318.767 117.917,318.779 117.570 C 318.854 115.339,314.771 106.351,311.742 102.083 C 295.277 78.877,262.791 75.674,241.888 95.195 C 238.303 98.543,238.885 98.475,236.297 95.846 C 226.801 86.197,208.369 79.981,197.200 82.661 M318.814 119.100 C 318.822 119.485,319.089 120.880,319.408 122.200 C 320.149 125.269,320.147 132.817,319.405 136.985 C 318.766 140.572,318.877 141.451,319.601 138.528 C 320.467 135.028,320.586 124.681,319.798 121.334 C 319.121 118.462,318.786 117.700,318.814 119.100 M158.406 141.033 C 158.409 141.675,158.584 142.470,158.795 142.800 C 159.055 143.209,159.099 142.890,158.932 141.800 C 158.629 139.823,158.398 139.486,158.406 141.033 M318.250 142.850 C 317.917 144.517,318.240 144.840,318.600 143.200 C 318.752 142.509,318.793 141.859,318.691 141.758 C 318.589 141.656,318.391 142.147,318.250 142.850 M159.234 144.600 C 159.222 145.040,159.387 145.670,159.600 146.000 C 160.114 146.795,160.114 145.796,159.600 144.600 L 159.256 143.800 159.234 144.600 M317.429 146.229 C 317.281 146.815,317.238 147.372,317.332 147.466 C 317.427 147.560,317.624 147.158,317.771 146.571 C 317.919 145.985,317.962 145.428,317.868 145.334 C 317.773 145.240,317.576 145.642,317.429 146.229 M160.056 147.200 C 160.056 147.530,160.211 148.160,160.400 148.600 C 160.617 149.104,160.744 149.178,160.744 148.800 C 160.744 148.470,160.589 147.840,160.400 147.400 C 160.183 146.896,160.056 146.822,160.056 147.200 M160.812 150.000 C 160.812 150.330,160.987 150.870,161.200 151.200 C 161.545 151.733,161.588 151.733,161.588 151.200 C 161.588 150.870,161.413 150.330,161.200 150.000 C 160.855 149.467,160.812 149.467,160.812 150.000 M315.050 153.191 C 314.147 155.447,314.287 155.783,315.237 153.642 C 315.666 152.675,315.945 151.812,315.858 151.725 C 315.771 151.638,315.408 152.298,315.050 153.191 M162.434 154.200 C 162.434 154.420,162.778 155.230,163.200 156.000 C 163.622 156.770,163.966 157.220,163.966 157.000 C 163.966 156.780,163.622 155.970,163.200 155.200 C 162.778 154.430,162.434 153.980,162.434 154.200 M166.237 161.962 C 167.019 163.606,170.319 168.800,170.582 168.800 C 170.684 168.800,169.790 167.225,168.595 165.300 C 165.806 160.808,165.444 160.297,166.237 161.962 M309.453 164.500 L 308.733 165.800 309.558 164.800 C 310.289 163.913,310.614 163.200,310.286 163.200 C 310.224 163.200,309.849 163.785,309.453 164.500 M171.591 170.388 C 172.057 171.041,172.642 171.702,172.891 171.856 C 173.141 172.011,172.841 171.476,172.225 170.668 C 170.888 168.915,170.384 168.692,171.591 170.388 M298.585 178.900 L 296.600 181.000 298.700 179.015 C 300.651 177.171,300.983 176.800,300.685 176.800 C 300.622 176.800,299.677 177.745,298.585 178.900 M183.200 183.800 C 185.281 185.890,187.074 187.600,187.184 187.600 C 187.294 187.600,185.681 185.890,183.600 183.800 C 181.519 181.710,179.726 180.000,179.616 180.000 C 179.506 180.000,181.119 181.710,183.200 183.800 M288.585 188.900 L 286.600 191.000 288.700 189.015 C 290.651 187.171,290.983 186.800,290.685 186.800 C 290.622 186.800,289.677 187.745,288.585 188.900 M220.000 212.546 C 220.000 212.656,220.540 213.130,221.200 213.600 C 221.860 214.070,222.400 214.364,222.400 214.254 C 222.400 214.144,221.860 213.670,221.200 213.200 C 220.540 212.730,220.000 212.436,220.000 212.546 " stroke="none" fill="#fb9fc0" fill-rule="evenodd"></path></g></svg>