<svg width="108" height="73" viewBox="0 0 108 73" fill="none" xmlns="http://www.w3.org/2000/svg">
<g filter="url(#filter0_d_1391_10187)">
<g filter="url(#filter1_d_1391_10187)">
<path d="M83.2754 9.95666C80.2376 3.85276 76.1783 1.08315 76.1783 1.08315C68.92 5.22412 63.0326 5.92325 63.0326 5.92325C63.0326 5.92325 60.3713 4.06788 52.6021 2.34695C44.833 0.626029 39.4027 1.00248 36.795 2.07806C34.1068 3.20741 26.3914 2.02428 20.5041 1.08315C18.3535 0.733587 17.0631 1.51338 16.5254 2.91163C15.6114 5.25101 18.0577 9.79533 25.8806 10.4945C33.7304 11.1936 35.9348 10.4138 36.7144 11.1936C37.1983 11.6776 35.2896 14.1514 33.4347 16.3295C33.4078 16.3563 33.3809 16.3832 33.3541 16.437C32.1443 17.8353 30.9615 19.126 30.4507 19.61C29.1603 20.9007 27.3054 21.8956 27.3054 21.8956L26.9828 22.0569C24.3214 18.8571 21.8751 19.0722 20.1277 20.5242C19.2675 21.2502 20.2084 22.7829 21.5256 24.3156C21.66 24.477 21.8213 24.6652 21.9826 24.8534L18.7029 26.7088C17.8964 26.1172 17.09 25.687 16.3641 25.687C14.1329 25.687 12.3855 26.4399 12.3855 28.2415C12.3855 28.4566 12.4392 28.6717 12.5468 28.8599L12.3855 28.7524C12.3855 28.7524 6.55191 28.2953 5.34218 30.6884C4.48193 32.3556 5.55725 33.4311 6.47126 33.942C7.30463 34.3992 10.1004 33.7807 12.3855 33.942C13.9447 34.0496 18.5954 35.1252 20.9342 35.1252L20.9073 35.0983C21.8751 35.8243 22.7622 36.4965 23.2192 36.9268C23.9451 37.6259 28.999 36.4697 31.4185 36.147L31.069 35.7705C31.7142 36.1739 32.3056 36.4697 32.7895 36.4697C34.51 36.4697 46.2847 33.5387 46.2847 33.5387L45.9621 33.3236C47.9514 33.8614 49.9139 34.1034 51.1773 33.7807C54.4839 32.9202 58.1131 30.0431 59.6185 29.5053C61.124 28.9675 65.8016 25.3374 67.4145 24.7996C69.0275 24.2618 82.5764 21.062 87.4422 21.062C87.4154 21.062 86.34 16.0606 83.2754 9.95666Z" fill="#FFC6B3"/>
</g>
<path d="M27.3325 21.8956C27.3325 21.8956 29.1874 20.9007 30.4778 19.61C31.7682 18.3193 37.5211 11.9734 36.7415 11.1936C35.9619 10.4138 33.7575 11.1936 25.9077 10.4945C18.0579 9.76844 15.6116 5.25102 16.5256 2.91164C17.0633 1.51339 18.3536 0.760483 20.5043 1.08316C26.3916 2.02429 34.107 3.20742 36.7952 2.07807C39.4029 1.00249 44.887 0.652925 52.6292 2.37385C60.3714 4.09477 63.0597 5.92325 63.0597 5.92325C63.0597 5.92325 68.9471 5.19724 76.2054 1.08316" stroke="#DBAA9A" stroke-width="0.5" stroke-miterlimit="10"/>
<path d="M37.3597 27.8112C36.2306 27.8112 33.2735 28.833 32.8703 28.4566C32.4133 27.9995 30.397 26.7894 27.6281 22.8905C24.7517 18.8302 22.0096 18.9646 20.1547 20.5511C19.2945 21.2771 20.2354 22.8098 21.5526 24.3425C23.3538 26.4399 26.8485 32.0329 27.3324 32.5169C27.8163 33.0009 31.0691 36.4696 32.7896 36.4696C34.5101 36.4696 46.8224 33.5387 46.8224 33.5387" stroke="#DBAA9A" stroke-width="0.5" stroke-miterlimit="10"/>
<path d="M58.3011 14.8237C50.8276 20.094 52.7901 23.6703 51.9836 24.477C51.1771 25.2837 45.478 26.9239 44.5102 25.9828C43.5424 25.0148 40.6659 22.8905 40.6659 22.8905C40.6659 22.8905 39.1336 19.4218 37.897 17.4319C36.6066 15.3615 34.6711 15.4152 33.4345 16.3295C32.9506 16.679 33.4345 19.1529 33.7302 20.4167C34.0797 21.8956 38.2196 28.5642 38.7304 29.7473C39.4562 31.4145 47.8437 34.6412 51.1502 33.7807C54.4568 32.9203 58.086 30.0431 59.5914 29.5053C61.0969 28.9675 65.7745 25.3374 67.3874 24.7996C69.0004 24.2619 82.5493 21.062 87.4151 21.062" stroke="#DBAA9A" stroke-width="0.5" stroke-miterlimit="10"/>
<path d="M25.4774 29.7473C25.4774 29.7473 22.9236 29.7473 22.2784 29.7473C21.6332 29.7473 18.5686 25.7139 16.3373 25.7139C14.106 25.7139 12.3586 26.4668 12.3586 28.2684C12.3586 30.07 15.9878 31.1455 16.9556 32.0867C17.9234 33.0547 22.0633 35.7974 23.1924 36.9268C23.9182 37.6259 28.9722 36.4696 31.3917 36.147" stroke="#DBAA9A" stroke-width="0.5" stroke-miterlimit="10"/>
<path d="M12.3586 28.7793C12.3586 28.7793 6.52505 28.3222 5.31533 30.7154C4.45508 32.3825 5.53039 33.4581 6.44441 33.969C7.27777 34.4261 10.0736 33.8076 12.3586 33.969C13.9178 34.0765 18.5685 35.1521 20.9073 35.1521" stroke="#DBAA9A" stroke-width="0.5" stroke-miterlimit="10"/>
</g>
<g filter="url(#filter2_d_1391_10187)">
<path d="M79.1707 25.1332C79.2255 25.1592 79.3286 25.1954 79.4421 25.1523C79.5673 25.1047 79.6159 24.9966 79.6331 24.9306C79.6502 24.8648 79.6496 24.7973 79.6453 24.7431C79.6408 24.6854 79.6305 24.6232 79.617 24.56C79.564 24.3121 79.4449 23.9707 79.3162 23.6373C79.1859 23.2998 79.0399 22.9558 78.9268 22.697C78.8702 22.5673 78.8216 22.4587 78.7872 22.3823L78.7469 22.2933L78.7364 22.2703L78.734 22.2639L78.7172 22.2184L78.6532 22.0448L78.422 21.4162C78.229 20.891 77.9678 20.1787 77.6949 19.4304C77.1479 17.9309 76.5568 16.2945 76.3703 15.7216C76.2817 15.4496 76.1418 14.8144 75.9749 13.9806C75.8093 13.1536 75.6206 12.149 75.4341 11.1501C75.4108 11.0257 75.3876 10.9014 75.3645 10.7775C75.2022 9.90769 75.044 9.06 74.9074 8.35987C74.753 7.56863 74.6222 6.94415 74.5424 6.69765C74.3057 5.96582 74.8285 4.9783 76.1372 4.95406C76.4457 4.94835 76.6353 5.03024 76.7798 5.16871C76.9366 5.31904 77.0633 5.55756 77.194 5.91331C77.2721 6.12588 77.3503 6.37912 77.4387 6.66511C77.6322 7.29166 77.8743 8.07541 78.2701 8.93309L68.2944 27.2159C68.3068 27.2254 68.3212 27.2348 68.3376 27.243C68.3684 27.2584 68.4146 27.2738 68.4713 27.2698C68.5168 27.2666 68.5566 27.2517 68.5891 27.2312C68.6674 27.3713 68.7724 27.5568 68.8762 27.7339C68.9287 27.979 68.9699 28.1542 68.9962 28.2364L68.9962 28.2364L68.9971 28.2393C69.0094 28.2761 69.0146 28.296 69.0162 28.304C69.0164 28.3051 69.0165 28.3056 69.0165 28.3054C69.0163 28.3048 69.0154 28.2993 69.0151 28.2905L69.015 28.29C69.0148 28.2862 69.0137 28.2628 69.0217 28.2311C69.022 28.23 69.0222 28.229 69.0225 28.228C69.0264 28.2135 69.0322 28.1975 69.0408 28.1809C69.0531 28.157 69.0728 28.1292 69.1022 28.105C69.1213 28.1345 69.1393 28.1615 69.1558 28.1853C69.156 28.1856 69.1562 28.1859 69.1564 28.1862C69.2532 28.3258 69.3001 28.3578 69.2343 28.1602M79.1707 25.1332L79.2777 24.9073L79.1716 25.1336C79.1713 25.1335 79.171 25.1333 79.1707 25.1332ZM79.1707 25.1332C79.0676 25.0846 78.9795 24.998 78.9068 24.9116C78.83 24.8202 78.7515 24.7056 78.6721 24.5752C78.5133 24.3141 78.3387 23.9687 78.1558 23.5695C77.7894 22.7697 77.3788 21.7298 76.981 20.6606C76.3026 18.8373 75.656 16.9135 75.3222 15.9203C75.2643 15.7481 75.2158 15.6039 75.1782 15.493L75.4149 15.4127L75.1786 15.4941C75.1024 15.2732 75.0182 14.7923 74.9244 14.1959C74.8766 13.8917 74.8244 13.5445 74.7686 13.1727C74.7138 12.8082 74.6555 12.4202 74.5943 12.026C74.3438 10.4134 74.0362 8.6455 73.6679 7.55354L73.667 7.55097L73.667 7.55097C73.3041 6.4349 72.9694 5.58182 72.6287 5.04671C72.4583 4.77917 72.2999 4.61307 72.1555 4.52752C72.0228 4.44884 71.8973 4.43435 71.7548 4.48333C71.3116 4.63572 70.8909 4.78066 70.5977 5.08827C70.3226 5.37695 70.1272 5.84972 70.2543 6.73917L70.2547 6.74191L70.2546 6.74192C70.2921 7.02686 70.3785 7.82169 70.4886 8.83568C70.5771 9.65021 70.6809 10.6062 70.7872 11.5528C70.9067 12.6179 71.0294 13.6733 71.1373 14.5089C71.1912 14.9268 71.2413 15.2883 71.2852 15.5678C71.3299 15.8526 71.3655 16.0333 71.3887 16.1067C71.4678 16.3383 71.609 16.9055 71.7781 17.6222C71.9474 18.3399 72.1485 19.2245 72.3505 20.113L72.3579 20.1455C72.7695 21.9558 73.1781 23.7496 73.3343 24.2183C73.4702 24.6262 73.6397 25.2098 73.7175 25.6294C73.7371 25.7349 73.7518 25.8351 73.7582 25.9223C73.7639 26.001 73.7657 26.0998 73.7395 26.1851C73.7262 26.2283 73.6957 26.3018 73.6214 26.355C73.535 26.417 73.4381 26.4179 73.3653 26.3966C73.3017 26.3781 73.2517 26.3424 73.2176 26.3139C73.1809 26.2832 73.1455 26.2461 73.1114 26.2061C72.6308 25.6405 72.307 24.764 72.0411 23.7267C71.8089 22.821 71.6133 21.7595 71.4034 20.6206C71.3714 20.4467 71.339 20.271 71.3061 20.0938C71.1991 19.5171 70.9064 18.0712 70.6398 16.7665C70.5066 16.1147 70.3801 15.4992 70.2869 15.0466L70.1755 14.5057L70.1447 14.3567L70.1367 14.3177L70.1346 14.3077L70.1341 14.3052L70.134 14.3046L70.1339 14.3044L70.3787 14.2538L70.1339 14.3044L70.1261 14.2665L70.1301 14.228L70.1301 14.228L70.1301 14.228L70.1301 14.2277L70.1303 14.226L70.131 14.2186L70.1339 14.1879C70.1363 14.1606 70.1398 14.12 70.1436 14.0678C70.1514 13.9634 70.1608 13.8127 70.1674 13.6292C70.1806 13.2615 70.1822 12.7653 70.1369 12.2476C70.0914 11.7277 69.9995 11.198 69.8314 10.7577C69.6783 10.3565 69.4727 10.0571 69.2082 9.89027C69.1578 9.90683 69.1095 9.92258 69.063 9.93773C68.6099 10.0854 68.3342 10.1752 68.0834 10.3883C67.798 10.6308 67.5304 11.0523 67.1666 11.9828C67.1697 12.9339 67.2638 14.2528 67.3589 15.4901C67.3712 15.6492 67.3834 15.8072 67.3955 15.9629C67.4762 17.0016 67.5491 17.94 67.5526 18.4646C67.6237 18.7055 67.7584 19.3507 67.9216 20.1751C68.0975 21.0631 68.3114 22.1855 68.5242 23.3051C68.5428 23.4029 68.5614 23.5006 68.5799 23.5982C68.7738 24.6184 68.9641 25.6192 69.1211 26.4218C69.2949 27.3098 69.4237 27.9305 69.472 28.0828C69.4721 28.0832 69.4723 28.0836 69.4724 28.084L69.4074 28.1048C69.4087 28.1063 69.4093 28.1069 69.4092 28.1068C69.4091 28.1068 69.4085 28.1061 69.4072 28.1049L69.2343 28.1602M69.2343 28.1602L69.4054 28.1032C69.4033 28.1012 69.4002 28.0986 69.3964 28.0956L69.396 28.0953C69.391 28.0914 69.3534 28.0616 69.2929 28.0524C69.2689 28.0487 69.2385 28.048 69.2054 28.0551C69.2166 28.1 69.2263 28.1353 69.2343 28.1602ZM69.1122 27.6421C69.1227 27.6599 69.1331 27.6776 69.1435 27.6951C69.2555 27.8836 69.3501 28.0331 69.3999 28.0958C69.4024 28.0989 69.4044 28.1013 69.4059 28.103L69.1122 27.6421ZM69.1122 27.6421C68.9406 26.8344 68.6419 25.263 68.3343 23.6448C67.8909 21.3119 67.429 18.8818 67.3027 18.503C67.3027 17.9971 67.2292 17.0497 67.1462 15.982C67.0392 14.6035 66.9166 13.0244 66.9166 11.936L69.1122 27.6421ZM67.3211 37.3233C67.0546 36.8572 66.8599 36.4667 66.7703 36.2022L71.6612 62.8252C72.0345 61.6991 73.5764 56.9193 73.2213 55.8301C72.8181 54.5932 72.2804 51.2858 72.7643 50.3985C73.2482 49.5111 73.3826 47.8978 73.1944 47.3331L73.4327 47.2573C73.4325 47.2568 73.4323 47.2562 73.4321 47.2557C73.3773 47.0844 73.2035 46.7113 72.9728 46.2509C72.737 45.7804 72.4312 45.1979 72.102 44.5982C71.4479 43.4066 70.6878 42.1211 70.2007 41.5226L70.1989 41.5203C69.7367 40.9656 68.9698 39.9117 68.2692 38.8497C67.9194 38.3195 67.5881 37.7904 67.3211 37.3233ZM72.5126 63.0052C72.2594 62.9545 72.0544 62.9113 71.9066 62.8794L78.5052 8.84577C78.9397 10.3668 79.3063 11.8059 79.5822 12.8888C79.7967 13.731 79.9564 14.3578 80.0504 14.6401L79.8123 14.7163C79.8125 14.7168 79.8126 14.7172 79.8128 14.7177C79.8335 14.7819 79.8755 14.87 79.9244 14.9652C79.9765 15.0665 80.0453 15.1929 80.1278 15.3397C80.2928 15.6336 80.5164 16.0162 80.7786 16.458C81.1669 17.1123 81.6422 17.9002 82.1415 18.7279C82.3166 19.0182 82.4946 19.3133 82.6729 19.6093C83.3603 20.7506 84.0515 21.905 84.5942 22.846C84.8656 23.3166 85.0989 23.7321 85.2756 24.0649C85.4558 24.4042 85.5677 24.6404 85.6069 24.761C85.7147 25.0919 85.9893 25.537 86.3429 26.0057C86.7018 26.4812 87.1592 27.0031 87.6542 27.491C88.1487 27.9785 88.686 28.4371 89.2053 28.7824C89.7172 29.1228 90.2417 29.3738 90.7051 29.4052C91.1222 29.4335 91.4648 29.387 91.7208 29.2278C91.9904 29.0601 92.1198 28.7963 92.1671 28.4958C92.213 28.2045 92.1858 27.8575 92.129 27.479C92.0803 27.1548 92.0066 26.7884 91.9267 26.3916C91.9127 26.3219 91.8984 26.2513 91.8841 26.1798C91.6855 25.1865 91.3813 24.4382 91.0123 23.6952C90.8644 23.3973 90.7051 23.0985 90.5392 22.7872C90.4996 22.713 90.4597 22.6381 90.4195 22.5623C90.2095 22.1671 89.9886 21.7438 89.7599 21.2607C89.6283 20.9829 89.5028 20.7212 89.3839 20.4733C88.7986 19.2528 88.3754 18.3703 88.1951 17.573C87.9921 16.6749 88.1011 15.8896 88.712 14.854C90.0016 14.5091 90.8488 14.9473 91.3866 15.4696C91.667 15.742 91.8658 16.0406 91.9947 16.2728C92.0588 16.3884 92.105 16.4863 92.1348 16.5543C92.1496 16.5882 92.1603 16.6146 92.1671 16.632L92.1744 16.6509L92.1759 16.6549L92.1759 16.655L92.176 16.6552L92.176 16.6553L92.1761 16.6554L92.1801 16.6667L92.1854 16.678L95.2757 23.2449L95.2756 23.245L95.2783 23.2503L95.2783 23.2503L95.2784 23.2506L95.279 23.2517L95.2814 23.2565L95.2909 23.2757L95.3278 23.3509C95.3599 23.4165 95.4063 23.5122 95.4632 23.632C95.577 23.8717 95.7328 24.2073 95.9006 24.5907C96.2319 25.348 96.6036 26.2781 96.7946 27.0227C96.7598 27.5138 96.8389 28.4067 96.9533 29.4736C96.9954 29.8656 97.0425 30.2837 97.0917 30.7195C97.1823 31.5231 97.2797 32.3869 97.3644 33.2582C97.4948 34.6006 97.5933 35.947 97.588 37.0905C97.5853 37.6622 97.5567 38.1781 97.4945 38.6145C97.4318 39.0543 97.3373 39.3967 97.2125 39.6318C96.9174 40.1877 96.5946 40.9359 96.2543 41.7431C96.1964 41.8804 96.1379 42.0196 96.079 42.16C95.7894 42.8493 95.4871 43.5691 95.1743 44.2539C94.7973 45.0792 94.4101 45.8422 94.0197 46.4294C93.6205 47.0298 93.2515 47.3931 92.9291 47.4989L92.928 47.4992C92.7992 47.5422 92.6983 47.6333 92.6198 47.7309C92.5399 47.8303 92.4685 47.9549 92.4034 48.0946C92.273 48.3742 92.152 48.7488 92.0368 49.191C91.8058 50.0774 91.5875 51.2793 91.369 52.6376C91.2242 53.538 91.0791 54.508 90.9299 55.5055C90.6338 57.4851 90.3215 59.5728 89.9631 61.4386C89.9358 61.4511 89.9039 61.4657 89.8673 61.4822C89.7298 61.5444 89.528 61.6338 89.2721 61.742C88.7603 61.9583 88.033 62.2495 87.1722 62.5482C85.4479 63.1465 83.2029 63.7696 81.0869 63.8892C78.9598 63.9553 76.5997 63.6892 74.7651 63.4045C73.8486 63.2623 73.0659 63.116 72.5126 63.0052ZM73.5418 25.933C73.5419 25.9331 73.5413 25.9328 73.5402 25.9319C73.5413 25.9326 73.5418 25.933 73.5418 25.933Z" fill="#FFC6B3" stroke="#DBAA9A" stroke-width="0.5"/>
</g>
<defs>
<filter id="filter0_d_1391_10187" x="0.75" y="0.759033" width="90.6921" height="44.6385" filterUnits="userSpaceOnUse" color-interpolation-filters="sRGB">
<feFlood flood-opacity="0" result="BackgroundImageFix"/>
<feColorMatrix in="SourceAlpha" type="matrix" values="0 0 0 0 0 0 0 0 0 0 0 0 0 0 0 0 0 0 127 0" result="hardAlpha"/>
<feOffset dy="4"/>
<feGaussianBlur stdDeviation="2"/>
<feColorMatrix type="matrix" values="0 0 0 0 0 0 0 0 0 0 0 0 0 0 0 0 0 0 0.25 0"/>
<feBlend mode="normal" in2="BackgroundImageFix" result="effect1_dropShadow_1391_10187"/>
<feBlend mode="normal" in="SourceGraphic" in2="effect1_dropShadow_1391_10187" result="shape"/>
</filter>
<filter id="filter1_d_1391_10187" x="1.02686" y="1" width="90.4153" height="44.1475" filterUnits="userSpaceOnUse" color-interpolation-filters="sRGB">
<feFlood flood-opacity="0" result="BackgroundImageFix"/>
<feColorMatrix in="SourceAlpha" type="matrix" values="0 0 0 0 0 0 0 0 0 0 0 0 0 0 0 0 0 0 127 0" result="hardAlpha"/>
<feOffset dy="4"/>
<feGaussianBlur stdDeviation="2"/>
<feColorMatrix type="matrix" values="0 0 0 0 0 0 0 0 0 0 0 0 0 0 0 0 0 0 0.25 0"/>
<feBlend mode="normal" in2="BackgroundImageFix" result="effect1_dropShadow_1391_10187"/>
<feBlend mode="normal" in="SourceGraphic" in2="effect1_dropShadow_1391_10187" result="shape"/>
</filter>
<filter id="filter2_d_1391_10187" x="59.7896" y="4.20502" width="42.0486" height="67.9443" filterUnits="userSpaceOnUse" color-interpolation-filters="sRGB">
<feFlood flood-opacity="0" result="BackgroundImageFix"/>
<feColorMatrix in="SourceAlpha" type="matrix" values="0 0 0 0 0 0 0 0 0 0 0 0 0 0 0 0 0 0 127 0" result="hardAlpha"/>
<feOffset dy="4"/>
<feGaussianBlur stdDeviation="2"/>
<feColorMatrix type="matrix" values="0 0 0 0 0 0 0 0 0 0 0 0 0 0 0 0 0 0 0.25 0"/>
<feBlend mode="normal" in2="BackgroundImageFix" result="effect1_dropShadow_1391_10187"/>
<feBlend mode="normal" in="SourceGraphic" in2="effect1_dropShadow_1391_10187" result="shape"/>
</filter>
</defs>
</svg>
