<svg width="325" height="305" viewBox="0 0 325 305" fill="none" xmlns="http://www.w3.org/2000/svg">
<path d="M159.755 304.918C213.024 304.918 256.207 298.236 256.207 289.993C256.207 281.751 213.024 275.069 159.755 275.069C106.487 275.069 63.3041 281.751 63.3041 289.993C63.3041 298.236 106.487 304.918 159.755 304.918Z" fill="#3F3D56"/>
<path d="M249.182 261.561C251.7 258.759 252.675 254.895 251.787 251.234C250.9 247.572 248.265 244.584 244.743 243.245C247.919 241.408 249.465 237.668 248.514 234.124C247.563 230.581 244.351 228.118 240.683 228.118C237.014 228.118 233.802 230.581 232.851 234.124C231.9 237.668 233.446 241.408 236.622 243.245C233.1 244.584 230.465 247.572 229.578 251.234C228.691 254.895 229.665 258.759 232.183 261.561C226.234 265.341 223.496 272.596 225.464 279.364C227.432 286.132 233.634 290.787 240.683 290.787C247.731 290.787 253.933 286.132 255.901 279.364C257.869 272.596 255.131 265.341 249.182 261.561Z" fill="#3F3D56"/>
<path d="M102.921 168.609C109.438 168.609 114.721 163.326 114.721 156.809C114.721 150.292 109.438 145.01 102.921 145.01C96.4047 145.01 91.1218 150.292 91.1218 156.809C91.1218 163.326 96.4047 168.609 102.921 168.609Z" fill="#347CFF"/>
<path d="M100.381 166.457C101.532 165.525 100.803 162.716 98.7527 160.184C96.7026 157.651 94.1074 156.354 92.9562 157.286C91.8051 158.217 92.5339 161.026 94.5841 163.558C96.6342 166.091 99.2294 167.389 100.381 166.457Z" fill="white"/>
<path d="M25.7406 133.791C32.2573 133.791 37.5402 128.508 37.5402 121.991C37.5402 115.474 32.2573 110.191 25.7406 110.191C19.2239 110.191 13.941 115.474 13.941 121.991C13.941 128.508 19.2239 133.791 25.7406 133.791Z" fill="#3F3D56"/>
<path d="M20.5621 120.595C21.4104 117.449 20.9388 114.586 19.5088 114.2C18.0788 113.815 16.2319 116.052 15.3836 119.198C14.5353 122.344 15.0069 125.207 16.4369 125.593C17.8669 125.979 19.7138 123.741 20.5621 120.595Z" fill="white"/>
<path d="M8.25139 60.0052C12.3126 60.0052 15.6048 56.713 15.6048 52.6518C15.6048 48.5906 12.3126 45.2983 8.25139 45.2983C4.1902 45.2983 0.897949 48.5906 0.897949 52.6518C0.897949 56.713 4.1902 60.0052 8.25139 60.0052Z" fill="#3F3D56"/>
<path d="M5.02419 51.7814C5.55283 49.8208 5.25894 48.0367 4.36777 47.7964C3.47659 47.5561 2.32561 48.9507 1.79697 50.9112C1.26833 52.8718 1.56222 54.656 2.45339 54.8963C3.34456 55.1366 4.49555 53.742 5.02419 51.7814Z" fill="white"/>
<path d="M84.4407 241.919C88.5019 241.919 91.7942 238.627 91.7942 234.565C91.7942 230.504 88.5019 227.212 84.4407 227.212C80.3795 227.212 77.0873 230.504 77.0873 234.565C77.0873 238.627 80.3795 241.919 84.4407 241.919Z" fill="#3F3D56"/>
<path d="M81.2145 233.696C81.7432 231.735 81.4493 229.951 80.5581 229.711C79.6669 229.47 78.5159 230.865 77.9873 232.826C77.4586 234.786 77.7525 236.57 78.6437 236.811C79.5349 237.051 80.6859 235.656 81.2145 233.696Z" fill="white"/>
<path d="M312.887 160.072C319.404 160.072 324.687 154.789 324.687 148.272C324.687 141.756 319.404 136.473 312.887 136.473C306.371 136.473 301.088 141.756 301.088 148.272C301.088 154.789 306.371 160.072 312.887 160.072Z" fill="#3F3D56"/>
<path d="M304.842 154.172C306.323 154.172 307.524 151.53 307.524 148.272C307.524 145.014 306.323 142.372 304.842 142.372C303.361 142.372 302.161 145.014 302.161 148.272C302.161 151.53 303.361 154.172 304.842 154.172Z" fill="white"/>
<path d="M274.807 84.4473C281.324 84.4473 286.607 79.1644 286.607 72.6477C286.607 66.131 281.324 60.8481 274.807 60.8481C268.29 60.8481 263.008 66.131 263.008 72.6477C263.008 79.1644 268.29 84.4473 274.807 84.4473Z" fill="#347CFF"/>
<path d="M271.661 68.3042C274.3 66.3927 275.734 63.8708 274.866 62.6714C273.997 61.4719 271.153 62.0492 268.514 63.9606C265.876 65.8721 264.441 68.394 265.31 69.5934C266.178 70.7929 269.022 70.2157 271.661 68.3042Z" fill="white"/>
<path d="M304.842 15.1036C308.904 15.1036 312.196 11.8114 312.196 7.75017C312.196 3.68898 308.904 0.396729 304.842 0.396729C300.781 0.396729 297.489 3.68898 297.489 7.75017C297.489 11.8114 300.781 15.1036 304.842 15.1036Z" fill="#347CFF"/>
<path d="M302.882 5.04318C304.526 3.85197 305.42 2.28033 304.879 1.53284C304.337 0.785347 302.565 1.14506 300.921 2.33627C299.276 3.52749 298.382 5.09913 298.924 5.84662C299.465 6.59411 301.237 6.2344 302.882 5.04318Z" fill="white"/>
<path d="M249.599 204.433C253.66 204.433 256.952 201.141 256.952 197.08C256.952 193.018 253.66 189.726 249.599 189.726C245.538 189.726 242.246 193.018 242.246 197.08C242.246 201.141 245.538 204.433 249.599 204.433Z" fill="#3F3D56"/>
<path d="M247.638 194.373C249.283 193.181 250.177 191.61 249.635 190.862C249.094 190.115 247.322 190.474 245.677 191.666C244.033 192.857 243.139 194.428 243.68 195.176C244.222 195.923 245.994 195.564 247.638 194.373Z" fill="white"/>
<path d="M121.788 207.045V221L131.756 222.196L137.737 214.62L132.952 205.051L121.788 207.045Z" fill="#FBBEBE"/>
<path d="M159.667 264.461L164.851 278.417L174.42 275.227L167.243 263.664L159.667 264.461Z" fill="#FBBEBE"/>
<path d="M147.705 145.641C147.705 145.641 95.8708 140.458 97.4657 154.812C99.0606 169.166 121.788 210.235 121.788 210.235L136.94 207.444C136.94 207.444 126.174 190.697 126.971 185.115C127.769 179.533 124.579 171.957 124.579 171.957L132.155 173.153L136.541 179.931L145.712 226.981L159.667 269.246L170.034 266.455C170.034 266.455 164.452 248.911 166.047 243.329C167.641 237.747 158.471 216.216 158.471 216.216L164.85 178.735C164.85 178.735 177.211 175.147 173.622 162.786C170.034 150.426 147.705 145.641 147.705 145.641Z" fill="#2F2E41"/>
<path d="M126.174 216.614C126.174 216.614 120.193 211.829 120.592 213.823C120.817 215.276 120.817 216.756 120.592 218.209L115.01 230.57C115.01 230.57 101.453 242.93 113.813 243.329C126.174 243.728 132.554 230.968 132.554 230.968C132.554 230.968 149.699 218.209 147.705 216.215C145.712 214.222 135.248 209.643 135.248 209.643C135.248 209.643 131.756 219.405 126.174 216.614Z" fill="#2F2E41"/>
<path d="M164.452 272.037C164.452 272.037 158.869 266.854 158.471 269.246C158.072 271.638 157.673 274.828 157.673 274.828L149.3 282.803C149.3 282.803 137.338 294.366 147.705 294.765C153.774 295.039 159.64 292.546 163.654 287.986C163.654 287.986 178.806 284.796 178.008 282.404C177.211 280.012 173.212 270.756 171.424 270.4C169.635 270.043 169.236 275.227 164.452 272.037Z" fill="#2F2E41"/>
<path d="M145.313 88.2244C152.139 88.2244 157.673 82.6904 157.673 75.8639C157.673 69.0374 152.139 63.5034 145.313 63.5034C138.486 63.5034 132.952 69.0374 132.952 75.8639C132.952 82.6904 138.486 88.2244 145.313 88.2244Z" fill="#FBBEBE"/>
<path d="M139.731 84.2371C139.731 84.2371 144.914 98.1925 144.515 99.3887C144.117 100.585 160.863 89.4206 160.863 89.4206C160.863 89.4206 153.686 87.8257 153.686 81.446L139.731 84.2371Z" fill="#FBBEBE"/>
<path d="M185.185 104.572C185.185 104.572 192.362 111.749 193.559 114.141C194.755 116.534 221.868 146.837 221.868 146.837C221.868 146.837 239.811 167.969 232.634 168.368C225.457 168.767 216.286 151.622 216.286 151.622C216.286 151.622 190.768 132.882 189.571 128.496L174.819 113.344L185.185 104.572Z" fill="#FBBEBE"/>
<path d="M147.705 96.1988H143.319L137.338 105.768C137.338 105.768 131.357 110.952 135.743 121.717C140.129 132.483 143.718 146.04 143.718 146.04C143.718 146.04 156.477 147.635 158.87 151.622C161.262 155.609 174.819 168.368 174.819 168.368C174.819 168.368 177.211 159.995 176.413 147.635C175.616 135.274 176.413 116.534 176.413 116.534L175.616 91.8128C175.616 91.8128 160.216 88.2433 159.144 88.8319C158.072 89.4205 147.705 96.1988 147.705 96.1988Z" fill="#575A89"/>
<path d="M169.635 93.0092L175.616 91.813C175.616 91.813 181.996 95.8003 187.977 107.363C187.977 107.363 175.217 115.737 174.021 115.338C172.825 114.939 169.635 93.0092 169.635 93.0092Z" fill="#575A89"/>
<path d="M132.952 120.122C132.952 120.122 123.782 134.875 126.573 140.458C129.364 146.04 132.952 145.641 132.952 145.641C132.952 145.641 139.731 144.445 139.731 138.863C139.731 133.28 142.522 132.882 142.522 132.882C142.522 132.882 160.066 118.528 153.287 118.528C146.509 118.528 137.338 128.496 137.338 128.496L136.94 119.325L132.952 120.122Z" fill="#FBBEBE"/>
<path d="M138.933 105.37C138.933 105.37 132.952 106.965 131.756 113.344C130.56 119.724 130.959 122.914 130.959 122.914L138.933 122.116V105.37Z" fill="#575A89"/>
<path opacity="0.1" d="M127.769 137.268C127.769 137.268 134.148 128.894 134.946 130.091L127.769 137.268Z" fill="black"/>
<path d="M151.592 60.9C151.592 60.9 145.037 54.3505 138.726 58.748C132.416 63.1455 129.477 67.3337 130.181 70.1781C130.886 73.0224 132.853 76.9529 132.853 76.9529C132.853 76.9529 131.54 71.0564 136.846 70.4789C142.151 69.9013 149.405 66.1906 149.405 66.1906L154.651 76.672C154.651 76.672 155.289 74.1946 157.255 74.849C159.221 75.5034 157.345 61.5367 151.592 60.9Z" fill="#2F2E41"/>
<path d="M234.152 142.752C234.756 143.086 235.38 143.113 235.548 142.811C235.715 142.509 235.361 141.994 234.758 141.659C234.155 141.325 233.53 141.298 233.363 141.6C233.196 141.902 233.549 142.417 234.152 142.752Z" fill="#3F3D56"/>
<path d="M233.3 144.583C234.534 145.267 235.817 145.31 236.167 144.679C236.517 144.049 235.8 142.983 234.566 142.299C233.332 141.615 232.048 141.572 231.698 142.202C231.349 142.833 232.065 143.899 233.3 144.583Z" fill="#347CFF"/>
<rect x="230.816" y="142.622" width="6.13139" height="4.485" transform="rotate(29 230.816 142.622)" fill="#347CFF"/>
<rect x="223.718" y="146.704" width="14.5337" height="21.9708" transform="rotate(29 223.718 146.704)" fill="#347CFF"/>
<path d="M237.124 153.843C236.075 155.735 233.319 153.356 229.534 151.259C225.75 149.161 222.2 147.979 223.249 146.087C224.297 144.195 228.612 143.997 232.397 146.095C236.181 148.192 238.173 151.951 237.124 153.843Z" fill="#347CFF"/>
<rect x="214.359" y="162.71" width="15.7259" height="1.70316" transform="rotate(29 214.359 162.71)" fill="#3F3D56"/>
<rect x="217.838" y="156.2" width="15.7259" height="3.40633" transform="rotate(29 217.838 156.2)" fill="#3F3D56"/>
<path d="M226.621 172.557C226.271 173.188 225.472 175.101 218.619 171.302C210.873 167.009 212.572 165.465 212.922 164.834C213.271 164.203 216.21 166.981 219.885 169.018C223.559 171.055 226.971 171.927 226.621 172.557Z" fill="#347CFF"/>
<rect x="230.655" y="141.625" width="7.26683" height="2.4412" transform="rotate(29 230.655 141.625)" fill="#3F3D56"/>
<rect x="222.242" y="148.255" width="15.7259" height="1.70316" transform="rotate(29 222.242 148.255)" fill="#3F3D56"/>
<rect opacity="0.1" x="221.781" y="151.603" width="0.965125" height="5.33658" transform="rotate(29 221.781 151.603)" fill="white"/>
<rect opacity="0.1" x="216.855" y="160.491" width="0.965125" height="1.98702" transform="rotate(29 216.855 160.491)" fill="white"/>
</svg>
