<svg width="17" height="17" viewBox="0 0 17 17" fill="none" xmlns="http://www.w3.org/2000/svg">
<path d="M13.9092 1.29492C13.9113 1.08119 13.9121 0.870619 13.9121 0.664062V0H3.02148V0.664062C3.02148 0.870619 3.02225 1.08119 3.02437 1.29492H0V1.95898C0 3.65849 0.446715 5.09439 1.36568 6.34884C2.14588 7.41383 3.12714 8.16133 3.99287 8.82081C4.53163 9.2312 5.01185 9.59756 5.35148 9.96791C6.01817 10.8505 6.84081 11.6169 7.80273 12.2516V13.3477H7.4707C5.82296 13.3477 4.48242 14.6882 4.48242 16.3359V17H12.4512V16.3359C12.4512 14.6882 11.1106 13.3477 9.46289 13.3477H9.13086V12.2516C10.0911 11.618 10.9125 10.8532 11.5786 9.97262C11.9216 9.59942 12.4116 9.23 12.9615 8.8159C13.8365 8.15701 14.8283 7.41021 15.6173 6.34645C16.5477 5.0921 17 3.65696 17 1.95898V1.29492H13.9092ZM1.35668 2.62305H3.06126C3.12551 3.92169 3.2899 5.29885 3.70265 6.66141C3.73542 6.76959 3.76998 6.87643 3.80544 6.98262C2.62248 5.98835 1.54371 4.73815 1.35668 2.62305ZM9.46289 14.6758C10.1424 14.6758 10.7278 15.086 10.9844 15.6719H5.94917C6.20583 15.086 6.79123 14.6758 7.4707 14.6758H9.46289ZM10.5894 9.08726C10.4622 9.22635 10.3455 9.36972 10.243 9.51957L10.2457 9.52143C9.75946 10.0945 9.17353 10.6248 8.4668 11.0985C7.76007 10.6248 7.17413 10.0946 6.68791 9.52139L6.69063 9.51954C6.58667 9.3676 6.4685 9.2223 6.33977 9.08135C4.67942 6.8256 4.38859 3.99716 4.35366 1.32812H12.5799C12.545 3.99952 12.2536 6.83051 10.5894 9.08726ZM13.1178 7.01336C13.157 6.89715 13.195 6.78001 13.2309 6.66141C13.6437 5.29885 13.8081 3.92169 13.8723 2.62305H15.6428C15.4505 4.75973 14.3328 6.01329 13.1178 7.01336Z" fill="#F2994A"/>
</svg>
