<svg width="18" height="18" viewBox="0 0 18 18" fill="none" xmlns="http://www.w3.org/2000/svg">
<path fill-rule="evenodd" clip-rule="evenodd" d="M15 0C16.6569 0 18 1.34315 18 3V15C18 16.6569 16.6569 18 15 18H3C1.34315 18 0 16.6569 0 15V3C0 1.34315 1.34315 0 3 0H15ZM15 1.3H3C2.11053 1.3 1.38061 1.98311 1.30624 2.85332L1.3 3V15C1.3 15.8895 1.98311 16.6194 2.85332 16.6938L3 16.7H15C15.8895 16.7 16.6194 16.0169 16.6938 15.1467L16.7 15V3C16.7 2.11053 16.0169 1.38061 15.1467 1.30624L15 1.3ZM3.96889 4.48207C3.63752 4.48207 3.36889 4.7507 3.36889 5.08207C3.36889 5.41344 3.63752 5.68207 3.96889 5.68207H13.7689C14.1003 5.68207 14.3689 5.41344 14.3689 5.08207C14.3689 4.7507 14.1003 4.48207 13.7689 4.48207H3.96889ZM3.36889 9.08207C3.36889 8.7507 3.63752 8.48207 3.96889 8.48207H13.7689C14.1003 8.48207 14.3689 8.7507 14.3689 9.08207C14.3689 9.41344 14.1003 9.68207 13.7689 9.68207H3.96889C3.63752 9.68207 3.36889 9.41344 3.36889 9.08207ZM3.96889 12.4821C3.63752 12.4821 3.36889 12.7507 3.36889 13.0821C3.36889 13.4134 3.63752 13.6821 3.96889 13.6821H13.7689C14.1003 13.6821 14.3689 13.4134 14.3689 13.0821C14.3689 12.7507 14.1003 12.4821 13.7689 12.4821H3.96889Z" fill="white"/>
</svg>
