<svg width="18" height="24" viewBox="0 0 18 24" fill="none" xmlns="http://www.w3.org/2000/svg">
<path fill-rule="evenodd" clip-rule="evenodd" d="M13.6645 3.05416C13.6645 4.20916 12.7195 5.15416 11.5645 5.15416C10.4095 5.15416 9.46451 4.20916 9.46451 3.05416C9.46451 1.89916 10.4095 0.954163 11.5645 0.954163C12.7195 0.954163 13.6645 1.89916 13.6645 3.05416ZM8.83449 15.1291L7.78449 19.7491L0.434494 18.2791L0.854494 16.1791L5.99949 17.2291L7.67949 8.72408L5.78949 9.45908V13.0291H3.68949V8.09408L9.14949 5.78408C9.30699 5.78408 9.43824 5.75783 9.56949 5.73158C9.70074 5.70533 9.83199 5.67908 9.98949 5.67908C10.7245 5.67908 11.3545 6.09908 11.7745 6.72908L12.8245 8.40908C13.6645 9.87908 15.3445 10.9291 17.3395 10.9291V13.0291C15.0295 13.0291 12.9295 11.9791 11.5645 10.4041L10.9345 13.5541L13.1395 15.6541V23.5291H11.0395V17.2291L8.83449 15.1291Z" fill="white"/>
</svg>
