<svg width="24" height="24" viewBox="0 0 24 24" fill="none" xmlns="http://www.w3.org/2000/svg">
<path fill-rule="evenodd" clip-rule="evenodd" d="M10.7063 5.53124V0.356323H12C18.4298 0.356323 23.6436 5.57005 23.6436 11.9999C23.6436 18.4297 18.4298 23.6435 12 23.6435C5.55722 23.6435 0.35643 18.4297 0.35643 11.9999C0.35643 8.18339 2.19353 4.81969 5.02679 2.69797V2.6721L13.8242 11.4695L12 13.2936L4.98798 6.2816C3.70719 7.83408 2.94389 9.82642 2.94389 11.9999C2.94389 17.0066 6.99326 21.056 12 21.056C17.0067 21.056 21.0561 17.0066 21.0561 11.9999C21.0561 7.43302 17.6795 3.68121 13.2937 3.04728V5.53124H10.7063ZM12 19.7621C11.2885 19.7621 10.7063 19.1799 10.7063 18.4683C10.7063 17.7568 11.2885 17.1746 12 17.1746C12.7116 17.1746 13.2937 17.7568 13.2937 18.4683C13.2937 19.1799 12.7116 19.7621 12 19.7621ZM19.7624 11.9997C19.7624 11.2881 19.1802 10.7059 18.4687 10.7059C17.7571 10.7059 17.1749 11.2881 17.1749 11.9997C17.1749 12.7112 17.7571 13.2934 18.4687 13.2934C19.1802 13.2934 19.7624 12.7112 19.7624 11.9997ZM5.53135 13.2934C4.8198 13.2934 4.23762 12.7112 4.23762 11.9997C4.23762 11.2881 4.8198 10.7059 5.53135 10.7059C6.2429 10.7059 6.82508 11.2881 6.82508 11.9997C6.82508 12.7112 6.2429 13.2934 5.53135 13.2934Z" fill="white"/>
</svg>
