<svg width="360" height="640" viewBox="0 0 360 640" fill="none" xmlns="http://www.w3.org/2000/svg">
<g clip-path="url(#clip0)">
<rect width="360" height="640" fill="#1D1C1D"/>
<g filter="url(#filter0_d)">
<g clip-path="url(#clip1)">
<g filter="url(#filter1_dd)">
<path fill-rule="evenodd" clip-rule="evenodd" d="M360 0H0V80H360V0Z" fill="#1D1C1D"/>
</g>
<path d="M68.916 50.7168V56H66.4453V41.7812H71.8848C73.4733 41.7812 74.7331 42.1947 75.6641 43.0215C76.6016 43.8483 77.0703 44.9421 77.0703 46.3027C77.0703 47.696 76.6113 48.7799 75.6934 49.5547C74.7819 50.3294 73.5026 50.7168 71.8555 50.7168H68.916ZM68.916 48.7344H71.8848C72.7637 48.7344 73.4342 48.5293 73.8965 48.1191C74.3587 47.7025 74.5898 47.1035 74.5898 46.3223C74.5898 45.554 74.3555 44.9421 73.8867 44.4863C73.418 44.0241 72.7734 43.7865 71.9531 43.7734H68.916V48.7344ZM83.5254 56.1953C82.0215 56.1953 80.8008 55.7233 79.8633 54.7793C78.9323 53.8288 78.4668 52.5658 78.4668 50.9902V50.6973C78.4668 49.6426 78.6686 48.7018 79.0723 47.875C79.4824 47.0417 80.0553 46.3939 80.791 45.9316C81.5267 45.4694 82.347 45.2383 83.252 45.2383C84.6908 45.2383 85.8008 45.6973 86.582 46.6152C87.3698 47.5332 87.7637 48.832 87.7637 50.5117V51.4688H80.8594C80.931 52.3411 81.2207 53.0312 81.7285 53.5391C82.2428 54.0469 82.8874 54.3008 83.6621 54.3008C84.7493 54.3008 85.6348 53.8613 86.3184 52.9824L87.5977 54.2031C87.1745 54.8346 86.6081 55.3262 85.8984 55.6777C85.1953 56.0228 84.4043 56.1953 83.5254 56.1953ZM83.2422 47.1426C82.5911 47.1426 82.0638 47.3704 81.6602 47.8262C81.263 48.2819 81.0091 48.9167 80.8984 49.7305H85.4199V49.5547C85.3678 48.7604 85.1562 48.1615 84.7852 47.7578C84.4141 47.3477 83.8997 47.1426 83.2422 47.1426ZM98.916 51.752H97.6562V56H95.2832V51.752H94.0332L91.6016 56H88.6914L92.1973 50.502L88.877 45.4336H91.7773L94.1699 49.584H95.2832V45.4336H97.6562V49.584H98.7793L101.182 45.4336H104.082L100.771 50.4727L104.297 56H101.348L98.916 51.752ZM112.363 45.4336H114.727V56H112.363V48.9492L108.223 56H105.859V45.4336H108.223V52.4844L112.363 45.4336ZM123.525 53.0801L126.65 45.4336H129.619V56H127.246V49.0078L124.336 56H122.725L119.805 48.9688V56H117.432V45.4336H120.42L123.525 53.0801Z" fill="white"/>
<path fill-rule="evenodd" clip-rule="evenodd" d="M338.2 51.1V55.6L340 57.4V58.3H325.6V57.4L327.4 55.6V51.1C327.4 48.328 328.867 46.024 331.45 45.412V44.8C331.45 44.053 332.053 43.45 332.8 43.45C333.547 43.45 334.15 44.053 334.15 44.8V45.412C336.724 46.024 338.2 48.337 338.2 51.1ZM334.6 59.2C334.6 60.19 333.79 61 332.8 61C331.801 61 331 60.19 331 59.2H334.6Z" fill="white"/>
<path fill-rule="evenodd" clip-rule="evenodd" d="M19 58H37V56H19V58ZM19 53H37V51H19V53ZM19 46V48H37V46H19Z" fill="white"/>
</g>
<path fill-rule="evenodd" clip-rule="evenodd" d="M0 0V24H360V0H0Z" fill="black" fill-opacity="0.1"/>
<path d="M323.627 17H322.447V9.17334L320.079 10.043V8.97656L323.443 7.71338H323.627V17ZM333.124 17H327.068V16.1558L330.267 12.6011C330.741 12.0636 331.067 11.6278 331.245 11.2935C331.427 10.9549 331.518 10.6058 331.518 10.2461C331.518 9.76367 331.372 9.368 331.08 9.05908C330.788 8.75016 330.398 8.5957 329.912 8.5957C329.328 8.5957 328.873 8.76286 328.547 9.09717C328.225 9.42725 328.064 9.88851 328.064 10.481H326.89C326.89 9.63037 327.163 8.94271 327.709 8.41797C328.259 7.89323 328.993 7.63086 329.912 7.63086C330.771 7.63086 331.45 7.85726 331.949 8.31006C332.449 8.75863 332.698 9.35742 332.698 10.1064C332.698 11.0163 332.118 12.0996 330.959 13.3564L328.483 16.0415H333.124V17ZM334.45 16.3843C334.45 16.1812 334.509 16.0119 334.628 15.8765C334.751 15.741 334.933 15.6733 335.174 15.6733C335.415 15.6733 335.597 15.741 335.72 15.8765C335.847 16.0119 335.91 16.1812 335.91 16.3843C335.91 16.5789 335.847 16.7419 335.72 16.873C335.597 17.0042 335.415 17.0698 335.174 17.0698C334.933 17.0698 334.751 17.0042 334.628 16.873C334.509 16.7419 334.45 16.5789 334.45 16.3843ZM334.457 10.7793C334.457 10.5762 334.516 10.4069 334.634 10.2715C334.757 10.1361 334.939 10.0684 335.18 10.0684C335.421 10.0684 335.603 10.1361 335.726 10.2715C335.853 10.4069 335.917 10.5762 335.917 10.7793C335.917 10.974 335.853 11.1369 335.726 11.2681C335.603 11.3993 335.421 11.4648 335.18 11.4648C334.939 11.4648 334.757 11.3993 334.634 11.2681C334.516 11.1369 334.457 10.974 334.457 10.7793ZM339.224 11.8076H340.106C340.66 11.7992 341.096 11.6532 341.414 11.3696C341.731 11.0861 341.89 10.7031 341.89 10.2207C341.89 9.13737 341.35 8.5957 340.271 8.5957C339.763 8.5957 339.357 8.7417 339.052 9.03369C338.752 9.32145 338.602 9.70443 338.602 10.1826H337.427C337.427 9.45052 337.694 8.84326 338.227 8.36084C338.764 7.87419 339.446 7.63086 340.271 7.63086C341.143 7.63086 341.826 7.86149 342.321 8.32275C342.816 8.78402 343.064 9.42513 343.064 10.2461C343.064 10.6481 342.933 11.0374 342.67 11.4141C342.412 11.7907 342.059 12.0721 341.61 12.2583C342.118 12.4191 342.51 12.6857 342.785 13.0581C343.064 13.4305 343.204 13.8854 343.204 14.4229C343.204 15.2523 342.933 15.9103 342.391 16.397C341.849 16.8836 341.145 17.127 340.277 17.127C339.41 17.127 338.703 16.8921 338.157 16.4224C337.616 15.9526 337.345 15.3327 337.345 14.5625H338.525C338.525 15.0492 338.684 15.4385 339.001 15.7305C339.319 16.0225 339.744 16.1685 340.277 16.1685C340.844 16.1685 341.278 16.0203 341.579 15.7241C341.879 15.4279 342.029 15.0026 342.029 14.4482C342.029 13.9108 341.864 13.4982 341.534 13.2104C341.204 12.9227 340.728 12.7746 340.106 12.7661H339.224V11.8076ZM350.611 13.0581C350.611 14.4334 350.376 15.4554 349.907 16.124C349.437 16.7926 348.703 17.127 347.704 17.127C346.718 17.127 345.988 16.8011 345.514 16.1494C345.04 15.4935 344.795 14.516 344.778 13.2168V11.6489C344.778 10.2905 345.013 9.28125 345.482 8.62109C345.952 7.96094 346.688 7.63086 347.691 7.63086C348.686 7.63086 349.418 7.95036 349.888 8.58936C350.357 9.22412 350.599 10.2059 350.611 11.5347V13.0581ZM349.437 11.4521C349.437 10.4577 349.297 9.73405 349.018 9.28125C348.739 8.82422 348.297 8.5957 347.691 8.5957C347.09 8.5957 346.653 8.8221 346.377 9.2749C346.102 9.7277 345.961 10.4238 345.952 11.3633V13.2422C345.952 14.2409 346.096 14.9793 346.384 15.4575C346.676 15.9315 347.116 16.1685 347.704 16.1685C348.284 16.1685 348.713 15.9442 348.993 15.4956C349.276 15.047 349.424 14.3403 349.437 13.3755V11.4521Z" fill="white"/>
<path fill-rule="evenodd" clip-rule="evenodd" d="M309 6H308V5H304V6H303C302.4 6 302 6.4 302 7V17C302 17.6 302.4 18 303 18H309C309.6 18 310 17.6 310 17V7C310 6.4 309.6 6 309 6Z" fill="white" fill-opacity="0.3"/>
<mask id="mask0" mask-type="alpha" maskUnits="userSpaceOnUse" x="302" y="5" width="8" height="13">
<path fill-rule="evenodd" clip-rule="evenodd" d="M309 6H308V5H304V6H303C302.4 6 302 6.4 302 7V17C302 17.6 302.4 18 303 18H309C309.6 18 310 17.6 310 17V7C310 6.4 309.6 6 309 6Z" fill="white"/>
</mask>
<g mask="url(#mask0)">
<path fill-rule="evenodd" clip-rule="evenodd" d="M302 15V12H310V15V18H302V15Z" fill="white" fill-opacity="0.9"/>
</g>
<path fill-rule="evenodd" clip-rule="evenodd" d="M288 18V6L276 18H288Z" fill="white" fill-opacity="0.3"/>
<mask id="mask1" mask-type="alpha" maskUnits="userSpaceOnUse" x="276" y="6" width="12" height="12">
<path fill-rule="evenodd" clip-rule="evenodd" d="M288 18V6L276 18H288Z" fill="white"/>
</mask>
<g mask="url(#mask1)">
<path fill-rule="evenodd" clip-rule="evenodd" d="M276 18V6H279H282V18H279H276Z" fill="white" fill-opacity="0.9"/>
</g>
<mask id="mask2" mask-type="alpha" maskUnits="userSpaceOnUse" x="250" y="6" width="16" height="12">
<path fill-rule="evenodd" clip-rule="evenodd" d="M250 6L258 18L266 6H250Z" fill="white"/>
</mask>
<g mask="url(#mask2)">
<path fill-rule="evenodd" clip-rule="evenodd" d="M258 6C251.4 6 246 11.4 246 18C246 24.6 251.4 30 258 30C264.6 30 270 24.6 270 18C270 11.4 264.6 6 258 6ZM258 27C253 27 249 23 249 18C249 13 253 9 258 9C263 9 267 13 267 18C267 23 263 27 258 27Z" fill="white" fill-opacity="0.3"/>
<path fill-rule="evenodd" clip-rule="evenodd" d="M258 27C262.971 27 267 22.9706 267 18C267 13.0294 262.971 9 258 9C253.029 9 249 13.0294 249 18C249 22.9706 253.029 27 258 27Z" fill="white" fill-opacity="0.9"/>
</g>
<path fill-rule="evenodd" clip-rule="evenodd" d="M0 0V24H360V0H0Z" fill="black" fill-opacity="0.2"/>
<path d="M323.627 17H322.447V9.17334L320.079 10.043V8.97656L323.443 7.71338H323.627V17ZM333.124 17H327.068V16.1558L330.267 12.6011C330.741 12.0636 331.067 11.6278 331.245 11.2935C331.427 10.9549 331.518 10.6058 331.518 10.2461C331.518 9.76367 331.372 9.368 331.08 9.05908C330.788 8.75016 330.398 8.5957 329.912 8.5957C329.328 8.5957 328.873 8.76286 328.547 9.09717C328.225 9.42725 328.064 9.88851 328.064 10.481H326.89C326.89 9.63037 327.163 8.94271 327.709 8.41797C328.259 7.89323 328.993 7.63086 329.912 7.63086C330.771 7.63086 331.45 7.85726 331.949 8.31006C332.449 8.75863 332.698 9.35742 332.698 10.1064C332.698 11.0163 332.118 12.0996 330.959 13.3564L328.483 16.0415H333.124V17ZM334.45 16.3843C334.45 16.1812 334.509 16.0119 334.628 15.8765C334.751 15.741 334.933 15.6733 335.174 15.6733C335.415 15.6733 335.597 15.741 335.72 15.8765C335.847 16.0119 335.91 16.1812 335.91 16.3843C335.91 16.5789 335.847 16.7419 335.72 16.873C335.597 17.0042 335.415 17.0698 335.174 17.0698C334.933 17.0698 334.751 17.0042 334.628 16.873C334.509 16.7419 334.45 16.5789 334.45 16.3843ZM334.457 10.7793C334.457 10.5762 334.516 10.4069 334.634 10.2715C334.757 10.1361 334.939 10.0684 335.18 10.0684C335.421 10.0684 335.603 10.1361 335.726 10.2715C335.853 10.4069 335.917 10.5762 335.917 10.7793C335.917 10.974 335.853 11.1369 335.726 11.2681C335.603 11.3993 335.421 11.4648 335.18 11.4648C334.939 11.4648 334.757 11.3993 334.634 11.2681C334.516 11.1369 334.457 10.974 334.457 10.7793ZM339.224 11.8076H340.106C340.66 11.7992 341.096 11.6532 341.414 11.3696C341.731 11.0861 341.89 10.7031 341.89 10.2207C341.89 9.13737 341.35 8.5957 340.271 8.5957C339.763 8.5957 339.357 8.7417 339.052 9.03369C338.752 9.32145 338.602 9.70443 338.602 10.1826H337.427C337.427 9.45052 337.694 8.84326 338.227 8.36084C338.764 7.87419 339.446 7.63086 340.271 7.63086C341.143 7.63086 341.826 7.86149 342.321 8.32275C342.816 8.78402 343.064 9.42513 343.064 10.2461C343.064 10.6481 342.933 11.0374 342.67 11.4141C342.412 11.7907 342.059 12.0721 341.61 12.2583C342.118 12.4191 342.51 12.6857 342.785 13.0581C343.064 13.4305 343.204 13.8854 343.204 14.4229C343.204 15.2523 342.933 15.9103 342.391 16.397C341.849 16.8836 341.145 17.127 340.277 17.127C339.41 17.127 338.703 16.8921 338.157 16.4224C337.616 15.9526 337.345 15.3327 337.345 14.5625H338.525C338.525 15.0492 338.684 15.4385 339.001 15.7305C339.319 16.0225 339.744 16.1685 340.277 16.1685C340.844 16.1685 341.278 16.0203 341.579 15.7241C341.879 15.4279 342.029 15.0026 342.029 14.4482C342.029 13.9108 341.864 13.4982 341.534 13.2104C341.204 12.9227 340.728 12.7746 340.106 12.7661H339.224V11.8076ZM350.611 13.0581C350.611 14.4334 350.376 15.4554 349.907 16.124C349.437 16.7926 348.703 17.127 347.704 17.127C346.718 17.127 345.988 16.8011 345.514 16.1494C345.04 15.4935 344.795 14.516 344.778 13.2168V11.6489C344.778 10.2905 345.013 9.28125 345.482 8.62109C345.952 7.96094 346.688 7.63086 347.691 7.63086C348.686 7.63086 349.418 7.95036 349.888 8.58936C350.357 9.22412 350.599 10.2059 350.611 11.5347V13.0581ZM349.437 11.4521C349.437 10.4577 349.297 9.73405 349.018 9.28125C348.739 8.82422 348.297 8.5957 347.691 8.5957C347.09 8.5957 346.653 8.8221 346.377 9.2749C346.102 9.7277 345.961 10.4238 345.952 11.3633V13.2422C345.952 14.2409 346.096 14.9793 346.384 15.4575C346.676 15.9315 347.116 16.1685 347.704 16.1685C348.284 16.1685 348.713 15.9442 348.993 15.4956C349.276 15.047 349.424 14.3403 349.437 13.3755V11.4521Z" fill="white"/>
<path fill-rule="evenodd" clip-rule="evenodd" d="M309 6H308V5H304V6H303C302.4 6 302 6.4 302 7V17C302 17.6 302.4 18 303 18H309C309.6 18 310 17.6 310 17V7C310 6.4 309.6 6 309 6Z" fill="white" fill-opacity="0.3"/>
<mask id="mask3" mask-type="alpha" maskUnits="userSpaceOnUse" x="302" y="5" width="8" height="13">
<path fill-rule="evenodd" clip-rule="evenodd" d="M309 6H308V5H304V6H303C302.4 6 302 6.4 302 7V17C302 17.6 302.4 18 303 18H309C309.6 18 310 17.6 310 17V7C310 6.4 309.6 6 309 6Z" fill="white"/>
</mask>
<g mask="url(#mask3)">
<path fill-rule="evenodd" clip-rule="evenodd" d="M302 15V12H310V15V18H302V15Z" fill="white" fill-opacity="0.9"/>
</g>
<path fill-rule="evenodd" clip-rule="evenodd" d="M288 18V6L276 18H288Z" fill="white" fill-opacity="0.3"/>
<mask id="mask4" mask-type="alpha" maskUnits="userSpaceOnUse" x="276" y="6" width="12" height="12">
<path fill-rule="evenodd" clip-rule="evenodd" d="M288 18V6L276 18H288Z" fill="white"/>
</mask>
<g mask="url(#mask4)">
<path fill-rule="evenodd" clip-rule="evenodd" d="M276 18V6H279H282V18H279H276Z" fill="white" fill-opacity="0.9"/>
</g>
<mask id="mask5" mask-type="alpha" maskUnits="userSpaceOnUse" x="250" y="6" width="16" height="12">
<path fill-rule="evenodd" clip-rule="evenodd" d="M250 6L258 18L266 6H250Z" fill="white"/>
</mask>
<g mask="url(#mask5)">
<path fill-rule="evenodd" clip-rule="evenodd" d="M258 6C251.4 6 246 11.4 246 18C246 24.6 251.4 30 258 30C264.6 30 270 24.6 270 18C270 11.4 264.6 6 258 6ZM258 27C253 27 249 23 249 18C249 13 253 9 258 9C263 9 267 13 267 18C267 23 263 27 258 27Z" fill="white" fill-opacity="0.3"/>
<path fill-rule="evenodd" clip-rule="evenodd" d="M258 27C262.971 27 267 22.9706 267 18C267 13.0294 262.971 9 258 9C253.029 9 249 13.0294 249 18C249 22.9706 253.029 27 258 27Z" fill="white" fill-opacity="0.9"/>
</g>
</g>
<g filter="url(#filter2_d)">
<g filter="url(#filter3_d)">
<rect x="1" y="570.5" width="360" height="70" fill="#1D1C1D"/>
</g>
<path fill-rule="evenodd" clip-rule="evenodd" d="M36.7143 596.5C35.7675 596.5 35 597.268 35 598.214V599.929C35 600.875 35.7675 601.643 36.7143 601.643H38.4286C39.3753 601.643 40.1429 600.875 40.1429 599.929V598.214C40.1429 597.268 39.3753 596.5 38.4286 596.5H36.7143ZM36.7143 609.357C35.7675 609.357 35 610.125 35 611.071V612.786C35 613.732 35.7675 614.5 36.7143 614.5H38.4286C39.3753 614.5 40.1429 613.732 40.1429 612.786V611.071C40.1429 610.125 39.3753 609.357 38.4286 609.357H36.7143ZM47.8571 598.214C47.8571 597.268 48.6247 596.5 49.5714 596.5H51.2857C52.2325 596.5 53 597.268 53 598.214V599.929C53 600.875 52.2325 601.643 51.2857 601.643H49.5714C48.6247 601.643 47.8571 600.875 47.8571 599.929V598.214ZM49.5714 609.357C48.6247 609.357 47.8571 610.125 47.8571 611.071V612.786C47.8571 613.732 48.6247 614.5 49.5714 614.5H51.2857C52.2325 614.5 53 613.732 53 612.786V611.071C53 610.125 52.2325 609.357 51.2857 609.357H49.5714Z" fill="#347CFF"/>
<path fill-rule="evenodd" clip-rule="evenodd" d="M258 596.5C259.657 596.5 261 597.843 261 599.5V611.5C261 613.157 259.657 614.5 258 614.5H246C244.343 614.5 243 613.157 243 611.5V599.5C243 597.843 244.343 596.5 246 596.5H258ZM258 597.8H246C245.111 597.8 244.381 598.483 244.306 599.353L244.3 599.5V611.5C244.3 612.389 244.983 613.119 245.853 613.194L246 613.2H258C258.889 613.2 259.619 612.517 259.694 611.647L259.7 611.5V599.5C259.7 598.611 259.017 597.881 258.147 597.806L258 597.8ZM246.969 600.982C246.638 600.982 246.369 601.251 246.369 601.582C246.369 601.913 246.638 602.182 246.969 602.182H256.769C257.1 602.182 257.369 601.913 257.369 601.582C257.369 601.251 257.1 600.982 256.769 600.982H246.969ZM246.369 605.582C246.369 605.251 246.638 604.982 246.969 604.982H256.769C257.1 604.982 257.369 605.251 257.369 605.582C257.369 605.913 257.1 606.182 256.769 606.182H246.969C246.638 606.182 246.369 605.913 246.369 605.582ZM246.969 608.982C246.638 608.982 246.369 609.251 246.369 609.582C246.369 609.913 246.638 610.182 246.969 610.182H256.769C257.1 610.182 257.369 609.913 257.369 609.582C257.369 609.251 257.1 608.982 256.769 608.982H246.969Z" fill="white"/>
<path fill-rule="evenodd" clip-rule="evenodd" d="M116.15 603.65C114.56 605.24 112.41 605.74 110.88 605.03L109.41 606.5L116.29 613.38L114.88 614.79L108 607.91L101.11 614.78L99.7 613.37L109.46 603.61C108.75 602.08 109.25 599.93 110.84 598.34C112.76 596.43 115.5 596.07 116.96 597.53C118.43 599 118.06 601.74 116.15 603.65ZM106.93 604.01L104.1 606.84L99.91 602.66C98.35 601.09 98.35 598.56 99.91 597L106.93 604.01Z" fill="white"/>
<path fill-rule="evenodd" clip-rule="evenodd" d="M319.766 596.896C320.261 596.401 321.042 596.37 321.573 596.803L321.676 596.896L325.613 600.833C326.143 601.363 326.138 602.217 325.613 602.743C325.333 603.022 324.961 603.153 324.595 603.136L325.1 603.639C325.63 604.17 325.624 605.025 325.102 605.547C324.618 606.031 323.817 606.062 323.293 605.638L323.192 605.547L321.053 603.409L314.908 609.554L317.047 611.692C317.541 612.186 317.572 612.969 317.139 613.5L317.047 613.602C316.564 614.085 315.763 614.114 315.24 613.691L315.139 613.6L314.633 613.094C314.653 613.461 314.522 613.833 314.242 614.113C313.758 614.597 312.957 614.627 312.433 614.204L312.333 614.113L308.396 610.176C307.866 609.645 307.871 608.792 308.396 608.266C308.675 607.987 309.047 607.856 309.413 607.872L308.909 607.369C308.377 606.838 308.386 605.982 308.907 605.462C309.402 604.967 310.183 604.936 310.714 605.369L310.817 605.462L312.954 607.6L319.099 601.454L316.962 599.317C316.467 598.822 316.436 598.04 316.869 597.51L316.962 597.407C317.488 596.88 318.342 596.882 318.869 597.409L319.374 597.913C319.356 597.547 319.487 597.175 319.766 596.896ZM309.653 608.919C309.486 608.752 309.215 608.753 309.049 608.919C308.903 609.065 308.883 609.289 308.993 609.456L309.049 609.523L312.985 613.46C313.141 613.616 313.434 613.616 313.59 613.46C313.735 613.315 313.753 613.088 313.644 612.923L313.59 612.856L309.653 608.919ZM310.164 606.115C309.996 605.947 309.727 605.947 309.559 606.115C309.416 606.257 309.397 606.483 309.506 606.649L309.562 606.717L315.792 612.947C315.948 613.103 316.24 613.103 316.394 612.949C316.54 612.804 316.558 612.578 316.449 612.412L316.394 612.345L310.164 606.115ZM319.349 602.51L314.01 607.85L314.659 608.499L319.998 603.159L319.349 602.51ZM318.217 598.062C318.049 597.894 317.78 597.894 317.614 598.06C317.468 598.206 317.449 598.431 317.559 598.597L317.614 598.664L323.845 604.894C324.001 605.05 324.293 605.05 324.449 604.895C324.592 604.751 324.612 604.526 324.502 604.36L324.447 604.292L318.217 598.062ZM321.023 597.549C320.856 597.381 320.586 597.381 320.419 597.549C320.273 597.694 320.255 597.921 320.364 598.086L320.419 598.153L324.356 602.09C324.522 602.256 324.794 602.256 324.96 602.09C325.106 601.944 325.125 601.719 325.015 601.553L324.96 601.485L321.023 597.549Z" fill="white"/>
<g filter="url(#filter4_dd)">
<path fill-rule="evenodd" clip-rule="evenodd" d="M181 633.5C196.464 633.5 209 620.964 209 605.5C209 590.036 196.464 577.5 181 577.5C165.536 577.5 153 590.036 153 605.5C153 620.964 165.536 633.5 181 633.5Z" fill="#347CFF"/>
<path d="M208.75 605.5C208.75 620.826 196.326 633.25 181 633.25C165.674 633.25 153.25 620.826 153.25 605.5C153.25 590.174 165.674 577.75 181 577.75C196.326 577.75 208.75 590.174 208.75 605.5Z" stroke="url(#paint0_linear)" stroke-width="0.5"/>
<path d="M208.75 605.5C208.75 620.826 196.326 633.25 181 633.25C165.674 633.25 153.25 620.826 153.25 605.5C153.25 590.174 165.674 577.75 181 577.75C196.326 577.75 208.75 590.174 208.75 605.5Z" stroke="url(#paint1_linear)" stroke-width="0.5"/>
</g>
<path fill-rule="evenodd" clip-rule="evenodd" d="M188 604.5H182V598.5H180V604.5H174V606.5H180V612.5H182V606.5H188V604.5Z" fill="white"/>
</g>
<g clip-path="url(#clip2)">
<g filter="url(#filter5_dd)">
<path fill-rule="evenodd" clip-rule="evenodd" d="M179.897 438.721C270.149 438.721 343.312 365.882 343.312 276.029C343.312 186.177 270.149 113.337 179.897 113.337C89.6454 113.337 16.4819 186.177 16.4819 276.029C16.4819 365.882 89.6454 438.721 179.897 438.721Z" fill="#1D1C1D"/>
</g>
<g clip-path="url(#clip3)">
<path d="M177.144 133.682C100.292 136.043 38.7151 199.086 38.7151 276.512C38.7151 304.932 47.0117 331.415 61.3152 353.669" stroke="#8416FF" stroke-opacity="0.3" stroke-width="3" stroke-linecap="round"/>
<path d="M38.7151 276.512C38.7151 304.932 47.0117 331.415 61.3152 353.669" stroke="#8416FF" stroke-width="8" stroke-linecap="round"/>
<g filter="url(#filter6_d)">
<path fill-rule="evenodd" clip-rule="evenodd" d="M38.8288 284.075C44.819 284.075 49.675 279.219 49.675 273.229C49.675 267.239 44.819 262.383 38.8288 262.383C32.8386 262.383 27.9827 267.239 27.9827 273.229C27.9827 279.219 32.8386 284.075 38.8288 284.075Z" fill="#8416FF"/>
</g>
<path fill-rule="evenodd" clip-rule="evenodd" d="M142.82 128.386L148.133 147.613C148.133 147.613 127.105 152.852 110.164 167.508C93.2238 182.165 96.2911 179.84 96.2911 179.84L79.9089 161.304C79.9089 161.304 92.0891 149.982 110.164 139.184C128.24 128.386 142.82 128.386 142.82 128.386Z" fill="#1D1C1D"/>
<path opacity="0.01" d="M92.0479 170.779C109.367 155.925 129.724 145.718 151.228 140.493" stroke="#0091FF" stroke-width="3" stroke-linecap="round"/>
<path opacity="0.5" d="M107.985 164.898L109.522 167.671L108.225 168.39L104.089 160.928L106.944 159.346C107.777 158.884 108.559 158.734 109.288 158.897C110.02 159.058 110.584 159.496 110.98 160.21C111.385 160.941 111.46 161.644 111.204 162.317C110.951 162.989 110.392 163.564 109.528 164.043L107.985 164.898ZM107.408 163.858L108.966 162.995C109.427 162.739 109.72 162.436 109.843 162.087C109.964 161.733 109.911 161.352 109.684 160.942C109.461 160.539 109.16 160.286 108.781 160.183C108.401 160.077 107.993 160.14 107.559 160.371L105.965 161.255L107.408 163.858ZM117.453 158.92L114.389 160.619L115.661 162.914L119.244 160.929L119.817 161.964L114.939 164.668L110.803 157.207L115.645 154.522L116.225 155.568L112.679 157.533L113.821 159.594L116.885 157.895L117.453 158.92ZM124.885 154.948L124.05 155.411L125.834 158.629L124.542 159.345L122.758 156.127L121.887 156.609L121.842 160.842L120.227 161.737L120.429 156.433L116.25 154.187L117.818 153.318L121.329 155.445L122.133 154.999L120.406 151.883L121.698 151.167L123.425 154.283L124.194 153.857L124.235 149.761L125.798 148.895L125.502 153.607L130.092 156.268L128.483 157.16L124.885 154.948ZM131.322 145.833L132.619 145.114L136.755 152.576L135.458 153.294L132.512 147.98L132.183 155.109L130.887 155.828L126.751 148.367L128.047 147.648L130.996 152.967L131.322 145.833ZM135.852 143.321L141.175 147.848L140.152 140.938L141.828 140.009L145.964 147.471L144.672 148.187L143.309 145.727L141.613 142.366L142.597 149.337L141.669 149.851L136.286 145.325L138.235 148.539L139.599 150.999L138.307 151.715L134.171 144.253L135.852 143.321Z" fill="white"/>
</g>
<g clip-path="url(#clip4)">
<path opacity="0.3" d="M297.074 358.324C312.426 336.377 321.769 309.917 322.716 281.332C322.769 279.732 322.796 278.125 322.796 276.512C322.796 201.754 265.389 140.404 192.254 134.14" stroke="#99E600" stroke-width="3" stroke-linecap="round"/>
<path d="M311.253 220.155C290.932 172.854 245.811 138.727 192.254 134.14" stroke="#99E600" stroke-width="8" stroke-linecap="round"/>
<g filter="url(#filter7_d)">
<path fill-rule="evenodd" clip-rule="evenodd" d="M309.259 226.229C315.249 226.229 320.105 221.373 320.105 215.383C320.105 209.393 315.249 204.537 309.259 204.537C303.269 204.537 298.413 209.393 298.413 215.383C298.413 221.373 303.269 226.229 309.259 226.229Z" fill="#99E600"/>
</g>
<path fill-rule="evenodd" clip-rule="evenodd" d="M312.883 335.524L295.198 326.297C295.198 326.297 305.707 307.345 306.541 284.959C307.376 262.574 309.259 258.023 309.259 258.023L333.988 258.684C333.988 258.684 331.687 283.693 327.256 304.277C322.826 324.86 312.883 335.524 312.883 335.524Z" fill="#1D1C1D"/>
<path opacity="0.01" d="M314.987 205.854C323.275 276.038 319.37 321.05 301.565 334.518C300.074 335.646 298.485 336.553 296.797 337.235C290.544 339.761 283.117 339.124 274.612 335.497" stroke="#99E600" stroke-width="3" stroke-linecap="round"/>
<path opacity="0.5" d="M334.021 274.362L333.815 272.9L326.551 273.921L326.028 270.202L333.293 269.181L333.087 267.719L324.639 268.906L325.573 275.55L334.021 274.362ZM326.55 282.501L326.756 283.969L335.204 282.782L334.998 281.314L328.981 282.159L334.477 277.606L334.271 276.138L325.822 277.325L326.029 278.793L332.051 277.947L326.55 282.501ZM329.02 291.491L328.65 288.856L335.914 287.835L335.71 286.379L328.445 287.4L328.078 284.789L326.895 284.955L327.836 291.657L329.02 291.491ZM335.041 295.893L334.581 292.62L336.452 291.659L336.237 290.133L328.238 294.512L328.423 295.829L337.32 297.839L337.105 296.307L335.041 295.893ZM333.455 293.199L333.799 295.647L330.123 294.915L333.455 293.199ZM338.398 305.509L338.193 304.047L334.439 304.575L333.908 300.797L337.662 300.27L337.456 298.802L329.007 299.989L329.214 301.457L332.73 300.963L333.261 304.74L329.745 305.235L329.95 306.697L338.398 305.509ZM330.922 313.613L331.129 315.081L339.577 313.894L339.37 312.426L333.353 313.271L338.849 308.718L338.643 307.25L330.195 308.437L330.401 309.905L336.424 309.059L330.922 313.613ZM336.746 321.12L336.259 317.65L338.858 317.285L339.428 321.34L340.6 321.176L339.824 315.652L331.376 316.839L332.146 322.322L333.33 322.156L332.766 318.141L335.098 317.813L335.586 321.283L336.746 321.12Z" fill="white"/>
</g>
<g clip-path="url(#clip5)">
<path opacity="0.3" d="M71.6565 367.598C97.8675 399.248 137.463 419.411 181.768 419.411C223.365 419.411 260.811 401.637 286.925 373.271" stroke="#D70010" stroke-width="3" stroke-linecap="round"/>
<path d="M200.806 417.871C234.713 413.357 264.863 396.953 286.925 372.988" stroke="#D70010" stroke-width="8" stroke-linecap="round"/>
<g filter="url(#filter8_d)">
<path fill-rule="evenodd" clip-rule="evenodd" d="M206.582 427.245C212.573 427.245 217.429 422.389 217.429 416.398C217.429 410.408 212.573 405.552 206.582 405.552C200.592 405.552 195.736 410.408 195.736 416.398C195.736 422.389 200.592 427.245 206.582 427.245Z" fill="#D70010"/>
</g>
<path fill-rule="evenodd" clip-rule="evenodd" d="M90.8324 400.1L102.146 383.672C102.146 383.672 109.239 391.48 131.356 395.036C153.472 398.592 186.42 409.2 186.42 409.2L182.751 433.664C182.751 433.664 129.548 420.148 109.658 413.242C89.7676 406.337 90.8324 400.1 90.8324 400.1Z" fill="#1D1C1D"/>
<path opacity="0.01" d="M182.435 415.865C153.576 415.204 124.644 405.819 99.8303 387.12" stroke="#D70010" stroke-width="3" stroke-linecap="round"/>
<path opacity="0.5" d="M172.431 393.281L173.753 392.8L173.035 390.829L178.316 388.907L179.033 390.878L180.377 390.389L179.298 387.29L178.654 387.524C178.223 387.332 177.804 386.977 177.4 386.459C176.994 385.938 176.628 385.314 176.301 384.589L174.798 381.108L169.743 382.948L172.256 389.853L171.238 390.223L172.431 393.281ZM177.079 388.097L173.644 389.348L171.539 383.566L173.88 382.715L174.833 384.924C175.482 386.397 176.23 387.454 177.079 388.097ZM170.596 391.716L167.678 383.7L164.931 384.7C164.024 385.03 163.4 385.463 163.059 385.998C162.718 386.534 162.678 387.162 162.94 387.881C163.074 388.248 163.293 388.542 163.598 388.764C163.903 388.985 164.276 389.107 164.716 389.13C164.326 389.405 164.073 389.749 163.957 390.161C163.836 390.571 163.858 391.003 164.024 391.459C164.298 392.211 164.75 392.701 165.382 392.928C166.01 393.157 166.773 393.108 167.673 392.781L170.596 391.716ZM167.887 388.606L168.798 391.111L167.251 391.674C166.814 391.833 166.434 391.849 166.109 391.722C165.784 391.595 165.552 391.339 165.411 390.954C165.108 390.12 165.379 389.54 166.224 389.211L167.887 388.606ZM167.514 387.582L166.148 388.079C165.715 388.237 165.342 388.262 165.029 388.156C164.711 388.047 164.486 387.813 164.355 387.453C164.211 387.057 164.221 386.729 164.384 386.47C164.544 386.212 164.863 385.997 165.34 385.823L166.694 385.33L167.514 387.582ZM155.653 388.076L154.26 388.583L157.178 396.6L158.571 396.093L156.493 390.383L162.089 394.813L163.482 394.306L160.565 386.289L159.172 386.796L161.252 392.511L155.653 388.076ZM147.925 396.052L148.822 395.726L150.081 399.183L151.468 398.678L150.21 395.221L151.146 394.88L154.37 397.622L156.104 396.991L151.969 393.664L153.016 389.036L151.331 389.65L150.633 393.695L149.769 394.009L148.55 390.662L147.163 391.167L148.381 394.514L147.556 394.815L144.437 392.159L142.758 392.77L146.509 395.639L145.505 400.849L147.234 400.219L147.925 396.052ZM138.664 399.286L141.956 398.087L142.854 400.554L139.005 401.955L139.41 403.067L144.652 401.159L141.734 393.143L136.531 395.036L136.94 396.16L140.75 394.773L141.555 396.986L138.263 398.185L138.664 399.286ZM131.911 405.797L133.299 405.292L132.002 401.729L135.586 400.425L136.883 403.987L138.276 403.48L135.358 395.463L133.965 395.97L135.179 399.307L131.595 400.612L130.381 397.275L128.993 397.78L131.911 405.797ZM122.43 400.169L121.037 400.676L123.955 408.693L125.348 408.185L123.27 402.476L128.866 406.905L130.259 406.398L127.341 398.381L125.948 398.888L128.028 404.603L122.43 400.169ZM116.298 407.426L119.591 406.228L120.489 408.695L116.64 410.095L117.045 411.208L122.286 409.3L119.369 401.283L114.165 403.177L114.574 404.3L118.384 402.913L119.19 405.127L115.897 406.325L116.298 407.426Z" fill="white"/>
</g>
<path fill-rule="evenodd" clip-rule="evenodd" d="M179.897 400.1C248.724 400.1 304.519 344.768 304.519 276.512C304.519 208.256 248.724 152.924 179.897 152.924C111.07 152.924 55.2749 208.256 55.2749 276.512C55.2749 344.768 111.07 400.1 179.897 400.1Z" fill="#1D1C1D"/>
<path d="M304.019 276.512C304.019 344.488 248.452 399.6 179.897 399.6C111.342 399.6 55.7749 344.488 55.7749 276.512C55.7749 208.536 111.342 153.424 179.897 153.424C248.452 153.424 304.019 208.536 304.019 276.512Z" stroke="#DFE1E5" stroke-opacity="0.1"/>
<g filter="url(#filter9_b)">
<rect x="56.3799" y="153.409" width="246.24" height="246.24" rx="123.12" fill="black" fill-opacity="0.09"/>
</g>
<path d="M134.077 275.42L135.811 258.404H153.296V262.412H139.491L138.46 271.717C140.132 270.732 142.03 270.24 144.155 270.24C147.264 270.24 149.733 271.271 151.561 273.334C153.389 275.381 154.303 278.154 154.303 281.654C154.303 285.17 153.35 287.943 151.444 289.974C149.553 291.99 146.905 292.998 143.499 292.998C140.483 292.998 138.022 292.162 136.116 290.49C134.21 288.818 133.124 286.506 132.858 283.553H136.96C137.225 285.506 137.921 286.982 139.046 287.982C140.171 288.967 141.655 289.459 143.499 289.459C145.514 289.459 147.093 288.771 148.233 287.396C149.389 286.021 149.968 284.123 149.968 281.701C149.968 279.42 149.343 277.592 148.093 276.217C146.858 274.826 145.21 274.131 143.147 274.131C141.257 274.131 139.772 274.545 138.694 275.373L137.546 276.31L134.077 275.42ZM160.35 295.459H156.624L170.874 258.404H174.577L160.35 295.459ZM193.96 292.529H188.288V265.131L179.921 267.99V263.185L193.233 258.287H193.96V292.529ZM228.061 278.162C228.061 283.068 227.139 286.771 225.296 289.271C223.468 291.756 220.678 292.998 216.928 292.998C213.241 292.998 210.46 291.787 208.585 289.365C206.725 286.928 205.772 283.326 205.725 278.56V272.654C205.725 267.748 206.639 264.068 208.468 261.615C210.311 259.162 213.116 257.935 216.882 257.935C220.616 257.935 223.397 259.131 225.225 261.521C227.069 263.912 228.014 267.49 228.061 272.256V278.162ZM222.366 271.787C222.366 268.584 221.928 266.24 221.053 264.756C220.178 263.256 218.788 262.506 216.882 262.506C215.022 262.506 213.655 263.217 212.78 264.639C211.905 266.045 211.444 268.248 211.397 271.248V278.982C211.397 282.17 211.843 284.545 212.733 286.107C213.624 287.67 215.022 288.451 216.928 288.451C218.757 288.451 220.108 287.732 220.983 286.295C221.858 284.842 222.319 282.576 222.366 279.498V271.787Z" fill="white"/>
</g>
<g clip-path="url(#clip6)">
<rect x="16" y="474.274" width="103.988" height="40" rx="5" stroke="#8416FF" stroke-width="2"/>
<path d="M47.5166 493.83V497H46.0342V488.469H49.2979C50.251 488.469 51.0068 488.717 51.5654 489.213C52.1279 489.709 52.4092 490.365 52.4092 491.182C52.4092 492.018 52.1338 492.668 51.583 493.133C51.0361 493.598 50.2686 493.83 49.2803 493.83H47.5166ZM47.5166 492.641H49.2979C49.8252 492.641 50.2275 492.518 50.5049 492.271C50.7822 492.021 50.9209 491.662 50.9209 491.193C50.9209 490.732 50.7803 490.365 50.499 490.092C50.2178 489.814 49.8311 489.672 49.3389 489.664H47.5166V492.641ZM58.6963 493.191H55.1924V495.816H59.2881V497H53.71V488.469H59.2471V489.664H55.1924V492.02H58.6963V493.191ZM67.1221 493.32H66.167V497H64.6904V493.32H63.6943L61.6025 497H59.7568L62.5049 492.459L59.9385 488.469H61.7314L63.7705 492.031H64.6904V488.469H66.167V492.031H67.0459L69.0674 488.469H70.8545L68.3115 492.447L71.0361 497H69.1963L67.1221 493.32ZM77.1709 488.469H78.6533V497H77.1709V490.924L73.4268 497H71.9443V488.469H73.4268V494.551L77.1709 488.469ZM82.3506 488.469L84.8115 495.008L87.2666 488.469H89.1826V497H87.7061V494.188L87.8525 490.426L85.333 497H84.2725L81.7588 490.432L81.9053 494.188V497H80.4287V488.469H82.3506Z" fill="white"/>
</g>
<g clip-path="url(#clip7)">
<rect x="128.506" y="474.274" width="103.988" height="40" rx="5" stroke="#99E600" stroke-width="2"/>
<path d="M160.117 496.774H158.641V489.438H154.885V496.774H153.408V488.242H160.117V496.774ZM167.137 488.242H168.619V496.774H167.137V490.697L163.393 496.774H161.91V488.242H163.393V494.324L167.137 488.242ZM176.383 489.438H173.723V496.774H172.252V489.438H169.615V488.242H176.383V489.438ZM181.58 494.787H178.275L177.584 496.774H176.043L179.266 488.242H180.596L183.824 496.774H182.277L181.58 494.787ZM178.691 493.592H181.164L179.928 490.053L178.691 493.592ZM191.57 496.774H190.094V492.983H186.279V496.774H184.797V488.242H186.279V491.793H190.094V488.242H191.57V496.774ZM198.555 488.242H200.037V496.774H198.555V490.697L194.811 496.774H193.328V488.242H194.811V494.324L198.555 488.242ZM206.799 492.965H203.295V495.59H207.391V496.774H201.812V488.242H207.35V489.438H203.295V491.793H206.799V492.965Z" fill="white"/>
</g>
<g clip-path="url(#clip8)">
<rect x="241.012" y="474.274" width="103.988" height="40" rx="5" stroke="#D70010" stroke-width="2"/>
<path d="M268.88 499.098H267.474V497H261.854V499.098H260.425L260.378 495.816H261.063C261.403 495.488 261.675 495.012 261.878 494.387C262.081 493.758 262.212 493.047 262.271 492.254L262.493 488.469H267.872V495.816H268.956L268.88 499.098ZM262.739 495.816H266.396V489.664H263.905L263.765 492.066C263.659 493.672 263.317 494.922 262.739 495.816ZM270.069 497V488.469H272.993C273.958 488.469 274.692 488.662 275.196 489.049C275.7 489.436 275.952 490.012 275.952 490.777C275.952 491.168 275.847 491.52 275.636 491.832C275.425 492.145 275.116 492.387 274.71 492.559C275.171 492.684 275.526 492.92 275.776 493.268C276.03 493.611 276.157 494.025 276.157 494.51C276.157 495.311 275.899 495.926 275.384 496.355C274.872 496.785 274.138 497 273.181 497H270.069ZM271.552 493.15V495.816H273.198C273.663 495.816 274.026 495.701 274.288 495.471C274.55 495.24 274.681 494.92 274.681 494.51C274.681 493.623 274.228 493.17 273.321 493.15H271.552ZM271.552 492.061H273.005C273.466 492.061 273.825 491.957 274.083 491.75C274.345 491.539 274.476 491.242 274.476 490.859C274.476 490.438 274.354 490.133 274.112 489.945C273.874 489.758 273.501 489.664 272.993 489.664H271.552V492.061ZM282.866 488.469H284.349V497H282.866V490.924L279.122 497H277.64V488.469H279.122V494.551L282.866 488.469ZM292.856 493.32H291.901V497H290.425V493.32H289.429L287.337 497H285.491L288.239 492.459L285.673 488.469H287.466L289.505 492.031H290.425V488.469H291.901V492.031H292.78L294.802 488.469H296.589L294.046 492.447L296.771 497H294.931L292.856 493.32ZM302.665 493.191H299.161V495.816H303.257V497H297.679V488.469H303.216V489.664H299.161V492.02H302.665V493.191ZM311.237 497H309.761V493.209H305.946V497H304.464V488.469H305.946V492.02H309.761V488.469H311.237V497ZM318.222 488.469H319.704V497H318.222V490.924L314.478 497H312.995V488.469H314.478V494.551L318.222 488.469ZM326.466 493.191H322.962V495.816H327.058V497H321.479V488.469H327.017V489.664H322.962V492.02H326.466V493.191Z" fill="white"/>
</g>
<g filter="url(#filter10_b)">
<rect width="360" height="639" fill="black" fill-opacity="0.09"/>
</g>
<g filter="url(#filter11_dd)">
<path fill-rule="evenodd" clip-rule="evenodd" d="M180.997 458.333C199.59 458.333 214.663 443.26 214.663 424.667C214.663 406.073 199.59 391 180.997 391C162.403 391 147.33 406.073 147.33 424.667C147.33 443.26 162.403 458.333 180.997 458.333Z" fill="#D70010"/>
<path d="M214.413 424.667C214.413 443.122 199.452 458.083 180.997 458.083C162.541 458.083 147.58 443.122 147.58 424.667C147.58 406.211 162.541 391.25 180.997 391.25C199.452 391.25 214.413 406.211 214.413 424.667Z" stroke="url(#paint2_linear)" stroke-width="0.5"/>
<path d="M214.413 424.667C214.413 443.122 199.452 458.083 180.997 458.083C162.541 458.083 147.58 443.122 147.58 424.667C147.58 406.211 162.541 391.25 180.997 391.25C199.452 391.25 214.413 406.211 214.413 424.667Z" stroke="url(#paint3_linear)" stroke-width="0.5"/>
</g>
<path fill-rule="evenodd" clip-rule="evenodd" d="M185.403 413.91C185.403 415.299 184.267 416.435 182.878 416.435C181.489 416.435 180.353 415.299 180.353 413.91C180.353 412.521 181.489 411.385 182.878 411.385C184.267 411.385 185.403 412.521 185.403 413.91ZM179.595 428.429L178.333 433.984L169.495 432.216L170 429.691L176.187 430.954L178.207 420.728L175.934 421.611V425.904H173.409V419.97L179.974 417.193C180.163 417.193 180.321 417.161 180.479 417.13C180.637 417.098 180.795 417.066 180.984 417.066C181.868 417.066 182.625 417.571 183.13 418.329L184.393 420.349C185.403 422.116 187.423 423.379 189.822 423.379V425.904C187.044 425.904 184.519 424.641 182.878 422.748L182.12 426.535L184.772 429.06V438.529H182.247V430.954L179.595 428.429Z" fill="white"/>
<g filter="url(#filter12_dd)">
<path fill-rule="evenodd" clip-rule="evenodd" d="M268.527 492C287.12 492 302.193 476.927 302.193 458.333C302.193 439.74 287.12 424.667 268.527 424.667C249.933 424.667 234.86 439.74 234.86 458.333C234.86 476.927 249.933 492 268.527 492Z" fill="#92E300"/>
<path d="M301.943 458.333C301.943 476.789 286.982 491.75 268.527 491.75C250.071 491.75 235.11 476.789 235.11 458.333C235.11 439.878 250.071 424.917 268.527 424.917C286.982 424.917 301.943 439.878 301.943 458.333Z" stroke="url(#paint4_linear)" stroke-width="0.5"/>
<path d="M301.943 458.333C301.943 476.789 286.982 491.75 268.527 491.75C250.071 491.75 235.11 476.789 235.11 458.333C235.11 439.878 250.071 424.917 268.527 424.917C286.982 424.917 301.943 439.878 301.943 458.333Z" stroke="url(#paint5_linear)" stroke-width="0.5"/>
</g>
<path fill-rule="evenodd" clip-rule="evenodd" d="M278.816 455.998C276.809 458.005 274.094 458.636 272.163 457.74L270.307 459.596L278.993 468.282L277.213 470.062L268.527 461.376L259.828 470.049L258.048 468.269L270.37 455.947C269.474 454.016 270.105 451.301 272.112 449.294C274.536 446.882 277.995 446.428 279.839 448.271C281.695 450.127 281.227 453.586 278.816 455.998ZM267.176 456.452L263.603 460.025L258.313 454.748C256.344 452.766 256.344 449.572 258.313 447.602L267.176 456.452Z" fill="white"/>
<g filter="url(#filter13_dd)">
<path fill-rule="evenodd" clip-rule="evenodd" d="M93.4667 492C112.06 492 127.133 476.927 127.133 458.333C127.133 439.74 112.06 424.667 93.4667 424.667C74.8731 424.667 59.8 439.74 59.8 458.333C59.8 476.927 74.8731 492 93.4667 492Z" fill="#347CFF"/>
<path d="M126.883 458.333C126.883 476.789 111.922 491.75 93.4667 491.75C75.0112 491.75 60.05 476.789 60.05 458.333C60.05 439.878 75.0112 424.917 93.4667 424.917C111.922 424.917 126.883 439.878 126.883 458.333Z" stroke="url(#paint6_linear)" stroke-width="0.5"/>
<path d="M126.883 458.333C126.883 476.789 111.922 491.75 93.4667 491.75C75.0112 491.75 60.05 476.789 60.05 458.333C60.05 439.878 75.0112 424.917 93.4667 424.917C111.922 424.917 126.883 439.878 126.883 458.333Z" stroke="url(#paint7_linear)" stroke-width="0.5"/>
</g>
<path fill-rule="evenodd" clip-rule="evenodd" d="M91.9112 450.556V444.333H93.4668C101.198 444.333 107.467 450.602 107.467 458.333C107.467 466.064 101.198 472.333 93.4668 472.333C85.7201 472.333 79.4668 466.064 79.4668 458.333C79.4668 453.744 81.6757 449.7 85.0824 447.149V447.118L95.6601 457.696L93.4668 459.889L85.0357 451.458C83.4957 453.324 82.5779 455.72 82.5779 458.333C82.5779 464.353 87.4468 469.222 93.4668 469.222C99.4868 469.222 104.356 464.353 104.356 458.333C104.356 452.842 100.296 448.331 95.0224 447.569V450.556H91.9112ZM93.4668 467.667C92.6112 467.667 91.9112 466.967 91.9112 466.111C91.9112 465.256 92.6112 464.556 93.4668 464.556C94.3224 464.556 95.0224 465.256 95.0224 466.111C95.0224 466.967 94.3224 467.667 93.4668 467.667ZM102.8 458.333C102.8 457.478 102.1 456.778 101.245 456.778C100.389 456.778 99.689 457.478 99.689 458.333C99.689 459.189 100.389 459.889 101.245 459.889C102.1 459.889 102.8 459.189 102.8 458.333ZM85.689 459.889C84.8335 459.889 84.1335 459.189 84.1335 458.333C84.1335 457.478 84.8335 456.778 85.689 456.778C86.5446 456.778 87.2446 457.478 87.2446 458.333C87.2446 459.189 86.5446 459.889 85.689 459.889Z" fill="white"/>
<g filter="url(#filter14_dd)">
<path fill-rule="evenodd" clip-rule="evenodd" d="M180.997 633C196.461 633 208.997 620.464 208.997 605C208.997 589.536 196.461 577 180.997 577C165.533 577 152.997 589.536 152.997 605C152.997 620.464 165.533 633 180.997 633Z" fill="#347CFF"/>
<path d="M208.747 605C208.747 620.326 196.322 632.75 180.997 632.75C165.671 632.75 153.247 620.326 153.247 605C153.247 589.674 165.671 577.25 180.997 577.25C196.322 577.25 208.747 589.674 208.747 605Z" stroke="url(#paint8_linear)" stroke-width="0.5"/>
<path d="M208.747 605C208.747 620.326 196.322 632.75 180.997 632.75C165.671 632.75 153.247 620.326 153.247 605C153.247 589.674 165.671 577.25 180.997 577.25C196.322 577.25 208.747 589.674 208.747 605Z" stroke="url(#paint9_linear)" stroke-width="0.5"/>
</g>
<path fill-rule="evenodd" clip-rule="evenodd" d="M187.997 599.41L186.587 598L180.997 603.59L175.407 598L173.997 599.41L179.587 605L173.997 610.59L175.407 612L180.997 606.41L186.587 612L187.997 610.59L182.407 605L187.997 599.41Z" fill="white"/>
</g>
<defs>
<filter id="filter0_d" x="-4" y="0" width="368" height="88" filterUnits="userSpaceOnUse" color-interpolation-filters="sRGB">
<feFlood flood-opacity="0" result="BackgroundImageFix"/>
<feColorMatrix in="SourceAlpha" type="matrix" values="0 0 0 0 0 0 0 0 0 0 0 0 0 0 0 0 0 0 127 0"/>
<feOffset dy="4"/>
<feGaussianBlur stdDeviation="2"/>
<feColorMatrix type="matrix" values="0 0 0 0 0 0 0 0 0 0 0 0 0 0 0 0 0 0 0.25 0"/>
<feBlend mode="normal" in2="BackgroundImageFix" result="effect1_dropShadow"/>
<feBlend mode="normal" in="SourceGraphic" in2="effect1_dropShadow" result="shape"/>
</filter>
<filter id="filter1_dd" x="-4" y="-4" width="368" height="92" filterUnits="userSpaceOnUse" color-interpolation-filters="sRGB">
<feFlood flood-opacity="0" result="BackgroundImageFix"/>
<feColorMatrix in="SourceAlpha" type="matrix" values="0 0 0 0 0 0 0 0 0 0 0 0 0 0 0 0 0 0 127 0"/>
<feOffset dy="4"/>
<feGaussianBlur stdDeviation="2"/>
<feColorMatrix type="matrix" values="0 0 0 0 0 0 0 0 0 0 0 0 0 0 0 0 0 0 0.24 0"/>
<feBlend mode="normal" in2="BackgroundImageFix" result="effect1_dropShadow"/>
<feColorMatrix in="SourceAlpha" type="matrix" values="0 0 0 0 0 0 0 0 0 0 0 0 0 0 0 0 0 0 127 0"/>
<feOffset/>
<feGaussianBlur stdDeviation="2"/>
<feColorMatrix type="matrix" values="0 0 0 0 0 0 0 0 0 0 0 0 0 0 0 0 0 0 0.12 0"/>
<feBlend mode="normal" in2="effect1_dropShadow" result="effect2_dropShadow"/>
<feBlend mode="normal" in="SourceGraphic" in2="effect2_dropShadow" result="shape"/>
</filter>
<filter id="filter2_d" x="-3" y="562.5" width="368" height="78" filterUnits="userSpaceOnUse" color-interpolation-filters="sRGB">
<feFlood flood-opacity="0" result="BackgroundImageFix"/>
<feColorMatrix in="SourceAlpha" type="matrix" values="0 0 0 0 0 0 0 0 0 0 0 0 0 0 0 0 0 0 127 0"/>
<feOffset dy="-4"/>
<feGaussianBlur stdDeviation="2"/>
<feColorMatrix type="matrix" values="0 0 0 0 0 0 0 0 0 0 0 0 0 0 0 0 0 0 0.25 0"/>
<feBlend mode="normal" in2="BackgroundImageFix" result="effect1_dropShadow"/>
<feBlend mode="normal" in="SourceGraphic" in2="effect1_dropShadow" result="shape"/>
</filter>
<filter id="filter3_d" x="-3" y="567.5" width="368" height="78" filterUnits="userSpaceOnUse" color-interpolation-filters="sRGB">
<feFlood flood-opacity="0" result="BackgroundImageFix"/>
<feColorMatrix in="SourceAlpha" type="matrix" values="0 0 0 0 0 0 0 0 0 0 0 0 0 0 0 0 0 0 127 0"/>
<feOffset dy="1"/>
<feGaussianBlur stdDeviation="2"/>
<feColorMatrix type="matrix" values="0 0 0 0 0 0 0 0 0 0 0 0 0 0 0 0 0 0 0.4 0"/>
<feBlend mode="normal" in2="BackgroundImageFix" result="effect1_dropShadow"/>
<feBlend mode="normal" in="SourceGraphic" in2="effect1_dropShadow" result="shape"/>
</filter>
<filter id="filter4_dd" x="147" y="574.5" width="68" height="68" filterUnits="userSpaceOnUse" color-interpolation-filters="sRGB">
<feFlood flood-opacity="0" result="BackgroundImageFix"/>
<feColorMatrix in="SourceAlpha" type="matrix" values="0 0 0 0 0 0 0 0 0 0 0 0 0 0 0 0 0 0 127 0"/>
<feOffset dy="3"/>
<feGaussianBlur stdDeviation="3"/>
<feColorMatrix type="matrix" values="0 0 0 0 0 0 0 0 0 0 0 0 0 0 0 0 0 0 0.16 0"/>
<feBlend mode="normal" in2="BackgroundImageFix" result="effect1_dropShadow"/>
<feColorMatrix in="SourceAlpha" type="matrix" values="0 0 0 0 0 0 0 0 0 0 0 0 0 0 0 0 0 0 127 0"/>
<feOffset dy="3"/>
<feGaussianBlur stdDeviation="3"/>
<feColorMatrix type="matrix" values="0 0 0 0 0 0 0 0 0 0 0 0 0 0 0 0 0 0 0.23 0"/>
<feBlend mode="normal" in2="effect1_dropShadow" result="effect2_dropShadow"/>
<feBlend mode="normal" in="SourceGraphic" in2="effect2_dropShadow" result="shape"/>
</filter>
<filter id="filter5_dd" x="14.4819" y="111.337" width="330.83" height="331.384" filterUnits="userSpaceOnUse" color-interpolation-filters="sRGB">
<feFlood flood-opacity="0" result="BackgroundImageFix"/>
<feColorMatrix in="SourceAlpha" type="matrix" values="0 0 0 0 0 0 0 0 0 0 0 0 0 0 0 0 0 0 127 0"/>
<feOffset dy="2"/>
<feGaussianBlur stdDeviation="1"/>
<feColorMatrix type="matrix" values="0 0 0 0 0 0 0 0 0 0 0 0 0 0 0 0 0 0 0.24 0"/>
<feBlend mode="normal" in2="BackgroundImageFix" result="effect1_dropShadow"/>
<feColorMatrix in="SourceAlpha" type="matrix" values="0 0 0 0 0 0 0 0 0 0 0 0 0 0 0 0 0 0 127 0"/>
<feOffset/>
<feGaussianBlur stdDeviation="1"/>
<feColorMatrix type="matrix" values="0 0 0 0 0 0 0 0 0 0 0 0 0 0 0 0 0 0 0.12 0"/>
<feBlend mode="normal" in2="effect1_dropShadow" result="effect2_dropShadow"/>
<feBlend mode="normal" in="SourceGraphic" in2="effect2_dropShadow" result="shape"/>
</filter>
<filter id="filter6_d" x="23.9827" y="260.383" width="29.6923" height="29.6923" filterUnits="userSpaceOnUse" color-interpolation-filters="sRGB">
<feFlood flood-opacity="0" result="BackgroundImageFix"/>
<feColorMatrix in="SourceAlpha" type="matrix" values="0 0 0 0 0 0 0 0 0 0 0 0 0 0 0 0 0 0 127 0"/>
<feOffset dy="2"/>
<feGaussianBlur stdDeviation="2"/>
<feColorMatrix type="matrix" values="0 0 0 0 0 0 0 0 0 0 0 0 0 0 0 0 0 0 0.5 0"/>
<feBlend mode="normal" in2="BackgroundImageFix" result="effect1_dropShadow"/>
<feBlend mode="normal" in="SourceGraphic" in2="effect1_dropShadow" result="shape"/>
</filter>
<filter id="filter7_d" x="294.413" y="202.537" width="29.6923" height="29.6923" filterUnits="userSpaceOnUse" color-interpolation-filters="sRGB">
<feFlood flood-opacity="0" result="BackgroundImageFix"/>
<feColorMatrix in="SourceAlpha" type="matrix" values="0 0 0 0 0 0 0 0 0 0 0 0 0 0 0 0 0 0 127 0"/>
<feOffset dy="2"/>
<feGaussianBlur stdDeviation="2"/>
<feColorMatrix type="matrix" values="0 0 0 0 0 0 0 0 0 0 0 0 0 0 0 0 0 0 0.5 0"/>
<feBlend mode="normal" in2="BackgroundImageFix" result="effect1_dropShadow"/>
<feBlend mode="normal" in="SourceGraphic" in2="effect1_dropShadow" result="shape"/>
</filter>
<filter id="filter8_d" x="191.736" y="403.552" width="29.6923" height="29.6923" filterUnits="userSpaceOnUse" color-interpolation-filters="sRGB">
<feFlood flood-opacity="0" result="BackgroundImageFix"/>
<feColorMatrix in="SourceAlpha" type="matrix" values="0 0 0 0 0 0 0 0 0 0 0 0 0 0 0 0 0 0 127 0"/>
<feOffset dy="2"/>
<feGaussianBlur stdDeviation="2"/>
<feColorMatrix type="matrix" values="0 0 0 0 0 0 0 0 0 0 0 0 0 0 0 0 0 0 0.5 0"/>
<feBlend mode="normal" in2="BackgroundImageFix" result="effect1_dropShadow"/>
<feBlend mode="normal" in="SourceGraphic" in2="effect1_dropShadow" result="shape"/>
</filter>
<filter id="filter9_b" x="26.4788" y="123.508" width="306.042" height="306.042" filterUnits="userSpaceOnUse" color-interpolation-filters="sRGB">
<feFlood flood-opacity="0" result="BackgroundImageFix"/>
<feGaussianBlur in="BackgroundImage" stdDeviation="14.9506"/>
<feComposite in2="SourceAlpha" operator="in" result="effect1_backgroundBlur"/>
<feBlend mode="normal" in="SourceGraphic" in2="effect1_backgroundBlur" result="shape"/>
</filter>
<filter id="filter10_b" x="-29.9011" y="-29.9011" width="419.802" height="698.802" filterUnits="userSpaceOnUse" color-interpolation-filters="sRGB">
<feFlood flood-opacity="0" result="BackgroundImageFix"/>
<feGaussianBlur in="BackgroundImage" stdDeviation="14.9506"/>
<feComposite in2="SourceAlpha" operator="in" result="effect1_backgroundBlur"/>
<feBlend mode="normal" in="SourceGraphic" in2="effect1_backgroundBlur" result="shape"/>
</filter>
<filter id="filter11_dd" x="141.33" y="388" width="79.3333" height="79.3333" filterUnits="userSpaceOnUse" color-interpolation-filters="sRGB">
<feFlood flood-opacity="0" result="BackgroundImageFix"/>
<feColorMatrix in="SourceAlpha" type="matrix" values="0 0 0 0 0 0 0 0 0 0 0 0 0 0 0 0 0 0 127 0"/>
<feOffset dy="3"/>
<feGaussianBlur stdDeviation="3"/>
<feColorMatrix type="matrix" values="0 0 0 0 0 0 0 0 0 0 0 0 0 0 0 0 0 0 0.16 0"/>
<feBlend mode="normal" in2="BackgroundImageFix" result="effect1_dropShadow"/>
<feColorMatrix in="SourceAlpha" type="matrix" values="0 0 0 0 0 0 0 0 0 0 0 0 0 0 0 0 0 0 127 0"/>
<feOffset dy="3"/>
<feGaussianBlur stdDeviation="3"/>
<feColorMatrix type="matrix" values="0 0 0 0 0 0 0 0 0 0 0 0 0 0 0 0 0 0 0.23 0"/>
<feBlend mode="normal" in2="effect1_dropShadow" result="effect2_dropShadow"/>
<feBlend mode="normal" in="SourceGraphic" in2="effect2_dropShadow" result="shape"/>
</filter>
<filter id="filter12_dd" x="228.86" y="421.667" width="79.3333" height="79.3333" filterUnits="userSpaceOnUse" color-interpolation-filters="sRGB">
<feFlood flood-opacity="0" result="BackgroundImageFix"/>
<feColorMatrix in="SourceAlpha" type="matrix" values="0 0 0 0 0 0 0 0 0 0 0 0 0 0 0 0 0 0 127 0"/>
<feOffset dy="3"/>
<feGaussianBlur stdDeviation="3"/>
<feColorMatrix type="matrix" values="0 0 0 0 0 0 0 0 0 0 0 0 0 0 0 0 0 0 0.16 0"/>
<feBlend mode="normal" in2="BackgroundImageFix" result="effect1_dropShadow"/>
<feColorMatrix in="SourceAlpha" type="matrix" values="0 0 0 0 0 0 0 0 0 0 0 0 0 0 0 0 0 0 127 0"/>
<feOffset dy="3"/>
<feGaussianBlur stdDeviation="3"/>
<feColorMatrix type="matrix" values="0 0 0 0 0 0 0 0 0 0 0 0 0 0 0 0 0 0 0.23 0"/>
<feBlend mode="normal" in2="effect1_dropShadow" result="effect2_dropShadow"/>
<feBlend mode="normal" in="SourceGraphic" in2="effect2_dropShadow" result="shape"/>
</filter>
<filter id="filter13_dd" x="53.8" y="421.667" width="79.3333" height="79.3333" filterUnits="userSpaceOnUse" color-interpolation-filters="sRGB">
<feFlood flood-opacity="0" result="BackgroundImageFix"/>
<feColorMatrix in="SourceAlpha" type="matrix" values="0 0 0 0 0 0 0 0 0 0 0 0 0 0 0 0 0 0 127 0"/>
<feOffset dy="3"/>
<feGaussianBlur stdDeviation="3"/>
<feColorMatrix type="matrix" values="0 0 0 0 0 0 0 0 0 0 0 0 0 0 0 0 0 0 0.16 0"/>
<feBlend mode="normal" in2="BackgroundImageFix" result="effect1_dropShadow"/>
<feColorMatrix in="SourceAlpha" type="matrix" values="0 0 0 0 0 0 0 0 0 0 0 0 0 0 0 0 0 0 127 0"/>
<feOffset dy="3"/>
<feGaussianBlur stdDeviation="3"/>
<feColorMatrix type="matrix" values="0 0 0 0 0 0 0 0 0 0 0 0 0 0 0 0 0 0 0.23 0"/>
<feBlend mode="normal" in2="effect1_dropShadow" result="effect2_dropShadow"/>
<feBlend mode="normal" in="SourceGraphic" in2="effect2_dropShadow" result="shape"/>
</filter>
<filter id="filter14_dd" x="146.997" y="574" width="68" height="68" filterUnits="userSpaceOnUse" color-interpolation-filters="sRGB">
<feFlood flood-opacity="0" result="BackgroundImageFix"/>
<feColorMatrix in="SourceAlpha" type="matrix" values="0 0 0 0 0 0 0 0 0 0 0 0 0 0 0 0 0 0 127 0"/>
<feOffset dy="3"/>
<feGaussianBlur stdDeviation="3"/>
<feColorMatrix type="matrix" values="0 0 0 0 0 0 0 0 0 0 0 0 0 0 0 0 0 0 0.16 0"/>
<feBlend mode="normal" in2="BackgroundImageFix" result="effect1_dropShadow"/>
<feColorMatrix in="SourceAlpha" type="matrix" values="0 0 0 0 0 0 0 0 0 0 0 0 0 0 0 0 0 0 127 0"/>
<feOffset dy="3"/>
<feGaussianBlur stdDeviation="3"/>
<feColorMatrix type="matrix" values="0 0 0 0 0 0 0 0 0 0 0 0 0 0 0 0 0 0 0.23 0"/>
<feBlend mode="normal" in2="effect1_dropShadow" result="effect2_dropShadow"/>
<feBlend mode="normal" in="SourceGraphic" in2="effect2_dropShadow" result="shape"/>
</filter>
<linearGradient id="paint0_linear" x1="153.274" y1="577.5" x2="153.274" y2="632.952" gradientUnits="userSpaceOnUse">
<stop stop-opacity="0.01"/>
<stop offset="0.8" stop-opacity="0.02"/>
<stop offset="1" stop-opacity="0.04"/>
</linearGradient>
<linearGradient id="paint1_linear" x1="153" y1="577.5" x2="153" y2="633.5" gradientUnits="userSpaceOnUse">
<stop stop-color="white" stop-opacity="0.12"/>
<stop offset="0.2" stop-color="white" stop-opacity="0.06"/>
<stop offset="1" stop-color="white" stop-opacity="0.01"/>
</linearGradient>
<linearGradient id="paint2_linear" x1="147.66" y1="391" x2="147.66" y2="457.674" gradientUnits="userSpaceOnUse">
<stop stop-opacity="0.01"/>
<stop offset="0.8" stop-opacity="0.02"/>
<stop offset="1" stop-opacity="0.04"/>
</linearGradient>
<linearGradient id="paint3_linear" x1="147.33" y1="391" x2="147.33" y2="458.333" gradientUnits="userSpaceOnUse">
<stop stop-color="white" stop-opacity="0.12"/>
<stop offset="0.2" stop-color="white" stop-opacity="0.06"/>
<stop offset="1" stop-color="white" stop-opacity="0.01"/>
</linearGradient>
<linearGradient id="paint4_linear" x1="235.19" y1="424.667" x2="235.19" y2="491.341" gradientUnits="userSpaceOnUse">
<stop stop-opacity="0.01"/>
<stop offset="0.8" stop-opacity="0.02"/>
<stop offset="1" stop-opacity="0.04"/>
</linearGradient>
<linearGradient id="paint5_linear" x1="234.86" y1="424.667" x2="234.86" y2="492" gradientUnits="userSpaceOnUse">
<stop stop-color="white" stop-opacity="0.12"/>
<stop offset="0.2" stop-color="white" stop-opacity="0.06"/>
<stop offset="1" stop-color="white" stop-opacity="0.01"/>
</linearGradient>
<linearGradient id="paint6_linear" x1="60.1295" y1="424.667" x2="60.1295" y2="491.341" gradientUnits="userSpaceOnUse">
<stop stop-opacity="0.01"/>
<stop offset="0.8" stop-opacity="0.02"/>
<stop offset="1" stop-opacity="0.04"/>
</linearGradient>
<linearGradient id="paint7_linear" x1="59.8" y1="424.667" x2="59.8" y2="492" gradientUnits="userSpaceOnUse">
<stop stop-color="white" stop-opacity="0.12"/>
<stop offset="0.2" stop-color="white" stop-opacity="0.06"/>
<stop offset="1" stop-color="white" stop-opacity="0.01"/>
</linearGradient>
<linearGradient id="paint8_linear" x1="153.271" y1="577" x2="153.271" y2="632.452" gradientUnits="userSpaceOnUse">
<stop stop-opacity="0.01"/>
<stop offset="0.8" stop-opacity="0.02"/>
<stop offset="1" stop-opacity="0.04"/>
</linearGradient>
<linearGradient id="paint9_linear" x1="152.997" y1="577" x2="152.997" y2="633" gradientUnits="userSpaceOnUse">
<stop stop-color="white" stop-opacity="0.12"/>
<stop offset="0.2" stop-color="white" stop-opacity="0.06"/>
<stop offset="1" stop-color="white" stop-opacity="0.01"/>
</linearGradient>
<clipPath id="clip0">
<rect width="360" height="640" fill="white"/>
</clipPath>
<clipPath id="clip1">
<rect width="360" height="80" fill="white"/>
</clipPath>
<clipPath id="clip2">
<rect width="345" height="354" fill="white" transform="translate(16.4819 112.521)"/>
</clipPath>
<clipPath id="clip3">
<rect width="150" height="236" fill="white" transform="translate(27.1458 118.59)"/>
</clipPath>
<clipPath id="clip4">
<rect width="169" height="225" fill="white" transform="translate(192.254 134.14)"/>
</clipPath>
<clipPath id="clip5">
<rect width="216" height="114" fill="white" transform="translate(71.3672 352.391)"/>
</clipPath>
<clipPath id="clip6">
<rect width="105" height="41" fill="white" transform="translate(15.4819 474)"/>
</clipPath>
<clipPath id="clip7">
<rect width="105" height="41" fill="white" transform="translate(128.482 474)"/>
</clipPath>
<clipPath id="clip8">
<rect width="105" height="41" fill="white" transform="translate(240.482 474)"/>
</clipPath>
</defs>
</svg>
