<svg width="360" height="640" viewBox="0 0 360 640" fill="none" xmlns="http://www.w3.org/2000/svg">
<g clip-path="url(#clip0)">
<rect width="360" height="640" fill="#1D1C1D"/>
<path fill-rule="evenodd" clip-rule="evenodd" d="M0 0H360V585H0V0Z" fill="#1D1C1D"/>
<g opacity="0.2">
<path fill-rule="evenodd" clip-rule="evenodd" d="M0 70H360V201H0V70Z" fill="#282828"/>
<mask id="mask0" mask-type="alpha" maskUnits="userSpaceOnUse" x="0" y="70" width="360" height="131">
<path fill-rule="evenodd" clip-rule="evenodd" d="M0 70H360V201H0V70Z" fill="white"/>
</mask>
<g mask="url(#mask0)">
<path fill-rule="evenodd" clip-rule="evenodd" d="M-3.05664 70.6885L-1.65894 73.1098H5.13556L6.53326 70.6885H-3.05664Z" fill="#1F191A"/>
<path fill-rule="evenodd" clip-rule="evenodd" d="M-1.65846 87.2112L-5.05518 81.3278L-1.65846 75.4443H5.13603L8.53167 81.3278L5.13603 87.2112H-1.65846Z" fill="#1F191A"/>
<path fill-rule="evenodd" clip-rule="evenodd" d="M-1.65846 101.312L-5.05518 95.4288L-1.65846 89.5454H5.13603L8.53167 95.4288L5.13603 101.312H-1.65846Z" fill="#1F191A"/>
<path fill-rule="evenodd" clip-rule="evenodd" d="M-1.65846 115.413L-5.05518 109.529L-1.65846 103.646H5.13603L8.53167 109.529L5.13603 115.413H-1.65846Z" fill="#1F191A"/>
<path fill-rule="evenodd" clip-rule="evenodd" d="M-1.65846 129.514L-5.05518 123.632L-1.65846 117.747H5.13603L8.53167 123.632L5.13603 129.514H-1.65846Z" fill="#1F191A"/>
<path fill-rule="evenodd" clip-rule="evenodd" d="M-1.65846 143.615L-5.05518 137.733L-1.65846 131.849H5.13603L8.53167 137.733L5.13603 143.615H-1.65846Z" fill="#1F191A"/>
<path fill-rule="evenodd" clip-rule="evenodd" d="M-1.65846 157.716L-5.05518 151.833L-1.65846 145.949H5.13603L8.53167 151.833L5.13603 157.716H-1.65846Z" fill="#1F191A"/>
<path fill-rule="evenodd" clip-rule="evenodd" d="M-1.65846 171.817L-5.05518 165.934L-1.65846 160.05H5.13603L8.53167 165.934L5.13603 171.817H-1.65846Z" fill="#1F191A"/>
<path fill-rule="evenodd" clip-rule="evenodd" d="M-1.65846 185.918L-5.05518 180.035L-1.65846 174.151H5.13603L8.53167 180.035L5.13603 185.918H-1.65846Z" fill="#1F191A"/>
<path fill-rule="evenodd" clip-rule="evenodd" d="M-1.65846 200.019L-5.05518 194.136L-1.65846 188.252H5.13603L8.53167 194.136L5.13603 200.019H-1.65846Z" fill="#1F191A"/>
<path fill-rule="evenodd" clip-rule="evenodd" d="M9.29997 70.6885L7.24951 74.2406L10.6462 80.124H17.4407L20.8364 74.2406L18.7859 70.6885H9.29997Z" fill="#1F191A"/>
<path fill-rule="evenodd" clip-rule="evenodd" d="M10.6457 94.2248L7.24902 88.3414L10.6457 82.458H17.4402L20.8369 88.3414L17.4402 94.2248H10.6457Z" fill="#1F191A"/>
<path fill-rule="evenodd" clip-rule="evenodd" d="M10.6457 108.326L7.24902 102.444L10.6457 96.5591H17.4402L20.8369 102.444L17.4402 108.326H10.6457Z" fill="#1F191A"/>
<path fill-rule="evenodd" clip-rule="evenodd" d="M10.6457 122.427L7.24902 116.544L10.6457 110.66H17.4402L20.8369 116.544L17.4402 122.427H10.6457Z" fill="#1F191A"/>
<path fill-rule="evenodd" clip-rule="evenodd" d="M10.6457 136.528L7.24902 130.645L10.6457 124.761H17.4402L20.8369 130.645L17.4402 136.528H10.6457Z" fill="#1F191A"/>
<path fill-rule="evenodd" clip-rule="evenodd" d="M10.6457 150.629L7.24902 144.746L10.6457 138.862H17.4402L20.8369 144.746L17.4402 150.629H10.6457Z" fill="#1F191A"/>
<path fill-rule="evenodd" clip-rule="evenodd" d="M10.6457 164.73L7.24902 158.847L10.6457 152.963H17.4402L20.8369 158.847L17.4402 164.73H10.6457Z" fill="#1F191A"/>
<path fill-rule="evenodd" clip-rule="evenodd" d="M10.6457 178.831L7.24902 172.948L10.6457 167.064H17.4402L20.8369 172.948L17.4402 178.831H10.6457Z" fill="#1F191A"/>
<path fill-rule="evenodd" clip-rule="evenodd" d="M10.6457 192.932L7.24902 187.049L10.6457 181.166H17.4402L20.8369 187.049L17.4402 192.932H10.6457Z" fill="#1F191A"/>
<path fill-rule="evenodd" clip-rule="evenodd" d="M10.6457 207.033L7.24902 201.15L10.6457 195.266H17.4402L20.8369 201.15L17.4402 207.033H10.6457Z" fill="#1F191A"/>
<path fill-rule="evenodd" clip-rule="evenodd" d="M21.5522 70.6885L22.9499 73.1098H29.7444L31.1421 70.6885H21.5522Z" fill="#1F191A"/>
<path fill-rule="evenodd" clip-rule="evenodd" d="M22.9504 87.2112L19.5537 81.3278L22.9504 75.4443H29.7449L33.1416 81.3278L29.7449 87.2112H22.9504Z" fill="#1F191A"/>
<path fill-rule="evenodd" clip-rule="evenodd" d="M22.9504 101.312L19.5537 95.4288L22.9504 89.5454H29.7449L33.1416 95.4288L29.7449 101.312H22.9504Z" fill="#1F191A"/>
<path fill-rule="evenodd" clip-rule="evenodd" d="M22.9504 115.413L19.5537 109.529L22.9504 103.646H29.7449L33.1416 109.529L29.7449 115.413H22.9504Z" fill="#1F191A"/>
<path fill-rule="evenodd" clip-rule="evenodd" d="M22.9504 129.514L19.5537 123.632L22.9504 117.747H29.7449L33.1416 123.632L29.7449 129.514H22.9504Z" fill="#1F191A"/>
<path fill-rule="evenodd" clip-rule="evenodd" d="M22.9504 143.615L19.5537 137.733L22.9504 131.849H29.7449L33.1416 137.733L29.7449 143.615H22.9504Z" fill="#1F191A"/>
<path fill-rule="evenodd" clip-rule="evenodd" d="M22.9504 157.716L19.5537 151.833L22.9504 145.949H29.7449L33.1416 151.833L29.7449 157.716H22.9504Z" fill="#1F191A"/>
<path fill-rule="evenodd" clip-rule="evenodd" d="M22.9504 171.817L19.5537 165.934L22.9504 160.05H29.7449L33.1416 165.934L29.7449 171.817H22.9504Z" fill="#1F191A"/>
<path fill-rule="evenodd" clip-rule="evenodd" d="M22.9504 185.918L19.5537 180.035L22.9504 174.151H29.7449L33.1416 180.035L29.7449 185.918H22.9504Z" fill="#1F191A"/>
<path fill-rule="evenodd" clip-rule="evenodd" d="M22.9504 200.019L19.5537 194.136L22.9504 188.252H29.7449L33.1416 194.136L29.7449 200.019H22.9504Z" fill="#1F191A"/>
<path fill-rule="evenodd" clip-rule="evenodd" d="M33.9089 70.6885L31.8584 74.2406L35.254 80.124H42.0475L45.4463 74.2406L43.3948 70.6885H33.9089Z" fill="#1F191A"/>
<path fill-rule="evenodd" clip-rule="evenodd" d="M35.2545 94.2248L31.8589 88.3414L35.2545 82.458H42.048L45.4468 88.3414L42.048 94.2248H35.2545Z" fill="#1F191A"/>
<path fill-rule="evenodd" clip-rule="evenodd" d="M35.2545 108.326L31.8589 102.444L35.2545 96.5591H42.048L45.4468 102.444L42.048 108.326H35.2545Z" fill="#1F191A"/>
<path fill-rule="evenodd" clip-rule="evenodd" d="M35.2545 122.427L31.8589 116.544L35.2545 110.66H42.048L45.4468 116.544L42.048 122.427H35.2545Z" fill="#1F191A"/>
<path fill-rule="evenodd" clip-rule="evenodd" d="M35.2545 136.528L31.8589 130.645L35.2545 124.761H42.048L45.4468 130.645L42.048 136.528H35.2545Z" fill="#1F191A"/>
<path fill-rule="evenodd" clip-rule="evenodd" d="M35.2545 150.629L31.8589 144.746L35.2545 138.862H42.048L45.4468 144.746L42.048 150.629H35.2545Z" fill="#1F191A"/>
<path fill-rule="evenodd" clip-rule="evenodd" d="M35.2545 164.73L31.8589 158.847L35.2545 152.963H42.048L45.4468 158.847L42.048 164.73H35.2545Z" fill="#1F191A"/>
<path fill-rule="evenodd" clip-rule="evenodd" d="M35.2545 178.831L31.8589 172.948L35.2545 167.064H42.048L45.4468 172.948L42.048 178.831H35.2545Z" fill="#1F191A"/>
<path fill-rule="evenodd" clip-rule="evenodd" d="M35.2545 192.932L31.8589 187.049L35.2545 181.166H42.048L45.4468 187.049L42.048 192.932H35.2545Z" fill="#1F191A"/>
<path fill-rule="evenodd" clip-rule="evenodd" d="M35.2545 207.033L31.8589 201.15L35.2545 195.266H42.048L45.4468 201.15L42.048 207.033H35.2545Z" fill="#1F191A"/>
<path fill-rule="evenodd" clip-rule="evenodd" d="M46.1621 70.6885L47.5598 73.1098H54.3522L55.7509 70.6885H46.1621Z" fill="#1F191A"/>
<path fill-rule="evenodd" clip-rule="evenodd" d="M47.5598 87.2112L44.1631 81.3278L47.5598 75.4443H54.3522L57.7499 81.3278L54.3522 87.2112H47.5598Z" fill="#1F191A"/>
<path fill-rule="evenodd" clip-rule="evenodd" d="M47.5598 101.312L44.1631 95.4288L47.5598 89.5454H54.3522L57.7499 95.4288L54.3522 101.312H47.5598Z" fill="#1F191A"/>
<path fill-rule="evenodd" clip-rule="evenodd" d="M47.5598 115.413L44.1631 109.529L47.5598 103.646H54.3522L57.7499 109.529L54.3522 115.413H47.5598Z" fill="#1F191A"/>
<path fill-rule="evenodd" clip-rule="evenodd" d="M47.5598 129.514L44.1631 123.632L47.5598 117.747H54.3522L57.7499 123.632L54.3522 129.514H47.5598Z" fill="#1F191A"/>
<path fill-rule="evenodd" clip-rule="evenodd" d="M47.5598 143.615L44.1631 137.733L47.5598 131.849H54.3522L57.7499 137.733L54.3522 143.615H47.5598Z" fill="#1F191A"/>
<path fill-rule="evenodd" clip-rule="evenodd" d="M47.5598 157.716L44.1631 151.833L47.5598 145.949H54.3522L57.7499 151.833L54.3522 157.716H47.5598Z" fill="#1F191A"/>
<path fill-rule="evenodd" clip-rule="evenodd" d="M47.5598 171.817L44.1631 165.934L47.5598 160.05H54.3522L57.7499 165.934L54.3522 171.817H47.5598Z" fill="#1F191A"/>
<path fill-rule="evenodd" clip-rule="evenodd" d="M47.5598 185.918L44.1631 180.035L47.5598 174.151H54.3522L57.7499 180.035L54.3522 185.918H47.5598Z" fill="#1F191A"/>
<path fill-rule="evenodd" clip-rule="evenodd" d="M47.5598 200.019L44.1631 194.136L47.5598 188.252H54.3522L57.7499 194.136L54.3522 200.019H47.5598Z" fill="#1F191A"/>
<path fill-rule="evenodd" clip-rule="evenodd" d="M58.5182 70.6885L56.4678 74.2406L59.8645 80.124H66.6579L70.0546 74.2406L68.0042 70.6885H58.5182Z" fill="#1F191A"/>
<path fill-rule="evenodd" clip-rule="evenodd" d="M59.8645 94.2248L56.4678 88.3414L59.8645 82.458H66.6579L70.0557 88.3414L66.6579 94.2248H59.8645Z" fill="#1F191A"/>
<path fill-rule="evenodd" clip-rule="evenodd" d="M59.8645 108.326L56.4678 102.444L59.8645 96.5591H66.6579L70.0557 102.444L66.6579 108.326H59.8645Z" fill="#1F191A"/>
<path fill-rule="evenodd" clip-rule="evenodd" d="M59.8645 122.427L56.4678 116.544L59.8645 110.66H66.6579L70.0557 116.544L66.6579 122.427H59.8645Z" fill="#1F191A"/>
<path fill-rule="evenodd" clip-rule="evenodd" d="M59.8645 136.528L56.4678 130.645L59.8645 124.761H66.6579L70.0557 130.645L66.6579 136.528H59.8645Z" fill="#1F191A"/>
<path fill-rule="evenodd" clip-rule="evenodd" d="M59.8645 150.629L56.4678 144.746L59.8645 138.862H66.6579L70.0557 144.746L66.6579 150.629H59.8645Z" fill="#1F191A"/>
<path fill-rule="evenodd" clip-rule="evenodd" d="M59.8645 164.73L56.4678 158.847L59.8645 152.963H66.6579L70.0557 158.847L66.6579 164.73H59.8645Z" fill="#1F191A"/>
<path fill-rule="evenodd" clip-rule="evenodd" d="M59.8645 178.831L56.4678 172.948L59.8645 167.064H66.6579L70.0557 172.948L66.6579 178.831H59.8645Z" fill="#1F191A"/>
<path fill-rule="evenodd" clip-rule="evenodd" d="M59.8645 192.932L56.4678 187.049L59.8645 181.166H66.6579L70.0557 187.049L66.6579 192.932H59.8645Z" fill="#1F191A"/>
<path fill-rule="evenodd" clip-rule="evenodd" d="M59.8645 207.033L56.4678 201.15L59.8645 195.266H66.6579L70.0557 201.15L66.6579 207.033H59.8645Z" fill="#1F191A"/>
<path fill-rule="evenodd" clip-rule="evenodd" d="M70.77 70.6885L72.1677 73.1098H78.9622L80.3599 70.6885H70.77Z" fill="#1F191A"/>
<path fill-rule="evenodd" clip-rule="evenodd" d="M72.1676 87.2112L68.772 81.3278L72.1676 75.4443H78.9621L82.3588 81.3278L78.9621 87.2112H72.1676Z" fill="#1F191A"/>
<path fill-rule="evenodd" clip-rule="evenodd" d="M72.1676 101.312L68.772 95.4288L72.1676 89.5454H78.9621L82.3588 95.4288L78.9621 101.312H72.1676Z" fill="#1F191A"/>
<path fill-rule="evenodd" clip-rule="evenodd" d="M72.1676 115.413L68.772 109.529L72.1676 103.646H78.9621L82.3588 109.529L78.9621 115.413H72.1676Z" fill="#1F191A"/>
<path fill-rule="evenodd" clip-rule="evenodd" d="M72.1676 129.514L68.772 123.632L72.1676 117.747H78.9621L82.3588 123.632L78.9621 129.514H72.1676Z" fill="#1F191A"/>
<path fill-rule="evenodd" clip-rule="evenodd" d="M72.1676 143.615L68.772 137.733L72.1676 131.849H78.9621L82.3588 137.733L78.9621 143.615H72.1676Z" fill="#1F191A"/>
<path fill-rule="evenodd" clip-rule="evenodd" d="M72.1676 157.716L68.772 151.833L72.1676 145.949H78.9621L82.3588 151.833L78.9621 157.716H72.1676Z" fill="#1F191A"/>
<path fill-rule="evenodd" clip-rule="evenodd" d="M72.1676 171.817L68.772 165.934L72.1676 160.05H78.9621L82.3588 165.934L78.9621 171.817H72.1676Z" fill="#1F191A"/>
<path fill-rule="evenodd" clip-rule="evenodd" d="M72.1676 185.918L68.772 180.035L72.1676 174.151H78.9621L82.3588 180.035L78.9621 185.918H72.1676Z" fill="#1F191A"/>
<path fill-rule="evenodd" clip-rule="evenodd" d="M72.1676 200.019L68.772 194.136L72.1676 188.252H78.9621L82.3588 194.136L78.9621 200.019H72.1676Z" fill="#1F191A"/>
<path fill-rule="evenodd" clip-rule="evenodd" d="M83.1266 70.6885L81.0762 74.2406L84.4718 80.124H91.2663L94.6641 74.2406L92.6126 70.6885H83.1266Z" fill="#1F191A"/>
<path fill-rule="evenodd" clip-rule="evenodd" d="M84.4723 94.2248L81.0767 88.3414L84.4723 82.458H91.2668L94.6646 88.3414L91.2668 94.2248H84.4723Z" fill="#1F191A"/>
<path fill-rule="evenodd" clip-rule="evenodd" d="M84.4723 108.326L81.0767 102.444L84.4723 96.5591H91.2668L94.6646 102.444L91.2668 108.326H84.4723Z" fill="#1F191A"/>
<path fill-rule="evenodd" clip-rule="evenodd" d="M84.4723 122.427L81.0767 116.544L84.4723 110.66H91.2668L94.6646 116.544L91.2668 122.427H84.4723Z" fill="#1F191A"/>
<path fill-rule="evenodd" clip-rule="evenodd" d="M84.4723 136.528L81.0767 130.645L84.4723 124.761H91.2668L94.6646 130.645L91.2668 136.528H84.4723Z" fill="#1F191A"/>
<path fill-rule="evenodd" clip-rule="evenodd" d="M84.4723 150.629L81.0767 144.746L84.4723 138.862H91.2668L94.6646 144.746L91.2668 150.629H84.4723Z" fill="#1F191A"/>
<path fill-rule="evenodd" clip-rule="evenodd" d="M84.4723 164.73L81.0767 158.847L84.4723 152.963H91.2668L94.6646 158.847L91.2668 164.73H84.4723Z" fill="#1F191A"/>
<path fill-rule="evenodd" clip-rule="evenodd" d="M84.4723 178.831L81.0767 172.948L84.4723 167.064H91.2668L94.6646 172.948L91.2668 178.831H84.4723Z" fill="#1F191A"/>
<path fill-rule="evenodd" clip-rule="evenodd" d="M84.4723 192.932L81.0767 187.049L84.4723 181.166H91.2668L94.6646 187.049L91.2668 192.932H84.4723Z" fill="#1F191A"/>
<path fill-rule="evenodd" clip-rule="evenodd" d="M84.4723 207.033L81.0767 201.15L84.4723 195.266H91.2668L94.6646 201.15L91.2668 207.033H84.4723Z" fill="#1F191A"/>
<path fill-rule="evenodd" clip-rule="evenodd" d="M95.3794 70.6885L96.7771 73.1098H103.571L104.969 70.6885H95.3794Z" fill="#1F191A"/>
<path fill-rule="evenodd" clip-rule="evenodd" d="M96.7776 87.2112L93.3809 81.3278L96.7776 75.4443H103.571L106.969 81.3278L103.571 87.2112H96.7776Z" fill="#1F191A"/>
<path fill-rule="evenodd" clip-rule="evenodd" d="M96.7776 101.312L93.3809 95.4288L96.7776 89.5454H103.571L106.969 95.4288L103.571 101.312H96.7776Z" fill="#1F191A"/>
<path fill-rule="evenodd" clip-rule="evenodd" d="M96.7776 115.413L93.3809 109.529L96.7776 103.646H103.571L106.969 109.529L103.571 115.413H96.7776Z" fill="#1F191A"/>
<path fill-rule="evenodd" clip-rule="evenodd" d="M96.7776 129.514L93.3809 123.632L96.7776 117.747H103.571L106.969 123.632L103.571 129.514H96.7776Z" fill="#1F191A"/>
<path fill-rule="evenodd" clip-rule="evenodd" d="M96.7776 143.615L93.3809 137.733L96.7776 131.849H103.571L106.969 137.733L103.571 143.615H96.7776Z" fill="#1F191A"/>
<path fill-rule="evenodd" clip-rule="evenodd" d="M96.7776 157.716L93.3809 151.833L96.7776 145.949H103.571L106.969 151.833L103.571 157.716H96.7776Z" fill="#1F191A"/>
<path fill-rule="evenodd" clip-rule="evenodd" d="M96.7776 171.817L93.3809 165.934L96.7776 160.05H103.571L106.969 165.934L103.571 171.817H96.7776Z" fill="#1F191A"/>
<path fill-rule="evenodd" clip-rule="evenodd" d="M96.7776 185.918L93.3809 180.035L96.7776 174.151H103.571L106.969 180.035L103.571 185.918H96.7776Z" fill="#1F191A"/>
<path fill-rule="evenodd" clip-rule="evenodd" d="M96.7776 200.019L93.3809 194.136L96.7776 188.252H103.571L106.969 194.136L103.571 200.019H96.7776Z" fill="#1F191A"/>
<path fill-rule="evenodd" clip-rule="evenodd" d="M107.736 70.6885L105.686 74.2406L109.081 80.124H115.875L119.272 74.2406L117.221 70.6885H107.736Z" fill="#1F191A"/>
<path fill-rule="evenodd" clip-rule="evenodd" d="M109.082 94.2248L105.686 88.3414L109.082 82.458H115.875L119.273 88.3414L115.875 94.2248H109.082Z" fill="#1F191A"/>
<path fill-rule="evenodd" clip-rule="evenodd" d="M109.082 108.326L105.686 102.444L109.082 96.5591H115.875L119.273 102.444L115.875 108.326H109.082Z" fill="#1F191A"/>
<path fill-rule="evenodd" clip-rule="evenodd" d="M109.082 122.427L105.686 116.544L109.082 110.66H115.875L119.273 116.544L115.875 122.427H109.082Z" fill="#1F191A"/>
<path fill-rule="evenodd" clip-rule="evenodd" d="M109.082 136.528L105.686 130.645L109.082 124.761H115.875L119.273 130.645L115.875 136.528H109.082Z" fill="#1F191A"/>
<path fill-rule="evenodd" clip-rule="evenodd" d="M109.082 150.629L105.686 144.746L109.082 138.862H115.875L119.273 144.746L115.875 150.629H109.082Z" fill="#1F191A"/>
<path fill-rule="evenodd" clip-rule="evenodd" d="M109.082 164.73L105.686 158.847L109.082 152.963H115.875L119.273 158.847L115.875 164.73H109.082Z" fill="#1F191A"/>
<path fill-rule="evenodd" clip-rule="evenodd" d="M109.082 178.831L105.686 172.948L109.082 167.064H115.875L119.273 172.948L115.875 178.831H109.082Z" fill="#1F191A"/>
<path fill-rule="evenodd" clip-rule="evenodd" d="M109.082 192.932L105.686 187.049L109.082 181.166H115.875L119.273 187.049L115.875 192.932H109.082Z" fill="#1F191A"/>
<path fill-rule="evenodd" clip-rule="evenodd" d="M109.082 207.033L105.686 201.15L109.082 195.266H115.875L119.273 201.15L115.875 207.033H109.082Z" fill="#1F191A"/>
<path fill-rule="evenodd" clip-rule="evenodd" d="M119.988 70.6885L121.386 73.1098H128.179L129.578 70.6885H119.988Z" fill="#1F191A"/>
<path fill-rule="evenodd" clip-rule="evenodd" d="M121.386 87.2112L117.99 81.3278L121.386 75.4443H128.18L131.578 81.3278L128.18 87.2112H121.386Z" fill="#1F191A"/>
<path fill-rule="evenodd" clip-rule="evenodd" d="M121.386 101.312L117.99 95.4288L121.386 89.5454H128.18L131.578 95.4288L128.18 101.312H121.386Z" fill="#1F191A"/>
<path fill-rule="evenodd" clip-rule="evenodd" d="M121.386 115.413L117.99 109.529L121.386 103.646H128.18L131.578 109.529L128.18 115.413H121.386Z" fill="#1F191A"/>
<path fill-rule="evenodd" clip-rule="evenodd" d="M121.386 129.514L117.99 123.632L121.386 117.747H128.18L131.578 123.632L128.18 129.514H121.386Z" fill="#1F191A"/>
<path fill-rule="evenodd" clip-rule="evenodd" d="M121.386 143.615L117.99 137.733L121.386 131.849H128.18L131.578 137.733L128.18 143.615H121.386Z" fill="#1F191A"/>
<path fill-rule="evenodd" clip-rule="evenodd" d="M121.386 157.716L117.99 151.833L121.386 145.949H128.18L131.578 151.833L128.18 157.716H121.386Z" fill="#1F191A"/>
<path fill-rule="evenodd" clip-rule="evenodd" d="M121.386 171.817L117.99 165.934L121.386 160.05H128.18L131.578 165.934L128.18 171.817H121.386Z" fill="#1F191A"/>
<path fill-rule="evenodd" clip-rule="evenodd" d="M121.386 185.918L117.99 180.035L121.386 174.151H128.18L131.578 180.035L128.18 185.918H121.386Z" fill="#1F191A"/>
<path fill-rule="evenodd" clip-rule="evenodd" d="M121.386 200.019L117.99 194.136L121.386 188.252H128.18L131.578 194.136L128.18 200.019H121.386Z" fill="#1F191A"/>
<path fill-rule="evenodd" clip-rule="evenodd" d="M132.344 70.6885L130.294 74.2406L133.691 80.124H140.484L143.881 74.2406L141.83 70.6885H132.344Z" fill="#1F191A"/>
<path fill-rule="evenodd" clip-rule="evenodd" d="M133.691 94.2248L130.294 88.3414L133.691 82.458H140.484L143.882 88.3414L140.484 94.2248H133.691Z" fill="#1F191A"/>
<path fill-rule="evenodd" clip-rule="evenodd" d="M133.691 108.326L130.294 102.444L133.691 96.5591H140.484L143.882 102.444L140.484 108.326H133.691Z" fill="#1F191A"/>
<path fill-rule="evenodd" clip-rule="evenodd" d="M133.691 122.427L130.294 116.544L133.691 110.66H140.484L143.882 116.544L140.484 122.427H133.691Z" fill="#1F191A"/>
<path fill-rule="evenodd" clip-rule="evenodd" d="M133.691 136.528L130.294 130.645L133.691 124.761H140.484L143.882 130.645L140.484 136.528H133.691Z" fill="#1F191A"/>
<path fill-rule="evenodd" clip-rule="evenodd" d="M133.691 150.629L130.294 144.746L133.691 138.862H140.484L143.882 144.746L140.484 150.629H133.691Z" fill="#1F191A"/>
<path fill-rule="evenodd" clip-rule="evenodd" d="M133.691 164.73L130.294 158.847L133.691 152.963H140.484L143.882 158.847L140.484 164.73H133.691Z" fill="#1F191A"/>
<path fill-rule="evenodd" clip-rule="evenodd" d="M133.691 178.831L130.294 172.948L133.691 167.064H140.484L143.882 172.948L140.484 178.831H133.691Z" fill="#1F191A"/>
<path fill-rule="evenodd" clip-rule="evenodd" d="M133.691 192.932L130.294 187.049L133.691 181.166H140.484L143.882 187.049L140.484 192.932H133.691Z" fill="#1F191A"/>
<path fill-rule="evenodd" clip-rule="evenodd" d="M133.691 207.033L130.294 201.15L133.691 195.266H140.484L143.882 201.15L140.484 207.033H133.691Z" fill="#1F191A"/>
<path fill-rule="evenodd" clip-rule="evenodd" d="M144.597 70.6885L145.994 73.1098H152.788L154.187 70.6885H144.597Z" fill="#1F191A"/>
<path fill-rule="evenodd" clip-rule="evenodd" d="M145.995 87.2112L142.598 81.3278L145.995 75.4443H152.788L156.186 81.3278L152.788 87.2112H145.995Z" fill="#1F191A"/>
<path fill-rule="evenodd" clip-rule="evenodd" d="M145.995 101.312L142.598 95.4288L145.995 89.5454H152.788L156.186 95.4288L152.788 101.312H145.995Z" fill="#1F191A"/>
<path fill-rule="evenodd" clip-rule="evenodd" d="M145.995 115.413L142.598 109.529L145.995 103.646H152.788L156.186 109.529L152.788 115.413H145.995Z" fill="#1F191A"/>
<path fill-rule="evenodd" clip-rule="evenodd" d="M145.995 129.514L142.598 123.632L145.995 117.747H152.788L156.186 123.632L152.788 129.514H145.995Z" fill="#1F191A"/>
<path fill-rule="evenodd" clip-rule="evenodd" d="M145.995 143.615L142.598 137.733L145.995 131.849H152.788L156.186 137.733L152.788 143.615H145.995Z" fill="#1F191A"/>
<path fill-rule="evenodd" clip-rule="evenodd" d="M145.995 157.716L142.598 151.833L145.995 145.949H152.788L156.186 151.833L152.788 157.716H145.995Z" fill="#1F191A"/>
<path fill-rule="evenodd" clip-rule="evenodd" d="M145.995 171.817L142.598 165.934L145.995 160.05H152.788L156.186 165.934L152.788 171.817H145.995Z" fill="#1F191A"/>
<path fill-rule="evenodd" clip-rule="evenodd" d="M145.995 185.918L142.598 180.035L145.995 174.151H152.788L156.186 180.035L152.788 185.918H145.995Z" fill="#1F191A"/>
<path fill-rule="evenodd" clip-rule="evenodd" d="M145.995 200.019L142.598 194.136L145.995 188.252H152.788L156.186 194.136L152.788 200.019H145.995Z" fill="#1F191A"/>
<path fill-rule="evenodd" clip-rule="evenodd" d="M156.953 70.6885L154.904 74.2406L158.298 80.124H165.095L168.492 74.2406L166.441 70.6885H156.953Z" fill="#1F191A"/>
<path fill-rule="evenodd" clip-rule="evenodd" d="M158.299 94.2248L154.904 88.3414L158.299 82.458H165.094L168.492 88.3414L165.094 94.2248H158.299Z" fill="#1F191A"/>
<path fill-rule="evenodd" clip-rule="evenodd" d="M158.299 108.326L154.904 102.444L158.299 96.5591H165.094L168.492 102.444L165.094 108.326H158.299Z" fill="#1F191A"/>
<path fill-rule="evenodd" clip-rule="evenodd" d="M158.299 122.427L154.904 116.544L158.299 110.66H165.094L168.492 116.544L165.094 122.427H158.299Z" fill="#1F191A"/>
<path fill-rule="evenodd" clip-rule="evenodd" d="M158.299 136.528L154.904 130.645L158.299 124.761H165.094L168.492 130.645L165.094 136.528H158.299Z" fill="#1F191A"/>
<path fill-rule="evenodd" clip-rule="evenodd" d="M158.299 150.629L154.904 144.746L158.299 138.862H165.094L168.492 144.746L165.094 150.629H158.299Z" fill="#1F191A"/>
<path fill-rule="evenodd" clip-rule="evenodd" d="M158.299 164.73L154.904 158.847L158.299 152.963H165.094L168.492 158.847L165.094 164.73H158.299Z" fill="#1F191A"/>
<path fill-rule="evenodd" clip-rule="evenodd" d="M158.299 178.831L154.904 172.948L158.299 167.064H165.094L168.492 172.948L165.094 178.831H158.299Z" fill="#1F191A"/>
<path fill-rule="evenodd" clip-rule="evenodd" d="M158.299 192.932L154.904 187.049L158.299 181.166H165.094L168.492 187.049L165.094 192.932H158.299Z" fill="#1F191A"/>
<path fill-rule="evenodd" clip-rule="evenodd" d="M158.299 207.033L154.904 201.15L158.299 195.266H165.094L168.492 201.15L165.094 207.033H158.299Z" fill="#1F191A"/>
<path fill-rule="evenodd" clip-rule="evenodd" d="M169.207 70.6885L170.604 73.1098H177.398L178.796 70.6885H169.207Z" fill="#1F191A"/>
<path fill-rule="evenodd" clip-rule="evenodd" d="M170.604 87.2112L167.208 81.3278L170.604 75.4443H177.398L180.795 81.3278L177.398 87.2112H170.604Z" fill="#1F191A"/>
<path fill-rule="evenodd" clip-rule="evenodd" d="M170.604 101.312L167.208 95.4288L170.604 89.5454H177.398L180.795 95.4288L177.398 101.312H170.604Z" fill="#1F191A"/>
<path fill-rule="evenodd" clip-rule="evenodd" d="M170.604 115.413L167.208 109.529L170.604 103.646H177.398L180.795 109.529L177.398 115.413H170.604Z" fill="#1F191A"/>
<path fill-rule="evenodd" clip-rule="evenodd" d="M170.604 129.514L167.208 123.632L170.604 117.747H177.398L180.795 123.632L177.398 129.514H170.604Z" fill="#1F191A"/>
<path fill-rule="evenodd" clip-rule="evenodd" d="M170.604 143.615L167.208 137.733L170.604 131.849H177.398L180.795 137.733L177.398 143.615H170.604Z" fill="#1F191A"/>
<path fill-rule="evenodd" clip-rule="evenodd" d="M170.604 157.716L167.208 151.833L170.604 145.949H177.398L180.795 151.833L177.398 157.716H170.604Z" fill="#1F191A"/>
<path fill-rule="evenodd" clip-rule="evenodd" d="M170.604 171.817L167.208 165.934L170.604 160.05H177.398L180.795 165.934L177.398 171.817H170.604Z" fill="#1F191A"/>
<path fill-rule="evenodd" clip-rule="evenodd" d="M170.604 185.918L167.208 180.035L170.604 174.151H177.398L180.795 180.035L177.398 185.918H170.604Z" fill="#1F191A"/>
<path fill-rule="evenodd" clip-rule="evenodd" d="M170.604 200.019L167.208 194.136L170.604 188.252H177.398L180.795 194.136L177.398 200.019H170.604Z" fill="#1F191A"/>
<path fill-rule="evenodd" clip-rule="evenodd" d="M181.563 70.6885L179.512 74.2406L182.911 80.124H189.703L193.099 74.2406L191.049 70.6885H181.563Z" fill="#1F191A"/>
<path fill-rule="evenodd" clip-rule="evenodd" d="M182.91 94.2248L179.512 88.3414L182.91 82.458H189.703L193.099 88.3414L189.703 94.2248H182.91Z" fill="#1F191A"/>
<path fill-rule="evenodd" clip-rule="evenodd" d="M182.91 108.326L179.512 102.444L182.91 96.5591H189.703L193.099 102.444L189.703 108.326H182.91Z" fill="#1F191A"/>
<path fill-rule="evenodd" clip-rule="evenodd" d="M182.91 122.427L179.512 116.544L182.91 110.66H189.703L193.099 116.544L189.703 122.427H182.91Z" fill="#1F191A"/>
<path fill-rule="evenodd" clip-rule="evenodd" d="M182.91 136.528L179.512 130.645L182.91 124.761H189.703L193.099 130.645L189.703 136.528H182.91Z" fill="#1F191A"/>
<path fill-rule="evenodd" clip-rule="evenodd" d="M182.91 150.629L179.512 144.746L182.91 138.862H189.703L193.099 144.746L189.703 150.629H182.91Z" fill="#1F191A"/>
<path fill-rule="evenodd" clip-rule="evenodd" d="M182.91 164.73L179.512 158.847L182.91 152.963H189.703L193.099 158.847L189.703 164.73H182.91Z" fill="#1F191A"/>
<path fill-rule="evenodd" clip-rule="evenodd" d="M182.91 178.831L179.512 172.948L182.91 167.064H189.703L193.099 172.948L189.703 178.831H182.91Z" fill="#1F191A"/>
<path fill-rule="evenodd" clip-rule="evenodd" d="M182.91 192.932L179.512 187.049L182.91 181.166H189.703L193.099 187.049L189.703 192.932H182.91Z" fill="#1F191A"/>
<path fill-rule="evenodd" clip-rule="evenodd" d="M182.91 207.033L179.512 201.15L182.91 195.266H189.703L193.099 201.15L189.703 207.033H182.91Z" fill="#1F191A"/>
<path fill-rule="evenodd" clip-rule="evenodd" d="M193.814 70.6885L195.213 73.1098H202.006L203.405 70.6885H193.814Z" fill="#1F191A"/>
<path fill-rule="evenodd" clip-rule="evenodd" d="M195.213 87.2112L191.815 81.3278L195.213 75.4443H202.006L205.404 81.3278L202.006 87.2112H195.213Z" fill="#1F191A"/>
<path fill-rule="evenodd" clip-rule="evenodd" d="M195.213 101.312L191.815 95.4288L195.213 89.5454H202.006L205.404 95.4288L202.006 101.312H195.213Z" fill="#1F191A"/>
<path fill-rule="evenodd" clip-rule="evenodd" d="M195.213 115.413L191.815 109.529L195.213 103.646H202.006L205.404 109.529L202.006 115.413H195.213Z" fill="#1F191A"/>
<path fill-rule="evenodd" clip-rule="evenodd" d="M195.213 129.514L191.815 123.632L195.213 117.747H202.006L205.404 123.632L202.006 129.514H195.213Z" fill="#1F191A"/>
<path fill-rule="evenodd" clip-rule="evenodd" d="M195.213 143.615L191.815 137.733L195.213 131.849H202.006L205.404 137.733L202.006 143.615H195.213Z" fill="#1F191A"/>
<path fill-rule="evenodd" clip-rule="evenodd" d="M195.213 157.716L191.815 151.833L195.213 145.949H202.006L205.404 151.833L202.006 157.716H195.213Z" fill="#1F191A"/>
<path fill-rule="evenodd" clip-rule="evenodd" d="M195.213 171.817L191.815 165.934L195.213 160.05H202.006L205.404 165.934L202.006 171.817H195.213Z" fill="#1F191A"/>
<path fill-rule="evenodd" clip-rule="evenodd" d="M195.213 185.918L191.815 180.035L195.213 174.151H202.006L205.404 180.035L202.006 185.918H195.213Z" fill="#1F191A"/>
<path fill-rule="evenodd" clip-rule="evenodd" d="M195.213 200.019L191.815 194.136L195.213 188.252H202.006L205.404 194.136L202.006 200.019H195.213Z" fill="#1F191A"/>
<path fill-rule="evenodd" clip-rule="evenodd" d="M206.171 70.6885L204.121 74.2406L207.516 80.124H214.312L217.707 74.2406L215.658 70.6885H206.171Z" fill="#1F191A"/>
<path fill-rule="evenodd" clip-rule="evenodd" d="M207.517 94.2248L204.121 88.3414L207.517 82.458H214.312L217.708 88.3414L214.312 94.2248H207.517Z" fill="#1F191A"/>
<path fill-rule="evenodd" clip-rule="evenodd" d="M207.517 108.326L204.121 102.444L207.517 96.5591H214.312L217.708 102.444L214.312 108.326H207.517Z" fill="#1F191A"/>
<path fill-rule="evenodd" clip-rule="evenodd" d="M207.517 122.427L204.121 116.544L207.517 110.66H214.312L217.708 116.544L214.312 122.427H207.517Z" fill="#1F191A"/>
<path fill-rule="evenodd" clip-rule="evenodd" d="M207.517 136.528L204.121 130.645L207.517 124.761H214.312L217.708 130.645L214.312 136.528H207.517Z" fill="#1F191A"/>
<path fill-rule="evenodd" clip-rule="evenodd" d="M207.517 150.629L204.121 144.746L207.517 138.862H214.312L217.708 144.746L214.312 150.629H207.517Z" fill="#1F191A"/>
<path fill-rule="evenodd" clip-rule="evenodd" d="M207.517 164.73L204.121 158.847L207.517 152.963H214.312L217.708 158.847L214.312 164.73H207.517Z" fill="#1F191A"/>
<path fill-rule="evenodd" clip-rule="evenodd" d="M207.517 178.831L204.121 172.948L207.517 167.064H214.312L217.708 172.948L214.312 178.831H207.517Z" fill="#1F191A"/>
<path fill-rule="evenodd" clip-rule="evenodd" d="M207.517 192.932L204.121 187.049L207.517 181.166H214.312L217.708 187.049L214.312 192.932H207.517Z" fill="#1F191A"/>
<path fill-rule="evenodd" clip-rule="evenodd" d="M207.517 207.033L204.121 201.15L207.517 195.266H214.312L217.708 201.15L214.312 207.033H207.517Z" fill="#1F191A"/>
<path fill-rule="evenodd" clip-rule="evenodd" d="M218.424 70.6885L219.822 73.1098H226.615L228.014 70.6885H218.424Z" fill="#1F191A"/>
<path fill-rule="evenodd" clip-rule="evenodd" d="M219.822 87.2112L216.427 81.3278L219.822 75.4443H226.616L230.014 81.3278L226.616 87.2112H219.822Z" fill="#1F191A"/>
<path fill-rule="evenodd" clip-rule="evenodd" d="M219.822 101.312L216.427 95.4288L219.822 89.5454H226.616L230.014 95.4288L226.616 101.312H219.822Z" fill="#1F191A"/>
<path fill-rule="evenodd" clip-rule="evenodd" d="M219.822 115.413L216.427 109.529L219.822 103.646H226.616L230.014 109.529L226.616 115.413H219.822Z" fill="#1F191A"/>
<path fill-rule="evenodd" clip-rule="evenodd" d="M219.822 129.514L216.427 123.632L219.822 117.747H226.616L230.014 123.632L226.616 129.514H219.822Z" fill="#1F191A"/>
<path fill-rule="evenodd" clip-rule="evenodd" d="M219.822 143.615L216.427 137.733L219.822 131.849H226.616L230.014 137.733L226.616 143.615H219.822Z" fill="#1F191A"/>
<path fill-rule="evenodd" clip-rule="evenodd" d="M219.822 157.716L216.427 151.833L219.822 145.949H226.616L230.014 151.833L226.616 157.716H219.822Z" fill="#1F191A"/>
<path fill-rule="evenodd" clip-rule="evenodd" d="M219.822 171.817L216.427 165.934L219.822 160.05H226.616L230.014 165.934L226.616 171.817H219.822Z" fill="#1F191A"/>
<path fill-rule="evenodd" clip-rule="evenodd" d="M219.822 185.918L216.427 180.035L219.822 174.151H226.616L230.014 180.035L226.616 185.918H219.822Z" fill="#1F191A"/>
<path fill-rule="evenodd" clip-rule="evenodd" d="M219.822 200.019L216.427 194.136L219.822 188.252H226.616L230.014 194.136L226.616 200.019H219.822Z" fill="#1F191A"/>
<path fill-rule="evenodd" clip-rule="evenodd" d="M230.782 70.6885L228.731 74.2406L232.127 80.124H238.921L242.318 74.2406L240.267 70.6885H230.782Z" fill="#1F191A"/>
<path fill-rule="evenodd" clip-rule="evenodd" d="M232.128 94.2248L228.732 88.3414L232.128 82.458H238.921L242.319 88.3414L238.921 94.2248H232.128Z" fill="#1F191A"/>
<path fill-rule="evenodd" clip-rule="evenodd" d="M232.128 108.326L228.732 102.444L232.128 96.5591H238.921L242.319 102.444L238.921 108.326H232.128Z" fill="#1F191A"/>
<path fill-rule="evenodd" clip-rule="evenodd" d="M232.128 122.427L228.732 116.544L232.128 110.66H238.921L242.319 116.544L238.921 122.427H232.128Z" fill="#1F191A"/>
<path fill-rule="evenodd" clip-rule="evenodd" d="M232.128 136.528L228.732 130.645L232.128 124.761H238.921L242.319 130.645L238.921 136.528H232.128Z" fill="#1F191A"/>
<path fill-rule="evenodd" clip-rule="evenodd" d="M232.128 150.629L228.732 144.746L232.128 138.862H238.921L242.319 144.746L238.921 150.629H232.128Z" fill="#1F191A"/>
<path fill-rule="evenodd" clip-rule="evenodd" d="M232.128 164.73L228.732 158.847L232.128 152.963H238.921L242.319 158.847L238.921 164.73H232.128Z" fill="#1F191A"/>
<path fill-rule="evenodd" clip-rule="evenodd" d="M232.128 178.831L228.732 172.948L232.128 167.064H238.921L242.319 172.948L238.921 178.831H232.128Z" fill="#1F191A"/>
<path fill-rule="evenodd" clip-rule="evenodd" d="M232.128 192.932L228.732 187.049L232.128 181.166H238.921L242.319 187.049L238.921 192.932H232.128Z" fill="#1F191A"/>
<path fill-rule="evenodd" clip-rule="evenodd" d="M232.128 207.033L228.732 201.15L232.128 195.266H238.921L242.319 201.15L238.921 207.033H232.128Z" fill="#1F191A"/>
<path fill-rule="evenodd" clip-rule="evenodd" d="M243.033 70.6885L244.431 73.1098H251.224L252.623 70.6885H243.033Z" fill="#1F191A"/>
<path fill-rule="evenodd" clip-rule="evenodd" d="M244.431 87.2112L241.035 81.3278L244.431 75.4443H251.224L254.622 81.3278L251.224 87.2112H244.431Z" fill="#1F191A"/>
<path fill-rule="evenodd" clip-rule="evenodd" d="M244.431 101.312L241.035 95.4288L244.431 89.5454H251.224L254.622 95.4288L251.224 101.312H244.431Z" fill="#1F191A"/>
<path fill-rule="evenodd" clip-rule="evenodd" d="M244.431 115.413L241.035 109.529L244.431 103.646H251.224L254.622 109.529L251.224 115.413H244.431Z" fill="#1F191A"/>
<path fill-rule="evenodd" clip-rule="evenodd" d="M244.431 129.514L241.035 123.632L244.431 117.747H251.224L254.622 123.632L251.224 129.514H244.431Z" fill="#1F191A"/>
<path fill-rule="evenodd" clip-rule="evenodd" d="M244.431 143.615L241.035 137.733L244.431 131.849H251.224L254.622 137.733L251.224 143.615H244.431Z" fill="#1F191A"/>
<path fill-rule="evenodd" clip-rule="evenodd" d="M244.431 157.716L241.035 151.833L244.431 145.949H251.224L254.622 151.833L251.224 157.716H244.431Z" fill="#1F191A"/>
<path fill-rule="evenodd" clip-rule="evenodd" d="M244.431 171.817L241.035 165.934L244.431 160.05H251.224L254.622 165.934L251.224 171.817H244.431Z" fill="#1F191A"/>
<path fill-rule="evenodd" clip-rule="evenodd" d="M244.431 185.918L241.035 180.035L244.431 174.151H251.224L254.622 180.035L251.224 185.918H244.431Z" fill="#1F191A"/>
<path fill-rule="evenodd" clip-rule="evenodd" d="M244.431 200.019L241.035 194.136L244.431 188.252H251.224L254.622 194.136L251.224 200.019H244.431Z" fill="#1F191A"/>
<path fill-rule="evenodd" clip-rule="evenodd" d="M255.39 70.6885L253.338 74.2406L256.736 80.124H263.53L266.927 74.2406L264.876 70.6885H255.39Z" fill="#1F191A"/>
<path fill-rule="evenodd" clip-rule="evenodd" d="M256.736 94.2248L253.338 88.3414L256.736 82.458H263.53L266.927 88.3414L263.53 94.2248H256.736Z" fill="#1F191A"/>
<path fill-rule="evenodd" clip-rule="evenodd" d="M256.736 108.326L253.338 102.444L256.736 96.5591H263.53L266.927 102.444L263.53 108.326H256.736Z" fill="#1F191A"/>
<path fill-rule="evenodd" clip-rule="evenodd" d="M256.736 122.427L253.338 116.544L256.736 110.66H263.53L266.927 116.544L263.53 122.427H256.736Z" fill="#1F191A"/>
<path fill-rule="evenodd" clip-rule="evenodd" d="M256.736 136.528L253.338 130.645L256.736 124.761H263.53L266.927 130.645L263.53 136.528H256.736Z" fill="#1F191A"/>
<path fill-rule="evenodd" clip-rule="evenodd" d="M256.736 150.629L253.338 144.746L256.736 138.862H263.53L266.927 144.746L263.53 150.629H256.736Z" fill="#1F191A"/>
<path fill-rule="evenodd" clip-rule="evenodd" d="M256.736 164.73L253.338 158.847L256.736 152.963H263.53L266.927 158.847L263.53 164.73H256.736Z" fill="#1F191A"/>
<path fill-rule="evenodd" clip-rule="evenodd" d="M256.736 178.831L253.338 172.948L256.736 167.064H263.53L266.927 172.948L263.53 178.831H256.736Z" fill="#1F191A"/>
<path fill-rule="evenodd" clip-rule="evenodd" d="M256.736 192.932L253.338 187.049L256.736 181.166H263.53L266.927 187.049L263.53 192.932H256.736Z" fill="#1F191A"/>
<path fill-rule="evenodd" clip-rule="evenodd" d="M256.736 207.033L253.338 201.15L256.736 195.266H263.53L266.927 201.15L263.53 207.033H256.736Z" fill="#1F191A"/>
<path fill-rule="evenodd" clip-rule="evenodd" d="M267.642 70.6885L269.04 73.1098H275.833L277.232 70.6885H267.642Z" fill="#1F191A"/>
<path fill-rule="evenodd" clip-rule="evenodd" d="M269.04 87.2112L265.644 81.3278L269.04 75.4443H275.833L279.231 81.3278L275.833 87.2112H269.04Z" fill="#1F191A"/>
<path fill-rule="evenodd" clip-rule="evenodd" d="M269.04 101.312L265.644 95.4288L269.04 89.5454H275.833L279.231 95.4288L275.833 101.312H269.04Z" fill="#1F191A"/>
<path fill-rule="evenodd" clip-rule="evenodd" d="M269.04 115.413L265.644 109.529L269.04 103.646H275.833L279.231 109.529L275.833 115.413H269.04Z" fill="#1F191A"/>
<path fill-rule="evenodd" clip-rule="evenodd" d="M269.04 129.514L265.644 123.632L269.04 117.747H275.833L279.231 123.632L275.833 129.514H269.04Z" fill="#1F191A"/>
<path fill-rule="evenodd" clip-rule="evenodd" d="M269.04 143.615L265.644 137.733L269.04 131.849H275.833L279.231 137.733L275.833 143.615H269.04Z" fill="#1F191A"/>
<path fill-rule="evenodd" clip-rule="evenodd" d="M269.04 157.716L265.644 151.833L269.04 145.949H275.833L279.231 151.833L275.833 157.716H269.04Z" fill="#1F191A"/>
<path fill-rule="evenodd" clip-rule="evenodd" d="M269.04 171.817L265.644 165.934L269.04 160.05H275.833L279.231 165.934L275.833 171.817H269.04Z" fill="#1F191A"/>
<path fill-rule="evenodd" clip-rule="evenodd" d="M269.04 185.918L265.644 180.035L269.04 174.151H275.833L279.231 180.035L275.833 185.918H269.04Z" fill="#1F191A"/>
<path fill-rule="evenodd" clip-rule="evenodd" d="M269.04 200.019L265.644 194.136L269.04 188.252H275.833L279.231 194.136L275.833 200.019H269.04Z" fill="#1F191A"/>
<path fill-rule="evenodd" clip-rule="evenodd" d="M279.999 70.6885L277.949 74.2406L281.344 80.124H288.138L291.536 74.2406L289.484 70.6885H279.999Z" fill="#1F191A"/>
<path fill-rule="evenodd" clip-rule="evenodd" d="M281.345 94.2248L277.949 88.3414L281.345 82.458H288.138L291.536 88.3414L288.138 94.2248H281.345Z" fill="#1F191A"/>
<path fill-rule="evenodd" clip-rule="evenodd" d="M281.345 108.326L277.949 102.444L281.345 96.5591H288.138L291.536 102.444L288.138 108.326H281.345Z" fill="#1F191A"/>
<path fill-rule="evenodd" clip-rule="evenodd" d="M281.345 122.427L277.949 116.544L281.345 110.66H288.138L291.536 116.544L288.138 122.427H281.345Z" fill="#1F191A"/>
<path fill-rule="evenodd" clip-rule="evenodd" d="M281.345 136.528L277.949 130.645L281.345 124.761H288.138L291.536 130.645L288.138 136.528H281.345Z" fill="#1F191A"/>
<path fill-rule="evenodd" clip-rule="evenodd" d="M281.345 150.629L277.949 144.746L281.345 138.862H288.138L291.536 144.746L288.138 150.629H281.345Z" fill="#1F191A"/>
<path fill-rule="evenodd" clip-rule="evenodd" d="M281.345 164.73L277.949 158.847L281.345 152.963H288.138L291.536 158.847L288.138 164.73H281.345Z" fill="#1F191A"/>
<path fill-rule="evenodd" clip-rule="evenodd" d="M281.345 178.831L277.949 172.948L281.345 167.064H288.138L291.536 172.948L288.138 178.831H281.345Z" fill="#1F191A"/>
<path fill-rule="evenodd" clip-rule="evenodd" d="M281.345 192.932L277.949 187.049L281.345 181.166H288.138L291.536 187.049L288.138 192.932H281.345Z" fill="#1F191A"/>
<path fill-rule="evenodd" clip-rule="evenodd" d="M281.345 207.033L277.949 201.15L281.345 195.266H288.138L291.536 201.15L288.138 207.033H281.345Z" fill="#1F191A"/>
<path fill-rule="evenodd" clip-rule="evenodd" d="M292.251 70.6885L293.649 73.1098H300.444L301.842 70.6885H292.251Z" fill="#1F191A"/>
<path fill-rule="evenodd" clip-rule="evenodd" d="M293.649 87.2112L290.253 81.3278L293.649 75.4443H300.444L303.842 81.3278L300.444 87.2112H293.649Z" fill="#1F191A"/>
<path fill-rule="evenodd" clip-rule="evenodd" d="M293.649 101.312L290.253 95.4288L293.649 89.5454H300.444L303.842 95.4288L300.444 101.312H293.649Z" fill="#1F191A"/>
<path fill-rule="evenodd" clip-rule="evenodd" d="M293.649 115.413L290.253 109.529L293.649 103.646H300.444L303.842 109.529L300.444 115.413H293.649Z" fill="#1F191A"/>
<path fill-rule="evenodd" clip-rule="evenodd" d="M293.649 129.514L290.253 123.632L293.649 117.747H300.444L303.842 123.632L300.444 129.514H293.649Z" fill="#1F191A"/>
<path fill-rule="evenodd" clip-rule="evenodd" d="M293.649 143.615L290.253 137.733L293.649 131.849H300.444L303.842 137.733L300.444 143.615H293.649Z" fill="#1F191A"/>
<path fill-rule="evenodd" clip-rule="evenodd" d="M293.649 157.716L290.253 151.833L293.649 145.949H300.444L303.842 151.833L300.444 157.716H293.649Z" fill="#1F191A"/>
<path fill-rule="evenodd" clip-rule="evenodd" d="M293.649 171.817L290.253 165.934L293.649 160.05H300.444L303.842 165.934L300.444 171.817H293.649Z" fill="#1F191A"/>
<path fill-rule="evenodd" clip-rule="evenodd" d="M293.649 185.918L290.253 180.035L293.649 174.151H300.444L303.842 180.035L300.444 185.918H293.649Z" fill="#1F191A"/>
<path fill-rule="evenodd" clip-rule="evenodd" d="M293.649 200.019L290.253 194.136L293.649 188.252H300.444L303.842 194.136L300.444 200.019H293.649Z" fill="#1F191A"/>
<path fill-rule="evenodd" clip-rule="evenodd" d="M304.608 70.6885L302.558 74.2406L305.953 80.124H312.747L316.144 74.2406L314.093 70.6885H304.608Z" fill="#1F191A"/>
<path fill-rule="evenodd" clip-rule="evenodd" d="M305.954 94.2248L302.558 88.3414L305.954 82.458H312.747L316.145 88.3414L312.747 94.2248H305.954Z" fill="#1F191A"/>
<path fill-rule="evenodd" clip-rule="evenodd" d="M305.954 108.326L302.558 102.444L305.954 96.5591H312.747L316.145 102.444L312.747 108.326H305.954Z" fill="#1F191A"/>
<path fill-rule="evenodd" clip-rule="evenodd" d="M305.954 122.427L302.558 116.544L305.954 110.66H312.747L316.145 116.544L312.747 122.427H305.954Z" fill="#1F191A"/>
<path fill-rule="evenodd" clip-rule="evenodd" d="M305.954 136.528L302.558 130.645L305.954 124.761H312.747L316.145 130.645L312.747 136.528H305.954Z" fill="#1F191A"/>
<path fill-rule="evenodd" clip-rule="evenodd" d="M305.954 150.629L302.558 144.746L305.954 138.862H312.747L316.145 144.746L312.747 150.629H305.954Z" fill="#1F191A"/>
<path fill-rule="evenodd" clip-rule="evenodd" d="M305.954 164.73L302.558 158.847L305.954 152.963H312.747L316.145 158.847L312.747 164.73H305.954Z" fill="#1F191A"/>
<path fill-rule="evenodd" clip-rule="evenodd" d="M305.954 178.831L302.558 172.948L305.954 167.064H312.747L316.145 172.948L312.747 178.831H305.954Z" fill="#1F191A"/>
<path fill-rule="evenodd" clip-rule="evenodd" d="M305.954 192.932L302.558 187.049L305.954 181.166H312.747L316.145 187.049L312.747 192.932H305.954Z" fill="#1F191A"/>
<path fill-rule="evenodd" clip-rule="evenodd" d="M305.954 207.033L302.558 201.15L305.954 195.266H312.747L316.145 201.15L312.747 207.033H305.954Z" fill="#1F191A"/>
<path fill-rule="evenodd" clip-rule="evenodd" d="M316.861 70.6885L318.26 73.1098H325.053L326.451 70.6885H316.861Z" fill="#1F191A"/>
<path fill-rule="evenodd" clip-rule="evenodd" d="M318.259 87.2112L314.861 81.3278L318.259 75.4443H325.053L328.45 81.3278L325.053 87.2112H318.259Z" fill="#1F191A"/>
<path fill-rule="evenodd" clip-rule="evenodd" d="M318.259 101.312L314.861 95.4288L318.259 89.5454H325.053L328.45 95.4288L325.053 101.312H318.259Z" fill="#1F191A"/>
<path fill-rule="evenodd" clip-rule="evenodd" d="M318.259 115.413L314.861 109.529L318.259 103.646H325.053L328.45 109.529L325.053 115.413H318.259Z" fill="#1F191A"/>
<path fill-rule="evenodd" clip-rule="evenodd" d="M318.259 129.514L314.861 123.632L318.259 117.747H325.053L328.45 123.632L325.053 129.514H318.259Z" fill="#1F191A"/>
<path fill-rule="evenodd" clip-rule="evenodd" d="M318.259 143.615L314.861 137.733L318.259 131.849H325.053L328.45 137.733L325.053 143.615H318.259Z" fill="#1F191A"/>
<path fill-rule="evenodd" clip-rule="evenodd" d="M318.259 157.716L314.861 151.833L318.259 145.949H325.053L328.45 151.833L325.053 157.716H318.259Z" fill="#1F191A"/>
<path fill-rule="evenodd" clip-rule="evenodd" d="M318.259 171.817L314.861 165.934L318.259 160.05H325.053L328.45 165.934L325.053 171.817H318.259Z" fill="#1F191A"/>
<path fill-rule="evenodd" clip-rule="evenodd" d="M318.259 185.918L314.861 180.035L318.259 174.151H325.053L328.45 180.035L325.053 185.918H318.259Z" fill="#1F191A"/>
<path fill-rule="evenodd" clip-rule="evenodd" d="M318.259 200.019L314.861 194.136L318.259 188.252H325.053L328.45 194.136L325.053 200.019H318.259Z" fill="#1F191A"/>
<path fill-rule="evenodd" clip-rule="evenodd" d="M329.217 70.6885L327.167 74.2406L330.562 80.124H337.356L340.753 74.2406L338.702 70.6885H329.217Z" fill="#1F191A"/>
<path fill-rule="evenodd" clip-rule="evenodd" d="M330.563 94.2248L327.167 88.3414L330.563 82.458H337.356L340.754 88.3414L337.356 94.2248H330.563Z" fill="#1F191A"/>
<path fill-rule="evenodd" clip-rule="evenodd" d="M330.563 108.326L327.167 102.444L330.563 96.5591H337.356L340.754 102.444L337.356 108.326H330.563Z" fill="#1F191A"/>
<path fill-rule="evenodd" clip-rule="evenodd" d="M330.563 122.427L327.167 116.544L330.563 110.66H337.356L340.754 116.544L337.356 122.427H330.563Z" fill="#1F191A"/>
<path fill-rule="evenodd" clip-rule="evenodd" d="M330.563 136.528L327.167 130.645L330.563 124.761H337.356L340.754 130.645L337.356 136.528H330.563Z" fill="#1F191A"/>
<path fill-rule="evenodd" clip-rule="evenodd" d="M330.563 150.629L327.167 144.746L330.563 138.862H337.356L340.754 144.746L337.356 150.629H330.563Z" fill="#1F191A"/>
<path fill-rule="evenodd" clip-rule="evenodd" d="M330.563 164.73L327.167 158.847L330.563 152.963H337.356L340.754 158.847L337.356 164.73H330.563Z" fill="#1F191A"/>
<path fill-rule="evenodd" clip-rule="evenodd" d="M330.563 178.831L327.167 172.948L330.563 167.064H337.356L340.754 172.948L337.356 178.831H330.563Z" fill="#1F191A"/>
<path fill-rule="evenodd" clip-rule="evenodd" d="M330.563 192.932L327.167 187.049L330.563 181.166H337.356L340.754 187.049L337.356 192.932H330.563Z" fill="#1F191A"/>
<path fill-rule="evenodd" clip-rule="evenodd" d="M330.563 207.033L327.167 201.15L330.563 195.266H337.356L340.754 201.15L337.356 207.033H330.563Z" fill="#1F191A"/>
<path fill-rule="evenodd" clip-rule="evenodd" d="M341.438 70.6885L342.837 73.1098H349.63L351.029 70.6885H341.438Z" fill="#1F191A"/>
<path fill-rule="evenodd" clip-rule="evenodd" d="M342.837 87.2112L339.439 81.3278L342.837 75.4443H349.63L353.028 81.3278L349.63 87.2112H342.837Z" fill="#1F191A"/>
<path fill-rule="evenodd" clip-rule="evenodd" d="M342.837 101.312L339.439 95.4288L342.837 89.5454H349.63L353.028 95.4288L349.63 101.312H342.837Z" fill="#1F191A"/>
<path fill-rule="evenodd" clip-rule="evenodd" d="M342.837 115.413L339.439 109.529L342.837 103.646H349.63L353.028 109.529L349.63 115.413H342.837Z" fill="#1F191A"/>
<path fill-rule="evenodd" clip-rule="evenodd" d="M342.837 129.514L339.439 123.632L342.837 117.747H349.63L353.028 123.632L349.63 129.514H342.837Z" fill="#1F191A"/>
<path fill-rule="evenodd" clip-rule="evenodd" d="M342.837 143.615L339.439 137.733L342.837 131.849H349.63L353.028 137.733L349.63 143.615H342.837Z" fill="#1F191A"/>
<path fill-rule="evenodd" clip-rule="evenodd" d="M342.837 157.716L339.439 151.833L342.837 145.949H349.63L353.028 151.833L349.63 157.716H342.837Z" fill="#1F191A"/>
<path fill-rule="evenodd" clip-rule="evenodd" d="M342.837 171.817L339.439 165.934L342.837 160.05H349.63L353.028 165.934L349.63 171.817H342.837Z" fill="#1F191A"/>
<path fill-rule="evenodd" clip-rule="evenodd" d="M342.837 185.918L339.439 180.035L342.837 174.151H349.63L353.028 180.035L349.63 185.918H342.837Z" fill="#1F191A"/>
<path fill-rule="evenodd" clip-rule="evenodd" d="M342.837 200.019L339.439 194.136L342.837 188.252H349.63L353.028 194.136L349.63 200.019H342.837Z" fill="#1F191A"/>
<path fill-rule="evenodd" clip-rule="evenodd" d="M353.794 70.6885L351.743 74.2406L355.139 80.124H361.935L365.331 74.2406L363.281 70.6885H353.794Z" fill="#1F191A"/>
<path fill-rule="evenodd" clip-rule="evenodd" d="M355.14 94.2253L351.744 88.3419L355.14 82.4585H361.935L365.331 88.3419L361.935 94.2253H355.14Z" fill="#1F191A"/>
<path fill-rule="evenodd" clip-rule="evenodd" d="M355.14 108.326L351.744 102.444L355.14 96.5591H361.935L365.331 102.444L361.935 108.326H355.14Z" fill="#1F191A"/>
<path fill-rule="evenodd" clip-rule="evenodd" d="M355.14 122.427L351.744 116.544L355.14 110.66H361.935L365.331 116.544L361.935 122.427H355.14Z" fill="#1F191A"/>
<path fill-rule="evenodd" clip-rule="evenodd" d="M355.14 136.528L351.744 130.645L355.14 124.761H361.935L365.331 130.645L361.935 136.528H355.14Z" fill="#1F191A"/>
<path fill-rule="evenodd" clip-rule="evenodd" d="M355.14 150.629L351.744 144.746L355.14 138.862H361.935L365.331 144.746L361.935 150.629H355.14Z" fill="#1F191A"/>
<path fill-rule="evenodd" clip-rule="evenodd" d="M355.14 164.73L351.744 158.847L355.14 152.963H361.935L365.331 158.847L361.935 164.73H355.14Z" fill="#1F191A"/>
<path fill-rule="evenodd" clip-rule="evenodd" d="M355.14 178.831L351.744 172.948L355.14 167.064H361.935L365.331 172.948L361.935 178.831H355.14Z" fill="#1F191A"/>
<path fill-rule="evenodd" clip-rule="evenodd" d="M355.14 192.932L351.744 187.049L355.14 181.166H361.935L365.331 187.049L361.935 192.932H355.14Z" fill="#1F191A"/>
<path fill-rule="evenodd" clip-rule="evenodd" d="M355.14 207.033L351.744 201.15L355.14 195.266H361.935L365.331 201.15L361.935 207.033H355.14Z" fill="#1F191A"/>
</g>
</g>
<g filter="url(#filter0_dd)">
<rect x="15" y="180" width="330" height="157" rx="5" fill="#1D1C1D"/>
</g>
<path fill-rule="evenodd" clip-rule="evenodd" d="M89 317C121.585 317 148 290.585 148 258C148 225.415 121.585 199 89 199C56.4152 199 30 225.415 30 258C30 290.585 56.4152 317 89 317Z" fill="#1D1C1D"/>
<path d="M147.5 258C147.5 290.309 121.309 316.5 89 316.5C56.6913 316.5 30.5 290.309 30.5 258C30.5 225.691 56.6913 199.5 89 199.5C121.309 199.5 147.5 225.691 147.5 258Z" stroke="white" stroke-opacity="0.5" style="mix-blend-mode:soft-light"/>
<path d="M107.563 268.662C109.396 262.971 109.396 257.28 107.563 251.588C108.076 251.364 108.526 251.019 108.875 250.581C109.224 250.143 109.461 249.627 109.565 249.077C109.669 248.527 109.637 247.96 109.472 247.425C109.307 246.89 109.014 246.403 108.618 246.007C108.222 245.611 107.736 245.318 107.201 245.153C106.666 244.988 106.099 244.956 105.549 245.06C104.999 245.164 104.482 245.401 104.045 245.75C103.607 246.099 103.261 246.55 103.037 247.063C93.769 245.229 84.2315 245.229 74.9634 247.063C74.7395 246.55 74.3936 246.099 73.9559 245.75C73.5181 245.401 73.0018 245.164 72.4517 245.06C71.9017 244.956 71.3345 244.988 70.7996 245.153C70.2647 245.318 69.7782 245.611 69.3823 246.007C68.9865 246.403 68.6933 246.89 68.5283 247.425C68.3632 247.96 68.3313 248.527 68.4354 249.077C68.5394 249.627 68.7762 250.143 69.1251 250.581C69.4741 251.019 69.9247 251.364 70.4378 251.588C68.6044 257.28 68.6044 262.971 70.4378 268.662C69.9247 268.886 69.4741 269.232 69.1251 269.67C68.7762 270.107 68.5394 270.624 68.4354 271.174C68.3313 271.724 68.3632 272.291 68.5283 272.826C68.6933 273.361 68.9865 273.847 69.3823 274.243C69.7782 274.639 70.2647 274.932 70.7996 275.097C71.3345 275.262 71.9017 275.294 72.4517 275.19C73.0018 275.086 73.5181 274.849 73.9559 274.5C74.3936 274.151 74.7395 273.701 74.9634 273.188C84.2315 275.021 93.769 275.021 103.037 273.188C103.261 273.701 103.607 274.151 104.045 274.5C104.482 274.849 104.999 275.086 105.549 275.19C106.099 275.294 106.666 275.262 107.201 275.097C107.736 274.932 108.222 274.639 108.618 274.243C109.014 273.847 109.307 273.361 109.472 272.826C109.637 272.291 109.669 271.724 109.565 271.174C109.461 270.624 109.224 270.107 108.875 269.67C108.526 269.232 108.076 268.886 107.563 268.662Z" fill="#347CFF"/>
<path d="M82.126 271.483C88.0825 272.055 94.0872 271.882 100.001 270.968L82.126 271.483Z" fill="#57A4FF"/>
<path d="M91.0635 248.438H93.8135L91.0635 251.875H93.8135" fill="#57A4FF"/>
<path d="M108.389 268.323C110.03 262.88 110.03 257.37 108.389 251.927C108.914 251.595 109.358 251.148 109.687 250.621C110.016 250.093 110.222 249.498 110.288 248.88C110.355 248.262 110.281 247.637 110.072 247.051C109.863 246.466 109.524 245.935 109.081 245.499C108.638 245.063 108.103 244.732 107.514 244.532C106.925 244.332 106.299 244.268 105.682 244.344C105.065 244.42 104.473 244.635 103.951 244.972C103.428 245.309 102.989 245.76 102.665 246.291C93.6356 244.578 84.3646 244.578 75.3351 246.291C75.0115 245.76 74.572 245.309 74.0496 244.972C73.5273 244.635 72.9354 244.42 72.3184 244.344C71.7013 244.268 71.0751 244.332 70.4864 244.532C69.8977 244.732 69.3618 245.063 68.9188 245.499C68.4758 245.935 68.1371 246.466 67.9281 247.051C67.7191 247.637 67.6451 248.262 67.7117 248.88C67.7784 249.498 67.9839 250.093 68.3129 250.621C68.6419 251.148 69.0859 251.595 69.6117 251.927C67.9703 257.37 67.9703 262.88 69.6117 268.323C69.0859 268.655 68.6419 269.102 68.3129 269.629C67.9839 270.157 67.7784 270.752 67.7117 271.37C67.6451 271.988 67.7191 272.613 67.9281 273.199C68.1371 273.784 68.4758 274.315 68.9188 274.751C69.3618 275.187 69.8977 275.518 70.4864 275.718C71.0751 275.918 71.7013 275.982 72.3184 275.906C72.9354 275.83 73.5273 275.615 74.0496 275.278C74.572 274.941 75.0115 274.49 75.3351 273.959C84.3646 275.672 93.6356 275.672 102.665 273.959C102.989 274.49 103.428 274.941 103.951 275.278C104.473 275.615 105.065 275.83 105.682 275.906C106.299 275.982 106.925 275.918 107.514 275.718C108.103 275.518 108.638 275.187 109.081 274.751C109.524 274.315 109.863 273.784 110.072 273.199C110.281 272.613 110.355 271.988 110.288 271.37C110.222 270.752 110.016 270.157 109.687 269.629C109.358 269.102 108.914 268.655 108.389 268.323ZM106.188 274.562C105.653 274.562 105.129 274.406 104.682 274.113C104.234 273.82 103.881 273.403 103.667 272.912C103.605 272.769 103.495 272.651 103.356 272.579C103.218 272.506 103.059 272.483 102.905 272.513C93.7235 274.321 84.2774 274.321 75.0958 272.513C74.9422 272.483 74.783 272.506 74.6445 272.579C74.5059 272.651 74.3962 272.769 74.3337 272.912C74.1545 273.323 73.8777 273.683 73.5276 273.962C73.1774 274.241 72.7643 274.431 72.3243 274.514C71.8843 274.597 71.4306 274.572 71.0027 274.44C70.5748 274.308 70.1856 274.073 69.8689 273.756C69.5523 273.44 69.3178 273.051 69.1857 272.623C69.0537 272.195 69.0282 271.741 69.1113 271.301C69.1945 270.861 69.3839 270.448 69.663 270.098C69.9421 269.748 70.3026 269.471 70.713 269.292C70.8691 269.223 70.9943 269.1 71.0644 268.944C71.1344 268.789 71.1443 268.613 71.092 268.451C69.3123 262.926 69.3123 257.324 71.092 251.799C71.1443 251.637 71.1344 251.461 71.0644 251.306C70.9943 251.15 70.8691 251.026 70.713 250.958C70.3026 250.779 69.9421 250.502 69.663 250.152C69.3839 249.802 69.1945 249.389 69.1113 248.949C69.0282 248.509 69.0537 248.055 69.1857 247.627C69.3178 247.199 69.5523 246.81 69.8689 246.493C70.1856 246.177 70.5748 245.942 71.0027 245.81C71.4306 245.678 71.8843 245.653 72.3243 245.736C72.7643 245.819 73.1774 246.008 73.5276 246.288C73.8777 246.567 74.1545 246.927 74.3337 247.337C74.3963 247.481 74.506 247.598 74.6445 247.671C74.7831 247.744 74.9423 247.767 75.0958 247.737C84.2774 245.929 93.7235 245.929 102.905 247.737C103.059 247.767 103.218 247.744 103.356 247.671C103.495 247.598 103.605 247.481 103.667 247.337C103.846 246.927 104.123 246.567 104.473 246.288C104.824 246.008 105.237 245.819 105.677 245.736C106.117 245.653 106.57 245.678 106.998 245.81C107.426 245.942 107.815 246.177 108.132 246.493C108.449 246.81 108.683 247.199 108.815 247.627C108.947 248.055 108.973 248.509 108.89 248.949C108.806 249.389 108.617 249.802 108.338 250.152C108.059 250.502 107.698 250.779 107.288 250.958C107.132 251.026 107.007 251.15 106.937 251.306C106.866 251.461 106.857 251.637 106.909 251.799C108.689 257.324 108.689 262.926 106.909 268.451C106.857 268.613 106.866 268.789 106.937 268.944C107.007 269.1 107.132 269.223 107.288 269.292C107.867 269.544 108.342 269.989 108.632 270.55C108.922 271.112 109.01 271.756 108.881 272.374C108.752 272.993 108.413 273.548 107.923 273.947C107.433 274.345 106.82 274.563 106.188 274.562Z" fill="white"/>
<path d="M99.8962 270.289C94.0383 271.19 88.0912 271.361 82.1912 270.798C82.1013 270.79 82.0106 270.799 81.9243 270.825C81.8379 270.852 81.7577 270.895 81.688 270.952C81.6184 271.01 81.5607 271.081 81.5184 271.16C81.476 271.24 81.4498 271.327 81.4411 271.417C81.4325 271.507 81.4417 271.598 81.4681 271.684C81.4945 271.77 81.5377 271.851 81.5952 271.92C81.6526 271.99 81.7232 272.048 81.803 272.09C81.8827 272.132 81.97 272.159 82.0599 272.167C84.358 272.388 86.6654 272.498 88.9819 272.498C92.7058 272.497 96.4242 272.213 100.105 271.648C100.284 271.619 100.444 271.52 100.55 271.373C100.657 271.227 100.701 271.044 100.674 270.865C100.646 270.686 100.549 270.525 100.404 270.417C100.258 270.309 100.076 270.263 99.8962 270.289V270.289Z" fill="white"/>
<path d="M91.0625 249.125H92.3821L90.5258 251.445C90.4449 251.546 90.3941 251.668 90.3794 251.797C90.3647 251.926 90.3867 252.056 90.4428 252.173C90.4989 252.289 90.5868 252.388 90.6964 252.457C90.8061 252.526 90.933 252.562 91.0625 252.562H93.8125C93.9949 252.562 94.1697 252.49 94.2987 252.361C94.4276 252.232 94.5 252.057 94.5 251.875C94.5 251.693 94.4276 251.518 94.2987 251.389C94.1697 251.26 93.9949 251.188 93.8125 251.188H92.4929L94.3492 248.867C94.4302 248.766 94.4809 248.644 94.4956 248.515C94.5103 248.387 94.4883 248.257 94.4322 248.14C94.3761 248.023 94.2882 247.925 94.1786 247.856C94.0689 247.787 93.942 247.75 93.8125 247.75H91.0625C90.8802 247.75 90.7053 247.822 90.5764 247.951C90.4474 248.08 90.375 248.255 90.375 248.438C90.375 248.62 90.4474 248.795 90.5764 248.924C90.7053 249.053 90.8802 249.125 91.0625 249.125Z" fill="white"/>
<path d="M97.25 240.875H98.5696L96.7133 243.195C96.6324 243.296 96.5816 243.418 96.5669 243.547C96.5522 243.676 96.5742 243.806 96.6303 243.923C96.6864 244.039 96.7743 244.138 96.884 244.207C96.9936 244.276 97.1205 244.312 97.25 244.312H100C100.182 244.312 100.357 244.24 100.486 244.111C100.615 243.982 100.688 243.807 100.688 243.625C100.688 243.443 100.615 243.268 100.486 243.139C100.357 243.01 100.182 242.938 100 242.938H98.6804L100.537 240.617C100.618 240.516 100.668 240.394 100.683 240.265C100.698 240.137 100.676 240.007 100.62 239.89C100.564 239.773 100.476 239.675 100.366 239.606C100.256 239.537 100.13 239.5 100 239.5H97.25C97.0677 239.5 96.8928 239.572 96.7639 239.701C96.6349 239.83 96.5625 240.005 96.5625 240.188C96.5625 240.37 96.6349 240.545 96.7639 240.674C96.8928 240.803 97.0677 240.875 97.25 240.875Z" fill="white"/>
<path d="M89 237.438H90.3196L88.4633 239.758C88.3824 239.859 88.3316 239.981 88.3169 240.11C88.3022 240.238 88.3242 240.368 88.3803 240.485C88.4364 240.602 88.5243 240.7 88.6339 240.769C88.7436 240.838 88.8705 240.875 89 240.875H91.75C91.9324 240.875 92.1072 240.803 92.2362 240.674C92.3651 240.545 92.4375 240.37 92.4375 240.188C92.4375 240.005 92.3651 239.83 92.2362 239.701C92.1072 239.572 91.9324 239.5 91.75 239.5H90.4304L92.2867 237.18C92.3677 237.079 92.4184 236.957 92.4331 236.828C92.4478 236.699 92.4258 236.569 92.3697 236.452C92.3136 236.336 92.2257 236.237 92.1161 236.168C92.0064 236.099 91.8795 236.062 91.75 236.063H89C88.8177 236.063 88.6428 236.135 88.5139 236.264C88.3849 236.393 88.3125 236.568 88.3125 236.75C88.3125 236.932 88.3849 237.107 88.5139 237.236C88.6428 237.365 88.8177 237.438 89 237.438Z" fill="white"/>
<path fill-rule="evenodd" clip-rule="evenodd" d="M303.5 287C319.24 287 332 274.24 332 258.5C332 242.76 319.24 230 303.5 230C287.76 230 275 242.76 275 258.5C275 274.24 287.76 287 303.5 287Z" fill="#1D1C1D"/>
<path d="M331.5 258.5C331.5 273.964 318.964 286.5 303.5 286.5C288.036 286.5 275.5 273.964 275.5 258.5C275.5 243.036 288.036 230.5 303.5 230.5C318.964 230.5 331.5 243.036 331.5 258.5Z" stroke="white" stroke-opacity="0.5" style="mix-blend-mode:soft-light"/>
<path d="M277.336 269.819C281.716 279.928 291.782 287 303.5 287" stroke="#347CFF"/>
<path d="M305.602 251.719C305.602 252.137 305.494 252.51 305.279 252.838C305.064 253.162 304.771 253.418 304.4 253.605C304.846 253.812 305.188 254.096 305.426 254.455C305.668 254.814 305.789 255.221 305.789 255.674C305.789 256.424 305.535 257.02 305.027 257.461C304.52 257.898 303.844 258.117 303 258.117C302.152 258.117 301.473 257.896 300.961 257.455C300.453 257.014 300.199 256.42 300.199 255.674C300.199 255.217 300.32 254.807 300.562 254.443C300.805 254.08 301.145 253.801 301.582 253.605C301.215 253.418 300.924 253.162 300.709 252.838C300.498 252.51 300.393 252.137 300.393 251.719C300.393 250.992 300.627 250.416 301.096 249.99C301.564 249.564 302.197 249.352 302.994 249.352C303.795 249.352 304.43 249.564 304.898 249.99C305.367 250.416 305.602 250.992 305.602 251.719ZM304.365 255.604C304.365 255.182 304.238 254.842 303.984 254.584C303.734 254.322 303.402 254.191 302.988 254.191C302.574 254.191 302.242 254.32 301.992 254.578C301.746 254.836 301.623 255.178 301.623 255.604C301.623 256.021 301.744 256.355 301.986 256.605C302.232 256.855 302.57 256.98 303 256.98C303.43 256.98 303.764 256.859 304.002 256.617C304.244 256.375 304.365 256.037 304.365 255.604ZM304.184 251.771C304.184 251.4 304.076 251.096 303.861 250.857C303.646 250.615 303.357 250.494 302.994 250.494C302.631 250.494 302.344 250.609 302.133 250.84C301.922 251.066 301.816 251.377 301.816 251.771C301.816 252.162 301.922 252.473 302.133 252.703C302.348 252.934 302.637 253.049 303 253.049C303.363 253.049 303.65 252.934 303.861 252.703C304.076 252.473 304.184 252.162 304.184 251.771Z" fill="white"/>
<path d="M293.908 268H293V266.086C292.603 266.19 292.196 266.242 291.779 266.242C291.118 266.242 290.614 266.073 290.266 265.734C289.921 265.396 289.745 264.914 289.738 264.289V262.712H290.642V264.318C290.658 265.106 291.037 265.5 291.779 265.5C292.196 265.5 292.603 265.448 293 265.344V262.717H293.908V268ZM298.62 268C298.568 267.896 298.526 267.71 298.493 267.443C298.073 267.88 297.572 268.098 296.989 268.098C296.468 268.098 296.04 267.951 295.705 267.658C295.373 267.362 295.207 266.988 295.207 266.535C295.207 265.985 295.415 265.559 295.832 265.256C296.252 264.95 296.841 264.797 297.6 264.797H298.479V264.382C298.479 264.066 298.384 263.815 298.195 263.63C298.007 263.441 297.728 263.347 297.36 263.347C297.038 263.347 296.768 263.428 296.55 263.591C296.332 263.754 296.223 263.951 296.223 264.182H295.314C295.314 263.918 295.407 263.664 295.593 263.42C295.782 263.173 296.035 262.977 296.354 262.834C296.677 262.691 297.03 262.619 297.414 262.619C298.023 262.619 298.5 262.772 298.845 263.078C299.19 263.381 299.369 263.799 299.382 264.333V266.765C299.382 267.25 299.444 267.635 299.567 267.922V268H298.62ZM297.121 267.312C297.404 267.312 297.673 267.238 297.927 267.092C298.181 266.945 298.365 266.755 298.479 266.521V265.437H297.771C296.664 265.437 296.11 265.76 296.11 266.408C296.11 266.691 296.205 266.913 296.394 267.072C296.582 267.232 296.825 267.312 297.121 267.312ZM302.917 267.36C303.239 267.36 303.521 267.263 303.762 267.067C304.003 266.872 304.136 266.628 304.162 266.335H305.017C305 266.638 304.896 266.926 304.704 267.199C304.512 267.473 304.255 267.691 303.933 267.854C303.614 268.016 303.275 268.098 302.917 268.098C302.198 268.098 301.625 267.858 301.198 267.38C300.775 266.898 300.563 266.241 300.563 265.407V265.256C300.563 264.742 300.658 264.284 300.847 263.884C301.035 263.483 301.306 263.173 301.657 262.951C302.012 262.73 302.43 262.619 302.912 262.619C303.505 262.619 303.996 262.797 304.387 263.151C304.781 263.506 304.991 263.967 305.017 264.533H304.162C304.136 264.191 304.006 263.911 303.771 263.693C303.54 263.472 303.254 263.361 302.912 263.361C302.453 263.361 302.097 263.527 301.843 263.859C301.592 264.188 301.467 264.665 301.467 265.29V265.461C301.467 266.07 301.592 266.538 301.843 266.867C302.093 267.196 302.451 267.36 302.917 267.36ZM305.793 265.31C305.793 264.792 305.894 264.326 306.096 263.913C306.301 263.5 306.584 263.181 306.945 262.956C307.31 262.731 307.725 262.619 308.19 262.619C308.91 262.619 309.491 262.868 309.934 263.366C310.38 263.864 310.603 264.527 310.603 265.354V265.417C310.603 265.931 310.503 266.394 310.305 266.804C310.109 267.211 309.828 267.528 309.46 267.756C309.095 267.984 308.675 268.098 308.2 268.098C307.484 268.098 306.903 267.849 306.457 267.351C306.014 266.853 305.793 266.193 305.793 265.373V265.31ZM306.701 265.417C306.701 266.003 306.836 266.473 307.106 266.828C307.38 267.183 307.744 267.36 308.2 267.36C308.659 267.36 309.024 267.181 309.294 266.823C309.564 266.462 309.699 265.957 309.699 265.31C309.699 264.73 309.561 264.261 309.284 263.903C309.011 263.542 308.646 263.361 308.19 263.361C307.744 263.361 307.385 263.539 307.111 263.894C306.838 264.248 306.701 264.756 306.701 265.417ZM311.818 268V262.717H313.879C314.582 262.717 315.121 262.84 315.495 263.088C315.873 263.332 316.062 263.692 316.062 264.167C316.062 264.411 315.988 264.632 315.842 264.831C315.695 265.026 315.479 265.176 315.192 265.28C315.511 265.355 315.767 265.502 315.959 265.72C316.154 265.938 316.252 266.198 316.252 266.501C316.252 266.986 316.073 267.357 315.715 267.614C315.36 267.871 314.857 268 314.206 268H311.818ZM312.722 265.681V267.272H314.216C314.593 267.272 314.875 267.202 315.061 267.062C315.249 266.923 315.344 266.726 315.344 266.472C315.344 265.944 314.956 265.681 314.182 265.681H312.722ZM312.722 264.958H313.889C314.735 264.958 315.158 264.711 315.158 264.216C315.158 263.721 314.758 263.465 313.957 263.449H312.722V264.958Z" fill="white" fill-opacity="0.5"/>
<g filter="url(#filter1_d)">
<g clip-path="url(#clip1)">
<g filter="url(#filter2_dd)">
<path fill-rule="evenodd" clip-rule="evenodd" d="M360 -6H0V76H360V-6Z" fill="#1D1C1D"/>
</g>
<path d="M86.5215 55.4961H84.1777V52H74.8125V55.4961H72.4297L72.3516 50.0273H73.4941C74.0605 49.4805 74.513 48.6862 74.8516 47.6445C75.1901 46.5964 75.4082 45.4115 75.5059 44.0898L75.877 37.7812H84.8418V50.0273H86.6484L86.5215 55.4961ZM76.2871 50.0273H82.3809V39.7734H78.2305L77.9961 43.7773C77.8203 46.4531 77.2507 48.5365 76.2871 50.0273ZM87.8301 46.6191C87.8301 45.584 88.0352 44.653 88.4453 43.8262C88.8555 42.9928 89.4316 42.3548 90.1738 41.9121C90.916 41.4629 91.7689 41.2383 92.7324 41.2383C94.1582 41.2383 95.3138 41.6973 96.1992 42.6152C97.0911 43.5332 97.5729 44.7507 97.6445 46.2676L97.6543 46.8242C97.6543 47.8659 97.4525 48.7969 97.0488 49.6172C96.6517 50.4375 96.0788 51.0723 95.3301 51.5215C94.5879 51.9707 93.7285 52.1953 92.752 52.1953C91.2611 52.1953 90.0664 51.7005 89.168 50.7109C88.276 49.7148 87.8301 48.39 87.8301 46.7363V46.6191ZM90.2031 46.8242C90.2031 47.9115 90.4277 48.7643 90.877 49.3828C91.3262 49.9948 91.9512 50.3008 92.752 50.3008C93.5527 50.3008 94.1745 49.9883 94.6172 49.3633C95.0664 48.7383 95.291 47.8236 95.291 46.6191C95.291 45.5514 95.0599 44.7051 94.5977 44.0801C94.1419 43.4551 93.5202 43.1426 92.7324 43.1426C91.9577 43.1426 91.3424 43.4518 90.8867 44.0703C90.431 44.6823 90.2031 45.6003 90.2031 46.8242ZM104.637 42.0195C105.965 42.0195 107.029 42.4655 107.83 43.3574C108.631 44.2428 109.031 45.4473 109.031 46.9707V47.0879C109.031 48.6113 108.595 49.8451 107.723 50.7891C106.857 51.7331 105.678 52.2051 104.188 52.2051C102.736 52.2051 101.564 51.7233 100.672 50.7598C99.7799 49.7962 99.334 48.4811 99.334 46.8145V46.1309C99.334 43.8522 99.7376 42.0488 100.545 40.7207C101.352 39.3926 102.557 38.5625 104.158 38.2305C105.057 38.0482 105.636 37.8561 105.896 37.6543C106.163 37.446 106.297 37.166 106.297 36.8145H108.211C108.211 37.472 108.104 38.0059 107.889 38.416C107.674 38.8262 107.345 39.1615 106.902 39.4219C106.46 39.6758 105.698 39.9167 104.617 40.1445C103.628 40.3529 102.872 40.724 102.352 41.2578C101.837 41.7917 101.492 42.5306 101.316 43.4746C102.26 42.5046 103.367 42.0195 104.637 42.0195ZM104.168 43.9238C103.4 43.9238 102.798 44.1842 102.361 44.7051C101.925 45.2194 101.707 46.0137 101.707 47.0879C101.707 48.1035 101.922 48.8945 102.352 49.4609C102.781 50.0273 103.393 50.3105 104.188 50.3105C104.975 50.3105 105.584 50.0273 106.014 49.4609C106.45 48.888 106.668 48.0286 106.668 46.8828C106.668 45.9714 106.45 45.252 106.014 44.7246C105.584 44.1908 104.969 43.9238 104.168 43.9238ZM117.205 52C117.101 51.7982 117.01 51.4694 116.932 51.0137C116.176 51.8014 115.252 52.1953 114.158 52.1953C113.097 52.1953 112.231 51.8926 111.561 51.2871C110.89 50.6816 110.555 49.9329 110.555 49.041C110.555 47.9147 110.971 47.0521 111.805 46.4531C112.645 45.8477 113.842 45.5449 115.398 45.5449H116.854V44.8516C116.854 44.3047 116.701 43.8685 116.395 43.543C116.089 43.2109 115.623 43.0449 114.998 43.0449C114.458 43.0449 114.015 43.1816 113.67 43.4551C113.325 43.722 113.152 44.0638 113.152 44.4805H110.779C110.779 43.901 110.971 43.3607 111.355 42.8594C111.74 42.3516 112.26 41.9544 112.918 41.668C113.582 41.3815 114.321 41.2383 115.135 41.2383C116.372 41.2383 117.358 41.5508 118.094 42.1758C118.829 42.7943 119.207 43.6667 119.227 44.793V49.5586C119.227 50.5091 119.36 51.2676 119.627 51.834V52H117.205ZM114.598 50.291C115.066 50.291 115.506 50.1771 115.916 49.9492C116.333 49.7214 116.645 49.4154 116.854 49.0312V47.0391H115.574C114.695 47.0391 114.035 47.1921 113.592 47.498C113.149 47.804 112.928 48.237 112.928 48.7969C112.928 49.2526 113.077 49.6172 113.377 49.8906C113.683 50.1576 114.09 50.291 114.598 50.291ZM121.893 52V41.4336H126.18C127.625 41.4336 128.725 41.6875 129.48 42.1953C130.236 42.6966 130.613 43.4193 130.613 44.3633C130.613 44.8516 130.46 45.291 130.154 45.6816C129.855 46.0658 129.409 46.362 128.816 46.5703C129.507 46.7135 130.053 47.0033 130.457 47.4395C130.861 47.8757 131.062 48.39 131.062 48.9824C131.062 49.9655 130.698 50.7142 129.969 51.2285C129.246 51.7428 128.204 52 126.844 52H121.893ZM124.266 47.498V50.125H126.863C128.081 50.125 128.689 49.6888 128.689 48.8164C128.689 47.9375 128.071 47.498 126.834 47.498H124.266ZM124.266 45.7988H126.219C127.566 45.7988 128.24 45.4017 128.24 44.6074C128.24 43.7741 127.602 43.3444 126.326 43.3184H124.266V45.7988ZM139.715 41.4336H142.078V52H139.715V44.9492L135.574 52H133.211V41.4336H135.574V48.4844L139.715 41.4336ZM152.918 43.3184H149.49V52H147.117V43.3184H143.729V41.4336H152.918V43.3184ZM157.059 44.793H159.383C160.249 44.793 161.004 44.9427 161.648 45.2422C162.293 45.5417 162.781 45.9616 163.113 46.502C163.452 47.0423 163.621 47.6706 163.621 48.3867C163.621 49.474 163.237 50.3464 162.469 51.0039C161.701 51.6615 160.678 51.9935 159.402 52H154.686V41.4336H157.059V44.793ZM157.059 46.6973V50.1055H159.373C159.952 50.1055 160.408 49.9622 160.74 49.6758C161.079 49.3828 161.248 48.9694 161.248 48.4355C161.248 47.9017 161.082 47.4818 160.75 47.1758C160.424 46.8633 159.982 46.7038 159.422 46.6973H157.059ZM170.545 50.1055C171.202 49.3698 171.642 48.6732 171.863 48.0156C172.091 47.3516 172.228 46.5052 172.273 45.4766L172.41 41.4336H179.744V50.1055H181.209V55.1445H178.846V52H172.068V55.1445H169.666L169.676 50.1055H170.545ZM173.328 50.1055H177.381V43.4746H174.715L174.646 45.4961C174.555 47.4362 174.116 48.9727 173.328 50.1055ZM189.217 52C189.113 51.7982 189.021 51.4694 188.943 51.0137C188.188 51.8014 187.264 52.1953 186.17 52.1953C185.109 52.1953 184.243 51.8926 183.572 51.2871C182.902 50.6816 182.566 49.9329 182.566 49.041C182.566 47.9147 182.983 47.0521 183.816 46.4531C184.656 45.8477 185.854 45.5449 187.41 45.5449H188.865V44.8516C188.865 44.3047 188.712 43.8685 188.406 43.543C188.1 43.2109 187.635 43.0449 187.01 43.0449C186.469 43.0449 186.027 43.1816 185.682 43.4551C185.337 43.722 185.164 44.0638 185.164 44.4805H182.791C182.791 43.901 182.983 43.3607 183.367 42.8594C183.751 42.3516 184.272 41.9544 184.93 41.668C185.594 41.3815 186.333 41.2383 187.146 41.2383C188.383 41.2383 189.37 41.5508 190.105 42.1758C190.841 42.7943 191.219 43.6667 191.238 44.793V49.5586C191.238 50.5091 191.372 51.2676 191.639 51.834V52H189.217ZM186.609 50.291C187.078 50.291 187.518 50.1771 187.928 49.9492C188.344 49.7214 188.657 49.4154 188.865 49.0312V47.0391H187.586C186.707 47.0391 186.046 47.1921 185.604 47.498C185.161 47.804 184.939 48.237 184.939 48.7969C184.939 49.2526 185.089 49.6172 185.389 49.8906C185.695 50.1576 186.102 50.291 186.609 50.291ZM202.674 52H200.301V47.7324H196.189V52H193.816V41.4336H196.189V45.8379H200.301V41.4336H202.674V52ZM214.158 52H211.785V47.7324H207.674V52H205.301V41.4336H207.674V45.8379H211.785V41.4336H214.158V52ZM219.246 44.793H221.57C222.436 44.793 223.191 44.9427 223.836 45.2422C224.48 45.5417 224.969 45.9616 225.301 46.502C225.639 47.0423 225.809 47.6706 225.809 48.3867C225.809 49.474 225.424 50.3464 224.656 51.0039C223.888 51.6615 222.866 51.9935 221.59 52H216.873V41.4336H219.246V44.793ZM229.939 52H227.566V41.4336H229.939V52ZM219.246 46.6973V50.1055H221.561C222.14 50.1055 222.596 49.9622 222.928 49.6758C223.266 49.3828 223.436 48.9694 223.436 48.4355C223.436 47.9017 223.27 47.4818 222.938 47.1758C222.612 46.8633 222.169 46.7038 221.609 46.6973H219.246ZM237.439 52.1953C235.936 52.1953 234.715 51.7233 233.777 50.7793C232.846 49.8288 232.381 48.5658 232.381 46.9902V46.6973C232.381 45.6426 232.583 44.7018 232.986 43.875C233.396 43.0417 233.969 42.3939 234.705 41.9316C235.441 41.4694 236.261 41.2383 237.166 41.2383C238.605 41.2383 239.715 41.6973 240.496 42.6152C241.284 43.5332 241.678 44.832 241.678 46.5117V47.4688H234.773C234.845 48.3411 235.135 49.0312 235.643 49.5391C236.157 50.0469 236.801 50.3008 237.576 50.3008C238.663 50.3008 239.549 49.8613 240.232 48.9824L241.512 50.2031C241.089 50.8346 240.522 51.3262 239.812 51.6777C239.109 52.0228 238.318 52.1953 237.439 52.1953ZM237.156 43.1426C236.505 43.1426 235.978 43.3704 235.574 43.8262C235.177 44.2819 234.923 44.9167 234.812 45.7305H239.334V45.5547C239.282 44.7604 239.07 44.1615 238.699 43.7578C238.328 43.3477 237.814 43.1426 237.156 43.1426Z" fill="white"/>
<path fill-rule="evenodd" clip-rule="evenodd" d="M36 45.9168H23.83L29.42 39.861L28 38.3335L20 47.0002L28 55.6668L29.41 54.1393L23.83 48.0835H36V45.9168Z" fill="white"/>
</g>
<path fill-rule="evenodd" clip-rule="evenodd" d="M0 -6V18H360V-6H0Z" fill="black" fill-opacity="0.1"/>
<path d="M323.627 11H322.447V3.17334L320.079 4.04297V2.97656L323.443 1.71338H323.627V11ZM333.124 11H327.068V10.1558L330.267 6.60107C330.741 6.06364 331.067 5.62777 331.245 5.29346C331.427 4.95492 331.518 4.60579 331.518 4.24609C331.518 3.76367 331.372 3.368 331.08 3.05908C330.788 2.75016 330.398 2.5957 329.912 2.5957C329.328 2.5957 328.873 2.76286 328.547 3.09717C328.225 3.42725 328.064 3.88851 328.064 4.48096H326.89C326.89 3.63037 327.163 2.94271 327.709 2.41797C328.259 1.89323 328.993 1.63086 329.912 1.63086C330.771 1.63086 331.45 1.85726 331.949 2.31006C332.449 2.75863 332.698 3.35742 332.698 4.10645C332.698 5.01628 332.118 6.09961 330.959 7.35645L328.483 10.0415H333.124V11ZM334.45 10.3843C334.45 10.1812 334.509 10.0119 334.628 9.87646C334.751 9.74105 334.933 9.67334 335.174 9.67334C335.415 9.67334 335.597 9.74105 335.72 9.87646C335.847 10.0119 335.91 10.1812 335.91 10.3843C335.91 10.5789 335.847 10.7419 335.72 10.873C335.597 11.0042 335.415 11.0698 335.174 11.0698C334.933 11.0698 334.751 11.0042 334.628 10.873C334.509 10.7419 334.45 10.5789 334.45 10.3843ZM334.457 4.7793C334.457 4.57617 334.516 4.4069 334.634 4.27148C334.757 4.13607 334.939 4.06836 335.18 4.06836C335.421 4.06836 335.603 4.13607 335.726 4.27148C335.853 4.4069 335.917 4.57617 335.917 4.7793C335.917 4.97396 335.853 5.13688 335.726 5.26807C335.603 5.39925 335.421 5.46484 335.18 5.46484C334.939 5.46484 334.757 5.39925 334.634 5.26807C334.516 5.13688 334.457 4.97396 334.457 4.7793ZM339.224 5.80762H340.106C340.66 5.79915 341.096 5.65316 341.414 5.36963C341.731 5.0861 341.89 4.70312 341.89 4.2207C341.89 3.13737 341.35 2.5957 340.271 2.5957C339.763 2.5957 339.357 2.7417 339.052 3.03369C338.752 3.32145 338.602 3.70443 338.602 4.18262H337.427C337.427 3.45052 337.694 2.84326 338.227 2.36084C338.764 1.87419 339.446 1.63086 340.271 1.63086C341.143 1.63086 341.826 1.86149 342.321 2.32275C342.816 2.78402 343.064 3.42513 343.064 4.24609C343.064 4.64811 342.933 5.03743 342.67 5.41406C342.412 5.79069 342.059 6.0721 341.61 6.2583C342.118 6.41911 342.51 6.68571 342.785 7.05811C343.064 7.4305 343.204 7.88542 343.204 8.42285C343.204 9.25228 342.933 9.91032 342.391 10.397C341.849 10.8836 341.145 11.127 340.277 11.127C339.41 11.127 338.703 10.8921 338.157 10.4224C337.616 9.95264 337.345 9.33268 337.345 8.5625H338.525C338.525 9.04915 338.684 9.43848 339.001 9.73047C339.319 10.0225 339.744 10.1685 340.277 10.1685C340.844 10.1685 341.278 10.0203 341.579 9.72412C341.879 9.4279 342.029 9.0026 342.029 8.44824C342.029 7.91081 341.864 7.49821 341.534 7.21045C341.204 6.92269 340.728 6.77458 340.106 6.76611H339.224V5.80762ZM350.611 7.05811C350.611 8.43343 350.376 9.4554 349.907 10.124C349.437 10.7926 348.703 11.127 347.704 11.127C346.718 11.127 345.988 10.8011 345.514 10.1494C345.04 9.49349 344.795 8.51595 344.778 7.2168V5.64893C344.778 4.29053 345.013 3.28125 345.482 2.62109C345.952 1.96094 346.688 1.63086 347.691 1.63086C348.686 1.63086 349.418 1.95036 349.888 2.58936C350.357 3.22412 350.599 4.20589 350.611 5.53467V7.05811ZM349.437 5.45215C349.437 4.45768 349.297 3.73405 349.018 3.28125C348.739 2.82422 348.297 2.5957 347.691 2.5957C347.09 2.5957 346.653 2.8221 346.377 3.2749C346.102 3.7277 345.961 4.42383 345.952 5.36328V7.24219C345.952 8.24089 346.096 8.97933 346.384 9.45752C346.676 9.93148 347.116 10.1685 347.704 10.1685C348.284 10.1685 348.713 9.94417 348.993 9.49561C349.276 9.04704 349.424 8.34033 349.437 7.37549V5.45215Z" fill="white"/>
<path fill-rule="evenodd" clip-rule="evenodd" d="M309 0H308V-1H304V0H303C302.4 0 302 0.4 302 1V11C302 11.6 302.4 12 303 12H309C309.6 12 310 11.6 310 11V1C310 0.4 309.6 0 309 0Z" fill="white" fill-opacity="0.3"/>
<mask id="mask1" mask-type="alpha" maskUnits="userSpaceOnUse" x="302" y="-1" width="8" height="13">
<path fill-rule="evenodd" clip-rule="evenodd" d="M309 0H308V-1H304V0H303C302.4 0 302 0.4 302 1V11C302 11.6 302.4 12 303 12H309C309.6 12 310 11.6 310 11V1C310 0.4 309.6 0 309 0Z" fill="white"/>
</mask>
<g mask="url(#mask1)">
<path fill-rule="evenodd" clip-rule="evenodd" d="M302 9V6H310V9V12H302V9Z" fill="white" fill-opacity="0.9"/>
</g>
<path fill-rule="evenodd" clip-rule="evenodd" d="M288 12V0L276 12H288Z" fill="white" fill-opacity="0.3"/>
<mask id="mask2" mask-type="alpha" maskUnits="userSpaceOnUse" x="276" y="0" width="12" height="12">
<path fill-rule="evenodd" clip-rule="evenodd" d="M288 12V0L276 12H288Z" fill="white"/>
</mask>
<g mask="url(#mask2)">
<path fill-rule="evenodd" clip-rule="evenodd" d="M276 12V0H279H282V12H279H276Z" fill="white" fill-opacity="0.9"/>
</g>
<mask id="mask3" mask-type="alpha" maskUnits="userSpaceOnUse" x="250" y="0" width="16" height="12">
<path fill-rule="evenodd" clip-rule="evenodd" d="M250 0L258 12L266 0H250Z" fill="white"/>
</mask>
<g mask="url(#mask3)">
<path fill-rule="evenodd" clip-rule="evenodd" d="M258 0C251.4 0 246 5.4 246 12C246 18.6 251.4 24 258 24C264.6 24 270 18.6 270 12C270 5.4 264.6 0 258 0ZM258 21C253 21 249 17 249 12C249 7 253 3 258 3C263 3 267 7 267 12C267 17 263 21 258 21Z" fill="white" fill-opacity="0.3"/>
<path fill-rule="evenodd" clip-rule="evenodd" d="M258 21C262.971 21 267 16.9706 267 12C267 7.02944 262.971 3 258 3C253.029 3 249 7.02944 249 12C249 16.9706 253.029 21 258 21Z" fill="white" fill-opacity="0.9"/>
</g>
</g>
<g filter="url(#filter3_dd)">
<rect x="15" y="420" width="171" height="52" rx="5" fill="#1D1C1D"/>
</g>
<g clip-path="url(#clip2)">
<path fill-rule="evenodd" clip-rule="evenodd" d="M204 419.5C201.239 419.5 199 421.739 199 424.5V466.5C199 469.261 201.239 471.5 204 471.5H259C261.761 471.5 264 469.261 264 466.5V424.5C264 421.739 261.761 419.5 259 419.5H204Z" fill="#1D1C1D"/>
<path d="M199.5 424.5C199.5 422.015 201.515 420 204 420H259C261.485 420 263.5 422.015 263.5 424.5V466.5C263.5 468.985 261.485 471 259 471H204C201.515 471 199.5 468.985 199.5 466.5V424.5Z" stroke="white" stroke-opacity="0.5" style="mix-blend-mode:soft-light"/>
<path opacity="0.5" d="M271.684 446.75C271.994 446.75 272.233 446.839 272.402 447.017C272.57 447.19 272.655 447.409 272.655 447.673C272.655 447.933 272.57 448.149 272.402 448.322C272.233 448.491 271.994 448.575 271.684 448.575C271.388 448.575 271.153 448.491 270.98 448.322C270.807 448.154 270.72 447.937 270.72 447.673C270.72 447.409 270.805 447.19 270.973 447.017C271.142 446.839 271.379 446.75 271.684 446.75ZM271.684 440.946C271.994 440.946 272.233 441.035 272.402 441.213C272.57 441.386 272.655 441.605 272.655 441.869C272.655 442.129 272.57 442.345 272.402 442.519C272.233 442.687 271.994 442.771 271.684 442.771C271.388 442.771 271.153 442.687 270.98 442.519C270.807 442.35 270.72 442.133 270.72 441.869C270.72 441.605 270.805 441.386 270.973 441.213C271.142 441.035 271.379 440.946 271.684 440.946Z" fill="white"/>
<path fill-rule="evenodd" clip-rule="evenodd" d="M285 419.5C282.239 419.5 280 421.739 280 424.5V466.5C280 469.261 282.239 471.5 285 471.5H340C342.761 471.5 345 469.261 345 466.5V424.5C345 421.739 342.761 419.5 340 419.5H285Z" fill="#1D1C1D"/>
<path d="M280.5 424.5C280.5 422.015 282.515 420 285 420H340C342.485 420 344.5 422.015 344.5 424.5V466.5C344.5 468.985 342.485 471 340 471H285C282.515 471 280.5 468.985 280.5 466.5V424.5Z" stroke="white" stroke-opacity="0.5" style="mix-blend-mode:soft-light"/>
<g filter="url(#filter4_dd)">
<rect x="16.1909" y="419.5" width="169.5" height="52" rx="5" fill="#1D1C1D"/>
</g>
<g filter="url(#filter5_d)">
<path d="M33.1553 450.5V440.547H36.4092C37.4893 440.547 38.3005 440.77 38.8428 441.217C39.3896 441.663 39.6631 442.324 39.6631 443.199C39.6631 443.664 39.5309 444.076 39.2666 444.437C39.0023 444.792 38.6423 445.068 38.1865 445.264C38.7243 445.414 39.1481 445.701 39.458 446.125C39.7725 446.544 39.9297 447.046 39.9297 447.629C39.9297 448.522 39.6403 449.224 39.0615 449.734C38.4827 450.245 37.6647 450.5 36.6074 450.5H33.1553ZM34.4678 445.845V449.427H36.6348C37.2454 449.427 37.7262 449.27 38.0771 448.955C38.4326 448.636 38.6104 448.199 38.6104 447.643C38.6104 446.444 37.9587 445.845 36.6553 445.845H34.4678ZM34.4678 444.792H36.4502C37.0244 444.792 37.4824 444.648 37.8242 444.361C38.1706 444.074 38.3438 443.685 38.3438 443.192C38.3438 442.646 38.1842 442.249 37.8652 442.003C37.5462 441.752 37.0609 441.627 36.4092 441.627H34.4678V444.792ZM48.0152 446.884C48.0152 448.009 47.7577 448.916 47.2428 449.604C46.7278 450.293 46.0305 450.637 45.151 450.637C44.2532 450.637 43.5468 450.352 43.0318 449.782V453.344H41.7672V443.104H42.9225L42.984 443.924C43.499 443.286 44.2145 442.967 45.1305 442.967C46.0191 442.967 46.721 443.302 47.2359 443.972C47.7555 444.642 48.0152 445.574 48.0152 446.768V446.884ZM46.7506 446.74C46.7506 445.906 46.5729 445.248 46.2174 444.765C45.8619 444.282 45.3743 444.04 44.7545 444.04C43.9889 444.04 43.4146 444.38 43.0318 445.059V448.593C43.4101 449.267 43.9889 449.604 44.7682 449.604C45.3743 449.604 45.8551 449.365 46.2105 448.887C46.5706 448.404 46.7506 447.688 46.7506 446.74ZM52.7854 450.637C51.7827 450.637 50.967 450.309 50.3381 449.652C49.7092 448.992 49.3947 448.11 49.3947 447.007V446.774C49.3947 446.041 49.5337 445.387 49.8117 444.812C50.0943 444.234 50.4862 443.783 50.9875 443.459C51.4934 443.131 52.0402 442.967 52.6281 442.967C53.5897 442.967 54.3371 443.284 54.8703 443.917C55.4035 444.55 55.6701 445.457 55.6701 446.638V447.164H50.6594C50.6776 447.893 50.8895 448.483 51.2951 448.935C51.7053 449.381 52.2248 449.604 52.8537 449.604C53.3003 449.604 53.6786 449.513 53.9885 449.331C54.2984 449.149 54.5695 448.907 54.802 448.606L55.5744 449.208C54.9546 450.16 54.0249 450.637 52.7854 450.637ZM52.6281 444.006C52.1177 444.006 51.6893 444.193 51.343 444.566C50.9966 444.936 50.7824 445.455 50.7004 446.125H54.4055V446.029C54.369 445.387 54.1958 444.89 53.8859 444.539C53.576 444.184 53.1568 444.006 52.6281 444.006ZM61.4861 448.825L64.0018 443.104H65.5809V450.5H64.3162V445.12L61.9236 450.5H61.0486L58.6082 445.004V450.5H57.3436V443.104H58.9842L61.4861 448.825ZM73.3588 443.104V450.5H72.0873V447.622H70.1801L68.4369 450.5H67.0697L68.9291 447.431C68.4551 447.257 68.0906 446.991 67.8354 446.631C67.5847 446.266 67.4594 445.842 67.4594 445.359C67.4594 444.685 67.7123 444.143 68.2182 443.732C68.724 443.318 69.4008 443.108 70.2484 443.104H73.3588ZM68.7309 445.373C68.7309 445.733 68.8539 446.025 69.1 446.248C69.3461 446.467 69.6719 446.578 70.0775 446.583H72.0873V444.129H70.2689C69.7995 444.129 69.4258 444.245 69.1479 444.478C68.8699 444.705 68.7309 445.004 68.7309 445.373ZM75.4355 452.482L74.7178 451.99C75.1462 451.393 75.3695 450.778 75.3877 450.145V449.003H76.625V449.994C76.625 450.454 76.5111 450.915 76.2832 451.375C76.0599 451.835 75.7773 452.204 75.4355 452.482ZM87.4572 450.5H86.1857V447.82C85.6298 447.966 85.0601 448.039 84.4768 448.039C83.5516 448.039 82.8452 447.802 82.3576 447.328C81.8745 446.854 81.6284 446.18 81.6193 445.305V443.097H82.884V445.346C82.9068 446.449 83.4377 447 84.4768 447C85.0601 447 85.6298 446.927 86.1857 446.781V443.104H87.4572V450.5Z" fill="white"/>
</g>
</g>
<path opacity="0.5" d="M164.36 144.083H162.638V139.66H158.188V144.083H156.458V134.13H158.188V138.272H162.638V134.13H164.36V144.083ZM166.027 140.316C166.027 139.592 166.171 138.94 166.458 138.361C166.745 137.778 167.148 137.331 167.668 137.021C168.187 136.707 168.784 136.55 169.459 136.55C170.457 136.55 171.266 136.871 171.885 137.514C172.51 138.156 172.847 139.008 172.897 140.07L172.904 140.46C172.904 141.189 172.763 141.841 172.48 142.415C172.202 142.989 171.801 143.434 171.277 143.748C170.757 144.062 170.156 144.22 169.472 144.22C168.429 144.22 167.592 143.873 166.963 143.181C166.339 142.483 166.027 141.556 166.027 140.398V140.316ZM167.688 140.46C167.688 141.221 167.845 141.818 168.16 142.251C168.474 142.679 168.912 142.894 169.472 142.894C170.033 142.894 170.468 142.675 170.778 142.237C171.092 141.8 171.25 141.16 171.25 140.316C171.25 139.569 171.088 138.977 170.764 138.539C170.445 138.102 170.01 137.883 169.459 137.883C168.916 137.883 168.486 138.099 168.167 138.532C167.848 138.961 167.688 139.603 167.688 140.46ZM180.326 144.083H178.665V141.615C178.237 141.715 177.786 141.766 177.312 141.766C176.3 141.766 175.528 141.524 174.994 141.041C174.461 140.553 174.195 139.856 174.195 138.949V136.68H175.856V138.949C175.856 139.487 175.974 139.868 176.211 140.091C176.453 140.314 176.82 140.426 177.312 140.426C177.758 140.426 178.21 140.373 178.665 140.269V136.687H180.326V144.083ZM188.446 144.083H186.785V141.096H183.907V144.083H182.246V136.687H183.907V139.77H186.785V136.687H188.446V144.083ZM189.996 140.316C189.996 139.592 190.14 138.94 190.427 138.361C190.714 137.778 191.118 137.331 191.637 137.021C192.157 136.707 192.754 136.55 193.428 136.55C194.426 136.55 195.235 136.871 195.855 137.514C196.479 138.156 196.816 139.008 196.867 140.07L196.873 140.46C196.873 141.189 196.732 141.841 196.45 142.415C196.172 142.989 195.771 143.434 195.246 143.748C194.727 144.062 194.125 144.22 193.442 144.22C192.398 144.22 191.562 143.873 190.933 143.181C190.309 142.483 189.996 141.556 189.996 140.398V140.316ZM191.658 140.46C191.658 141.221 191.815 141.818 192.129 142.251C192.444 142.679 192.881 142.894 193.442 142.894C194.002 142.894 194.438 142.675 194.747 142.237C195.062 141.8 195.219 141.16 195.219 140.316C195.219 139.569 195.057 138.977 194.734 138.539C194.415 138.102 193.98 137.883 193.428 137.883C192.886 137.883 192.455 138.099 192.136 138.532C191.817 138.961 191.658 139.603 191.658 140.46ZM202.983 136.687H204.638V144.083H202.983V139.147L200.085 144.083H198.431V136.687H200.085V141.622L202.983 136.687ZM203.763 133.85C203.763 134.424 203.562 134.889 203.161 135.244C202.76 135.6 202.225 135.777 201.555 135.777C200.885 135.777 200.349 135.6 199.948 135.244C199.547 134.889 199.347 134.424 199.347 133.85H200.591C200.591 134.15 200.675 134.385 200.844 134.554C201.017 134.718 201.254 134.8 201.555 134.8C201.855 134.8 202.09 134.718 202.259 134.554C202.427 134.385 202.512 134.15 202.512 133.85H203.763Z" fill="#DFE1E5"/>
<path d="M175.861 117.767C175.746 118.981 175.298 119.929 174.517 120.611C173.736 121.288 172.697 121.626 171.4 121.626C170.494 121.626 169.694 121.413 169.002 120.986C168.314 120.554 167.783 119.942 167.408 119.15C167.033 118.358 166.837 117.439 166.822 116.392V115.33C166.822 114.257 167.012 113.311 167.392 112.494C167.772 111.676 168.317 111.046 169.025 110.603C169.739 110.16 170.561 109.939 171.494 109.939C172.749 109.939 173.759 110.28 174.525 110.962C175.291 111.645 175.736 112.608 175.861 113.853H173.892C173.798 113.035 173.559 112.447 173.173 112.087C172.793 111.723 172.233 111.541 171.494 111.541C170.634 111.541 169.973 111.856 169.509 112.486C169.051 113.111 168.817 114.03 168.806 115.244V116.251C168.806 117.481 169.025 118.418 169.462 119.064C169.905 119.71 170.551 120.033 171.4 120.033C172.176 120.033 172.759 119.858 173.15 119.509C173.541 119.16 173.788 118.58 173.892 117.767H175.861ZM177.195 117.166C177.195 116.337 177.359 115.593 177.688 114.931C178.016 114.264 178.477 113.754 179.07 113.4C179.664 113.041 180.346 112.861 181.117 112.861C182.258 112.861 183.182 113.228 183.891 113.962C184.604 114.697 184.99 115.671 185.047 116.884L185.055 117.33C185.055 118.163 184.893 118.908 184.57 119.564C184.253 120.22 183.794 120.728 183.195 121.087C182.602 121.447 181.914 121.626 181.133 121.626C179.94 121.626 178.984 121.231 178.266 120.439C177.552 119.642 177.195 118.582 177.195 117.259V117.166ZM179.094 117.33C179.094 118.199 179.273 118.882 179.633 119.376C179.992 119.866 180.492 120.111 181.133 120.111C181.773 120.111 182.271 119.861 182.625 119.361C182.984 118.861 183.164 118.129 183.164 117.166C183.164 116.311 182.979 115.634 182.609 115.134C182.245 114.634 181.747 114.384 181.117 114.384C180.497 114.384 180.005 114.632 179.641 115.126C179.276 115.616 179.094 116.35 179.094 117.33ZM193.92 121.47H192.022V118.056H188.733V121.47H186.834V113.017H188.733V116.541H192.022V113.017H193.92V121.47Z" fill="white"/>
<g filter="url(#filter6_dd)">
<path fill-rule="evenodd" clip-rule="evenodd" d="M180 608C192.979 608 203.5 597.479 203.5 584.5C203.5 571.521 192.979 561 180 561C167.021 561 156.5 571.521 156.5 584.5C156.5 597.479 167.021 608 180 608Z" fill="#347CFF"/>
<path d="M203.25 584.5C203.25 597.341 192.841 607.75 180 607.75C167.159 607.75 156.75 597.341 156.75 584.5C156.75 571.659 167.159 561.25 180 561.25C192.841 561.25 203.25 571.659 203.25 584.5Z" stroke="url(#paint0_linear)" stroke-width="0.5"/>
<path d="M203.25 584.5C203.25 597.341 192.841 607.75 180 607.75C167.159 607.75 156.75 597.341 156.75 584.5C156.75 571.659 167.159 561.25 180 561.25C192.841 561.25 203.25 571.659 203.25 584.5Z" stroke="url(#paint1_linear)" stroke-width="0.5"/>
</g>
<path fill-rule="evenodd" clip-rule="evenodd" d="M178 588.7L173.8 584.5L172.4 585.9L178 591.5L190 579.5L188.6 578.1L178 588.7Z" fill="white"/>
</g>
<defs>
<filter id="filter0_dd" x="13" y="178" width="334" height="163" filterUnits="userSpaceOnUse" color-interpolation-filters="sRGB">
<feFlood flood-opacity="0" result="BackgroundImageFix"/>
<feColorMatrix in="SourceAlpha" type="matrix" values="0 0 0 0 0 0 0 0 0 0 0 0 0 0 0 0 0 0 127 0"/>
<feOffset dy="2"/>
<feGaussianBlur stdDeviation="1"/>
<feColorMatrix type="matrix" values="0 0 0 0 0 0 0 0 0 0 0 0 0 0 0 0 0 0 0.24 0"/>
<feBlend mode="normal" in2="BackgroundImageFix" result="effect1_dropShadow"/>
<feColorMatrix in="SourceAlpha" type="matrix" values="0 0 0 0 0 0 0 0 0 0 0 0 0 0 0 0 0 0 127 0"/>
<feOffset/>
<feGaussianBlur stdDeviation="1"/>
<feColorMatrix type="matrix" values="0 0 0 0 0 0 0 0 0 0 0 0 0 0 0 0 0 0 0.12 0"/>
<feBlend mode="normal" in2="effect1_dropShadow" result="effect2_dropShadow"/>
<feBlend mode="normal" in="SourceGraphic" in2="effect2_dropShadow" result="shape"/>
</filter>
<filter id="filter1_d" x="-4" y="-6" width="368" height="90" filterUnits="userSpaceOnUse" color-interpolation-filters="sRGB">
<feFlood flood-opacity="0" result="BackgroundImageFix"/>
<feColorMatrix in="SourceAlpha" type="matrix" values="0 0 0 0 0 0 0 0 0 0 0 0 0 0 0 0 0 0 127 0"/>
<feOffset dy="4"/>
<feGaussianBlur stdDeviation="2"/>
<feColorMatrix type="matrix" values="0 0 0 0 0 0 0 0 0 0 0 0 0 0 0 0 0 0 0.25 0"/>
<feBlend mode="normal" in2="BackgroundImageFix" result="effect1_dropShadow"/>
<feBlend mode="normal" in="SourceGraphic" in2="effect1_dropShadow" result="shape"/>
</filter>
<filter id="filter2_dd" x="-4" y="-10" width="368" height="94" filterUnits="userSpaceOnUse" color-interpolation-filters="sRGB">
<feFlood flood-opacity="0" result="BackgroundImageFix"/>
<feColorMatrix in="SourceAlpha" type="matrix" values="0 0 0 0 0 0 0 0 0 0 0 0 0 0 0 0 0 0 127 0"/>
<feOffset dy="4"/>
<feGaussianBlur stdDeviation="2"/>
<feColorMatrix type="matrix" values="0 0 0 0 0 0 0 0 0 0 0 0 0 0 0 0 0 0 0.24 0"/>
<feBlend mode="normal" in2="BackgroundImageFix" result="effect1_dropShadow"/>
<feColorMatrix in="SourceAlpha" type="matrix" values="0 0 0 0 0 0 0 0 0 0 0 0 0 0 0 0 0 0 127 0"/>
<feOffset/>
<feGaussianBlur stdDeviation="2"/>
<feColorMatrix type="matrix" values="0 0 0 0 0 0 0 0 0 0 0 0 0 0 0 0 0 0 0.12 0"/>
<feBlend mode="normal" in2="effect1_dropShadow" result="effect2_dropShadow"/>
<feBlend mode="normal" in="SourceGraphic" in2="effect2_dropShadow" result="shape"/>
</filter>
<filter id="filter3_dd" x="13" y="418" width="175" height="58" filterUnits="userSpaceOnUse" color-interpolation-filters="sRGB">
<feFlood flood-opacity="0" result="BackgroundImageFix"/>
<feColorMatrix in="SourceAlpha" type="matrix" values="0 0 0 0 0 0 0 0 0 0 0 0 0 0 0 0 0 0 127 0"/>
<feOffset dy="2"/>
<feGaussianBlur stdDeviation="1"/>
<feColorMatrix type="matrix" values="0 0 0 0 0 0 0 0 0 0 0 0 0 0 0 0 0 0 0.24 0"/>
<feBlend mode="normal" in2="BackgroundImageFix" result="effect1_dropShadow"/>
<feColorMatrix in="SourceAlpha" type="matrix" values="0 0 0 0 0 0 0 0 0 0 0 0 0 0 0 0 0 0 127 0"/>
<feOffset/>
<feGaussianBlur stdDeviation="1"/>
<feColorMatrix type="matrix" values="0 0 0 0 0 0 0 0 0 0 0 0 0 0 0 0 0 0 0.12 0"/>
<feBlend mode="normal" in2="effect1_dropShadow" result="effect2_dropShadow"/>
<feBlend mode="normal" in="SourceGraphic" in2="effect2_dropShadow" result="shape"/>
</filter>
<filter id="filter4_dd" x="13.1909" y="417.5" width="175.5" height="58" filterUnits="userSpaceOnUse" color-interpolation-filters="sRGB">
<feFlood flood-opacity="0" result="BackgroundImageFix"/>
<feColorMatrix in="SourceAlpha" type="matrix" values="0 0 0 0 0 0 0 0 0 0 0 0 0 0 0 0 0 0 127 0"/>
<feOffset dy="1"/>
<feGaussianBlur stdDeviation="1.5"/>
<feColorMatrix type="matrix" values="0 0 0 0 0 0 0 0 0 0 0 0 0 0 0 0 0 0 0.1 0"/>
<feBlend mode="normal" in2="BackgroundImageFix" result="effect1_dropShadow"/>
<feColorMatrix in="SourceAlpha" type="matrix" values="0 0 0 0 0 0 0 0 0 0 0 0 0 0 0 0 0 0 127 0"/>
<feOffset dy="1"/>
<feGaussianBlur stdDeviation="1"/>
<feColorMatrix type="matrix" values="0 0 0 0 0 0 0 0 0 0 0 0 0 0 0 0 0 0 0.2 0"/>
<feBlend mode="normal" in2="effect1_dropShadow" result="effect2_dropShadow"/>
<feBlend mode="normal" in="SourceGraphic" in2="effect2_dropShadow" result="shape"/>
</filter>
<filter id="filter5_d" x="29.1553" y="440.547" width="62.302" height="20.7969" filterUnits="userSpaceOnUse" color-interpolation-filters="sRGB">
<feFlood flood-opacity="0" result="BackgroundImageFix"/>
<feColorMatrix in="SourceAlpha" type="matrix" values="0 0 0 0 0 0 0 0 0 0 0 0 0 0 0 0 0 0 127 0"/>
<feOffset dy="4"/>
<feGaussianBlur stdDeviation="2"/>
<feColorMatrix type="matrix" values="0 0 0 0 0 0 0 0 0 0 0 0 0 0 0 0 0 0 0.25 0"/>
<feBlend mode="normal" in2="BackgroundImageFix" result="effect1_dropShadow"/>
<feBlend mode="normal" in="SourceGraphic" in2="effect1_dropShadow" result="shape"/>
</filter>
<filter id="filter6_dd" x="150.5" y="558" width="59" height="59" filterUnits="userSpaceOnUse" color-interpolation-filters="sRGB">
<feFlood flood-opacity="0" result="BackgroundImageFix"/>
<feColorMatrix in="SourceAlpha" type="matrix" values="0 0 0 0 0 0 0 0 0 0 0 0 0 0 0 0 0 0 127 0"/>
<feOffset dy="3"/>
<feGaussianBlur stdDeviation="3"/>
<feColorMatrix type="matrix" values="0 0 0 0 0 0 0 0 0 0 0 0 0 0 0 0 0 0 0.16 0"/>
<feBlend mode="normal" in2="BackgroundImageFix" result="effect1_dropShadow"/>
<feColorMatrix in="SourceAlpha" type="matrix" values="0 0 0 0 0 0 0 0 0 0 0 0 0 0 0 0 0 0 127 0"/>
<feOffset dy="3"/>
<feGaussianBlur stdDeviation="3"/>
<feColorMatrix type="matrix" values="0 0 0 0 0 0 0 0 0 0 0 0 0 0 0 0 0 0 0.23 0"/>
<feBlend mode="normal" in2="effect1_dropShadow" result="effect2_dropShadow"/>
<feBlend mode="normal" in="SourceGraphic" in2="effect2_dropShadow" result="shape"/>
</filter>
<linearGradient id="paint0_linear" x1="156.73" y1="561" x2="156.73" y2="607.54" gradientUnits="userSpaceOnUse">
<stop stop-opacity="0.01"/>
<stop offset="0.8" stop-opacity="0.02"/>
<stop offset="1" stop-opacity="0.04"/>
</linearGradient>
<linearGradient id="paint1_linear" x1="156.5" y1="561" x2="156.5" y2="608" gradientUnits="userSpaceOnUse">
<stop stop-color="white" stop-opacity="0.12"/>
<stop offset="0.2" stop-color="white" stop-opacity="0.06"/>
<stop offset="1" stop-color="white" stop-opacity="0.01"/>
</linearGradient>
<clipPath id="clip0">
<rect width="360" height="640" fill="white"/>
</clipPath>
<clipPath id="clip1">
<rect width="360" height="82" fill="white" transform="translate(0 -6)"/>
</clipPath>
<clipPath id="clip2">
<rect width="330" height="52" fill="white" transform="translate(16 419.5)"/>
</clipPath>
</defs>
</svg>
