<svg width="199" height="226" viewBox="0 0 199 226" fill="none" xmlns="http://www.w3.org/2000/svg">
<g filter="url(#filter0_dd)">
<rect x="2" y="2" width="195" height="220" rx="5" fill="#1D1C1D"/>
<rect x="2.5" y="2.5" width="194" height="219" rx="4.5" stroke="white" stroke-opacity="0.5" style="mix-blend-mode:soft-light"/>
</g>
<path d="M29.5547 43.7891H28.0625V41H19.8984V43.7969H18.3984L18.3906 39.7734H19.3203C19.8099 39.2214 20.1979 38.4818 20.4844 37.5547C20.776 36.6224 20.9583 35.6016 21.0312 34.4922L21.2812 29.625H28.0859V39.7734H29.5703L29.5547 43.7891ZM21.0312 39.7734H26.5781V30.8594H22.7266L22.5625 34.2031C22.4948 35.5104 22.3203 36.625 22.0391 37.5469C21.763 38.4688 21.4271 39.2109 21.0312 39.7734ZM30.7422 36.6953C30.7422 35.8672 30.9036 35.1224 31.2266 34.4609C31.5547 33.7995 32.0078 33.2891 32.5859 32.9297C33.1693 32.5703 33.8333 32.3906 34.5781 32.3906C35.7292 32.3906 36.6589 32.7891 37.3672 33.5859C38.0807 34.3828 38.4375 35.4427 38.4375 36.7656V36.8672C38.4375 37.6901 38.2786 38.4297 37.9609 39.0859C37.6484 39.737 37.1979 40.2448 36.6094 40.6094C36.026 40.974 35.3542 41.1562 34.5938 41.1562C33.4479 41.1562 32.5182 40.7578 31.8047 39.9609C31.0964 39.1641 30.7422 38.1094 30.7422 36.7969V36.6953ZM32.1953 36.8672C32.1953 37.8047 32.4115 38.5573 32.8438 39.125C33.2812 39.6927 33.8646 39.9766 34.5938 39.9766C35.3281 39.9766 35.9115 39.6901 36.3438 39.1172C36.776 38.5391 36.9922 37.7318 36.9922 36.6953C36.9922 35.7682 36.7708 35.0182 36.3281 34.4453C35.8906 33.8672 35.3073 33.5781 34.5781 33.5781C33.8646 33.5781 33.2891 33.862 32.8516 34.4297C32.4141 34.9974 32.1953 35.8099 32.1953 36.8672ZM43.9609 33.0312C45.0234 33.0312 45.8724 33.388 46.5078 34.1016C47.1484 34.8099 47.4688 35.7448 47.4688 36.9062V37.0391C47.4688 37.8359 47.3151 38.5495 47.0078 39.1797C46.7005 39.8047 46.2578 40.2917 45.6797 40.6406C45.1068 40.9844 44.4453 41.1562 43.6953 41.1562C42.5599 41.1562 41.6458 40.7786 40.9531 40.0234C40.2604 39.263 39.9141 38.2448 39.9141 36.9688V36.2656C39.9141 34.4896 40.2422 33.0781 40.8984 32.0312C41.5599 30.9844 42.5339 30.3464 43.8203 30.1172C44.5495 29.987 45.0417 29.8281 45.2969 29.6406C45.5521 29.4531 45.6797 29.1953 45.6797 28.8672H46.8672C46.8672 29.5182 46.7188 30.026 46.4219 30.3906C46.1302 30.7552 45.6615 31.013 45.0156 31.1641L43.9375 31.4062C43.0781 31.6094 42.4323 31.9531 42 32.4375C41.5729 32.9167 41.2943 33.5573 41.1641 34.3594C41.9297 33.474 42.862 33.0312 43.9609 33.0312ZM43.6797 34.2188C42.9714 34.2188 42.4089 34.4583 41.9922 34.9375C41.5755 35.4115 41.3672 36.0703 41.3672 36.9141V37.0391C41.3672 37.9453 41.5755 38.6641 41.9922 39.1953C42.4141 39.7214 42.9818 39.9844 43.6953 39.9844C44.4141 39.9844 44.9818 39.7188 45.3984 39.1875C45.8151 38.6562 46.0234 37.8802 46.0234 36.8594C46.0234 36.0625 45.8125 35.4245 45.3906 34.9453C44.974 34.4609 44.4036 34.2188 43.6797 34.2188ZM54.3125 41C54.2292 40.8333 54.1615 40.5365 54.1094 40.1094C53.4375 40.8073 52.6354 41.1562 51.7031 41.1562C50.8698 41.1562 50.1849 40.9219 49.6484 40.4531C49.1172 39.9792 48.8516 39.3802 48.8516 38.6562C48.8516 37.776 49.1849 37.0938 49.8516 36.6094C50.5234 36.1198 51.4661 35.875 52.6797 35.875H54.0859V35.2109C54.0859 34.7057 53.9349 34.3047 53.6328 34.0078C53.3307 33.7057 52.8854 33.5547 52.2969 33.5547C51.7812 33.5547 51.349 33.6849 51 33.9453C50.651 34.2057 50.4766 34.5208 50.4766 34.8906H49.0234C49.0234 34.4688 49.1719 34.0625 49.4688 33.6719C49.7708 33.276 50.1771 32.9635 50.6875 32.7344C51.2031 32.5052 51.7682 32.3906 52.3828 32.3906C53.3568 32.3906 54.1198 32.6354 54.6719 33.125C55.224 33.6094 55.5104 34.2786 55.5312 35.1328V39.0234C55.5312 39.7995 55.6302 40.4167 55.8281 40.875V41H54.3125ZM51.9141 39.8984C52.3672 39.8984 52.7969 39.7812 53.2031 39.5469C53.6094 39.3125 53.9036 39.0078 54.0859 38.6328V36.8984H52.9531C51.1823 36.8984 50.2969 37.4167 50.2969 38.4531C50.2969 38.9062 50.4479 39.2604 50.75 39.5156C51.0521 39.7708 51.4401 39.8984 51.9141 39.8984ZM57.9297 41V32.5469H61.2266C62.3516 32.5469 63.2135 32.7448 63.8125 33.1406C64.4167 33.5312 64.7188 34.1068 64.7188 34.8672C64.7188 35.2578 64.6016 35.612 64.3672 35.9297C64.1328 36.2422 63.7865 36.4818 63.3281 36.6484C63.8385 36.7682 64.2474 37.0026 64.5547 37.3516C64.8672 37.7005 65.0234 38.1172 65.0234 38.6016C65.0234 39.3776 64.737 39.9714 64.1641 40.3828C63.5964 40.7943 62.7917 41 61.75 41H57.9297ZM59.375 37.2891V39.8359H61.7656C62.3698 39.8359 62.8203 39.724 63.1172 39.5C63.4193 39.276 63.5703 38.9609 63.5703 38.5547C63.5703 37.7109 62.9505 37.2891 61.7109 37.2891H59.375ZM59.375 36.1328H61.2422C62.5964 36.1328 63.2734 35.737 63.2734 34.9453C63.2734 34.1536 62.6328 33.7448 61.3516 33.7188H59.375V36.1328ZM72.4062 32.5469H73.8516V41H72.4062V34.8359L68.5078 41H67.0625V32.5469H68.5078V38.7188L72.4062 32.5469ZM82.4531 33.7188H79.6172V41H78.1719V33.7188H75.3906V32.5469H82.4531V33.7188ZM85.4375 35.4609H87.6328C88.5911 35.4714 89.349 35.7214 89.9062 36.2109C90.4635 36.7005 90.7422 37.3646 90.7422 38.2031C90.7422 39.0469 90.4557 39.724 89.8828 40.2344C89.3099 40.7448 88.5391 41 87.5703 41H83.9922V32.5469H85.4375V35.4609ZM85.4375 36.6406V39.8203H87.5859C88.1276 39.8203 88.5469 39.6823 88.8438 39.4062C89.1406 39.125 89.2891 38.7422 89.2891 38.2578C89.2891 37.7891 89.1432 37.4062 88.8516 37.1094C88.5651 36.8073 88.1615 36.651 87.6406 36.6406H85.4375ZM103.43 41H101.984V33.7422H98.0938V41H96.6406V32.5469H103.43V41ZM112.891 36.8672C112.891 38.1536 112.596 39.1901 112.008 39.9766C111.419 40.763 110.622 41.1562 109.617 41.1562C108.591 41.1562 107.784 40.8307 107.195 40.1797V44.25H105.75V32.5469H107.07L107.141 33.4844C107.729 32.7552 108.547 32.3906 109.594 32.3906C110.609 32.3906 111.411 32.7734 112 33.5391C112.594 34.3047 112.891 35.3698 112.891 36.7344V36.8672ZM111.445 36.7031C111.445 35.75 111.242 34.9974 110.836 34.4453C110.43 33.8932 109.872 33.6172 109.164 33.6172C108.289 33.6172 107.633 34.0052 107.195 34.7812V38.8203C107.628 39.5911 108.289 39.9766 109.18 39.9766C109.872 39.9766 110.422 39.7031 110.828 39.1562C111.24 38.6042 111.445 37.7865 111.445 36.7031ZM114.352 36.6953C114.352 35.8672 114.513 35.1224 114.836 34.4609C115.164 33.7995 115.617 33.2891 116.195 32.9297C116.779 32.5703 117.443 32.3906 118.188 32.3906C119.339 32.3906 120.268 32.7891 120.977 33.5859C121.69 34.3828 122.047 35.4427 122.047 36.7656V36.8672C122.047 37.6901 121.888 38.4297 121.57 39.0859C121.258 39.737 120.807 40.2448 120.219 40.6094C119.635 40.974 118.964 41.1562 118.203 41.1562C117.057 41.1562 116.128 40.7578 115.414 39.9609C114.706 39.1641 114.352 38.1094 114.352 36.7969V36.6953ZM115.805 36.8672C115.805 37.8047 116.021 38.5573 116.453 39.125C116.891 39.6927 117.474 39.9766 118.203 39.9766C118.938 39.9766 119.521 39.6901 119.953 39.1172C120.385 38.5391 120.602 37.7318 120.602 36.6953C120.602 35.7682 120.38 35.0182 119.938 34.4453C119.5 33.8672 118.917 33.5781 118.188 33.5781C117.474 33.5781 116.898 33.862 116.461 34.4297C116.023 34.9974 115.805 35.8099 115.805 36.8672ZM123.547 36.9297C123.547 35.5182 123.82 34.4089 124.367 33.6016C124.914 32.7943 125.664 32.3906 126.617 32.3906C127.06 32.3906 127.448 32.4661 127.781 32.6172V29H129.227V32.6641C129.591 32.4818 130.018 32.3906 130.508 32.3906C131.466 32.3906 132.219 32.7943 132.766 33.6016C133.312 34.4089 133.586 35.5729 133.586 37.0938C133.586 38.3385 133.312 39.3281 132.766 40.0625C132.224 40.7969 131.477 41.1641 130.523 41.1641C130.018 41.1641 129.586 41.0807 129.227 40.9141V44.25H127.781V40.9375C127.438 41.0885 127.044 41.1641 126.602 41.1641C125.654 41.1641 124.906 40.7969 124.359 40.0625C123.818 39.3281 123.547 38.3229 123.547 37.0469V36.9297ZM132.141 36.9297C132.141 35.8672 131.958 35.0443 131.594 34.4609C131.229 33.8724 130.727 33.5781 130.086 33.5781C129.758 33.5781 129.471 33.6302 129.227 33.7344V39.8516C129.461 39.9401 129.753 39.9844 130.102 39.9844C130.747 39.9844 131.247 39.7344 131.602 39.2344C131.961 38.7344 132.141 37.9661 132.141 36.9297ZM124.992 37.0938C124.992 38.0417 125.161 38.7604 125.5 39.25C125.839 39.7396 126.326 39.9844 126.961 39.9844C127.263 39.9844 127.536 39.9375 127.781 39.8438V33.7109C127.562 33.6224 127.294 33.5781 126.977 33.5781C126.341 33.5781 125.852 33.862 125.508 34.4297C125.164 34.9974 124.992 35.8854 124.992 37.0938ZM140.938 32.5469H142.383V41H140.938V34.8359L137.039 41H135.594V32.5469H137.039V38.7188L140.938 32.5469ZM151.633 32.5469V41H150.18V33.7422H147.305L147.133 36.9062C147.039 38.3594 146.794 39.3984 146.398 40.0234C146.008 40.6484 145.385 40.974 144.531 41H143.953V39.7266L144.367 39.6953C144.836 39.6432 145.172 39.3724 145.375 38.8828C145.578 38.3932 145.708 37.487 145.766 36.1641L145.922 32.5469H151.633ZM155.531 35.4609H157.727C158.685 35.4714 159.443 35.7214 160 36.2109C160.557 36.7005 160.836 37.3646 160.836 38.2031C160.836 39.0469 160.549 39.724 159.977 40.2344C159.404 40.7448 158.633 41 157.664 41H154.086V32.5469H155.531V35.4609ZM155.531 36.6406V39.8203H157.68C158.221 39.8203 158.641 39.6823 158.938 39.4062C159.234 39.125 159.383 38.7422 159.383 38.2578C159.383 37.7891 159.237 37.4062 158.945 37.1094C158.659 36.8073 158.255 36.651 157.734 36.6406H155.531Z" fill="white"/>
<path d="M19.3203 84V72.625H23.0391C24.2734 72.625 25.2005 72.8802 25.8203 73.3906C26.4453 73.901 26.7578 74.6562 26.7578 75.6562C26.7578 76.1875 26.6068 76.6589 26.3047 77.0703C26.0026 77.4766 25.5911 77.7917 25.0703 78.0156C25.6849 78.1875 26.1693 78.5156 26.5234 79C26.8828 79.4792 27.0625 80.0521 27.0625 80.7188C27.0625 81.7396 26.7318 82.5417 26.0703 83.125C25.4089 83.7083 24.474 84 23.2656 84H19.3203ZM20.8203 78.6797V82.7734H23.2969C23.9948 82.7734 24.5443 82.5938 24.9453 82.2344C25.3516 81.8698 25.5547 81.3698 25.5547 80.7344C25.5547 79.3646 24.8099 78.6797 23.3203 78.6797H20.8203ZM20.8203 77.4766H23.0859C23.7422 77.4766 24.2656 77.3125 24.6562 76.9844C25.0521 76.6562 25.25 76.2109 25.25 75.6484C25.25 75.0234 25.0677 74.5703 24.7031 74.2891C24.3385 74.0026 23.7839 73.8594 23.0391 73.8594H20.8203V77.4766ZM30.6406 78.4609H32.8359C33.7943 78.4714 34.5521 78.7214 35.1094 79.2109C35.6667 79.7005 35.9453 80.3646 35.9453 81.2031C35.9453 82.0469 35.6589 82.724 35.0859 83.2344C34.513 83.7448 33.7422 84 32.7734 84H29.1953V75.5469H30.6406V78.4609ZM38.9609 84H37.5078V75.5469H38.9609V84ZM30.6406 79.6406V82.8203H32.7891C33.3307 82.8203 33.75 82.6823 34.0469 82.4062C34.3438 82.125 34.4922 81.7422 34.4922 81.2578C34.4922 80.7891 34.3464 80.4062 34.0547 80.1094C33.7682 79.8073 33.3646 79.651 32.8438 79.6406H30.6406ZM46.9531 75.5469H48.3984V84H46.9531V77.8359L43.0547 84H41.6094V75.5469H43.0547V81.7188L46.9531 75.5469ZM47.3438 72.4688C47.3438 73.099 47.1276 73.6068 46.6953 73.9922C46.2682 74.3724 45.7057 74.5625 45.0078 74.5625C44.3099 74.5625 43.7448 74.3698 43.3125 73.9844C42.8802 73.599 42.6641 73.0938 42.6641 72.4688H43.8438C43.8438 72.8333 43.9427 73.1198 44.1406 73.3281C44.3385 73.5312 44.6276 73.6328 45.0078 73.6328C45.3724 73.6328 45.6562 73.5312 45.8594 73.3281C46.0677 73.125 46.1719 72.8385 46.1719 72.4688H47.3438ZM57 76.7188H54.1641V84H52.7188V76.7188H49.9375V75.5469H57V76.7188ZM63.875 75.5469H65.3203V84H63.875V77.8359L59.9766 84H58.5312V75.5469H59.9766V81.7188L63.875 75.5469ZM77.0781 75.5469H78.5234V84H77.0781V77.8359L73.1797 84H71.7344V75.5469H73.1797V81.7188L77.0781 75.5469ZM85.4922 77.8594C85.4922 77.4635 85.3411 77.151 85.0391 76.9219C84.737 76.6875 84.3229 76.5703 83.7969 76.5703C83.2865 76.5703 82.8594 76.7031 82.5156 76.9688C82.1771 77.2344 82.0078 77.5469 82.0078 77.9062H80.5703C80.5703 77.1719 80.8776 76.5703 81.4922 76.1016C82.1068 75.6328 82.875 75.3984 83.7969 75.3984C84.7865 75.3984 85.5573 75.612 86.1094 76.0391C86.6615 76.4609 86.9375 77.0651 86.9375 77.8516C86.9375 78.2318 86.8229 78.5807 86.5938 78.8984C86.3646 79.2161 86.0391 79.4688 85.6172 79.6562C86.6016 79.9896 87.0938 80.6458 87.0938 81.625C87.0938 82.401 86.7943 83.0156 86.1953 83.4688C85.5964 83.9219 84.7969 84.1484 83.7969 84.1484C82.8229 84.1484 82.0182 83.9115 81.3828 83.4375C80.7526 82.9583 80.4375 82.3125 80.4375 81.5H81.875C81.875 81.9115 82.0573 82.2656 82.4219 82.5625C82.7917 82.8542 83.25 83 83.7969 83C84.349 83 84.7943 82.8724 85.1328 82.6172C85.4714 82.362 85.6406 82.0312 85.6406 81.625C85.6406 81.151 85.4974 80.8125 85.2109 80.6094C84.9297 80.401 84.4896 80.2969 83.8906 80.2969H82.4453V79.0781H84.0156C85 79.0521 85.4922 78.6458 85.4922 77.8594ZM99.8516 84H98.4062V76.7422H94.5156V84H93.0625V75.5469H99.8516V84ZM109.312 79.8672C109.312 81.1536 109.018 82.1901 108.43 82.9766C107.841 83.763 107.044 84.1562 106.039 84.1562C105.013 84.1562 104.206 83.8307 103.617 83.1797V87.25H102.172V75.5469H103.492L103.562 76.4844C104.151 75.7552 104.969 75.3906 106.016 75.3906C107.031 75.3906 107.833 75.7734 108.422 76.5391C109.016 77.3047 109.312 78.3698 109.312 79.7344V79.8672ZM107.867 79.7031C107.867 78.75 107.664 77.9974 107.258 77.4453C106.852 76.8932 106.294 76.6172 105.586 76.6172C104.711 76.6172 104.055 77.0052 103.617 77.7812V81.8203C104.049 82.5911 104.711 82.9766 105.602 82.9766C106.294 82.9766 106.844 82.7031 107.25 82.1562C107.661 81.6042 107.867 80.7865 107.867 79.7031ZM110.773 79.6953C110.773 78.8672 110.935 78.1224 111.258 77.4609C111.586 76.7995 112.039 76.2891 112.617 75.9297C113.201 75.5703 113.865 75.3906 114.609 75.3906C115.76 75.3906 116.69 75.7891 117.398 76.5859C118.112 77.3828 118.469 78.4427 118.469 79.7656V79.8672C118.469 80.6901 118.31 81.4297 117.992 82.0859C117.68 82.737 117.229 83.2448 116.641 83.6094C116.057 83.974 115.385 84.1562 114.625 84.1562C113.479 84.1562 112.549 83.7578 111.836 82.9609C111.128 82.1641 110.773 81.1094 110.773 79.7969V79.6953ZM112.227 79.8672C112.227 80.8047 112.443 81.5573 112.875 82.125C113.312 82.6927 113.896 82.9766 114.625 82.9766C115.359 82.9766 115.943 82.6901 116.375 82.1172C116.807 81.5391 117.023 80.7318 117.023 79.6953C117.023 78.7682 116.802 78.0182 116.359 77.4453C115.922 76.8672 115.339 76.5781 114.609 76.5781C113.896 76.5781 113.32 76.862 112.883 77.4297C112.445 77.9974 112.227 78.8099 112.227 79.8672ZM119.969 79.9297C119.969 78.5182 120.242 77.4089 120.789 76.6016C121.336 75.7943 122.086 75.3906 123.039 75.3906C123.482 75.3906 123.87 75.4661 124.203 75.6172V72H125.648V75.6641C126.013 75.4818 126.44 75.3906 126.93 75.3906C127.888 75.3906 128.641 75.7943 129.188 76.6016C129.734 77.4089 130.008 78.5729 130.008 80.0938C130.008 81.3385 129.734 82.3281 129.188 83.0625C128.646 83.7969 127.898 84.1641 126.945 84.1641C126.44 84.1641 126.008 84.0807 125.648 83.9141V87.25H124.203V83.9375C123.859 84.0885 123.466 84.1641 123.023 84.1641C122.076 84.1641 121.328 83.7969 120.781 83.0625C120.24 82.3281 119.969 81.3229 119.969 80.0469V79.9297ZM128.562 79.9297C128.562 78.8672 128.38 78.0443 128.016 77.4609C127.651 76.8724 127.148 76.5781 126.508 76.5781C126.18 76.5781 125.893 76.6302 125.648 76.7344V82.8516C125.883 82.9401 126.174 82.9844 126.523 82.9844C127.169 82.9844 127.669 82.7344 128.023 82.2344C128.383 81.7344 128.562 80.9661 128.562 79.9297ZM121.414 80.0938C121.414 81.0417 121.583 81.7604 121.922 82.25C122.26 82.7396 122.747 82.9844 123.383 82.9844C123.685 82.9844 123.958 82.9375 124.203 82.8438V76.7109C123.984 76.6224 123.716 76.5781 123.398 76.5781C122.763 76.5781 122.273 76.862 121.93 77.4297C121.586 77.9974 121.414 78.8854 121.414 80.0938ZM137.359 75.5469H138.805V84H137.359V77.8359L133.461 84H132.016V75.5469H133.461V81.7188L137.359 75.5469ZM148.055 75.5469V84H146.602V76.7422H143.727L143.555 79.9062C143.461 81.3594 143.216 82.3984 142.82 83.0234C142.43 83.6484 141.807 83.974 140.953 84H140.375V82.7266L140.789 82.6953C141.258 82.6432 141.594 82.3724 141.797 81.8828C142 81.3932 142.13 80.487 142.188 79.1641L142.344 75.5469H148.055ZM156.836 75.5469V84H155.383V80.7109H153.203L151.211 84H149.648L151.773 80.4922C151.232 80.2943 150.815 79.9896 150.523 79.5781C150.237 79.1615 150.094 78.6771 150.094 78.125C150.094 77.3542 150.383 76.7344 150.961 76.2656C151.539 75.7917 152.312 75.5521 153.281 75.5469H156.836ZM151.547 78.1406C151.547 78.5521 151.688 78.8854 151.969 79.1406C152.25 79.3906 152.622 79.5182 153.086 79.5234H155.383V76.7188H153.305C152.768 76.7188 152.341 76.8516 152.023 77.1172C151.706 77.3776 151.547 77.7188 151.547 78.1406Z" fill="white"/>
<path d="M26.4922 115.625H27.9922V127H26.4922V118.234L20.8906 127H19.3828V115.625H20.8906V124.391L26.4922 115.625ZM35.1484 120.859C35.1484 120.464 34.9974 120.151 34.6953 119.922C34.3932 119.688 33.9792 119.57 33.4531 119.57C32.9427 119.57 32.5156 119.703 32.1719 119.969C31.8333 120.234 31.6641 120.547 31.6641 120.906H30.2266C30.2266 120.172 30.5339 119.57 31.1484 119.102C31.763 118.633 32.5312 118.398 33.4531 118.398C34.4427 118.398 35.2135 118.612 35.7656 119.039C36.3177 119.461 36.5938 120.065 36.5938 120.852C36.5938 121.232 36.4792 121.581 36.25 121.898C36.0208 122.216 35.6953 122.469 35.2734 122.656C36.2578 122.99 36.75 123.646 36.75 124.625C36.75 125.401 36.4505 126.016 35.8516 126.469C35.2526 126.922 34.4531 127.148 33.4531 127.148C32.4792 127.148 31.6745 126.911 31.0391 126.438C30.4089 125.958 30.0938 125.312 30.0938 124.5H31.5312C31.5312 124.911 31.7135 125.266 32.0781 125.562C32.4479 125.854 32.9062 126 33.4531 126C34.0052 126 34.4505 125.872 34.7891 125.617C35.1276 125.362 35.2969 125.031 35.2969 124.625C35.2969 124.151 35.1536 123.812 34.8672 123.609C34.5859 123.401 34.1458 123.297 33.5469 123.297H32.1016V122.078H33.6719C34.6562 122.052 35.1484 121.646 35.1484 120.859ZM43.4922 125.086L46.3672 118.547H48.1719V127H46.7266V120.852L43.9922 127H42.9922L40.2031 120.719V127H38.7578V118.547H40.6328L43.4922 125.086ZM54.0078 127.156C52.862 127.156 51.9297 126.781 51.2109 126.031C50.4922 125.276 50.1328 124.268 50.1328 123.008V122.742C50.1328 121.904 50.2917 121.156 50.6094 120.5C50.9323 119.839 51.3802 119.323 51.9531 118.953C52.5312 118.578 53.1562 118.391 53.8281 118.391C54.9271 118.391 55.7812 118.753 56.3906 119.477C57 120.201 57.3047 121.237 57.3047 122.586V123.188H51.5781C51.599 124.021 51.8411 124.695 52.3047 125.211C52.7734 125.721 53.3672 125.977 54.0859 125.977C54.5964 125.977 55.0286 125.872 55.3828 125.664C55.737 125.456 56.0469 125.18 56.3125 124.836L57.1953 125.523C56.487 126.612 55.4245 127.156 54.0078 127.156ZM53.8281 119.578C53.2448 119.578 52.7552 119.792 52.3594 120.219C51.9635 120.641 51.7188 121.234 51.625 122H55.8594V121.891C55.8177 121.156 55.6198 120.589 55.2656 120.188C54.9115 119.781 54.4323 119.578 53.8281 119.578ZM65.8906 127H64.4453V123.391H60.5625V127H59.1094V118.547H60.5625V122.211H64.4453V118.547H65.8906V127ZM73.6875 118.547H75.1328V127H73.6875V120.836L69.7891 127H68.3438V118.547H69.7891V124.719L73.6875 118.547ZM83.7344 119.719H80.8984V127H79.4531V119.719H76.6719V118.547H83.7344V119.719ZM86.7188 121.461H88.9141C89.8724 121.471 90.6302 121.721 91.1875 122.211C91.7448 122.701 92.0234 123.365 92.0234 124.203C92.0234 125.047 91.737 125.724 91.1641 126.234C90.5911 126.745 89.8203 127 88.8516 127H85.2734V118.547H86.7188V121.461ZM86.7188 122.641V125.82H88.8672C89.4089 125.82 89.8281 125.682 90.125 125.406C90.4219 125.125 90.5703 124.742 90.5703 124.258C90.5703 123.789 90.4245 123.406 90.1328 123.109C89.8464 122.807 89.4427 122.651 88.9219 122.641H86.7188ZM102.445 120.859C102.445 120.464 102.294 120.151 101.992 119.922C101.69 119.688 101.276 119.57 100.75 119.57C100.24 119.57 99.8125 119.703 99.4688 119.969C99.1302 120.234 98.9609 120.547 98.9609 120.906H97.5234C97.5234 120.172 97.8307 119.57 98.4453 119.102C99.0599 118.633 99.8281 118.398 100.75 118.398C101.74 118.398 102.51 118.612 103.062 119.039C103.615 119.461 103.891 120.065 103.891 120.852C103.891 121.232 103.776 121.581 103.547 121.898C103.318 122.216 102.992 122.469 102.57 122.656C103.555 122.99 104.047 123.646 104.047 124.625C104.047 125.401 103.747 126.016 103.148 126.469C102.549 126.922 101.75 127.148 100.75 127.148C99.776 127.148 98.9714 126.911 98.3359 126.438C97.7057 125.958 97.3906 125.312 97.3906 124.5H98.8281C98.8281 124.911 99.0104 125.266 99.375 125.562C99.7448 125.854 100.203 126 100.75 126C101.302 126 101.747 125.872 102.086 125.617C102.424 125.362 102.594 125.031 102.594 124.625C102.594 124.151 102.451 123.812 102.164 123.609C101.883 123.401 101.443 123.297 100.844 123.297H99.3984V122.078H100.969C101.953 122.052 102.445 121.646 102.445 120.859ZM111.141 127C111.057 126.833 110.99 126.536 110.938 126.109C110.266 126.807 109.464 127.156 108.531 127.156C107.698 127.156 107.013 126.922 106.477 126.453C105.945 125.979 105.68 125.38 105.68 124.656C105.68 123.776 106.013 123.094 106.68 122.609C107.352 122.12 108.294 121.875 109.508 121.875H110.914V121.211C110.914 120.706 110.763 120.305 110.461 120.008C110.159 119.706 109.714 119.555 109.125 119.555C108.609 119.555 108.177 119.685 107.828 119.945C107.479 120.206 107.305 120.521 107.305 120.891H105.852C105.852 120.469 106 120.062 106.297 119.672C106.599 119.276 107.005 118.964 107.516 118.734C108.031 118.505 108.596 118.391 109.211 118.391C110.185 118.391 110.948 118.635 111.5 119.125C112.052 119.609 112.339 120.279 112.359 121.133V125.023C112.359 125.799 112.458 126.417 112.656 126.875V127H111.141ZM108.742 125.898C109.195 125.898 109.625 125.781 110.031 125.547C110.438 125.312 110.732 125.008 110.914 124.633V122.898H109.781C108.01 122.898 107.125 123.417 107.125 124.453C107.125 124.906 107.276 125.26 107.578 125.516C107.88 125.771 108.268 125.898 108.742 125.898ZM118.016 125.977C118.531 125.977 118.982 125.82 119.367 125.508C119.753 125.195 119.966 124.805 120.008 124.336H121.375C121.349 124.82 121.182 125.281 120.875 125.719C120.568 126.156 120.156 126.505 119.641 126.766C119.13 127.026 118.589 127.156 118.016 127.156C116.865 127.156 115.948 126.773 115.266 126.008C114.589 125.237 114.25 124.185 114.25 122.852V122.609C114.25 121.786 114.401 121.055 114.703 120.414C115.005 119.773 115.438 119.276 116 118.922C116.568 118.568 117.237 118.391 118.008 118.391C118.956 118.391 119.742 118.674 120.367 119.242C120.997 119.81 121.333 120.547 121.375 121.453H120.008C119.966 120.906 119.758 120.458 119.383 120.109C119.013 119.755 118.555 119.578 118.008 119.578C117.273 119.578 116.703 119.844 116.297 120.375C115.896 120.901 115.695 121.664 115.695 122.664V122.938C115.695 123.911 115.896 124.661 116.297 125.188C116.698 125.714 117.271 125.977 118.016 125.977ZM129.281 119.719H126.445V127H125V119.719H122.219V118.547H129.281V119.719ZM135.781 127C135.698 126.833 135.63 126.536 135.578 126.109C134.906 126.807 134.104 127.156 133.172 127.156C132.339 127.156 131.654 126.922 131.117 126.453C130.586 125.979 130.32 125.38 130.32 124.656C130.32 123.776 130.654 123.094 131.32 122.609C131.992 122.12 132.935 121.875 134.148 121.875H135.555V121.211C135.555 120.706 135.404 120.305 135.102 120.008C134.799 119.706 134.354 119.555 133.766 119.555C133.25 119.555 132.818 119.685 132.469 119.945C132.12 120.206 131.945 120.521 131.945 120.891H130.492C130.492 120.469 130.641 120.062 130.938 119.672C131.24 119.276 131.646 118.964 132.156 118.734C132.672 118.505 133.237 118.391 133.852 118.391C134.826 118.391 135.589 118.635 136.141 119.125C136.693 119.609 136.979 120.279 137 121.133V125.023C137 125.799 137.099 126.417 137.297 126.875V127H135.781ZM133.383 125.898C133.836 125.898 134.266 125.781 134.672 125.547C135.078 125.312 135.372 125.008 135.555 124.633V122.898H134.422C132.651 122.898 131.766 123.417 131.766 124.453C131.766 124.906 131.917 125.26 132.219 125.516C132.521 125.771 132.909 125.898 133.383 125.898ZM139.398 127V118.547H142.695C143.82 118.547 144.682 118.745 145.281 119.141C145.885 119.531 146.188 120.107 146.188 120.867C146.188 121.258 146.07 121.612 145.836 121.93C145.602 122.242 145.255 122.482 144.797 122.648C145.307 122.768 145.716 123.003 146.023 123.352C146.336 123.701 146.492 124.117 146.492 124.602C146.492 125.378 146.206 125.971 145.633 126.383C145.065 126.794 144.26 127 143.219 127H139.398ZM140.844 123.289V125.836H143.234C143.839 125.836 144.289 125.724 144.586 125.5C144.888 125.276 145.039 124.961 145.039 124.555C145.039 123.711 144.419 123.289 143.18 123.289H140.844ZM140.844 122.133H142.711C144.065 122.133 144.742 121.737 144.742 120.945C144.742 120.154 144.102 119.745 142.82 119.719H140.844V122.133ZM151.039 123.398H149.984V127H148.531V118.547H149.984V122.125H150.93L153.773 118.547H155.523L152.18 122.609L155.805 127H153.969L151.039 123.398ZM159.812 124.883L161.781 118.547H163.328L159.93 128.305C159.404 129.711 158.568 130.414 157.422 130.414L157.148 130.391L156.609 130.289V129.117L157 129.148C157.49 129.148 157.87 129.049 158.141 128.852C158.417 128.654 158.643 128.292 158.82 127.766L159.141 126.906L156.125 118.547H157.703L159.812 124.883Z" fill="white"/>
<path d="M23.2266 189.227L25.8438 182.625H27.5859L23.5625 192.102C23.2917 192.706 23.0391 193.135 22.8047 193.391C22.5703 193.641 22.2943 193.833 21.9766 193.969C21.6641 194.099 21.2708 194.164 20.7969 194.164C20.3854 194.164 20.1224 194.141 20.0078 194.094L20.0547 192.906L20.7656 192.938C21.3125 192.938 21.7188 192.674 21.9844 192.148L22.1797 191.742L22.4766 191.047L18.6016 182.625H20.2812L23.2266 189.227ZM28.4297 192.82L28.9297 192.203C29.4922 191.474 29.8125 190.38 29.8906 188.922L30.0234 185.547H35.4688V192.82H36.5547V196.484H35.1094V194H29.2109V196.484H27.7656L27.7734 192.82H28.4297ZM30.1406 192.82H34.0234V186.883H31.4219L31.3359 188.898C31.2474 190.581 30.849 191.888 30.1406 192.82ZM43.375 194C43.2917 193.833 43.224 193.536 43.1719 193.109C42.5 193.807 41.6979 194.156 40.7656 194.156C39.9323 194.156 39.2474 193.922 38.7109 193.453C38.1797 192.979 37.9141 192.38 37.9141 191.656C37.9141 190.776 38.2474 190.094 38.9141 189.609C39.5859 189.12 40.5286 188.875 41.7422 188.875H43.1484V188.211C43.1484 187.706 42.9974 187.305 42.6953 187.008C42.3932 186.706 41.9479 186.555 41.3594 186.555C40.8438 186.555 40.4115 186.685 40.0625 186.945C39.7135 187.206 39.5391 187.521 39.5391 187.891H38.0859C38.0859 187.469 38.2344 187.062 38.5312 186.672C38.8333 186.276 39.2396 185.964 39.75 185.734C40.2656 185.505 40.8307 185.391 41.4453 185.391C42.4193 185.391 43.1823 185.635 43.7344 186.125C44.2865 186.609 44.5729 187.279 44.5938 188.133V192.023C44.5938 192.799 44.6927 193.417 44.8906 193.875V194H43.375ZM40.9766 192.898C41.4297 192.898 41.8594 192.781 42.2656 192.547C42.6719 192.312 42.9661 192.008 43.1484 191.633V189.898H42.0156C40.2448 189.898 39.3594 190.417 39.3594 191.453C39.3594 191.906 39.5104 192.26 39.8125 192.516C40.1146 192.771 40.5026 192.898 40.9766 192.898ZM53.7891 185.547V194H52.3359V186.742H49.4609L49.2891 189.906C49.1953 191.359 48.9505 192.398 48.5547 193.023C48.1641 193.648 47.5417 193.974 46.6875 194H46.1094V192.727L46.5234 192.695C46.9922 192.643 47.3281 192.372 47.5312 191.883C47.7344 191.393 47.8646 190.487 47.9219 189.164L48.0781 185.547H53.7891ZM61.5781 185.547H63.0234V194H61.5781V187.836L57.6797 194H56.2344V185.547H57.6797V191.719L61.5781 185.547ZM71.625 186.719H68.7891V194H67.3438V186.719H64.5625V185.547H71.625V186.719ZM74.6094 188.461H76.8047C77.763 188.471 78.5208 188.721 79.0781 189.211C79.6354 189.701 79.9141 190.365 79.9141 191.203C79.9141 192.047 79.6276 192.724 79.0547 193.234C78.4818 193.745 77.7109 194 76.7422 194H73.1641V185.547H74.6094V188.461ZM74.6094 189.641V192.82H76.7578C77.2995 192.82 77.7188 192.682 78.0156 192.406C78.3125 192.125 78.4609 191.742 78.4609 191.258C78.4609 190.789 78.3151 190.406 78.0234 190.109C77.737 189.807 77.3333 189.651 76.8125 189.641H74.6094ZM92.6016 194H91.1562V186.742H87.2656V194H85.8125V185.547H92.6016V194ZM102.062 189.867C102.062 191.154 101.768 192.19 101.18 192.977C100.591 193.763 99.7943 194.156 98.7891 194.156C97.763 194.156 96.9557 193.831 96.3672 193.18V197.25H94.9219V185.547H96.2422L96.3125 186.484C96.901 185.755 97.7188 185.391 98.7656 185.391C99.7812 185.391 100.583 185.773 101.172 186.539C101.766 187.305 102.062 188.37 102.062 189.734V189.867ZM100.617 189.703C100.617 188.75 100.414 187.997 100.008 187.445C99.6016 186.893 99.0443 186.617 98.3359 186.617C97.4609 186.617 96.8047 187.005 96.3672 187.781V191.82C96.7995 192.591 97.4609 192.977 98.3516 192.977C99.0443 192.977 99.5938 192.703 100 192.156C100.411 191.604 100.617 190.786 100.617 189.703ZM103.523 189.695C103.523 188.867 103.685 188.122 104.008 187.461C104.336 186.799 104.789 186.289 105.367 185.93C105.951 185.57 106.615 185.391 107.359 185.391C108.51 185.391 109.44 185.789 110.148 186.586C110.862 187.383 111.219 188.443 111.219 189.766V189.867C111.219 190.69 111.06 191.43 110.742 192.086C110.43 192.737 109.979 193.245 109.391 193.609C108.807 193.974 108.135 194.156 107.375 194.156C106.229 194.156 105.299 193.758 104.586 192.961C103.878 192.164 103.523 191.109 103.523 189.797V189.695ZM104.977 189.867C104.977 190.805 105.193 191.557 105.625 192.125C106.062 192.693 106.646 192.977 107.375 192.977C108.109 192.977 108.693 192.69 109.125 192.117C109.557 191.539 109.773 190.732 109.773 189.695C109.773 188.768 109.552 188.018 109.109 187.445C108.672 186.867 108.089 186.578 107.359 186.578C106.646 186.578 106.07 186.862 105.633 187.43C105.195 187.997 104.977 188.81 104.977 189.867ZM112.719 189.93C112.719 188.518 112.992 187.409 113.539 186.602C114.086 185.794 114.836 185.391 115.789 185.391C116.232 185.391 116.62 185.466 116.953 185.617V182H118.398V185.664C118.763 185.482 119.19 185.391 119.68 185.391C120.638 185.391 121.391 185.794 121.938 186.602C122.484 187.409 122.758 188.573 122.758 190.094C122.758 191.339 122.484 192.328 121.938 193.062C121.396 193.797 120.648 194.164 119.695 194.164C119.19 194.164 118.758 194.081 118.398 193.914V197.25H116.953V193.938C116.609 194.089 116.216 194.164 115.773 194.164C114.826 194.164 114.078 193.797 113.531 193.062C112.99 192.328 112.719 191.323 112.719 190.047V189.93ZM121.312 189.93C121.312 188.867 121.13 188.044 120.766 187.461C120.401 186.872 119.898 186.578 119.258 186.578C118.93 186.578 118.643 186.63 118.398 186.734V192.852C118.633 192.94 118.924 192.984 119.273 192.984C119.919 192.984 120.419 192.734 120.773 192.234C121.133 191.734 121.312 190.966 121.312 189.93ZM114.164 190.094C114.164 191.042 114.333 191.76 114.672 192.25C115.01 192.74 115.497 192.984 116.133 192.984C116.435 192.984 116.708 192.938 116.953 192.844V186.711C116.734 186.622 116.466 186.578 116.148 186.578C115.513 186.578 115.023 186.862 114.68 187.43C114.336 187.997 114.164 188.885 114.164 190.094ZM130.109 185.547H131.555V194H130.109V187.836L126.211 194H124.766V185.547H126.211V191.719L130.109 185.547ZM140.805 185.547V194H139.352V186.742H136.477L136.305 189.906C136.211 191.359 135.966 192.398 135.57 193.023C135.18 193.648 134.557 193.974 133.703 194H133.125V192.727L133.539 192.695C134.008 192.643 134.344 192.372 134.547 191.883C134.75 191.393 134.88 190.487 134.938 189.164L135.094 185.547H140.805ZM144.703 188.461H146.898C147.857 188.471 148.615 188.721 149.172 189.211C149.729 189.701 150.008 190.365 150.008 191.203C150.008 192.047 149.721 192.724 149.148 193.234C148.576 193.745 147.805 194 146.836 194H143.258V185.547H144.703V188.461ZM144.703 189.641V192.82H146.852C147.393 192.82 147.812 192.682 148.109 192.406C148.406 192.125 148.555 191.742 148.555 191.258C148.555 190.789 148.409 190.406 148.117 190.109C147.831 189.807 147.427 189.651 146.906 189.641H144.703Z" fill="#D70010"/>
<defs>
<filter id="filter0_dd" x="0" y="0" width="199" height="226" filterUnits="userSpaceOnUse" color-interpolation-filters="sRGB">
<feFlood flood-opacity="0" result="BackgroundImageFix"/>
<feColorMatrix in="SourceAlpha" type="matrix" values="0 0 0 0 0 0 0 0 0 0 0 0 0 0 0 0 0 0 127 0"/>
<feOffset dy="2"/>
<feGaussianBlur stdDeviation="1"/>
<feColorMatrix type="matrix" values="0 0 0 0 0 0 0 0 0 0 0 0 0 0 0 0 0 0 0.24 0"/>
<feBlend mode="normal" in2="BackgroundImageFix" result="effect1_dropShadow"/>
<feColorMatrix in="SourceAlpha" type="matrix" values="0 0 0 0 0 0 0 0 0 0 0 0 0 0 0 0 0 0 127 0"/>
<feOffset/>
<feGaussianBlur stdDeviation="1"/>
<feColorMatrix type="matrix" values="0 0 0 0 0 0 0 0 0 0 0 0 0 0 0 0 0 0 0.12 0"/>
<feBlend mode="normal" in2="effect1_dropShadow" result="effect2_dropShadow"/>
<feBlend mode="normal" in="SourceGraphic" in2="effect2_dropShadow" result="shape"/>
</filter>
</defs>
</svg>
