<svg width="330" height="207" viewBox="0 0 330 207" fill="none" xmlns="http://www.w3.org/2000/svg">
<path d="M19.5276 193.592C19.4565 193.476 17.7797 190.676 17.1984 184.862C16.6652 179.528 17.0081 170.538 21.6708 157.996C30.5042 134.237 19.6351 115.068 19.524 114.877L20.0603 114.566C20.0884 114.614 22.8931 119.502 24.5499 127.284C26.7391 137.602 25.9419 148.331 22.2518 158.212C13.4336 181.931 19.9894 193.159 20.0566 193.269L19.5276 193.592Z" fill="#3F3D56"/>
<path d="M16.0736 113.482C18.2985 113.482 20.1021 111.678 20.1021 109.453C20.1021 107.228 18.2985 105.425 16.0736 105.425C13.8488 105.425 12.0452 107.228 12.0452 109.453C12.0452 111.678 13.8488 113.482 16.0736 113.482Z" fill="#0091FF"/>
<path d="M28.7787 128.356C31.0035 128.356 32.8071 126.552 32.8071 124.327C32.8071 122.103 31.0035 120.299 28.7787 120.299C26.5538 120.299 24.7502 122.103 24.7502 124.327C24.7502 126.552 26.5538 128.356 28.7787 128.356Z" fill="#3F3D56"/>
<path d="M20.1021 138.272C22.3269 138.272 24.1305 136.468 24.1305 134.244C24.1305 132.019 22.3269 130.215 20.1021 130.215C17.8772 130.215 16.0736 132.019 16.0736 134.244C16.0736 136.468 17.8772 138.272 20.1021 138.272Z" fill="#0091FF"/>
<path d="M30.6379 146.639C32.8628 146.639 34.6664 144.835 34.6664 142.61C34.6664 140.386 32.8628 138.582 30.6379 138.582C28.4131 138.582 26.6095 140.386 26.6095 142.61C26.6095 144.835 28.4131 146.639 30.6379 146.639Z" fill="#0091FF"/>
<path d="M17.0032 159.654C19.2281 159.654 21.0317 157.85 21.0317 155.625C21.0317 153.4 19.2281 151.597 17.0032 151.597C14.7784 151.597 12.9748 153.4 12.9748 155.625C12.9748 157.85 14.7784 159.654 17.0032 159.654Z" fill="#3F3D56"/>
<path d="M21.9613 193.74C21.9613 193.74 17.9329 183.824 30.0182 176.387L21.9613 193.74Z" fill="#3F3D56"/>
<path d="M17.007 193.561C17.007 193.561 15.1736 183.016 0.983521 183.106L17.007 193.561Z" fill="#3F3D56"/>
<path d="M329.052 170.426H42.9205V169.591H328.635L329.052 170.426Z" fill="#2F2E41"/>
<path d="M73.0052 9.97827H73.0053C83.4346 9.97827 91.8892 19.3611 91.8892 30.9353V45.6406H87.3666L84.7482 40.1922L85.4028 45.6406H56.3329L53.9526 40.6875L54.5477 45.6406H51.2747V34.0943C51.2747 20.7754 61.0038 9.97827 73.0052 9.97827Z" fill="#2F2E41"/>
<path d="M105.055 36.206L100.136 19.278C100.136 19.278 96.8786 8.74222 91.4535 8.97878C86.0284 9.21533 94.7769 21.7631 94.7769 21.7631L98.5703 32.0504L99.3817 35.9066L105.055 36.206Z" fill="#FFB8B8"/>
<path d="M84.9004 74.9791L89.4953 84.5865L71.116 97.1178L61.5086 88.7636C61.5086 88.7636 62.344 82.9156 59.8378 80.8271C57.3315 78.7385 84.9004 74.9791 84.9004 74.9791Z" fill="#FFB8B8"/>
<path d="M79.8879 36.9675C79.8879 36.9675 73.6222 46.1571 74.4577 47.4103C75.2931 48.6634 59.8378 44.904 59.8378 44.904C59.8378 44.904 67.7743 34.4612 67.7743 31.5372L79.8879 36.9675Z" fill="#A0616A"/>
<path opacity="0.2" d="M79.8879 36.9675C79.8879 36.9675 73.6222 46.1571 74.4577 47.4103C75.2931 48.6634 59.8378 44.904 59.8378 44.904C59.8378 44.904 67.7743 34.4612 67.7743 31.5372L79.8879 36.9675Z" fill="black"/>
<path d="M75.8589 38.1766C81.2843 38.1766 85.6824 33.7784 85.6824 28.353C85.6824 22.9277 81.2843 18.5295 75.8589 18.5295C70.4335 18.5295 66.0354 22.9277 66.0354 28.353C66.0354 33.7784 70.4335 38.1766 75.8589 38.1766Z" fill="#FFB8B8"/>
<path d="M62.7618 36.9674L77.3817 42.8154V46.1571C77.3817 46.1571 86.5713 44.9039 88.6599 46.1571C90.7484 47.4102 94.0901 56.5998 94.0901 56.5998C94.0901 56.5998 102.444 69.1312 99.5204 70.3843C96.5964 71.6374 91.1661 72.8906 89.0776 75.8145C86.989 78.7385 71.116 79.1562 71.116 79.1562C71.116 79.1562 65.268 80.8271 62.7618 83.3333C60.2555 85.8396 55.243 83.3333 55.243 83.3333L52.7367 42.8154L60.6732 40.3091L62.7618 36.9674Z" fill="#3F3D56"/>
<path d="M86.5713 47.8279L91.1661 46.5747C91.1661 46.5747 98.2672 45.3216 98.2672 44.4862C98.2672 43.6508 97.4318 42.8153 98.2672 42.8153C99.1026 42.8153 100.773 42.8153 99.938 41.5622C99.1026 40.3091 100.356 38.2205 98.6849 37.3851C97.0141 36.5497 95.7609 36.132 96.5964 35.7143C97.4318 35.2965 94.5078 28.6132 94.5078 28.6132L97.0141 27.36L99.938 31.9548L100.356 25.6892L104.951 24.8538L106.621 32.3726C106.621 32.3726 114.976 43.2331 109.128 49.081C103.28 54.9289 92.0015 59.5238 92.0015 59.5238L86.5713 47.8279Z" fill="#3F3D56"/>
<path d="M86.5713 82.498L89.4953 80.8271C89.4953 80.8271 99.9381 92.9408 99.9381 129.699C99.9381 166.458 97.8495 183.166 96.5964 182.749C95.3432 182.331 88.2422 185.255 86.989 184.002C85.7359 182.749 77.3817 121.763 77.3817 121.763C77.3817 121.763 51.0659 184.837 46.8888 184.837C42.7116 184.837 36.0283 183.584 36.0283 181.078C36.0283 178.572 48.5596 145.155 48.5596 145.155C48.5596 145.155 56.4961 86.6751 60.2555 86.2574L61.6029 85.4369L71.5337 92.1053L86.5713 82.498Z" fill="#2F2E41"/>
<path d="M89.4953 182.749H93.2547C93.2547 182.749 96.5964 186.09 97.8495 194.027C99.1027 201.963 100.356 206.976 94.9256 206.976C89.4953 206.976 86.1536 205.723 86.5713 202.799C86.989 199.875 85.7359 198.622 85.7359 198.622C85.7359 198.622 83.6474 194.862 84.0651 192.774C84.4828 190.685 85.7359 184.002 85.7359 184.002L89.4953 182.749Z" fill="#2F2E41"/>
<path d="M46.4711 183.584C46.4711 183.584 50.6482 194.445 47.7242 196.951C44.8002 199.457 43.5471 199.875 43.5471 199.875C43.5471 199.875 39.37 200.71 38.9523 201.963C38.5345 203.216 32.6866 207.811 27.2563 205.305C21.8261 202.799 25.1678 197.369 25.1678 197.369L37.6991 181.913C37.6991 181.913 42.2939 182.749 42.2939 183.584C42.2939 184.419 46.4711 183.584 46.4711 183.584Z" fill="#2F2E41"/>
<path d="M68.1615 93.6895C69.2607 92.6736 70.6215 91.9845 72.0909 91.6996L71.6713 93.6689C71.5518 94.2297 71.4342 94.8251 71.6271 95.365C71.9645 96.3095 73.0717 96.6885 74.0415 96.9442C75.1372 97.233 76.3866 97.6502 76.787 98.7103C77.1287 99.6151 76.6912 100.623 76.158 101.43C75.657 102.188 75.0654 102.882 74.3964 103.496C73.1851 104.608 71.5197 105.479 69.9348 105.04C69.462 104.882 69.0025 104.686 68.5606 104.455C67.4262 103.937 66.1929 103.652 65.0778 103.094C62.8007 101.954 61.2352 99.7978 59.7608 97.7214C59.5666 97.5124 59.4667 97.2329 59.4844 96.9482C59.5197 96.8212 59.5805 96.7028 59.663 96.6001C60.5161 95.3974 62.3385 93.1109 63.7256 94.6674C64.162 95.157 64.5029 95.6519 65.2263 95.6552C66.4659 95.6608 67.3468 94.445 68.1615 93.6895Z" fill="#FFB8B8"/>
<path d="M55.6607 43.6509L52.7367 42.8154C52.7367 42.8154 47.3064 42.8154 45.6356 51.1697C43.9647 59.5239 41.8762 85.8397 43.9648 90.0168C46.0533 94.1939 56.4961 102.966 56.4961 102.966L64.8503 95.0293L59.8378 90.0168C59.8378 90.0168 58.5846 90.4345 58.5846 88.7637C58.5846 87.0928 60.2555 87.9282 58.5846 87.0928C56.9138 86.2574 57.3315 87.5105 56.9138 86.2574C56.4961 85.0042 55.6607 43.6509 55.6607 43.6509Z" fill="#3F3D56"/>
<path d="M67.3051 16.3294C68.9942 14.1545 71.4855 12.777 74.2665 12.777H74.5968C80.9648 12.777 86.1271 18.5393 86.1271 25.6475V25.6475H83.9933L83.6487 23.0246L83.1435 25.6475H70.4883L69.428 23.4285L69.6931 25.6475H67.2035C66.0417 31.4171 67.711 37.1866 72.2112 42.9562H67.9702L65.8497 38.5181L66.3798 42.9562H58.2953L56.705 32.7485C56.705 25.1039 61.1467 18.6214 67.3051 16.3294Z" fill="#2F2E41"/>
<path fill-rule="evenodd" clip-rule="evenodd" d="M142.336 52.2139C142.336 23.4211 165.757 0 194.55 0C223.338 0 246.764 23.4211 246.764 52.2139C246.748 81.0442 223.38 104.412 194.55 104.428C173.367 104.428 155.097 91.7544 146.914 73.5923C143.888 66.8718 142.327 59.5842 142.336 52.2139ZM194.55 100.251C212.936 100.236 229.705 89.7372 237.749 73.2039C240.941 66.6675 242.595 59.4878 242.586 52.2139C242.586 25.7268 221.037 4.17711 194.55 4.17711C168.063 4.17711 146.513 25.7268 146.513 52.2139C146.505 58.1645 147.612 64.0639 149.775 69.6074C156.755 87.523 174.195 100.251 194.55 100.251Z" fill="#3F3D56"/>
<path d="M240.272 77.4061C231.087 94.0656 213.573 104.416 194.55 104.428C173.368 104.428 155.097 91.7545 146.914 73.5924C147.812 72.2181 148.766 70.8898 149.775 69.6074C156.755 87.523 174.195 100.251 194.55 100.251C212.936 100.236 229.705 89.7372 237.749 73.2039C238.652 74.5615 239.493 75.9622 240.272 77.4061Z" fill="#0091FF"/>
<path fill-rule="evenodd" clip-rule="evenodd" d="M199.919 37.7662C199.919 39.59 198.441 41.0685 196.617 41.0685C194.793 41.0685 193.315 39.59 193.315 37.7662C193.315 35.9424 194.793 34.4639 196.617 34.4639C198.441 34.4639 199.919 35.9424 199.919 37.7662ZM200.745 49.2418L204.997 50.6453C205.864 50.9342 206.318 51.8836 206.029 52.7505C205.781 53.411 205.162 53.865 204.46 53.865C204.254 53.865 204.089 53.8238 203.923 53.7825L198.97 52.1313C198.516 51.9662 198.186 51.636 197.979 51.2232L197.195 49.4069L196.08 54.9796L200.085 57.9104C200.497 58.1993 200.745 58.6947 200.745 59.2313V68.3127C200.745 69.2208 200.002 69.9639 199.094 69.9639C198.186 69.9639 197.443 69.2208 197.443 68.3127V60.0569L192.985 56.8371L191.994 61.6255C191.953 61.8732 191.829 62.1208 191.664 62.3272L185.885 69.3447C185.554 69.7575 185.1 69.9639 184.605 69.9639C184.233 69.9639 183.862 69.84 183.573 69.5924C182.871 69.0145 182.789 67.9825 183.366 67.2807L188.898 60.5522L191.746 46.6412L190.012 47.3017L188.32 51.5947C188.072 52.2551 187.453 52.6267 186.793 52.6267C186.586 52.6267 186.38 52.5854 186.173 52.5028C185.307 52.1726 184.935 51.1819 185.265 50.3563L187.329 45.4028C187.494 44.99 187.825 44.6598 188.237 44.4947L194.016 42.2243C194.429 42.0179 194.925 41.8941 195.42 41.8941C196.658 41.8941 197.732 42.5958 198.31 43.6278C198.392 43.7929 200.745 49.2418 200.745 49.2418Z" fill="#0091FF"/>
<path d="M153.752 128.879C152.466 128.879 151.402 132.62 151.196 137.526H126.473C126.267 132.62 125.203 128.879 123.918 128.879C122.485 128.879 121.323 133.525 121.323 139.256C121.323 144.987 122.485 149.633 123.918 149.633C125.203 149.633 126.267 145.891 126.473 140.985H151.196C151.402 145.891 152.466 149.633 153.752 149.633C155.184 149.633 156.346 144.987 156.346 139.256C156.346 133.525 155.184 128.879 153.752 128.879Z" fill="#0091FF"/>
<path fill-rule="evenodd" clip-rule="evenodd" d="M127.276 110.307C141.716 104.51 158.213 110.347 165.794 123.935C168.361 128.537 169.71 133.719 169.713 138.989C169.717 154.549 158.159 167.688 142.725 169.666C127.292 171.644 112.793 161.844 108.874 146.786C104.955 131.728 112.837 116.104 127.276 110.307ZM110.375 138.998C110.37 154.696 123.088 167.427 138.785 167.44C146.343 167.478 153.602 164.493 158.947 159.15C164.291 153.806 167.277 146.547 167.24 138.989C167.23 123.292 154.5 110.572 138.803 110.575C123.105 110.577 110.38 123.301 110.375 138.998Z" fill="#3F3D56"/>
<path d="M169.713 138.989C169.718 150.338 163.504 160.777 153.526 166.184C143.548 171.59 131.409 171.094 121.905 164.891C121.372 163.569 120.928 162.213 120.577 160.831C131.585 170.025 147.716 169.583 158.203 159.799C168.689 150.015 170.248 133.953 161.839 122.335C163.192 122.779 164.513 123.313 165.794 123.935C168.37 128.534 169.719 133.718 169.713 138.989Z" fill="#0091FF"/>
<path fill-rule="evenodd" clip-rule="evenodd" d="M223.53 123.526C229.055 113.957 239.265 108.062 250.314 108.062C267.278 108.061 281.076 121.726 281.24 138.689C281.404 155.652 267.872 169.581 250.911 169.908C250.711 169.917 250.515 169.917 250.314 169.917C239.265 169.917 229.055 164.022 223.53 154.453C218.006 144.884 218.006 133.095 223.53 123.526ZM228.062 156.716C234.869 165.26 245.965 169.153 256.617 166.734C270.745 163.525 280.206 150.213 278.591 135.816C276.977 121.419 264.802 110.534 250.314 110.535H250.297C239.374 110.542 229.419 116.802 224.68 126.644C219.942 136.486 221.256 148.172 228.062 156.716Z" fill="#3F3D56"/>
<path d="M256.617 166.734C254.829 167.985 252.917 169.049 250.911 169.908C250.711 169.917 250.515 169.917 250.314 169.917C234.459 169.916 221.172 157.927 219.549 142.155C217.926 126.383 228.492 111.939 244.015 108.709C246.166 109.1 248.272 109.711 250.297 110.535C239.375 110.543 229.421 116.803 224.683 126.645C219.945 136.486 221.259 148.172 228.064 156.715C234.87 165.258 245.966 169.152 256.617 166.734Z" fill="#0091FF"/>
<path d="M265.571 137.674C263.878 137.589 262.335 138.642 261.797 140.25H258.752L256.528 133.564C256.359 133.05 255.879 132.702 255.338 132.702H255.314C254.765 132.711 254.286 133.081 254.14 133.611L250.656 145.77L246.561 121.177C246.463 120.59 245.967 120.153 245.373 120.128C244.779 120.103 244.248 120.499 244.102 121.075L239.953 140.25H235.302C234.61 140.25 234.049 140.811 234.049 141.503C234.049 142.195 234.61 142.756 235.302 142.756H240.939C241.513 142.757 242.014 142.366 242.153 141.808L245.081 127.543L249.098 151.65C249.192 152.229 249.679 152.663 250.264 152.692H250.335C250.894 152.691 251.385 152.321 251.541 151.783L255.432 138.191L256.661 141.894C256.833 142.406 257.311 142.753 257.851 142.756H261.852C262.515 144.511 264.37 145.508 266.199 145.094C268.029 144.68 269.273 142.98 269.115 141.111C268.956 139.242 267.445 137.775 265.571 137.674V137.674Z" fill="#0091FF"/>
</svg>
