<svg width="325" height="270" viewBox="0 0 325 270" fill="none" xmlns="http://www.w3.org/2000/svg">
<path opacity="0.1" d="M230.885 269.926C249.157 269.926 263.969 268.466 263.969 266.664C263.969 264.863 249.157 263.403 230.885 263.403C212.614 263.403 197.802 264.863 197.802 266.664C197.802 268.466 212.614 269.926 230.885 269.926Z" fill="#347CFF"/>
<path opacity="0.1" d="M142.508 3.94817C157.079 -1.46796 174.818 3.1901 189.966 9.98365C237.543 31.3256 272.205 71.8385 299.743 113.113C309.714 128.058 319.185 143.661 322.934 160.345C330.566 194.303 310.66 229.458 276.805 241.777C265.292 245.971 252.643 247.69 239.976 248.648C217.45 250.355 194.127 249.677 171.782 243.358C155.847 238.842 140.772 231.577 126.314 223.551C85.937 201.126 49.0628 172.003 22.5112 136.429C10.866 120.826 1.01443 103.235 0.730562 85.232C0.446691 67.2288 12.1789 49.1385 31.4822 46.0772C39.4628 44.8127 47.9048 46.1288 56.1402 47.4837C68.266 49.4804 80.5564 51.5804 92.5435 50.7095C104.927 49.803 121.034 44.9643 123.292 33.1417C125.682 20.4482 127.956 9.35784 142.508 3.94817Z" fill="#347CFF"/>
<path d="M79.4402 248.003C79.4402 248.003 95.008 247.064 93.1725 257.974C93.1725 257.974 93.537 259.91 91.7886 260.777C91.7886 260.777 91.7628 259.968 90.1918 260.242C89.6338 260.338 89.0663 260.366 88.5015 260.326C87.7377 260.273 87.0119 259.973 86.4338 259.471C86.4338 259.471 82.0564 257.664 80.3564 250.51C80.3564 250.51 79.0951 248.952 79.1467 248.548L81.7725 249.671C81.7725 249.671 80.8757 251.568 81.5822 253.142C81.5822 253.142 81.666 249.742 82.1725 249.819C82.2725 249.835 83.537 250.464 83.537 250.464C83.537 250.464 81.9918 253.764 83.1564 256.164C83.1564 256.164 82.7144 252.097 84.0177 250.703L85.8693 251.784C85.8693 251.784 84.0628 255.193 85.2886 257.974C85.2886 257.974 84.966 253.706 86.2564 252.045L87.9338 253.335C87.9338 253.335 86.237 256.697 87.2725 259.006C87.2725 259.006 87.4047 254.035 88.2951 253.661C88.2951 253.661 89.7628 254.952 89.9854 255.487C89.9854 255.487 88.8241 257.926 89.5435 259.213C89.5435 259.213 89.9854 255.903 90.3499 255.887C90.3499 255.887 91.808 258.081 91.9628 259.584C91.9628 259.584 91.8983 257.348 90.7015 255.677C90.7015 255.677 92.1144 255.919 92.9402 256.835C92.9402 256.835 92.7112 255.284 90.3435 255.148C90.3435 255.148 89.137 253.487 88.8112 253.384C88.8112 253.384 91.1693 253.187 92.5983 253.823C92.5983 253.823 91.3402 252.358 88.3789 253.023L86.7241 251.674C86.7241 251.674 89.8306 251.248 91.1435 251.719C91.1435 251.719 89.6306 250.429 86.2789 251.368L84.4789 250.29C84.4789 250.29 87.1241 249.719 88.7015 249.926C88.7015 249.926 87.037 249.029 83.9499 250L82.6596 249.423C82.6596 249.423 84.5951 249.042 85.166 248.981C85.737 248.919 85.7628 248.764 85.7628 248.764C84.5349 248.559 83.274 248.698 82.1209 249.168C82.1209 249.168 79.3918 248.19 79.4402 248.003Z" fill="#347CFF"/>
<path opacity="0.1" d="M90.1628 263.59C96.2487 263.59 101.182 262.757 101.182 261.729C101.182 260.701 96.2487 259.868 90.1628 259.868C84.077 259.868 79.1435 260.701 79.1435 261.729C79.1435 262.757 84.077 263.59 90.1628 263.59Z" fill="#347CFF"/>
<path d="M58.5854 240.664C58.5854 240.664 67.3628 240.135 66.3273 246.287C66.4396 246.927 66.1253 247.566 65.5499 247.868C65.5499 247.868 65.5338 247.413 64.6499 247.568C64.3357 247.621 64.0162 247.637 63.6983 247.613C63.2666 247.586 62.8559 247.417 62.5306 247.132C62.5306 247.132 60.0661 246.11 59.0983 242.077C59.0983 242.077 58.3886 241.197 58.4144 240.971L59.8983 241.616C59.8983 241.616 59.3919 242.687 59.7886 243.574C59.7886 243.574 59.837 241.655 60.1112 241.7C60.1693 241.7 60.8822 242.071 60.8822 242.071C60.8822 242.071 60.0112 243.932 60.6693 245.297C60.6693 245.297 60.4177 243.003 61.1532 242.216L62.1951 242.826C62.1951 242.826 61.179 244.761 61.8725 246.316C61.8725 246.316 61.6951 243.91 62.4177 242.974L63.3628 243.71C63.3628 243.71 62.3951 245.603 62.9919 246.906C62.9919 246.906 63.0661 244.103 63.5693 243.894C63.5693 243.894 64.3951 244.623 64.5209 244.923C64.5209 244.923 63.8757 246.297 64.2725 247.023C64.2725 247.023 64.5209 245.158 64.7273 245.148C64.7273 245.148 65.5499 246.384 65.6338 247.232C65.5927 246.449 65.3481 245.689 64.9241 245.029C65.3987 245.116 65.8373 245.34 66.1854 245.674C66.1854 245.674 66.0596 244.8 64.7209 244.723C64.7209 244.723 64.0403 243.784 63.8596 243.729C63.8596 243.729 65.1886 243.616 65.9951 243.974C65.9951 243.974 65.2854 243.148 63.6144 243.523L62.6822 242.761C62.6822 242.761 64.4338 242.523 65.1757 242.787C65.1757 242.787 64.3209 242.058 62.4306 242.59L61.4177 241.981C62.198 241.81 62.9972 241.742 63.7951 241.777C63.7951 241.777 62.8596 241.271 61.1177 241.819L60.3919 241.497C60.3919 241.497 61.4854 241.281 61.8048 241.248C62.1241 241.216 62.1435 241.126 62.1435 241.126C61.4505 241.011 60.7393 241.09 60.0886 241.355C60.0886 241.355 58.5596 240.771 58.5854 240.664Z" fill="#347CFF"/>
<path opacity="0.1" d="M64.6306 249.451C68.0619 249.451 70.8435 248.981 70.8435 248.4C70.8435 247.819 68.0619 247.348 64.6306 247.348C61.1993 247.348 58.4177 247.819 58.4177 248.4C58.4177 248.981 61.1993 249.451 64.6306 249.451Z" fill="#347CFF"/>
<path d="M274.524 246.577C274.524 246.577 285.121 245.932 283.879 253.352C284.009 254.125 283.63 254.894 282.937 255.261C282.937 255.261 282.918 254.71 281.85 254.897C281.47 254.961 281.083 254.98 280.698 254.952C280.178 254.918 279.684 254.714 279.292 254.371C279.292 254.371 276.311 253.142 275.153 248.271C275.153 248.271 274.295 247.21 274.331 246.939L276.118 247.7C276.118 247.7 275.508 248.99 275.989 250.064C275.989 250.064 276.047 247.748 276.389 247.806C276.46 247.806 277.318 248.252 277.318 248.252C277.318 248.252 276.266 250.51 277.06 252.123C277.06 252.123 276.76 249.355 277.647 248.406L278.905 249.139C278.905 249.139 277.676 251.461 278.511 253.355C278.511 253.355 278.295 250.452 279.156 249.319L280.298 250.21C280.298 250.21 279.143 252.497 279.847 254.081C279.847 254.081 279.94 250.7 280.547 250.442C280.547 250.442 281.543 251.323 281.695 251.684C281.695 251.684 280.905 253.345 281.395 254.223C281.395 254.223 281.695 251.964 281.943 251.964C281.943 251.964 282.937 253.458 283.04 254.481C282.992 253.535 282.697 252.619 282.185 251.823C282.759 251.931 283.288 252.205 283.708 252.61C283.708 252.61 283.553 251.555 281.937 251.461C281.937 251.461 281.118 250.329 280.898 250.261C280.898 250.261 282.511 250.126 283.479 250.558C283.479 250.558 282.621 249.564 280.605 250.016L279.479 249.097C279.479 249.097 281.592 248.806 282.489 249.126C282.489 249.126 281.456 248.245 279.176 248.887L277.95 248.155C277.95 248.155 279.75 247.768 280.824 247.906C280.824 247.906 279.692 247.297 277.598 247.958L276.721 247.564C276.721 247.564 278.04 247.303 278.427 247.264C278.814 247.226 278.834 247.116 278.834 247.116C277.998 246.977 277.141 247.072 276.356 247.39C276.356 247.39 274.492 246.7 274.524 246.577Z" fill="#347CFF"/>
<path opacity="0.1" d="M281.821 257.19C285.963 257.19 289.321 256.623 289.321 255.923C289.321 255.222 285.963 254.655 281.821 254.655C277.679 254.655 274.321 255.222 274.321 255.923C274.321 256.623 277.679 257.19 281.821 257.19Z" fill="#347CFF"/>
<path fill-rule="evenodd" clip-rule="evenodd" d="M263.614 164.826C263.645 165.979 263.763 167.129 263.966 168.264C264.005 168.461 263.685 170.926 262.885 172.151C262.085 173.377 261.285 176.106 261.324 176.581C261.355 176.956 259.929 178.624 259.016 179.693C258.777 179.972 258.574 180.21 258.44 180.374C257.907 181.11 257.438 181.89 257.037 182.706L254.905 186.642C253.566 186.191 252.276 185.608 251.053 184.9C250.611 184.955 250.289 184.984 250.289 184.984C249.7 184.929 249.115 184.839 248.537 184.716L248.576 185.01C248.95 187.961 249.221 190.397 249.221 190.397C249.221 190.397 248.502 193.006 247.498 192.216L247.443 192.171C247.418 192.3 247.392 192.442 247.363 192.6C247.108 194.039 246.721 196.651 246.856 198.729C247.063 201.771 246.418 206.393 246.418 206.393C246.418 206.393 245.024 206.281 242.973 206.155C242.918 206.297 242.856 206.458 242.795 206.619C242.598 207.132 242.379 207.697 242.15 208.268C242.145 208.279 242.139 208.29 242.133 208.302C242.12 208.324 242.108 208.346 242.108 208.368L242.021 208.59C242.002 208.639 241.982 208.687 241.96 208.735L241.882 208.932L241.882 208.932C241.85 209.006 241.818 209.081 241.789 209.155L241.727 209.303C241.697 209.377 241.665 209.45 241.634 209.521C241.622 209.549 241.61 209.576 241.598 209.603C241.59 209.626 241.581 209.648 241.572 209.67C241.567 209.681 241.562 209.692 241.556 209.703C241.539 209.742 241.519 209.792 241.5 209.837C241.48 209.887 241.462 209.931 241.453 209.948C241.437 209.981 241.411 210.013 241.411 210.045L241.302 210.29C241.298 210.3 241.292 210.309 241.287 210.318C241.278 210.333 241.269 210.348 241.269 210.364C241.124 210.687 240.985 210.981 240.856 211.235L240.84 211.264C240.813 211.321 240.784 211.376 240.756 211.429C240.747 211.445 240.739 211.461 240.731 211.477L240.714 211.506C240.676 211.577 240.64 211.645 240.605 211.706L240.495 211.881C239.576 213.261 238.931 215.751 238.931 215.751L238.092 220.851C238.092 220.851 237.918 222.087 237.843 223.197C237.811 223.6 237.811 223.968 237.811 224.29C237.814 224.374 237.805 224.551 237.785 224.8V224.91C237.708 225.835 237.511 227.6 237.269 229.664L237.251 229.827C237.209 230.199 237.166 230.575 237.121 230.955C237.249 233.536 237.202 236.122 236.979 238.697C236.979 238.697 237.582 248.3 237.421 249.21C237.327 249.735 237.773 250.91 238.163 251.916L238.282 251.81C238.282 251.81 240.421 254.081 240.382 256.648C240.343 259.216 240.143 262.735 240.143 262.735C240.143 262.735 239.947 264.161 240.385 264.555C240.824 264.948 240.385 266.926 240.385 266.926C240.385 266.926 236.618 270.374 233.456 266.635C233.456 266.635 232.837 264.5 233.095 263.122C233.114 263.019 233.14 262.868 233.166 262.697C233.204 261.202 233.324 259.711 233.524 258.229L233.895 255.542C233.498 255.503 232.895 253.368 233.176 252.855C233.456 252.342 232.934 250.168 232.934 250.168L231.989 247.248L231.866 247.535L231.85 247.574L231.798 247.703L231.782 247.745C231.724 247.881 231.663 248.045 231.605 248.203V248.222C231.599 248.237 231.592 248.251 231.585 248.265C231.568 248.301 231.55 248.337 231.55 248.374V248.406C231.538 248.442 231.527 248.476 231.515 248.51C231.47 248.645 231.427 248.772 231.389 248.903L231.34 249.058V249.093C231.298 249.235 231.26 249.41 231.227 249.558C231.226 249.569 231.226 249.579 231.227 249.59C231.202 249.635 231.202 249.677 231.202 249.719V249.774L231.182 249.9V249.939C231.169 250.012 231.163 250.083 231.163 250.151V250.213V250.374V250.455V250.535V250.587C231.303 251.623 231.203 252.676 230.873 253.668C230.871 253.683 230.871 253.698 230.873 253.713L230.821 253.839L230.792 253.916C230.774 253.962 230.754 254.003 230.736 254.043C230.731 254.053 230.726 254.064 230.721 254.074V254.1C230.672 254.199 230.612 254.294 230.543 254.381V254.4L230.663 264.748C230.663 264.748 229.189 267.029 225.779 266.555C222.369 266.081 222.86 262.368 223.337 261.774C223.814 261.181 224.056 258.571 224.056 258.571C224.056 258.571 224.656 254.306 225.056 252.764C225.276 251.922 225.669 251.577 225.992 251.435C226.103 251.095 226.232 250.761 226.379 250.435C226.728 249.772 227.018 249.079 227.247 248.364C227.323 248.127 227.342 247.875 227.302 247.629C227.279 247.468 227.272 247.304 227.282 247.142V246.984C227.284 246.955 227.284 246.926 227.282 246.897V246.851V246.71C227.385 244.126 227.998 236.981 228.321 233.274C227.789 230.535 227.45 228.387 227.527 228.113C227.727 227.387 227.205 222.226 227.205 222.226C227.205 222.226 226.566 216.968 225.685 215.306C225.102 214.21 223.956 210.084 223.25 207.416C223.236 207.362 223.222 207.308 223.207 207.253C223.179 207.144 223.15 207.035 223.124 206.932C222.375 206.909 221.638 206.732 220.96 206.413C220.96 206.413 221.489 201.829 220.198 199.458C219.334 197.845 218.708 190.645 218.689 185.91V185.222C218.177 185.646 217.739 186.153 217.395 186.551C217.023 186.982 216.76 187.286 216.631 187.222C214.071 185.795 211.622 184.178 209.305 182.384C206.379 180.003 214.531 166.693 215.453 165.664C216.376 164.635 218.256 152.781 218.256 152.781C217.971 153.15 217.581 153.425 217.137 153.571C216.534 153.69 215.414 154.51 214.173 155.555C212.931 156.6 207.243 155.555 207.243 155.555C203.121 155.755 202.36 152.235 202.36 152.235C202.36 152.235 200.318 147.484 200.237 145.784C200.156 144.084 197.073 137.248 197.073 137.248C197.737 136.176 198.694 135.316 199.831 134.768C199.605 134.035 199.282 133.41 198.834 133.216C198.711 133.163 198.468 133.066 198.135 132.932C194.994 131.677 183.783 127.194 188.343 125.587C193.389 123.81 201.156 129.642 201.156 129.642C201.156 129.642 201.553 129.777 202.198 131.084C202.534 131.768 202.973 132.935 203.311 133.887L203.414 134.181L203.64 134.203C203.64 134.203 205.482 138.206 205.482 139.145C205.482 140.084 207.724 144.629 207.724 144.629C207.724 144.629 208.847 145.774 208.447 146.684C208.047 147.593 209.366 147.393 209.366 147.393L211.131 146.013C211.131 146.013 212.653 145.035 213.373 144.864C214.092 144.693 215.334 143.403 215.334 143.403C215.334 143.403 216.779 142.455 216.656 142.297C216.534 142.139 217.447 141.39 217.976 141.151C218.46 140.933 218.704 140.485 219.139 139.684C219.18 139.61 219.222 139.532 219.266 139.451C219.615 138.813 220.09 138.926 220.487 139.02C220.679 139.065 220.853 139.106 220.985 139.055C221.389 138.897 226.392 139.529 226.873 139.648C227.353 139.768 229.156 139.819 230.079 139.174C230.688 138.804 231.429 138.721 232.105 138.948C232.285 138.551 232.443 138.144 232.579 137.729L232.647 137.519C229.49 136.175 227.432 133.086 227.408 129.655C227.406 127.576 228.166 125.569 229.543 124.013C229.663 123.874 229.792 123.739 229.921 123.61H229.902C229.421 123.377 228.705 122.871 228.705 122.297C228.698 122.075 228.783 121.86 228.94 121.703C229.036 121.601 229.152 121.524 229.268 121.447C229.381 121.372 229.494 121.298 229.585 121.2C229.777 120.98 229.871 120.693 229.847 120.403C229.844 120.231 229.822 120.053 229.799 119.872C229.775 119.672 229.75 119.469 229.75 119.271C229.744 119.113 229.759 118.954 229.795 118.8C229.956 118.151 230.585 117.771 231.269 117.648V117.677C231.531 117.629 231.798 117.617 232.063 117.642C232.531 117.691 232.983 117.822 233.435 117.953C233.877 118.082 234.32 118.21 234.776 118.261C235.855 118.375 236.91 118.058 237.961 117.741C238.306 117.637 238.65 117.533 238.995 117.445C240.392 117.087 242.089 117.084 243.047 118.126C243.47 118.586 243.694 119.197 243.916 119.802C244.197 120.567 244.474 121.321 245.143 121.748C245.456 121.929 245.811 122.026 246.168 122.123C246.448 122.199 246.729 122.276 246.992 122.393C247.645 122.725 248.188 123.238 248.556 123.871C249.504 125.337 249.922 127.083 249.74 128.819C249.689 129.302 249.591 129.778 249.494 130.253C249.402 130.701 249.31 131.149 249.256 131.603C249.142 132.575 249.208 133.559 249.45 134.506C249.702 135.49 250.263 136.513 251.231 136.835C251.46 136.883 251.683 136.957 251.895 137.058C252.46 137.406 252.385 138.222 252.243 138.868L251.647 141.506C251.922 141.714 252.272 141.775 252.621 141.836C252.984 141.9 253.346 141.963 253.624 142.19C253.837 142.382 253.995 142.627 254.082 142.9C254.572 144.301 254.217 145.858 253.169 146.91C253.175 146.926 253.183 146.941 253.19 146.956C253.206 146.99 253.221 147.022 253.221 147.058C253.256 147.168 253.285 147.284 253.311 147.403C253.52 148.392 253.609 149.006 253.668 149.416C253.746 149.957 253.773 150.144 253.956 150.368C254.544 151.394 255.198 152.381 255.914 153.322C256.354 153.86 256.606 154.526 256.634 155.219C256.634 155.219 259.024 158.735 259.798 159.132C260.573 159.529 261.734 162.216 261.734 162.216C261.734 162.216 263.614 163.442 263.614 164.826ZM253.395 174.193C253.434 173.6 254.234 171.622 255.076 171.268C255.918 170.913 256.356 170.539 255.995 169.993C255.634 169.448 255.995 168.381 255.995 168.381C255.995 168.381 253.634 165.297 253.311 163.519C252.989 161.742 250.827 160.558 250.827 160.558C250.827 160.558 250.819 160.555 250.805 160.55C250.648 160.495 249.702 160.16 249.627 160.558C249.547 160.99 249.347 161.939 249.347 161.939C249.347 161.939 249.537 164.232 248.702 165.142C247.866 166.051 247.734 169.884 247.734 169.884C247.734 169.884 246.382 173.677 247.027 174.864C247.25 175.281 247.598 177.345 247.95 179.839C248.263 179.787 248.563 179.751 248.827 179.729C249.085 179.49 250.705 178 251.553 177.71C252.473 177.393 253.356 174.787 253.395 174.193Z" fill="url(#paint0_linear)"/>
<path d="M197.163 137.49C198.507 135.273 201.049 134.076 203.614 134.452V139.068H200.811L198.618 138.513L197.163 137.49Z" fill="#4C4981"/>
<path opacity="0.1" d="M197.163 137.49C198.507 135.273 201.049 134.076 203.614 134.452V139.068H200.811L198.618 138.513L197.163 137.49Z" fill="black"/>
<path d="M203.824 135.674L200.389 138.081C200.389 138.081 200.36 137.6 200.273 136.942C200.102 135.697 199.718 133.829 198.889 133.468C197.627 132.913 183.585 127.629 188.566 125.851C193.547 124.074 201.189 129.9 201.189 129.9C201.189 129.9 201.582 130.035 202.211 131.335C202.534 132.019 202.976 133.184 203.308 134.135C203.614 134.993 203.824 135.674 203.824 135.674Z" fill="#AE6E79"/>
<path d="M231.269 139.381L231.66 139.197L232.756 140.448L231.86 142.361L230.331 141.748L230.685 140.219L231.269 139.381Z" fill="#4C4981"/>
<path d="M226.073 251.416C226.073 251.416 225.085 251.3 224.692 252.839C224.298 254.377 223.705 258.645 223.705 258.645C223.705 258.645 223.469 261.248 222.995 261.842C222.521 262.435 222.05 266.142 225.402 266.613C228.753 267.084 230.214 264.81 230.214 264.81L230.095 254.464L226.073 251.416Z" fill="#444053"/>
<path d="M237.769 251.881C237.769 251.881 239.879 254.139 239.84 256.7C239.802 259.261 239.602 262.774 239.602 262.774C239.602 262.774 239.408 264.197 239.84 264.59C240.272 264.984 239.84 266.958 239.84 266.958C239.84 266.958 236.131 270.4 233.014 266.668C233.014 266.668 232.408 264.535 232.66 263.161C232.911 261.787 233.614 255.61 233.614 255.61L237.769 251.881Z" fill="#444053"/>
<path d="M242.995 204.71C242.995 204.71 240.866 210.664 239.956 212.045C239.047 213.426 238.421 215.916 238.421 215.916L237.592 221.003C237.43 222.141 237.337 223.287 237.314 224.435C237.353 225.581 235.263 242.264 235.263 242.264L231.95 246.487C231.95 246.487 230.492 249.445 230.727 250.681C230.963 251.916 230.569 253.877 230.082 254.468C230.082 254.468 230.005 258.339 229.885 259.2C229.766 260.061 230.321 262.516 229.885 262.948C229.45 263.381 223.653 263.187 223.495 262.474C223.337 261.761 224.205 258.332 224.205 258.332L224.718 255.019C224.718 255.019 225.743 253.206 225.508 252.613C225.272 252.019 225.94 250.642 225.979 250.522C226.018 250.403 227.085 248.471 226.889 247.722C226.692 246.974 228.131 231.058 228.131 231.058L232.192 202.539L242.995 204.71Z" fill="#FFB8B8"/>
<path d="M239.447 264.035C239.482 264.471 233.882 265.103 233.082 264.629C232.282 264.155 233.082 258.277 233.082 258.277L233.447 255.597C233.056 255.555 232.463 253.426 232.737 252.913C233.011 252.4 232.501 250.232 232.501 250.232L231.572 247.329L231.005 245.552C230.082 243.516 228.747 237.71 227.918 233.374C227.395 230.652 227.063 228.506 227.137 228.232C227.334 227.523 226.814 222.355 226.814 222.355C226.814 222.355 226.169 217.106 225.318 215.452C224.74 214.355 223.614 210.235 222.918 207.577C222.563 206.213 222.318 205.232 222.318 205.232C222.318 205.232 228.279 204.732 231.895 204.558C233.556 204.477 234.724 204.468 234.589 204.603C234.453 204.739 234.418 205.461 234.424 206.506C234.44 209.213 234.818 213.974 235.218 215.255C235.769 217.029 236.321 222.352 236.085 222.868C235.85 223.384 235.927 226.813 235.927 226.813C236.334 228.206 236.568 229.644 236.624 231.094C236.75 233.663 236.705 236.237 236.489 238.8C236.489 238.8 237.079 248.387 236.921 249.294C236.763 250.2 238.182 253.042 238.182 253.594C238.182 254.145 238.576 257.894 238.576 257.894C238.576 257.894 239.421 263.603 239.447 264.035Z" fill="#FFB8B8"/>
<path d="M242.56 148.81L241.882 149.542L241.44 150.019L238.86 152.794L232.192 153.545L228.643 152.597L227.766 152.361C227.766 152.361 227.766 150.581 227.924 148.445C228.15 145.706 228.689 142.381 229.976 141.474C230.62 140.97 231.135 140.318 231.476 139.574C231.733 139.061 231.949 138.528 232.121 137.981C232.147 137.91 232.166 137.842 232.189 137.771C232.479 136.815 232.688 135.836 232.814 134.845C232.814 134.845 233.666 134.374 234.85 133.826C237.937 132.384 243.269 130.394 241.414 134.845C241.142 135.497 240.909 136.165 240.718 136.845C240.689 136.945 240.663 137.045 240.64 137.142C240.021 139.619 240.431 141.123 240.892 141.952C240.97 142.095 241.059 142.232 241.16 142.361C241.286 142.534 241.437 142.688 241.608 142.816L242.376 147.69L242.44 148.094L242.56 148.81Z" fill="#FFB8B8"/>
<path opacity="0.1" d="M241.418 135.084C241.066 135.929 241.589 134.393 241.418 135.084C240.011 136.084 236.698 138.932 234.837 138.932C233.579 138.932 233.202 138.703 232.124 138.216C232.45 137.195 232.682 136.147 232.818 135.084C232.818 135.084 243.982 128.929 241.418 135.084Z" fill="black"/>
<path d="M244.26 129.9C244.256 134.299 240.935 137.988 236.56 138.451C236.263 138.48 235.963 138.5 235.66 138.5C230.91 138.5 227.06 134.649 227.06 129.9C227.06 125.15 230.91 121.3 235.66 121.3C240.409 121.3 244.26 125.15 244.26 129.9Z" fill="#FFB8B8"/>
<path opacity="0.1" d="M245.482 168.022L244.256 171.219C244.256 171.219 243.26 171.261 241.705 171.31C236.456 171.477 224.892 171.69 224.376 170.342C224.26 170 224.199 169.642 224.195 169.28C224.127 167.226 225.085 164.071 225.085 164.071C225.085 164.071 225.637 157.758 225.637 157.484C225.637 157.21 225.163 152.787 225.163 152.787L226.111 149.239L228.753 147.384C228.753 147.384 229.937 149.2 230.647 149.355C231.356 149.51 232.305 150.384 232.305 150.384C232.305 150.384 234.631 151.803 235.382 151.013C236.134 150.222 241.969 146.751 241.969 146.751L245.047 150.145L245.482 168.022Z" fill="black"/>
<path d="M245.482 168.513L244.256 171.706C244.256 171.706 243.26 171.751 241.705 171.8H241.553C240.882 171.822 240.114 171.845 239.295 171.861C235.124 171.958 229.379 171.984 226.376 171.538C225.247 171.377 224.508 171.145 224.385 170.829C224.317 170.639 224.27 170.442 224.243 170.242C224.224 170.093 224.211 169.919 224.205 169.768C224.137 167.713 225.095 164.558 225.095 164.558C225.095 164.558 225.647 158.245 225.647 157.971C225.647 157.697 225.172 153.274 225.172 153.274L226.121 149.726L227.937 148.455L228.763 147.874C229.041 148.29 229.343 148.688 229.669 149.068C229.924 149.409 230.264 149.678 230.656 149.845C231.369 150.003 232.314 150.874 232.314 150.874C232.314 150.874 234.64 152.293 235.392 151.503C235.963 150.9 239.511 148.729 241.15 147.738C241.653 147.432 241.979 147.242 241.979 147.242L242.392 147.7L245.056 150.635L245.482 168.513Z" fill="white"/>
<path opacity="0.1" d="M203.824 135.674L200.389 138.08C200.389 138.08 200.36 137.6 200.272 136.942C201.969 136.226 203.001 134.642 203.298 134.135C203.614 134.993 203.824 135.674 203.824 135.674Z" fill="black"/>
<path d="M215.895 143.842L215.147 143.642C215.147 143.642 213.921 144.932 213.211 145.103C212.501 145.274 211.005 146.245 211.005 146.245L209.266 147.626C209.266 147.626 207.976 147.826 208.36 146.916C208.743 146.006 207.65 144.864 207.65 144.864C207.65 144.864 205.44 140.329 205.44 139.38C205.44 138.432 203.614 134.451 203.614 134.451C203.614 134.451 201.324 138.909 197.143 137.49C197.143 137.49 200.182 144.313 200.26 146.009C200.337 147.706 202.35 152.439 202.35 152.439C202.35 152.439 203.101 155.951 207.163 155.755C207.163 155.755 212.766 156.797 213.989 155.755C215.211 154.713 216.314 153.893 216.892 153.774C217.469 153.655 217.995 152.987 217.995 152.987V148.297L215.895 143.842Z" fill="#4C4981"/>
<path opacity="0.1" d="M208.872 148.297C208.872 148.297 209.86 151.968 209.227 152.361L208.872 148.297Z" fill="black"/>
<path opacity="0.1" d="M241.705 171.784C236.456 171.951 224.892 172.161 224.376 170.816C224.26 170.474 224.199 170.116 224.195 169.755L241.34 170.658L241.705 171.784Z" fill="black"/>
<path opacity="0.1" d="M242.995 204.71C242.995 204.71 242.672 205.606 242.231 206.784C240.053 206.651 237.169 206.513 234.431 206.493C233.463 206.493 232.514 206.493 231.618 206.526C229.714 206.584 228.069 206.739 227.021 207.035C225.695 207.443 224.31 207.622 222.924 207.564C222.569 206.2 222.324 205.219 222.324 205.219C222.324 205.219 228.285 204.719 231.902 204.545L232.185 202.539L242.995 204.71Z" fill="black"/>
<path d="M247.611 190.271L246.94 191.69C246.94 191.69 246.847 192.113 246.727 192.784C246.476 194.229 246.082 196.835 246.231 198.913C246.427 201.952 245.795 206.564 245.795 206.564C245.795 206.564 231.279 205.342 227.021 206.564C222.763 207.787 220.666 206.564 220.666 206.564C220.666 206.564 221.182 201.99 219.918 199.623C219.056 198.01 218.45 190.81 218.431 186.074C218.431 183.89 218.54 182.235 218.814 181.9C219.682 180.835 223.389 170.184 223.389 170.184L224.234 170.229L226.492 170.348L239.331 171.026L241.347 171.132L241.56 171.777L247.611 190.271Z" fill="#444053"/>
<path d="M254.001 185.535L254.121 186.8C254.121 186.8 247.763 184.729 248.085 182.184C248.408 179.639 248.085 179.926 248.085 179.926L253.195 180.358L254.001 185.535Z" fill="#4C4981"/>
<path opacity="0.1" d="M254.001 185.535L254.121 186.8C254.121 186.8 247.763 184.729 248.085 182.184C248.408 179.639 248.085 179.926 248.085 179.926L253.195 180.358L254.001 185.535Z" fill="black"/>
<path opacity="0.1" d="M213.114 149.316C213.764 149.868 214.529 150.266 215.353 150.481C215.114 150.429 214.893 150.318 214.708 150.158C214.253 149.835 213.821 149.484 213.382 149.142C213.027 148.864 212.585 148.403 212.15 148.29C212.435 148.665 212.758 149.008 213.114 149.316Z" fill="black"/>
<path opacity="0.1" d="M213.211 150.977C213.416 151.208 213.581 151.471 213.702 151.755C213.905 152.558 213.893 153.4 213.666 154.197L212.647 151.739C212.469 151.319 212.292 150.9 212.079 150.5C211.985 150.329 211.398 149.616 211.466 149.468C211.647 149.048 213.021 150.742 213.211 150.977Z" fill="black"/>
<path opacity="0.1" d="M241.653 164.59C242.348 164.506 242.998 164.202 243.508 163.722C242.46 163.855 241.466 164.268 240.434 164.484C239.475 164.706 238.471 164.614 237.569 164.219C238.756 164.8 240.389 164.819 241.653 164.59Z" fill="black"/>
<path opacity="0.1" d="M238.689 157.368C238.501 157.396 238.309 157.348 238.156 157.235C237.369 156.784 236.593 156.313 235.827 155.822C235.082 155.342 234.182 154.855 233.547 154.248C235.111 155.661 236.569 156.855 238.689 157.368Z" fill="black"/>
<path opacity="0.1" d="M240.876 165.735C241.289 165.754 241.703 165.721 242.108 165.635C242.518 165.55 242.88 165.313 243.121 164.971C242.975 164.937 242.821 164.961 242.692 165.039C241.442 165.565 240.069 165.729 238.731 165.513C239.373 165.787 240.195 165.732 240.876 165.735Z" fill="black"/>
<path opacity="0.1" d="M233.405 184.051C232.583 184.299 231.739 184.464 230.885 184.545C230.221 184.576 229.555 184.563 228.892 184.506L225.666 184.303L224.053 184.2C223.863 184.2 223.085 184.2 223.469 183.816C223.663 183.629 224.74 183.748 225.018 183.739C225.553 183.721 226.091 183.712 226.631 183.709C227.698 183.709 228.769 183.709 229.837 183.774C231.034 183.832 232.211 183.922 233.405 184.051Z" fill="black"/>
<path opacity="0.1" d="M229.666 185.648C229.118 185.626 228.411 185.951 227.847 186.022C227.215 186.097 226.579 186.122 225.943 186.097C224.686 186.066 223.444 185.813 222.276 185.348C224.737 185.474 227.205 185.548 229.666 185.648Z" fill="black"/>
<path opacity="0.1" d="M222.756 187.339C222.995 187.387 223.23 187.451 223.46 187.532C224.821 187.919 226.269 187.577 227.653 187.235C227.308 187.755 226.685 187.977 226.063 188.119C225.05 188.376 223.995 188.414 222.966 188.232C222.643 188.168 221.834 188.051 221.676 187.716C221.411 187.222 222.453 187.29 222.756 187.339Z" fill="black"/>
<path opacity="0.1" d="M230.389 189.884C230.797 189.967 231.2 190.075 231.595 190.206C233.127 190.587 234.718 190.064 236.256 189.713C238.106 189.293 240.003 189.117 241.898 189.19C241.56 189.19 241.021 189.487 240.689 189.587C240.253 189.719 239.811 189.842 239.369 189.951C238.502 190.164 237.621 190.339 236.734 190.464C234.943 190.723 233.131 190.802 231.324 190.7C230.498 190.655 229.066 190.739 228.36 190.322C228.97 189.96 229.683 189.806 230.389 189.884Z" fill="black"/>
<path opacity="0.1" d="M230.966 141.232C230.966 141.232 231.043 144.864 230.453 146.523C230.266 147.039 229.976 147.99 229.66 149.058C229.314 150.242 228.937 151.568 228.647 152.606C228.356 153.645 228.163 154.342 228.163 154.342C228.163 154.342 226.831 165.194 226.485 170.364C226.485 170.455 226.485 170.548 226.466 170.635C226.447 170.926 226.414 171.229 226.366 171.542C225.598 176.677 221.169 184.597 219.682 185.229C219.218 185.442 218.795 185.733 218.431 186.09C218.431 183.906 218.54 182.252 218.814 181.916C219.682 180.852 223.389 170.2 223.389 170.2L224.234 170.245C224.214 170.097 224.202 169.923 224.195 169.771C224.127 167.716 225.085 164.561 225.085 164.561C225.085 164.561 225.637 158.248 225.637 157.974C225.637 157.7 225.163 153.277 225.163 153.277L226.111 149.729L227.927 148.458C228.153 145.719 228.692 142.394 229.979 141.487C230.623 140.983 231.138 140.331 231.479 139.587C231.734 139.623 231.269 139.397 231.269 139.397L230.966 141.232Z" fill="black"/>
<path d="M231.66 139.197C230.994 138.969 230.261 139.052 229.663 139.422C228.753 140.068 226.979 140.013 226.505 139.897C226.031 139.781 221.102 139.145 220.698 139.303C220.295 139.461 219.514 138.751 219.002 139.7C218.489 140.648 218.253 141.158 217.74 141.393C217.227 141.629 216.318 142.381 216.45 142.539C216.582 142.697 215.16 143.642 215.16 143.642L218.037 152.997C218.037 152.997 216.182 164.829 215.276 165.855C214.369 166.881 206.321 180.174 209.202 182.542C211.482 184.335 213.895 185.953 216.421 187.381C216.743 187.539 217.879 185.41 219.456 184.739C221.034 184.068 225.927 175.19 226.231 170.142C226.534 165.093 227.927 153.851 227.927 153.851C227.927 153.851 229.624 147.697 230.214 146.039C230.805 144.381 230.727 140.748 230.727 140.748L231.66 139.197Z" fill="#4C4981"/>
<path opacity="0.1" d="M247.611 190.271L246.94 191.69C246.94 191.69 246.847 192.113 246.727 192.784C246.608 192.769 246.495 192.718 246.405 192.639C245.418 191.848 239.631 185.894 239.343 180.606C239.14 176.706 239.237 173.345 239.302 171.848C239.321 171.377 239.34 171.094 239.34 171.032C239.34 171.032 243.837 165.587 243.324 163.658C242.811 161.729 241.627 151.4 241.627 151.4L241.453 150.045L241.153 147.755L240.437 142.213L241.179 142.387C241.305 142.56 241.456 142.713 241.627 142.842L242.395 147.716L245.06 150.652L245.495 168.523L244.269 171.716C244.269 171.716 243.272 171.761 241.718 171.81H241.566L247.611 190.271Z" fill="black"/>
<path d="M250.095 160.771C250.095 160.771 248.992 160.335 248.914 160.771C248.837 161.206 248.637 162.148 248.637 162.148C248.637 162.148 248.834 164.439 247.992 165.345C247.15 166.251 247.024 170.077 247.024 170.077C247.024 170.077 245.695 173.864 246.324 175.048C246.553 175.477 246.908 177.629 247.263 180.21C247.489 181.822 247.711 183.593 247.908 185.213C248.266 188.155 248.534 190.59 248.534 190.59C248.534 190.59 247.821 193.193 246.834 192.403C245.847 191.613 240.06 185.658 239.776 180.371C239.582 176.658 239.66 173.432 239.724 171.842C239.75 171.168 239.776 170.787 239.776 170.787C239.776 170.787 244.272 165.342 243.76 163.41C243.247 161.477 242.063 151.151 242.063 151.151L241.856 149.555L241.634 147.839L241.582 147.461L240.869 141.977C240.995 142.006 245.421 143.006 246.005 143.59C246.589 144.174 250.198 145.01 250.198 145.01C251.307 145.31 252.165 146.19 252.437 147.306C252.472 147.416 252.498 147.532 252.524 147.651C252.998 149.942 252.847 150.216 253.169 150.613C253.492 151.01 250.095 160.771 250.095 160.771Z" fill="#4C4981"/>
<path opacity="0.1" d="M247.934 185.21C246.321 184.887 243.927 184.142 243.982 182.497C244.031 180.958 245.882 180.403 247.285 180.206C247.511 181.813 247.734 183.59 247.934 185.21Z" fill="black"/>
<path d="M252.937 184.39C252.873 184.529 252.614 184.648 252.247 184.755C251.384 184.96 250.507 185.103 249.624 185.184C249.624 185.184 244.14 184.748 244.218 182.261C244.276 180.477 246.753 180.003 248.143 179.897C248.451 179.868 248.76 179.855 249.069 179.858C249.069 179.858 253.173 183.88 252.937 184.39Z" fill="#AE6E79"/>
<path opacity="0.1" d="M252.937 184.39C252.872 184.529 252.614 184.648 252.247 184.755C250.818 182.842 248.824 180.387 247.847 180.171L248.143 179.897C248.451 179.868 248.76 179.855 249.069 179.858C249.069 179.858 253.172 183.88 252.937 184.39Z" fill="black"/>
<path d="M251.556 150.348L253.169 150.587C253.752 151.613 254.398 152.601 255.105 153.545C255.538 154.084 255.787 154.748 255.814 155.438C255.814 155.438 258.182 158.948 258.931 159.342C259.679 159.735 260.824 162.419 260.824 162.419C260.824 162.419 262.679 163.642 262.679 165.022C262.712 166.174 262.83 167.321 263.034 168.455C263.076 168.651 262.76 171.1 261.969 172.326C261.179 173.551 260.389 176.255 260.431 176.738C260.472 177.222 258.221 179.738 257.592 180.526C257.067 181.262 256.605 182.041 256.211 182.855L254.121 186.8C254.121 186.8 249.702 180.29 248.085 179.935C248.085 179.935 249.898 178.2 250.805 177.884C251.711 177.567 252.582 174.98 252.621 174.374C252.66 173.767 253.45 171.809 254.276 171.471C255.102 171.132 255.54 170.761 255.185 170.206C254.831 169.651 255.185 168.593 255.185 168.593C255.185 168.593 252.856 165.516 252.54 163.755C252.224 161.993 250.095 160.797 250.095 160.797L248.872 157.797L251.556 150.348Z" fill="#4C4981"/>
<path opacity="0.1" d="M257.424 165.074C258.317 164.32 259.44 163.895 260.608 163.868C259.86 163.997 259.073 164.161 258.524 164.684C258.309 164.91 258.115 165.156 257.947 165.419C257.76 165.687 256.237 167.623 256.011 167.316C255.634 166.868 257.118 165.335 257.424 165.074Z" fill="black"/>
<path opacity="0.1" d="M253.85 163.206C254.342 163.164 254.772 162.859 254.976 162.41C255.168 161.965 255.287 161.492 255.327 161.01C255.443 160.202 255.605 159.402 255.814 158.613C255.942 158.297 255.917 157.94 255.747 157.645C255.66 157.393 255.543 157.153 255.398 156.929C255.108 157.252 255.024 158.003 254.905 158.435C254.756 158.971 254.621 159.51 254.492 160.048C254.424 160.306 253.889 163.206 253.85 163.206Z" fill="black"/>
<path opacity="0.1" d="M252.453 147.28C252.294 147.488 252.111 147.677 251.908 147.842C251.263 148.355 250.408 148.787 250.327 149.597C250.35 149.86 250.317 150.124 250.231 150.374C250.024 150.729 249.518 150.697 249.114 150.629C248.774 150.598 248.448 150.478 248.169 150.28C247.747 149.919 247.708 149.274 247.385 148.819C246.988 148.343 246.392 148.08 245.772 148.106C245.169 148.087 244.569 148.222 243.966 148.248C243.578 148.268 243.19 148.242 242.808 148.171C242.682 148.151 242.557 148.126 242.434 148.093C242.164 148.027 241.901 147.937 241.647 147.826C241.515 147.773 241.387 147.713 241.263 147.645C240.859 147.438 240.485 147.177 240.15 146.871C239.56 146.329 239.069 145.58 239.118 144.777C239.147 144.284 239.369 143.829 239.44 143.342C239.682 141.948 238.756 140.632 237.753 139.635C237.353 139.238 236.927 138.855 236.527 138.451C235.904 137.877 235.413 137.175 235.085 136.393C234.816 135.561 234.728 134.681 234.827 133.813C234.918 132.932 234.943 132.046 234.902 131.161C234.605 128.026 231.927 125.622 229.25 124.316L229.131 124.255C231.298 121.767 234.698 120.74 237.88 121.61C241.062 122.48 243.466 125.095 244.065 128.339C244.665 131.583 243.356 134.885 240.695 136.835C240.666 136.935 240.64 137.035 240.618 137.132C239.998 139.609 240.408 141.113 240.869 141.942C240.995 141.971 245.421 142.971 246.005 143.555C246.589 144.138 250.198 144.974 250.198 144.974C251.316 145.271 252.181 146.156 252.453 147.28Z" fill="black"/>
<path d="M228.563 121.98C228.74 121.777 229.008 121.674 229.189 121.477C229.747 120.871 229.189 119.88 229.392 119.08C229.611 118.193 230.702 117.806 231.611 117.9C232.521 117.993 233.373 118.413 234.282 118.516C235.695 118.674 237.063 118.061 238.44 117.703C239.818 117.345 241.482 117.326 242.431 118.38C243.379 119.435 243.314 121.232 244.495 121.997C245.04 122.348 245.727 122.387 246.318 122.642C246.964 122.973 247.499 123.485 247.86 124.116C248.794 125.584 249.206 127.324 249.027 129.055C248.927 129.99 248.656 130.9 248.547 131.835C248.435 132.807 248.501 133.79 248.74 134.739C248.989 135.706 249.527 136.751 250.492 137.061C250.715 137.11 250.931 137.185 251.137 137.284C251.695 137.632 251.621 138.451 251.479 139.09L250.905 141.739C251.456 142.158 252.314 141.977 252.84 142.419C253.051 142.612 253.207 142.857 253.292 143.129C253.823 144.645 253.362 146.332 252.134 147.368C251.489 147.88 250.634 148.313 250.553 149.119C250.578 149.382 250.545 149.648 250.456 149.897C250.253 150.251 249.743 150.219 249.34 150.151C249.001 150.12 248.676 150 248.398 149.803C247.973 149.442 247.937 148.797 247.614 148.342C247.217 147.867 246.621 147.603 246.002 147.629C245.395 147.61 244.798 147.745 244.192 147.774C242.793 147.831 241.428 147.338 240.389 146.4C239.795 145.855 239.308 145.11 239.353 144.303C239.382 143.813 239.605 143.355 239.676 142.868C239.914 141.477 238.992 140.158 237.989 139.161C236.985 138.164 235.808 137.245 235.318 135.919C234.705 134.277 235.298 132.445 235.134 130.703C234.837 127.564 232.163 125.164 229.482 123.855C228.885 123.548 227.869 122.771 228.563 121.98Z" fill="#444053"/>
<path opacity="0.1" d="M249.66 149.071C249.234 148.706 249.198 148.064 248.876 147.61C248.478 147.134 247.882 146.87 247.263 146.893C246.656 146.874 246.056 147.01 245.453 147.039C244.049 147.1 242.678 146.605 241.637 145.661C241.043 145.119 240.56 144.371 240.605 143.568C240.634 143.074 240.856 142.616 240.927 142.132C241.169 140.739 240.243 139.419 239.24 138.422C238.237 137.426 237.063 136.506 236.569 135.18C235.96 133.542 236.569 131.71 236.389 129.964C236.089 126.826 233.414 124.426 230.737 123.116C230.111 122.81 229.095 122.032 229.789 121.242C229.963 121.039 230.231 120.935 230.411 120.739C230.969 120.135 230.411 119.142 230.618 118.345C230.657 118.186 230.726 118.036 230.821 117.903C230.147 118.029 229.531 118.41 229.366 119.055C229.169 119.855 229.721 120.845 229.163 121.451C228.982 121.648 228.714 121.751 228.537 121.951C227.843 122.742 228.86 123.522 229.485 123.826C232.166 125.135 234.84 127.539 235.137 130.674C235.302 132.419 234.708 134.251 235.321 135.893C235.811 137.216 236.989 138.151 237.992 139.135C238.995 140.119 239.927 141.448 239.679 142.842C239.543 143.313 239.435 143.793 239.356 144.277C239.311 145.08 239.798 145.829 240.392 146.371C241.431 147.315 242.802 147.81 244.205 147.748C244.811 147.719 245.408 147.587 246.014 147.603C246.634 147.58 247.229 147.844 247.627 148.319C247.95 148.774 247.985 149.419 248.411 149.78C248.689 149.976 249.014 150.095 249.353 150.126C249.756 150.2 250.266 150.226 250.469 149.874C250.542 149.731 250.573 149.57 250.56 149.41C250.235 149.378 249.925 149.261 249.66 149.071Z" fill="black"/>
<path fill-rule="evenodd" clip-rule="evenodd" d="M199.714 62.9845C190.787 69.9059 180.711 77.7174 180.711 96.7482H202.363C202.363 85.2992 209.954 78.6662 217.795 71.8139C226.173 64.4932 234.837 56.9223 234.837 42.9611C234.837 19.0805 215.453 -0.000180265 191.537 -0.000180265C180.047 -0.0199187 169.022 4.53569 160.897 12.6603C152.773 20.7849 148.217 31.8099 148.237 43.2998H169.889C169.889 31.7998 179.63 21.5159 191.537 21.5159C203.443 21.5159 213.189 31.0547 213.189 42.9611C213.189 52.5374 206.814 57.4794 199.714 62.9845ZM180.389 129.9H202.701L202.718 107.913H180.389V129.9Z" fill="#347CFF"/>
<path opacity="0.1" fill-rule="evenodd" clip-rule="evenodd" d="M90.6429 106.1C88.3423 107.885 85.7467 109.899 85.7467 114.803H91.3273V114.79C91.3273 111.838 93.2858 110.128 95.31 108.361C97.4706 106.475 99.7061 104.523 99.7144 100.926C99.5898 94.8328 94.6026 89.9656 88.5087 89.9893C82.4147 90.0131 77.4657 94.9191 77.3886 101.013H82.9693C83.0153 97.9494 85.4743 95.4705 88.537 95.3997C90.0108 95.3929 91.4269 95.972 92.4736 97.0096C93.5202 98.0472 94.1117 99.4582 94.1176 100.932C94.1176 103.404 92.4737 104.679 90.6429 106.1ZM85.6596 117.667V123.351H91.4144V117.667H85.6596Z" fill="#347CFF"/>
<path opacity="0.1" fill-rule="evenodd" clip-rule="evenodd" d="M134.221 145.589C131.92 147.373 129.324 149.387 129.324 154.293H134.905C134.905 151.344 136.859 149.633 138.878 147.867C141.036 145.979 143.268 144.026 143.263 140.426C143.138 134.333 138.151 129.466 132.057 129.489C125.963 129.513 121.014 134.419 120.937 140.513H126.518C126.561 137.436 129.038 134.949 132.114 134.893C133.588 134.886 135.004 135.464 136.051 136.501C137.098 137.538 137.689 138.949 137.695 140.422C137.695 142.894 136.051 144.169 134.221 145.589ZM129.234 162.838H134.989V157.171H129.234V162.838Z" fill="#347CFF"/>
<path opacity="0.1" fill-rule="evenodd" clip-rule="evenodd" d="M160.929 80.4324C159.261 81.7257 157.379 83.1851 157.379 86.7386H161.424C161.424 84.5998 162.842 83.3603 164.306 82.0795C165.871 80.7119 167.488 79.2972 167.492 76.6902C167.48 73.7998 165.928 71.1351 163.419 69.6999C160.91 68.2647 157.826 68.277 155.328 69.7322C152.831 71.1873 151.3 73.8643 151.311 76.7547H155.356C155.387 74.5293 157.176 72.7288 159.401 72.6838C160.469 72.6786 161.495 73.0978 162.254 73.8492C163.012 74.6005 163.442 75.6225 163.447 76.6902C163.447 78.4797 162.255 79.4034 160.929 80.4324ZM157.314 92.9354H161.485V88.8354H157.314V92.9354Z" fill="#347CFF"/>
<path opacity="0.1" fill-rule="evenodd" clip-rule="evenodd" d="M230.389 95.2225H232.689C232.689 94.0131 233.491 93.3095 234.318 92.5843C235.201 91.8105 236.111 91.0121 236.105 89.5484C236.03 87.07 233.994 85.1025 231.515 85.1121C229.035 85.1217 227.015 87.105 226.96 89.5838H229.247C229.266 88.3265 230.277 87.3098 231.534 87.2838C232.137 87.2769 232.718 87.5118 233.147 87.936C233.576 88.3602 233.818 88.9385 233.818 89.5419C233.818 90.554 233.144 91.0764 232.394 91.6582C231.452 92.3893 230.389 93.2143 230.389 95.2225ZM230.366 98.7225H232.724V96.4H230.366V98.7225Z" fill="#347CFF"/>
<path opacity="0.1" fill-rule="evenodd" clip-rule="evenodd" d="M266.453 200.858H268.74H268.753C268.753 199.65 269.554 198.949 270.38 198.227C271.263 197.454 272.176 196.656 272.169 195.184C272.095 192.705 270.059 190.738 267.579 190.747C265.1 190.757 263.08 192.74 263.024 195.219H265.311C265.328 193.961 266.34 192.943 267.598 192.919C268.853 192.912 269.877 193.922 269.885 195.177C269.885 196.189 269.212 196.711 268.461 197.292C267.518 198.023 266.453 198.847 266.453 200.858ZM266.418 204.358H268.776V202.035H266.418V204.358Z" fill="#347CFF"/>
<defs>
<linearGradient id="paint0_linear" x1="263.994" y1="268.403" x2="263.994" y2="117.193" gradientUnits="userSpaceOnUse">
<stop stop-color="#808080" stop-opacity="0.25"/>
<stop offset="0.54" stop-color="#808080" stop-opacity="0.12"/>
<stop offset="1" stop-color="#808080" stop-opacity="0.1"/>
</linearGradient>
</defs>
</svg>
