<svg width="327" height="273" viewBox="0 0 327 273" fill="none" xmlns="http://www.w3.org/2000/svg">
<path d="M134.657 64.7346H133.179V24.245C133.179 18.0299 130.71 12.0693 126.316 7.6745C121.921 3.27972 115.96 0.810772 109.745 0.810791H23.9626C17.7475 0.810772 11.7868 3.27972 7.39206 7.6745C2.99727 12.0693 0.528311 18.0299 0.52832 24.2451V246.374C0.528314 252.589 2.99728 258.549 7.39206 262.944C11.7868 267.339 17.7475 269.808 23.9626 269.808H109.745C115.96 269.808 121.921 267.339 126.316 262.944C130.71 258.549 133.179 252.589 133.179 246.374V93.5557H134.657V64.7346Z" fill="#2F2E41"/>
<path d="M110.691 6.90759H99.4932C100.539 9.47132 100.24 12.3874 98.6953 14.6854C97.1509 16.9835 94.5639 18.3619 91.7952 18.3621H42.6515C39.8827 18.3619 37.2957 16.9835 35.7513 14.6854C34.2069 12.3874 33.9078 9.47132 34.9534 6.90759H24.495C19.8536 6.90759 15.4023 8.75137 12.1203 12.0333C8.83837 15.3153 6.99457 19.7666 6.99457 24.408V246.211C6.99457 250.852 8.83836 255.303 12.1203 258.585C15.4023 261.867 19.8536 263.711 24.495 263.711H110.691C115.332 263.711 119.783 261.867 123.065 258.585C126.347 255.303 128.191 250.852 128.191 246.211V24.408C128.191 19.7666 126.347 15.3153 123.065 12.0333C119.783 8.75137 115.332 6.90759 110.691 6.90759Z" fill="#575A89"/>
<path d="M42.198 51.9977H37.0515C36.6747 51.9977 36.3692 52.3032 36.3692 52.68V54.9389C36.3692 55.3158 36.6747 55.6213 37.0515 55.6213H37.9044V59.0059H41.3451V55.6213H42.198C42.5748 55.6213 42.8803 55.3158 42.8803 54.9389V52.68C42.8803 52.3032 42.5748 51.9977 42.198 51.9977V51.9977Z" fill="#E6E6E6"/>
<path d="M47.3528 72.6715C44.2009 68.0595 42.5896 62.5682 42.7497 56.9844C42.7556 56.7187 42.5734 56.4857 42.3141 56.4275V55.4514H36.8788V56.4139H36.8039C36.4959 56.4143 36.2465 56.6644 36.2469 56.9724C36.2469 56.9859 36.2474 56.9994 36.2484 57.013C36.6766 62.982 35.2307 68.335 31.9106 73.0718C31.7195 73.344 31.6219 73.6709 31.6324 74.0033L32.2267 92.3876C32.2564 93.2396 32.9522 93.9168 33.8046 93.9236H46.0986C46.9615 93.9166 47.6617 93.2233 47.6774 92.3605L47.9064 74.5108C47.9132 73.8557 47.7201 73.214 47.3528 72.6715Z" fill="#E6E6E6"/>
<path d="M45.4066 78.7782H34.7056C34.3851 78.7782 34.0805 78.9182 33.8718 79.1615C33.6631 79.4048 33.571 79.7271 33.6198 80.0439L35.2368 90.5548H44.5223L46.4864 80.0793C46.5466 79.7581 46.4607 79.4267 46.252 79.1752C46.0433 78.9237 45.7334 78.7782 45.4066 78.7782Z" fill="white"/>
<path d="M99.4882 107.07H94.3417C93.9649 107.07 93.6594 107.376 93.6594 107.753V110.011C93.6594 110.388 93.9649 110.694 94.3417 110.694H95.1946V114.078H98.6354V110.694H99.4882C99.8651 110.694 100.171 110.388 100.171 110.011V107.752C100.171 107.376 99.865 107.07 99.4882 107.07V107.07Z" fill="#E6E6E6"/>
<path d="M104.643 127.744C101.491 123.132 99.8798 117.641 100.04 112.057C100.046 111.791 99.8636 111.558 99.6043 111.5V110.524H94.1689V111.486H94.0941C93.9461 111.487 93.8044 111.546 93.6999 111.65C93.5954 111.755 93.5369 111.897 93.5371 112.045C93.5371 112.058 93.5376 112.072 93.5386 112.085C93.9668 118.055 92.5209 123.407 89.2007 128.144C89.0097 128.417 88.9121 128.743 88.9226 129.076L89.5169 147.46C89.5466 148.312 90.2423 148.989 91.0948 148.996H103.389C104.252 148.989 104.952 148.296 104.968 147.433L105.197 129.583C105.203 128.928 105.01 128.287 104.643 127.744Z" fill="#E6E6E6"/>
<path d="M102.697 133.851H91.9959C91.6753 133.851 91.3708 133.991 91.162 134.234C90.9533 134.477 90.8613 134.799 90.91 135.116L92.5271 145.627H101.812L103.777 135.152C103.837 134.83 103.751 134.499 103.542 134.248C103.333 133.996 103.024 133.851 102.697 133.851L102.697 133.851Z" fill="white"/>
<path d="M34.9627 184.927H32.5215C32.3428 184.927 32.1979 185.071 32.1979 185.25V186.322C32.1979 186.5 32.3428 186.645 32.5215 186.645H32.9261V188.251H34.5582V186.645H34.9627C35.1415 186.645 35.2864 186.5 35.2864 186.322V185.25C35.2864 185.071 35.1415 184.927 34.9627 184.927Z" fill="#E6E6E6"/>
<path d="M37.4079 194.733C35.9128 192.545 35.1485 189.941 35.2244 187.292C35.2272 187.166 35.1408 187.055 35.0178 187.028V186.565H32.4396V187.021H32.404C32.3339 187.021 32.2666 187.049 32.2171 187.099C32.1675 187.149 32.1397 187.216 32.1398 187.286C32.1398 187.293 32.1401 187.299 32.1406 187.305C32.3785 190.008 31.6494 192.708 30.0829 194.923C29.9923 195.052 29.946 195.207 29.951 195.365L30.2329 204.085C30.247 204.489 30.577 204.811 30.9813 204.814H36.8129C37.2223 204.81 37.5544 204.482 37.5618 204.072L37.6705 195.605C37.6737 195.295 37.5821 194.99 37.4079 194.733Z" fill="#E6E6E6"/>
<rect x="31.0043" y="197.939" width="5.56429" height="2.78215" fill="white"/>
<path d="M46.3266 184.927H43.8854C43.7066 184.927 43.5617 185.071 43.5617 185.25V186.322C43.5617 186.5 43.7066 186.645 43.8854 186.645H44.2899V188.251H45.922V186.645H46.3266C46.5053 186.645 46.6502 186.5 46.6502 186.322V185.25C46.6502 185.071 46.5053 184.927 46.3266 184.927Z" fill="#E6E6E6"/>
<path d="M48.7717 194.733C47.2767 192.545 46.5124 189.941 46.5883 187.292C46.5911 187.166 46.5047 187.055 46.3817 187.028V186.565H43.8035V187.021H43.7679C43.6978 187.021 43.6305 187.049 43.581 187.099C43.5314 187.149 43.5036 187.216 43.5037 187.286C43.5037 187.293 43.504 187.299 43.5045 187.305C43.7424 190.008 43.0133 192.708 41.4468 194.923C41.3562 195.052 41.3099 195.207 41.3149 195.365L41.5968 204.085C41.6109 204.489 41.9409 204.811 42.3452 204.814H48.1768C48.5862 204.81 48.9183 204.482 48.9257 204.072L49.0344 195.605C49.0376 195.295 48.946 194.99 48.7717 194.733Z" fill="#E6E6E6"/>
<rect x="42.3682" y="197.939" width="5.56429" height="2.78215" fill="white"/>
<path d="M57.6905 184.927H55.2493C55.0705 184.927 54.9256 185.071 54.9256 185.25V186.322C54.9256 186.5 55.0705 186.645 55.2493 186.645H55.6538V188.251H57.2859V186.645H57.6905C57.8692 186.645 58.0141 186.5 58.0141 186.322V185.25C58.0141 185.071 57.8692 184.927 57.6905 184.927Z" fill="#E6E6E6"/>
<path d="M60.1356 194.733C58.6406 192.545 57.8763 189.941 57.9522 187.292C57.955 187.166 57.8686 187.055 57.7456 187.028V186.565H55.1674V187.021H55.1318C55.0617 187.021 54.9944 187.049 54.9449 187.099C54.8953 187.149 54.8675 187.216 54.8676 187.286C54.8676 187.293 54.8679 187.299 54.8684 187.305C55.1063 190.008 54.3771 192.708 52.8107 194.923C52.7201 195.052 52.6738 195.207 52.6788 195.365L52.9607 204.085C52.9747 204.489 53.3048 204.811 53.7091 204.814H59.5407C59.95 204.81 60.2822 204.482 60.2896 204.072L60.3983 195.605C60.4015 195.295 60.3099 194.99 60.1356 194.733Z" fill="#E6E6E6"/>
<rect x="53.7321" y="197.939" width="5.56429" height="2.78215" fill="white"/>
<path d="M90.5476 163.621H85.4011C85.2202 163.621 85.0466 163.693 84.9187 163.821C84.7907 163.949 84.7188 164.122 84.7188 164.303V166.562C84.7188 166.939 85.0243 167.245 85.4011 167.245H86.254V170.629H89.6948V167.245H90.5476C90.9244 167.245 91.2299 166.939 91.2299 166.562V164.303C91.2299 164.122 91.158 163.949 91.0301 163.821C90.9021 163.693 90.7286 163.621 90.5476 163.621Z" fill="#E6E6E6"/>
<path d="M95.7023 184.295C92.5504 179.683 90.9392 174.192 91.0993 168.608C91.1052 168.342 90.9229 168.109 90.6637 168.051V167.075H85.2283V168.037H85.1534C85.0055 168.038 84.8637 168.097 84.7593 168.201C84.6548 168.306 84.5963 168.448 84.5965 168.596C84.5965 168.609 84.597 168.623 84.598 168.636C85.0262 174.606 83.5802 179.959 80.2601 184.695C80.0691 184.968 79.9715 185.294 79.982 185.627L80.5763 204.011C80.606 204.863 81.3017 205.54 82.1542 205.547H94.4481C95.3111 205.54 96.0113 204.847 96.027 203.984L96.256 186.134C96.2628 185.479 96.0696 184.838 95.7023 184.295Z" fill="#E6E6E6"/>
<path d="M93.7561 190.402H83.0552C82.7346 190.402 82.4301 190.542 82.2214 190.785C82.0126 191.028 81.9206 191.35 81.9693 191.667L83.5864 202.178H92.8718L94.836 191.703C94.8962 191.381 94.8103 191.05 94.6015 190.799C94.3928 190.547 94.083 190.402 93.7561 190.402Z" fill="white"/>
<path d="M93.3572 96.2902H62.6792C64.824 84.6942 64.3306 70.6916 62.6792 55.6327H93.3572C91.7497 70.6916 91.2694 84.6942 93.3572 96.2902Z" fill="#E6E6E6"/>
<path d="M78.203 82.245C82.2857 82.245 85.5953 78.9354 85.5953 74.8527C85.5953 70.7701 82.2857 67.4604 78.203 67.4604C74.1204 67.4604 70.8107 70.7701 70.8107 74.8527C70.8107 78.9354 74.1204 82.245 78.203 82.245Z" fill="white"/>
<path d="M65.2665 150.254H34.5886C36.7334 138.658 36.2399 124.655 34.5886 109.596H65.2665C63.6591 124.655 63.1787 138.658 65.2665 150.254Z" fill="#E6E6E6"/>
<path d="M50.1123 136.209C54.195 136.209 57.5046 132.899 57.5046 128.816C57.5046 124.734 54.195 121.424 50.1123 121.424C46.0297 121.424 42.72 124.734 42.72 128.816C42.72 132.899 46.0297 136.209 50.1123 136.209Z" fill="white"/>
<path d="M110.729 98.8776H80.0511C82.1959 87.2816 81.7025 73.279 80.0511 58.2201H110.729C109.122 73.279 108.641 87.2816 110.729 98.8776Z" fill="#E6E6E6"/>
<path d="M95.5749 84.8323C99.6575 84.8323 102.967 81.5227 102.967 77.44C102.967 73.3574 99.6575 70.0477 95.5749 70.0477C91.4923 70.0477 88.1826 73.3574 88.1826 77.44C88.1826 81.5227 91.4923 84.8323 95.5749 84.8323Z" fill="white"/>
<path d="M110.729 97.0295H80.0511C82.1959 85.4334 81.7025 71.4308 80.0511 56.3719H110.729C109.122 71.4309 108.641 85.4335 110.729 97.0295Z" fill="#E6E6E6"/>
<path d="M95.5749 82.9841C99.6575 82.9841 102.967 79.6745 102.967 75.5919C102.967 71.5092 99.6575 68.1996 95.5749 68.1996C91.4923 68.1996 88.1826 71.5092 88.1826 75.5919C88.1826 79.6745 91.4923 82.9841 95.5749 82.9841Z" fill="white"/>
<path d="M110.729 98.8776H80.0511C82.1959 87.2816 81.7025 73.279 80.0511 58.2201H110.729C109.122 73.279 108.641 87.2816 110.729 98.8776Z" fill="#E6E6E6"/>
<path d="M95.5749 84.8323C99.6575 84.8323 102.967 81.5227 102.967 77.44C102.967 73.3574 99.6575 70.0477 95.5749 70.0477C91.4923 70.0477 88.1826 73.3574 88.1826 77.44C88.1826 81.5227 91.4923 84.8323 95.5749 84.8323Z" fill="white"/>
<rect x="17.2167" y="94.0726" width="100.535" height="11.0884" fill="#E6E6E6"/>
<rect x="17.2167" y="149.145" width="100.535" height="11.0884" fill="#E6E6E6"/>
<rect x="17.2167" y="204.218" width="100.535" height="11.0884" fill="#E6E6E6"/>
<path d="M292.637 249.203L267.59 231.488C276.038 223.259 283.721 211.542 291.068 198.294L316.114 216.009C306.106 227.375 297.628 238.53 292.637 249.203Z" fill="#0091FF"/>
<path d="M292.644 230.342C296.726 230.342 300.036 227.033 300.036 222.95C300.036 218.867 296.726 215.558 292.644 215.558C288.561 215.558 285.251 218.867 285.251 222.95C285.251 227.033 288.561 230.342 292.644 230.342Z" fill="white"/>
<path d="M171.816 168.365H169.067C168.865 168.365 168.702 168.528 168.702 168.729V169.936C168.702 170.033 168.74 170.126 168.809 170.194C168.877 170.262 168.97 170.301 169.067 170.301H169.522V172.109H171.36V170.301H171.816C172.017 170.301 172.18 170.138 172.18 169.936V168.729C172.18 168.528 172.017 168.365 171.816 168.365Z" fill="#E6E6E6"/>
<path d="M174.57 179.409C172.886 176.945 172.025 174.012 172.111 171.029C172.114 170.887 172.016 170.763 171.878 170.731V170.21H168.974V170.724H168.934C168.855 170.724 168.78 170.756 168.724 170.812C168.668 170.868 168.637 170.943 168.637 171.022C168.637 171.03 168.637 171.037 168.638 171.044C168.906 174.088 168.084 177.128 166.32 179.623C166.218 179.768 166.166 179.943 166.172 180.121L166.489 189.942C166.505 190.397 166.877 190.759 167.332 190.762H173.9C174.361 190.759 174.735 190.388 174.743 189.927L174.865 180.392C174.869 180.042 174.766 179.699 174.57 179.409Z" fill="#0091FF"/>
<path opacity="0.2" d="M171.243 168.758C171.243 169.193 170.891 169.545 170.456 169.545C170.022 169.545 169.67 169.193 169.67 168.758" fill="black"/>
<rect x="167.746" y="181.302" width="5.54421" height="3.69614" fill="white"/>
<path d="M258.819 206.732H253.673C253.296 206.732 252.99 207.038 252.99 207.415V209.674C252.99 210.051 253.296 210.356 253.673 210.356H254.526V213.741H257.966V210.356H258.819C259.196 210.356 259.502 210.051 259.502 209.674V207.415C259.502 207.038 259.196 206.732 258.819 206.732V206.732Z" fill="#E6E6E6"/>
<path d="M263.974 227.406C260.822 222.794 259.211 217.303 259.371 211.719C259.377 211.453 259.195 211.22 258.935 211.162V210.186H253.5V211.149H253.425C253.277 211.149 253.135 211.208 253.031 211.312C252.926 211.417 252.868 211.559 252.868 211.707C252.868 211.721 252.869 211.734 252.87 211.748C253.298 217.717 251.852 223.07 248.532 227.806C248.341 228.079 248.243 228.405 248.254 228.738L248.848 247.122C248.878 247.974 249.573 248.651 250.426 248.658H262.72C263.583 248.651 264.283 247.958 264.299 247.095L264.528 229.245C264.534 228.59 264.341 227.949 263.974 227.406Z" fill="#0091FF"/>
<path opacity="0.2" d="M257.746 207.468C257.746 208.281 257.087 208.94 256.274 208.94C255.461 208.94 254.802 208.281 254.802 207.468" fill="black"/>
<path d="M262.028 233.513H251.327C251.006 233.513 250.702 233.653 250.493 233.896C250.284 234.14 250.192 234.462 250.241 234.779L251.858 245.29H261.143L263.108 234.814C263.168 234.493 263.082 234.161 262.873 233.91C262.664 233.658 262.355 233.513 262.028 233.513V233.513Z" fill="white"/>
<path d="M244.136 249.174H213.458C215.602 237.578 215.109 223.575 213.458 208.516H244.136C242.528 223.575 242.048 237.578 244.136 249.174Z" fill="#0091FF"/>
<path d="M228.981 235.129C233.064 235.129 236.374 231.819 236.374 227.736C236.374 223.654 233.064 220.344 228.981 220.344C224.899 220.344 221.589 223.654 221.589 227.736C221.589 231.819 224.899 235.129 228.981 235.129Z" fill="white"/>
<path d="M118.655 121.219L125.542 120.593L129.925 109.95L122.099 105.567L118.655 121.219Z" fill="#FFB8B8"/>
<path d="M181.859 150.438C182.324 149.279 182.203 147.968 181.535 146.914C180.867 145.859 179.732 145.191 178.486 145.116L167.793 144.479L166.219 149.714L177.227 152.737C179.131 153.26 181.124 152.271 181.859 150.438Z" fill="#FFB8B8"/>
<path d="M170.378 152.825L170.26 143.001L146.508 139.211L128.211 118.226C126.242 115.968 122.907 115.512 120.405 117.158C118.921 118.134 117.947 119.718 117.746 121.482C117.544 123.246 118.136 125.009 119.361 126.294L134.457 144.871L170.378 152.825Z" fill="#0091FF"/>
<path d="M113.333 263.341H119.594L135.124 193.129L151.212 214.819L160.603 261.776H166.551L165.299 211.376L144.325 157.532H123.664C118.018 167.75 113.589 178.283 118.655 189.149L113.333 263.341Z" fill="#2F2E41"/>
<path d="M156.765 267.606C156.625 268.054 156.684 268.54 156.928 268.942C157.172 269.343 157.577 269.62 158.039 269.702L173.36 272.421C174.612 272.65 175.839 271.908 176.219 270.693C176.588 269.534 176.071 268.278 174.994 267.714C171.625 265.985 168.726 263.464 166.545 260.369C164.861 261.937 162.979 261.789 160.981 260.634L158.861 260.899L156.765 267.606Z" fill="#2F2E41"/>
<path d="M110.434 267.606C110.294 268.054 110.354 268.54 110.598 268.942C110.842 269.343 111.246 269.62 111.709 269.702L127.029 272.421C128.282 272.65 129.509 271.908 129.889 270.693C130.257 269.534 129.741 268.278 128.663 267.714C125.295 265.985 122.396 263.464 120.214 260.369C118.531 261.937 116.649 261.789 114.65 260.634L112.53 260.899L110.434 267.606Z" fill="#2F2E41"/>
<path d="M130.081 113.862C134.922 113.862 138.846 109.938 138.846 105.097C138.846 100.256 134.922 96.3319 130.081 96.3319C125.24 96.3319 121.316 100.256 121.316 105.097C121.316 109.938 125.24 113.862 130.081 113.862Z" fill="#FFB8B8"/>
<path d="M122.255 159.88L145.107 159.254L138.396 138.132C142.567 131.446 138.369 124.766 132.429 118.089L127.733 114.958L120.22 114.332C116.967 117.813 115.188 122.417 115.254 127.181C115.402 137.381 117.208 148.486 122.255 159.88Z" fill="#0091FF"/>
<path d="M174.759 174.097C175.642 173.215 176.047 171.962 175.847 170.73C175.648 169.497 174.868 168.436 173.751 167.878L164.171 163.085L160.664 167.279L169.595 174.389C171.14 175.619 173.362 175.493 174.759 174.097Z" fill="#FFB8B8"/>
<path d="M163.264 171.776L167.02 162.697L146.675 149.869L138.108 123.378C137.186 120.527 134.3 118.796 131.351 119.325C129.603 119.639 128.085 120.712 127.206 122.255C126.327 123.797 126.177 125.651 126.798 127.314L133.368 150.332L163.264 171.776Z" fill="#0091FF"/>
<path d="M115.681 101.654C115.681 105.064 117.896 110.346 120.69 112.61C122.57 114.134 125.054 114.069 126.012 111.984C126.994 109.845 130.381 104.817 136.342 101.654C144.289 97.4371 133.524 90.2233 126.012 91.3232C120.367 92.1498 115.681 95.9483 115.681 101.654Z" fill="#2F2E41"/>
<path d="M121.003 96.958C124.461 96.958 127.264 94.1549 127.264 90.6972C127.264 87.2394 124.461 84.4363 121.003 84.4363C117.545 84.4363 114.742 87.2394 114.742 90.6972C114.742 94.1549 117.545 96.958 121.003 96.958Z" fill="#2F2E41"/>
<path d="M128.203 88.5059C128.202 85.2318 125.677 82.5124 122.412 82.2687C122.567 82.2571 122.723 82.245 122.881 82.245C126.339 82.245 129.142 85.0481 129.142 88.5059C129.142 91.9637 126.339 94.7668 122.881 94.7668C122.723 94.7668 122.567 94.7546 122.412 94.743C125.677 94.4994 128.202 91.7799 128.203 88.5059Z" fill="#2F2E41"/>
<path d="M130.238 108.228C131.016 108.228 131.646 107.387 131.646 106.349C131.646 105.312 131.016 104.471 130.238 104.471C129.46 104.471 128.829 105.312 128.829 106.349C128.829 107.387 129.46 108.228 130.238 108.228Z" fill="#FFB8B8"/>
<path d="M307.628 251.859H210.166L189.527 154.294H171.914V149.917H193.076L213.714 247.481H307.628V251.859Z" fill="#3F3D56"/>
<path d="M224.448 269.683C229.63 269.683 233.83 265.483 233.83 260.302C233.83 255.121 229.63 250.921 224.448 250.921C219.267 250.921 215.067 255.121 215.067 260.302C215.067 265.483 219.267 269.683 224.448 269.683Z" fill="#3F3D56"/>
<path d="M294.495 269.683C299.676 269.683 303.876 265.483 303.876 260.302C303.876 255.121 299.676 250.921 294.495 250.921C289.314 250.921 285.114 255.121 285.114 260.302C285.114 265.483 289.314 269.683 294.495 269.683Z" fill="#3F3D56"/>
<path fill-rule="evenodd" clip-rule="evenodd" d="M211.026 249.797H305.851C308.068 249.807 309.957 248.191 310.292 246L325.994 172.308C326.198 171.01 325.823 169.688 324.969 168.689C324.115 167.69 322.867 167.115 321.553 167.115H194.295L211.026 249.797ZM305.851 248.546H212.056L195.813 168.366H321.553C322.501 168.366 323.402 168.781 324.019 169.502C324.635 170.223 324.905 171.177 324.758 172.114L309.056 245.805C308.815 247.387 307.451 248.553 305.851 248.546Z" fill="#3F3D56"/>
<path d="M229.46 249.533L218.503 167.843L219.737 167.639L230.694 249.329L229.46 249.533Z" fill="#3F3D56"/>
<path d="M290.385 248.906L289.15 248.705L299.787 167.641L301.022 167.841L290.385 248.906Z" fill="#3F3D56"/>
<rect x="260.107" y="167.741" width="1.25083" height="81.6901" fill="#3F3D56"/>
<path d="M200.681 190.881L200.684 189.63L321.763 189.923L321.76 191.174L200.681 190.881Z" fill="#3F3D56"/>
<path d="M206.849 228.997L313.219 228.27L313.227 229.521L206.857 230.248L206.849 228.997Z" fill="#3F3D56"/>
<path d="M173.79 155.233C177.589 155.233 180.67 153.552 180.67 151.48C180.67 149.408 177.589 147.728 173.79 147.728C169.99 147.728 166.91 149.408 166.91 151.48C166.91 153.552 169.99 155.233 173.79 155.233Z" fill="#3F3D56"/>
</svg>
