<svg width="30" height="30" viewBox="0 0 30 30" fill="none" xmlns="http://www.w3.org/2000/svg">
<g clip-path="url(#clip0)">
<path d="M27.3234 13.2917C27.3234 20.0697 21.7778 25.6153 14.9998 25.6153C14.0316 25.6153 13.1513 25.5272 12.271 25.2632L6.54934 29.1363L7.42962 23.0626C4.5248 20.774 2.67627 17.2529 2.67627 13.2918C2.67627 6.51385 8.22186 0.968262 14.9998 0.968262C21.7778 0.968262 27.3234 6.51379 27.3234 13.2917Z" fill="#FAFAFA"/>
<g opacity="0.1">
<path opacity="0.1" d="M27.0592 10.8273C24.8586 8.89076 22.0418 7.74644 18.8729 7.74644C12.0949 7.74644 6.54934 13.292 6.54934 20.07C6.54934 20.9503 6.63737 21.7424 6.81344 22.5347C4.2607 20.246 2.67627 16.9891 2.67627 13.3801C2.67627 6.60212 8.22186 1.05653 14.9998 1.05653C20.9855 0.968493 25.9149 5.19376 27.0592 10.8273Z" fill="#FAFAFA"/>
</g>
<path d="M15.0002 18.0449C14.4721 18.0449 14.1199 17.6928 14.1199 17.1646V14.2598C14.1199 13.7317 14.472 13.3795 15.0002 13.3795C16.2326 13.3795 17.2008 12.4113 17.2008 11.1789C17.2008 9.94658 16.2326 8.97833 15.0002 8.97833C13.7679 8.97833 12.7996 9.94658 12.7996 11.1789C12.7996 11.7071 12.4475 12.0592 11.9193 12.0592C11.3912 12.0592 11.0391 11.7071 11.0391 11.1789C11.0391 8.97833 12.7996 7.21777 15.0002 7.21777C17.2009 7.21777 18.9614 8.97827 18.9614 11.1789C18.9614 13.0275 17.641 14.6119 15.8805 15.0521V17.1647C15.8805 17.6047 15.5284 18.0449 15.0002 18.0449Z" fill="#1D1C1D"/>
<path d="M14.3837 20.3338C14.0316 19.9817 14.0316 19.3656 14.3837 19.1015C14.7358 18.7494 15.264 18.7494 15.616 19.1015C15.9681 19.4535 15.9681 19.9817 15.616 20.3338C15.264 20.7739 14.7358 20.6859 14.3837 20.3338Z" fill="#1D1C1D"/>
</g>
<defs>
<clipPath id="clip0">
<rect width="30" height="30" fill="white"/>
</clipPath>
</defs>
</svg>
